<svg width="17" height="15" viewBox="0 0 17 15" fill="none" xmlns="http://www.w3.org/2000/svg">
<path d="M14.6032 0.371139C14.7056 0.253631 14.8278 0.160281 14.9626 0.0965531C15.0975 0.032825 15.2422 0 15.3885 0C15.5347 0 15.6795 0.032825 15.8144 0.0965531C15.9492 0.160281 16.0714 0.253631 16.1737 0.371139C16.6027 0.858826 16.6087 1.64689 16.1887 2.14301L7.31924 13.9386C7.21854 14.063 7.09633 14.163 6.9601 14.2325C6.82388 14.3019 6.67648 14.3394 6.52695 14.3425C6.37741 14.3457 6.22888 14.3145 6.09042 14.2508C5.95197 14.1872 5.82652 14.0925 5.72174 13.9724L0.324738 7.81976C0.116594 7.58096 0 7.25984 0 6.92539C0 6.59093 0.116594 6.26982 0.324738 6.03101C0.427107 5.91351 0.549286 5.82016 0.684121 5.75643C0.818956 5.6927 0.963737 5.65987 1.10999 5.65987C1.25624 5.65987 1.40102 5.6927 1.53586 5.75643C1.67069 5.82016 1.79287 5.91351 1.89524 6.03101L6.47324 11.2505L14.5732 0.408264C14.5826 0.395222 14.5926 0.382825 14.6032 0.371139Z" fill="black"/>
</svg>
