<svg width="795" height="616" viewBox="0 0 795 616" fill="none" xmlns="http://www.w3.org/2000/svg">
<g clip-path="url(#clip0_870_330)">
<path d="M572.259 232.584C569.901 230.217 567.097 228.34 564.01 227.062C560.922 225.783 557.613 225.128 554.271 225.134V210.318C554.273 206.927 553.607 203.568 552.31 200.435C551.014 197.302 549.112 194.455 546.714 192.057C544.316 189.659 541.469 187.757 538.336 186.46C535.203 185.164 531.844 184.498 528.453 184.5V173.333H534.598C537.226 173.333 539.747 172.289 541.606 170.431C543.465 168.572 544.509 166.051 544.509 163.423C544.509 160.794 543.465 158.273 541.606 156.414C539.747 154.556 537.226 153.512 534.598 153.512H528.453V145.765H525.414V153.512H518.08C515.451 153.512 512.93 154.556 511.072 156.414C509.213 158.273 508.169 160.794 508.169 163.423C508.169 166.051 509.213 168.572 511.072 170.431C512.93 172.289 515.451 173.333 518.08 173.333H525.414V184.5H506.484C504.684 184.499 502.901 184.854 501.237 185.543C499.574 186.232 498.062 187.242 496.789 188.515C495.516 189.788 494.506 191.299 493.817 192.963C493.128 194.626 492.774 196.409 492.774 198.21V225.134H488.397C481.642 225.134 474.953 226.464 468.712 229.049C462.471 231.634 456.8 235.422 452.024 240.199C447.247 244.975 443.458 250.646 440.874 256.887C438.289 263.128 436.959 269.817 436.959 276.572V312.555C427.612 315.248 419.154 320.391 412.461 327.45C405.769 334.51 401.084 343.229 398.893 352.707H376.346V329.925H362.677V320.345H371.068C373.697 320.345 376.218 319.301 378.076 317.442C379.935 315.584 380.979 313.063 380.979 310.434C380.979 307.806 379.935 305.285 378.076 303.426C376.218 301.567 373.697 300.523 371.068 300.523H362.677V294.234H359.64V300.523H354.55C351.921 300.523 349.401 301.567 347.542 303.426C345.683 305.285 344.639 307.806 344.639 310.434C344.639 313.063 345.683 315.584 347.542 317.442C349.401 319.301 351.921 320.345 354.55 320.345H359.64V329.966C356.15 330.168 352.869 331.697 350.469 334.239C348.069 336.78 346.732 340.143 346.73 343.639V352.789C333.599 353.516 321.245 359.244 312.206 368.796C303.167 378.349 298.13 391 298.129 404.151V614.697H436.959V614.699H579.709V250.572C579.716 247.231 579.061 243.921 577.782 240.834C576.503 237.746 574.627 234.943 572.259 232.584Z" fill="#F2F2F2"/>
<path d="M285.159 225.129V210.321C285.159 206.93 284.491 203.573 283.194 200.44C281.896 197.308 279.994 194.461 277.597 192.064C275.199 189.666 272.353 187.764 269.22 186.467C266.088 185.169 262.731 184.501 259.34 184.501V170.03H265.352C267.98 170.03 270.501 168.985 272.36 167.127C274.219 165.268 275.263 162.747 275.263 160.119C275.263 157.49 274.219 154.969 272.36 153.111C270.501 151.252 267.98 150.208 265.352 150.208H259.34V145.772H256.302V150.208H248.834C246.205 150.208 243.684 151.252 241.826 153.111C239.967 154.969 238.923 157.49 238.923 160.119C238.923 162.747 239.967 165.268 241.826 167.127C243.684 168.985 246.205 170.03 248.834 170.03H256.302V184.501H237.362C235.561 184.501 233.778 184.856 232.114 185.545C230.45 186.235 228.939 187.245 227.665 188.518C226.392 189.792 225.381 191.303 224.692 192.967C224.003 194.631 223.648 196.414 223.648 198.215V225.129H219.277C205.634 225.129 192.549 230.549 182.901 240.197C173.253 249.844 167.833 262.929 167.833 276.573V309.906C159.187 313.631 151.651 319.531 145.961 327.031C140.27 334.531 136.617 343.377 135.357 352.707H107.228V329.925H93.5592V317.041H98.5185C101.147 317.041 103.668 315.997 105.527 314.138C107.385 312.28 108.429 309.759 108.429 307.13C108.429 304.502 107.385 301.981 105.527 300.122C103.668 298.264 101.147 297.219 98.5185 297.219H93.5592V294.234H90.5215V297.219H82.0003C79.3718 297.219 76.8509 298.264 74.9922 300.122C73.1336 301.981 72.0894 304.502 72.0894 307.13C72.0894 309.759 73.1336 312.28 74.9922 314.138C76.8509 315.997 79.3718 317.041 82.0003 317.041H90.5215V329.966C87.0316 330.168 83.751 331.697 81.3511 334.238C78.9512 336.78 77.6136 340.143 77.6119 343.639V352.789C64.4808 353.515 52.1266 359.243 43.0876 368.796C34.0487 378.348 29.0114 391 29.0107 404.151V614.697H310.599V250.569C310.599 247.228 309.941 243.92 308.663 240.833C307.384 237.747 305.51 234.942 303.148 232.58C300.786 230.218 297.981 228.344 294.895 227.065C291.808 225.787 288.5 225.129 285.159 225.129Z" fill="#F2F2F2"/>
<path d="M98.1158 443.834H117.101V428.646H98.1158V443.834Z" fill="white"/>
<path d="M66.98 443.834H85.9648V428.646H66.98V443.834Z" fill="white"/>
<path d="M98.1158 482.563H117.101V467.375H98.1158V482.563Z" fill="white"/>
<path d="M66.98 482.563H85.9648V467.375H66.98V482.563Z" fill="white"/>
<path d="M98.1158 521.292H117.101V506.104H98.1158V521.292Z" fill="white"/>
<path d="M66.98 521.292H85.9648V506.104H66.98V521.292Z" fill="white"/>
<path d="M66.98 560.021H85.9648V544.833H66.98V560.021Z" fill="white"/>
<path d="M66.98 598.75H85.9648V583.562H66.98V598.75Z" fill="white"/>
<path d="M208.461 400.928H269.972V396.372H208.461V400.928Z" fill="white"/>
<path d="M208.461 429.026H269.972V424.469H208.461V429.026Z" fill="white"/>
<path d="M208.461 457.124H269.972V452.567H208.461V457.124Z" fill="white"/>
<path d="M244.912 208.043H263.896V192.855H244.912V208.043Z" fill="white"/>
<path d="M367.233 482.563H386.218V467.375H367.233V482.563Z" fill="white"/>
<path d="M336.098 482.563H355.083V467.375H336.098V482.563Z" fill="white"/>
<path d="M367.233 521.292H386.218V506.104H367.233V521.292Z" fill="white"/>
<path d="M336.098 521.292H355.083V506.104H336.098V521.292Z" fill="white"/>
<path d="M367.233 560.021H386.218V544.833H367.233V560.021Z" fill="white"/>
<path d="M336.098 560.021H355.083V544.833H336.098V560.021Z" fill="white"/>
<path d="M367.233 598.75H386.218V583.562H367.233V598.75Z" fill="white"/>
<path d="M336.098 598.75H355.083V583.562H336.098V598.75Z" fill="white"/>
<path d="M514.029 208.043H533.014V192.855H514.029V208.043Z" fill="white"/>
<path d="M579.709 257.576H532.946V267.487H579.709V257.576Z" fill="white"/>
<path d="M579.709 287.309H532.946V297.22H579.709V287.309Z" fill="white"/>
<path d="M579.709 317.042H532.946V326.952H579.709V317.042Z" fill="white"/>
<path d="M579.709 346.774H532.946V356.685H579.709V346.774Z" fill="white"/>
<path d="M579.709 376.507H532.946V386.418H579.709V376.507Z" fill="white"/>
<path d="M579.709 406.239H532.946V416.15H579.709V406.239Z" fill="white"/>
<path d="M309.242 462.575L319.986 471.566L360.55 433.48L344.693 420.211L309.242 462.575Z" fill="#FFB6B6"/>
<path d="M341.028 459.534L318.275 443.829L378.183 348.848C334.763 323.61 304.903 292.823 280.538 259.005C272.258 247.591 267.211 234.309 278.762 225.747C279.302 225.347 279.856 224.968 280.425 224.61C293.597 216.402 289.321 228.703 307.377 222.662L323.69 240.065L358.938 274.361L419.059 312.739C431.149 320.457 434.504 336.691 426.552 348.999C426.132 349.649 425.685 350.28 425.21 350.892L341.028 459.534Z" fill="#2F2E41"/>
<path d="M310.603 455.251L329.441 469.196L323.008 476.883L330.207 502.939C330.562 504.226 330.497 505.593 330.021 506.84C329.545 508.088 328.683 509.15 327.56 509.873C326.437 510.595 325.113 510.94 323.78 510.856C322.448 510.773 321.177 510.266 320.153 509.409L298.792 491.533L301.474 480.848L293.673 487.248L285.619 480.508L310.603 455.251Z" fill="#2F2E41"/>
<path d="M284.31 360.348L168.115 401.899L171.482 411.315L287.677 369.764L284.31 360.348Z" fill="#3F3D56"/>
<path d="M311.485 521.085L281.209 494.943C279.103 493.123 277.805 490.541 277.602 487.764C277.399 484.987 278.307 482.244 280.127 480.136C281.946 478.029 284.528 476.731 287.305 476.527C290.081 476.323 292.825 477.23 294.933 479.049L325.209 505.19C326.253 506.091 327.11 507.189 327.73 508.421C328.35 509.653 328.721 510.995 328.822 512.371C328.923 513.746 328.752 515.128 328.319 516.438C327.886 517.747 327.199 518.958 326.297 520.002C325.396 521.046 324.298 521.902 323.066 522.522C321.833 523.141 320.491 523.512 319.115 523.612C317.74 523.713 316.358 523.541 315.049 523.108C313.739 522.674 312.528 521.987 311.485 521.085Z" fill="#3F3D56"/>
<path d="M483.47 219.067C481.556 219.727 479.522 219.959 477.509 219.748C475.496 219.536 473.554 218.886 471.82 217.843C470.085 216.799 468.601 215.389 467.47 213.71C466.34 212.031 465.592 210.124 465.278 208.125L357.124 180.275L374.762 161.768L477.773 192.015C481.167 191.711 484.555 192.662 487.294 194.689C490.034 196.715 491.935 199.676 492.637 203.011C493.339 206.345 492.794 209.821 491.104 212.781C489.415 215.74 486.698 217.976 483.47 219.067Z" fill="#FFB6B6"/>
<path d="M319.168 89.7593C319.168 89.7593 301.582 91.7968 301.898 112.062C302.214 132.327 345.323 178.492 352.048 186.141C358.774 193.79 425.892 197.698 425.892 197.698L446.859 179.262L384.691 158.316L319.168 89.7593Z" fill="#FFC928"/>
<path d="M283.496 184.877L279.529 203.485C279.529 203.485 272.309 218.972 273.71 223.11C275.098 227.225 337.592 249.595 337.592 249.595C337.592 249.595 342.947 221.692 351.882 202.87L283.496 184.877Z" fill="#FFB6B6"/>
<path d="M483.782 475.919L447.69 493.163C445.177 494.363 442.29 494.516 439.664 493.588C437.039 492.66 434.889 490.728 433.689 488.215C432.488 485.702 432.335 482.815 433.263 480.19C434.191 477.564 436.124 475.415 438.637 474.214L474.729 456.971C477.242 455.77 480.129 455.617 482.754 456.545C485.38 457.473 487.529 459.406 488.73 461.918C489.93 464.431 490.083 467.318 489.155 469.943C488.228 472.569 486.295 474.719 483.782 475.919Z" fill="#3F3D56"/>
<path d="M620.689 613.567C598.146 613.567 576.109 606.882 557.365 594.358C538.621 581.833 524.012 564.032 515.385 543.205C506.758 522.378 504.501 499.461 508.899 477.351C513.297 455.241 524.153 434.932 540.093 418.991C556.033 403.051 576.343 392.195 598.452 387.798C620.562 383.4 643.48 385.657 664.307 394.284C685.134 402.91 702.935 417.52 715.459 436.263C727.984 455.007 734.668 477.044 734.668 499.587C734.634 529.806 722.615 558.777 701.247 580.145C679.879 601.513 650.908 613.533 620.689 613.567ZM620.689 396.161C600.233 396.161 580.237 402.227 563.228 413.592C546.22 424.956 532.964 441.109 525.136 460.008C517.307 478.906 515.259 499.702 519.25 519.765C523.241 539.827 533.091 558.256 547.555 572.72C562.02 587.185 580.449 597.035 600.511 601.026C620.574 605.017 641.369 602.968 660.268 595.14C679.167 587.312 695.32 574.056 706.684 557.048C718.049 540.039 724.115 520.043 724.115 499.587C724.084 472.166 713.177 445.878 693.788 426.488C674.398 407.099 648.109 396.192 620.689 396.161Z" fill="#3F3D56"/>
<path d="M625.709 523.566C634.546 523.566 641.709 516.403 641.709 507.566C641.709 498.73 634.546 491.566 625.709 491.566C616.872 491.566 609.709 498.73 609.709 507.566C609.709 516.403 616.872 523.566 625.709 523.566Z" fill="#3F3D56"/>
<path d="M152.249 615.12C130.889 615.12 110.008 608.786 92.2475 596.919C74.487 585.052 60.6443 568.184 52.4701 548.45C44.2958 528.716 42.1571 507 46.3243 486.05C50.4915 465.1 60.7775 445.857 75.8815 430.753C90.9856 415.649 110.229 405.363 131.179 401.195C152.129 397.028 173.844 399.167 193.579 407.341C213.313 415.515 230.181 429.358 242.048 447.119C253.915 464.879 260.249 485.76 260.249 507.12C260.217 535.754 248.828 563.205 228.581 583.452C208.334 603.699 180.883 615.088 152.249 615.12ZM152.249 409.12C132.867 409.12 113.919 414.868 97.8032 425.636C81.6872 436.405 69.1263 451.71 61.7089 469.617C54.2915 487.524 52.3508 507.229 56.1321 526.239C59.9135 545.249 69.2471 562.711 82.9526 576.417C96.6582 590.122 114.12 599.456 133.13 603.237C152.14 607.018 171.845 605.078 189.752 597.66C207.659 590.243 222.965 577.682 233.733 561.566C244.501 545.45 250.249 526.503 250.249 507.12C250.22 481.138 239.885 456.228 221.513 437.856C203.141 419.484 178.231 409.15 152.249 409.12Z" fill="#3F3D56"/>
<path d="M152.248 523.12C161.085 523.12 168.248 515.957 168.248 507.12C168.248 498.284 161.085 491.12 152.248 491.12C143.411 491.12 136.248 498.284 136.248 507.12C136.248 515.957 143.411 523.12 152.248 523.12Z" fill="#3F3D56"/>
<path d="M369.249 523.673C379.495 523.673 387.802 515.367 387.802 505.12C387.802 494.873 379.495 486.566 369.249 486.566C359.002 486.566 350.695 494.873 350.695 505.12C350.695 515.367 359.002 523.673 369.249 523.673Z" fill="#3F3D56"/>
<path d="M156.357 505.986L149.061 499.147L279.296 360.214L511.708 290.657L627.053 493.091L618.365 498.042L506.957 302.518L284.748 369.021L156.357 505.986Z" fill="#3F3D56"/>
<path d="M353.492 499.678H255.22V509.678H353.492V499.678Z" fill="#3F3D56"/>
<path d="M287.022 312.334H277.022V364.617H287.022V312.334Z" fill="#3F3D56"/>
<path d="M481.467 194.03L471.951 197.103L504.574 298.124L514.09 295.051L481.467 194.03Z" fill="#3F3D56"/>
<path d="M286.024 358.04L277.395 363.094L359.395 503.094L368.024 498.04L286.024 358.04Z" fill="#3F3D56"/>
<path d="M555.889 378.43L379.896 498.441L385.53 506.703L561.522 386.692L555.889 378.43Z" fill="#3F3D56"/>
<path d="M301.209 318.566H261.209C258.424 318.566 255.753 317.46 253.784 315.491C251.815 313.522 250.709 310.851 250.709 308.066C250.709 305.282 251.815 302.611 253.784 300.642C255.753 298.673 258.424 297.566 261.209 297.566H301.209C303.994 297.566 306.664 298.673 308.634 300.642C310.603 302.611 311.709 305.282 311.709 308.066C311.709 310.851 310.603 313.522 308.634 315.491C306.664 317.46 303.994 318.566 301.209 318.566Z" fill="#FFC928"/>
<path d="M496.209 205.566H456.209C453.424 205.566 450.753 204.46 448.784 202.491C446.815 200.522 445.709 197.851 445.709 195.066C445.709 192.282 446.815 189.611 448.784 187.642C450.753 185.673 453.424 184.566 456.209 184.566H496.209C498.994 184.566 501.664 185.673 503.634 187.642C505.603 189.611 506.709 192.282 506.709 195.066C506.709 197.851 505.603 200.522 503.634 202.491C501.664 204.46 498.994 205.566 496.209 205.566Z" fill="#FFC928"/>
<path d="M754.18 551.395L755.324 525.675C767.248 519.302 780.548 515.935 794.068 515.868C775.46 531.081 777.786 560.408 765.169 580.867C761.186 587.218 755.824 592.591 749.481 596.588C743.139 600.585 735.978 603.103 728.53 603.957L712.958 613.491C710.821 601.579 711.292 589.345 714.339 577.632C717.385 565.92 722.935 555.007 730.605 545.646C734.96 540.437 739.953 535.797 745.468 531.836C749.197 541.67 754.18 551.395 754.18 551.395Z" fill="#F2F2F2"/>
<path d="M794.67 614.121C794.671 614.277 794.64 614.432 794.58 614.577C794.521 614.721 794.433 614.853 794.323 614.963C794.212 615.074 794.081 615.161 793.936 615.221C793.791 615.281 793.636 615.311 793.48 615.311H1.19C0.874395 615.311 0.57171 615.185 0.348541 614.962C0.125373 614.739 0 614.436 0 614.121C0 613.805 0.125373 613.502 0.348541 613.279C0.57171 613.056 0.874395 612.931 1.19 612.931H793.48C793.636 612.93 793.791 612.961 793.936 613.02C794.081 613.08 794.212 613.168 794.323 613.278C794.433 613.389 794.521 613.52 794.58 613.665C794.64 613.809 794.671 613.964 794.67 614.121Z" fill="#CCCCCC"/>
<path d="M347.808 74.875C363.907 72.138 374.739 56.8685 372.002 40.7697C369.265 24.6709 353.995 13.839 337.897 16.576C321.798 19.313 310.966 34.5824 313.703 50.6812C316.44 66.7801 331.709 77.612 347.808 74.875Z" fill="#FFB6B6"/>
<path d="M664.862 184.505C679.608 184.505 691.563 172.551 691.563 157.805C691.563 143.058 679.608 131.104 664.862 131.104C650.115 131.104 638.161 143.058 638.161 157.805C638.161 172.551 650.115 184.505 664.862 184.505Z" fill="#003DA5"/>
<path d="M724.624 145.163C723.869 142.693 722.409 140.498 720.423 138.848C718.437 137.197 716.011 136.163 713.445 135.872C713.387 135.864 713.332 135.875 713.274 135.871C713.2 135.848 713.124 135.831 713.047 135.819C700.836 134.241 686.741 140.081 681.652 151.657C680.41 149.964 678.775 148.598 676.887 147.679C675 146.759 672.917 146.312 670.818 146.378C668.112 146.558 665.528 147.568 663.416 149.27C661.305 150.972 659.769 153.283 659.018 155.889C658.938 156.208 658.962 156.544 659.086 156.849C659.21 157.154 659.427 157.411 659.707 157.583C660.514 158.267 661.469 158.752 662.497 158.999C664.715 159.469 666.94 159.899 669.173 160.29C673.531 161.053 677.912 161.669 682.315 162.14C691.254 163.098 700.248 163.438 709.233 163.158C712.226 163.064 715.112 162.965 717.854 161.644C719.849 160.659 721.553 159.172 722.799 157.329C723.973 155.557 724.745 153.55 725.061 151.448C725.376 149.346 725.227 147.201 724.624 145.163Z" fill="#F0F0F0"/>
<path d="M669.129 180.764C668.374 178.294 666.914 176.099 664.928 174.449C662.942 172.798 660.516 171.764 657.95 171.473C657.892 171.465 657.837 171.476 657.779 171.472C657.705 171.45 657.629 171.432 657.551 171.42C645.341 169.842 631.246 175.682 626.156 187.258C624.915 185.565 623.28 184.199 621.392 183.28C619.505 182.36 617.422 181.914 615.323 181.979C612.617 182.159 610.033 183.169 607.921 184.871C605.809 186.573 604.274 188.884 603.523 191.49C603.443 191.809 603.467 192.145 603.591 192.45C603.715 192.755 603.932 193.012 604.212 193.184C605.019 193.868 605.974 194.353 607.002 194.6C609.219 195.07 611.445 195.5 613.678 195.891C618.036 196.654 622.417 197.271 626.82 197.741C635.759 198.699 644.753 199.039 653.738 198.759C656.731 198.665 659.617 198.566 662.359 197.245C664.354 196.26 666.058 194.773 667.304 192.93C668.478 191.158 669.25 189.151 669.566 187.049C669.881 184.948 669.732 182.802 669.129 180.764Z" fill="#F0F0F0"/>
<path d="M525.869 328.593L492.476 258.103L492.928 257.889C495.242 256.793 497.749 256.163 500.307 256.035C502.864 255.908 505.422 256.286 507.834 257.147C510.245 258.008 512.464 259.336 514.362 261.054C516.26 262.773 517.802 264.849 518.898 267.163L535.595 302.409C536.691 304.723 537.321 307.23 537.448 309.788C537.576 312.345 537.198 314.903 536.337 317.314C535.476 319.726 534.148 321.944 532.429 323.843C530.711 325.741 528.635 327.283 526.321 328.379L525.869 328.593Z" fill="#3F3D56"/>
<path d="M423.791 340.982C419.587 340.971 415.499 339.604 412.134 337.083C408.769 334.562 406.308 331.023 405.115 326.992L404.974 326.512L479.785 304.438L479.927 304.918C480.652 307.374 480.885 309.949 480.615 312.495C480.345 315.042 479.575 317.51 478.351 319.759C477.127 322.008 475.471 323.994 473.48 325.604C471.488 327.213 469.198 328.415 466.742 329.139L429.336 340.176C427.536 340.709 425.669 340.981 423.791 340.982Z" fill="#3F3D56"/>
<path d="M433.406 462.464L447.019 459.106L440.726 403.809L420.634 408.767L433.406 462.464Z" fill="#FFB6B6"/>
<path d="M426.959 446.596L448.204 436.697L451.888 446.019L478.221 452.13C479.522 452.431 480.692 453.141 481.561 454.155C482.43 455.168 482.952 456.433 483.051 457.765C483.15 459.096 482.82 460.425 482.111 461.556C481.402 462.687 480.349 463.562 479.108 464.052L453.204 474.291L445.094 466.834L446.996 476.745L437.229 480.605L426.959 446.596Z" fill="#2F2E41"/>
<path d="M447.782 412.637L418.756 430.044L387.798 320.712C337.578 320.283 291.143 314.66 253.23 297.342C240.385 291.526 234.671 276.144 240.468 262.986C240.739 262.371 241.033 261.767 241.35 261.175C248.73 247.522 263.037 239.504 275.733 225.315L338.709 248.567L334.196 265.525L405.433 269.101C419.759 269.82 430.711 282.264 429.896 296.894C429.853 297.667 429.777 298.437 429.668 299.204L447.782 412.637Z" fill="#2F2E41"/>
<path d="M324.64 74.5894L343.993 84.7086C345.063 85.1353 345.972 85.885 346.595 86.853C347.218 87.8211 347.523 88.9594 347.469 90.1093L352.51 110.281L370.247 147.825C370.247 147.825 374.869 167.806 366.049 186.671C357.229 205.537 337.709 252.567 337.709 252.567C324.977 283.06 220.476 259.512 247.709 233.567C250.949 230.479 269.162 204.403 275.825 202.904L292.176 109.339C293 104.399 294.907 99.7024 297.761 95.5864C300.614 91.4704 304.342 88.0368 308.679 85.5317C311.299 84.0508 313.727 83.174 315.391 83.6215C319.185 84.5055 320.978 75.9146 324.64 74.5894Z" fill="#FFC928"/>
<path d="M492.72 198.566C490.96 199.566 489.003 200.168 486.985 200.329C484.968 200.49 482.939 200.207 481.043 199.5C479.147 198.793 477.429 197.678 476.01 196.235C474.591 194.792 473.505 193.055 472.83 191.147L361.402 183.611L375.346 162.183L482.158 173.019C485.438 172.097 488.943 172.41 492.008 173.9C495.072 175.39 497.484 177.952 498.786 181.101C500.088 184.25 500.19 187.767 499.072 190.986C497.954 194.205 495.694 196.902 492.72 198.566Z" fill="#FFB6B6"/>
<path d="M307.484 101.595C307.484 101.595 290.57 106.824 294.599 126.687C298.627 146.551 349.474 184.024 357.488 190.309C365.503 196.594 432.199 188.122 432.199 188.122L449.428 166.153L384.472 156.968L307.484 101.595Z" fill="#FFC928"/>
<path d="M374.391 35.9436C369.926 38.1429 364.87 34.9552 360.964 31.7852L362.362 32.9676C355.584 39.6988 352.482 49.3147 351.015 58.7643C349.546 68.204 349.471 77.843 347.596 87.2199C345.719 96.5869 341.724 106.02 334.139 111.823C323.978 119.596 309.85 119.25 297.26 117.028C297.092 116.996 296.936 116.972 296.768 116.94C300.049 107.142 301.317 96.7832 300.496 86.4838C297.234 96.847 291.597 106.305 284.033 114.104C275.678 111.897 267.515 109.017 259.624 105.493C254.519 103.207 249.014 100.065 247.548 94.6641C246.079 89.3045 249.304 83.6337 253.66 80.1951C258.015 76.7565 263.385 74.9306 268.361 72.4616C273.33 70.004 278.236 66.5226 280.182 61.3228C284.67 49.3613 271.394 35.8251 276.393 24.0608C278.858 18.2758 285.009 15.0795 290.796 12.6046C299.631 8.83618 308.71 5.6693 317.972 3.12564C326.103 0.891256 334.598 -0.867503 342.918 0.456798C351.237 1.78109 359.426 6.74886 362.496 14.6054C367.501 16.2397 372.815 18.0851 376.059 22.2502C379.301 26.4055 379.118 33.6184 374.391 35.9436Z" fill="#2F2E41"/>
<path d="M236.395 544.094H67.6572V546.094H236.395V544.094Z" fill="#3F3D56"/>
<path d="M236.395 564.094H67.6572V566.094H236.395V564.094Z" fill="#3F3D56"/>
<path d="M710.395 544.094H541.657V546.094H710.395V544.094Z" fill="#3F3D56"/>
<path d="M710.395 564.094H541.657V566.094H710.395V564.094Z" fill="#3F3D56"/>
<path d="M534.367 303.522C540.324 301.32 542.437 292.185 539.085 283.12C535.734 274.055 528.188 268.491 522.231 270.693C516.274 272.895 514.161 282.03 517.512 291.095C520.863 300.16 528.409 305.724 534.367 303.522Z" fill="#FFC928"/>
</g>
<defs>
<clipPath id="clip0_870_330">
<rect width="794.67" height="615.311" fill="white"/>
</clipPath>
</defs>
</svg>
