<svg width="853" height="680" viewBox="0 0 853 680" fill="none" xmlns="http://www.w3.org/2000/svg">
<g clip-path="url(#clip0_870_28)">
<path d="M438.623 98.8085C430.954 86.1241 421.866 72.5809 407.634 68.439C391.152 63.6425 374.221 73.1709 359.859 82.5735C316.91 110.694 275.549 141.168 235.966 173.857L236.009 174.349C266.826 172.224 297.643 170.099 328.46 167.973C350.725 166.438 373.756 164.691 393.432 154.158C400.899 150.161 408.177 144.822 416.638 144.45C427.149 143.988 436.315 151.329 443.518 158.999C486.125 204.37 498.455 273.753 546.256 313.615C516.114 239.28 480.124 167.453 438.623 98.8085Z" fill="#F2F2F2"/>
<path d="M700.524 483.637C695.813 477.688 693.887 476.294 689.24 470.29C651.397 421.345 615.827 370.748 582.532 318.497C559.916 283.011 538.422 246.842 518.049 209.993C508.35 192.474 498.917 174.818 489.749 157.024C482.636 143.227 475.681 129.348 468.885 115.386C466.941 111.398 465.053 107.392 463.174 103.377C458.746 93.9347 454.4 84.4465 449.734 75.1325C444.417 64.5168 437.945 53.3876 428.182 46.2555C423.738 42.8765 418.425 40.832 412.863 40.3609C404.915 39.8476 397.581 43.1295 390.687 46.7139C340.249 73.0149 293.028 105.99 250.318 143.512C207.498 181.118 169.224 223.603 136.276 270.103C135.268 271.542 132.884 270.167 133.902 268.719C137.908 263.053 141.994 257.449 146.159 251.906C197.947 183.028 261.448 123.797 333.758 76.9201C345.924 69.0363 358.318 61.5221 370.941 54.3777C377.303 50.7749 383.693 47.218 390.192 43.8811C396.564 40.6084 403.329 37.6657 410.608 37.5557C435.378 37.1707 448.203 65.2227 457.013 84.0982C459.781 90.0386 462.584 95.9607 465.419 101.864C476.136 124.278 487.265 146.488 498.807 168.492C505.93 182.078 513.209 195.585 520.643 209.012C543.781 250.824 568.374 291.79 594.422 331.909C628.928 385.052 663.158 431.998 702.468 481.694C703.55 483.069 701.616 485.031 700.524 483.637Z" fill="#E4E4E4"/>
<path d="M247.869 129.66C246.43 128.055 245 126.451 243.552 124.847C232.129 112.214 219.873 99.7282 204.187 92.486C196.708 88.9238 188.544 87.0313 180.261 86.9398C171.698 86.9673 163.329 89.2133 155.417 92.3577C151.677 93.852 148.019 95.5479 144.417 97.3538C140.3 99.4257 136.257 101.635 132.233 103.863C124.679 108.043 117.223 112.407 109.865 116.954C95.2247 126.002 81.0428 135.74 67.3195 146.17C60.2054 151.579 53.2382 157.164 46.4177 162.928C40.074 168.281 33.8586 173.779 27.7715 179.42C26.4699 180.621 24.5263 178.677 25.828 177.476C27.4322 175.982 29.0549 174.497 30.6775 173.03C35.2612 168.886 39.9182 164.822 44.6487 160.838C53.2749 153.559 62.1244 146.561 71.1972 139.844C85.3059 129.394 99.9001 119.652 114.98 110.619C122.516 106.109 130.155 101.788 137.898 97.6564C140.236 96.4097 142.602 95.1904 144.994 94.0353C150.423 91.2969 156.064 89.0007 161.862 87.169C170.075 84.512 178.765 83.6584 187.338 84.6663C195.616 85.8704 203.591 88.6293 210.843 92.7977C226.244 101.406 238.189 114.717 249.813 127.707C250.987 129.027 249.052 130.98 247.869 129.66Z" fill="#E4E4E4"/>
<path d="M563.43 260.566L600.335 247.068L618.658 240.367C624.625 238.184 630.579 235.699 636.748 234.136C642.109 232.605 647.801 232.677 653.121 234.345C657.866 236.101 662.209 238.793 665.892 242.261C669.655 245.727 673.156 249.466 676.367 253.448C680.357 258.242 684.287 263.087 688.235 267.915C704.529 287.842 720.717 307.856 736.798 327.956C752.879 348.056 768.852 368.242 784.718 388.512C800.622 408.833 816.417 429.238 832.103 449.728C834.025 452.238 835.945 454.75 837.863 457.262C838.923 458.65 841.312 457.282 840.238 455.874C824.436 435.178 808.525 414.566 792.503 394.039C776.442 373.464 760.269 352.975 743.986 332.574C727.703 312.173 711.311 291.86 694.808 271.636C690.696 266.598 686.578 261.565 682.453 256.538C678.974 252.297 675.533 248.01 671.717 244.063C664.712 236.818 655.959 230.415 645.483 230.242C639.323 230.139 633.362 232.094 627.639 234.165C621.469 236.397 615.314 238.67 609.152 240.924L571.99 254.516L562.699 257.914C561.05 258.517 561.762 261.176 563.43 260.566Z" fill="#E4E4E4"/>
<path d="M199.331 108.382C180.577 98.743 156.56 100.631 139.326 112.673C172.198 118.344 204.71 125.932 236.697 135.399C223.414 127.615 213.024 115.419 199.331 108.382Z" fill="#F2F2F2"/>
<path d="M139.142 112.64L135.531 115.574C136.752 114.547 138.022 113.584 139.326 112.673C139.265 112.662 139.203 112.65 139.142 112.64Z" fill="#F2F2F2"/>
<path d="M664.503 260.701C660.87 256.279 656.942 251.649 651.509 249.853L646.436 250.053C685.053 318.292 737.21 377.919 799.703 425.274C754.636 370.416 709.57 315.559 664.503 260.701Z" fill="#F2F2F2"/>
<path d="M187.565 487.092C185.349 490.081 182.993 492.971 180.496 495.732C158.766 499.403 138.608 503.371 120.141 507.405C114.801 508.569 109.607 509.739 104.56 510.915L104.677 510.554C102.989 497.477 104.861 484.188 110.097 472.087C110.421 471.344 110.755 470.602 111.098 469.869C114.537 462.478 119.208 455.726 124.913 449.903C133.59 441.1 144.435 434.51 155.544 428.317C176.338 416.734 198.014 406.503 207.97 385.629C212.106 403.011 212.424 421.083 208.901 438.6C205.379 456.117 198.099 472.661 187.565 487.092Z" fill="#E6E6E6"/>
<path d="M74.7753 431.45C84.5192 421.662 92.7955 410.516 99.3468 398.358C105.879 386.262 110.67 373.304 113.578 359.868C116.526 346.233 117.423 332.234 116.24 318.333C113.792 290.023 103.099 263.052 85.4838 240.755C84.4082 239.399 83.3073 238.064 82.181 236.749C80.9254 235.28 78.8306 237.429 80.0774 238.888C98.0396 260.065 109.399 286.043 112.749 313.609C115.182 334.675 112.84 356.017 105.895 376.054C98.9511 396.09 87.5835 414.305 72.6364 429.347C71.2709 430.716 73.41 432.819 74.7753 431.45Z" fill="#CCCCCC"/>
<path d="M86.7147 243.293C85.4964 242.849 84.3028 242.34 83.1389 241.768C83.0811 241.859 83.0247 241.951 82.9668 242.042L86.7147 243.293Z" fill="#E6E6E6"/>
<path d="M87.7154 204.695C83.4779 199.476 75.4414 197.187 69.6699 200.635C65.8 202.947 63.5086 207.398 63.1057 211.888C62.8556 216.417 63.8666 220.926 66.0263 224.915C69.7525 232.239 75.7584 238.154 83.1389 241.768C86.6937 236.184 90.0227 230.315 91.4064 223.846C92.8127 217.271 91.9527 209.915 87.7154 204.695Z" fill="#CCCCCC"/>
<path d="M139.795 241.762C141.88 233.136 142.07 224.161 140.352 215.454C138.634 206.747 135.049 198.517 129.844 191.329C128.931 208.931 110.589 220.287 103.975 236.624C101.951 241.736 101.103 247.237 101.494 252.72C101.885 258.204 103.505 263.529 106.234 268.301L107.36 281.643C115.327 277.735 122.353 272.145 127.952 265.261C133.552 258.376 137.592 250.359 139.795 241.762Z" fill="#CCCCCC"/>
<path d="M172.865 291.415C163.77 306.513 142.242 307.894 128.714 319.192C124.522 322.748 121.183 327.202 118.946 332.223C116.709 337.245 115.631 342.706 115.791 348.201L110.501 360.501C119.378 360.866 128.226 359.271 136.418 355.83C144.609 352.39 151.941 347.187 157.895 340.592C163.848 333.997 168.275 326.172 170.863 317.672C173.45 309.173 174.133 300.208 172.865 291.415Z" fill="#CCCCCC"/>
<path d="M88.2343 324.973C81.3466 330.585 75.7794 337.645 71.9285 345.652C68.0776 353.658 66.0374 362.415 65.9529 371.299C65.8685 380.183 67.7418 388.976 71.4398 397.055C75.1378 405.133 80.5697 412.297 87.3495 418.039L91.7848 405.406C95.6234 401.471 98.5272 396.722 100.281 391.512C102.035 386.302 102.594 380.764 101.917 375.309C99.611 357.835 84.7039 342.241 88.2343 324.973Z" fill="#CCCCCC"/>
<path d="M89.2315 495.522C85.6015 506.342 76.8318 514.806 66.8176 520.349C66.2901 520.644 65.7624 520.928 65.2347 521.202C64.7966 521.436 64.3485 521.66 63.9002 521.873C60.2868 522.684 56.6424 523.374 53.0187 524.144C53.0087 524.144 52.9989 524.154 52.9889 524.154C47.5814 525.68 42.4803 527.165 37.6854 528.612C34.9921 529.415 32.3885 530.206 29.895 530.987C29.5658 531.08 29.2466 531.183 28.9174 531.285C28.4885 531.419 28.0696 531.552 27.6506 531.676C27.6404 531.656 27.6304 531.646 27.6302 531.626C27.6201 531.616 27.6201 531.616 27.6301 531.606C25.7041 527.302 23.8381 522.987 22.0515 518.602C15.0039 501.735 9.40864 484.298 5.32675 466.48C0.495277 444.719 -1.4296 422.534 1.14604 400.392C2.93102 385.163 7.10337 370.309 13.5098 356.378C14.4333 354.39 15.4003 352.425 16.4108 350.483C16.7157 349.871 17.0307 349.268 17.3656 348.665L17.3656 348.655C17.3951 348.595 17.4346 348.535 17.474 348.464L17.6217 348.193L17.6216 348.183C18.4981 346.556 19.4115 344.951 20.3616 343.37C25.0758 335.406 30.6513 327.985 36.9879 321.241C47.7038 309.65 60.9333 300.669 75.6606 294.988L75.6706 294.988C76.3783 294.712 77.0962 294.456 77.8141 294.2C77.5406 294.972 77.2669 295.734 77.0033 296.507C73.4095 306.887 70.6491 317.537 68.7483 328.356C68.6052 329.188 68.4622 330.029 68.3293 330.87C64.0634 356.973 64.6824 383.641 70.1545 409.518C70.1651 409.587 70.1856 409.657 70.1962 409.727C71.4141 415.457 72.878 421.125 74.588 426.731C74.6294 426.891 74.6706 427.041 74.7219 427.2C75.051 428.287 75.4001 429.375 75.7491 430.452C76.7653 433.593 77.8613 436.711 79.0371 439.805C85.8877 457.858 95.3793 477.22 89.2315 495.522Z" fill="#F0F0F0"/>
<path d="M78.2511 295.056C77.8251 295.54 77.4091 296.023 77.0031 296.507C68.2818 306.667 60.7107 317.761 54.4279 329.586C54.1128 330.179 53.7978 330.781 53.4928 331.384C44.9122 347.891 38.9405 365.628 35.7902 383.963C35.8003 383.973 35.8003 383.973 35.7904 383.983C35.7618 384.153 35.7332 384.324 35.7048 384.504C35.7148 384.514 35.7149 384.524 35.7049 384.524C34.9806 388.81 34.4266 393.135 34.0426 397.458C33.3203 405.585 33.2895 413.895 35.1362 421.89C36.6706 428.471 39.7216 434.603 44.0457 439.796C44.4601 440.323 44.8944 440.839 45.3487 441.356C45.702 441.763 46.0655 442.17 46.4388 442.567C49.9203 446.328 53.76 449.876 57.0134 453.879C58.5007 455.684 59.8253 457.617 60.9717 459.656C64.8098 466.624 65.0261 474.573 62.488 482.024C59.3939 491.14 53.2159 498.612 46.9047 505.695C40.1378 513.302 33.0026 521.101 29.8948 530.987C29.5656 531.08 29.2464 531.183 28.9173 531.286C28.4884 531.419 28.0695 531.553 27.6505 531.676C27.7526 531.925 27.8646 532.174 27.9767 532.423C27.8623 532.338 27.7702 532.227 27.7082 532.099C27.6462 531.97 27.6161 531.829 27.6206 531.686C27.6188 531.666 27.6221 531.645 27.6301 531.626C27.62 531.616 27.62 531.616 27.6299 531.606C27.6295 531.535 27.639 531.465 27.6581 531.396C28.4379 528.654 29.5017 526.001 30.8323 523.479C30.8321 523.459 30.8321 523.459 30.842 523.449C37.9499 509.95 51.4208 500.407 58.3464 486.649C62.1833 479.047 63.74 470.243 60.0234 462.274C58.9244 459.97 57.5641 457.801 55.9694 455.808C52.856 451.814 49.0467 448.305 45.6061 444.644C44.7485 443.741 43.9308 442.818 43.1429 441.874C38.847 436.93 35.6613 431.122 33.8007 424.841C31.5552 416.98 31.2557 408.652 31.7682 400.537C32.0947 395.325 32.7013 390.109 33.5482 384.932C33.6526 384.261 33.7672 383.6 33.8915 382.929L33.8915 382.919C39.7172 350.406 54.1392 320.045 75.6604 294.988L75.6704 294.988C76.0664 294.505 76.4824 294.021 76.8985 293.548C77.7604 292.57 79.1131 294.089 78.2511 295.056Z" fill="white"/>
<path d="M34.4857 385.172C28.2041 383.703 22.6495 380.048 18.8138 374.861C14.9781 369.674 13.1112 363.292 13.5464 356.855C13.5665 356.593 13.6877 356.349 13.8844 356.174C14.0812 355.999 14.338 355.908 14.6009 355.919C14.8637 355.93 15.1121 356.042 15.2936 356.233C15.4751 356.423 15.5756 356.677 15.5739 356.94C15.1576 362.933 16.8973 368.877 20.4789 373.7C24.0606 378.523 29.2483 381.907 35.1057 383.241C36.3783 383.532 35.7509 385.462 34.4857 385.172Z" fill="white"/>
<path d="M43.5078 440.126C54.7739 433.271 63.0424 422.421 66.6646 409.741C67.0224 408.484 68.9537 409.106 68.5963 410.361C64.8024 423.55 56.1748 434.822 44.4353 441.93C43.3159 442.607 42.3944 440.799 43.5078 440.126Z" fill="white"/>
<path d="M53.8515 329.344C56.1635 330.419 58.7063 330.903 61.2516 330.752C63.7969 330.602 66.265 329.822 68.4342 328.482C69.5444 327.791 70.4647 329.6 69.3617 330.286C66.9582 331.755 64.2314 332.614 61.4196 332.786C58.6078 332.959 55.7965 332.44 53.2314 331.275C52.9805 331.186 52.773 331.004 52.6512 330.767C52.5293 330.53 52.5023 330.256 52.5756 330C52.659 329.744 52.8397 329.532 53.0787 329.409C53.3176 329.286 53.5953 329.263 53.8515 329.344Z" fill="white"/>
<path d="M211.289 374.681C210.602 375.126 209.936 375.582 209.25 376.038L209.249 376.042L209.247 376.045L209.244 376.047L209.24 376.048C200.12 382.154 191.512 388.992 183.499 396.493L183.49 396.503C182.854 397.078 182.229 397.664 181.614 398.249C162.55 416.493 147.022 438.104 135.813 461.992L135.725 462.173C131.276 471.716 127.557 481.582 124.6 491.687C123.103 496.81 121.707 502.141 120.141 507.405C114.801 508.569 109.607 509.739 104.56 510.915C98.1521 512.398 91.9809 513.886 86.0465 515.379C83.4716 516.01 80.9435 516.648 78.4621 517.292C73.7783 519.316 68.8984 520.851 63.8998 521.874C60.2864 522.684 56.642 523.374 53.0183 524.144C53.0083 524.144 52.9984 524.154 52.9884 524.155C47.581 525.68 42.4798 527.166 37.685 528.612C34.9916 529.415 32.3881 530.206 29.8945 530.987C29.5653 531.08 29.2462 531.183 28.917 531.285C29.5354 528.69 30.1636 526.075 30.832 523.479C30.8318 523.459 30.8318 523.459 30.8418 523.449C36.7971 500.059 44.755 476.962 55.9691 455.808C56.3038 455.165 56.6383 454.512 57.0131 453.879C61.5581 445.42 66.711 437.302 72.4313 429.589C73.1234 428.634 73.8455 427.688 74.5776 426.741L74.5876 426.731C77.6548 422.786 80.8931 418.962 84.3023 415.26C84.8969 414.605 85.5115 413.95 86.1261 413.305C86.4235 412.992 86.7309 412.68 87.0383 412.367C88.1885 411.178 89.3687 409.998 90.5692 408.858C92.4542 407.042 94.3995 405.276 96.3852 403.559C104.367 396.692 113.068 390.708 122.337 385.712C122.397 385.682 122.467 385.641 122.527 385.611C149.278 371.247 180.322 365.588 209.083 374.009C209.825 374.233 210.547 374.447 211.289 374.681Z" fill="#F0F0F0"/>
<path d="M37.6855 528.612C42.6332 526.643 47.7576 525.15 52.989 524.155C47.5815 525.68 42.4804 527.166 37.6855 528.612Z" fill="white"/>
<path d="M211.127 375.632C210.498 375.757 209.87 375.893 209.251 376.038C196.17 378.906 183.445 383.207 171.306 388.864C170.689 389.149 170.081 389.435 169.483 389.73C152.694 397.748 137.248 408.317 123.693 421.062L123.692 421.066L123.69 421.069L123.687 421.071L123.683 421.072C123.55 421.185 123.424 421.306 123.306 421.435C123.306 421.445 123.306 421.445 123.296 421.445C120.141 424.422 117.1 427.531 114.173 430.772C108.704 436.827 103.669 443.45 100.331 450.938C97.6018 457.119 96.3467 463.85 96.6646 470.599C96.6902 471.269 96.7258 471.949 96.7814 472.628C96.816 473.168 96.8605 473.707 96.915 474.257C97.6668 481.671 99.2894 489.178 98.2216 496.647C97.097 504.497 92.5105 510.945 86.0473 515.379C83.4724 516.01 80.9443 516.648 78.4629 517.292C78.9412 517.088 79.4094 516.864 79.8775 516.63C87.5163 512.857 94.0658 506.772 95.8943 498.176C97.4916 490.653 95.8171 482.916 94.9946 475.413C94.8645 474.204 94.7646 473.015 94.7047 471.825C94.696 471.773 94.6922 471.719 94.6934 471.665C94.2431 465.147 95.1981 458.608 97.4937 452.491C100.43 444.867 105.214 438.037 110.502 431.862C113.909 427.894 117.528 424.094 121.318 420.482C121.804 419.998 122.3 419.534 122.796 419.079C136.657 406.24 152.398 395.594 169.475 387.51C182.124 381.524 195.412 376.995 209.084 374.009C209.703 373.874 210.332 373.739 210.951 373.614C212.228 373.353 212.395 375.372 211.127 375.632Z" fill="white"/>
<path d="M121.921 421.232C117.791 416.277 115.556 410.014 115.616 403.563C115.677 397.112 118.028 390.893 122.251 386.016C123.109 385.032 124.678 386.318 123.819 387.304C119.879 391.838 117.689 397.632 117.645 403.639C117.601 409.646 119.706 415.471 123.579 420.063C124.42 421.062 122.757 422.225 121.921 421.232Z" fill="white"/>
<path d="M96.0396 470.542C109.162 471.851 122.296 468.167 132.823 460.223C133.865 459.435 135.033 461.094 133.992 461.881C123.022 470.127 109.346 473.934 95.6937 472.541C94.3926 472.407 94.7454 470.409 96.0396 470.542Z" fill="white"/>
<path d="M170.996 388.316C172.195 390.566 173.933 392.484 176.056 393.896C178.179 395.309 180.62 396.171 183.158 396.407C184.461 396.525 184.106 398.523 182.813 398.407C180.009 398.133 177.315 397.176 174.966 395.621C172.617 394.066 170.685 391.959 169.338 389.485C169.191 389.263 169.135 388.993 169.18 388.73C169.226 388.467 169.369 388.232 169.582 388.072C169.803 387.918 170.075 387.857 170.339 387.903C170.604 387.949 170.84 388.097 170.996 388.316Z" fill="white"/>
<path d="M317.876 445.579C314.945 458.659 307.92 470.465 297.822 479.281C297.092 479.922 296.344 480.546 295.581 481.153C293.708 481.318 291.844 481.49 290.005 481.671C288.477 481.81 286.963 481.955 285.463 482.106C285.373 482.114 285.283 482.122 285.201 482.131L285.012 480.488L284.248 473.853C281.299 469.039 279.471 463.623 278.899 458.006C278.328 452.39 279.028 446.717 280.947 441.407C283.583 434.288 288.37 427.997 293.068 421.764C299.555 413.142 305.87 404.618 306.1 394.115C313.316 403.444 317.756 414.618 318.911 426.355C319.582 432.777 319.233 439.266 317.876 445.579Z" fill="#E6E6E6"/>
<path d="M351.077 419.367C336.435 430.01 336.936 452.157 326.581 467.004C323.426 471.484 319.317 475.209 314.55 477.91C313.249 478.651 311.906 479.314 310.526 479.897C305.451 480.291 300.469 480.71 295.581 481.154C293.708 481.318 291.844 481.49 290.005 481.671C288.477 481.811 286.963 481.956 285.463 482.106C285.455 481.556 285.455 480.998 285.472 480.447C285.784 465.799 291.171 451.714 300.713 440.595C301.165 440.069 301.625 439.56 302.093 439.051C306.928 433.884 312.617 429.59 318.911 426.355C328.819 421.203 339.924 418.79 351.077 419.367Z" fill="#F2F2F2"/>
<path d="M291.738 476.538L290.588 479.947L290.005 481.671C288.478 481.811 286.964 481.956 285.464 482.106C285.373 482.114 285.283 482.123 285.201 482.131C283.534 482.303 281.883 482.468 280.241 482.64C279.806 482.139 279.379 481.63 278.96 481.113C268.523 468.472 263.513 452.214 265.026 435.891C266.538 419.568 274.45 404.508 287.032 394C285.193 403.616 288.888 412.649 293.068 421.765C295.918 427.94 298.989 434.148 300.713 440.595C301.153 442.21 301.496 443.85 301.74 445.505C302.508 451.097 302.008 456.79 300.277 462.162C298.545 467.534 295.627 472.448 291.738 476.538Z" fill="#F2F2F2"/>
<path d="M581.778 483.057C581.485 483.523 581.179 483.975 580.867 484.421C580.122 484.341 579.383 484.268 578.645 484.188C577.355 484.055 576.066 483.922 574.78 483.789C574.621 483.775 574.461 483.755 574.301 483.742L573.503 482.192L572.013 479.306C568.396 476.507 565.456 472.931 563.411 468.84C561.366 464.75 560.268 460.252 560.2 455.679C560.154 449.52 561.976 443.38 563.745 437.307C566.187 428.92 568.521 420.652 565.681 412.637C573.823 417.638 580.392 424.83 584.638 433.39C586.986 438.059 588.582 443.069 589.367 448.236C591.095 460.378 588.402 472.736 581.778 483.057Z" fill="#E6E6E6"/>
<path d="M602.112 461.965C600.96 466.39 598.827 470.499 595.871 473.988C592.916 477.477 589.213 480.256 585.037 482.119L584.006 483.303L582.849 484.64C582.19 484.567 581.525 484.494 580.866 484.421C580.121 484.341 579.383 484.268 578.645 484.188C577.354 484.055 576.066 483.922 574.78 483.789C574.594 483.29 574.428 482.784 574.268 482.272C570.871 471.532 571.107 459.972 574.94 449.38C575.126 448.855 575.326 448.336 575.539 447.824C577.723 442.527 580.801 437.644 584.638 433.39C590.659 426.64 598.375 421.622 606.987 418.856C598.959 431.115 605.69 447.75 602.112 461.965Z" fill="#F2F2F2"/>
<path d="M578.592 482.718L578.645 484.188C577.355 484.055 576.066 483.922 574.78 483.789C574.621 483.775 574.461 483.755 574.301 483.742C571.142 483.423 567.998 483.123 564.869 482.844C564.171 482.319 563.479 481.773 562.807 481.195C553.776 473.695 547.666 463.261 545.544 451.715C543.423 440.169 545.425 428.245 551.2 418.024C552.564 425.833 557.958 431.614 563.745 437.307C567.67 441.172 571.78 444.997 574.94 449.38C575.737 450.48 576.467 451.626 577.128 452.812C579.313 456.829 580.566 461.285 580.797 465.851C581.027 470.417 580.228 474.977 578.459 479.192L578.592 482.718Z" fill="#F2F2F2"/>
<path d="M845.167 541.47C845.106 541.674 844.98 541.852 844.809 541.978C844.637 542.104 844.43 542.172 844.217 542.17C844.115 542.168 844.014 542.151 843.917 542.12C754.962 513.998 663.443 494.745 570.697 484.64C569.707 484.53 568.707 484.42 567.717 484.31C566.597 484.19 565.487 484.08 564.377 483.96C562.437 483.76 560.5 483.56 558.567 483.36C558.327 483.34 558.087 483.31 557.847 483.29C553.097 482.81 548.37 482.36 543.667 481.94C465.192 474.859 386.263 474.31 307.697 480.3C301.517 480.78 295.45 481.29 289.497 481.83C287.217 482.03 284.947 482.24 282.707 482.46C280.847 482.63 279.004 482.807 277.177 482.99C277.067 483 276.957 483.01 276.857 483.02C274.827 483.23 272.817 483.43 270.817 483.64C262.647 484.49 254.707 485.39 246.997 486.34C97.1871 504.71 3.62706 541.73 2.69706 542.1C2.45041 542.198 2.17488 542.194 1.93109 542.089C1.68729 541.984 1.4952 541.787 1.39707 541.54C1.29894 541.293 1.30281 541.018 1.40783 540.774C1.51285 540.53 1.71042 540.338 1.95707 540.24C2.88707 539.87 96.6371 502.77 246.677 484.37C254.187 483.45 261.714 482.587 269.257 481.78C271.717 481.52 274.167 481.27 276.627 481.02C276.817 481 277.007 480.99 277.187 480.97C279.267 480.76 281.337 480.56 283.417 480.36C286.357 480.08 289.287 479.81 292.227 479.55C299.007 478.94 305.797 478.383 312.597 477.88C379.703 472.908 447.078 472.741 514.207 477.38C522.997 477.99 531.784 478.683 540.567 479.46C545.927 479.92 551.287 480.43 556.647 480.96C557.027 481 557.407 481.04 557.797 481.08C559.967 481.29 562.127 481.52 564.297 481.75C565.897 481.91 567.487 482.08 569.087 482.26C570.207 482.38 571.327 482.5 572.437 482.63C664.794 492.895 755.922 512.184 844.517 540.22C844.643 540.258 844.76 540.321 844.861 540.404C844.962 540.488 845.045 540.591 845.106 540.708C845.166 540.824 845.203 540.952 845.213 541.083C845.224 541.214 845.208 541.345 845.167 541.47Z" fill="#CCCCCC"/>
<path d="M267.658 285.382C270.005 293.912 275.294 301.336 282.589 306.341C285.409 308.261 288.745 310.103 289.71 313.376C290.218 315.462 289.905 317.663 288.837 319.526C287.77 321.364 286.472 323.058 284.975 324.567L284.839 325.079C277.84 320.932 271.182 315.686 267.316 308.528C263.451 301.37 262.911 291.989 267.658 285.382Z" fill="#F2F2F2"/>
<path d="M620.316 322.528C616.451 315.37 615.911 305.989 620.658 299.382C623.005 307.912 628.294 315.336 635.589 320.341C638.409 322.261 641.745 324.103 642.71 327.376C643.218 329.462 642.905 331.663 641.837 333.526C640.77 335.364 639.472 337.058 637.975 338.567L637.839 339.079C630.84 334.932 624.182 329.686 620.316 322.528Z" fill="#F2F2F2"/>
<path d="M469.316 501.528C465.451 494.37 464.911 484.989 469.658 478.382C472.005 486.912 477.294 494.336 484.589 499.341C487.409 501.261 490.745 503.103 491.71 506.376C492.218 508.462 491.905 510.663 490.837 512.526C489.77 514.364 488.472 516.058 486.975 517.567L486.839 518.079C479.84 513.932 473.182 508.686 469.316 501.528Z" fill="#F2F2F2"/>
<path d="M680.817 102C708.984 102 731.817 79.1665 731.817 51C731.817 22.8335 708.984 0 680.817 0C652.651 0 629.817 22.8335 629.817 51C629.817 79.1665 652.651 102 680.817 102Z" fill="#003DA5"/>
<path d="M772.853 11.8702C748.136 8.5292 719.918 21.8889 713.511 45.9937C711.897 41.7079 708.962 38.0462 705.13 35.5378C701.298 33.0293 696.768 31.8039 692.195 32.0386C687.621 32.2733 683.24 33.956 679.685 36.8435C676.13 39.731 673.585 43.6738 672.418 48.1024L675.248 50.1291C728.215 61.5834 783.045 61.3355 835.906 49.4027C818.714 31.3338 797.57 15.2111 772.853 11.8702Z" fill="#F0F0F0"/>
<path d="M666.853 79.8702C642.136 76.5292 613.918 89.8888 607.511 113.994C605.897 109.708 602.962 106.046 599.13 103.538C595.298 101.029 590.768 99.8039 586.195 100.039C581.621 100.273 577.24 101.956 573.685 104.843C570.13 107.731 567.585 111.674 566.418 116.102L569.248 118.129C622.215 129.583 677.045 129.335 729.906 117.403C712.714 99.3337 691.57 83.2111 666.853 79.8702Z" fill="#F0F0F0"/>
<path d="M768.262 468.638C767.047 468.184 765.858 467.665 764.699 467.084C764.64 467.174 764.583 467.266 764.524 467.356L768.262 468.638Z" fill="#E6E6E6"/>
<path d="M404.211 70.0393C404.209 74.7068 405.353 79.3033 407.543 83.4254C409.732 87.5475 412.9 91.0691 416.768 93.6811C420.636 96.2931 425.086 97.9157 429.728 98.4063C434.37 98.8969 439.061 98.2406 443.39 96.495C447.718 94.7494 451.552 91.9679 454.555 88.3946C457.558 84.8213 459.638 80.5655 460.612 76.0008C461.586 71.4361 461.425 66.7021 460.142 62.2143C458.859 57.7265 456.495 53.6222 453.256 50.2616L453.119 50.1249C452.891 49.8853 452.663 49.6458 452.423 49.4176C452.421 49.4176 452.42 49.4174 452.419 49.4168C452.417 49.4162 452.416 49.4154 452.415 49.4143C452.414 49.4133 452.413 49.412 452.412 49.4106C452.412 49.4092 452.412 49.4077 452.412 49.4062C452.115 49.1325 451.819 48.8587 451.511 48.5964C447.39 44.9841 442.316 42.6358 436.896 41.8327C431.475 41.0297 425.938 41.8058 420.948 44.0683C415.957 46.3308 411.724 49.9837 408.756 54.5898C405.787 59.1958 404.209 64.5597 404.211 70.0393Z" fill="#2F2E41"/>
<path d="M525.549 257.974C524.026 258.083 522.498 257.858 521.072 257.313C519.645 256.768 518.356 255.917 517.294 254.82C516.232 253.722 515.423 252.406 514.925 250.962C514.427 249.519 514.252 247.984 514.411 246.465L451.911 174.745L471.313 162.934L526.648 237.146C529.181 237.583 531.466 238.934 533.07 240.943C534.674 242.953 535.485 245.48 535.349 248.048C535.214 250.615 534.142 253.043 532.336 254.873C530.529 256.702 528.115 257.805 525.549 257.974Z" fill="#FFB6B6"/>
<path d="M433.201 144.234C433.201 144.234 428.304 146.776 435.637 155.88C441.508 163.169 466.938 198.042 477.476 205.644C476.776 207.325 476.654 209.191 477.131 210.949C477.608 212.706 478.657 214.255 480.111 215.352L498.259 195.351C497.666 189.261 493.581 189.319 491.252 189.911L484.579 174.466L459.988 134.452L436.709 142.335L433.201 144.234Z" fill="#FFC928"/>
<path d="M416.302 194.433L414.823 201.481L413.566 227.478L471.148 220.637L475.027 190.535L469.665 181.724L416.302 194.433Z" fill="#FFB6B6"/>
<path d="M439.75 100.547C452.956 100.547 463.661 89.842 463.661 76.6366C463.661 63.4312 452.956 52.7261 439.75 52.7261C426.545 52.7261 415.84 63.4312 415.84 76.6366C415.84 89.842 426.545 100.547 439.75 100.547Z" fill="#FFB7B7"/>
<path d="M397.3 164.829L397.153 144.954C397.15 137.802 399.57 130.861 404.019 125.262C408.467 119.662 414.682 115.736 421.649 114.123L421.74 114.101L426.468 107.731L445.677 109.653L449.198 116.848L463.117 125.136L478.947 143.673C483.933 147.253 486.894 151.843 487.751 157.317C489.57 168.939 481.433 180.568 480.465 181.901L477.971 195.947L413.247 204.21L412.807 204.266L397.3 164.829Z" fill="#FFC928"/>
<path d="M414.727 82.9048C414.943 82.8706 415.16 82.8249 415.377 82.7907C419.107 82.1292 422.836 81.4791 426.554 80.8061L426.897 72.3774L431.402 79.9278C441.679 83.3381 451.294 81.4106 460.338 77.1563C463.322 75.74 466.217 74.1441 469.007 72.3774C468.247 67.7157 466.455 63.2828 463.761 59.403C461.067 55.5232 457.54 52.2947 453.438 49.9536C453.096 49.7596 452.765 49.5887 452.423 49.4174L452.418 49.4166L452.415 49.4142L452.412 49.4104L452.411 49.406C451.83 49.1323 451.237 48.87 450.643 48.6305C446 46.8159 440.937 46.3564 436.043 47.3053C431.149 48.2542 426.625 50.5727 422.996 53.9912C415.696 60.9602 412.411 72.4685 414.727 82.9048Z" fill="#2F2E41"/>
<path d="M429.233 451.256L441.197 460.461L482.4 418.692L464.741 405.106L429.233 451.256Z" fill="#FFB6B6"/>
<path d="M430.807 443.07L450.589 456.495L444.354 464.598L452.78 490.853C453.196 492.15 453.187 493.545 452.754 494.836C452.321 496.128 451.486 497.247 450.372 498.03C449.258 498.813 447.923 499.22 446.561 499.19C445.199 499.161 443.883 498.697 442.804 497.867L420.287 480.54L422.573 469.538L414.89 476.388L406.4 469.855L430.807 443.07Z" fill="#2F2E41"/>
<path d="M398.617 519.762H413.713L420.895 461.532L398.614 461.533L398.617 519.762Z" fill="#FFB6B6"/>
<path d="M390.407 400.278L390.406 400.122L396.077 390.35L390.287 377.63L389.876 300.323C387.595 244.457 412.945 217.602 413.2 217.338L413.903 216.607L417.716 219.496L421.346 219.5L472.942 215.335L473.295 215.995C475.222 219.608 476.321 245.152 476.542 250.788C478.983 253.614 506.788 285.788 509.259 288.024C525.962 303.136 535.525 328.15 539.739 341.715C540.785 345.068 540.996 348.625 540.353 352.078C539.71 355.531 538.233 358.774 536.05 361.525L475.975 437.137L475.638 437.561L446.572 416.898L490.016 352.731L487.549 346.406C483.122 345.589 479.116 343.262 476.214 339.821L469.286 331.597C467.368 329.327 466.149 326.549 465.777 323.6L461.575 323.094L446.526 307.293L432.654 380.125L436.084 401.848L433.246 409.318L421.92 495.896L421.791 496.889H390.921L390.407 400.278Z" fill="#2F2E41"/>
<path d="M393.504 512.315L417.369 510.891V521.115L440.057 536.785C441.178 537.559 442.022 538.67 442.466 539.958C442.91 541.245 442.931 542.641 442.526 543.941C442.121 545.241 441.31 546.378 440.213 547.185C439.116 547.992 437.79 548.427 436.428 548.427H408.017L403.12 538.313L401.207 548.427H390.495L393.504 512.315Z" fill="#2F2E41"/>
<path d="M397.256 273.047C396.306 271.851 395.63 270.462 395.275 268.977C394.92 267.491 394.896 265.947 395.203 264.451C395.51 262.955 396.141 261.545 397.052 260.319C397.963 259.094 399.131 258.083 400.475 257.358L384.756 210.822L397.591 161.505L418.289 170.862L405.517 208.06L415.072 262.205C416.141 264.543 416.314 267.192 415.56 269.65C414.806 272.107 413.176 274.203 410.98 275.539C408.784 276.876 406.174 277.36 403.644 276.901C401.115 276.441 398.842 275.07 397.256 273.047Z" fill="#FFB6B6"/>
<path d="M416.201 120.872C416.201 120.872 411.339 118.261 407.959 129.452C405.252 138.411 386.832 187.055 386.501 200.045C384.717 200.415 383.108 201.368 381.925 202.753C380.743 204.138 380.056 205.878 379.971 207.697L406.723 211.399C411.417 207.474 409.065 204.134 407.262 202.545L416.373 187.111L435.418 145.445L419.748 122.696L416.201 120.872Z" fill="#FFC928"/>
<path d="M363.927 103.827C372.064 99.6275 376.872 90.7848 378.975 81.8729C381.078 72.961 380.948 63.695 381.912 54.5893C382.877 45.4837 385.146 36.0922 391.155 29.1827C394.994 24.7676 400.652 21.5082 406.477 22.0612C408.448 22.2483 410.355 22.858 412.069 23.8487C413.783 24.8394 415.263 26.1879 416.409 27.8023C417.555 29.4166 418.339 31.259 418.709 33.2039C419.079 35.1488 419.025 37.1505 418.551 39.0727C420.209 36.7227 424.501 37.232 425.564 39.905C426.508 42.2812 424.422 45.1595 421.966 45.3698C418.753 49.3377 415.074 53.5487 410.04 54.3492C409.238 54.5333 408.405 54.5328 407.603 54.3478C406.801 54.1627 406.052 53.7979 405.412 53.2808C404.228 52.1436 404.136 49.87 405.54 49.0201C399.214 51.5329 395.506 58.3725 394.567 65.1142C393.629 71.8558 394.927 78.677 395.783 85.4297C396.638 92.1823 397.007 99.2859 394.36 105.557C391.231 112.965 384.029 118.276 376.169 119.978C368.309 121.681 359.938 120.017 352.824 116.267C345.709 112.517 339.776 106.793 334.93 100.375C343.278 106.303 354.829 108.524 363.927 103.827Z" fill="#2F2E41"/>
<path d="M415.377 82.7905C415.377 82.7905 422.46 56.3521 452.822 50.2499C452.856 50.2386 452.97 50.1929 453.119 50.1246C453.21 50.0675 453.324 50.0104 453.438 49.9535C453.096 49.7595 452.765 49.5885 452.423 49.4173L452.418 49.4165L452.415 49.414L452.412 49.4103L452.411 49.4059C452.115 49.1321 451.818 48.8584 451.51 48.5961L450.644 48.6303C450.644 48.6303 420.179 43.8057 415.377 82.7905Z" fill="#FD6584"/>
<path d="M230.316 74.5278C226.451 67.37 225.911 57.9888 230.658 51.3823C233.005 59.9117 238.294 67.3358 245.589 72.341C248.409 74.2611 251.745 76.1031 252.71 79.3756C253.218 81.4618 252.905 83.6632 251.837 85.5255C250.77 87.364 249.472 89.0582 247.975 90.5669L247.839 91.0789C240.84 86.9316 234.182 81.6855 230.316 74.5278Z" fill="#F2F2F2"/>
<path d="M844.218 679.17C844.115 679.17 844.014 679.155 843.916 679.123C579.509 595.505 346.472 606.44 197.536 630.337C177.268 633.588 156.945 637.343 137.132 641.498C132.074 642.558 126.827 643.694 121.536 644.876C115.217 646.283 108.982 647.733 103.003 649.182C100.421 649.793 97.8899 650.409 95.4087 651.031C91.6504 651.958 87.8369 652.925 83.7491 653.988C79.1812 655.165 74.54 656.401 69.9517 657.659C69.9349 657.665 69.9178 657.67 69.9004 657.674L69.9009 657.675C64.7183 659.09 59.563 660.546 54.5777 662C51.8794 662.78 49.2739 663.548 46.7783 664.307C46.4995 664.384 46.2525 664.458 46.002 664.534L45.4658 664.697C45.1553 664.792 44.8487 664.885 44.542 664.973L44.5225 664.979L44.523 664.98L43.7114 665.232C42.7437 665.525 41.7993 665.811 40.8706 666.096C16.3257 673.662 2.83254 679.045 2.69924 679.098C2.57734 679.147 2.44702 679.171 2.31571 679.17C2.18439 679.168 2.05466 679.141 1.93392 679.089C1.69006 678.985 1.49762 678.788 1.39894 678.542C1.30027 678.296 1.30342 678.02 1.40772 677.776C1.51202 677.533 1.70892 677.34 1.9551 677.241C2.08938 677.189 15.6485 671.779 40.2827 664.184C41.2149 663.898 42.1617 663.612 43.1324 663.318L43.8862 663.083C43.9121 663.074 43.938 663.066 43.9644 663.058C44.2696 662.971 44.5742 662.878 44.8838 662.784L45.4209 662.621C45.6885 662.54 45.9522 662.46 46.2222 662.386C48.7007 661.632 51.315 660.862 54.02 660.079C59.0073 658.624 64.1675 657.168 69.354 655.751C69.3701 655.745 69.3867 655.741 69.4029 655.737C74.0074 654.474 78.6656 653.233 83.2481 652.051C87.3423 650.988 91.1631 650.019 94.9278 649.089C97.4195 648.469 99.9559 647.852 102.537 647.237C108.523 645.785 114.77 644.334 121.1 642.924C126.399 641.741 131.656 640.602 136.722 639.541C156.565 635.379 176.92 631.618 197.219 628.363C346.368 604.431 579.74 593.479 844.519 677.217C844.746 677.289 844.941 677.44 845.067 677.643C845.193 677.845 845.242 678.087 845.206 678.323C845.17 678.559 845.05 678.774 844.869 678.929C844.687 679.085 844.457 679.17 844.218 679.17Z" fill="#CCCCCC"/>
<path d="M195.006 558.742C207.266 553.739 265.369 547.12 278.568 548.099C280.497 548.242 280.659 545.245 278.735 545.103C264.98 544.083 206.379 550.874 193.615 556.084C191.83 556.812 193.228 559.468 195.006 558.742Z" fill="#CCCCCC"/>
<path d="M26.8319 597.07C39.2198 592.329 52.5363 590.517 65.7407 591.775C67.6667 591.957 67.8897 588.965 65.9688 588.783C52.2259 587.501 38.3729 589.418 25.4946 594.384C23.6958 595.076 25.0397 597.759 26.8319 597.07Z" fill="#CCCCCC"/>
<path d="M512.284 545.333C525.351 543.055 538.768 543.829 551.486 547.596C553.341 548.144 554.134 545.249 552.283 544.703C539.041 540.81 525.078 540.036 511.486 542.44C509.588 542.774 510.393 545.666 512.284 545.333Z" fill="#CCCCCC"/>
<path d="M805.817 390L820.618 378.282C819.291 368.457 815.585 359.104 809.822 351.036C808.762 368.63 790.327 379.833 783.577 396.114C781.51 401.209 780.617 406.702 780.962 412.189C781.308 417.675 782.883 423.014 785.572 427.809L786.586 441.159C794.586 437.318 801.658 431.787 807.315 424.949C812.971 418.111 817.078 410.128 819.353 401.55C820.581 396.725 821.197 391.765 821.185 386.786C813.737 388.789 805.817 390 805.817 390Z" fill="#FFC928"/>
<path d="M770.876 507.856C764.974 509.212 759.817 510 759.817 510L768.95 502.769C766.883 496.718 765.759 490.625 767.101 484.329C760.167 489.883 754.541 496.896 750.623 504.87C746.706 512.845 744.593 521.584 744.434 530.467C744.276 539.35 746.076 548.159 749.707 556.268C753.337 564.376 758.709 571.586 765.441 577.384L769.981 564.788C773.853 560.885 776.796 556.161 778.593 550.966C780.39 545.77 780.995 540.237 780.363 534.776C779.214 525.466 774.49 516.658 770.876 507.856Z" fill="#FFC928"/>
<path d="M764.627 361.258C761.515 363.99 758.573 366.91 755.817 370L760.533 359.113C758.762 358.432 756.865 358.144 754.972 358.269C753.08 358.395 751.237 358.931 749.572 359.84C745.683 362.12 743.355 366.552 742.915 371.038C742.627 375.565 743.6 380.082 745.727 384.089C749.392 391.444 755.348 397.409 762.698 401.084C766.299 395.53 769.677 389.689 771.115 383.231C772.576 376.669 771.777 369.306 767.583 364.051C766.728 362.991 765.734 362.051 764.627 361.258Z" fill="#FFC928"/>
<path d="M837.817 481L851.538 470.138C852.671 463.98 852.829 457.683 852.008 451.477C842.788 466.498 821.25 467.701 807.628 478.885C803.406 482.406 800.031 486.832 797.752 491.835C795.473 496.838 794.349 502.289 794.464 507.785L789.071 520.041C797.938 520.419 806.781 518.87 814.991 515.501C823.201 512.132 830.583 507.024 836.629 500.527C842.346 494.241 846.676 486.82 849.336 478.75C843.244 480.17 837.817 481 837.817 481Z" fill="#FFC928"/>
<path d="M762.757 574.91C760.137 578.29 757.36 581.543 754.427 584.67C755.517 585 756.577 585.32 757.617 585.64C760.187 582.85 762.637 579.96 764.967 576.97C765.357 576.47 765.747 575.96 766.137 575.44C770.385 569.85 774.216 563.954 777.597 557.8C784.124 545.966 788.971 533.281 791.997 520.11C792.057 519.88 792.107 519.66 792.157 519.43C792.967 515.81 793.637 512.15 794.157 508.48C794.267 507.74 794.367 506.99 794.467 506.25C794.717 504.22 794.927 502.19 795.097 500.16C795.712 492.76 795.732 485.323 795.157 477.92C794.172 465.259 791.53 452.783 787.297 440.81C786.997 439.96 786.697 439.11 786.367 438.27C786.187 437.77 785.997 437.27 785.807 436.77C780.712 423.599 773.722 411.242 765.057 400.09C764.737 399.68 764.417 399.28 764.097 398.88C763.337 397.93 762.567 396.99 761.787 396.06C761.659 395.898 761.494 395.769 761.306 395.683C761.118 395.597 760.912 395.558 760.706 395.567C760.5 395.577 760.299 395.636 760.12 395.739C759.941 395.842 759.789 395.987 759.677 396.16C759.429 396.437 759.291 396.795 759.287 397.166C759.283 397.538 759.415 397.898 759.657 398.18C760.287 398.93 760.917 399.69 761.517 400.46C762.267 401.37 762.987 402.3 763.687 403.24C779.135 423.612 788.814 447.767 791.707 473.17C793.441 488.825 792.497 504.661 788.917 520H788.907C786.769 529.242 783.703 538.244 779.757 546.87C778.967 548.59 778.144 550.293 777.287 551.98C775.067 556.37 772.617 560.639 769.947 564.77C767.707 568.26 765.31 571.64 762.757 574.91Z" fill="#3F3D56"/>
<path d="M736.284 589.333C749.351 587.055 762.768 587.829 775.486 591.596C777.341 592.144 778.134 589.249 776.283 588.703C763.041 584.81 749.078 584.036 735.486 586.44C733.588 586.774 734.393 589.666 736.284 589.333Z" fill="#CCCCCC"/>
</g>
<defs>
<clipPath id="clip0_870_28">
<rect width="852.527" height="679.172" fill="white"/>
</clipPath>
</defs>
</svg>
