<svg width="875" height="772" viewBox="0 0 875 772" fill="none" xmlns="http://www.w3.org/2000/svg">
<g clip-path="url(#clip0_870_95)">
<path d="M510.082 90.7827C503.471 79.849 495.637 68.175 483.369 64.6047C469.162 60.4702 454.568 68.6836 442.188 76.7884C405.167 101.027 369.514 127.296 335.395 155.473L335.432 155.897C361.996 154.065 388.559 152.233 415.123 150.402C434.315 149.078 454.167 147.572 471.128 138.493C477.564 135.048 483.837 130.446 491.13 130.125C500.191 129.726 508.092 136.055 514.301 142.666C551.027 181.775 561.655 241.582 602.859 275.942C576.877 211.867 545.854 149.953 510.082 90.7827Z" fill="#F2F2F2"/>
<path d="M735.836 422.497C731.774 417.369 730.115 416.168 726.108 410.992C693.489 368.803 662.829 325.189 634.128 280.15C614.634 249.561 596.106 218.385 578.545 186.621C570.185 171.52 562.054 156.301 554.151 140.963C548.02 129.07 542.025 117.107 536.167 105.072C534.491 101.634 532.863 98.1812 531.244 94.7201C527.427 86.581 523.681 78.4024 519.659 70.3739C515.076 61.2233 509.497 51.6302 501.081 45.4824C497.251 42.5697 492.671 40.8074 487.877 40.4014C481.026 39.9589 474.704 42.7878 468.762 45.8775C425.241 68.7561 384.619 96.7685 347.766 129.315C310.856 161.731 277.864 198.353 249.464 238.435C248.595 239.675 246.54 238.49 247.417 237.242C250.871 232.358 254.392 227.527 257.983 222.749C302.624 163.378 357.36 112.322 419.69 71.9148C430.176 65.119 440.86 58.642 451.741 52.4836C457.225 49.3781 462.733 46.3121 468.335 43.4358C473.827 40.6148 479.659 38.0782 485.933 37.9834C507.284 37.6515 518.34 61.8318 525.933 78.1021C528.32 83.2226 530.735 88.3274 533.179 93.4163C542.417 112.737 552.01 131.881 561.959 150.848C568.099 162.559 574.373 174.202 580.782 185.776C600.726 221.817 621.925 257.128 644.377 291.711C674.121 337.519 703.627 377.985 737.511 420.822C738.443 422.007 736.776 423.699 735.836 422.497Z" fill="#E4E4E4"/>
<path d="M345.655 117.375C344.415 115.993 343.182 114.61 341.934 113.227C332.088 102.338 321.523 91.5751 308.002 85.3325C301.555 82.262 294.518 80.6307 287.378 80.5518C279.997 80.5755 272.783 82.5115 265.964 85.2219C262.739 86.5099 259.586 87.9718 256.481 89.5285C252.933 91.3144 249.448 93.2188 245.979 95.139C239.468 98.7423 233.041 102.504 226.698 106.423C214.078 114.222 201.854 122.617 190.025 131.607C183.892 136.269 177.887 141.084 172.008 146.052C166.54 150.667 161.182 155.405 155.935 160.268C154.813 161.303 153.138 159.628 154.26 158.593C155.643 157.305 157.041 156.024 158.44 154.76C162.391 151.188 166.405 147.685 170.483 144.25C177.918 137.976 185.547 131.944 193.367 126.155C205.529 117.146 218.109 108.749 231.107 100.963C237.603 97.075 244.188 93.3505 250.862 89.7893C252.878 88.7146 254.916 87.6636 256.979 86.668C261.658 84.3075 266.521 82.3282 271.518 80.7493C278.598 78.4591 286.088 77.7233 293.478 78.5921C300.614 79.63 307.488 82.0081 313.739 85.6012C327.015 93.0212 337.311 104.495 347.331 115.692C348.342 116.83 346.675 118.513 345.655 117.375Z" fill="#E4E4E4"/>
<path d="M617.663 230.215L649.474 218.58L665.268 212.803C670.412 210.922 675.544 208.78 680.861 207.433C685.483 206.113 690.389 206.175 694.975 207.612C699.065 209.126 702.809 211.447 705.984 214.436C709.227 217.423 712.245 220.646 715.013 224.079C718.451 228.211 721.839 232.387 725.242 236.549C739.288 253.726 753.241 270.978 767.103 288.304C780.964 305.63 794.733 323.029 808.409 340.502C822.118 358.018 835.733 375.607 849.254 393.269C850.911 395.432 852.566 397.597 854.219 399.763C855.133 400.96 857.192 399.78 856.266 398.567C842.645 380.727 828.93 362.96 815.119 345.266C801.275 327.53 787.335 309.869 773.299 292.284C759.264 274.699 745.133 257.19 730.908 239.757C727.364 235.414 723.814 231.076 720.259 226.742C717.259 223.087 714.294 219.392 711.004 215.99C704.966 209.744 697.421 204.225 688.391 204.076C683.081 203.988 677.943 205.672 673.01 207.457C667.691 209.381 662.386 211.341 657.075 213.284L625.041 225L617.033 227.929C615.612 228.449 616.225 230.741 617.663 230.215Z" fill="#E4E4E4"/>
<path d="M303.816 99.0344C287.65 90.7261 266.948 92.3533 252.093 102.733C280.428 107.622 308.453 114.163 336.024 122.323C324.575 115.613 315.619 105.101 303.816 99.0344Z" fill="#F2F2F2"/>
<path d="M251.933 102.705L248.821 105.234C249.874 104.349 250.968 103.519 252.093 102.733C252.039 102.724 251.987 102.714 251.933 102.705Z" fill="#F2F2F2"/>
<path d="M704.786 230.331C701.654 226.519 698.269 222.528 693.585 220.98L689.212 221.152C722.5 279.973 767.457 331.37 821.326 372.189C782.479 324.903 743.632 277.617 704.786 230.331Z" fill="#F2F2F2"/>
<path d="M504.585 541.726C504.467 541.726 504.35 541.706 504.24 541.665L419.979 510.712C419.73 510.62 419.528 510.434 419.417 510.193C419.305 509.952 419.294 509.677 419.386 509.429C419.477 509.18 419.664 508.977 419.904 508.866C420.145 508.755 420.42 508.743 420.669 508.835L504.929 539.788C505.15 539.869 505.335 540.025 505.452 540.228C505.569 540.432 505.61 540.67 505.569 540.902C505.528 541.133 505.407 541.342 505.227 541.493C505.047 541.644 504.82 541.726 504.585 541.726Z" fill="black"/>
<path d="M350.585 483.726C350.467 483.726 350.35 483.706 350.24 483.665L265.979 452.712C265.73 452.62 265.528 452.434 265.417 452.193C265.305 451.952 265.294 451.677 265.386 451.429C265.477 451.18 265.664 450.977 265.904 450.866C266.145 450.755 266.42 450.743 266.669 450.835L350.929 481.788C351.15 481.869 351.335 482.025 351.452 482.228C351.569 482.432 351.61 482.67 351.569 482.902C351.528 483.133 351.407 483.342 351.227 483.493C351.047 483.644 350.82 483.726 350.585 483.726Z" fill="black"/>
<path d="M193.585 425.726C193.467 425.726 193.35 425.706 193.24 425.665L108.979 394.712C108.856 394.666 108.743 394.597 108.646 394.508C108.55 394.419 108.472 394.312 108.417 394.193C108.362 394.074 108.33 393.945 108.325 393.814C108.32 393.683 108.34 393.552 108.386 393.429C108.431 393.305 108.5 393.192 108.589 393.096C108.678 392.999 108.785 392.921 108.904 392.866C109.023 392.811 109.152 392.78 109.283 392.774C109.415 392.769 109.546 392.789 109.669 392.835L193.93 423.788C194.15 423.869 194.335 424.025 194.452 424.228C194.569 424.432 194.61 424.67 194.569 424.902C194.528 425.133 194.407 425.342 194.227 425.493C194.047 425.644 193.82 425.726 193.585 425.726Z" fill="black"/>
<path d="M177.798 275.384C174.285 274.599 170.727 273.979 167.214 273.547L166.703 273.483C143.382 270.707 123.693 280.441 120.907 296.128L120.412 298.966C120.102 300.761 119.769 302.691 119.372 304.826C119.18 305.88 120.239 306.958 121.779 307.302L682.669 432.683C722.276 441.247 761.756 449.707 800.005 457.827C807.163 459.444 814.413 460.617 821.716 461.338C832.643 462.264 840.643 461.045 846.176 457.613L846.178 457.613C853.054 453.36 854.784 446.456 856.197 438.535C859.043 422.538 862.073 405.742 865.094 388.996C867.755 374.238 870.41 359.519 872.926 345.422C874.404 337.053 875.208 329.553 870.047 322.531C864.452 314.933 852.466 309.036 834.425 305.003C834.207 304.954 833.99 304.906 833.769 304.858C777.177 292.45 716.151 302.308 681.915 329.388C677.973 332.506 674.181 335.941 670.514 339.263C665.088 344.408 659.307 349.164 653.212 353.495C649.847 355.812 646.276 357.815 642.546 359.481C642.289 359.606 641.998 359.736 641.695 359.853C640.99 360.171 640.262 360.467 639.56 360.718C635.473 362.294 631.231 363.433 626.905 364.115L626.473 364.18C626.147 364.236 625.795 364.287 625.446 364.327C622.966 364.66 620.469 364.856 617.968 364.915C607.156 365.224 595.382 363.246 582.976 359.034C571.528 355.102 560.591 349.814 550.398 343.283C539.584 336.368 529.759 328.565 520.257 321.02C516.084 317.704 511.767 314.276 507.429 310.973C506.614 310.352 505.811 309.743 504.995 309.131C499.683 305.162 494.818 301.777 490.124 298.783C478.601 291.395 466.098 285.661 452.981 281.749C439.117 277.719 426.351 276.62 415.05 278.474C411.911 278.987 408.817 279.746 405.797 280.743C391.874 285.34 381.881 294.484 372.217 303.327C360.195 314.326 347.764 325.7 327.605 328.531C304.343 331.804 273.77 321.45 252.913 310.665C246.356 307.274 239.868 303.61 233.595 300.065C231.061 298.633 228.524 297.206 225.984 295.785C220.99 292.999 216.885 290.803 213.065 288.869L211.857 288.255C211.185 287.918 210.511 287.58 209.823 287.248C205.273 285.01 200.998 283.094 196.748 281.388L195.743 280.979C193.722 280.194 191.825 279.493 189.955 278.842L189.208 278.583C185.465 277.311 181.656 276.243 177.798 275.384Z" fill="#F2F2F2"/>
<path d="M847.001 463.708C846.931 463.708 846.862 463.701 846.793 463.686L106.793 307.478C106.535 307.422 106.31 307.266 106.166 307.044C106.023 306.823 105.973 306.553 106.027 306.294C106.082 306.036 106.237 305.81 106.458 305.665C106.678 305.52 106.948 305.468 107.207 305.521L847.207 461.729C847.448 461.78 847.663 461.919 847.808 462.119C847.954 462.319 848.021 462.565 847.995 462.811C847.969 463.057 847.854 463.285 847.67 463.45C847.487 463.616 847.248 463.708 847.001 463.708Z" fill="black"/>
<path d="M693.5 102C721.667 102 744.5 79.1665 744.5 51C744.5 22.8335 721.667 0 693.5 0C665.333 0 642.5 22.8335 642.5 51C642.5 79.1665 665.333 102 693.5 102Z" fill="#003DA5"/>
<path d="M785.535 11.8702C760.819 8.5292 732.6 21.8889 726.194 45.9937C724.58 41.7079 721.645 38.0462 717.813 35.5378C713.981 33.0293 709.451 31.8039 704.877 32.0386C700.303 32.2733 695.922 33.9559 692.368 36.8435C688.813 39.731 686.268 43.6738 685.101 48.1024L687.93 50.1291C740.898 61.5834 795.727 61.3355 848.589 49.4027C831.396 31.3338 810.252 15.2111 785.535 11.8702Z" fill="#F0F0F0"/>
<path d="M679.535 79.8702C654.819 76.5292 626.6 89.8888 620.194 113.994C618.58 109.708 615.645 106.046 611.813 103.538C607.981 101.029 603.451 99.8039 598.877 100.039C594.303 100.273 589.922 101.956 586.368 104.843C582.813 107.731 580.268 111.674 579.101 116.102L581.93 118.129C634.898 129.583 689.727 129.335 742.589 117.403C725.396 99.3338 704.252 83.2111 679.535 79.8702Z" fill="#F0F0F0"/>
<path d="M723.892 489.083C722.885 488.072 722.113 486.852 721.629 485.509C721.145 484.167 720.961 482.735 721.091 481.314C721.22 479.893 721.66 478.518 722.378 477.285C723.096 476.052 724.077 474.992 725.249 474.179L709.709 396.992L726.87 402.502L739.309 477.161C740.544 479.221 740.981 481.663 740.536 484.024C740.092 486.385 738.796 488.5 736.896 489.97C734.996 491.439 732.622 492.161 730.225 491.997C727.829 491.834 725.575 490.797 723.892 489.083Z" fill="#9E616A"/>
<path d="M700.946 325.776L711.594 317.739C711.594 317.739 720.987 317.074 722.65 334.013C724.314 350.952 727.73 383.963 727.73 383.963L744.023 459.426L721.469 464.376L704.018 382.938L693.549 358.754L700.946 325.776Z" fill="#2F2E41"/>
<path d="M718.5 449L658.5 448L653.5 407H718.5V449Z" fill="#9E616A"/>
<path d="M663.032 699.832L649.181 699.831L642.591 646.404L663.034 646.405L663.032 699.832Z" fill="#9E616A"/>
<path d="M751.276 680.645L737.425 680.548L731.21 627.076L749.225 631.209L751.276 680.645Z" fill="#9E616A"/>
<path d="M707.954 371.691L711.092 379.851L710.465 388.011L649.04 409.286L652.088 373.574L658.993 365.414L707.954 371.691Z" fill="#FFB6B6"/>
<path d="M681.602 298.258C693.719 298.258 703.541 288.436 703.541 276.32C703.541 264.203 693.719 254.381 681.602 254.381C669.486 254.381 659.664 264.203 659.664 276.32C659.664 288.436 669.486 298.258 681.602 298.258Z" fill="#9E616A"/>
<path d="M669.228 726.132H659.399L657.645 716.853L653.152 726.132H627.084C625.834 726.132 624.617 725.733 623.611 724.992C622.604 724.252 621.861 723.209 621.489 722.016C621.117 720.823 621.136 719.543 621.544 718.362C621.951 717.18 622.726 716.16 623.754 715.45L644.571 701.073V691.692L666.467 692.999L669.228 726.132Z" fill="#2F2E41"/>
<path d="M758.544 706.997L748.715 706.928L747.026 697.637L742.468 706.885L716.4 706.702C715.151 706.694 713.937 706.286 712.935 705.538C711.934 704.791 711.198 703.743 710.834 702.547C710.471 701.352 710.499 700.071 710.915 698.893C711.331 697.715 712.112 696.7 713.145 695.997L734.063 681.766L734.128 672.385L756.015 673.845L758.544 706.997Z" fill="#2F2E41"/>
<path d="M755.586 642.62L745.5 581L733.5 496C742.288 479.68 722.5 429 722.5 429L719.707 429.134L656.486 441.061L656.5 441C643.569 476.268 639.285 493.691 639.994 531.248L642.541 666.258H641.742C640.416 666.258 639.144 666.785 638.207 667.723C637.269 668.661 636.742 669.932 636.742 671.258C636.742 672.584 637.269 673.856 638.207 674.794C639.144 675.732 640.416 676.258 641.742 676.258H666.742C668.068 676.258 669.34 675.732 670.278 674.794C671.215 673.856 671.742 672.584 671.742 671.258C671.742 669.932 671.215 668.661 670.278 667.723C669.34 666.785 668.068 666.258 666.742 666.258H666.098L689.045 505.502L708.5 573L730.5 642C722.5 640 723.742 644.634 723.742 647.258C723.742 648.584 724.269 649.856 725.207 650.794C726.144 651.732 727.416 652.258 728.742 652.258H753.742C754.905 652.26 756.032 651.855 756.928 651.115C757.825 650.374 758.435 649.344 758.653 648.202C758.872 647.06 758.685 645.877 758.125 644.858C757.565 643.839 756.667 643.048 755.586 642.62Z" fill="#2F2E41"/>
<path d="M727.422 431.625L725.422 411.625C725.215 410.809 724.754 410.08 724.106 409.542C723.459 409.004 722.657 408.685 721.817 408.63C720.984 399.103 717.478 358.002 717.268 356.209L717.26 356.133L715.666 322.075C715.608 320.839 715.096 319.666 714.229 318.783C713.362 317.899 712.199 317.366 710.963 317.285L702.543 316.735C702.427 316.731 702.318 316.682 702.237 316.599C702.157 316.516 702.112 316.405 702.112 316.289C702.112 315.359 701.929 314.439 701.573 313.579C701.217 312.72 700.695 311.94 700.038 311.282C699.38 310.625 698.6 310.103 697.741 309.747C696.881 309.391 695.961 309.208 695.031 309.208H670.099C668.485 309.209 666.925 309.799 665.715 310.867C664.504 311.936 663.725 313.41 663.524 315.012C663.513 315.122 663.46 315.224 663.377 315.298C663.294 315.371 663.187 315.41 663.076 315.408L663.073 315.408C660.24 315.35 657.48 316.309 655.294 318.111C653.108 319.914 651.64 322.44 651.157 325.232C647.749 345.063 640.918 390.072 644.295 415.094C645.471 423.805 642.937 416.906 642.492 424.194C642.448 424.898 642.543 425.605 642.772 426.272C643.002 426.94 643.36 427.555 643.828 428.084C641.77 428.682 640.972 430.905 641.5 433L641.062 432.891C641.321 433.92 641.978 434.804 642.889 435.348C643.8 435.892 644.889 436.052 645.918 435.792L722.521 416.481C724.664 415.942 727.962 433.767 727.422 431.625Z" fill="#2F2E41"/>
<path d="M643.108 489.083C644.115 488.072 644.887 486.852 645.371 485.509C645.855 484.167 646.039 482.735 645.909 481.314C645.78 479.893 645.34 478.518 644.622 477.285C643.903 476.052 642.923 474.992 641.751 474.179L657.291 396.992L640.13 402.502L627.691 477.161C626.455 479.221 626.019 481.663 626.464 484.024C626.908 486.385 628.204 488.5 630.104 489.97C632.004 491.439 634.378 492.161 636.775 491.997C639.171 491.834 641.425 490.797 643.108 489.083Z" fill="#9E616A"/>
<path d="M666.054 325.776L655.406 317.739C655.406 317.739 646.013 317.074 644.35 334.013C642.686 350.952 639.271 383.963 639.271 383.963L622.978 459.426L645.532 464.376L662.983 382.938L673.451 358.754L666.054 325.776Z" fill="#2F2E41"/>
<path d="M705.096 256.812C709.183 258.029 712.996 254.61 715.84 251.371L714.829 252.571C721.521 257.284 725.522 264.961 728.119 272.732C730.715 280.495 732.163 288.626 735.093 296.278C738.024 303.921 742.753 311.315 749.993 315.128C759.693 320.235 771.577 317.913 781.893 314.228C782.03 314.177 782.159 314.134 782.296 314.083C778.117 306.278 775.559 297.71 774.773 288.892C779.017 297.177 785.137 304.357 792.646 309.858C799.387 306.794 805.869 303.19 812.028 299.079C816.012 296.415 820.21 292.97 820.673 288.198C821.144 283.46 817.606 279.133 813.433 276.853C809.26 274.574 804.462 273.803 799.904 272.432C795.354 271.07 790.71 268.834 788.319 264.721C782.81 255.261 792.081 241.921 786.169 232.701C783.255 228.169 777.6 226.352 772.357 225.093C764.353 223.178 756.229 221.807 748.04 220.988C740.851 220.269 733.422 220.003 726.585 222.316C719.747 224.63 713.544 230.002 712.079 237.08C708.086 239.179 703.862 241.501 701.72 245.485C699.578 249.461 700.769 255.527 705.096 256.812Z" fill="#2F2E41"/>
<path d="M711.196 255.218C715.11 260.121 717.24 265.423 717.24 268.598C725.371 283.457 713.744 296.22 698.885 304.35C692.958 307.61 686.115 308.803 679.434 307.741L678.813 305.087L677.971 307.478C677.971 307.478 668.296 339.432 665.105 341.306C666.316 335.619 667.703 309.289 668.377 303.739C669.31 296.186 666.057 284.94 663.71 278.102C662.255 273.887 661.508 269.46 661.5 265.002V264.807L659.215 272.147L650.896 268.598C652.443 259.72 650.896 249.642 669.451 250.516C679.487 243.614 688.325 242.563 695.584 244.52C696.521 243.072 701.923 245.785 703.484 245.022" fill="#2F2E41"/>
<path d="M731.969 411.226C731.617 414.373 730.223 417.313 728.009 419.577C725.795 421.842 722.888 423.302 719.749 423.726L674.579 429.846C670.844 430.348 667.063 429.348 664.065 427.064C661.067 424.78 659.097 421.4 658.589 417.666L652.079 369.526C651.655 366.396 652.289 363.215 653.879 360.486L653.569 358.146C652.287 357.679 651.156 356.87 650.3 355.807C649.443 354.744 648.894 353.467 648.71 352.114C648.527 350.761 648.717 349.384 649.26 348.131C649.802 346.878 650.677 345.798 651.789 345.006L657.369 319.156C657.295 318.602 657.336 318.039 657.492 317.502C657.648 316.966 657.914 316.468 658.274 316.04C658.634 315.613 659.079 315.265 659.581 315.02C660.083 314.775 660.631 314.637 661.189 314.616C662.204 314.605 663.188 314.969 663.95 315.64C664.712 316.31 665.2 317.238 665.319 318.246L665.829 322.046C666.511 327.069 669.074 331.645 673 334.851C676.927 338.056 681.924 339.651 686.982 339.313C692.039 338.976 696.78 336.73 700.245 333.031C703.71 329.332 705.642 324.455 705.649 319.386C705.649 318.48 705.589 317.574 705.469 316.676L704.969 312.936C704.806 311.897 705.044 310.835 705.634 309.964C706.225 309.093 707.124 308.479 708.149 308.246C708.683 308.145 709.233 308.153 709.763 308.271C710.294 308.389 710.795 308.614 711.236 308.932C711.677 309.251 712.048 309.655 712.327 310.122C712.606 310.589 712.787 311.107 712.859 311.646L716.089 335.446C717.866 335.324 719.628 335.838 721.06 336.897C722.491 337.955 723.499 339.49 723.903 341.224C724.306 342.959 724.078 344.78 723.26 346.362C722.442 347.944 721.088 349.182 719.439 349.856C721.056 350.976 722.422 352.421 723.45 354.097C724.478 355.774 725.145 357.647 725.409 359.596L731.929 407.746C732.087 408.9 732.101 410.069 731.969 411.226Z" fill="#FFC928"/>
<path d="M652.925 359.205C652.873 358.81 652.978 358.411 653.219 358.095C653.46 357.779 653.817 357.571 654.211 357.517L715.777 348.079C715.972 348.053 716.171 348.065 716.361 348.116C716.552 348.166 716.73 348.253 716.887 348.373C717.044 348.492 717.175 348.641 717.275 348.811C717.374 348.981 717.438 349.17 717.465 349.365C717.491 349.56 717.479 349.758 717.429 349.949C717.378 350.139 717.291 350.318 717.172 350.475C717.052 350.631 716.903 350.763 716.733 350.862C716.563 350.961 716.375 351.026 716.179 351.052L654.613 360.49C654.219 360.543 653.82 360.437 653.503 360.196C653.187 359.955 652.979 359.599 652.925 359.205Z" fill="#3F3D56"/>
<path d="M660.121 384.475L658.086 369.439C657.929 368.279 658.239 367.104 658.948 366.173C659.657 365.242 660.707 364.63 661.867 364.473L720.669 356.952C721.829 356.795 723.003 357.105 723.935 357.814C724.866 358.523 725.477 359.573 725.634 360.733L727.669 375.769C727.826 376.929 727.516 378.104 726.807 379.035C726.097 379.966 725.047 380.578 723.887 380.735L700.401 383.966C700.449 384.126 700.488 384.29 700.518 384.455L702.596 399.815L722.416 397.132C722.546 397.115 722.678 397.123 722.806 397.156C722.933 397.189 723.052 397.247 723.157 397.327C723.261 397.407 723.349 397.506 723.415 397.62C723.482 397.733 723.525 397.859 723.542 397.989C723.56 398.119 723.552 398.252 723.518 398.379C723.485 398.506 723.426 398.625 723.347 398.73C723.267 398.834 723.167 398.922 723.054 398.988C722.94 399.054 722.814 399.097 722.684 399.114L702.865 401.797L693.946 403.004L675.118 405.552C674.855 405.587 674.589 405.516 674.378 405.356C674.168 405.195 674.029 404.957 673.994 404.695C673.958 404.432 674.028 404.166 674.189 403.955C674.349 403.744 674.587 403.606 674.849 403.57L693.678 401.022L691.599 385.662C691.584 385.495 691.578 385.327 691.582 385.159L665.086 388.257C663.926 388.413 662.751 388.103 661.82 387.394C660.889 386.685 660.278 385.635 660.121 384.475Z" fill="#3F3D56"/>
<path d="M429 771.292C428.752 771.292 428.514 771.201 428.331 771.035L0.330558 385.243C0.133953 385.066 0.0158944 384.817 0.00229568 384.553C-0.011303 384.288 0.0806749 384.029 0.258033 383.832C0.435391 383.635 0.683641 383.516 0.948264 383.502C1.21289 383.488 1.47226 383.58 1.66944 383.757L429.669 769.549C429.82 769.684 429.926 769.862 429.973 770.059C430.02 770.256 430.006 770.462 429.934 770.651C429.861 770.84 429.733 771.002 429.566 771.117C429.399 771.231 429.202 771.292 429 771.292Z" fill="black"/>
<path d="M653.05 381.586C653.071 381.298 653.03 381.008 652.93 380.736C652.829 380.465 652.672 380.218 652.468 380.012C652.265 379.807 652.019 379.647 651.749 379.544C651.478 379.441 651.189 379.398 650.9 379.416C650.792 379.42 650.685 379.434 650.58 379.456L637.92 382.316C637.637 382.385 637.372 382.512 637.141 382.689C636.91 382.867 636.719 383.091 636.58 383.346C636.394 383.353 636.21 383.38 636.03 383.426C635.234 383.607 634.543 384.096 634.108 384.786C633.673 385.476 633.53 386.311 633.71 387.106C633.89 387.902 634.379 388.593 635.069 389.028C635.76 389.463 636.594 389.607 637.39 389.426C637.843 389.321 638.266 389.116 638.63 388.826L642.92 400.906C643.134 401.285 643.465 401.584 643.864 401.759C644.262 401.934 644.706 401.975 645.13 401.876L653.36 400.016C653.78 399.918 654.159 399.689 654.441 399.362C654.723 399.035 654.894 398.627 654.93 398.196L653.05 381.586ZM637.2 388.566C636.918 388.631 636.627 388.639 636.342 388.59C636.057 388.542 635.784 388.438 635.54 388.284C635.295 388.131 635.083 387.93 634.916 387.695C634.748 387.459 634.629 387.193 634.565 386.911C634.501 386.63 634.492 386.338 634.541 386.053C634.589 385.768 634.693 385.496 634.847 385.251C635 385.006 635.201 384.794 635.436 384.627C635.672 384.46 635.938 384.341 636.22 384.276C636.26 384.266 636.3 384.276 636.34 384.266C636.337 384.631 636.43 384.989 636.61 385.306L638.18 388.046C637.907 388.305 637.568 388.485 637.2 388.566Z" fill="#CCCCCC"/>
<path d="M650.9 379.416C651.02 381.016 648.28 382.856 644.61 383.586C641.24 384.276 638.22 383.796 637.37 382.536C637.541 382.435 637.727 382.36 637.92 382.316L650.58 379.456C650.685 379.433 650.793 379.42 650.9 379.416Z" fill="#E6E6E6"/>
<path d="M644.283 411.37L640.608 403.724C638.455 399.244 642.397 394.478 649.395 393.1L658.02 391.646L661.627 416.848L660.88 416.995C653.882 418.373 646.436 415.849 644.283 411.37Z" fill="#FFC928"/>
<g opacity="0.2">
<path d="M731.97 411.226C731.617 414.373 730.223 417.312 728.009 419.577C725.795 421.842 722.888 423.302 719.75 423.726L674.58 429.846C671.897 430.209 669.165 429.797 666.708 428.66C664.251 427.522 662.17 425.706 660.71 423.426C661.983 421.886 663.56 420.626 665.343 419.725C667.126 418.823 669.075 418.299 671.07 418.186C674.95 417.986 678.71 419.276 682.51 419.996C691.698 421.727 701.203 420.151 709.34 415.546C712.87 413.496 716.05 410.876 719.93 409.416C723.81 407.966 728.82 408.016 731.63 410.846C731.751 410.965 731.865 411.092 731.97 411.226Z" fill="black"/>
</g>
</g>
<defs>
<clipPath id="clip0_870_95">
<rect width="874.039" height="771.292" fill="white"/>
</clipPath>
</defs>
</svg>
