<svg width="841" height="518" viewBox="0 0 841 518" fill="none" xmlns="http://www.w3.org/2000/svg">
<g clip-path="url(#clip0_870_135)">
<path d="M268.192 184.275L262.861 185.97C262.794 185.681 262.716 185.391 262.627 185.101C261.935 182.876 261.623 186.874 259.828 185.391C259.956 187.309 257.196 167.592 256.928 169.487C256.816 170.285 257.781 183.495 257.597 184.275L216.2 184.671C216.434 180.684 214.31 182.218 212.431 178.699C211.321 182.006 211.148 179.608 209.392 182.603C208.656 183.868 207.869 185.084 207.022 186.272C206.615 186.857 206.185 187.431 205.745 188L205.182 188.179L202.394 133.533C202.394 115.516 218.007 106.767 230.274 118.477C236.792 124.699 252.735 116.553 256.409 122.453C260.079 128.358 261.5 136.51 261.5 145.521L268.192 184.275Z" fill="#2F2E41"/>
<path d="M202.911 494.667L211.892 494.879L216.898 454.53L203.645 454.217L202.911 494.667Z" fill="#FFB7B7"/>
<path d="M233.724 513.404C233.724 514.921 232.647 516.151 231.319 516.151H213.492C213.492 516.151 211.738 509.1 204.585 506.065L204.092 516.151H194.896L196.01 499.933C196.01 499.933 193.55 491.256 198.659 486.82C203.768 482.385 199.63 483.002 199.63 483.002L201.639 472.964L215.536 474.598L215.638 490.356L222.382 505.997L232.273 510.883C233.154 511.318 233.724 512.309 233.724 513.404Z" fill="#2F2E41"/>
<path d="M230.235 488.092L238.869 490.576L253.95 452.818L241.209 449.151L230.235 488.092Z" fill="#FFB7B7"/>
<path d="M255.285 514.035C254.9 515.502 253.546 516.419 252.261 516.082L235.018 511.558C235.018 511.558 235.111 504.292 228.962 499.541L225.925 509.173L217.03 506.839L222.224 491.434C222.224 491.434 222.046 482.417 228.113 479.423C234.181 476.429 230.021 475.976 230.021 475.976L234.513 466.776L247.539 471.883L243.64 487.151L246.194 503.991L254.522 511.228C255.263 511.872 255.563 512.975 255.285 514.035Z" fill="#2F2E41"/>
<path d="M252.021 169.523L224.698 172.311L207.412 271.566L259.828 279.93L252.021 169.523Z" fill="#FFC928"/>
<path d="M199.605 187.924L202.393 252.607L177.858 295.543L195.702 311.714C195.702 311.714 228.601 246.473 229.716 228.63C230.832 210.786 224.417 173.921 224.417 173.921L199.605 187.924Z" fill="#2F2E41"/>
<path d="M277.671 187.924L274.883 252.607L299.418 295.543L261.5 312.829C261.5 312.829 248.675 246.473 247.56 228.63C246.445 210.786 252.859 173.921 252.859 173.921L277.671 187.924Z" fill="#2F2E41"/>
<path d="M210.758 265.432L197.933 267.105L190.684 344.613L200.721 461.966H217.142L229.159 331.23L250.348 380.3L234.845 461.966L250.348 463.547L281.574 378.627L259.828 279.93L210.758 265.432Z" fill="#2F2E41"/>
<path d="M263.393 335.404C263.999 333.268 265.038 331.445 266.275 330.145L270.769 309.428L280.565 311.855L274.951 332.609C275.321 334.365 275.247 336.462 274.64 338.598C273.254 343.479 269.613 346.72 266.507 345.838C263.401 344.956 262.007 340.285 263.393 335.404Z" fill="#FFB6B6"/>
<path d="M264.748 183.734C264.748 183.734 282.834 182.813 284.151 194.806C285.468 206.8 289.681 275.106 289.681 275.106L279.915 321.212L265.989 319.277L272.143 260.589L264.748 183.734Z" fill="#2F2E41"/>
<path d="M109.735 219.559C111.794 220.413 113.489 221.661 114.64 223.046L134.764 229.944L131.201 239.424L111.171 231.406C109.378 231.569 107.297 231.25 105.238 230.396C100.536 228.445 97.73 224.437 98.9718 221.444C100.214 218.451 105.033 217.607 109.735 219.559Z" fill="#FFB6B6"/>
<path d="M224.648 190.791L178.739 252.762L124.923 237.943L127.263 223.904L168.241 231.665L191.103 196.519C198.568 182.089 213.281 179.183 224.648 190.791Z" fill="#2F2E41"/>
<path d="M236.346 163.876C247.467 163.876 256.482 154.862 256.482 143.741C256.482 132.62 247.467 123.605 236.346 123.605C225.226 123.605 216.211 132.62 216.211 143.741C216.211 154.862 225.226 163.876 236.346 163.876Z" fill="#FFB7B7"/>
<path d="M265.961 143.012H259.177L257.335 140.529C256.44 140.529 255.78 142.916 254.924 142.734C252.311 142.178 249.912 140.819 247.947 138.923C247.781 138.763 247.609 138.609 247.432 138.462L247.435 138.508C247.591 140.963 245.567 143.012 243.107 143.012H230.025C226.454 143.012 223.849 146.392 224.758 149.845L223.583 192.082C223.583 183.461 185.442 139.443 211.315 121.823C217.305 117.743 221.653 118.477 230.274 118.477C243.524 111.41 260.193 118.005 264.499 132.392C265.463 135.614 265.961 139.177 265.961 143.012Z" fill="#2F2E41"/>
<path d="M655.528 143.151C654.558 142.131 653.878 130.901 652.678 130.151C653.158 131.761 652.938 143.771 652.868 145.451C642.308 152.651 635.148 134.151 627.678 134.151C614.148 134.151 597.678 103.681 597.678 90.1513C597.678 76.6213 614.722 69.4355 627.178 64.1513C643.678 57.1513 658.764 72.7526 660.678 86.1513C665.678 121.151 661.558 136.451 655.528 143.151Z" fill="#2F2E41"/>
<path d="M623.133 115.267C634.253 115.267 643.268 106.252 643.268 95.1316C643.268 84.0111 634.253 74.9961 623.133 74.9961C612.012 74.9961 602.997 84.0111 602.997 95.1316C602.997 106.252 612.012 115.267 623.133 115.267Z" fill="#A0616A"/>
<path d="M593.833 90.7602L603.868 92.0058L606.335 90.529L606.609 92.346C608.021 92.5213 609.454 91.9739 610.307 90.8354C610.987 89.9269 611.826 89.137 612.782 88.5272C612.655 89.1894 612.558 89.8564 612.492 90.5253C612.354 91.9213 613.333 93.1807 614.726 93.3535L629.495 95.1868C633.039 95.6268 635.208 99.3015 633.88 102.617C633.88 102.617 637.468 94.8592 640.677 97.1515C647.677 102.152 667.841 91.5633 650.673 76.4637C645.231 71.6775 640.826 71.87 632.271 70.8081C619.992 62.163 602.637 66.6542 596.593 80.4007C595.239 83.4799 594.305 86.9545 593.833 90.7602Z" fill="#2F2E41"/>
<path d="M638.226 217.205H579.438C584.366 206.209 587.395 195.738 582.66 187.408L638.226 184.187C635.449 195.431 635.11 206.467 638.226 217.205Z" fill="#A0616A"/>
<path d="M630.978 119.762L607.624 118.151L597.961 130.231L593.061 131.122C585.718 132.457 580.488 139.011 580.816 146.468L582.722 189.78L638.543 193.851L651.916 137.448L635.81 131.036L630.978 119.762Z" fill="#E6E6E6"/>
<path d="M641.13 474.26L631.561 474.486L626.227 431.495L640.348 431.161L641.13 474.26Z" fill="#A0616A"/>
<path d="M608.299 494.224C608.299 495.841 609.446 497.151 610.861 497.151H629.855C629.855 497.151 631.724 489.638 639.345 486.404L639.871 497.151H649.67L648.482 479.871C648.482 479.871 651.104 470.625 645.66 465.899C640.217 461.173 644.626 461.831 644.626 461.831L642.484 451.136L627.678 452.877L627.569 469.666L620.384 486.331L609.844 491.538C608.906 492.001 608.299 493.057 608.299 494.224Z" fill="#2F2E41"/>
<path d="M606.13 473.26L596.561 473.486L591.227 430.495L605.348 430.161L606.13 473.26Z" fill="#A0616A"/>
<path d="M573.299 493.224C573.299 494.841 574.446 496.151 575.861 496.151H594.855C594.855 496.151 596.724 488.638 604.345 485.404L604.871 496.151H614.67L613.482 478.871C613.482 478.871 616.104 469.625 610.66 464.899C605.217 460.173 609.626 460.831 609.626 460.831L607.484 450.136L592.678 451.877L592.569 468.666L585.384 485.331L574.844 490.538C573.906 491.001 573.299 492.057 573.299 493.224Z" fill="#2F2E41"/>
<path d="M581.678 209.152L573.678 235.152L570.678 341.152L591.467 439.313L607.495 437.102L611.364 301.689L621.313 437.102L643.863 436.249C643.863 436.249 662.678 240.152 639 216.02L636.861 206.9L581.678 209.152Z" fill="#2F2E41"/>
<path d="M567.087 169.021L534.096 193.097L498.872 206.803L496.424 198.486L525.287 181.356L561.134 153.891L567.087 169.021Z" fill="#A0616A"/>
<path d="M494.154 210.297C498.914 207.92 501.629 203.701 500.217 200.875C498.806 198.048 493.802 197.684 489.042 200.062C484.282 202.439 481.567 206.657 482.979 209.484C484.39 212.31 489.393 212.674 494.154 210.297Z" fill="#A0616A"/>
<path d="M588.205 134.674C588.205 134.674 598.454 148.746 591.046 154.281C583.639 159.816 561.192 185.787 561.192 185.787L542.64 165.384L588.205 134.674Z" fill="#E6E6E6"/>
<path d="M107.178 0C79.2873 0 56.6777 22.6096 56.6777 50.5C56.6777 73.9552 77.2414 104.499 96.5241 119.536C98.2569 120.887 100.192 121.828 102.21 122.39L104.103 129.208C104.497 130.625 105.788 131.606 107.259 131.606H107.499C109.034 131.606 110.363 130.54 110.695 129.042L112.252 122.037C113.936 121.439 115.547 120.569 117.013 119.422C138.591 102.524 157.678 74.7485 157.678 50.5C157.678 22.6096 135.068 0 107.178 0Z" fill="#FFC928"/>
<path d="M115.594 125.485C109.526 140.689 104.645 137.224 100.291 125.485V122.424H115.594L115.594 125.485Z" fill="#3F3D56"/>
<path d="M108.708 123.962L108.364 152.816L108.349 153.795L108.28 254.03V258.682L108.265 260.151H106.727L106.742 258.759V254.03L106.818 153.795L106.903 146.886L107.178 123.947L108.708 123.962Z" fill="#3F3D56"/>
<path d="M108.432 260.151H106.887L106.741 258.759L106.711 254.03L106.091 153.795L102.938 123.786L104.461 123.625L106.902 146.886L107.629 153.795L107.935 254.03L107.943 255.507L108.279 258.682L108.432 260.151Z" fill="#3F3D56"/>
<path d="M112.947 123.786L109.794 153.795L108.907 254.03L108.853 260.151H107.453L107.943 255.507L107.95 254.03L108.257 153.795L108.364 152.816L111.424 123.625L112.947 123.786Z" fill="#3F3D56"/>
<path d="M750.471 134.518C733.688 120.893 709.038 123.452 695.412 140.234C683.954 154.348 681.406 182.773 685.663 201.242C686.045 202.902 686.75 204.413 687.689 205.737L685.498 210.765C685.043 211.81 685.34 213.031 686.225 213.749L686.37 213.867C687.293 214.616 688.614 214.624 689.546 213.885L693.905 210.431C695.21 210.893 696.604 211.157 698.047 211.183C719.287 211.557 744.341 204.168 756.187 189.577C769.813 172.794 767.253 148.143 750.471 134.518Z" fill="#003DA5"/>
<path d="M694.231 214.139C677.702 225.043 678.668 218.534 685.023 206.662L686.518 204.821L695.726 212.297L694.231 214.139Z" fill="#3F3D56"/>
<path d="M690.831 209.858L676.528 227.052L676.04 227.634L627.031 287.915L624.758 290.714L624.031 291.591L623.105 290.839L623.795 290.009L626.105 287.164L675.12 226.886L678.546 222.77L689.918 209.101L690.831 209.858Z" fill="#3F3D56"/>
<path d="M624.132 291.673L623.202 290.918L623.795 290.009L626.087 287.149L674.682 226.531L687.446 206.934L688.44 207.581L678.546 222.77L675.607 227.283L626.823 287.747L626.107 288.639L624.758 290.714L624.132 291.673Z" fill="#3F3D56"/>
<path d="M693.468 211.823L676.911 228.34L627.408 288.222L624.385 291.879L623.543 291.195L626.107 288.639L626.833 287.754L675.985 227.589L676.528 227.052L692.63 210.982L693.468 211.823Z" fill="#3F3D56"/>
<path d="M439.139 46.1397C417.693 56.6557 408.833 82.5658 419.349 104.012C428.192 122.047 455.521 137.779 476.017 142.071C477.859 142.457 479.702 142.451 481.465 142.122L485.492 146.651C486.329 147.592 487.692 147.86 488.823 147.305L489.007 147.215C490.187 146.636 490.807 145.315 490.498 144.037L489.054 138.064C490.123 136.969 491.035 135.694 491.729 134.258C501.95 113.129 506.154 84.5753 497.011 65.9299C486.495 44.4841 460.585 35.6238 439.139 46.1397Z" fill="#FFC928"/>
<path d="M492.924 139.455C492.599 147.485 490.157 151.922 481.157 145.225L480.003 142.872L491.77 137.102L492.924 139.455Z" fill="#3F3D56"/>
<path d="M487.056 140.881L497.67 163.197L498.028 163.956L489.898 245.643L491.653 249.22L492.195 250.355L491.012 250.935L490.499 249.859L488.716 246.223L496.851 164.533L494.31 159.189L485.873 141.446L487.056 140.881Z" fill="#3F3D56"/>
<path d="M492.324 250.292L491.135 250.875L490.499 249.859L488.692 246.234L496.292 164.807L482.553 142.921L483.663 142.223L494.31 159.189L497.474 164.227L489.633 245.772L490.196 246.905L491.652 249.22L492.324 250.292Z" fill="#3F3D56"/>
<path d="M490.248 139.147L499.139 163.411L490.38 245.406L492.647 250.133L491.57 250.661L490.196 246.905L489.645 245.767L497.956 163.991L497.669 163.198L489.017 139.598L490.248 139.147Z" fill="#3F3D56"/>
<path d="M0 515.868C0 516.528 0.53003 517.058 1.19006 517.058H404.48C405.14 517.058 405.67 516.528 405.67 515.868C405.67 515.208 405.14 514.678 404.48 514.678H1.19006C0.53003 514.678 0 515.208 0 515.868Z" fill="#CCCCCC"/>
<path d="M435 495.868C435 496.528 435.53 497.058 436.19 497.058H839.48C840.14 497.058 840.67 496.528 840.67 495.868C840.67 495.208 840.14 494.678 839.48 494.678H436.19C435.53 494.678 435 495.208 435 495.868Z" fill="#CCCCCC"/>
<path d="M659.004 184.394L658.48 225.233L648.318 261.638L640.195 258.608L643.802 225.239L643.328 180.082L659.004 184.394Z" fill="#A0616A"/>
<path d="M648.283 267.509C649.236 262.274 647.489 257.572 644.381 257.006C641.273 256.44 637.981 260.225 637.028 265.459C636.074 270.694 637.821 275.397 640.93 275.963C644.038 276.529 647.33 272.744 648.283 267.509Z" fill="#A0616A"/>
<path d="M646.674 135.768C646.674 135.768 664.081 136.007 664.066 145.254C664.051 154.501 662.142 188.916 662.142 188.916L634.688 191.522L646.674 135.768Z" fill="#E6E6E6"/>
</g>
<defs>
<clipPath id="clip0_870_135">
<rect width="840.67" height="517.058" fill="white"/>
</clipPath>
</defs>
</svg>
