<svg width="862" height="649" viewBox="0 0 862 649" fill="none" xmlns="http://www.w3.org/2000/svg">
<g clip-path="url(#clip0_870_245)">
<path d="M318.638 172.654C355.739 148.711 406.839 158.014 442.986 183.383C454.782 191.775 465.617 201.442 475.293 212.21C480.937 218.399 486.286 224.897 491.403 231.619C492.664 233.268 493.919 234.933 495.149 236.615C495.991 237.752 496.826 238.898 497.654 240.051C508.031 254.476 517.546 269.651 526.859 284.688C550.11 322.226 573.967 360.882 609.394 387.237C616.693 392.666 626.876 397.554 634.354 392.371C640.843 387.869 641.121 378.403 639.644 370.646C634.154 341.906 614.349 318.09 593.308 297.759C572.269 277.428 548.976 258.788 533.079 234.221C517.181 209.654 509.918 176.857 523.843 151.127C535.843 128.955 561.663 116.517 586.866 115.938C612.067 115.364 636.552 125.16 657.873 138.612C679.192 152.068 697.939 169.143 717.504 185.042C729.298 194.633 745.765 204.151 758.618 196.03C769.474 189.167 770.321 172.691 763.851 161.598C757.381 150.505 745.833 143.534 734.762 137.033C700.39 116.84 666.018 96.6498 631.645 76.4613C621.099 70.2727 610.324 63.8862 602.539 54.4496C594.753 45.0185 590.431 31.7633 594.723 20.3107C598.956 9.02454 610.782 1.85792 622.746 0.362304C634.702 -1.12987 646.761 2.1853 657.945 6.67583C699.858 23.5081 798.547 133.627 824.85 152.454C841.753 164.546 859.51 179.854 861.219 200.566C863.349 226.35 837.693 247.748 811.941 250.249C786.193 252.758 761.238 241.562 738.231 229.725C715.225 217.889 691.746 204.838 665.922 203.195C640.099 201.552 611.127 215.356 605.005 240.494C599.682 262.369 613.215 284.941 630.843 298.937C644.642 309.895 660.836 317.193 676.478 325.399C680.822 327.671 685.12 330.02 689.312 332.531C700.045 338.973 710.077 346.515 719.247 355.035C728.873 363.966 737.514 373.903 745.021 384.676C751.011 393.26 756.238 402.353 760.641 411.85C761.312 413.3 761.964 414.771 762.596 416.262C763.195 417.688 763.775 419.132 764.325 420.59C771.504 439.503 774.301 460.697 765.129 478.353C755.98 495.961 736.164 506.387 716.376 507.833C704.931 508.516 693.461 507.001 682.585 503.369C674.587 500.771 666.845 497.443 659.456 493.428C625.197 475.04 598.075 445.881 573.306 415.906C548.542 385.932 525.223 354.372 495.824 328.928C466.427 303.479 429.587 284.238 390.703 284.53C351.822 284.817 311.739 308.508 300.696 345.788C284.599 318.052 273.714 286.433 275.152 254.4C276.589 222.367 291.696 190.045 318.638 172.654Z" fill="#3F3D56"/>
<path d="M469.487 276.289C471.846 276.289 473.758 274.376 473.758 272.017C473.758 269.658 471.846 267.745 469.487 267.745C467.127 267.745 465.215 269.658 465.215 272.017C465.215 274.376 467.127 276.289 469.487 276.289Z" fill="#FFC928"/>
<path d="M308.499 282.396C312.147 282.396 315.104 279.439 315.104 275.792C315.104 272.144 312.147 269.187 308.499 269.187C304.852 269.187 301.895 272.144 301.895 275.792C301.895 279.439 304.852 282.396 308.499 282.396Z" fill="#FF6584"/>
<path d="M785.865 223.958C787.213 223.958 788.305 222.865 788.305 221.517C788.305 220.17 787.213 219.077 785.865 219.077C784.517 219.077 783.425 220.17 783.425 221.517C783.425 222.865 784.517 223.958 785.865 223.958Z" fill="#FF6584"/>
<path d="M736.489 92.8025C737.837 92.8025 738.929 91.7099 738.929 90.3622C738.929 89.0144 737.837 87.9219 736.489 87.9219C735.141 87.9219 734.049 89.0144 734.049 90.3622C734.049 91.7099 735.141 92.8025 736.489 92.8025Z" fill="#FF6584"/>
<path d="M673.698 331.082C674.39 329.082 675.324 327.174 676.478 325.399C680.822 327.671 685.12 330.02 689.312 332.531C700.044 338.973 710.077 346.515 719.247 355.035C715.556 360.051 710.189 363.577 704.12 364.973C698.052 366.369 691.684 365.543 686.172 362.645C680.661 359.746 676.371 354.968 674.083 349.177C671.794 343.385 671.657 336.965 673.698 331.082Z" fill="#003DA5"/>
<path d="M362.473 251.663C363.852 251.663 364.969 250.546 364.969 249.168C364.969 247.789 363.852 246.672 362.473 246.672C361.095 246.672 359.978 247.789 359.978 249.168C359.978 250.546 361.095 251.663 362.473 251.663Z" fill="#F0F0F0"/>
<path d="M668.25 67.0087C669.628 67.0087 670.745 65.8913 670.745 64.5129C670.745 63.1345 669.628 62.0171 668.25 62.0171C666.871 62.0171 665.754 63.1345 665.754 64.5129C665.754 65.8913 666.871 67.0087 668.25 67.0087Z" fill="#F0F0F0"/>
<path d="M645.778 22.5526C647.156 22.5526 648.274 21.4352 648.274 20.0568C648.274 18.6784 647.156 17.561 645.778 17.561C644.4 17.561 643.282 18.6784 643.282 20.0568C643.282 21.4352 644.4 22.5526 645.778 22.5526Z" fill="#F0F0F0"/>
<path d="M822.503 188.266C823.881 188.266 824.998 187.149 824.998 185.77C824.998 184.392 823.881 183.274 822.503 183.274C821.124 183.274 820.007 184.392 820.007 185.77C820.007 187.149 821.124 188.266 822.503 188.266Z" fill="#F0F0F0"/>
<path d="M691.404 191.851C692.782 191.851 693.9 190.734 693.9 189.356C693.9 187.977 692.782 186.86 691.404 186.86C690.026 186.86 688.908 187.977 688.908 189.356C688.908 190.734 690.026 191.851 691.404 191.851Z" fill="#F0F0F0"/>
<path d="M621.835 429.902C623.213 429.902 624.33 428.785 624.33 427.406C624.33 426.028 623.213 424.911 621.835 424.911C620.456 424.911 619.339 426.028 619.339 427.406C619.339 428.785 620.456 429.902 621.835 429.902Z" fill="#F0F0F0"/>
<path d="M543.408 195.786C544.786 195.786 545.904 194.669 545.904 193.29C545.904 191.912 544.786 190.794 543.408 190.794C542.03 190.794 540.912 191.912 540.912 193.29C540.912 194.669 542.03 195.786 543.408 195.786Z" fill="#F0F0F0"/>
<path d="M539.904 148.593C541.282 148.593 542.4 147.476 542.4 146.097C542.4 144.719 541.282 143.602 539.904 143.602C538.526 143.602 537.408 144.719 537.408 146.097C537.408 147.476 538.526 148.593 539.904 148.593Z" fill="#F0F0F0"/>
<path d="M676.721 438.022C680.835 426.111 687.722 415.349 696.813 406.623C698.014 405.474 699.248 404.363 700.517 403.292C713.085 392.66 728.625 386.16 745.02 384.676C751.011 393.26 756.238 402.353 760.641 411.85C761.312 413.3 761.963 414.771 762.595 416.262C763.194 417.688 763.774 419.132 764.324 420.59C771.504 439.503 774.301 460.697 765.129 478.353C755.98 495.961 736.163 506.387 716.376 507.833C704.931 508.516 693.46 507.001 682.585 503.369C676.695 492.92 673.232 481.279 672.454 469.309C672.356 467.803 672.308 466.295 672.293 464.78C672.229 455.673 673.727 446.623 676.721 438.022Z" fill="#FFC928"/>
<path d="M643.688 422.208C647.697 410.658 662.694 403.859 685.924 403.055C690.573 402.891 695.685 404.824 700.517 403.292C723.962 395.857 745.233 400.715 762.596 416.262C763.195 417.688 763.775 419.132 764.325 420.59C764.094 420.504 763.861 420.423 763.628 420.342C740.166 412.199 716.876 407.447 696.814 406.623C693.107 406.473 688.685 404.328 686.044 406.576C664.837 424.624 650.493 417.062 647.015 423.363C641.936 432.567 650.947 446.909 667.254 460.719C668.867 462.087 670.547 463.44 672.294 464.78C672.308 466.295 672.357 467.803 672.455 469.309C669.825 467.365 667.332 465.398 664.978 463.409C647.24 448.387 639.681 433.754 643.688 422.208Z" fill="#E4E4E4"/>
<path d="M731.559 504.018C732.938 504.018 734.055 502.901 734.055 501.523C734.055 500.144 732.938 499.027 731.559 499.027C730.181 499.027 729.063 500.144 729.063 501.523C729.063 502.901 730.181 504.018 731.559 504.018Z" fill="#F0F0F0"/>
<path d="M687.403 471.918C688.781 471.918 689.899 470.801 689.899 469.423C689.899 468.044 688.781 466.927 687.403 466.927C686.025 466.927 684.907 468.044 684.907 469.423C684.907 470.801 686.025 471.918 687.403 471.918Z" fill="#F0F0F0"/>
<path d="M721.186 478.701C734.59 478.701 745.457 467.835 745.457 454.43C745.457 441.026 734.59 430.16 721.186 430.16C707.782 430.16 696.916 441.026 696.916 454.43C696.916 467.835 707.782 478.701 721.186 478.701Z" fill="#F0F0F0"/>
<path opacity="0.3" d="M339.866 186.123C345.54 186.389 357.274 189.207 369.989 192.849C382.697 196.495 396.481 200.943 410.09 205.343C433.911 213.039 457.732 220.732 481.552 228.423C484.827 229.479 488.11 230.544 491.403 231.618C492.664 233.267 493.918 234.933 495.149 236.615C492.254 235.592 489.348 234.602 486.451 233.659C474.073 229.636 463.331 226.983 451.318 223.323C432.83 217.696 413.325 210.306 394.409 203.424C375.494 196.536 353.793 189.123 339.866 186.123Z" fill="#F0F0F0"/>
<path opacity="0.3" d="M763.429 137.264L817.01 226.211L766.452 135.495C766.393 135.207 766.266 134.937 766.082 134.707C765.898 134.478 765.662 134.296 765.393 134.176C765.125 134.056 764.832 134.002 764.538 134.018C764.244 134.035 763.959 134.12 763.705 134.269C763.452 134.417 763.237 134.624 763.079 134.872C762.921 135.121 762.825 135.403 762.798 135.695C762.771 135.988 762.814 136.283 762.924 136.556C763.034 136.829 763.207 137.071 763.429 137.264Z" fill="#F0F0F0"/>
<path d="M737.297 399.765C738.675 399.765 739.792 398.647 739.792 397.269C739.792 395.89 738.675 394.773 737.297 394.773C735.918 394.773 734.801 395.89 734.801 397.269C734.801 398.647 735.918 399.765 737.297 399.765Z" fill="#F0F0F0"/>
<path d="M299.538 391.527C308.375 391.527 315.538 384.363 315.538 375.527C315.538 366.69 308.375 359.527 299.538 359.527C290.702 359.527 283.538 366.69 283.538 375.527C283.538 384.363 290.702 391.527 299.538 391.527Z" fill="#FFC928"/>
<path d="M290.06 366.742C288.447 366.301 286.95 365.511 285.675 364.429C284.4 363.346 283.377 361.998 282.68 360.477C281.983 358.957 281.627 357.303 281.639 355.63C281.65 353.958 282.028 352.308 282.746 350.797L253.774 322.275L274.436 317.866L298.78 345.628C301.238 347.002 303.106 349.23 304.031 351.889C304.956 354.549 304.873 357.456 303.798 360.058C302.724 362.661 300.731 364.779 298.199 366.011C295.667 367.243 292.771 367.503 290.06 366.742Z" fill="#A0616A"/>
<path d="M151.537 144.766L167.694 155.415L186.606 159.845C186.606 159.845 201.605 267.044 208.976 273.474C216.347 279.904 210.136 280.514 212.133 289.383C214.131 298.252 218.753 316.398 218.753 316.398C173.856 344.227 133.747 347.625 99.5268 320.972C98.9925 319.216 99.0746 317.329 99.7594 315.626C100.444 313.922 101.691 312.504 103.292 311.606C109.078 308.011 96.528 293.931 101.264 291.111C106.001 288.291 97.6312 267.198 97.6312 267.198L99.0917 221.899L95.0254 214.951L100.754 170.35L115.52 163.788L120.576 148.801L151.537 144.766Z" fill="#FFC928"/>
<path d="M158.538 148.527L185.179 157.398C185.179 157.398 214.65 154.287 215.844 198.157C217.038 242.027 211.546 265.568 211.546 265.568C211.546 265.568 272.849 388.847 206.444 352.437L187.038 276.027L167.038 156.027L158.538 148.527Z" fill="#2F2E41"/>
<path d="M185.256 245.517L199.075 243.608C199.075 243.608 200.409 264.443 207.019 267.6C213.629 270.758 211.401 271.277 212.18 274.62C212.96 277.962 206.302 287.223 211.538 289.527C216.774 291.83 262.538 349.527 262.538 349.527L289.538 324.527C287.683 319.499 278.753 323.59 278.193 318.259C277.489 310.201 263.355 288.185 260.348 285.362C257.34 282.539 258.529 277.563 256.97 270.878C255.411 264.193 256.493 270.392 253.895 259.25C251.297 248.109 216.087 191.338 214.863 181.05C213.638 170.763 199.304 164.708 199.304 164.708L188.163 167.306L185.256 245.517Z" fill="#2F2E41"/>
<path d="M68.5811 615.998L84.8451 620.268L109.058 559.567L85.0541 553.264L68.5811 615.998Z" fill="#A0616A"/>
<path d="M63.5527 632.814L113.567 645.947L113.733 645.315C115.088 640.152 114.338 634.662 111.646 630.053C108.954 625.443 104.541 622.092 99.3788 620.736L99.3776 620.735L92.0622 611.405L73.1967 613.86L68.8308 612.714L63.5527 632.814Z" fill="#2F2E41"/>
<path d="M151.957 628.165L168.771 628.164L176.771 563.303L151.953 563.305L151.957 628.165Z" fill="#A0616A"/>
<path d="M151.364 645.707L203.074 645.705V645.051C203.073 639.713 200.953 634.594 197.178 630.82C193.404 627.045 188.285 624.925 182.947 624.925H182.946L173.5 617.759L155.877 624.926L151.363 624.926L151.364 645.707Z" fill="#2F2E41"/>
<path d="M109.898 317.784C105.836 322.861 107.867 340.125 107.867 340.125C107.867 340.125 100.759 395.977 103.805 401.055C106.852 406.132 101.774 410.194 98.7279 417.303C95.6814 424.411 92.6349 441.675 92.6349 441.675C75.3714 455.892 76.3869 520.884 76.3869 520.884L70.2939 578.768C72.3249 584.861 100.759 585.876 104.821 584.861C108.883 583.845 148.488 440.659 148.488 440.659C148.488 440.659 146.457 578.768 146.457 584.861C146.457 590.954 173.875 587.907 179.968 587.907C186.061 587.907 224.65 339.109 224.65 339.109V324.892L219.573 317.784C219.573 317.784 113.96 312.706 109.898 317.784Z" fill="#2F2E41"/>
<path d="M119.538 151.527L94.6002 167.416L82.5381 177.527L98.5381 279.527C98.5381 279.527 74.2292 372.243 112.538 366.527C150.847 360.811 148.699 277.488 148.699 277.488L119.538 151.527Z" fill="#2F2E41"/>
<path d="M152.907 296.423C151.468 297.275 149.859 297.801 148.195 297.965C146.53 298.128 144.85 297.925 143.273 297.368C141.695 296.812 140.259 295.917 139.065 294.746C137.871 293.574 136.949 292.156 136.362 290.589L95.7188 291.571L106.92 273.658L143.799 275.472C146.496 274.662 149.396 274.869 151.95 276.054C154.505 277.239 156.536 279.32 157.658 281.902C158.781 284.484 158.917 287.389 158.042 290.065C157.166 292.741 155.339 295.004 152.907 296.423Z" fill="#A0616A"/>
<path d="M132.63 137.734C150.368 137.734 164.748 123.354 164.748 105.615C164.748 87.8762 150.368 73.4961 132.63 73.4961C114.891 73.4961 100.511 87.8762 100.511 105.615C100.511 123.354 114.891 137.734 132.63 137.734Z" fill="#A0616A"/>
<path d="M96.1983 84.5105C99.8049 78.9309 106.573 75.2123 113.134 76.2572C113.745 72.07 115.492 68.1307 118.187 64.868C120.881 61.6053 124.419 59.1445 128.416 57.7533C132.412 56.3622 136.713 56.0941 140.851 56.9783C144.989 57.8625 148.806 59.865 151.884 62.7678C152.897 62.055 154.076 61.6156 155.308 61.4923C156.54 61.369 157.784 61.5659 158.917 62.064C161.175 63.0907 163.14 64.6676 164.631 66.6502C168.396 71.3452 170.817 76.9732 171.637 82.9352C172.457 88.8971 171.645 94.9698 169.288 100.507C170.09 97.5919 167.168 94.8495 164.217 94.1954C161.265 93.5413 158.169 94.1601 155.176 93.7342C151.34 93.1883 147.891 90.9628 144.049 90.462C140.82 90.0411 137.572 90.869 134.423 91.6989C131.274 92.5287 128.035 93.375 124.801 92.991C121.567 92.607 117.402 104.863 117.458 113.494C117.468 115.13 117.131 117.231 115.533 117.578C113.564 118.005 112.423 115.288 110.549 114.548C109.686 114.3 108.76 114.397 107.966 114.819C107.173 115.241 106.575 115.954 106.297 116.809C106.061 117.677 106.036 118.59 106.223 119.47C106.411 120.35 106.806 121.173 107.376 121.87C108.528 123.251 109.895 124.437 111.425 125.383L110.654 126.024C109.37 127.72 106.707 127.794 104.857 126.745C103.088 125.546 101.655 123.915 100.695 122.006C97.2716 116.312 94.2688 110.245 93.0607 103.713C91.8526 97.1797 92.592 90.0901 96.1983 84.5105Z" fill="#2F2E41"/>
<path d="M107.538 180.527L93.105 168.158C93.105 168.158 76.2529 173.417 73.3955 184.472C50.9041 213.23 38.7913 246.818 35.5381 284.527C64.9018 295.617 100.857 299.551 139.538 300.527L131.538 270.527L76.5381 260.527L107.538 180.527Z" fill="#2F2E41"/>
<path d="M56.3994 631.567L48.6894 619.177L47.1494 626.257C46.8794 627.497 46.6094 628.757 46.3594 630.007C44.1694 628.137 41.8394 626.407 39.5596 624.747C32.5596 619.667 25.5628 614.58 18.5693 609.487L20.7593 622.187C22.1094 630.007 23.5195 637.987 26.8594 645.137C27.2295 645.947 27.6294 646.747 28.0596 647.527H60.5996C60.8613 646.802 61.0424 646.051 61.1396 645.287C61.1477 645.237 61.1509 645.187 61.1493 645.137C61.6596 640.287 58.9794 635.717 56.3994 631.567Z" fill="#F2F2F2"/>
<path d="M343.97 617.332L358.556 593.892L361.469 607.287C361.98 609.633 362.491 612.017 362.964 614.381C367.107 610.843 371.515 607.57 375.828 604.43C389.071 594.819 402.308 585.196 415.538 575.561L411.395 599.587C408.841 614.381 406.173 629.478 399.855 643.005C399.155 644.537 398.398 646.051 397.584 647.527H336.024C335.528 646.156 335.186 644.734 335.002 643.289C334.987 643.195 334.98 643.1 334.983 643.005C334.018 633.829 339.089 625.184 343.97 617.332Z" fill="#F2F2F2"/>
<path d="M332.526 648.027H265.55C262.498 648.023 259.572 646.809 257.414 644.651C255.255 642.493 254.042 639.567 254.038 636.515V401.539C254.042 398.487 255.255 395.56 257.414 393.402C259.572 391.244 262.498 390.03 265.55 390.027H332.526C335.578 390.03 338.505 391.244 340.663 393.402C342.821 395.56 344.035 398.487 344.038 401.539V636.515C344.035 639.567 342.821 642.493 340.663 644.651C338.505 646.809 335.578 648.023 332.526 648.027Z" fill="#F2F2F2"/>
<path d="M316.711 396.027H282.365C281.218 396.025 280.118 395.569 279.307 394.758C278.496 393.947 278.039 392.847 278.038 391.7V379.354C278.039 378.207 278.496 377.107 279.307 376.296C280.118 375.485 281.218 375.028 282.365 375.027H316.711C317.859 375.028 318.958 375.485 319.769 376.296C320.581 377.107 321.037 378.207 321.038 379.354V391.7C321.037 392.847 320.581 393.947 319.769 394.758C318.958 395.569 317.859 396.025 316.711 396.027Z" fill="#3F3D56"/>
<path d="M414.941 648.372L1.19115 648.679C0.875955 648.678 0.573992 648.553 0.35144 648.329C0.128889 648.106 0.00390625 647.804 0.00390625 647.489C0.00390625 647.174 0.128889 646.871 0.35144 646.648C0.573992 646.425 0.875955 646.299 1.19115 646.298L414.941 645.991C415.256 645.992 415.558 646.117 415.781 646.341C416.003 646.564 416.128 646.866 416.128 647.181C416.128 647.497 416.003 647.799 415.781 648.022C415.558 648.245 415.256 648.371 414.941 648.372Z" fill="#CACACA"/>
</g>
<defs>
<clipPath id="clip0_870_245">
<rect width="861.343" height="648.679" fill="white"/>
</clipPath>
</defs>
</svg>
