<svg width="693" height="328" viewBox="0 0 693 328" fill="none" xmlns="http://www.w3.org/2000/svg">
<g clip-path="url(#clip0_870_402)">
<path d="M207.953 68.8135C208.01 68.8233 208.097 68.838 208.202 68.8553C210.253 69.1949 222.655 71.1084 235.16 66.3452C240.457 64.3273 238.65 63.8244 250.447 56.809C264.279 48.5843 267.828 48.6418 268.858 44.8067C270.915 37.1488 259.933 25.1103 252.664 25.9029C250.75 26.1116 248.701 27.2526 245.513 26.4789C244.813 26.3089 241.747 25.5649 240.252 23.0271C238.919 20.7632 240.048 19.1301 239.512 17.2734C238.104 12.3998 226.372 9.96759 216.085 11.6861C210.169 12.6745 205.567 15.3729 196.605 20.7294C181.007 30.0525 173.208 34.7141 171.455 41.8561C169.794 48.6254 173.781 51.5423 170.881 58.7886C168.181 65.5359 163.892 65.0852 162.416 70.5435C160.041 79.3268 168.856 88.9666 172.528 92.9823C176.554 97.3849 180.404 99.8013 185.516 103.009C191.932 107.036 195.14 109.049 198.997 108.844C205.989 108.473 226.768 109.737 227.039 103.95C227.141 101.781 252.342 103.557 239.933 80.2091C238.411 77.3454 208.594 80.4043 208.2 78.7592" fill="#2F2E41"/>
<path d="M492.193 301.239L521.246 303.868L557.328 322.193L563.278 300.942L568.475 274.037L557.648 261.286L538.947 274.037L499.844 269.786L492.193 301.239Z" fill="#FFB6B6"/>
<path d="M253.326 212.832L231.225 321.64L391.887 275.737L495.594 304.639L510.895 271.486L396.137 223.033L301.78 224.733L253.326 212.832Z" fill="#2F2E41"/>
<path d="M560.588 272.885L563.988 275.435L542.877 315.393C542.877 315.393 557.138 323.713 561.388 323.713C565.639 323.713 580.14 241.433 578.44 229.281C576.739 217.129 565.689 221.031 565.689 221.031L541.834 271.425L560.588 272.885Z" fill="#2F2E41"/>
<path d="M90.1983 259.086C87.97 258.847 87.1009 261.897 89.1138 262.882C92.029 264.309 94.7713 266.107 96.2006 268.235C99.8549 273.678 104.904 270.532 105.622 270.044C106.802 272.008 107.383 273.994 107.634 275.759L105.912 281.466C105.915 281.454 105.837 281.847 105.912 281.466L104.592 295.988C103.687 299.516 104.37 302.912 104.592 303.909L103.271 322.393L106.962 322.422L107.36 304.34L107.437 304.317C107.435 304.31 107.407 304.211 107.367 304.034L107.531 296.562C107.863 295.283 108.389 293.938 109.191 292.603C109.909 293.091 114.958 296.238 118.612 290.795C120.042 288.666 122.784 286.868 125.699 285.442C127.712 284.456 126.843 281.406 124.615 281.646C122.727 281.849 120.668 282.154 118.477 282.6C109.189 284.491 108.996 290.798 109.078 292.244L109.015 292.204C108.38 293.222 107.91 294.248 107.56 295.25L107.87 281.18C108.062 280.183 110.208 278.604 109.872 276.185L108.437 255.408C108.944 256.278 109.505 256.843 110.035 256.783C111.303 256.638 111.941 252.971 111.781 250.302C113.356 252.484 116.343 255.019 117.432 254.291C118.256 253.74 117.767 251.47 116.867 249.407C118.742 250.536 120.819 251.278 121.463 250.561C122.342 249.582 120.235 246.243 118.292 244.379C120.893 244.621 124.201 244.207 124.418 243.023C124.597 242.048 122.628 240.817 120.521 240.025C122.637 239.467 124.616 238.495 124.551 237.533C124.457 236.163 120.25 235.334 117.558 235.517C117.403 235.528 117.258 235.542 117.119 235.559C119.425 234.16 122.262 231.276 121.598 230.121C121.104 229.261 118.807 229.594 116.687 230.352C117.941 228.558 118.823 226.537 118.151 225.845C117.195 224.86 113.448 226.946 111.513 228.826C111.333 229.001 111.175 229.168 111.037 229.328C111.044 229.191 111.048 229.047 111.048 228.895C111.048 226.197 109.934 222.056 108.561 222.056C107.597 222.056 106.761 224.096 106.349 226.246C105.415 224.198 104.053 222.317 103.092 222.562C101.944 222.854 101.744 226.087 102.139 228.648C100.112 227.004 97.1427 225.517 96.306 226.378C95.6343 227.07 96.5163 229.091 97.7708 230.885C95.6509 230.127 93.3533 229.794 92.8594 230.654C92.3221 231.589 94.0788 233.657 95.9908 235.153C93.456 235.269 90.5176 236.035 90.4397 237.178C90.3741 238.14 92.3532 239.112 94.4696 239.67C92.3625 240.462 90.3939 241.693 90.5725 242.668C90.7894 243.852 94.0972 244.266 96.698 244.023C94.755 245.888 92.6482 249.227 93.5274 250.206C94.1717 250.923 96.2481 250.181 98.1229 249.051C97.2231 251.115 96.7344 253.384 97.5586 253.936C98.5899 254.626 101.324 252.388 102.948 250.296C102.71 252.967 103.267 256.726 104.545 256.9C105.527 257.034 106.667 255.012 107.362 252.871C107.571 253.537 107.821 254.187 108.096 254.761L107.67 274.09C107.317 272.659 106.732 271.143 105.798 269.645L105.735 269.684C105.816 268.239 105.624 261.932 96.3357 260.041C94.1451 259.594 92.0859 259.29 90.1983 259.086ZM107.129 298.707L107.059 301.869C106.995 300.982 106.988 299.903 107.129 298.707Z" fill="#F2F2F2"/>
<path d="M691.109 320.509H1.57104C0.69976 320.509 0 321.209 0 322.08C0 322.952 0.69971 323.651 1.57104 323.651H691.109C691.981 323.651 692.68 322.952 692.68 322.08C692.68 321.209 691.981 320.509 691.109 320.509Z" fill="#3F3D56"/>
<path d="M187.551 118.178L198.602 79.0747L225.804 79.9248L235.154 111.377L187.551 118.178Z" fill="#FFB6B6"/>
<path d="M193.396 106.999C193.396 106.999 185.32 104.874 170.019 124.425C154.718 143.977 161.519 283.387 161.519 283.387L272.452 258.31L243.423 158.37L237.599 105.299L193.396 106.999Z" fill="#FFC928"/>
<path d="M366.457 142.906L329.963 164.035L337.978 178.772L375.193 158.409C379.189 158.208 383.079 157.054 386.537 155.042C395.262 150.125 399.796 141.642 396.669 136.091C393.541 130.541 383.935 130.026 375.214 134.942C371.701 136.859 368.698 139.59 366.457 142.906Z" fill="#FFB6B6"/>
<path d="M191.567 146.191L267.571 215.805L372.238 165.167L359.108 139.071L284.357 168.705L212.685 111.006L191.567 146.191Z" fill="#FFC928"/>
<path d="M166.619 268.086L197.222 219.632C197.222 219.632 258.426 158.428 281.378 163.528C304.33 168.628 331.532 264.686 331.532 264.686L308.58 279.137L267.777 222.182C267.777 222.182 263.527 300.388 250.886 317.389C238.246 334.391 187.021 326.74 168.32 317.389C149.618 308.039 166.619 268.086 166.619 268.086Z" fill="#2F2E41"/>
<path d="M306.88 268.936L310.28 285.087L308.58 295.288L314.53 307.189L361.284 312.289L363.834 290.188L339.182 277.437L321.331 259.585L306.88 268.936Z" fill="#FFB6B6"/>
<path d="M357.884 303.789L355.333 307.189L306.371 293.079C306.371 293.079 308.58 314.84 308.58 319.09C308.58 323.34 389.336 323.34 401.488 321.64C413.64 319.94 409.737 308.889 409.737 308.889L359.343 285.035L357.884 303.789Z" fill="#2F2E41"/>
<path d="M302.065 154.014L343.466 157.629L367.818 150.194L381.607 133.353L392.881 94.7178L328.571 65.6764L327.397 65.1475L318.485 66.0048L302.436 152.021L302.065 154.014Z" fill="#003DA5"/>
<path opacity="0.2" d="M302.437 152.021L313.565 153.533L328.572 65.6764L327.397 65.1475L318.486 66.0048L302.437 152.021Z" fill="#241F20"/>
<path d="M306.605 159.994C304.988 159.866 303.516 159.039 302.566 157.724C301.617 156.409 301.294 154.751 301.682 153.176L303.778 144.651L303.97 144.677C304.084 144.692 315.517 146.217 328.688 146.771C346.093 147.504 358.613 146.217 364.894 143.051C380.364 135.248 389.312 93.1209 389.401 92.6962L389.441 92.4995L392.805 92.9655C394.327 93.1768 395.663 93.9765 396.567 95.2176C397.468 96.4557 397.819 97.9679 397.553 99.4754C395.482 111.256 388.704 139.866 370.567 151.073C370.389 151.183 370.212 151.29 370.032 151.398C351.829 162.232 319.677 161.028 306.605 159.994Z" fill="#3F3D58"/>
<path d="M354.478 147.354C350.877 149.101 347.747 151.685 345.35 154.89L307.89 174.254L315.192 189.357L353.337 170.793C357.338 170.783 361.278 169.816 364.829 167.972C373.778 163.477 378.713 155.22 375.853 149.526C372.994 143.832 363.424 142.86 354.478 147.354Z" fill="#FFB6B6"/>
<path d="M170.503 149.823L243.097 222.986L350.061 177.402L338.192 150.709L262.112 176.741L193.276 115.686L170.503 149.823Z" fill="#FFC928"/>
<path d="M213.626 94.5232C235.383 94.5232 253.021 76.8853 253.021 55.1278C253.021 33.3703 235.383 15.7324 213.626 15.7324C191.868 15.7324 174.23 33.3703 174.23 55.1278C174.23 76.8853 191.868 94.5232 213.626 94.5232Z" fill="#FFB6B6"/>
<path d="M200.937 57.6772C200.995 57.6871 201.081 57.7017 201.186 57.7191C203.237 58.0586 215.64 59.9721 228.144 55.209C233.441 53.1911 231.634 52.6882 243.432 45.6728C257.263 37.4481 260.813 37.5056 261.843 33.6705C263.899 26.0125 252.917 13.9741 245.648 14.7667C243.735 14.9754 241.685 16.1163 238.497 15.3427C237.797 15.1727 234.731 14.4287 233.236 11.8909C231.903 9.62699 233.032 7.99389 232.496 6.13718C231.089 1.26356 219.356 -1.16864 209.07 0.549843C203.153 1.53826 198.552 4.23667 189.59 9.59315C173.991 18.9163 166.192 23.5778 164.439 30.7199C162.778 37.4892 166.766 40.4061 163.866 47.6524C161.165 54.3997 156.876 53.949 155.4 59.4073C153.025 68.1906 161.84 77.8304 165.512 81.8461C169.538 86.2487 173.389 88.6651 178.5 91.8729C184.916 95.8993 188.124 97.9125 191.981 97.7077C198.974 97.3364 205.929 90.9993 206.2 85.2126C206.302 83.0439 205.397 82.3936 203.158 74.9383C202.225 71.8323 201.578 69.2681 201.184 67.623" fill="#2F2E41"/>
</g>
<defs>
<clipPath id="clip0_870_402">
<rect width="692.68" height="327.472" fill="white"/>
</clipPath>
</defs>
</svg>
