<svg width="674" height="517" viewBox="0 0 674 517" fill="none" xmlns="http://www.w3.org/2000/svg">
<g clip-path="url(#clip0_870_426)">
<path d="M145.941 495.622C145.407 495.647 144.879 495.507 144.428 495.221C143.976 494.935 143.624 494.517 143.418 494.025C143.211 493.532 143.162 492.987 143.275 492.465C143.389 491.943 143.66 491.469 144.053 491.106L144.231 490.396C144.208 490.339 144.184 490.283 144.16 490.226C141.761 484.506 126.454 500.451 125.793 505.827C125.501 508.203 125.624 510.612 126.156 512.946C121.198 502.131 118.623 490.375 118.607 478.477C118.605 475.491 118.771 472.508 119.103 469.541C119.378 467.108 119.758 464.693 120.245 462.295C122.903 449.285 128.609 437.091 136.894 426.714C141.633 426.978 145.785 426.256 146.186 417.073C146.258 415.439 147.469 414.025 147.736 412.416C147.284 412.475 146.824 412.512 146.372 412.542C146.231 412.549 146.083 412.557 145.942 412.564L145.889 412.566C145.391 412.589 144.898 412.467 144.469 412.215C144.039 411.964 143.692 411.594 143.468 411.149C143.244 410.705 143.153 410.205 143.206 409.711C143.26 409.216 143.455 408.747 143.768 408.361C143.964 408.12 144.159 407.88 144.355 407.64C144.651 407.269 144.955 406.905 145.252 406.535C145.286 406.499 145.318 406.462 145.348 406.423C145.69 406.001 146.031 405.585 146.372 405.163C145.749 404.196 144.912 403.387 143.925 402.797C140.506 400.795 135.789 402.182 133.32 405.274C130.843 408.366 130.376 412.705 131.236 416.569C132.082 419.856 133.481 422.976 135.374 425.794C135.189 426.031 134.996 426.261 134.81 426.498C131.421 430.856 128.467 435.536 125.991 440.47C126.692 434.998 118.125 415.235 114.811 411.049C110.832 406.02 102.671 408.215 101.97 414.589C101.963 414.65 101.957 414.712 101.95 414.774C102.442 415.051 102.924 415.346 103.395 415.658C103.988 416.053 104.446 416.619 104.712 417.279C104.977 417.94 105.037 418.666 104.883 419.361C104.729 420.056 104.368 420.689 103.848 421.176C103.329 421.663 102.674 421.981 101.97 422.09L101.898 422.101C95.3112 431.506 116.428 455.985 121.714 450.489C119.226 457.54 117.665 464.884 117.071 472.336C116.735 476.733 116.755 481.15 117.131 485.544L117.109 485.389C115.934 475.819 95.7861 461.59 89.9025 462.776C86.5132 463.458 83.1748 463.303 83.6895 466.722C83.6977 466.777 83.706 466.831 83.7145 466.886C84.6277 467.258 85.5169 467.686 86.3768 468.169C86.869 468.446 87.3507 468.741 87.822 469.053C88.4141 469.448 88.8729 470.014 89.1383 470.674C89.4036 471.335 89.4632 472.061 89.3092 472.756C89.1551 473.451 88.7947 474.084 88.275 474.571C87.7554 475.057 87.1008 475.376 86.397 475.485L86.3248 475.496C86.273 475.503 86.2284 475.511 86.1766 475.518C83.1782 485.835 105.414 502.485 118.933 497.187H118.94C120.28 503.009 122.221 508.675 124.732 514.096H145.423C145.497 513.866 145.564 513.628 145.63 513.399C143.715 513.519 141.792 513.404 139.905 513.058C141.44 511.174 142.975 509.275 144.51 507.392C144.545 507.356 144.577 507.319 144.607 507.28C145.386 506.316 146.172 505.36 146.95 504.396L146.951 504.395C146.992 501.439 146.652 498.491 145.941 495.622ZM122.248 449.013L122.259 448.999L122.248 449.028V449.013ZM117.665 490.328L117.487 489.927C117.494 489.638 117.494 489.349 117.487 489.052C117.487 488.971 117.472 488.889 117.472 488.807C117.539 489.319 117.598 489.831 117.672 490.343L117.665 490.328Z" fill="#FFC928"/>
<path d="M542.511 513.99L542.405 513.266C540.522 500.465 541.44 487.407 545.097 474.996C548.753 462.585 555.061 451.115 563.583 441.38C568.417 435.961 573.913 431.172 579.943 427.126L580.485 426.762L580.803 427.694C581.163 428.722 581.866 429.594 582.794 430.164C583.721 430.735 584.816 430.969 585.896 430.827C586.975 430.685 587.973 430.176 588.722 429.386C589.47 428.595 589.924 427.571 590.007 426.485L590.426 421.011L591.074 420.691C594.091 419.187 597.49 418.621 600.831 419.068C604.173 419.515 607.304 420.954 609.819 423.199C612.426 425.428 614.304 428.387 615.211 431.694C616.118 435.001 616.013 438.504 614.908 441.751C613.922 444.743 612.982 447.849 612.073 450.852C608.966 461.124 605.752 471.744 599.902 480.585C595.436 487.258 589.521 492.836 582.598 496.905C575.676 500.973 567.924 503.427 559.921 504.082L542.511 513.99Z" fill="#F2F2F2"/>
<path d="M345.576 303.562C345.752 304.614 346.156 305.615 346.76 306.494C347.364 307.374 348.153 308.11 349.072 308.651C349.992 309.192 351.018 309.525 352.08 309.627C353.142 309.728 354.213 309.595 355.218 309.238L371.771 328.663L375.909 315.84L359.539 299.4C358.827 297.751 357.535 296.421 355.907 295.662C354.28 294.902 352.43 294.766 350.709 295.279C348.988 295.792 347.515 296.919 346.569 298.445C345.623 299.972 345.27 301.792 345.576 303.562Z" fill="#9E616A"/>
<path d="M412.318 298.718C412.318 298.718 420.697 284.802 428.565 288.769C436.432 292.737 430.378 306.501 430.378 306.501L393.555 349.233C393.555 349.233 352.527 314.975 357.981 315.457C363.434 315.939 366.301 306.271 366.301 306.271L388.407 321.031L389.734 316.936L390.852 318.376L394.481 316.194L412.318 298.718Z" fill="#FFC928"/>
<path d="M468.087 38.7241C468.102 48.4797 464.419 57.8785 457.778 65.0256C457.275 65.5743 456.744 66.105 456.204 66.6177C436.196 51.2176 415.211 37.1289 393.383 24.4399C393.653 23.7563 393.941 23.0817 394.255 22.416C397.97 14.4194 404.302 7.93016 412.206 4.02148C420.109 0.112811 429.11 -0.981127 437.72 0.920593C446.33 2.82231 454.032 7.60577 459.554 14.4798C465.076 21.3539 468.086 29.9069 468.087 38.7241Z" fill="#003DA5"/>
<path d="M499.488 117.521L499.452 117.925C473.987 116.171 448.525 114.414 423.066 112.654C404.671 111.386 385.638 109.947 369.384 101.24C363.213 97.9384 357.204 93.5308 350.206 93.225C341.526 92.8382 333.952 98.9099 327.997 105.242C292.8 142.734 282.608 200.059 243.12 232.99C268.025 171.573 297.76 112.226 332.045 55.5087C338.378 45.0295 345.889 33.8397 357.645 30.4215C368.862 27.1563 380.34 31.9237 390.666 38.0403C392.879 39.3536 395.038 40.7299 397.125 42.0971C413.037 52.5134 428.688 63.3284 444.079 74.5422C462.977 88.2957 481.447 102.622 499.488 117.521Z" fill="#F2F2F2"/>
<path d="M581.847 197.037C554.628 158.618 523.005 123.517 487.624 92.4515C477.45 83.5104 466.977 74.8992 456.204 66.6177C436.195 51.2176 415.211 37.1289 393.382 24.4399C386.222 20.2842 378.978 16.2934 371.65 12.4675C365.957 9.50814 359.894 6.8006 353.328 7.22337C348.734 7.61603 344.345 9.30342 340.672 12.0897C332.603 17.9815 327.26 27.1834 322.861 35.9536C319.011 43.6444 315.422 51.488 311.761 59.2868C310.205 62.6059 308.649 65.9161 307.039 69.2083C301.426 80.74 295.681 92.2087 289.804 103.614C282.231 118.312 274.438 132.899 266.426 147.375C249.597 177.806 231.837 207.687 213.149 237.02C185.678 280.133 156.288 321.939 124.979 362.438C121.138 367.394 119.555 368.546 115.66 373.466C114.761 374.617 113.16 372.998 114.05 371.856C146.531 330.802 174.812 292.016 203.326 248.102C224.824 214.991 245.141 181.146 264.276 146.566C270.42 135.475 276.435 124.315 282.321 113.086C291.846 94.9071 301.042 76.5572 309.908 58.0364C312.247 53.161 314.562 48.2677 316.853 43.3565C324.13 27.768 334.726 4.58776 355.189 4.90259C361.207 4.99259 366.793 7.4302 372.064 10.1287C377.434 12.8902 382.705 15.8226 387.967 18.8C390.072 19.9873 392.168 21.1926 394.255 22.416C402.521 27.2193 410.665 32.2235 418.686 37.4287C432.07 46.1089 445.101 55.3079 457.778 65.0255C463.796 69.64 469.724 74.3594 475.561 79.1837C512.191 109.489 545.127 144.001 573.688 182.006C577.133 186.585 580.507 191.214 583.808 195.895C584.653 197.091 582.683 198.224 581.847 197.037Z" fill="#E4E4E4"/>
<path d="M489.65 81.0026C490.839 79.6771 492.021 78.3516 493.217 77.0261C502.655 66.5888 512.781 56.2728 525.741 50.2891C531.92 47.346 538.666 45.7824 545.51 45.7067C552.572 45.9006 559.534 47.419 566.036 50.1831C569.126 51.4177 572.148 52.8189 575.125 54.311C578.526 56.0228 581.866 57.8482 585.191 59.6887C591.432 63.1426 597.593 66.7479 603.672 70.5047C615.768 77.9805 627.485 86.0268 638.824 94.6437C644.702 99.1125 650.458 103.728 656.093 108.489C661.335 112.913 666.47 117.455 671.499 122.115C672.575 123.108 674.18 121.502 673.105 120.51C671.779 119.275 670.439 118.048 669.098 116.836C665.311 113.413 661.463 110.055 657.555 106.762C650.428 100.749 643.116 94.9669 635.62 89.4175C623.963 80.7829 611.905 72.7341 599.446 65.2709C593.22 61.5444 586.908 57.9745 580.51 54.561C578.579 53.531 576.624 52.5236 574.648 51.5692C570.162 49.3067 565.502 47.4095 560.711 45.8961C553.925 43.7009 546.746 42.9956 539.662 43.8284C532.823 44.8232 526.234 47.1027 520.242 50.5467C507.518 57.6589 497.649 68.6566 488.044 79.3893C487.075 80.4799 488.673 82.0932 489.65 81.0026Z" fill="#E4E4E4"/>
<path d="M228.928 189.161L198.437 178.008L183.298 172.471C178.407 170.502 173.418 168.784 168.352 167.323C163.922 166.058 159.219 166.118 154.823 167.496C150.903 168.947 147.315 171.171 144.272 174.037C141.163 176.9 138.27 179.989 135.617 183.279C132.321 187.24 129.074 191.243 125.812 195.232C112.349 211.696 98.9747 228.232 85.6882 244.839C72.4019 261.446 59.2045 278.124 46.096 294.872C32.9553 311.661 19.9051 328.52 6.94523 345.449C5.35762 347.523 3.77136 349.598 2.18647 351.674C1.31084 352.821 -0.663532 351.69 0.224468 350.527C13.28 333.428 26.4265 316.398 39.664 299.438C52.934 282.438 66.2957 265.51 79.7492 248.654C93.2023 231.799 106.746 215.016 120.381 198.307C123.778 194.144 127.181 189.985 130.589 185.832C133.464 182.328 136.306 178.787 139.459 175.525C145.247 169.539 152.479 164.249 161.135 164.106C166.224 164.021 171.149 165.636 175.878 167.347C180.975 169.191 186.06 171.07 191.151 172.932L221.856 184.162L229.532 186.97C230.894 187.468 230.306 189.664 228.928 189.161Z" fill="#E4E4E4"/>
<path d="M529.754 63.4224C545.249 55.4588 565.092 57.0185 579.331 66.9679C552.172 71.6536 525.309 77.9231 498.882 85.7444C509.856 79.3132 518.441 69.2369 529.754 63.4224Z" fill="#F2F2F2"/>
<path d="M579.484 66.9404L582.466 69.3651C581.457 68.5165 580.409 67.7208 579.331 66.9679C579.382 66.9591 579.433 66.9492 579.484 66.9404Z" fill="#F2F2F2"/>
<path d="M145.42 189.272C148.421 185.619 151.666 181.793 156.156 180.309L160.347 180.474C128.44 236.855 85.3479 286.119 33.7148 325.245C70.9498 279.921 108.185 234.596 145.42 189.272Z" fill="#F2F2F2"/>
<path d="M575.931 397.953L547.714 385.505V374.802L557.77 374.746C559.33 374.737 560.849 374.24 562.112 373.324C563.375 372.408 564.32 371.119 564.814 369.639L571.878 356.446C572.252 355.323 572.354 354.127 572.176 352.957C571.997 351.787 571.543 350.677 570.851 349.716C570.159 348.756 569.249 347.974 568.196 347.435C567.142 346.896 565.976 346.615 564.792 346.615L547.714 352.615V342.656H569.154C570.844 342.656 572.484 342.082 573.806 341.03C575.128 339.977 576.055 338.507 576.433 336.86L581.298 315.697C581.55 314.602 581.551 313.465 581.303 312.37C581.054 311.275 580.562 310.25 579.862 309.371C579.163 308.492 578.274 307.783 577.262 307.295C576.251 306.807 575.142 306.554 574.019 306.554H547.714V304.064C547.714 302.744 547.189 301.477 546.255 300.543C545.321 299.61 544.055 299.085 542.734 299.085C541.413 299.085 540.147 299.61 539.213 300.543C538.279 301.477 537.755 302.744 537.755 304.064V306.554H361.397V304.064C361.397 302.744 360.873 301.477 359.939 300.543C359.005 299.61 357.738 299.085 356.418 299.085C355.097 299.085 353.831 299.61 352.897 300.543C351.963 301.477 351.438 302.744 351.438 304.064V306.554H330.528C329.404 306.554 328.296 306.807 327.284 307.295C326.272 307.783 325.384 308.492 324.684 309.371C323.985 310.25 323.492 311.275 323.244 312.37C322.995 313.465 322.997 314.602 323.248 315.697L328.113 336.86C328.492 338.507 329.418 339.977 330.74 341.03C332.062 342.082 333.702 342.656 335.393 342.656H351.438V352.615L339.754 346.615C338.577 346.615 337.416 346.893 336.367 347.427C335.318 347.96 334.41 348.735 333.717 349.686C333.024 350.638 332.565 351.739 332.379 352.902C332.193 354.064 332.284 355.254 332.645 356.375L339.855 370.752C340.342 372.263 341.298 373.579 342.584 374.51C343.87 375.442 345.419 375.939 347.006 375.93L351.438 375.905V385.505L328.616 397.953C326.635 397.953 324.735 398.74 323.334 400.141C321.933 401.542 321.146 403.442 321.146 405.423C321.146 407.404 321.933 409.303 323.334 410.704C324.735 412.105 326.635 412.892 328.616 412.892H351.438V509.666C351.438 510.987 351.963 512.254 352.897 513.187C353.831 514.121 355.097 514.646 356.418 514.646C357.739 514.646 359.005 514.121 359.939 513.187C360.873 512.254 361.397 510.987 361.397 509.666V412.892H537.755V510.666C537.755 511.987 538.279 513.254 539.213 514.187C540.147 515.121 541.413 515.646 542.734 515.646C544.055 515.646 545.321 515.121 546.255 514.187C547.189 513.254 547.714 511.987 547.714 510.666V412.892H575.931C577.912 412.892 579.811 412.105 581.212 410.704C582.613 409.303 583.4 407.404 583.4 405.423C583.4 403.442 582.613 401.542 581.212 400.141C579.812 398.74 577.912 397.953 575.931 397.953ZM361.397 342.655H537.755V352.614H361.397V342.655ZM361.397 385.505V375.849L537.755 374.858V385.505L361.397 385.505Z" fill="#CCCCCC"/>
<path d="M427.671 253.371C428.941 250.436 430.869 247.832 433.306 245.76C435.742 243.689 438.622 242.205 441.724 241.423C448.609 239.632 458.691 242.36 463.868 246.277C473.336 253.443 475.647 278.059 469.142 285.838C467.848 285.786 463.383 285.747 462.073 285.71L460.221 281.022V285.664C449.999 285.424 439.357 285.574 428.709 285.73C427.755 280.222 425.482 258.669 427.671 253.371Z" fill="#2F2E41"/>
<path d="M441.906 279.901C450.062 279.901 456.673 273.289 456.673 265.134C456.673 256.978 450.062 250.367 441.906 250.367C433.751 250.367 427.14 256.978 427.14 265.134C427.14 273.289 433.751 279.901 441.906 279.901Z" fill="#9E616A"/>
<path d="M431.76 245.905C434.598 244.175 437.848 243.24 441.17 243.196C444.493 243.152 447.766 244.002 450.648 245.656C453.53 247.311 455.915 249.709 457.553 252.6C459.191 255.491 460.022 258.77 459.959 262.092C451.91 264.15 443.332 265.01 434.242 262.588L432.164 257.502L430.939 262.591C428.158 264.548 425.474 264.544 422.886 262.581C422.777 259.268 423.539 255.984 425.096 253.058C426.653 250.131 428.951 247.665 431.76 245.905Z" fill="#2F2E41"/>
<path d="M472.072 247.371C470.613 245.133 469.004 242.769 466.527 241.769C464.05 240.769 460.536 241.965 460.2 244.615C459.948 246.596 461.46 248.297 462.597 249.938C463.735 251.579 464.475 254.056 462.989 255.389L462.153 255.821C462.952 256.853 463.982 257.684 465.161 258.246C466.339 258.809 467.633 259.087 468.939 259.059C470.243 258.989 471.489 258.496 472.489 257.656C473.488 256.815 474.187 255.672 474.48 254.399C474.907 251.897 473.459 249.498 472.072 247.371Z" fill="#2F2E41"/>
<path d="M382.42 496.203L374.125 493.789L379.487 460.647L391.729 464.209L382.42 496.203Z" fill="#9E616A"/>
<path d="M381.549 513.032L375.663 511.32L376.229 505.457L371.922 510.231L356.311 505.69C355.563 505.472 354.903 505.021 354.43 504.402C353.956 503.783 353.692 503.029 353.677 502.25C353.663 501.471 353.897 500.707 354.347 500.071C354.797 499.435 355.438 498.959 356.178 498.713L371.149 493.73L372.783 488.112L385.668 492.709L381.549 513.032Z" fill="#2F2E41"/>
<path d="M484.462 493.199L476.243 495.858L462.076 465.42L474.207 461.496L484.462 493.199Z" fill="#9E616A"/>
<path d="M493.187 507.616L487.355 509.503L484.533 504.334L483.648 510.703L468.179 515.707C467.438 515.947 466.639 515.944 465.9 515.697C465.16 515.451 464.519 514.975 464.069 514.339C463.62 513.702 463.385 512.939 463.4 512.159C463.415 511.38 463.679 510.626 464.153 510.008L473.745 497.48L471.944 491.913L485.188 488.485L493.187 507.616Z" fill="#2F2E41"/>
<path d="M430.836 404.382L425.762 426.288L463.773 474.58L478.324 467.122C466.984 441.861 465.984 438.861 453.853 427.966L453.978 427.778C462.696 414.615 472.116 401.994 473.387 386.257C473.422 385.827 471.473 370.083 471.519 369.654C472.605 359.362 421.809 356.097 421.809 356.097C421.809 356.097 413.176 371.314 400.335 382.984L374.359 408.736L375.06 479.676L387.283 482.645C396.27 465.523 400.64 445.446 401.896 423.375L424.475 408.228L430.836 404.382Z" fill="#2F2E41"/>
<path d="M468.474 409.985C467.815 409.252 467.326 408.383 467.039 407.44C466.753 406.497 466.677 405.503 466.816 404.527C466.956 403.552 467.307 402.619 467.846 401.794C468.385 400.969 469.099 400.272 469.936 399.753L469.075 395.445L459.037 345.225L470.679 349.631L478.291 394.942L479.528 402.306C480.307 403.771 480.522 405.47 480.132 407.083C479.742 408.695 478.774 410.109 477.411 411.055C476.049 412.002 474.386 412.416 472.739 412.218C471.092 412.021 469.574 411.226 468.474 409.985Z" fill="#9E616A"/>
<path d="M455.507 295.798L463.135 290.631C463.135 290.631 469.637 290.504 470.186 302.245C470.735 313.987 471.926 336.875 471.926 336.875L480.498 389.497L464.768 392.115L455.608 335.331L449.241 318.282L455.507 295.798Z" fill="#FFC928"/>
<path d="M427.567 326.152L425.399 331.787L425.833 337.423L468.252 352.115L466.147 327.452L461.379 321.817L427.567 326.152Z" fill="#FFB6B6"/>
<path d="M414.121 367.542L415.503 353.73C415.646 353.167 415.964 352.663 416.411 352.292C416.859 351.92 417.412 351.7 417.992 351.662C418.568 345.083 420.989 316.698 421.134 315.46L421.139 315.408L422.24 291.887C422.28 291.033 422.634 290.224 423.233 289.613C423.832 289.003 424.635 288.635 425.488 288.579L431.303 288.199C431.383 288.196 431.459 288.163 431.514 288.105C431.57 288.048 431.601 287.971 431.601 287.891C431.601 287.249 431.727 286.613 431.973 286.02C432.219 285.427 432.579 284.887 433.033 284.433C433.487 283.979 434.026 283.619 434.62 283.373C435.213 283.127 435.849 283.001 436.491 283.001H453.709C454.824 283.001 455.9 283.409 456.737 284.147C457.573 284.885 458.111 285.903 458.25 287.009C458.257 287.085 458.293 287.156 458.351 287.206C458.408 287.257 458.483 287.284 458.559 287.283H458.561C460.517 287.242 462.424 287.905 463.933 289.15C465.443 290.394 466.457 292.139 466.79 294.067C469.144 307.763 473.861 338.846 471.529 356.126C470.717 362.142 472.467 357.377 472.774 362.411C472.805 362.897 472.739 363.385 472.581 363.846C472.422 364.306 472.175 364.732 471.852 365.097C472.513 365.337 473.052 365.828 473.353 366.464C473.654 367.1 473.693 367.828 473.46 368.492L473.762 368.417C473.673 368.769 473.516 369.1 473.3 369.391C473.083 369.682 472.812 369.927 472.5 370.113C472.189 370.299 471.844 370.422 471.485 370.475C471.126 370.527 470.76 370.509 470.408 370.42L419.984 365.861C418.504 365.488 413.748 369.022 414.121 367.542Z" fill="#FFC928"/>
<path d="M670.989 515.218C670.99 515.374 670.959 515.529 670.9 515.674C670.84 515.818 670.752 515.95 670.642 516.06C670.531 516.171 670.4 516.259 670.255 516.318C670.111 516.378 669.956 516.408 669.799 516.408L606.769 516.438L591.049 516.448L580.679 516.458H569.209L562.949 516.468L545.569 516.478L272.109 516.618L270.029 516.628L147.709 516.668H145.689L41.5694 516.708H39.5494L7.04938 516.718C6.73377 516.718 6.43108 516.592 6.20792 516.369C5.98475 516.146 5.85938 515.843 5.85938 515.528C5.85938 515.212 5.98475 514.91 6.20792 514.686C6.43108 514.463 6.73377 514.338 7.04938 514.338L39.8894 514.328H41.9094L145.999 514.288H148.019L269.389 514.248H271.459L374.879 514.208H376.239L543.669 514.108L561.019 514.098L568.959 514.088L581.509 514.078H592.229L609.119 514.068L669.799 514.028C669.956 514.027 670.111 514.058 670.255 514.117C670.4 514.177 670.531 514.265 670.642 514.375C670.752 514.486 670.84 514.617 670.9 514.762C670.959 514.907 670.99 515.061 670.989 515.218Z" fill="#CACACA"/>
</g>
<defs>
<clipPath id="clip0_870_426">
<rect width="673.46" height="516.718" fill="white"/>
</clipPath>
</defs>
</svg>
