<svg width="671" height="676" viewBox="0 0 671 676" fill="none" xmlns="http://www.w3.org/2000/svg">
<g clip-path="url(#clip0_870_454)">
<path d="M169.191 648.41C168.451 648.444 167.718 648.25 167.092 647.854C166.466 647.458 165.977 646.878 165.691 646.195C165.405 645.511 165.337 644.756 165.494 644.033C165.652 643.309 166.028 642.651 166.572 642.148C166.663 641.786 166.728 641.526 166.819 641.163C166.111 639.364 164.882 637.818 163.289 636.722C161.696 635.626 159.812 635.03 157.878 635.012C155.945 634.994 154.05 635.554 152.437 636.619C150.823 637.685 149.565 639.208 148.823 640.994C144.54 651.017 138.998 661.394 141.754 672.434C123.548 633.848 129.74 585.852 156.646 552.854C164.083 548.757 170.111 541.479 171.68 533.027C167.999 534.274 163.41 531.28 166.178 527.403C167.377 525.921 168.589 524.451 169.788 522.969C155.806 508.079 139.147 531.481 154.537 551.579C149.503 557.891 145.142 564.712 141.526 571.931C142.361 564.265 141.364 556.511 138.618 549.306C135.834 542.591 130.617 536.936 126.023 531.131C120.437 524.058 108.94 527.321 108.188 536.297C113.343 537.992 114.013 545.438 108.116 546.458C109.661 563.155 120.57 578.501 135.594 585.824C130.046 601.392 127.879 617.964 129.239 634.435C126.587 615.185 105.923 610.514 91.4804 602.863C90.5612 602.273 89.4903 601.964 88.3983 601.973C87.3063 601.982 86.2405 602.308 85.3308 602.912C84.4211 603.516 83.7069 604.372 83.2754 605.375C82.8438 606.378 82.7135 607.485 82.9004 608.561C84.8938 609.372 86.8018 610.378 88.5962 611.566C89.437 612.132 90.0824 612.943 90.4439 613.89C90.8054 614.836 90.8653 615.871 90.6155 616.853C90.3656 617.835 89.8181 618.716 89.0481 619.374C88.2781 620.033 87.3234 620.437 86.3146 620.532C93.5947 638.55 112.417 650.649 131.748 650.581C133.606 658.654 136.298 666.511 139.78 674.028H168.472C168.575 673.709 168.667 673.38 168.76 673.061C166.104 673.228 163.438 673.069 160.82 672.588C167.847 664.269 173.281 660.025 169.191 648.411L169.191 648.41Z" fill="#F2F2F2"/>
<path d="M424.983 648.41C425.723 648.444 426.455 648.25 427.081 647.854C427.707 647.458 428.196 646.878 428.482 646.195C428.768 645.511 428.837 644.756 428.679 644.033C428.522 643.309 428.145 642.651 427.601 642.148C427.51 641.786 427.445 641.526 427.354 641.163C428.062 639.364 429.292 637.818 430.885 636.722C432.478 635.626 434.362 635.03 436.295 635.012C438.229 634.994 440.123 635.554 441.737 636.619C443.35 637.685 444.609 639.208 445.351 640.994C449.633 651.017 455.175 661.394 452.419 672.434C470.625 633.848 464.434 585.852 437.528 552.854C430.09 548.757 424.062 541.479 422.493 533.027C426.174 534.274 430.763 531.28 427.996 527.403C426.796 525.921 425.585 524.451 424.385 522.969C438.367 508.079 455.026 531.481 439.636 551.579C444.671 557.891 449.031 564.712 452.648 571.931C451.812 564.265 452.809 556.511 455.555 549.306C458.339 542.591 463.556 536.936 468.151 531.131C473.737 524.058 485.234 527.321 485.985 536.297C480.83 537.992 480.16 545.438 486.057 546.458C484.513 563.155 473.604 578.501 458.579 585.824C464.127 601.392 466.294 617.964 464.934 634.435C467.586 615.185 488.25 610.514 502.693 602.863C503.612 602.273 504.683 601.964 505.775 601.973C506.867 601.982 507.933 602.308 508.843 602.912C509.752 603.516 510.466 604.372 510.898 605.375C511.33 606.378 511.46 607.485 511.273 608.561C509.28 609.372 507.372 610.378 505.577 611.566C504.736 612.132 504.091 612.943 503.729 613.89C503.368 614.836 503.308 615.871 503.558 616.853C503.808 617.835 504.355 618.716 505.125 619.374C505.895 620.033 506.85 620.437 507.859 620.532C500.579 638.55 481.756 650.649 462.425 650.581C460.567 658.654 457.876 666.511 454.393 674.028H425.702C425.599 673.709 425.506 673.38 425.414 673.061C428.069 673.228 430.736 673.069 433.353 672.588C426.327 664.269 420.893 660.024 424.983 648.41Z" fill="#F2F2F2"/>
<path d="M435.621 652.671L423.265 655.481L406.541 609.159L424.778 605.01L435.621 652.671Z" fill="#FFB6B6"/>
<path d="M438.989 665.461L400.992 674.107L400.883 673.626C399.991 669.704 400.693 665.587 402.835 662.183C404.978 658.778 408.384 656.364 412.307 655.471L418.05 648.626L432.198 650.945L435.515 650.191L438.989 665.461Z" fill="#2F2E41"/>
<path d="M634.947 426.88L641.739 437.577L603.711 468.871L593.685 453.082L634.947 426.88Z" fill="#FFB6B6"/>
<path d="M645.867 419.416L666.757 452.312L666.341 452.576C662.945 454.732 658.832 455.451 654.906 454.575C650.98 453.699 647.563 451.299 645.406 447.904L637.031 444.789L634.47 430.683L632.646 427.811L645.867 419.416Z" fill="#2F2E41"/>
<path d="M241.075 312.512L238.023 294.823L284.421 273.872L294.441 256.132C294.117 254.575 294.23 252.959 294.767 251.463C295.304 249.966 296.245 248.647 297.484 247.652C298.724 246.656 300.215 246.022 301.792 245.821C303.369 245.619 304.971 245.857 306.421 246.509C307.872 247.161 309.114 248.201 310.01 249.514C310.906 250.827 311.422 252.363 311.501 253.951C311.579 255.539 311.217 257.118 310.455 258.513C309.692 259.908 308.559 261.066 307.18 261.857L290.697 287.34L241.075 312.512Z" fill="#A0616A"/>
<path d="M226.971 298.052L247.865 287.379L253.396 308.147L238.883 318.905L226.971 298.052Z" fill="#FFC928"/>
<path d="M180.086 651.062L192.719 651.061L198.729 602.332L180.083 602.333L180.086 651.062Z" fill="#A0616A"/>
<path d="M196.923 652.199V643.634L193.602 643.837L180.082 644.638L176.953 644.83L174.561 673.514L174.433 675.052H183.403L183.691 673.525L184.994 666.584L188.358 673.525L189.095 675.052H212.877C214.293 675.043 215.647 674.476 216.647 673.475C217.647 672.473 218.211 671.117 218.217 669.702C219.221 665.014 199.443 654.879 196.923 652.199Z" fill="#2F2E41"/>
<path d="M30.1227 457.676L27.1777 469.962L73.1627 487.168L77.5087 469.036L30.1227 457.676Z" fill="#A0616A"/>
<path d="M26.0914 473.785L34.42 475.782L34.9971 472.505L37.3705 459.171L37.9131 456.083L10.5774 447.069L9.11189 446.586L7.02034 455.309L8.43812 455.946L14.8844 458.831L7.35002 460.484L5.69319 460.844L0.148113 483.971C-0.173145 485.349 0.0622736 486.799 0.803295 488.004C1.54432 489.21 2.73108 490.075 4.10588 490.411C8.43074 492.48 22.8972 475.61 26.0914 473.785Z" fill="#2F2E41"/>
<path d="M199.62 335.69L183.359 328.088L150.931 367.332L131.178 372.328C129.762 371.606 128.173 371.289 126.588 371.413C125.003 371.538 123.483 372.097 122.196 373.031C120.909 373.965 119.905 375.236 119.295 376.705C118.685 378.173 118.493 379.781 118.74 381.352C118.987 382.923 119.664 384.395 120.695 385.605C121.725 386.816 123.071 387.718 124.582 388.211C126.094 388.705 127.712 388.772 129.259 388.404C130.806 388.035 132.221 387.247 133.347 386.125L162.271 376.933L199.62 335.69Z" fill="#A0616A"/>
<path d="M430.158 190.415C426.711 190.415 423.342 189.392 420.476 187.477C417.61 185.562 415.376 182.841 414.057 179.656C412.738 176.472 412.393 172.968 413.065 169.587C413.738 166.206 415.398 163.101 417.835 160.664C420.272 158.226 423.378 156.566 426.758 155.894C430.139 155.222 433.643 155.567 436.828 156.886C440.012 158.205 442.734 160.439 444.649 163.305C446.564 166.17 447.586 169.54 447.586 172.987C447.581 177.607 445.743 182.037 442.476 185.304C439.209 188.572 434.779 190.409 430.158 190.415ZM430.158 157.559C427.107 157.559 424.124 158.464 421.587 160.159C419.05 161.854 417.073 164.264 415.905 167.083C414.737 169.902 414.432 173.004 415.027 175.997C415.622 178.989 417.092 181.738 419.249 183.896C421.407 186.054 424.156 187.523 427.148 188.118C430.141 188.713 433.243 188.408 436.062 187.24C438.881 186.073 441.291 184.095 442.986 181.558C444.681 179.021 445.586 176.038 445.586 172.987C445.581 168.897 443.954 164.975 441.062 162.083C438.17 159.191 434.248 157.564 430.158 157.559Z" fill="#E6E6E6"/>
<path d="M428.929 179.552C428.894 179.552 428.859 179.551 428.824 179.549C428.515 179.534 428.212 179.453 427.937 179.31C427.662 179.167 427.422 178.967 427.232 178.722L424.486 175.192C424.313 174.97 424.185 174.715 424.11 174.443C424.035 174.171 424.015 173.886 424.05 173.606C424.085 173.326 424.175 173.056 424.314 172.81C424.454 172.565 424.64 172.349 424.863 172.176L424.962 172.099C425.185 171.926 425.439 171.798 425.712 171.723C425.984 171.648 426.268 171.627 426.548 171.662C426.829 171.697 427.099 171.787 427.345 171.927C427.59 172.067 427.806 172.253 427.979 172.476C428.117 172.654 428.293 172.8 428.493 172.904C428.694 173.008 428.914 173.068 429.139 173.079C429.365 173.09 429.59 173.052 429.799 172.968C430.009 172.884 430.198 172.755 430.353 172.592L435.927 166.707C436.319 166.294 436.86 166.053 437.429 166.037C437.999 166.022 438.552 166.233 438.966 166.624L439.057 166.712C439.262 166.906 439.427 167.138 439.542 167.396C439.657 167.654 439.72 167.932 439.728 168.214C439.735 168.496 439.687 168.777 439.586 169.041C439.485 169.304 439.334 169.545 439.139 169.75L430.489 178.881C430.288 179.093 430.046 179.262 429.778 179.377C429.51 179.493 429.221 179.552 428.929 179.552Z" fill="#E6E6E6"/>
<path d="M343.158 401.415C339.711 401.415 336.342 400.392 333.476 398.477C330.61 396.562 328.376 393.841 327.057 390.656C325.738 387.472 325.393 383.968 326.065 380.587C326.738 377.206 328.398 374.101 330.835 371.664C333.272 369.226 336.378 367.566 339.758 366.894C343.139 366.222 346.643 366.567 349.828 367.886C353.012 369.205 355.734 371.439 357.649 374.305C359.564 377.17 360.586 380.54 360.586 383.987C360.581 388.607 358.743 393.037 355.476 396.304C352.209 399.572 347.779 401.409 343.158 401.415ZM343.158 368.559C340.107 368.559 337.124 369.464 334.587 371.159C332.05 372.854 330.073 375.264 328.905 378.083C327.737 380.902 327.432 384.004 328.027 386.997C328.622 389.989 330.092 392.738 332.249 394.896C334.407 397.054 337.156 398.523 340.148 399.118C343.141 399.713 346.243 399.408 349.062 398.24C351.881 397.073 354.291 395.095 355.986 392.558C357.681 390.021 358.586 387.038 358.586 383.987C358.581 379.897 356.954 375.975 354.062 373.083C351.17 370.191 347.248 368.564 343.158 368.559Z" fill="#E6E6E6"/>
<path d="M341.929 390.552C341.894 390.552 341.859 390.551 341.824 390.549C341.515 390.534 341.212 390.453 340.937 390.31C340.662 390.167 340.422 389.967 340.232 389.722L337.486 386.192C337.313 385.97 337.185 385.715 337.11 385.443C337.035 385.171 337.015 384.886 337.05 384.606C337.085 384.326 337.175 384.056 337.314 383.81C337.454 383.565 337.64 383.349 337.863 383.176L337.962 383.099C338.185 382.926 338.439 382.798 338.712 382.723C338.984 382.648 339.268 382.627 339.548 382.662C339.829 382.697 340.099 382.787 340.345 382.927C340.59 383.067 340.806 383.253 340.979 383.476C341.117 383.654 341.293 383.8 341.493 383.904C341.694 384.008 341.914 384.068 342.139 384.079C342.365 384.09 342.59 384.052 342.799 383.968C343.009 383.884 343.198 383.755 343.353 383.592L348.927 377.707C349.319 377.294 349.86 377.053 350.429 377.037C350.999 377.022 351.552 377.233 351.966 377.624L352.057 377.712C352.262 377.906 352.427 378.138 352.542 378.396C352.657 378.654 352.72 378.932 352.728 379.214C352.735 379.496 352.687 379.777 352.586 380.041C352.485 380.304 352.334 380.545 352.139 380.75L343.489 389.881C343.288 390.093 343.046 390.262 342.778 390.377C342.51 390.493 342.221 390.552 341.929 390.552Z" fill="#E6E6E6"/>
<path d="M152.158 166.415C148.711 166.415 145.342 165.392 142.476 163.477C139.61 161.562 137.376 158.841 136.057 155.656C134.738 152.472 134.393 148.968 135.065 145.587C135.738 142.206 137.398 139.101 139.835 136.664C142.272 134.226 145.378 132.566 148.758 131.894C152.139 131.222 155.643 131.567 158.828 132.886C162.012 134.205 164.734 136.439 166.649 139.304C168.564 142.17 169.586 145.54 169.586 148.987C169.581 153.607 167.743 158.037 164.476 161.304C161.209 164.572 156.779 166.409 152.158 166.415ZM152.158 133.559C149.107 133.559 146.124 134.464 143.587 136.159C141.05 137.854 139.073 140.264 137.905 143.083C136.737 145.902 136.432 149.004 137.027 151.997C137.622 154.989 139.092 157.738 141.249 159.896C143.407 162.054 146.156 163.523 149.148 164.118C152.141 164.713 155.243 164.408 158.062 163.24C160.881 162.073 163.291 160.095 164.986 157.558C166.681 155.021 167.586 152.038 167.586 148.987C167.581 144.897 165.954 140.975 163.062 138.083C160.17 135.191 156.248 133.564 152.158 133.559Z" fill="#E6E6E6"/>
<path d="M150.929 155.552C150.894 155.552 150.859 155.551 150.824 155.549C150.515 155.534 150.212 155.453 149.937 155.31C149.662 155.167 149.422 154.966 149.232 154.722L146.486 151.192C146.313 150.97 146.185 150.715 146.11 150.443C146.035 150.171 146.015 149.886 146.05 149.606C146.085 149.326 146.175 149.056 146.314 148.81C146.454 148.565 146.64 148.349 146.863 148.176L146.962 148.099C147.185 147.926 147.439 147.798 147.712 147.723C147.984 147.648 148.268 147.627 148.548 147.662C148.829 147.697 149.099 147.787 149.345 147.927C149.59 148.067 149.806 148.253 149.979 148.476C150.117 148.654 150.293 148.8 150.493 148.904C150.694 149.008 150.914 149.068 151.139 149.079C151.365 149.09 151.59 149.052 151.799 148.968C152.009 148.884 152.198 148.755 152.353 148.592L157.927 142.707C158.319 142.294 158.86 142.053 159.429 142.037C159.999 142.022 160.552 142.233 160.966 142.624L161.057 142.712C161.262 142.906 161.427 143.138 161.542 143.396C161.657 143.654 161.72 143.932 161.728 144.214C161.735 144.496 161.687 144.777 161.586 145.041C161.485 145.304 161.334 145.545 161.139 145.75L152.489 154.881C152.288 155.093 152.046 155.262 151.778 155.377C151.51 155.493 151.221 155.552 150.929 155.552Z" fill="#E6E6E6"/>
<path d="M291.685 466.213C251.272 466.213 204.828 421.366 163.736 442.674C39.3211 507.188 56.4475 399.234 20.7041 359.085L21.8776 356.731C61.3163 392.095 110.557 420.867 164.276 439.936C212.822 457.171 261.731 465.156 305.7 463.049L305.776 465.878C301.133 466.102 296.436 466.213 291.685 466.213Z" fill="#F2F2F2"/>
<path d="M236.249 163.003C240.914 163.003 244.696 157.932 244.696 151.676C244.696 145.42 240.914 140.348 236.249 140.348C231.584 140.348 227.802 145.42 227.802 151.676C227.802 157.932 231.584 163.003 236.249 163.003Z" fill="#E6E6E6"/>
<path d="M333.816 339.713C329.954 342.286 326.001 336.162 329.937 333.703C333.799 331.13 337.752 337.254 333.816 339.713Z" fill="#E6E6E6"/>
<path d="M311.586 133.53C317.661 133.53 322.586 128.605 322.586 122.53C322.586 116.455 317.661 111.53 311.586 111.53C305.511 111.53 300.586 116.455 300.586 122.53C300.586 128.605 305.511 133.53 311.586 133.53Z" fill="#003DA5"/>
<path opacity="0.3" d="M350.061 182.809L412.654 0L343.923 180.621C343.583 181.049 343.35 181.553 343.243 182.09C343.137 182.626 343.16 183.181 343.311 183.707C343.461 184.233 343.735 184.715 344.11 185.114C344.484 185.513 344.948 185.817 345.464 186.001C345.979 186.184 346.531 186.243 347.073 186.171C347.615 186.098 348.133 185.898 348.582 185.586C349.032 185.274 349.4 184.859 349.657 184.376C349.914 183.893 350.053 183.356 350.061 182.809Z" fill="#F0F0F0"/>
<path d="M286.88 405.524C292.791 405.524 297.582 400.732 297.582 394.821C297.582 388.911 292.791 384.119 286.88 384.119C280.969 384.119 276.178 388.911 276.178 394.821C276.178 400.732 280.969 405.524 286.88 405.524Z" fill="#F2F2F2"/>
<path d="M183.226 398.904C183.226 398.904 156.545 416.277 163.6 427.822C163.844 428.22 131.73 470.633 131.73 470.633L71.1085 466.784L68.9727 487.075L122.943 502.706C122.943 502.706 136.146 512.406 146.346 501.718C156.545 491.031 190.52 458.303 190.52 458.303L192.158 524.38L175.103 615.942L200.568 614.328L225.354 522.467L234.503 418.413L183.226 398.904Z" fill="#2F2E41"/>
<path d="M202.23 294.635L191.01 303.138L178.222 330.431L190.519 347.132C190.519 347.132 200.863 365.059 184.306 382.419C167.749 399.78 155.035 418.322 168.287 417.66C181.539 416.998 235.212 444.298 235.565 421.932C235.919 399.567 236.633 382.419 236.633 382.419L250.705 346.728C250.705 346.728 259.089 325.437 253.203 319.063C247.317 312.69 239.436 304.546 239.436 304.546L225.104 290.214H212.163L202.23 294.635Z" fill="#FFC928"/>
<path d="M223.175 242.194C248.345 256.517 227.682 294.308 202.042 280.851C176.872 266.528 197.536 228.737 223.175 242.194Z" fill="#A0616A"/>
<path d="M236.634 250.135C234.87 252.429 231.185 251.354 223.97 252.99C223.985 250.545 223.703 248.106 223.128 245.728C222.591 248.672 221.415 251.462 219.681 253.901C213.416 254.596 221.097 273.631 217.889 287.626C213.755 258.101 205.061 265.836 209.453 271.692C212.265 275.441 210.39 286.689 201.955 281.065C188.037 287.68 168.214 254.822 190.184 239.412C189.791 231.082 199.06 229.766 204.767 232.327C218.617 222.009 234.442 235.23 236.634 250.135Z" fill="#2F2E41"/>
<path d="M172.052 228.591C166.448 263.046 136.412 222.255 122.289 256.162C117.849 268.441 125.467 277.225 130.286 287.417C131.386 295.793 120.49 300.042 119.348 307.752C119.031 325.429 147.548 324.347 155.521 313.195C163.712 301.521 153.93 285.857 158.854 273.326C165.774 255.929 193.918 255.8 196.369 235.559C191.621 228.798 178.853 221.053 172.052 228.591Z" fill="#2F2E41"/>
<path d="M194.753 231.958C194.57 232.035 194.386 232.112 194.222 232.199H194.213C194.058 232.276 193.904 232.354 193.75 232.44C193.73 232.45 193.721 232.46 193.701 232.469C193.499 232.276 193.296 232.083 193.084 231.89C193.029 232.205 193.042 232.527 193.122 232.836L193.151 232.952C193.344 233.154 193.547 233.347 193.759 233.55C193.952 233.405 194.136 233.251 194.328 233.106C194.444 233.01 194.56 232.913 194.686 232.817C194.705 232.566 194.734 232.276 194.763 231.958L194.753 231.958ZM200.562 221.228C196.258 220.244 194.869 225.87 194.454 228.581C192.891 218.739 186.387 221.836 188.636 228.552C189.352 230.54 190.48 232.355 191.945 233.878C192.148 234.11 192.37 234.341 192.601 234.573C192.341 235.924 193.653 235.576 195.428 234.332C196.739 233.399 197.952 232.336 199.047 231.157C202.588 227.442 205.347 222.473 200.562 221.228ZM200.697 226.767C199.369 228.479 197.879 230.059 196.249 231.485C195.737 231.948 195.216 232.392 194.686 232.817C194.676 232.903 194.676 232.981 194.666 233.048C194.629 233.142 194.584 233.232 194.531 233.318C193.991 234.293 193.383 233.762 193.151 232.952C193.132 232.923 193.103 232.894 193.084 232.865C192.313 232.068 191.642 231.181 191.086 230.221C187.101 223.313 193.518 218.614 193.2 231.514C193.141 231.632 193.102 231.76 193.084 231.89C193.029 232.205 193.042 232.527 193.122 232.836L193.151 232.952C193.344 233.154 193.547 233.347 193.759 233.55C193.952 233.405 194.136 233.251 194.328 233.106C194.444 233.01 194.56 232.913 194.686 232.817C194.705 232.566 194.734 232.276 194.763 231.958V231.948C195.014 229.362 195.699 224.712 196.963 223.448C199.741 221.315 203.34 223.621 200.697 226.767ZM194.753 231.958C194.57 232.035 194.386 232.112 194.222 232.199H194.213C194.058 232.276 193.904 232.354 193.75 232.44C193.73 232.45 193.721 232.46 193.701 232.469C193.499 232.276 193.296 232.083 193.084 231.89C193.029 232.205 193.042 232.527 193.122 232.836L193.151 232.952C193.344 233.154 193.547 233.347 193.759 233.55C193.952 233.405 194.136 233.251 194.328 233.106C194.444 233.01 194.56 232.913 194.686 232.817C194.705 232.566 194.734 232.276 194.763 231.958L194.753 231.958Z" fill="#2F2E41"/>
<path d="M427.397 421.918L418.101 446.161L374.492 532.181L412.811 632.248L432.587 627.028L416.287 532.181L463.051 475.361L518.587 513.028C518.587 513.028 543.217 532.256 552.587 514.028C561.957 495.8 622.587 457.028 622.587 457.028L607.587 441.028L537.768 473.702L489.579 405.874L427.397 421.918Z" fill="#2F2E41"/>
<path d="M474.302 307.563L459 291.123L432.75 287.511L400.586 310.028L400.91 334.951L416.81 393.68C416.81 393.68 410.754 435.874 427.67 435.451C444.586 435.028 453.806 426.594 460.696 428.311C467.586 430.028 496.874 437.334 498.73 429.681C500.586 422.028 510.452 427.508 510.019 420.268C509.586 413.028 483.31 360.841 483.31 360.841L489.843 308.649L474.302 307.563Z" fill="#FFC928"/>
<path d="M571.194 231.882C571.331 233.246 571.168 234.623 570.715 235.916C570.262 237.21 569.531 238.388 568.574 239.368C567.616 240.349 566.456 241.107 565.173 241.59C563.891 242.074 562.518 242.27 561.152 242.165L525.962 309.092L516.514 294.588L552.483 231.424C552.811 229.14 553.965 227.056 555.727 225.567C557.489 224.077 559.736 223.286 562.042 223.342C564.349 223.399 566.554 224.299 568.241 225.873C569.928 227.447 570.979 229.585 571.194 231.882Z" fill="#FFB6B6"/>
<path d="M460.41 320.007C460.41 320.007 459.014 331.912 472.416 334.859C485.818 337.806 522.949 316.59 529.036 313.35C530.942 312.335 533.528 307.361 536.182 301.007C537.373 298.155 538.578 295.024 539.741 291.849C540.414 290.011 543.637 289.51 544.272 287.687C544.902 285.875 542.945 282.741 543.516 281.033C546.227 272.925 548.148 266.493 548.148 266.493L539.266 249.808C526.842 256.375 520.471 270.842 515.784 287.509L460.41 320.007Z" fill="#FFC928"/>
<path d="M303.89 247.252C304.099 248.606 304.602 249.898 305.364 251.037C306.126 252.176 307.128 253.134 308.3 253.844C309.473 254.553 310.786 254.997 312.149 255.144C313.511 255.291 314.889 255.137 316.186 254.694L367.006 310.684L372.523 294.278L321.891 242.125C321.002 239.996 319.363 238.267 317.284 237.266C315.206 236.265 312.832 236.061 310.613 236.693C308.395 237.325 306.485 238.749 305.245 240.695C304.006 242.641 303.524 244.974 303.89 247.252Z" fill="#FFB6B6"/>
<path d="M433.202 304.848C433.202 304.848 437.533 316.024 425.295 322.232C413.057 328.439 371.798 317.19 365.094 315.576C362.995 315.071 359.246 310.903 355.086 305.415C353.219 302.951 351.269 300.222 349.348 297.439C348.237 295.828 344.991 296.149 343.921 294.543C342.856 292.946 343.967 289.423 342.987 287.912C338.333 280.741 334.863 274.994 334.863 274.994L339.288 256.616C352.959 259.866 362.749 272.278 371.457 287.242L433.202 304.848Z" fill="#FFC928"/>
<path d="M446.399 283.329C460.193 283.329 471.375 272.146 471.375 258.353C471.375 244.559 460.193 233.376 446.399 233.376C432.605 233.376 421.423 244.559 421.423 258.353C421.423 272.146 432.605 283.329 446.399 283.329Z" fill="#FFB6B6"/>
<path d="M474.909 244.052C472.282 239.987 467.352 237.279 462.573 238.04C462.128 234.99 460.855 232.12 458.892 229.743C456.929 227.367 454.352 225.574 451.44 224.56C448.529 223.547 445.396 223.352 442.382 223.996C439.367 224.64 436.587 226.099 434.345 228.213C433.607 227.694 432.748 227.374 431.85 227.284C430.953 227.194 430.047 227.338 429.221 227.701C427.576 228.449 426.145 229.597 425.059 231.042C422.317 234.462 420.553 238.561 419.956 242.904C419.358 247.247 419.95 251.671 421.667 255.705C421.083 253.581 423.211 251.583 425.361 251.107C427.511 250.63 429.767 251.081 431.947 250.771C434.742 250.373 437.254 248.752 440.053 248.387C442.426 248.233 444.807 248.539 447.064 249.288C449.321 250.038 451.699 250.357 454.073 250.23C456.429 249.95 459.464 258.877 459.423 265.165C459.415 266.357 459.661 267.887 460.825 268.14C462.259 268.451 463.09 266.472 464.455 265.933C465.084 265.752 465.759 265.823 466.337 266.13C466.915 266.438 467.351 266.957 467.553 267.58C467.725 268.212 467.743 268.877 467.607 269.518C467.47 270.16 467.182 270.759 466.767 271.267C465.928 272.273 464.932 273.137 463.817 273.825L464.379 274.293C464.913 274.857 465.626 275.218 466.396 275.313C467.167 275.409 467.947 275.234 468.602 274.818C469.891 273.945 470.935 272.756 471.634 271.365C474.269 267.291 476.152 262.778 477.195 258.04C478.075 253.281 477.536 248.116 474.909 244.052Z" fill="#2F2E41"/>
<path d="M659.682 342.559C627.467 366.959 563.366 359.25 543.474 401.046C483.246 527.591 431.72 431.194 378.987 420.769L378.501 418.185C431.291 422.563 487.915 415.769 542.252 398.537C591.356 382.966 635.167 359.801 668.944 331.575L670.713 333.784C667.147 336.766 663.47 339.691 659.682 342.559Z" fill="#F2F2F2"/>
<path d="M523.476 673.996C522.708 676.269 84.6345 676.269 83.8066 674.002C84.573 671.724 522.647 671.724 523.476 673.996Z" fill="#CCCCCC"/>
</g>
<defs>
<clipPath id="clip0_870_454">
<rect width="670.713" height="675.702" fill="white"/>
</clipPath>
</defs>
</svg>
