<svg width="303" height="219" viewBox="0 0 303 219" fill="none" xmlns="http://www.w3.org/2000/svg">
<g clip-path="url(#clip0_233_394)">
<path d="M108.686 126.037C119.07 106.17 138.877 90.9165 159.845 92.386C144.379 110.678 135.36 134.33 134.384 159.158C134.04 168.735 134.574 179.425 128.728 186.596C125.09 191.058 119.529 193.219 114.062 193.672C108.595 194.126 103.129 193.051 97.7346 191.981L96.426 192.418C95.9279 169.573 98.3023 145.903 108.686 126.037Z" fill="#F0F0F0"/>
<path d="M159.876 92.8643C144.371 100.982 131.15 114.54 123.034 131.075C121.279 134.65 119.785 138.443 119.133 142.453C118.482 146.464 118.937 150.283 120.197 154.093C121.349 157.576 122.898 160.994 123.251 164.722C123.623 168.65 122.294 172.324 119.901 175.239C116.974 178.806 113.043 181.016 109.13 183.032C104.785 185.271 100.239 187.522 97.1614 191.7C96.7885 192.206 96.088 191.547 96.4604 191.042C101.815 183.772 110.98 182.406 117.336 176.55C120.301 173.818 122.528 170.097 122.387 165.737C122.265 161.924 120.67 158.398 119.476 154.882C118.222 151.19 117.596 147.478 118.046 143.542C118.506 139.516 119.867 135.652 121.53 132.044C125.28 123.907 130.413 116.437 136.292 109.979C143.05 102.557 150.925 96.4458 159.577 91.9112C160.112 91.6308 160.409 92.5857 159.876 92.8643Z" fill="white"/>
<path d="M125.411 125.549C123.034 123.659 121.352 120.911 120.666 117.797C119.98 114.683 120.334 111.404 121.665 108.548C121.936 107.971 122.773 108.402 122.502 108.979C121.258 111.637 120.928 114.691 121.573 117.59C122.217 120.488 123.793 123.041 126.016 124.787C126.499 125.167 125.891 125.927 125.411 125.549Z" fill="white"/>
<path d="M119.399 152.411C125.355 151.464 130.765 148.111 134.548 143.019C134.923 142.514 135.624 143.173 135.249 143.677C131.303 148.968 125.667 152.445 119.467 153.415C118.876 153.507 118.811 152.502 119.399 152.411V152.411Z" fill="white"/>
<path d="M143.507 103.796C144.287 104.736 145.269 105.45 146.365 105.875C147.461 106.3 148.637 106.423 149.788 106.231C150.377 106.131 150.441 107.136 149.856 107.236C148.584 107.441 147.285 107.304 146.073 106.837C144.861 106.371 143.772 105.588 142.902 104.558C142.813 104.469 142.758 104.345 142.749 104.213C142.74 104.082 142.778 103.951 142.854 103.848C142.935 103.748 143.048 103.686 143.171 103.676C143.293 103.666 143.414 103.709 143.507 103.796Z" fill="white"/>
<path d="M201.565 155.056C201.198 155.13 200.832 155.204 200.462 155.286C195.538 156.307 190.699 157.762 185.992 159.636C185.626 159.774 185.257 159.921 184.896 160.07C173.6 164.716 163.196 171.602 154.212 180.379C150.64 183.875 147.317 187.661 144.274 191.705C140.07 197.291 135.921 203.71 130.428 207.352C129.859 207.739 129.269 208.087 128.66 208.395L97.0175 194.121C96.9606 194.049 96.9003 193.985 96.843 193.913L95.5557 193.406C95.6993 193.185 95.8525 192.96 95.9961 192.74C96.079 192.611 96.1688 192.486 96.2516 192.358C96.309 192.273 96.3668 192.189 96.4142 192.109C96.4332 192.081 96.4526 192.053 96.4687 192.032C96.5161 191.953 96.5679 191.884 96.6123 191.812C97.4659 190.55 98.3291 189.292 99.202 188.039C99.205 188.031 99.205 188.031 99.2151 188.026C105.889 178.494 113.352 169.483 121.836 161.992C122.092 161.766 122.35 161.533 122.619 161.314C126.461 157.96 130.548 154.953 134.84 152.324C137.194 150.892 139.613 149.591 142.089 148.425C148.49 145.427 155.285 143.542 162.225 142.84C176.059 141.443 190.15 144.873 200.761 154.325C201.032 154.567 201.297 154.806 201.565 155.056Z" fill="#F0F0F0"/>
<path d="M201.327 155.461C184.453 151.79 166.391 153.958 150.757 161.846C147.377 163.551 144.085 165.601 141.345 168.376C138.603 171.152 136.853 174.499 135.749 178.367C134.741 181.902 134.085 185.645 132.304 188.852C130.427 192.233 127.332 194.296 123.808 195.057C119.496 195.988 115.133 195.179 110.893 194.226C106.184 193.169 101.309 191.989 96.5386 193.31C95.9606 193.47 95.7661 192.485 96.3432 192.325C104.643 190.027 112.717 194.938 121.033 194.424C124.914 194.184 128.751 192.671 131.053 189.098C133.065 185.973 133.744 182.114 134.737 178.524C135.78 174.756 137.335 171.382 139.873 168.534C142.469 165.62 145.695 163.426 149.02 161.634C156.519 157.593 164.752 154.99 173.022 153.683C182.526 152.182 192.197 152.459 201.615 154.504C202.198 154.63 201.906 155.587 201.327 155.461V155.461Z" fill="white"/>
<path d="M155.714 158.99C154.863 155.925 155.041 152.629 156.217 149.693C157.394 146.757 159.491 144.372 162.135 142.962C162.671 142.679 163.101 143.572 162.564 143.855C160.1 145.163 158.146 147.385 157.056 150.122C155.966 152.858 155.811 155.928 156.62 158.778C156.795 159.397 155.888 159.606 155.714 158.99Z" fill="white"/>
<path d="M136.044 176.501C141.324 179.645 147.499 180.51 153.339 178.922C153.918 178.764 154.112 179.749 153.535 179.907C147.455 181.546 141.03 180.632 135.542 177.347C135.019 177.034 135.524 176.189 136.044 176.501Z" fill="white"/>
<path d="M182.205 153.471C182.308 154.731 182.696 155.945 183.336 157.002C183.976 158.059 184.848 158.927 185.872 159.528C186.398 159.834 185.893 160.678 185.37 160.374C184.241 159.705 183.28 158.745 182.57 157.579C181.861 156.413 181.425 155.075 181.3 153.683C181.278 153.553 181.303 153.419 181.369 153.308C181.435 153.196 181.537 153.117 181.655 153.085C181.775 153.057 181.9 153.082 182.003 153.155C182.106 153.227 182.179 153.34 182.205 153.471Z" fill="white"/>
<path d="M141.288 178.606C136.857 155.303 131.318 147.533 131.318 147.533L129.201 145.749L126.657 143.599L126.669 143.322L126.065 143.099L125.923 142.979L125.691 142.785L125.654 142.829L125.575 142.918L114.059 138.661L99.4495 133.264L92.6843 123.7C91.5825 122.142 90.164 120.884 88.54 120.022C86.9159 119.161 85.1305 118.72 83.3236 118.734L61.7178 118.908C58.7964 118.932 55.9888 120.143 53.847 122.304L39.6458 136.63L17.5176 148.124L17.4802 148.083L17.2479 148.264L13.8289 150.042L13.97 150.84L11.8538 152.501C11.8538 152.501 6.31452 159.73 1.88307 181.414C0.755757 186.931 0.200853 198.766 0.000562858 213.351C-0.00949771 214.088 0.1154 214.821 0.367989 215.506C0.620579 216.191 0.995824 216.814 1.4719 217.34C1.94799 217.865 2.5154 218.283 3.14117 218.568C3.76693 218.853 4.43855 219 5.11698 219H123.308V219H138.06C138.738 219 139.409 218.853 140.034 218.568C140.66 218.283 141.227 217.866 141.703 217.341C142.179 216.816 142.554 216.194 142.807 215.51C143.06 214.826 143.185 214.094 143.176 213.356C142.981 197.487 142.426 184.589 141.288 178.606Z" fill="#3F3D56"/>
<path d="M156.453 20.3224C151.854 20.3224 147.444 22.309 144.193 25.8453C140.941 29.3816 139.115 34.1778 139.115 39.1788C139.115 44.1799 140.941 48.9761 144.193 52.5123C147.444 56.0486 151.854 58.0353 156.453 58.0353H285.662C290.26 58.0353 294.67 56.0486 297.922 52.5123C301.173 48.9761 303 44.1799 303 39.1788C303 34.1778 301.173 29.3816 297.922 25.8453C294.67 22.309 290.26 20.3224 285.662 20.3224H156.453Z" fill="#E5E5E5"/>
<path d="M156.453 24.1385C152.785 24.1385 149.267 25.7231 146.674 28.5437C144.081 31.3643 142.624 35.1899 142.624 39.1788C142.624 43.1677 144.081 46.9933 146.674 49.8139C149.267 52.6345 152.785 54.2191 156.453 54.2191H285.662C289.33 54.2191 292.847 52.6345 295.441 49.8139C298.034 46.9933 299.491 43.1677 299.491 39.1788C299.491 35.1899 298.034 31.3643 295.441 28.5437C292.847 25.7231 289.33 24.1385 285.662 24.1385H156.453Z" fill="white"/>
<path d="M75.9137 109.907C91.5465 109.907 104.219 96.1239 104.219 79.1219C104.219 62.12 91.5465 48.3372 75.9137 48.3372C60.2808 48.3372 47.6079 62.12 47.6079 79.1219C47.6079 96.1239 60.2808 109.907 75.9137 109.907Z" fill="#9E616A"/>
<path d="M68.6723 108.399C68.5514 108.11 68.4308 107.819 68.3105 107.528C68.3569 107.529 68.4028 107.536 68.4491 107.538L68.6723 108.399Z" fill="#2F2E41"/>
<path d="M46.8207 49.7371C48.2523 48.4951 49.9255 47.3522 51.7559 47.4165C53.5863 47.4806 55.4424 49.2785 55.0632 51.2271C58.4252 44.753 63.7765 39.7737 70.1778 37.1632C76.5791 34.5526 83.6214 34.4777 90.0684 36.9515C94.6177 38.6971 99.0789 42.1892 100.124 47.3112C100.392 48.626 100.45 50.0677 101.205 51.1354C102.156 52.4815 103.977 52.786 105.477 52.3125C105.492 52.3077 105.507 52.3029 105.522 52.2981C105.775 52.204 106.048 52.1948 106.307 52.2715C106.565 52.3483 106.796 52.5076 106.97 52.7287C107.144 52.9499 107.253 53.2227 107.283 53.512C107.313 53.8013 107.262 54.0937 107.138 54.3514L105.85 56.9622C107.473 57.3556 109.159 57.3166 110.765 56.8486C111.032 56.7725 111.313 56.788 111.572 56.893C111.83 56.998 112.052 57.1874 112.208 57.4351C112.363 57.6829 112.444 57.9769 112.44 58.2767C112.436 58.5766 112.346 58.8677 112.184 59.1101C107.939 65.4478 100.848 69.5403 93.6122 69.4922C88.4692 69.4581 83.2732 67.5303 78.2679 68.8166C76.3315 69.3142 74.5222 70.277 72.9726 71.6343C71.423 72.9916 70.1724 74.7091 69.3127 76.6606C68.453 78.6121 68.0059 80.7481 68.0042 82.9121C68.0026 85.076 68.4464 87.2129 69.3032 89.166C67.7655 87.3368 64.7931 87.7699 63.2201 89.5633C61.6473 91.3568 61.2401 94.0336 61.3986 96.5061C61.6409 100.288 63.0032 103.851 64.4394 107.319C52.3985 106.907 41.0097 97.7204 37.1762 85.2957C33.3267 72.819 37.3611 57.9441 46.8207 49.7371Z" fill="#2F2E41"/>
<path opacity="0.2" d="M27.8604 171.571L35.7995 218.549L40.5631 219L27.8604 171.571Z" fill="black"/>
<path opacity="0.2" d="M115.311 168.028L107.372 218.515L102.608 219L115.311 168.028Z" fill="black"/>
<path d="M53.5924 33.9266C52.0702 34.6179 50.4818 33.8603 49.8157 32.1253C49.1394 30.3638 49.7711 28.5756 51.3177 27.8733C52.8644 27.1708 54.4245 27.9303 55.1117 29.7202C55.7887 31.4833 55.1639 33.213 53.5924 33.9266ZM50.6765 24.406L49.4662 24.9557C49.1638 25.0914 48.8256 25.0987 48.5185 24.9762C48.2115 24.8537 47.9578 24.6103 47.8078 24.2942L47.748 24.1668C46.4457 21.6125 46.2966 18.508 47.3071 14.9445C48.2433 11.7479 48.6321 9.49977 47.8502 7.46305C46.9461 5.10822 45.0154 4.37057 42.5535 5.43914C41.5986 5.87278 41.2948 5.86587 40.5433 6.67658C40.3799 6.85508 40.185 6.99595 39.9704 7.09079C39.7559 7.18563 39.5259 7.2325 39.2943 7.2286C39.0704 7.22573 38.8493 7.17386 38.6443 7.07607C38.4392 6.97828 38.2543 6.83658 38.1007 6.65942C37.8047 6.318 37.6389 5.86715 37.6367 5.39792C37.6346 4.9287 37.7962 4.47605 38.089 4.1314C39.352 2.69345 40.8754 1.55585 42.563 0.790387C47.8527 -1.61186 50.5156 1.93471 51.7342 5.10856C52.9261 8.21295 52.2556 11.0933 51.1783 14.8236C50.2755 17.9233 50.3281 20.2202 51.3536 22.5039C51.4277 22.6766 51.4688 22.8637 51.4747 23.0541C51.4806 23.2445 51.451 23.4342 51.3878 23.6119C51.3245 23.7896 51.2289 23.9515 51.1067 24.0879C50.9845 24.2244 50.8382 24.3326 50.6765 24.406L50.6765 24.406Z" fill="#F9A826"/>
<path d="M184.993 48.1721H159.286C159.204 48.1727 159.123 48.1557 159.047 48.1222C158.972 48.0886 158.903 48.0391 158.845 47.9765C158.787 47.9139 158.741 47.8394 158.71 47.7574C158.678 47.6754 158.662 47.5875 158.662 47.4986C158.662 47.4098 158.678 47.3219 158.71 47.2399C158.741 47.1579 158.787 47.0834 158.845 47.0208C158.903 46.9582 158.972 46.9087 159.047 46.8752C159.123 46.8416 159.204 46.8246 159.286 46.8252H184.993C185.157 46.8264 185.313 46.8979 185.429 47.0241C185.544 47.1502 185.608 47.3208 185.608 47.4986C185.608 47.6765 185.544 47.8471 185.429 47.9732C185.313 48.0994 185.157 48.1709 184.993 48.1721Z" fill="#F9A826"/>
<path d="M217.605 48.3965H191.897C191.816 48.3971 191.735 48.3801 191.659 48.3465C191.583 48.313 191.515 48.2634 191.457 48.2008C191.399 48.1383 191.353 48.0638 191.321 47.9818C191.29 47.8998 191.274 47.8119 191.274 47.723C191.274 47.6342 191.29 47.5462 191.321 47.4642C191.353 47.3822 191.399 47.3078 191.457 47.2452C191.515 47.1826 191.583 47.1331 191.659 47.0995C191.735 47.0659 191.816 47.049 191.897 47.0496H217.605C217.687 47.049 217.768 47.0659 217.843 47.0995C217.919 47.1331 217.988 47.1826 218.046 47.2452C218.104 47.3078 218.15 47.3822 218.181 47.4642C218.213 47.5462 218.229 47.6342 218.229 47.723C218.229 47.8119 218.213 47.8998 218.181 47.9818C218.15 48.0638 218.104 48.1383 218.046 48.2008C217.988 48.2634 217.919 48.313 217.843 48.3465C217.768 48.3801 217.687 48.3971 217.605 48.3965Z" fill="#F9A826"/>
<path d="M250.217 48.621H224.51C224.346 48.6197 224.19 48.5483 224.074 48.4221C223.959 48.2959 223.895 48.1253 223.895 47.9475C223.895 47.7697 223.959 47.5991 224.074 47.4729C224.19 47.3468 224.346 47.2753 224.51 47.2741H250.217C250.299 47.2735 250.38 47.2904 250.456 47.324C250.531 47.3576 250.6 47.4071 250.658 47.4697C250.716 47.5323 250.762 47.6067 250.793 47.6887C250.825 47.7707 250.841 47.8587 250.841 47.9475C250.841 48.0363 250.825 48.1243 250.793 48.2063C250.762 48.2883 250.716 48.3627 250.658 48.4253C250.6 48.4879 250.531 48.5374 250.456 48.571C250.38 48.6046 250.299 48.6216 250.217 48.621H250.217Z" fill="#F9A826"/>
<path d="M282.829 48.8454H257.121C256.958 48.8442 256.801 48.7727 256.686 48.6466C256.571 48.5204 256.506 48.3498 256.506 48.172C256.506 47.9942 256.571 47.8236 256.686 47.6974C256.801 47.5712 256.958 47.4997 257.121 47.4985H282.829C282.993 47.4997 283.149 47.5712 283.264 47.6974C283.38 47.8236 283.444 47.9942 283.444 48.172C283.444 48.3498 283.38 48.5204 283.264 48.6466C283.149 48.7727 282.993 48.8442 282.829 48.8454Z" fill="#F9A826"/>
<path d="M172.083 41.9742C174.721 41.9742 176.861 39.6477 176.861 36.7777C176.861 33.9078 174.721 31.5813 172.083 31.5813C169.444 31.5813 167.305 33.9078 167.305 36.7777C167.305 39.6477 169.444 41.9742 172.083 41.9742Z" fill="#F9A826"/>
<path d="M204.892 41.9742C207.531 41.9742 209.67 39.6477 209.67 36.7777C209.67 33.9078 207.531 31.5813 204.892 31.5813C202.253 31.5813 200.114 33.9078 200.114 36.7777C200.114 39.6477 202.253 41.9742 204.892 41.9742Z" fill="#F9A826"/>
<path d="M237.701 41.9742C240.34 41.9742 242.479 39.6477 242.479 36.7777C242.479 33.9078 240.34 31.5813 237.701 31.5813C235.062 31.5813 232.923 33.9078 232.923 36.7777C232.923 39.6477 235.062 41.9742 237.701 41.9742Z" fill="#F9A826"/>
<path d="M270.509 41.9742C273.148 41.9742 275.287 39.6477 275.287 36.7777C275.287 33.9078 273.148 31.5813 270.509 31.5813C267.871 31.5813 265.731 33.9078 265.731 36.7777C265.731 39.6477 267.871 41.9742 270.509 41.9742Z" fill="#F9A826"/>
</g>
<defs>
<clipPath id="clip0_233_394">
<rect width="303" height="219" fill="white"/>
</clipPath>
</defs>
</svg>
