<svg
                width="200"
                height="100"
                viewBox="0 0 722 198"
                fill="none"
                xmlns="http://www.w3.org/2000/svg"
                className="pt-10"
              >
                <path
                  d="M98.7538 197.508C153.294 197.508 197.508 153.294 197.508 98.7538C197.508 44.2136 153.294 0 98.7538 0C44.2136 0 0 44.2136 0 98.7538C0 153.294 44.2136 197.508 98.7538 197.508Z"
                  fill="#FFC928"
                />
                <path
                  d="M361 197.508C415.54 197.508 459.754 153.294 459.754 98.7538C459.754 44.2136 415.54 0 361 0C306.46 0 262.246 44.2136 262.246 98.7538C262.246 153.294 306.46 197.508 361 197.508Z"
                  fill="#E4E4E4"
                />
                <path
                  d="M361 181.049C406.45 181.049 443.295 144.204 443.295 98.7538C443.295 53.3036 406.45 16.459 361 16.459C315.55 16.459 278.705 53.3036 278.705 98.7538C278.705 144.204 315.55 181.049 361 181.049Z"
                  fill="white"
                />
                <path
                  d="M623.246 197.508C677.786 197.508 722 153.294 722 98.7538C722 44.2136 677.786 0 623.246 0C568.706 0 524.492 44.2136 524.492 98.7538C524.492 153.294 568.706 197.508 623.246 197.508Z"
                  fill="#E4E4E4"
                />
                <path
                  d="M623.246 181.049C668.696 181.049 705.541 144.204 705.541 98.7538C705.541 53.3036 668.696 16.459 623.246 16.459C577.796 16.459 540.951 53.3036 540.951 98.7538C540.951 144.204 577.796 181.049 623.246 181.049Z"
                  fill="white"
                />
                <path
                  d="M91.7611 128.514C91.614 128.514 91.4667 128.51 91.3192 128.503C90.0177 128.44 88.7452 128.097 87.5889 127.496C86.4326 126.895 85.4199 126.051 84.6204 125.022L71.9967 108.792C70.5268 106.898 69.8683 104.498 70.1656 102.118C70.4629 99.7393 71.6918 97.5752 73.5826 96.101L74.0367 95.7474C75.9312 94.2776 78.3312 93.6192 80.7105 93.9165C83.0898 94.2138 85.254 95.4426 86.7285 97.3334C87.44 98.2482 88.3407 98.9985 89.369 99.5329C90.3974 100.067 91.5291 100.373 92.6866 100.43C93.8441 100.486 95.0002 100.292 96.0757 99.8598C97.1511 99.428 98.1205 98.7689 98.9176 97.9276L124.55 70.87C125.367 70.0078 126.346 69.3149 127.43 68.8309C128.515 68.3469 129.684 68.0813 130.871 68.0492C132.059 68.0171 133.241 68.2192 134.35 68.644C135.459 69.0688 136.474 69.7079 137.336 70.5248L137.754 70.9213C139.495 72.5709 140.51 74.8445 140.574 77.2421C140.639 79.6397 139.749 81.9648 138.099 83.7059L98.3245 125.689C97.48 126.582 96.4624 127.292 95.3339 127.778C94.2054 128.264 92.9897 128.514 91.7611 128.514V128.514Z"
                  fill="white"
                />
              </svg>