<svg width="26" height="19" viewBox="0 0 26 19" fill="none" xmlns="http://www.w3.org/2000/svg">
<g clip-path="url(#clip0_222_64)">
<path d="M11.69 0.720173L11.7618 13.1678L8.73251 10.976C8.5625 10.8529 8.3364 10.7904 8.11067 10.7917C7.88494 10.793 7.65958 10.8582 7.491 10.9831C7.14873 11.2368 7.15109 11.6464 7.49627 11.8961L12.0351 15.1801C12.3648 15.4187 12.9497 15.4153 13.2817 15.1729L17.7824 11.8367C18.1246 11.583 18.1223 11.1735 17.7771 10.9237C17.4319 10.674 16.8727 10.6772 16.5304 10.9309L13.5266 13.1576L13.4548 0.71374C13.4527 0.356806 13.056 0.0697821 12.5738 0.0725665C12.0762 0.0754398 11.6879 0.363238 11.69 0.720173Z" fill="#000611"/>
<path d="M23.8039 17.7761L23.7823 14.0302C23.7802 13.6732 23.3835 13.3862 22.9013 13.389C22.4139 13.3918 22.0206 13.6834 22.0226 14.0403L22.0405 17.14L3.28957 17.2483L3.27165 14.1448C3.26959 13.7879 2.87289 13.5009 2.39065 13.5037C1.90841 13.5065 1.51505 13.798 1.51711 14.155L1.53876 17.9047C1.54082 18.2616 1.9375 18.5449 2.41974 18.5421L22.9252 18.4237C23.4126 18.4209 23.806 18.133 23.8039 17.7761Z" fill="#000611"/>
</g>
<defs>
<clipPath id="clip0_222_64">
<rect width="25.1385" height="18.4106" fill="white" transform="translate(25.2441 18.4103) rotate(179.669)"/>
</clipPath>
</defs>
</svg>
