<svg width="690" height="449" viewBox="0 0 690 449" fill="none" xmlns="http://www.w3.org/2000/svg">
<g clip-path="url(#clip0_835_222)">
<path d="M211.813 420.111C216.481 410.027 221.146 399.794 223.172 388.869C225.199 377.943 224.348 366.086 218.545 356.609C212.743 347.133 201.317 340.707 190.414 342.849C181.459 344.609 174.268 351.662 170.057 359.759C165.847 367.856 164.158 376.989 162.52 385.968C161.991 375.767 161.43 365.403 158.042 355.768C154.654 346.132 147.982 337.153 138.473 333.425C128.964 329.696 116.594 332.628 111.582 341.528C104.521 354.066 113.884 371.653 105.765 383.534C104.372 371.617 91.91 362.201 80.0659 364.118C68.2218 366.034 59.3648 378.899 61.8013 390.647C63.2511 397.638 68.0206 403.584 73.7229 407.879C79.4251 412.175 86.0571 417.154 92.6177 419.969L211.813 420.111Z" fill="#F2F2F2"/>
<path d="M68.0199 372.537C77.4282 375.826 86.9229 379.152 95.5122 384.293C103.21 388.901 110.065 395.105 114.395 403.05C116.767 407.312 118.175 412.043 118.52 416.908C118.583 417.926 120.175 417.933 120.112 416.908C119.555 407.847 115.14 399.555 109.025 392.998C102.321 385.808 93.6334 380.897 84.6639 377.087C79.3457 374.828 73.8953 372.908 68.4431 371.003C67.4742 370.664 67.0577 372.201 68.0199 372.537Z" fill="white"/>
<path d="M122.287 335.005C128.068 344.634 132.696 354.91 136.078 365.62C139.467 376.327 141.602 387.39 142.439 398.589C142.903 404.857 142.954 411.15 142.591 417.425C142.532 418.449 144.124 418.445 144.183 417.425C144.825 406.111 144.14 394.76 142.142 383.605C140.148 372.451 136.87 361.565 132.373 351.165C129.849 345.323 126.939 339.656 123.662 334.201C123.551 334.027 123.378 333.902 123.177 333.853C122.976 333.804 122.765 333.835 122.586 333.939C122.408 334.043 122.277 334.213 122.222 334.411C122.166 334.61 122.189 334.823 122.287 335.005Z" fill="white"/>
<path d="M200.188 344.147C192.012 362.518 186.258 381.873 183.072 401.726C182.177 407.302 181.484 412.906 180.994 418.538C180.905 419.558 182.497 419.552 182.585 418.538C184.319 398.729 188.6 379.226 195.323 360.512C197.213 355.251 199.292 350.064 201.563 344.951C201.975 344.023 200.604 343.212 200.188 344.147Z" fill="white"/>
<path d="M482.474 441.792L482.346 431.91L435.761 432.513L435.889 442.394L482.474 441.792Z" fill="#E6E6E6"/>
<path d="M499.026 443.996L492.374 443.977L488.261 436.64L492.706 429.327L498.888 429.345C497.34 427.376 495.214 425.941 492.809 425.24C490.404 424.54 487.841 424.61 485.477 425.44C483.114 426.27 481.07 427.819 479.632 429.87C478.193 431.92 477.432 434.37 477.456 436.874C477.48 439.379 478.287 441.814 479.764 443.836C481.241 445.859 483.314 447.369 485.693 448.155C488.071 448.94 490.636 448.961 493.027 448.215C495.418 447.47 497.516 445.994 499.026 443.996Z" fill="#E6E6E6"/>
<path d="M419.208 443.996L425.861 443.977L429.974 436.64L425.529 429.327L419.347 429.345C420.895 427.376 423.021 425.941 425.426 425.24C427.831 424.54 430.394 424.61 432.758 425.44C435.121 426.27 437.165 427.819 438.603 429.87C440.042 431.92 440.803 434.37 440.779 436.874C440.755 439.379 439.948 441.814 438.471 443.836C436.994 445.859 434.921 447.369 432.542 448.155C430.164 448.94 427.599 448.961 425.208 448.215C422.817 447.47 420.719 445.994 419.208 443.996Z" fill="#E6E6E6"/>
<path d="M689 420.969H1C0.734784 420.969 0.480429 420.863 0.292892 420.676C0.105356 420.488 0 420.234 0 419.969C0 419.704 0.105356 419.449 0.292892 419.262C0.480429 419.074 0.734784 418.969 1 418.969H689C689.265 418.969 689.52 419.074 689.707 419.262C689.895 419.449 690 419.704 690 419.969C690 420.234 689.895 420.488 689.707 420.676C689.52 420.863 689.265 420.969 689 420.969Z" fill="#3F3D56"/>
<path d="M540.486 230.969C558.712 230.969 573.486 216.194 573.486 197.969C573.486 179.743 558.712 164.969 540.486 164.969C522.261 164.969 507.486 179.743 507.486 197.969C507.486 216.194 522.261 230.969 540.486 230.969Z" fill="#2F2E41"/>
<path d="M553.859 383.226L556.401 395.219L603.871 391.124L600.12 373.423L553.859 383.226Z" fill="#FFB8B8"/>
<path d="M550.166 420.71L542.178 383.016L556.741 379.93L561.643 403.06C562.461 406.923 561.712 410.952 559.56 414.262C557.407 417.572 554.028 419.891 550.166 420.71Z" fill="#2F2E41"/>
<path d="M524.12 382.586L518.777 393.621L473.673 378.264L481.559 361.979L524.12 382.586Z" fill="#FFB8B8"/>
<path d="M511.808 399.976L522.112 378.695L535.511 385.183L518.72 419.863C516.96 419.011 515.386 417.82 514.086 416.36C512.786 414.899 511.787 413.197 511.145 411.351C510.504 409.504 510.232 407.549 510.346 405.597C510.459 403.646 510.956 401.736 511.808 399.976Z" fill="#2F2E41"/>
<path d="M435.259 360.793C436.803 361.081 438.392 361.026 439.912 360.633C441.433 360.241 442.849 359.519 444.06 358.52C445.272 357.521 446.25 356.268 446.925 354.85C447.6 353.432 447.956 351.884 447.968 350.313L522.342 281.742L503.872 267.437L436.535 339.38C433.895 339.535 431.404 340.653 429.533 342.522C427.663 344.391 426.543 346.881 426.386 349.52C426.229 352.16 427.045 354.765 428.681 356.843C430.316 358.92 432.657 360.326 435.259 360.793Z" fill="#FFB8B8"/>
<path d="M536.344 232.459C549.909 232.459 560.905 221.463 560.905 207.898C560.905 194.333 549.909 183.337 536.344 183.337C522.78 183.337 511.783 194.333 511.783 207.898C511.783 221.463 522.78 232.459 536.344 232.459Z" fill="#FFB8B8"/>
<path d="M558.386 352.273C541.158 352.274 520.408 348.645 507.608 333.796L507.319 333.462L507.616 333.134C507.713 333.027 517.13 322.265 507.727 303.073L494.799 307.05L481.929 290.061L489.058 268.672L518.236 245.168C522.417 241.819 527.506 239.802 532.846 239.379C542.511 238.445 551.925 235.764 560.631 231.466C564.615 229.531 569.003 228.571 573.431 228.668L574.005 228.684C575.351 228.722 576.676 229.033 577.899 229.598C579.122 230.163 580.217 230.971 581.119 231.972C582.02 232.973 582.709 234.147 583.143 235.423C583.578 236.698 583.748 238.048 583.645 239.391C581.667 265.021 578.173 326.935 588.437 348.253L588.702 348.803L588.11 348.954C578.354 351.149 568.386 352.262 558.386 352.273Z" fill="#F9A826"/>
<path d="M510.986 333.469C510.986 333.469 445.986 327.469 438.986 346.469C431.986 365.469 439.986 374.469 451.986 378.469C463.986 382.469 492.986 387.469 492.986 387.469L505.986 371.469L539.986 373.469C539.986 373.469 577.871 395.443 588.346 418.943C590.593 424.029 594.177 428.411 598.716 431.622C603.255 434.834 608.579 436.755 614.123 437.182C622.521 437.766 629.986 434.594 629.986 421.469C629.986 391.469 587.986 348.469 587.986 348.469L510.986 333.469Z" fill="#2F2E41"/>
<path d="M461.486 362.97C461.486 362.97 478.486 357.97 505.486 370.97Z" fill="#2F2E41"/>
<path d="M511.843 192.235C521.435 198.091 532.248 201.654 543.442 202.647L540.111 198.656C542.536 199.553 545.088 200.06 547.672 200.158C548.966 200.195 550.25 199.929 551.422 199.38C552.595 198.832 553.622 198.016 554.422 196.998C555.075 195.942 555.463 194.743 555.553 193.504C555.643 192.265 555.432 191.023 554.937 189.884C553.922 187.61 552.342 185.635 550.348 184.145C546.813 181.349 542.641 179.47 538.204 178.677C533.767 177.884 529.202 178.201 524.917 179.6C521.978 180.478 519.346 182.167 517.322 184.472C516.327 185.633 515.636 187.024 515.311 188.518C514.986 190.012 515.037 191.564 515.459 193.033" fill="#2F2E41"/>
<path d="M540.309 172.604C544.673 162.471 551.206 153.418 559.446 146.083C564.738 141.38 570.918 137.339 577.892 136.12C584.866 134.9 592.725 136.99 597.003 142.631C600.501 147.244 601.155 153.424 600.77 159.2C600.384 164.976 599.093 170.696 599.217 176.484C599.343 182.39 600.942 188.17 603.869 193.301C606.796 198.432 610.958 202.75 615.977 205.865C620.996 208.979 626.714 210.79 632.61 211.134C638.507 211.479 644.397 210.345 649.744 207.835C643.722 211.164 639.03 216.433 633.439 220.443C627.848 224.454 620.476 227.203 614.127 224.553C607.409 221.75 604.327 214.134 601.921 207.264L591.189 176.624C589.365 171.416 587.45 166.053 583.727 161.979C580.004 157.905 573.962 155.422 568.838 157.47C564.954 159.022 562.425 162.728 560.207 166.274C557.99 169.82 555.65 173.594 551.904 175.453C548.157 177.313 542.605 176.168 541.381 172.169" fill="#2F2E41"/>
<path d="M539.625 321.192L532.729 328.27L566.095 360.783L572.992 353.706L539.625 321.192Z" fill="#E6E6E6"/>
<path d="M566.51 354.289C565.146 355.689 564.228 357.462 563.871 359.384C563.515 361.305 563.736 363.29 564.507 365.086C565.279 366.882 566.565 368.409 568.204 369.473C569.843 370.538 571.761 371.093 573.716 371.068C575.67 371.042 577.573 370.438 579.184 369.331C580.795 368.224 582.042 366.665 582.766 364.849C583.491 363.034 583.661 361.045 583.255 359.133C582.849 357.221 581.885 355.472 580.485 354.108C578.608 352.279 576.081 351.271 573.46 351.305C570.839 351.338 568.339 352.412 566.51 354.289ZM576.621 364.142C576.037 364.742 575.287 365.155 574.468 365.329C573.649 365.503 572.796 365.43 572.018 365.12C571.24 364.809 570.572 364.275 570.097 363.584C569.623 362.894 569.364 362.078 569.353 361.241C569.342 360.403 569.58 359.581 570.036 358.879C570.493 358.176 571.147 357.625 571.917 357.294C572.686 356.964 573.537 356.869 574.36 357.022C575.184 357.175 575.944 357.568 576.544 358.153C577.348 358.937 577.808 360.008 577.823 361.131C577.837 362.254 577.405 363.337 576.621 364.142Z" fill="#E6E6E6"/>
<path d="M529.479 307.929L534.17 312.647L531.89 320.743L523.576 322.77L519.218 318.387C518.92 320.874 519.408 323.392 520.613 325.587C521.819 327.783 523.681 329.547 525.939 330.63C528.197 331.714 530.738 332.065 533.205 331.632C535.672 331.199 537.942 330.005 539.696 328.217C541.451 326.429 542.601 324.137 542.987 321.662C543.373 319.187 542.975 316.654 541.848 314.417C540.722 312.179 538.923 310.351 536.705 309.187C534.487 308.024 531.96 307.584 529.479 307.929Z" fill="#E6E6E6"/>
<path d="M548.736 352.359C548.312 352.359 547.889 352.335 547.468 352.289C544.999 352.002 542.7 350.89 540.943 349.133C539.185 347.376 538.074 345.076 537.788 342.607C537.612 341.067 537.764 339.508 538.233 338.03C538.702 336.553 539.478 335.191 540.51 334.035C541.542 332.878 542.807 331.953 544.222 331.319C545.636 330.685 547.169 330.358 548.719 330.357C549.209 330.36 549.699 330.397 550.185 330.467L583.763 294.722L580.258 283.037L597.863 275.146L602.797 287.206C604.45 291.291 604.742 295.8 603.629 300.065C602.517 304.329 600.059 308.121 596.62 310.878L559.659 340.279C559.698 340.637 559.718 340.997 559.719 341.357C559.718 342.904 559.391 344.434 558.76 345.846C558.128 347.258 557.207 348.522 556.055 349.554C554.049 351.367 551.44 352.367 548.736 352.359Z" fill="#FFB8B8"/>
<path d="M574.986 233.469C576.151 232.952 577.407 232.675 578.681 232.655C579.955 232.636 581.22 232.874 582.399 233.356C583.579 233.837 584.649 234.552 585.545 235.458C586.441 236.364 587.145 237.441 587.614 238.625L604.986 282.469L577.986 300.469L574.986 233.469Z" fill="#F9A826"/>
<path d="M448.486 243.707V25.2623C448.477 18.5652 445.812 12.1452 441.076 7.40962C436.341 2.67407 429.921 0.00947579 423.224 0H79.9537C73.2566 0.00947843 66.8366 2.67408 62.101 7.40962C57.3655 12.1452 54.7009 18.5652 54.6914 25.2623V243.707C54.7009 250.404 57.3655 256.824 62.101 261.56C66.8366 266.295 73.2566 268.96 79.9537 268.969H423.224C429.921 268.96 436.341 266.295 441.076 261.56C445.812 256.824 448.477 250.404 448.486 243.707ZM79.9537 265.997C74.0442 265.99 68.3787 263.639 64.2 259.461C60.0214 255.282 57.6706 249.616 57.6635 243.707V25.2623C57.6706 19.3528 60.0214 13.6873 64.2 9.50864C68.3787 5.32996 74.0442 2.97921 79.9537 2.97202H423.224C429.133 2.97921 434.799 5.32996 438.977 9.50864C443.156 13.6873 445.507 19.3528 445.514 25.2623V243.707C445.507 249.616 443.156 255.282 438.977 259.461C434.799 263.639 429.133 265.99 423.224 265.997H79.9537Z" fill="#3F3D56"/>
<path d="M445.514 39.303H57.6637C57.2696 39.303 56.8917 39.1465 56.613 38.8678C56.3343 38.5891 56.1777 38.2112 56.1777 37.817C56.1777 37.4229 56.3343 37.045 56.613 36.7663C56.8917 36.4876 57.2696 36.3311 57.6637 36.3311H445.514C445.908 36.3311 446.286 36.4876 446.565 36.7663C446.844 37.045 447 37.4229 447 37.817C447 38.2112 446.844 38.5891 446.565 38.8678C446.286 39.1465 445.908 39.303 445.514 39.303Z" fill="#3F3D56"/>
<path d="M82.9257 28.2342C87.0292 28.2342 90.3558 24.9076 90.3558 20.8041C90.3558 16.7006 87.0292 13.374 82.9257 13.374C78.8222 13.374 75.4956 16.7006 75.4956 20.8041C75.4956 24.9076 78.8222 28.2342 82.9257 28.2342Z" fill="#003DA5"/>
<path d="M108.188 28.2342C112.292 28.2342 115.618 24.9076 115.618 20.8041C115.618 16.7006 112.292 13.374 108.188 13.374C104.085 13.374 100.758 16.7006 100.758 20.8041C100.758 24.9076 104.085 28.2342 108.188 28.2342Z" fill="#003DA5"/>
<path d="M133.451 28.2342C137.554 28.2342 140.881 24.9076 140.881 20.8041C140.881 16.7006 137.554 13.374 133.451 13.374C129.347 13.374 126.021 16.7006 126.021 20.8041C126.021 24.9076 129.347 28.2342 133.451 28.2342Z" fill="#003DA5"/>
<path d="M188.979 199.232C188.847 199.232 188.717 199.206 188.596 199.156C188.475 199.106 188.364 199.032 188.271 198.939C188.179 198.846 188.105 198.736 188.055 198.615C188.004 198.493 187.979 198.363 187.979 198.232C187.979 187.805 183.408 181.99 176.033 175.985C175.931 175.902 175.846 175.8 175.783 175.685C175.721 175.569 175.682 175.442 175.668 175.311C175.654 175.18 175.667 175.048 175.704 174.922C175.742 174.796 175.804 174.679 175.887 174.577C175.97 174.475 176.073 174.39 176.188 174.328C176.304 174.265 176.431 174.226 176.562 174.213C176.693 174.2 176.825 174.213 176.951 174.251C177.077 174.289 177.194 174.351 177.296 174.434C185.126 180.809 189.979 187.014 189.979 198.232C189.979 198.363 189.953 198.493 189.903 198.615C189.852 198.736 189.779 198.846 189.686 198.939C189.593 199.032 189.483 199.106 189.361 199.156C189.24 199.206 189.11 199.232 188.979 199.232Z" fill="black"/>
<path d="M103.316 199.232C103.185 199.232 103.055 199.206 102.934 199.156C102.812 199.106 102.702 199.032 102.609 198.939C102.516 198.846 102.443 198.736 102.392 198.615C102.342 198.493 102.316 198.363 102.316 198.232C102.316 187.014 107.169 180.809 114.999 174.434C115.101 174.351 115.218 174.289 115.344 174.251C115.47 174.213 115.602 174.2 115.733 174.213C115.864 174.226 115.991 174.265 116.107 174.328C116.222 174.39 116.325 174.475 116.408 174.577C116.491 174.679 116.553 174.796 116.591 174.922C116.628 175.048 116.641 175.18 116.627 175.311C116.613 175.442 116.574 175.569 116.512 175.685C116.449 175.8 116.364 175.902 116.262 175.985C108.887 181.99 104.316 187.806 104.316 198.232C104.316 198.363 104.291 198.493 104.24 198.615C104.19 198.736 104.116 198.846 104.024 198.939C103.931 199.032 103.82 199.106 103.699 199.156C103.578 199.206 103.448 199.232 103.316 199.232Z" fill="black"/>
<path d="M180.413 130.702C180.207 130.702 180.005 130.638 179.837 130.519C179.668 130.4 179.54 130.232 179.471 130.037C179.402 129.842 179.394 129.631 179.45 129.432C179.506 129.233 179.621 129.057 179.782 128.926C187.362 122.755 187.979 113.988 187.979 104.003C187.979 103.738 188.084 103.483 188.272 103.296C188.459 103.108 188.714 103.003 188.979 103.003C189.244 103.003 189.498 103.108 189.686 103.296C189.874 103.483 189.979 103.738 189.979 104.003C189.979 114.508 189.306 123.75 181.044 130.477C180.866 130.623 180.643 130.702 180.413 130.702Z" fill="black"/>
<path d="M111.882 130.167C111.652 130.167 111.429 130.088 111.251 129.942C102.989 123.215 102.316 114.215 102.316 104.003C102.316 103.738 102.422 103.483 102.609 103.296C102.797 103.108 103.051 103.003 103.316 103.003C103.582 103.003 103.836 103.108 104.024 103.296C104.211 103.483 104.316 103.738 104.316 104.003C104.316 114.04 104.92 122.209 112.514 128.391C112.674 128.522 112.79 128.698 112.846 128.897C112.901 129.096 112.894 129.307 112.825 129.502C112.756 129.696 112.628 129.865 112.459 129.984C112.29 130.103 112.089 130.167 111.882 130.167Z" fill="black"/>
<path d="M201.828 152.152H180.413C180.147 152.152 179.893 152.047 179.706 151.859C179.518 151.672 179.413 151.418 179.413 151.152C179.413 150.887 179.518 150.633 179.706 150.445C179.893 150.258 180.147 150.152 180.413 150.152H201.828C202.093 150.152 202.348 150.258 202.535 150.445C202.723 150.633 202.828 150.887 202.828 151.152C202.828 151.418 202.723 151.672 202.535 151.859C202.348 152.047 202.093 152.152 201.828 152.152Z" fill="black"/>
<path d="M111.883 152.152H90.4673C90.2021 152.152 89.9477 152.047 89.7602 151.859C89.5727 151.672 89.4673 151.418 89.4673 151.152C89.4673 150.887 89.5727 150.633 89.7602 150.445C89.9477 150.258 90.2021 150.152 90.4673 150.152H111.883C112.148 150.152 112.402 150.258 112.59 150.445C112.778 150.633 112.883 150.887 112.883 151.152C112.883 151.418 112.778 151.672 112.59 151.859C112.402 152.047 112.148 152.152 111.883 152.152Z" fill="black"/>
<path d="M146.147 194.949C146.016 194.949 145.886 194.923 145.765 194.873C145.643 194.822 145.533 194.749 145.44 194.656C145.347 194.563 145.274 194.453 145.224 194.331C145.173 194.21 145.147 194.08 145.147 193.949V125.419C145.147 125.154 145.253 124.899 145.44 124.712C145.628 124.524 145.882 124.419 146.147 124.419C146.413 124.419 146.667 124.524 146.855 124.712C147.042 124.899 147.147 125.154 147.147 125.419V193.949C147.147 194.08 147.122 194.21 147.071 194.331C147.021 194.453 146.948 194.563 146.855 194.656C146.762 194.749 146.652 194.822 146.53 194.873C146.409 194.923 146.279 194.949 146.147 194.949Z" fill="black"/>
<path d="M146.147 194.949C136.798 194.938 127.834 191.219 121.223 184.608C114.612 177.997 110.893 169.033 110.883 159.684V133.966C110.883 117.498 124.396 107.268 146.147 107.268C168.889 107.268 181.413 116.75 181.413 133.966V159.684C181.402 169.033 177.683 177.997 171.072 184.608C164.461 191.219 155.497 194.938 146.147 194.949ZM146.147 109.268C130.066 109.268 112.883 115.756 112.883 133.966V159.684C112.88 164.054 113.739 168.381 115.41 172.419C117.08 176.457 119.53 180.126 122.619 183.217C125.709 186.308 129.376 188.76 133.414 190.433C137.451 192.106 141.778 192.967 146.148 192.967C150.518 192.967 154.845 192.106 158.882 190.433C162.919 188.76 166.587 186.308 169.676 183.217C172.765 180.126 175.215 176.457 176.886 172.419C178.556 168.381 179.415 164.054 179.413 159.684V133.966C179.413 112.477 158.571 109.268 146.147 109.268Z" fill="black"/>
<path d="M125.651 113.441C125.451 113.441 125.255 113.381 125.09 113.269C124.924 113.156 124.796 112.997 124.722 112.811C124.144 111.365 123.81 109.834 123.733 108.279C123.751 102.351 126.11 96.669 130.297 92.4718C134.484 88.2746 140.16 85.9018 146.089 85.8701H146.204C152.125 85.8984 157.795 88.2628 161.982 92.4493C166.169 96.6359 168.534 102.306 168.563 108.227C168.511 109.673 168.203 111.099 167.653 112.438C167.551 112.681 167.356 112.875 167.112 112.975C166.868 113.076 166.595 113.076 166.35 112.976C166.106 112.875 165.912 112.683 165.809 112.439C165.707 112.196 165.705 111.922 165.803 111.677C166.26 110.569 166.517 109.388 166.564 108.19C166.529 102.804 164.371 97.6498 160.558 93.8455C156.746 90.0412 151.587 87.894 146.201 87.8701H146.091C140.7 87.8969 135.536 90.0509 131.724 93.8637C127.911 97.6766 125.758 102.84 125.732 108.232C125.803 109.549 126.089 110.845 126.579 112.07C126.639 112.222 126.662 112.386 126.644 112.548C126.626 112.71 126.569 112.866 126.478 113.001C126.386 113.136 126.263 113.247 126.119 113.324C125.975 113.4 125.814 113.441 125.651 113.441Z" fill="black"/>
<path d="M247.71 108.003H235.71C233.854 108.003 232.073 107.265 230.761 105.953C229.448 104.64 228.71 102.859 228.71 101.003C228.71 99.1464 229.448 97.3659 230.761 96.0532C232.073 94.7404 233.854 94.0029 235.71 94.0029H247.71C249.567 94.0029 251.347 94.7404 252.66 96.0532C253.973 97.3659 254.71 99.1464 254.71 101.003C254.71 102.859 253.973 104.64 252.66 105.953C251.347 107.265 249.567 108.003 247.71 108.003Z" fill="#CCCCCC"/>
<path d="M329.71 137.503H317.71C315.854 137.503 314.073 136.765 312.761 135.453C311.448 134.14 310.71 132.359 310.71 130.503C310.71 128.646 311.448 126.866 312.761 125.553C314.073 124.24 315.854 123.503 317.71 123.503H329.71C331.567 123.503 333.347 124.24 334.66 125.553C335.973 126.866 336.71 128.646 336.71 130.503C336.71 132.359 335.973 134.14 334.66 135.453C333.347 136.765 331.567 137.503 329.71 137.503Z" fill="#CCCCCC"/>
<path d="M367.71 137.503H355.71C353.854 137.503 352.073 136.765 350.761 135.453C349.448 134.14 348.71 132.359 348.71 130.503C348.71 128.646 349.448 126.866 350.761 125.553C352.073 124.24 353.854 123.503 355.71 123.503H367.71C369.567 123.503 371.347 124.24 372.66 125.553C373.973 126.866 374.71 128.646 374.71 130.503C374.71 132.359 373.973 134.14 372.66 135.453C371.347 136.765 369.567 137.503 367.71 137.503Z" fill="#003DA5"/>
<path d="M405.71 137.503H393.71C391.854 137.503 390.073 136.765 388.761 135.453C387.448 134.14 386.71 132.359 386.71 130.503C386.71 128.646 387.448 126.866 388.761 125.553C390.073 124.24 391.854 123.503 393.71 123.503H405.71C407.567 123.503 409.347 124.24 410.66 125.553C411.973 126.866 412.71 128.646 412.71 130.503C412.71 132.359 411.973 134.14 410.66 135.453C409.347 136.765 407.567 137.503 405.71 137.503Z" fill="#CCCCCC"/>
<path d="M330.71 108.503H274.71C272.854 108.503 271.073 107.765 269.761 106.453C268.448 105.14 267.71 103.359 267.71 101.503C267.71 99.6464 268.448 97.8659 269.761 96.5532C271.073 95.2404 272.854 94.5029 274.71 94.5029H330.71C332.567 94.5029 334.347 95.2404 335.66 96.5532C336.973 97.8659 337.71 99.6464 337.71 101.503C337.71 103.359 336.973 105.14 335.66 106.453C334.347 107.765 332.567 108.503 330.71 108.503Z" fill="#CCCCCC"/>
<path d="M291.71 136.503H235.71C233.854 136.503 232.073 135.765 230.761 134.453C229.448 133.14 228.71 131.359 228.71 129.503C228.71 127.646 229.448 125.866 230.761 124.553C232.073 123.24 233.854 122.503 235.71 122.503H291.71C293.567 122.503 295.347 123.24 296.66 124.553C297.973 125.866 298.71 127.646 298.71 129.503C298.71 131.359 297.973 133.14 296.66 134.453C295.347 135.765 293.567 136.503 291.71 136.503Z" fill="#F9A826"/>
<path d="M401.71 108.503H358.71C356.854 108.503 355.073 107.765 353.761 106.453C352.448 105.14 351.71 103.359 351.71 101.503C351.71 99.6464 352.448 97.8659 353.761 96.5532C355.073 95.2404 356.854 94.5029 358.71 94.5029H401.71C403.567 94.5029 405.347 95.2404 406.66 96.5532C407.973 97.8659 408.71 99.6464 408.71 101.503C408.71 103.359 407.973 105.14 406.66 106.453C405.347 107.765 403.567 108.503 401.71 108.503Z" fill="#CCCCCC"/>
<path d="M247.71 167.003H235.71C233.854 167.003 232.073 166.265 230.761 164.953C229.448 163.64 228.71 161.859 228.71 160.003C228.71 158.146 229.448 156.366 230.761 155.053C232.073 153.74 233.854 153.003 235.71 153.003H247.71C249.567 153.003 251.347 153.74 252.66 155.053C253.973 156.366 254.71 158.146 254.71 160.003C254.71 161.859 253.973 163.64 252.66 164.953C251.347 166.265 249.567 167.003 247.71 167.003Z" fill="#CCCCCC"/>
<path d="M330.71 167.503H274.71C272.854 167.503 271.073 166.765 269.761 165.453C268.448 164.14 267.71 162.359 267.71 160.503C267.71 158.646 268.448 156.866 269.761 155.553C271.073 154.24 272.854 153.503 274.71 153.503H330.71C332.567 153.503 334.347 154.24 335.66 155.553C336.973 156.866 337.71 158.646 337.71 160.503C337.71 162.359 336.973 164.14 335.66 165.453C334.347 166.765 332.567 167.503 330.71 167.503Z" fill="#CCCCCC"/>
<path d="M401.71 167.503H358.71C356.854 167.503 355.073 166.765 353.761 165.453C352.448 164.14 351.71 162.359 351.71 160.503C351.71 158.646 352.448 156.866 353.761 155.553C355.073 154.24 356.854 153.503 358.71 153.503H401.71C403.567 153.503 405.347 154.24 406.66 155.553C407.973 156.866 408.71 158.646 408.71 160.503C408.71 162.359 407.973 164.14 406.66 165.453C405.347 166.765 403.567 167.503 401.71 167.503Z" fill="#CCCCCC"/>
<path d="M382.71 191.003C382.713 189.147 383.451 187.368 384.763 186.055C386.075 184.743 387.855 184.005 389.71 184.003H401.71C403.567 184.003 405.347 184.74 406.66 186.053C407.973 187.366 408.71 189.146 408.71 191.003C408.71 192.859 407.973 194.64 406.66 195.953C405.347 197.265 403.567 198.003 401.71 198.003H389.71C387.855 198.001 386.075 197.263 384.763 195.95C383.451 194.638 382.713 192.859 382.71 191.003Z" fill="#CCCCCC"/>
<path d="M299.71 191.503C299.713 189.647 300.451 187.868 301.763 186.555C303.075 185.243 304.855 184.505 306.71 184.503H362.71C364.567 184.503 366.347 185.24 367.66 186.553C368.973 187.866 369.71 189.646 369.71 191.503C369.71 193.359 368.973 195.14 367.66 196.453C366.347 197.765 364.567 198.503 362.71 198.503H306.71C304.855 198.501 303.075 197.763 301.763 196.45C300.451 195.138 299.713 193.359 299.71 191.503Z" fill="#F9A826"/>
<path d="M228.71 191.503C228.713 189.647 229.451 187.868 230.763 186.555C232.075 185.243 233.855 184.505 235.71 184.503H278.71C280.567 184.503 282.347 185.24 283.66 186.553C284.973 187.866 285.71 189.646 285.71 191.503C285.71 193.359 284.973 195.14 283.66 196.453C282.347 197.765 280.567 198.503 278.71 198.503H235.71C233.855 198.501 232.075 197.763 230.763 196.45C229.451 195.138 228.713 193.359 228.71 191.503Z" fill="#CCCCCC"/>
</g>
<defs>
<clipPath id="clip0_835_222">
<rect width="690" height="448.759" fill="white"/>
</clipPath>
</defs>
</svg>
