<svg width="811" height="686" viewBox="0 0 811 686" fill="none" xmlns="http://www.w3.org/2000/svg">
<g clip-path="url(#clip0_818_151)">
<path d="M522.179 412.437H303.646C297.789 412.43 292.174 410.101 288.033 405.96C283.892 401.818 281.562 396.203 281.556 390.347V100.984C281.562 95.1275 283.892 89.5126 288.033 85.3713C292.174 81.23 297.789 78.9004 303.646 78.8938H522.179C528.036 78.9004 533.65 81.2299 537.792 85.3712C541.933 89.5125 544.263 95.1274 544.269 100.984V390.347C544.263 396.203 541.933 401.818 537.792 405.96C533.65 410.101 528.036 412.43 522.179 412.437V412.437Z" fill="#E6E6E6"/>
<path d="M506.818 394.026H319.007C313.807 394.02 308.821 391.952 305.144 388.275C301.467 384.598 299.399 379.612 299.393 374.412V116.919C299.399 111.719 301.467 106.733 305.144 103.056C308.821 99.3792 313.807 97.3108 319.007 97.3049H506.818C512.018 97.3108 517.003 99.3791 520.68 103.056C524.357 106.733 526.426 111.719 526.431 116.919V374.412C526.426 379.612 524.357 384.598 520.68 388.275C517.003 391.952 512.018 394.02 506.818 394.026V394.026Z" fill="white"/>
<path d="M488.082 146.239H337.743C337.098 146.24 336.46 146.114 335.864 145.868C335.268 145.622 334.727 145.261 334.271 144.805C333.815 144.35 333.453 143.809 333.206 143.214C332.96 142.618 332.833 141.98 332.833 141.336C332.833 140.691 332.96 140.053 333.206 139.458C333.453 138.863 333.815 138.322 334.271 137.866C334.727 137.411 335.268 137.05 335.864 136.804C336.46 136.558 337.098 136.432 337.743 136.433H488.082C488.727 136.432 489.365 136.558 489.961 136.804C490.557 137.05 491.098 137.411 491.554 137.866C492.01 138.322 492.372 138.863 492.619 139.458C492.865 140.053 492.993 140.691 492.993 141.336C492.993 141.98 492.865 142.618 492.619 143.214C492.372 143.809 492.01 144.35 491.554 144.805C491.098 145.261 490.557 145.622 489.961 145.868C489.365 146.114 488.727 146.24 488.082 146.239V146.239Z" fill="#E4E4E4"/>
<path d="M488.082 165.613H337.742C336.442 165.613 335.195 165.097 334.275 164.177C333.355 163.258 332.839 162.011 332.839 160.71C332.839 159.41 333.355 158.162 334.275 157.243C335.195 156.323 336.442 155.807 337.742 155.807H488.082C489.382 155.807 490.63 156.323 491.549 157.243C492.469 158.162 492.985 159.41 492.985 160.71C492.985 162.011 492.469 163.258 491.549 164.177C490.63 165.097 489.382 165.613 488.082 165.613Z" fill="#E4E4E4"/>
<path d="M402.911 184.988H337.742C336.442 184.988 335.195 184.471 334.275 183.552C333.355 182.632 332.839 181.385 332.839 180.085C332.839 178.784 333.355 177.537 334.275 176.617C335.195 175.698 336.442 175.181 337.742 175.181H402.911C404.211 175.181 405.459 175.698 406.378 176.617C407.298 177.537 407.814 178.784 407.814 180.085C407.814 181.385 407.298 182.632 406.378 183.552C405.459 184.471 404.211 184.988 402.911 184.988Z" fill="#E4E4E4"/>
<path d="M488.082 225.565H337.743C337.098 225.566 336.46 225.44 335.864 225.194C335.268 224.948 334.727 224.587 334.271 224.132C333.815 223.676 333.453 223.136 333.206 222.54C332.96 221.945 332.833 221.307 332.833 220.662C332.833 220.018 332.96 219.38 333.206 218.784C333.453 218.189 333.815 217.648 334.271 217.193C334.727 216.737 335.268 216.376 335.864 216.13C336.46 215.884 337.098 215.758 337.743 215.759H488.082C488.727 215.758 489.365 215.884 489.961 216.13C490.557 216.376 491.098 216.737 491.554 217.193C492.01 217.648 492.372 218.189 492.619 218.784C492.865 219.38 492.993 220.018 492.993 220.662C492.993 221.307 492.865 221.945 492.619 222.54C492.372 223.136 492.01 223.676 491.554 224.132C491.098 224.587 490.557 224.948 489.961 225.194C489.365 225.44 488.727 225.566 488.082 225.565V225.565Z" fill="#E4E4E4"/>
<path d="M488.082 244.94H337.742C336.442 244.94 335.195 244.423 334.275 243.504C333.355 242.584 332.839 241.337 332.839 240.036C332.839 238.736 333.355 237.489 334.275 236.569C335.195 235.65 336.442 235.133 337.742 235.133H488.082C489.382 235.133 490.63 235.65 491.549 236.569C492.469 237.489 492.985 238.736 492.985 240.036C492.985 241.337 492.469 242.584 491.549 243.504C490.63 244.423 489.382 244.94 488.082 244.94Z" fill="#E4E4E4"/>
<path d="M402.911 264.314H337.742C336.443 264.312 335.198 263.795 334.28 262.876C333.362 261.956 332.846 260.71 332.846 259.411C332.846 258.112 333.362 256.866 334.28 255.946C335.198 255.027 336.443 254.51 337.742 254.508H402.911C404.212 254.508 405.459 255.024 406.378 255.944C407.298 256.863 407.815 258.111 407.815 259.411C407.815 260.711 407.298 261.959 406.378 262.878C405.459 263.798 404.212 264.314 402.911 264.314Z" fill="#E4E4E4"/>
<path d="M488.082 304.892H337.743C337.098 304.893 336.46 304.767 335.864 304.521C335.268 304.275 334.727 303.914 334.271 303.458C333.815 303.003 333.453 302.462 333.206 301.867C332.96 301.271 332.833 300.633 332.833 299.989C332.833 299.344 332.96 298.706 333.206 298.111C333.453 297.515 333.815 296.975 334.271 296.519C334.727 296.064 335.268 295.703 335.864 295.457C336.46 295.211 337.098 295.085 337.743 295.086H488.082C488.727 295.085 489.365 295.211 489.961 295.457C490.557 295.703 491.098 296.064 491.554 296.519C492.01 296.975 492.372 297.515 492.619 298.111C492.865 298.706 492.993 299.344 492.993 299.989C492.993 300.633 492.865 301.271 492.619 301.867C492.372 302.462 492.01 303.003 491.554 303.458C491.098 303.914 490.557 304.275 489.961 304.521C489.365 304.767 488.727 304.893 488.082 304.892V304.892Z" fill="#E4E4E4"/>
<path d="M488.082 324.266H337.742C336.442 324.266 335.195 323.75 334.275 322.83C333.355 321.911 332.839 320.663 332.839 319.363C332.839 318.063 333.355 316.815 334.275 315.896C335.195 314.976 336.442 314.46 337.742 314.46H488.082C489.382 314.46 490.63 314.976 491.549 315.896C492.469 316.815 492.985 318.063 492.985 319.363C492.985 320.663 492.469 321.911 491.549 322.83C490.63 323.75 489.382 324.266 488.082 324.266V324.266Z" fill="#E4E4E4"/>
<path d="M402.911 343.641H337.742C336.442 343.641 335.195 343.124 334.275 342.205C333.355 341.285 332.839 340.038 332.839 338.738C332.839 337.437 333.355 336.19 334.275 335.27C335.195 334.351 336.442 333.834 337.742 333.834H402.911C404.211 333.834 405.459 334.351 406.378 335.27C407.298 336.19 407.814 337.437 407.814 338.738C407.814 340.038 407.298 341.285 406.378 342.205C405.459 343.124 404.211 343.641 402.911 343.641Z" fill="#E4E4E4"/>
<path d="M369.608 244.215L206.272 104.506H96.5391V102.448H207.032L370.946 242.651L369.608 244.215Z" fill="#2F2E41"/>
<path d="M96.5387 119.943C105.632 119.943 113.004 112.571 113.004 103.477C113.004 94.3835 105.632 87.0117 96.5387 87.0117C87.4451 87.0117 80.0732 94.3835 80.0732 103.477C80.0732 112.571 87.4451 119.943 96.5387 119.943Z" fill="#003DA5"/>
<path d="M155.243 158.86H4.90309C4.25921 158.86 3.62163 158.733 3.02676 158.487C2.43189 158.241 1.89137 157.879 1.43608 157.424C0.980788 156.969 0.619633 156.428 0.37323 155.833C0.126827 155.239 0 154.601 0 153.957C0 153.313 0.126827 152.676 0.37323 152.081C0.619633 151.486 0.980788 150.945 1.43608 150.49C1.89137 150.035 2.43189 149.674 3.02676 149.427C3.62163 149.181 4.25921 149.054 4.90309 149.054H155.243C155.887 149.054 156.524 149.181 157.119 149.427C157.714 149.674 158.255 150.035 158.71 150.49C159.165 150.945 159.526 151.486 159.773 152.081C160.019 152.676 160.146 153.313 160.146 153.957C160.146 154.601 160.019 155.239 159.773 155.833C159.526 156.428 159.165 156.969 158.71 157.424C158.255 157.879 157.714 158.241 157.119 158.487C156.524 158.733 155.887 158.86 155.243 158.86Z" fill="#003DA5"/>
<path d="M155.243 178.235H4.90332C3.60288 178.235 2.35569 177.718 1.43614 176.798C0.516591 175.879 0 174.632 0 173.331C0 172.031 0.516591 170.784 1.43614 169.864C2.35569 168.945 3.60288 168.428 4.90332 168.428H155.243C156.544 168.428 157.791 168.945 158.71 169.864C159.63 170.784 160.146 172.031 160.146 173.331C160.146 174.632 159.63 175.879 158.71 176.798C157.791 177.718 156.544 178.235 155.243 178.235V178.235Z" fill="#003DA5"/>
<path d="M70.072 197.609H4.90332C3.60288 197.609 2.35569 197.093 1.43614 196.173C0.516591 195.253 0 194.006 0 192.706C0 191.405 0.516591 190.158 1.43614 189.239C2.35569 188.319 3.60288 187.802 4.90332 187.802H70.072C71.3725 187.802 72.6196 188.319 73.5392 189.239C74.4587 190.158 74.9753 191.405 74.9753 192.706C74.9753 194.006 74.4587 195.253 73.5392 196.173C72.6196 197.093 71.3725 197.609 70.072 197.609Z" fill="#003DA5"/>
<path d="M412.912 155.639L576.826 15.436H687.319V17.494H577.586L414.25 157.203L412.912 155.639Z" fill="#2F2E41"/>
<path d="M687.319 32.9309C696.413 32.9309 703.785 25.5591 703.785 16.4655C703.785 7.37183 696.413 0 687.319 0C678.226 0 670.854 7.37183 670.854 16.4655C670.854 25.5591 678.226 32.9309 687.319 32.9309Z" fill="#003DA5"/>
<path d="M799.275 71.2712H648.935C648.291 71.2722 647.652 71.146 647.057 70.9C646.461 70.6541 645.919 70.293 645.463 69.8377C645.007 69.3823 644.646 68.8414 644.399 68.2461C644.152 67.6508 644.025 67.0126 644.025 66.3682C644.025 65.7237 644.152 65.0855 644.399 64.4902C644.646 63.8949 645.007 63.3541 645.463 62.8987C645.919 62.4433 646.461 62.0823 647.057 61.8363C647.652 61.5903 648.291 61.4642 648.935 61.4651H799.275C799.919 61.4642 800.558 61.5903 801.153 61.8363C801.749 62.0823 802.29 62.4433 802.746 62.8987C803.202 63.3541 803.564 63.8949 803.811 64.4902C804.058 65.0855 804.185 65.7237 804.185 66.3682C804.185 67.0126 804.058 67.6508 803.811 68.2461C803.564 68.8414 803.202 69.3823 802.746 69.8377C802.29 70.293 801.749 70.6541 801.153 70.9C800.558 71.146 799.919 71.2722 799.275 71.2712V71.2712Z" fill="#003DA5"/>
<path d="M799.275 90.6458H648.935C647.635 90.6458 646.387 90.1292 645.468 89.2096C644.548 88.2901 644.032 87.0429 644.032 85.7424C644.032 84.442 644.548 83.1948 645.468 82.2753C646.387 81.3557 647.635 80.8391 648.935 80.8391H799.275C799.919 80.8391 800.556 80.9659 801.151 81.2124C801.746 81.4588 802.287 81.82 802.742 82.2753C803.197 82.7306 803.559 83.2711 803.805 83.866C804.051 84.4609 804.178 85.0985 804.178 85.7424C804.178 86.3863 804.051 87.024 803.805 87.6189C803.559 88.2137 803.197 88.7543 802.742 89.2096C802.287 89.6649 801.746 90.0261 801.151 90.2725C800.556 90.5189 799.919 90.6458 799.275 90.6458Z" fill="#003DA5"/>
<path d="M714.104 110.02H648.935C647.635 110.02 646.387 109.504 645.468 108.584C644.548 107.665 644.032 106.417 644.032 105.117C644.032 103.817 644.548 102.569 645.468 101.65C646.387 100.73 647.635 100.214 648.935 100.214H714.104C715.404 100.214 716.651 100.73 717.571 101.65C718.49 102.569 719.007 103.817 719.007 105.117C719.007 106.417 718.49 107.665 717.571 108.584C716.651 109.504 715.404 110.02 714.104 110.02V110.02Z" fill="#003DA5"/>
<path d="M681.408 464.978C680.561 464.056 679.926 462.959 679.548 461.765C679.17 460.571 679.059 459.309 679.222 458.067C679.385 456.825 679.818 455.634 680.491 454.578C681.164 453.522 682.06 452.626 683.117 451.954L676.096 422.333L690.955 427.761L695.343 455.058C696.355 456.908 696.653 459.064 696.181 461.119C695.709 463.174 694.5 464.985 692.782 466.207C691.064 467.43 688.958 467.98 686.862 467.754C684.765 467.527 682.825 466.539 681.408 464.978V464.978Z" fill="#9E616A"/>
<path d="M645.677 340.85L651.64 356.184C651.64 356.184 649.085 371.518 653.344 374.925C657.603 378.333 655.9 378.333 655.9 380.888C656.046 382.722 656.577 384.503 657.458 386.118C658.339 387.732 659.549 389.143 661.011 390.259C664.418 392.815 679.752 444.779 679.752 444.779H695.086C694.591 440.819 694.591 436.813 695.086 432.853C695.938 426.89 692.53 411.556 690.827 409C689.123 406.445 690.827 403.037 690.827 397.926C690.827 392.815 687.419 390.259 687.419 381.74C687.419 373.222 677.197 306.775 678.048 299.109C678.9 291.442 669.53 284.627 669.53 284.627H661.011L645.677 340.85Z" fill="#FFC928"/>
<path d="M609.598 373.374L595.425 436.624L686.247 430.974L661.551 368.856L609.598 373.374Z" fill="#9E616A"/>
<path d="M807.569 611.097C804.865 620.871 800.644 630.161 795.059 638.627C782.579 657.497 764.719 671.927 745.089 683.477C743.729 684.287 742.349 685.077 740.969 685.857H727.199L726.719 684.757V684.747L726.159 683.477L726.089 683.327L726.059 683.477L725.509 685.857H718.749C718.189 685.067 717.639 684.277 717.099 683.477C716.309 682.307 715.549 681.127 714.829 679.927C713.558 677.828 712.423 675.65 711.429 673.407C711.309 673.157 711.209 672.907 711.109 672.657L711.559 672.167L709.689 663.987L713.449 663.367L709.329 650.657C709.479 650.187 709.649 649.717 709.829 649.247C712.139 643.397 716.479 639.027 721.629 635.357C726.929 631.567 733.099 628.527 738.769 625.367C741.429 623.877 744.049 622.307 746.599 620.647V620.637C749.859 618.527 753.022 616.27 756.089 613.867C756.141 613.833 756.192 613.797 756.239 613.757C756.281 613.726 756.322 613.693 756.359 613.657C770.107 602.916 781.741 589.716 790.669 574.727C790.67 574.727 790.672 574.726 790.673 574.726C790.674 574.725 790.675 574.725 790.676 574.724C790.677 574.723 790.678 574.722 790.678 574.721C790.679 574.719 790.679 574.718 790.679 574.717C790.979 574.237 791.259 573.757 791.539 573.267V573.257C795.195 566.968 798.342 560.397 800.949 553.607V553.597C801.149 553.097 801.329 552.597 801.519 552.097C801.779 552.537 802.029 552.977 802.269 553.417C802.27 553.417 802.272 553.417 802.273 553.417C802.274 553.418 802.275 553.419 802.276 553.419C802.277 553.42 802.278 553.422 802.278 553.423C802.279 553.424 802.279 553.425 802.279 553.427C811.979 570.777 812.899 591.677 807.569 611.097Z" fill="#F0F0F0"/>
<path d="M802.279 553.427C802.376 562.686 801.413 571.926 799.409 580.967C798.508 585.104 797.387 589.19 796.049 593.207C793.452 601.066 790.058 608.639 785.919 615.807C785.689 616.197 785.469 616.577 785.229 616.957V616.967C783.46 619.949 781.541 622.839 779.479 625.627C776.358 630.067 772.503 633.943 768.079 637.087C764.465 639.474 760.379 641.054 756.099 641.717C755.299 641.867 754.479 641.977 753.649 642.077C750.339 642.467 746.919 642.617 743.639 643.317C741.978 643.645 740.36 644.165 738.819 644.867C733.539 647.317 730.569 652.447 729.269 657.927C729.039 658.887 728.859 659.857 728.719 660.827C727.629 668.277 728.829 676.017 728.209 683.477C728.139 684.267 728.049 685.067 727.939 685.857H727.199L726.719 684.757V684.747C726.769 684.327 726.809 683.907 726.849 683.477C727.089 679.811 727.119 676.135 726.939 672.467C726.899 670.817 726.869 669.157 726.889 667.497C726.909 666.167 726.959 664.837 727.059 663.517V663.507C727.129 662.687 727.209 661.877 727.319 661.067C727.637 658.586 728.248 656.153 729.139 653.817C730.009 651.41 731.378 649.214 733.157 647.373C734.935 645.532 737.083 644.089 739.459 643.137C740.91 642.592 742.406 642.174 743.929 641.887C747.279 641.247 750.739 641.087 754.109 640.667C754.469 640.627 754.829 640.577 755.179 640.517C755.629 640.447 756.069 640.367 756.509 640.287C760.918 639.504 765.083 637.699 768.669 635.017C772.931 631.643 776.636 627.62 779.649 623.097C781.289 620.747 782.849 618.347 784.299 615.877C784.299 615.875 784.299 615.874 784.3 615.873C784.3 615.872 784.301 615.871 784.302 615.87C784.303 615.869 784.304 615.868 784.305 615.867C784.306 615.867 784.308 615.867 784.309 615.867C784.379 615.747 784.449 615.637 784.519 615.517L784.529 615.497C790.749 604.868 795.289 593.342 797.989 581.327C798.079 580.887 798.179 580.447 798.279 580.007C800.135 571.331 801.03 562.478 800.949 553.607V553.597C800.949 553.177 800.939 552.767 800.929 552.347C800.909 551.487 802.239 551.297 802.259 552.157C802.269 552.577 802.279 552.997 802.269 553.417C802.27 553.417 802.272 553.417 802.273 553.417C802.274 553.418 802.275 553.419 802.276 553.42C802.277 553.42 802.278 553.422 802.278 553.423C802.279 553.424 802.279 553.425 802.279 553.427V553.427Z" fill="white"/>
<path d="M784.658 616.686C788.469 618.621 792.843 619.139 797 618.147C801.157 617.155 804.827 614.717 807.352 611.27C807.861 610.57 806.798 609.747 806.289 610.447C803.943 613.662 800.525 615.932 796.652 616.848C792.779 617.764 788.706 617.265 785.168 615.442C784.399 615.047 783.893 616.293 784.658 616.686V616.686Z" fill="white"/>
<path d="M756.637 640.685C753.853 632.404 754.292 623.378 757.867 615.406C758.222 614.616 756.978 614.107 756.623 614.896C752.919 623.198 752.481 632.593 755.397 641.204C755.676 642.024 756.914 641.501 756.637 640.685V640.685Z" fill="white"/>
<path d="M798.665 580.129C797.035 579.688 795.54 578.848 794.314 577.686C793.088 576.523 792.17 575.075 791.643 573.47C791.375 572.646 790.137 573.17 790.403 573.989C790.994 575.759 792.01 577.358 793.361 578.645C794.712 579.932 796.358 580.869 798.155 581.373C798.321 581.435 798.503 581.431 798.666 581.363C798.829 581.295 798.96 581.167 799.032 581.006C799.099 580.841 799.098 580.657 799.029 580.492C798.96 580.328 798.83 580.198 798.665 580.129H798.665Z" fill="white"/>
<path d="M746.599 620.637V620.647C746.289 627.787 745.396 634.891 743.929 641.887V641.897C743.849 642.377 743.739 642.847 743.639 643.317C741.226 654.136 737.842 664.715 733.529 674.927C732.339 677.807 731.093 680.657 729.789 683.477C729.429 684.277 729.059 685.067 728.679 685.857H727.199L726.719 684.757V684.747L726.159 683.477L726.089 683.327L726.059 683.477L725.509 685.857H711.209L708.429 683.477L704.379 680.007L710.039 673.827L710.969 672.807L711.109 672.657L711.559 672.167L709.689 663.987L713.449 663.367L709.329 650.657L707.379 644.647L706.889 643.137L704.039 634.347L695.439 635.957L694.039 631.057C696.617 625.082 698.762 618.929 700.459 612.647C700.469 612.597 700.489 612.557 700.499 612.507C705.043 595.585 706.406 577.966 704.519 560.547V560.537C704.459 559.977 704.389 559.407 704.309 558.857V558.837C703.452 551.618 702.007 544.481 699.989 537.497C699.849 536.967 699.689 536.447 699.539 535.927C699.999 536.127 700.449 536.317 700.909 536.517L700.919 536.527H700.939C701.669 536.847 702.399 537.187 703.109 537.547C720.169 545.837 732.719 561.397 739.849 579.337C739.869 579.387 739.889 579.427 739.909 579.477C743.629 588.881 745.847 598.813 746.479 608.907C746.719 612.812 746.759 616.727 746.599 620.637V620.637Z" fill="#F0F0F0"/>
<path d="M720.649 685.857H719.069C718.569 685.047 718.029 684.257 717.489 683.477C716.629 682.267 715.742 681.083 714.829 679.927C714.039 678.927 713.249 677.937 712.459 676.947C711.639 675.917 710.829 674.887 710.039 673.827L710.969 672.807C711.119 673.007 711.269 673.207 711.429 673.407C713.989 676.777 716.759 680.017 719.129 683.477C719.659 684.257 720.169 685.047 720.649 685.857Z" fill="white"/>
<path d="M699.207 536.486C699.467 536.816 699.737 537.156 699.987 537.496C701.937 540.026 703.78 542.636 705.517 545.326C708.61 550.072 711.357 555.035 713.737 560.176C713.927 560.576 714.117 560.985 714.297 561.395C719.39 572.629 722.709 584.584 724.137 596.835C724.157 596.955 724.167 597.066 724.177 597.186C724.507 600.046 724.72 602.916 724.817 605.796C725.136 611.219 724.599 616.659 723.227 621.916C723.027 622.606 722.807 623.286 722.567 623.946C721.965 625.563 721.212 627.12 720.317 628.595C719.674 629.672 718.959 630.705 718.177 631.686C717.707 632.286 717.217 632.876 716.697 633.446C716.397 633.776 716.087 634.106 715.777 634.436C715.517 634.686 715.267 634.946 715.007 635.196C712.307 637.816 709.327 640.246 706.887 643.136L707.377 644.645C709.727 641.665 712.757 639.195 715.487 636.595C717.201 634.984 718.761 633.216 720.147 631.316C720.327 631.056 720.517 630.795 720.687 630.525C721.614 629.172 722.414 627.736 723.077 626.236C723.417 625.486 723.727 624.716 724.007 623.916C725.641 618.745 726.385 613.335 726.207 607.916C726.175 604.444 725.968 600.976 725.587 597.525C725.547 597.075 725.497 596.636 725.437 596.186C724.423 587.972 722.573 579.883 719.917 572.046C716.555 562.102 711.93 552.631 706.157 543.866C704.507 541.356 702.757 538.906 700.907 536.516C700.667 536.186 700.417 535.865 700.157 535.535C699.627 534.855 698.677 535.806 699.207 536.486Z" fill="white"/>
<path d="M724.961 597.652C729.169 596.903 732.974 594.683 735.695 591.388C738.417 588.093 739.88 583.937 739.821 579.664C739.817 579.49 739.745 579.324 739.621 579.201C739.497 579.079 739.331 579.009 739.156 579.007C738.982 579.005 738.814 579.07 738.687 579.19C738.56 579.309 738.485 579.474 738.476 579.648C738.539 583.627 737.176 587.498 734.635 590.561C732.094 593.624 728.542 595.678 724.62 596.352C723.767 596.499 724.114 597.798 724.961 597.652V597.652Z" fill="white"/>
<path d="M717.037 633.684C709.828 628.749 704.744 621.278 702.799 612.76C702.607 611.916 701.307 612.259 701.499 613.102C703.54 621.961 708.846 629.726 716.36 634.845C717.076 635.333 717.75 634.169 717.037 633.684V633.684Z" fill="white"/>
<path d="M714.136 560.03C712.568 560.659 710.869 560.889 709.19 560.699C707.512 560.509 705.907 559.905 704.52 558.941C703.81 558.445 703.136 559.609 703.842 560.102C705.38 561.16 707.153 561.825 709.007 562.039C710.861 562.253 712.739 562.01 714.477 561.33C714.646 561.28 714.79 561.167 714.879 561.015C714.968 560.862 714.996 560.682 714.957 560.51C714.911 560.338 714.798 560.191 714.645 560.101C714.491 560.012 714.308 559.986 714.136 560.03V560.03Z" fill="white"/>
<path d="M624.722 665.295H614.519L609.666 625.943L624.723 625.944L624.722 665.295Z" fill="#9E616A"/>
<path d="M630.21 684.667H622.971L621.679 677.832L618.369 684.667H599.169C598.248 684.667 597.352 684.373 596.611 683.827C595.869 683.282 595.322 682.514 595.048 681.635C594.774 680.756 594.788 679.813 595.088 678.943C595.388 678.073 595.959 677.322 596.716 676.799L612.049 666.209V659.3L628.177 660.262L630.21 684.667Z" fill="#2F2E41"/>
<path d="M721.147 660.219L711.176 662.382L698.09 624.954L712.806 621.762L721.147 660.219Z" fill="#9E616A"/>
<path d="M730.617 677.987L723.542 679.522L720.83 673.116L719.045 680.497L700.281 684.568C699.382 684.763 698.444 684.666 697.603 684.29C696.763 683.914 696.065 683.28 695.611 682.479C695.157 681.678 694.971 680.754 695.08 679.84C695.189 678.926 695.587 678.071 696.216 677.399L708.956 663.8L707.491 657.047L723.456 654.569L730.617 677.987Z" fill="#2F2E41"/>
<path d="M792.999 684.667C793 684.823 792.969 684.978 792.91 685.123C792.85 685.267 792.762 685.399 792.652 685.509C792.541 685.62 792.41 685.707 792.265 685.767C792.12 685.827 791.966 685.857 791.809 685.857H511.519C511.203 685.857 510.901 685.731 510.678 685.508C510.455 685.285 510.329 684.982 510.329 684.667C510.329 684.351 510.455 684.048 510.678 683.825C510.901 683.602 511.203 683.477 511.519 683.477H791.809C791.966 683.476 792.12 683.507 792.265 683.566C792.41 683.626 792.541 683.714 792.652 683.824C792.762 683.935 792.85 684.066 792.91 684.211C792.969 684.355 793 684.51 792.999 684.667Z" fill="#CCCCCC"/>
<path d="M593.106 489.514C600.266 528.864 602.056 545.854 602.056 545.854C602.056 545.854 596.686 552.114 600.266 555.694C603.846 559.274 600.266 566.424 600.266 566.424L608.316 653.174L614.796 652.124L630.406 649.614L636.036 648.704L632.456 567.324C632.456 567.324 636.036 560.164 634.246 558.374C632.456 556.584 636.036 545.854 636.036 545.854L640.506 460.894L668.236 553.904C668.236 553.904 665.546 557.484 668.236 560.164C670.916 562.844 676.276 576.264 676.276 576.264L692.766 633.964L694.166 638.864L702.766 637.254L712.126 635.494L713.846 635.174L716.906 634.594L718.876 634.224L719.546 634.104L722.786 633.494L721.806 629.144L721.296 626.854L707.346 564.894L707.026 563.464L706.686 561.954C706.686 561.954 708.476 557.484 705.796 554.794C705.012 553.974 704.439 552.976 704.127 551.885C703.815 550.794 703.774 549.644 704.006 548.534C704.094 548.44 704.174 548.34 704.246 548.234C704.562 547.799 704.781 547.301 704.886 546.774C705.126 545.654 704.916 544.084 703.106 542.274C702.596 541.732 702.168 541.119 701.836 540.454C699.116 535.304 697.746 524.394 697.746 524.394C697.746 524.394 695.326 437.984 687.406 424.784C686.986 424.094 678.578 410.847 678.138 410.577C669.198 405.217 595.425 412.621 595.425 412.621C595.425 412.621 591.206 423.954 591.016 425.134C589.986 431.764 587.036 456.134 593.106 489.514Z" fill="#2F2E41"/>
<path d="M593.526 464.867C594.373 463.945 595.008 462.849 595.386 461.655C595.763 460.461 595.875 459.198 595.712 457.957C595.549 456.715 595.116 455.524 594.443 454.468C593.77 453.412 592.874 452.516 591.817 451.844L598.838 422.223L583.979 427.651L579.59 454.947C578.579 456.797 578.281 458.954 578.753 461.009C579.225 463.064 580.434 464.874 582.152 466.097C583.87 467.32 585.976 467.87 588.072 467.643C590.169 467.417 592.109 466.429 593.526 464.867V464.867Z" fill="#9E616A"/>
<path d="M605.404 284.516C605.404 284.516 612.762 273.552 627.244 259.071C634.911 256.515 648.195 258.004 652.801 259.071C674.097 287.182 675.438 285.314 680.981 301.021C682.419 305.094 683.138 309.008 682.499 312.202C679.943 324.98 684.04 389.543 684.892 392.95C685.743 396.358 691.707 400.617 685.743 400.617C679.78 400.617 589.482 397.209 591.185 394.654C592.889 392.098 605.404 284.516 605.404 284.516Z" fill="#FFC928"/>
<path d="M613.923 284.516H605.404C605.404 284.516 596.034 291.331 596.886 298.998C597.737 306.665 587.515 373.111 587.515 381.63C587.515 390.149 584.107 392.704 584.107 397.815C584.107 402.927 585.811 406.334 584.107 408.89C582.404 411.445 578.996 426.779 579.848 432.742C580.343 436.702 580.343 440.708 579.848 444.668H595.182C595.182 444.668 610.516 392.704 613.923 390.149C615.385 389.033 616.595 387.622 617.476 386.007C618.357 384.393 618.888 382.611 619.034 380.778C619.034 378.222 617.33 378.222 621.59 374.815C625.849 371.407 623.294 356.074 623.294 356.074L629.257 340.74L613.923 284.516Z" fill="#FFC928"/>
<path d="M631.42 248.167C645.043 248.167 656.087 237.123 656.087 223.5C656.087 209.876 645.043 198.833 631.42 198.833C617.797 198.833 606.753 209.876 606.753 223.5C606.753 237.123 617.797 248.167 631.42 248.167Z" fill="#9E616A"/>
<path d="M614.143 269.727L611.828 259.586C611.068 256.191 610.994 252.679 611.612 249.257C612.23 245.834 613.526 242.569 615.425 239.655C617.17 236.907 618.142 233.741 618.24 230.488C618.338 227.235 617.558 224.015 615.982 221.168C613.298 216.282 608.667 213.364 603.594 213.364H602.978V212.748C602.978 203.903 609.871 197.66 616.28 197.302C616.512 195.462 617.817 193.812 620.089 192.502C625.515 189.373 636.006 188.695 643.933 192.864C644.08 191.516 644.589 190.233 645.405 189.15C646.222 188.068 647.317 187.226 648.573 186.715C649.875 186.262 651.278 186.182 652.624 186.482C652.739 184.265 653.655 182.165 655.201 180.571C657.39 178.45 660.901 177.644 664.835 178.355C670.238 179.335 675.563 182.777 679.83 188.048C683.613 192.72 686.239 198.227 688.779 203.552C691.276 208.789 693.859 214.205 697.602 218.79C701.703 223.813 706.785 227.068 711.911 227.954C717.889 228.989 724.025 226.528 726.832 221.971L727.39 221.066L727.898 221.999C731.052 227.795 729.762 235.76 724.829 240.937C720.405 245.58 713.463 247.945 706.265 247.258C700.171 246.678 694.024 244.088 687.995 239.561C682.007 235.064 678.303 230.093 676.988 224.786C676.62 223.144 676.355 221.48 676.197 219.805C675.789 216.296 675.405 212.981 673.245 210.541C671.305 208.348 668.303 207.397 665.64 206.679L665.118 206.539C665.022 207.527 664.713 208.483 664.21 209.339C663.707 210.196 663.024 210.932 662.208 211.497C661.717 211.792 661.179 211.999 660.618 212.11C663.705 224.534 662.436 234.046 656.842 240.387C647.4 251.094 629.258 248.891 628.49 248.793L627.979 248.727L627.953 248.213C627.884 246.833 627.716 245.459 627.449 244.103C624.85 250.364 616.108 266.921 614.939 268.591L614.143 269.727Z" fill="#2F2E41"/>
</g>
<defs>
<clipPath id="clip0_818_151">
<rect width="810.804" height="685.857" fill="white"/>
</clipPath>
</defs>
</svg>
