<svg width="609" height="459" viewBox="0 0 609 459" fill="none" xmlns="http://www.w3.org/2000/svg">
<g clip-path="url(#clip0_818_105)">
<path d="M523.245 340.65V394.25H85.7549V64.3401H523.245V340.65Z" fill="white"/>
<path d="M85.7549 393.75V394.75H523.245V393.75H85.7549ZM85.7549 63.8401V64.8401H523.245V63.8401H85.7549Z" fill="#F2F2F2"/>
<path d="M466.581 358.28C466.706 358.24 466.818 358.19 466.943 358.15C467.444 357.97 467.973 357.81 468.516 357.67H468.53C468.528 357.62 468.532 357.569 468.544 357.52C467.89 357.77 467.235 358.03 466.581 358.28ZM460.247 362.84C460.275 362.81 460.289 362.78 460.317 362.75C460.456 362.56 460.623 362.36 460.79 362.17C462.116 360.69 463.744 359.514 465.565 358.72C465.696 358.652 465.831 358.592 465.969 358.54C466.132 358.462 466.299 358.392 466.47 358.33C466.512 358.31 466.539 358.3 466.581 358.28C462.503 359.85 458.382 361.38 454.206 362.84H460.247ZM0 63.3401L3.10501 115L609 65.3401V63.3401H0ZM609 340.65V395.25H0V393.25L36.105 340L271.655 393.25C320.454 393.366 369.059 387.096 416.231 374.6C417.178 374.36 418.111 374.1 419.043 373.84C423.136 372.72 427.159 371.56 431.182 370.34H431.224C439.019 368.01 446.68 365.51 454.206 362.84C458.34 361.39 462.428 359.887 466.47 358.33C466.505 358.309 466.542 358.293 466.581 358.28C467.235 358.03 467.89 357.77 468.544 357.52L471.008 356.56H471.05C479.847 353.08 488.394 349.38 496.774 345.47C497.387 345.19 497.985 344.91 498.584 344.62C503.442 342.33 508.226 339.967 512.936 337.53C518.838 334.49 524.615 331.343 530.267 328.09C541.848 321.43 552.896 314.343 563.411 306.83C574.235 299.129 584.626 290.836 594.537 281.99C598.546 278.41 602.439 274.76 606.216 271.04C607.149 270.12 608.081 269.2 609 268.27V340.65V340.65Z" fill="#F2F2F2"/>
<path d="M170.345 337.28H85.7549V341.85H170.345C170.951 341.85 171.532 341.609 171.961 341.181C172.389 340.752 172.63 340.171 172.63 339.565C172.63 338.959 172.389 338.378 171.961 337.949C171.532 337.521 170.951 337.28 170.345 337.28V337.28Z" fill="#F2F2F2"/>
<path d="M170.345 321.28H85.7549V325.85H170.345C170.951 325.85 171.532 325.609 171.961 325.181C172.389 324.752 172.63 324.171 172.63 323.565C172.63 322.959 172.389 322.378 171.961 321.949C171.532 321.521 170.951 321.28 170.345 321.28V321.28Z" fill="#F2F2F2"/>
<path d="M171.025 305.38C170.917 305.349 170.806 305.326 170.695 305.31C170.579 305.29 170.462 305.28 170.345 305.28H85.7549V309.85H170.345C170.883 309.847 171.403 309.656 171.815 309.31C172.127 309.046 172.363 308.702 172.498 308.315C172.632 307.929 172.661 307.513 172.58 307.112C172.499 306.71 172.313 306.338 172.039 306.034C171.765 305.729 171.415 305.503 171.025 305.38H171.025Z" fill="#F2F2F2"/>
<path d="M201.265 299.15L193.815 266.09L191.385 255.32C191.184 254.431 190.637 253.659 189.867 253.174C189.096 252.688 188.164 252.528 187.275 252.73L183.605 253.56L154.175 260.2C153.736 260.299 153.32 260.483 152.952 260.743C152.584 261.003 152.271 261.332 152.031 261.713C151.79 262.094 151.627 262.518 151.55 262.962C151.474 263.406 151.486 263.861 151.585 264.3C150.005 279.01 153.125 292.58 159.895 305.28C160.395 306.23 160.925 307.18 161.475 308.13C161.621 308.787 161.958 309.385 162.445 309.85C162.855 310.241 163.355 310.526 163.901 310.677C164.447 310.829 165.022 310.844 165.575 310.72L169.435 309.85L171.815 309.31L198.675 303.25C199.562 303.05 200.333 302.505 200.819 301.736C201.305 300.967 201.465 300.037 201.265 299.15V299.15Z" fill="#E6E6E6"/>
<path d="M198.185 297.31L191.085 265.86L189.385 258.31C189.198 257.479 188.688 256.756 187.968 256.3C187.248 255.845 186.376 255.693 185.545 255.88L183.285 256.39L157.095 262.3C156.264 262.487 155.541 262.997 155.085 263.717C154.63 264.437 154.478 265.309 154.665 266.14C154.895 277.59 156.095 287.98 161.025 294.32C161.586 296.786 162.79 299.059 164.515 300.909C166.24 302.759 168.424 304.118 170.845 304.85C170.905 304.87 170.955 304.89 171.015 304.91C171.055 304.92 171.105 304.94 171.145 304.95C173.424 305.591 175.826 305.653 178.135 305.13L195.755 301.15C196.586 300.963 197.309 300.453 197.765 299.733C198.22 299.013 198.371 298.141 198.185 297.31V297.31Z" fill="white"/>
<path d="M172.092 272.786C172.672 272.118 173.452 271.655 174.317 271.466C175.181 271.278 176.083 271.374 176.889 271.741C177.694 272.168 178.338 272.846 178.725 273.671C179.113 274.496 179.221 275.425 179.035 276.318C178.723 278.381 177.646 280.259 177.548 282.371C177.46 283.296 177.621 284.228 178.016 285.07C178.41 285.912 179.022 286.632 179.789 287.157C180.964 287.871 182.173 286.104 180.993 285.387C179.051 284.207 179.703 281.614 180.267 279.845C180.97 277.637 181.703 275.385 180.833 273.11C180.448 272.157 179.83 271.316 179.036 270.664C178.241 270.011 177.296 269.569 176.287 269.376C175.277 269.183 174.236 269.247 173.257 269.561C172.278 269.875 171.394 270.429 170.685 271.173C169.758 272.173 171.154 273.798 172.092 272.786V272.786Z" fill="#003DA5"/>
<path d="M181.52 293.326C182.702 293.326 183.661 292.367 183.661 291.185C183.661 290.003 182.702 289.045 181.52 289.045C180.338 289.045 179.38 290.003 179.38 291.185C179.38 292.367 180.338 293.326 181.52 293.326Z" fill="#003DA5"/>
<path d="M436.737 209.835C434.572 208.425 432.102 207.552 429.533 207.287C426.963 207.023 424.367 207.375 421.96 208.315C419.554 209.254 417.406 210.754 415.695 212.69C413.985 214.626 412.76 216.942 412.124 219.445L382.315 297.115L331.077 268.026C330.852 264.682 329.574 261.496 327.426 258.923C325.278 256.351 322.371 254.525 319.121 253.707C315.871 252.89 312.446 253.122 309.337 254.371C306.227 255.621 303.593 257.823 301.812 260.661C300.031 263.5 299.195 266.83 299.424 270.173C299.653 273.517 300.935 276.702 303.085 279.272C305.236 281.842 308.146 283.664 311.396 284.478C314.647 285.293 318.072 285.056 321.18 283.803C331.971 295.32 378.75 342.536 398.117 324.088C414.395 308.581 437.887 248.481 443.542 227.727C444.448 224.409 444.277 220.888 443.054 217.673C441.831 214.458 439.619 211.713 436.737 209.835V209.835Z" fill="#A0616A"/>
<path d="M380.764 327.342L390.17 369.859L458.955 376.081L465.277 339.06L380.764 327.342Z" fill="#A0616A"/>
<path d="M477.059 393.751H379.409L384.479 378.521L386.139 355.921L387.089 355.941L462.189 357.191L463.549 357.211L465.859 376.611C470.264 381.857 474.024 387.611 477.059 393.751V393.751Z" fill="#2F2E41"/>
<path d="M423.695 189.23L457.933 187.467L473.835 212.595C473.835 212.595 489.179 215.742 487.105 251C485.031 286.258 465.277 319.052 465.277 319.052L466.745 314.021L464.196 321.304L464.523 325.393L468 329.723L468.358 334.202L465.277 341.288L469.466 348.073L381.39 339.54L378.169 327.807L382.867 321.507L380.243 313.289L384.188 305.385L386.246 303.67C386.246 303.67 363.738 269.856 389.576 244.388L399.946 226.759L411.549 212.603L423.695 189.23Z" fill="#FFC928"/>
<path d="M311.342 238.656C302.08 235.347 290.086 236.638 283.586 244.703C277.764 251.928 277.065 263.431 284.473 269.878C293.49 277.726 305.979 274.839 315.826 270.411C324.835 266.359 334.753 259.827 334.613 248.74C334.592 245.891 333.892 243.088 332.571 240.563C331.251 238.037 329.348 235.863 327.019 234.22C324.657 232.623 321.951 231.605 319.122 231.246C316.293 230.888 313.419 231.201 310.732 232.159C308.355 233.027 309.382 236.861 311.787 235.983C313.723 235.246 315.8 234.951 317.865 235.118C319.93 235.285 321.932 235.911 323.725 236.949C325.518 237.987 327.057 239.412 328.229 241.121C329.402 242.829 330.179 244.777 330.504 246.823C331.895 256.028 324.03 261.989 316.722 265.621C308.704 269.606 298.498 273.418 289.915 268.84C282.572 264.925 281.229 255.994 285.3 249.135C290.347 240.632 301.709 239.415 310.288 242.48C312.696 243.34 313.732 239.509 311.342 238.656V238.656Z" fill="#3F3D56"/>
<path d="M134.074 161.682C127.422 159.306 118.807 160.233 114.138 166.026C109.957 171.215 109.455 179.476 114.776 184.107C121.252 189.744 130.223 187.671 137.294 184.49C143.766 181.58 150.889 176.888 150.789 168.925C150.773 166.879 150.271 164.865 149.322 163.052C148.374 161.238 147.007 159.677 145.334 158.496C143.637 157.349 141.694 156.618 139.662 156.36C137.63 156.103 135.566 156.328 133.636 157.016C131.929 157.64 132.666 160.393 134.394 159.762C135.785 159.233 137.276 159.021 138.759 159.141C140.242 159.261 141.68 159.71 142.968 160.456C144.256 161.202 145.361 162.226 146.203 163.452C147.046 164.679 147.604 166.078 147.837 167.548C148.836 174.159 143.188 178.441 137.938 181.05C132.179 183.912 124.849 186.65 118.684 183.362C113.41 180.549 112.446 174.135 115.37 169.209C118.995 163.101 127.155 162.227 133.317 164.429C135.046 165.046 135.791 162.295 134.074 161.682V161.682Z" fill="#F2F2F2"/>
<path d="M214.91 180.546C224.495 177.939 230.833 170.56 229.066 164.065C227.299 157.571 218.098 154.419 208.513 157.026C198.928 159.633 192.591 167.011 194.357 173.506C196.124 180.001 205.326 183.153 214.91 180.546Z" fill="#F2F2F2"/>
<path d="M170.347 157.901L170.382 180.295C170.395 180.684 170.559 181.052 170.839 181.322C171.119 181.593 171.493 181.744 171.882 181.744C172.271 181.744 172.645 181.593 172.925 181.322C173.205 181.052 173.368 180.684 173.382 180.295L173.347 157.901C173.333 157.512 173.169 157.144 172.889 156.874C172.61 156.603 172.236 156.452 171.847 156.452C171.458 156.452 171.084 156.603 170.804 156.874C170.524 157.144 170.36 157.512 170.347 157.901V157.901Z" fill="#F2F2F2"/>
<path d="M159.884 169.947L181.711 170C182.1 169.987 182.468 169.823 182.739 169.543C183.009 169.263 183.16 168.889 183.16 168.5C183.16 168.111 183.009 167.737 182.739 167.457C182.468 167.178 182.1 167.014 181.711 167L159.884 166.947C159.496 166.96 159.127 167.124 158.857 167.404C158.587 167.684 158.436 168.058 158.436 168.447C158.436 168.836 158.587 169.21 158.857 169.49C159.127 169.769 159.496 169.933 159.884 169.947V169.947Z" fill="#F2F2F2"/>
<path d="M86.9249 180.87C86.9522 181.209 86.8447 181.545 86.6256 181.806C86.4066 182.066 86.0937 182.229 85.7549 182.26V179.32C86.0996 179.402 86.4048 179.602 86.6183 179.885C86.8318 180.168 86.9402 180.516 86.9249 180.87V180.87Z" fill="#F2F2F2"/>
<path d="M92.2896 182.842C93.3941 182.842 94.2896 181.946 94.2896 180.842C94.2896 179.737 93.3941 178.842 92.2896 178.842C91.185 178.842 90.2896 179.737 90.2896 180.842C90.2896 181.946 91.185 182.842 92.2896 182.842Z" fill="#F2F2F2"/>
<path d="M426.105 379C432.18 379 437.105 374.075 437.105 368C437.105 361.925 432.18 357 426.105 357C420.03 357 415.105 361.925 415.105 368C415.105 374.075 420.03 379 426.105 379Z" fill="#003DA5"/>
<path d="M146.555 205.69H85.7549V210.27H146.555C147.162 210.27 147.745 210.029 148.174 209.599C148.604 209.17 148.845 208.587 148.845 207.98C148.845 207.373 148.604 206.79 148.174 206.361C147.745 205.931 147.162 205.69 146.555 205.69V205.69Z" fill="white"/>
<path d="M298.919 169.27C300.903 164.173 308.246 162.494 312.308 166.035C314.734 168.148 316.541 171.05 319.747 172.087C323.207 173.206 326.489 171.358 329.445 169.758C330.967 168.823 332.646 168.172 334.401 167.839C335.989 167.663 337.597 167.801 339.132 168.243C342.545 169.142 345.678 170.856 348.921 172.205C352.407 173.688 356.168 174.418 359.956 174.345C364.462 174.277 368.969 174.099 373.474 173.972C378.519 173.83 383.564 173.688 388.61 173.547C393.584 173.52 398.548 173.095 403.454 172.275C405.348 171.914 404.546 169.022 402.656 169.382C398.171 170.127 393.633 170.511 389.086 170.533C384.461 170.666 379.837 170.796 375.212 170.923C370.508 171.055 365.804 171.198 361.099 171.32C359.004 171.453 356.901 171.343 354.832 170.991C353.078 170.595 351.366 170.033 349.719 169.312C346.37 167.907 343.126 166.124 339.575 165.261C336.193 164.395 332.611 164.783 329.492 166.353C326.632 167.749 323.111 170.637 319.814 168.878C316.95 167.349 315.379 164.153 312.546 162.524C306.616 159.115 298.466 162.202 296.026 168.472C295.326 170.273 298.225 171.053 298.919 169.27V169.27Z" fill="#F2F2F2"/>
<path d="M306.61 193.255C308.738 190.104 311.134 186.482 315.017 185.41C315.858 185.14 316.747 185.059 317.622 185.172C318.497 185.285 319.336 185.589 320.081 186.062C321.458 186.988 322.509 188.34 323.827 189.349C326.607 191.476 329.68 191.146 332.67 189.674C335.197 188.431 338.046 185.974 341.043 186.958C343.136 187.646 344.768 189.327 346.794 190.183C347.731 190.649 348.765 190.885 349.811 190.871C350.858 190.857 351.885 190.593 352.809 190.102C353.138 189.895 353.374 189.567 353.466 189.189C353.558 188.811 353.5 188.412 353.304 188.076C353.107 187.739 352.788 187.493 352.413 187.388C352.039 187.283 351.638 187.327 351.295 187.512C349.565 188.524 347.546 187.329 346.067 186.371C344.528 185.181 342.761 184.319 340.875 183.839C337.527 183.273 334.681 185.213 331.871 186.714C330.638 187.535 329.183 187.956 327.703 187.921C326.067 187.701 324.879 186.333 323.751 185.261C322.55 183.99 321.059 183.029 319.405 182.46C317.509 181.953 315.504 182.034 313.655 182.694C309.251 184.203 306.517 188.043 304.02 191.741C302.936 193.345 305.534 194.848 306.61 193.255V193.255Z" fill="#F2F2F2"/>
<path d="M269.321 159.742C268.837 159.997 268.288 160.1 267.744 160.038C267.201 159.976 266.689 159.751 266.276 159.393C265.863 159.035 265.567 158.56 265.428 158.031C265.289 157.502 265.313 156.944 265.496 156.429C266.369 154.219 269.544 154.73 270.746 156.284C272.463 158.502 271.67 161.577 270.098 163.616C268.151 166.142 265.153 167.577 262.367 168.966C262.118 169.119 261.918 169.341 261.792 169.605C261.667 169.869 261.62 170.163 261.658 170.453C261.696 170.743 261.817 171.015 262.006 171.238C262.195 171.461 262.445 171.624 262.725 171.708L273.741 174.099C275.623 174.507 276.428 171.616 274.539 171.206L263.522 168.815L263.881 171.557C267.013 169.995 270.204 168.323 272.398 165.508C273.442 164.287 274.158 162.819 274.476 161.243C274.795 159.668 274.706 158.037 274.218 156.506C273.742 155.06 272.781 153.823 271.497 153.004C270.214 152.186 268.687 151.836 267.175 152.013C266.419 152.101 265.69 152.344 265.034 152.729C264.378 153.114 263.809 153.631 263.364 154.248C262.919 154.865 262.608 155.568 262.45 156.312C262.292 157.056 262.291 157.825 262.447 158.57C263.183 162.404 267.531 163.986 270.835 162.333C272.562 161.469 271.044 158.88 269.321 159.743V159.742Z" fill="#F2F2F2"/>
<path d="M279.789 175.342C280.894 175.342 281.789 174.446 281.789 173.342C281.789 172.237 280.894 171.342 279.789 171.342C278.685 171.342 277.789 172.237 277.789 173.342C277.789 174.446 278.685 175.342 279.789 175.342Z" fill="#F2F2F2"/>
<path d="M328.555 205.86H262.405C261.799 205.86 261.218 206.101 260.789 206.529C260.361 206.958 260.12 207.539 260.12 208.145C260.12 208.751 260.361 209.332 260.789 209.761C261.218 210.189 261.799 210.43 262.405 210.43H328.555C329.161 210.43 329.742 210.189 330.171 209.761C330.599 209.332 330.84 208.751 330.84 208.145C330.84 207.539 330.599 206.958 330.171 206.529C329.742 206.101 329.161 205.86 328.555 205.86V205.86Z" fill="#F2F2F2"/>
<path d="M280.357 253.104H198.924C198.659 253.104 198.404 252.998 198.217 252.811C198.029 252.623 197.924 252.369 197.924 252.104C197.924 251.839 198.029 251.584 198.217 251.397C198.404 251.209 198.659 251.104 198.924 251.104H280.357C280.622 251.104 280.876 251.209 281.064 251.397C281.252 251.584 281.357 251.839 281.357 252.104C281.357 252.369 281.252 252.623 281.064 252.811C280.876 252.998 280.622 253.104 280.357 253.104Z" fill="#3F3D56"/>
<path d="M193.272 266.104C198.795 266.104 203.272 261.627 203.272 256.104C203.272 250.581 198.795 246.104 193.272 246.104C187.75 246.104 183.272 250.581 183.272 256.104C183.272 261.627 187.75 266.104 193.272 266.104Z" fill="#003DA5"/>
<path d="M129.405 110.66C127.605 113.23 124.675 114.72 121.855 116.12C112.595 120.72 103.332 125.317 94.0649 129.91L94.5649 130.51L94.9149 130.94L95.4049 131.52C92.8549 134.94 90.3049 138.357 87.7549 141.77C87.0849 142.66 86.4249 143.56 85.7549 144.45V88.71C86.4249 88.44 87.0849 88.17 87.7549 87.91C94.1249 85.35 100.492 82.7967 106.855 80.25C110.165 78.93 113.685 77.58 117.185 78.19C124.235 79.41 127.515 87.44 129.555 94.3C131.165 99.72 132.645 106.02 129.405 110.66Z" fill="white"/>
<path d="M96.0149 131.97C93.2649 135.66 90.5115 139.353 87.7549 143.05C87.0849 143.94 86.4249 144.84 85.7549 145.73V143.18C86.4249 142.29 87.0949 141.39 87.7549 140.5C90.1049 137.36 92.4482 134.22 94.7849 131.08C94.8229 131.029 94.8665 130.982 94.9149 130.94C95.5349 130.42 96.5649 131.23 96.0149 131.97Z" fill="#CCCCCC"/>
<path d="M130.615 110.14C129.075 112.94 126.335 114.67 123.575 116.1C120.425 117.73 117.215 119.27 114.035 120.85C107.535 124.07 101.045 127.29 94.5649 130.51C94.5049 130.54 94.4349 130.57 94.3749 130.6C93.4949 131.04 92.5949 128.2 93.5649 126.83C97.4149 121.39 110.485 120.92 116.585 117.89C118.125 117.12 119.665 116.36 121.215 115.59C122.634 114.928 124.013 114.183 125.345 113.36C127.752 111.952 129.509 109.653 130.235 106.96C130.734 104.435 130.676 101.831 130.065 99.3299C129.505 96.62 128.753 93.9533 127.815 91.3499C126.055 86.3699 123.205 80.2999 117.525 79.0199C114.845 78.4199 112.105 79.1099 109.585 80.0099C106.645 81.0699 103.755 82.3099 100.855 83.4699C96.4849 85.2199 92.1182 86.9699 87.7549 88.7199C87.0849 88.9899 86.4249 89.2499 85.7549 89.5199V87.8899C86.4249 87.6199 87.0849 87.3499 87.7549 87.0799C93.3149 84.8599 98.8782 82.6332 104.445 80.3999C107.184 79.1423 110.046 78.1705 112.985 77.4999C115.79 76.9517 118.698 77.446 121.165 78.8899C123.629 80.533 125.613 82.8001 126.915 85.4599C128.341 88.239 129.477 91.1577 130.305 94.1699C131.805 99.2299 133.325 105.21 130.615 110.14Z" fill="#CCCCCC"/>
<path d="M94.3473 97.6216C94.3391 97.6403 94.3322 97.6593 94.3242 97.6781C92.9075 97.0884 91.316 97.0781 89.8919 97.6497C88.4678 98.2212 87.3248 99.3288 86.7089 100.734V100.734C86.0911 102.145 86.0536 103.742 86.6045 105.18C87.1554 106.618 88.2504 107.781 89.6525 108.417L89.6517 108.419L89.7238 108.451L100.383 113.121L105.085 102.389L105.054 102.376C105.062 102.358 105.071 102.341 105.079 102.323C105.702 100.9 105.735 99.2876 105.169 97.8405C104.604 96.3934 103.487 95.2301 102.064 94.6066V94.6066C101.359 94.2979 100.601 94.131 99.8315 94.1155C99.0623 94.0999 98.2977 94.236 97.5811 94.5159C96.8646 94.7959 96.2102 95.2142 95.6553 95.7471C95.1005 96.28 94.656 96.9169 94.3473 97.6216Z" fill="#003DA5"/>
<path d="M523.245 301.81C522.605 300.45 521.945 299.07 521.245 297.68C518.735 292.61 515.885 287.31 512.855 281.99C504.525 267.29 494.855 252.39 487.245 241.67V241.66C484.175 237.33 481.435 233.7 479.255 231.02C477.903 229.355 476.234 227.974 474.345 226.957C472.456 225.94 470.385 225.307 468.25 225.095C466.115 224.883 463.959 225.096 461.907 225.721C459.855 226.347 457.947 227.373 456.294 228.74C454.641 230.107 453.274 231.787 452.274 233.685C451.273 235.583 450.659 237.66 450.466 239.797C450.272 241.933 450.504 244.087 451.148 246.133C451.791 248.18 452.834 250.079 454.215 251.72L478.885 289.19L490.495 306.83L499.955 321.21L467.495 336.18L462.185 338.63L446.535 345.85L446.445 345.89C446.415 345.87 446.375 345.85 446.345 345.83C445.574 345.359 444.764 344.955 443.925 344.62C441.856 343.803 439.638 343.432 437.415 343.53C435.771 343.598 434.147 343.926 432.605 344.5C430.02 345.454 427.729 347.066 425.956 349.175C424.183 351.285 422.99 353.819 422.495 356.53C422.425 356.85 422.385 357.18 422.345 357.52C422.337 357.57 422.334 357.62 422.335 357.67H422.325C421.986 360.881 422.63 364.119 424.173 366.955C425.716 369.791 428.085 372.091 430.965 373.55C431.165 373.65 431.365 373.75 431.575 373.84C432.574 374.296 433.621 374.642 434.695 374.87C436.037 375.164 437.412 375.282 438.785 375.22C440.062 375.164 441.328 374.956 442.555 374.6H442.565C443.268 374.393 443.956 374.139 444.625 373.84C446.819 372.843 448.758 371.361 450.296 369.505C451.834 367.65 452.931 365.471 453.505 363.13C454.145 363.05 454.865 362.95 455.655 362.84C457.275 362.61 459.195 362.32 461.365 361.97C462.225 361.83 463.125 361.68 464.055 361.52C480.315 358.72 506.885 352.76 521.245 342.22C521.945 341.7 522.615 341.18 523.245 340.65V301.81Z" fill="#A0616A"/>
<path d="M495.495 0H113.505C106.148 0.00878884 99.0946 2.93527 93.8924 8.1375C88.6901 13.3397 85.7637 20.3929 85.7549 27.75V430.85C85.7641 438.206 88.691 445.258 93.8934 450.458C99.0958 455.659 106.149 458.583 113.505 458.59H495.495C502.851 458.583 509.904 455.659 515.106 450.458C520.309 445.258 523.236 438.206 523.245 430.85V27.75C523.236 20.3929 520.31 13.3397 515.107 8.1375C509.905 2.93527 502.852 0.00879941 495.495 0V0ZM521.245 430.85C521.236 437.676 518.519 444.219 513.692 449.044C508.865 453.87 502.32 456.583 495.495 456.59H113.505C106.679 456.583 100.135 453.87 95.3078 449.044C90.4804 444.219 87.7642 437.676 87.7549 430.85V27.75C87.7621 20.9229 90.4774 14.3775 95.3049 9.54999C100.132 4.72249 106.678 2.00724 113.505 2H495.495C502.322 2.00724 508.867 4.72249 513.695 9.54999C518.522 14.3775 521.238 20.9229 521.245 27.75V430.85ZM85.7549 64.84V393.25H87.7549V64.84H85.7549Z" fill="#3F3D56"/>
<path d="M448.203 129.047C458.144 129.047 466.203 120.988 466.203 111.047C466.203 101.106 458.144 93.0469 448.203 93.0469C438.262 93.0469 430.203 101.106 430.203 111.047C430.203 120.988 438.262 129.047 448.203 129.047Z" fill="#2F2E41"/>
<path d="M448.349 137.123C439.755 132.127 437.398 120.722 442.688 112.305C443.946 110.304 445.586 108.57 447.514 107.202C449.442 105.834 451.62 104.86 453.925 104.334C456.229 103.809 458.615 103.742 460.945 104.138C463.276 104.535 465.505 105.386 467.506 106.644C475.923 111.934 469.604 122.182 473.168 131.462C478.21 144.59 459.94 143.861 448.349 137.123Z" fill="#2F2E41"/>
<path d="M406.556 131.552C405.93 133.01 386.642 132.854 385.759 134.152C378.948 144.174 403.5 186.813 396.689 196.848L395.74 197.979C397.962 196.955 400.097 195.75 402.122 194.378C402.304 190.271 402.486 186.15 402.681 182.043C404.721 184.653 406.368 187.547 407.569 190.635C409.155 189.517 410.455 187.445 417.252 183.369C420.004 180.346 423.176 177.734 426.672 175.615L406.556 131.552Z" fill="#2F2E41"/>
<path d="M416.117 178.839C433.749 178.839 448.042 164.545 448.042 146.914C448.042 129.282 433.749 114.989 416.117 114.989C398.486 114.989 384.192 129.282 384.192 146.914C384.192 164.545 398.486 178.839 416.117 178.839Z" fill="#A0616A"/>
<path d="M440.364 192.904C437.764 190.732 435.955 187.761 435.217 184.455C434.626 188.47 434.781 192.559 435.672 196.517C433.943 197.817 432.266 199.052 430.68 200.17C429.48 197.082 427.833 194.188 425.793 191.578C425.598 195.685 425.416 199.806 425.234 203.913C423.209 205.286 421.074 206.49 418.852 207.514L419.801 206.383C426.612 196.348 408.986 177.878 415.797 167.856C417.708 165.049 409.077 142.861 402.5 141.86C396.651 140.976 396.898 142.666 391.231 143.901C390.642 141.446 389.729 139.081 388.514 136.869C388.838 139.334 388.763 141.836 388.293 144.278C386.279 144.356 384.693 143.072 382.548 142.744C368.861 140.651 370.252 125.846 374.06 121.154C377.882 116.474 390.568 115.071 396.417 113.55C396.95 113.03 398.159 113.355 398.692 112.861C409.901 102.602 424.894 100.903 438.385 105.45C452.773 110.299 461.743 119.684 466.347 134.152L467.668 145.73C468.853 149.453 467.362 166.774 466.347 170.547C462.402 185.212 454.001 177.891 440.364 192.904Z" fill="#2F2E41"/>
</g>
<defs>
<clipPath id="clip0_818_105">
<rect width="609" height="458.59" fill="white"/>
</clipPath>
</defs>
</svg>
