<svg width="734" height="504" viewBox="0 0 734 504" fill="none" xmlns="http://www.w3.org/2000/svg">
<g clip-path="url(#clip0_818_198)">
<path d="M45.126 90.253C39.2 90.253 33.332 89.0858 27.857 86.818C22.3821 84.5502 17.4074 81.2262 13.2171 77.0359C9.02677 72.8456 5.70281 67.8709 3.43501 62.3959C1.16722 56.921 0 51.053 0 45.127C0 39.201 1.16722 33.3329 3.43501 27.858C5.70281 22.3831 9.02677 17.4084 13.2171 13.2181C17.4074 9.02774 22.3821 5.70377 27.857 3.43597C33.332 1.16818 39.2 0.000976386 45.126 0.000976563H455.84C461.766 0.000976386 467.634 1.16818 473.109 3.43597C478.584 5.70377 483.559 9.02774 487.749 13.2181C491.939 17.4084 495.263 22.3831 497.531 27.858C499.799 33.3329 500.966 39.201 500.966 45.127C500.966 51.053 499.799 56.921 497.531 62.3959C495.263 67.8709 491.939 72.8456 487.749 77.0359C483.559 81.2262 478.584 84.5502 473.109 86.818C467.634 89.0858 461.766 90.253 455.84 90.253H45.126Z" fill="#E6E6E6"/>
<path d="M45.1257 5.88696C34.7186 5.88696 24.7378 10.0212 17.3789 17.3801C10.0199 24.739 5.88574 34.7199 5.88574 45.127C5.88574 55.534 10.0199 65.5149 17.3789 72.8738C24.7378 80.2328 34.7186 84.367 45.1257 84.367H455.84C466.247 84.367 476.228 80.2328 483.587 72.8738C490.946 65.5149 495.08 55.534 495.08 45.127C495.08 34.7199 490.946 24.739 483.587 17.3801C476.228 10.0212 466.247 5.88696 455.84 5.88696H45.1257Z" fill="white"/>
<path d="M169.714 5.88599H168.406V84.366H169.714V5.88599Z" fill="#E6E6E6"/>
<path d="M332.561 5.88599H331.253V84.366H332.561V5.88599Z" fill="#E6E6E6"/>
<path d="M331.253 5.88599H169.714V84.366H331.253V5.88599Z" fill="#003DA5"/>
<path d="M250.557 21.199C245.81 21.199 241.17 22.6065 237.223 25.2437C233.277 27.8809 230.201 31.6291 228.384 36.0146C226.568 40.4 226.092 45.2256 227.018 49.8811C227.944 54.5367 230.23 58.8131 233.587 62.1695C236.943 65.526 241.219 67.8118 245.875 68.7378C250.531 69.6639 255.356 69.1886 259.742 67.3721C264.127 65.5556 267.875 62.4794 270.512 58.5327C273.15 54.5859 274.557 49.9457 274.557 45.199C274.557 38.8338 272.029 32.7293 267.528 28.2284C263.027 23.7275 256.922 21.199 250.557 21.199V21.199ZM250.557 28.399C251.981 28.399 253.373 28.8213 254.557 29.6124C255.741 30.4035 256.664 31.528 257.209 32.8437C257.754 34.1593 257.897 35.607 257.619 37.0036C257.341 38.4003 256.655 39.6832 255.648 40.6901C254.641 41.6971 253.358 42.3828 251.962 42.6606C250.565 42.9384 249.117 42.7959 247.802 42.2509C246.486 41.7059 245.362 40.7831 244.571 39.5991C243.779 38.415 243.357 37.023 243.357 35.599C243.357 33.6896 244.116 31.8585 245.466 30.5085C246.817 29.1584 248.648 28.4 250.557 28.4V28.399ZM250.557 63.061C247.713 63.0479 244.915 62.3412 242.405 61.002C239.896 59.6628 237.751 57.7316 236.157 55.376C236.272 50.576 245.757 47.934 250.557 47.934C255.357 47.934 264.842 50.576 264.957 55.376C263.361 57.7299 261.216 59.6597 258.707 60.9987C256.198 62.3376 253.401 63.0455 250.557 63.061V63.061Z" fill="white"/>
<path d="M87.7061 21.199C82.9593 21.199 78.3192 22.6065 74.3724 25.2437C70.4256 27.8809 67.3495 31.6291 65.533 36.0146C63.7165 40.4 63.2412 45.2256 64.1672 49.8811C65.0933 54.5367 67.379 58.8131 70.7355 62.1695C74.092 65.526 78.3684 67.8118 83.0239 68.7378C87.6794 69.6639 92.505 69.1886 96.8905 67.3721C101.276 65.5556 105.024 62.4794 107.661 58.5327C110.299 54.5859 111.706 49.9457 111.706 45.199C111.706 38.8338 109.178 32.7293 104.677 28.2284C100.176 23.7275 94.0713 21.199 87.7061 21.199ZM87.7061 28.399C89.1301 28.399 90.5222 28.8213 91.7062 29.6124C92.8902 30.4035 93.8131 31.528 94.358 32.8437C94.903 34.1593 95.0455 35.607 94.7677 37.0036C94.4899 38.4003 93.8042 39.6832 92.7973 40.6901C91.7903 41.6971 90.5074 42.3828 89.1108 42.6606C87.7141 42.9384 86.2664 42.7959 84.9508 42.2509C83.6351 41.7059 82.5107 40.7831 81.7195 39.5991C80.9284 38.415 80.5061 37.023 80.5061 35.599C80.5061 33.6894 81.2646 31.8581 82.6149 30.5078C83.9652 29.1575 85.7965 28.399 87.7061 28.399V28.399ZM87.7061 63.061C84.8618 63.0479 82.0636 62.3412 79.5542 61.002C77.0449 59.6628 74.9002 57.7316 73.3061 55.376C73.4211 50.576 82.9061 47.934 87.7061 47.934C92.5061 47.934 101.991 50.576 102.106 55.376C100.51 57.7299 98.365 59.6597 95.8561 60.9987C93.3472 62.3376 90.5499 63.0455 87.7061 63.061V63.061Z" fill="#E6E6E6"/>
<path d="M413.253 21.199C408.506 21.199 403.866 22.6065 399.919 25.2437C395.973 27.8809 392.896 31.6291 391.08 36.0146C389.263 40.4 388.788 45.2256 389.714 49.8811C390.64 54.5367 392.926 58.8131 396.282 62.1695C399.639 65.526 403.915 67.8118 408.571 68.7378C413.226 69.6639 418.052 69.1886 422.437 67.3721C426.823 65.5556 430.571 62.4794 433.208 58.5327C435.845 54.5859 437.253 49.9457 437.253 45.199C437.253 38.8338 434.724 32.7293 430.224 28.2284C425.723 23.7275 419.618 21.199 413.253 21.199ZM413.253 28.399C414.677 28.399 416.069 28.8213 417.253 29.6124C418.437 30.4035 419.36 31.528 419.905 32.8437C420.45 34.1593 420.592 35.607 420.315 37.0036C420.037 38.4003 419.351 39.6832 418.344 40.6901C417.337 41.6971 416.054 42.3828 414.658 42.6606C413.261 42.9384 411.813 42.7959 410.498 42.2509C409.182 41.7059 408.058 40.7831 407.266 39.5991C406.475 38.415 406.053 37.023 406.053 35.599C406.053 33.6894 406.812 31.8581 408.162 30.5078C409.512 29.1575 411.343 28.399 413.253 28.399V28.399ZM413.253 63.061C410.409 63.0479 407.61 62.3412 405.101 61.002C402.592 59.6628 400.447 57.7316 398.853 55.376C398.968 50.576 408.453 47.934 413.253 47.934C418.053 47.934 427.538 50.576 427.653 55.376C426.057 57.7299 423.912 59.6597 421.403 60.9987C418.894 62.3376 416.097 63.0455 413.253 63.061V63.061Z" fill="#E6E6E6"/>
<path d="M272.557 123.143H228.557C225.243 123.143 222.557 125.829 222.557 129.143V173.143C222.557 176.457 225.243 179.143 228.557 179.143H272.557C275.871 179.143 278.557 176.457 278.557 173.143V129.143C278.557 125.829 275.871 123.143 272.557 123.143Z" fill="#003DA5"/>
<path d="M599.381 503.768C673.63 503.768 733.82 495.709 733.82 485.768C733.82 475.827 673.63 467.768 599.381 467.768C525.132 467.768 464.942 475.827 464.942 485.768C464.942 495.709 525.132 503.768 599.381 503.768Z" fill="#E6E6E6"/>
<path d="M435.257 122.963H391.257C387.943 122.963 385.257 125.649 385.257 128.963V172.963C385.257 176.277 387.943 178.963 391.257 178.963H435.257C438.571 178.963 441.257 176.277 441.257 172.963V128.963C441.257 125.649 438.571 122.963 435.257 122.963Z" fill="#E6E6E6"/>
<path d="M434.055 130.744H393.257V171.542H434.055V130.744Z" fill="white"/>
<path d="M247.93 159.838L240.855 150.738L244.969 147.538L248.319 151.845L259.637 139.899L263.422 143.484L247.93 159.838Z" fill="white"/>
<path d="M410.896 159.838L403.821 150.738L407.935 147.538L411.285 151.845L422.602 139.899L426.387 143.484L410.896 159.838Z" fill="#E6E6E6"/>
<path d="M109.71 122.963H65.71C62.3963 122.963 59.71 125.649 59.71 128.963V172.963C59.71 176.277 62.3963 178.963 65.71 178.963H109.71C113.024 178.963 115.71 176.277 115.71 172.963V128.963C115.71 125.649 113.024 122.963 109.71 122.963Z" fill="#E6E6E6"/>
<path d="M108.508 130.744H67.71V171.542H108.508V130.744Z" fill="white"/>
<path d="M85.3489 159.838L78.2739 150.738L82.3879 147.538L85.7379 151.845L97.0549 139.899L100.84 143.484L85.3489 159.838Z" fill="#E6E6E6"/>
<path d="M690.009 471.536H676.829L670.561 420.699H690.013L690.009 471.536Z" fill="#FFB8B8"/>
<path d="M667.409 467.769H692.827V483.769H651.409C651.409 479.525 653.095 475.456 656.095 472.455C659.096 469.455 663.166 467.769 667.409 467.769Z" fill="#2F2E41"/>
<path d="M555.359 471.536H542.179L535.911 420.699H555.363L555.359 471.536Z" fill="#FFB8B8"/>
<path d="M532.765 467.769H558.183V483.769H516.761C516.761 479.525 518.447 475.456 521.447 472.455C524.448 469.455 528.518 467.769 532.761 467.769H532.765Z" fill="#2F2E41"/>
<path d="M599.381 94.4449V88.6799C599.381 78.8192 603.298 69.3623 610.271 62.3897C617.243 55.4171 626.7 51.4999 636.561 51.4999V51.4999C646.422 51.4999 655.879 55.4171 662.851 62.3897C669.824 69.3623 673.741 78.8192 673.741 88.6799V94.4439C673.741 101.552 670.918 108.368 665.892 113.394C660.866 118.42 654.049 121.244 646.941 121.244H626.185C619.077 121.244 612.261 118.42 607.235 113.394C602.209 108.368 599.385 101.552 599.385 94.4439L599.381 94.4449Z" fill="#2F2E41"/>
<path d="M636.562 123.233C652.201 123.233 664.878 110.555 664.878 94.917C664.878 79.2785 652.201 66.601 636.562 66.601C620.924 66.601 608.246 79.2785 608.246 94.917C608.246 110.555 620.924 123.233 636.562 123.233Z" fill="#FFB8B8"/>
<path d="M482.542 192.23C483.691 191.145 485.064 190.325 486.564 189.828C488.065 189.332 489.655 189.17 491.225 189.354C492.795 189.538 494.305 190.065 495.649 190.896C496.993 191.727 498.139 192.842 499.005 194.164L523.278 189.573L529.666 203.643L495.296 209.643C492.979 210.948 490.265 211.359 487.665 210.798C485.066 210.236 482.763 208.741 481.192 206.596C479.621 204.451 478.89 201.804 479.139 199.157C479.388 196.509 480.599 194.045 482.542 192.23V192.23Z" fill="#FFB8B8"/>
<path d="M614.486 141.064L614.803 141.545L575.003 167.766L507.839 189.213C506.949 189.499 506.185 190.085 505.678 190.871C505.171 191.656 504.952 192.594 505.058 193.523L506.523 206.143C506.588 206.702 506.769 207.24 507.054 207.725C507.34 208.209 507.723 208.629 508.18 208.957C508.637 209.284 509.158 209.513 509.708 209.628C510.259 209.742 510.827 209.741 511.377 209.623L574.589 196.074C577.649 195.422 580.542 194.148 583.089 192.332L627.799 160.517C630.253 158.768 631.923 156.126 632.449 153.159C632.975 150.191 632.315 147.136 630.611 144.65C628.908 142.165 626.297 140.447 623.339 139.867C620.382 139.286 617.316 139.89 614.799 141.548L614.486 141.064Z" fill="#FFC928"/>
<path d="M677.064 457.11C676.052 457.11 675.062 456.816 674.215 456.263C673.368 455.709 672.7 454.921 672.293 453.995L611.872 304.695C611.731 304.371 611.494 304.098 611.194 303.913C610.893 303.728 610.542 303.639 610.19 303.659C609.837 303.679 609.499 303.806 609.221 304.024C608.943 304.242 608.738 304.539 608.634 304.877L559.339 450.227C559.131 450.903 558.787 451.53 558.328 452.069C557.868 452.607 557.304 453.046 556.669 453.358C556.033 453.67 555.341 453.849 554.634 453.884C553.927 453.919 553.221 453.808 552.558 453.56L536.028 447.36C535.131 447.027 534.344 446.451 533.754 445.697C533.164 444.943 532.795 444.04 532.688 443.089C525.251 378.307 590.101 214.789 590.757 213.143L590.939 212.688L650.055 225.765L650.178 225.899C673.763 251.629 693.149 413.911 696.796 446.182C696.932 447.348 696.667 448.525 696.044 449.519C695.422 450.514 694.479 451.267 693.371 451.654L678.78 456.814C678.229 457.009 677.649 457.109 677.064 457.109V457.11Z" fill="#2F2E41"/>
<path d="M626.13 231.033C611.807 231.033 595.839 228.177 590.924 216.391L590.811 216.12L590.964 215.869C594.844 209.503 599.971 198.645 597.215 196.606C591.786 192.592 589.151 185.988 589.385 176.978C589.893 157.419 603.22 140.053 622.548 133.766C627.943 132.039 633.433 130.626 638.991 129.532C643.043 128.714 647.226 128.804 651.239 129.796C655.252 130.787 658.995 132.654 662.201 135.264C665.447 137.891 668.07 141.204 669.883 144.966C671.696 148.727 672.654 152.843 672.687 157.019C672.887 177.919 669.672 207.034 653.187 227.019C652.414 227.946 651.339 228.571 650.151 228.784C642.223 230.219 634.186 230.971 626.13 231.033V231.033Z" fill="#FFC928"/>
<path d="M620.802 230.246C621.581 227.45 623.433 225.074 625.954 223.636C628.475 222.197 631.462 221.812 634.266 222.563C634.838 222.723 635.396 222.93 635.935 223.181L654.365 206.408L667.183 215.043L640.826 238.367C639.635 240.512 637.762 242.198 635.503 243.156C633.244 244.115 630.73 244.29 628.36 243.655C626.979 243.277 625.687 242.629 624.559 241.749C623.43 240.869 622.487 239.774 621.784 238.527C621.081 237.28 620.633 235.906 620.464 234.485C620.295 233.063 620.41 231.623 620.802 230.246V230.246Z" fill="#FFB8B8"/>
<path d="M651.446 230.458C650.249 230.458 649.089 230.043 648.163 229.284L640.895 223.345C640.289 222.85 639.803 222.224 639.474 221.514C639.144 220.805 638.979 220.03 638.991 219.247C639.003 218.465 639.192 217.696 639.544 216.997C639.895 216.298 640.4 215.687 641.021 215.211L671.505 191.831C671.867 191.553 672.104 191.143 672.165 190.691C672.226 190.239 672.107 189.78 671.832 189.416L653.017 164.541C650.831 161.661 649.735 158.1 649.922 154.488C650.109 150.877 651.568 147.449 654.04 144.81C656.644 141.998 660.209 140.268 664.029 139.962C667.85 139.657 671.645 140.799 674.662 143.161L674.781 143.287L694.428 171.42C696.553 173.086 698.264 175.22 699.427 177.656C700.59 180.093 701.175 182.765 701.135 185.464C701.094 188.164 700.431 190.818 699.195 193.218C697.96 195.619 696.186 197.701 694.013 199.303L654.532 229.437C653.638 230.097 652.556 230.454 651.444 230.454L651.446 230.458Z" fill="#FFC928"/>
<path d="M611.48 86.9509V72.9019L636.562 61.9459L660.478 72.8979V86.9469C660.478 87.2498 660.418 87.5496 660.302 87.8294C660.187 88.1092 660.017 88.3634 659.803 88.5775C659.588 88.7916 659.334 88.9615 659.054 89.0774C658.775 89.1933 658.475 89.2529 658.172 89.2529H613.786C613.483 89.2529 613.183 89.1933 612.904 89.0774C612.624 88.9615 612.37 88.7916 612.155 88.5775C611.941 88.3634 611.771 88.1092 611.656 87.8294C611.54 87.5496 611.48 87.2498 611.48 86.9469V86.9509Z" fill="#2F2E41"/>
<path d="M658.019 65.735C666.702 65.735 673.741 58.696 673.741 50.013C673.741 41.3299 666.702 34.291 658.019 34.291C649.336 34.291 642.297 41.3299 642.297 50.013C642.297 58.696 649.336 65.735 658.019 65.735Z" fill="#2F2E41"/>
<path d="M643.507 41.5789C643.506 39.253 644.021 36.9557 645.015 34.853C646.01 32.7503 647.459 30.8945 649.257 29.4196C651.056 27.9447 653.159 26.8874 655.416 26.324C657.673 25.7607 660.026 25.7053 662.307 26.1619C660.294 25.2135 658.103 24.7033 655.878 24.6652C653.653 24.627 651.445 25.0618 649.401 25.9407C647.357 26.8197 645.523 28.1227 644.02 29.7636C642.517 31.4045 641.38 33.3459 640.683 35.4593C639.987 37.5727 639.747 39.8098 639.98 42.0228C640.213 44.2357 640.913 46.374 642.034 48.2961C643.155 50.2181 644.672 51.8802 646.484 53.1722C648.295 54.4643 650.361 55.3569 652.543 55.7909C649.844 54.5235 647.561 52.514 645.962 49.9974C644.362 47.4807 643.512 44.5608 643.511 41.5789H643.507Z" fill="#2F2E41"/>
</g>
<defs>
<clipPath id="clip0_818_198">
<rect width="733.82" height="503.768" fill="white"/>
</clipPath>
</defs>
</svg>
