<svg width="165" height="162" viewBox="0 0 165 162" fill="none" xmlns="http://www.w3.org/2000/svg">
<g filter="url(#filter0_d_735_28)">
<path d="M159 77C159 118.385 124.786 152 82.5 152C40.2137 152 6 118.385 6 77C6 35.6148 40.2137 2 82.5 2C124.786 2 159 35.6148 159 77Z" fill="white" stroke="#F9A826" stroke-width="4"/>
<path d="M33.1286 92.3636L36.5831 102.159H36.7195L40.174 92.3636H41.6513L37.3786 104H35.924L31.6513 92.3636H33.1286ZM46.0149 104.182C45.227 104.182 44.5357 103.994 43.9411 103.619C43.3501 103.244 42.888 102.72 42.5547 102.045C42.2251 101.371 42.0604 100.583 42.0604 99.6818C42.0604 98.7727 42.2251 97.9792 42.5547 97.3011C42.888 96.6231 43.3501 96.0966 43.9411 95.7216C44.5357 95.3466 45.227 95.1591 46.0149 95.1591C46.8028 95.1591 47.4922 95.3466 48.0831 95.7216C48.6778 96.0966 49.1399 96.6231 49.4695 97.3011C49.8028 97.9792 49.9695 98.7727 49.9695 99.6818C49.9695 100.583 49.8028 101.371 49.4695 102.045C49.1399 102.72 48.6778 103.244 48.0831 103.619C47.4922 103.994 46.8028 104.182 46.0149 104.182ZM46.0149 102.977C46.6134 102.977 47.1058 102.824 47.4922 102.517C47.8786 102.21 48.1645 101.807 48.3501 101.307C48.5357 100.807 48.6286 100.265 48.6286 99.6818C48.6286 99.0985 48.5357 98.5549 48.3501 98.0511C48.1645 97.5473 47.8786 97.1402 47.4922 96.8295C47.1058 96.5189 46.6134 96.3636 46.0149 96.3636C45.4164 96.3636 44.924 96.5189 44.5376 96.8295C44.1513 97.1402 43.8653 97.5473 43.6797 98.0511C43.4941 98.5549 43.4013 99.0985 43.4013 99.6818C43.4013 100.265 43.4941 100.807 43.6797 101.307C43.8653 101.807 44.1513 102.21 44.5376 102.517C44.924 102.824 45.4164 102.977 46.0149 102.977ZM57.5163 100.432V95.2727H58.8572V104H57.5163V102.523H57.4254C57.2209 102.966 56.9027 103.343 56.4709 103.653C56.0391 103.96 55.4936 104.114 54.8345 104.114C54.2891 104.114 53.8042 103.994 53.38 103.756C52.9557 103.513 52.6224 103.15 52.38 102.665C52.1375 102.176 52.0163 101.561 52.0163 100.818V95.2727H53.3572V100.727C53.3572 101.364 53.5353 101.871 53.8913 102.25C54.2512 102.629 54.7095 102.818 55.2663 102.818C55.5997 102.818 55.9387 102.733 56.2834 102.562C56.6319 102.392 56.9235 102.131 57.1584 101.778C57.397 101.426 57.5163 100.977 57.5163 100.432ZM67.495 97.2273L66.2905 97.5682C66.2147 97.3674 66.103 97.1723 65.9553 96.983C65.8113 96.7898 65.6143 96.6307 65.3643 96.5057C65.1143 96.3807 64.7943 96.3182 64.4041 96.3182C63.87 96.3182 63.425 96.4413 63.0689 96.6875C62.7166 96.9299 62.5405 97.2386 62.5405 97.6136C62.5405 97.947 62.6617 98.2102 62.9041 98.4034C63.1465 98.5966 63.5253 98.7576 64.0405 98.8864L65.3359 99.2045C66.1162 99.3939 66.6977 99.6837 67.0803 100.074C67.4628 100.46 67.6541 100.958 67.6541 101.568C67.6541 102.068 67.5102 102.515 67.2223 102.909C66.9382 103.303 66.5405 103.614 66.0291 103.841C65.5178 104.068 64.9231 104.182 64.245 104.182C63.3549 104.182 62.6181 103.989 62.0348 103.602C61.4515 103.216 61.0821 102.652 60.9268 101.909L62.1996 101.591C62.3208 102.061 62.55 102.413 62.8871 102.648C63.228 102.883 63.6731 103 64.2223 103C64.8473 103 65.3435 102.867 65.7109 102.602C66.0821 102.333 66.2678 102.011 66.2678 101.636C66.2678 101.333 66.1617 101.08 65.9496 100.875C65.7375 100.667 65.4117 100.511 64.9723 100.409L63.5178 100.068C62.7185 99.8788 62.1314 99.5852 61.7564 99.1875C61.3852 98.786 61.1996 98.2841 61.1996 97.6818C61.1996 97.1894 61.3378 96.7538 61.6143 96.375C61.8946 95.9962 62.2753 95.6989 62.7564 95.483C63.2412 95.267 63.7905 95.1591 64.4041 95.1591C65.2678 95.1591 65.9458 95.3485 66.4382 95.7273C66.9344 96.1061 67.2867 96.6061 67.495 97.2273ZM77.8317 104.182C76.9908 104.182 76.2654 103.996 75.6555 103.625C75.0495 103.25 74.5817 102.727 74.2521 102.057C73.9264 101.383 73.7635 100.598 73.7635 99.7045C73.7635 98.8106 73.9264 98.0227 74.2521 97.3409C74.5817 96.6553 75.04 96.1212 75.6271 95.7386C76.218 95.3523 76.9074 95.1591 77.6953 95.1591C78.1499 95.1591 78.5987 95.2348 79.0419 95.3864C79.4851 95.5379 79.8885 95.7841 80.2521 96.125C80.6158 96.4621 80.9055 96.9091 81.1214 97.4659C81.3374 98.0227 81.4453 98.7083 81.4453 99.5227V100.091H74.718V98.9318H80.0817C80.0817 98.4394 79.9832 98 79.7862 97.6136C79.593 97.2273 79.3165 96.9223 78.9567 96.6989C78.6006 96.4754 78.1802 96.3636 77.6953 96.3636C77.1612 96.3636 76.6991 96.4962 76.3089 96.7614C75.9226 97.0227 75.6252 97.3636 75.4169 97.7841C75.2086 98.2045 75.1044 98.6553 75.1044 99.1364V99.9091C75.1044 100.568 75.218 101.127 75.4453 101.585C75.6764 102.04 75.9964 102.386 76.4055 102.625C76.8146 102.86 77.29 102.977 77.8317 102.977C78.1839 102.977 78.5021 102.928 78.7862 102.83C79.0741 102.727 79.3222 102.576 79.5305 102.375C79.7389 102.17 79.8999 101.917 80.0135 101.614L81.3089 101.977C81.1726 102.417 80.9434 102.803 80.6214 103.136C80.2995 103.466 79.9018 103.723 79.4283 103.909C78.9548 104.091 78.4226 104.182 77.8317 104.182ZM78.8089 94.2273L77.6271 92.6364L76.4453 94.2273H75.1726V94.1364L77.0135 91.7727H78.2408L80.0817 94.1364V94.2273H78.8089ZM87.2805 95.2727V96.4091H82.7578V95.2727H87.2805ZM84.076 93.1818H85.4169V101.5C85.4169 101.879 85.4718 102.163 85.5817 102.352C85.6953 102.538 85.8393 102.663 86.0135 102.727C86.1915 102.788 86.379 102.818 86.576 102.818C86.7237 102.818 86.8449 102.811 86.9396 102.795C87.0343 102.777 87.1101 102.761 87.1669 102.75L87.4396 103.955C87.3487 103.989 87.2218 104.023 87.0589 104.057C86.8961 104.095 86.6896 104.114 86.4396 104.114C86.0608 104.114 85.6896 104.032 85.326 103.869C84.9661 103.706 84.6669 103.458 84.4283 103.125C84.1934 102.792 84.076 102.371 84.076 101.864V93.1818ZM92.8629 104.182C92.022 104.182 91.2966 103.996 90.6868 103.625C90.0807 103.25 89.6129 102.727 89.2834 102.057C88.9576 101.383 88.7947 100.598 88.7947 99.7045C88.7947 98.8106 88.9576 98.0227 89.2834 97.3409C89.6129 96.6553 90.0713 96.1212 90.6584 95.7386C91.2493 95.3523 91.9387 95.1591 92.7266 95.1591C93.1811 95.1591 93.63 95.2348 94.0732 95.3864C94.5163 95.5379 94.9197 95.7841 95.2834 96.125C95.647 96.4621 95.9368 96.9091 96.1527 97.4659C96.3686 98.0227 96.4766 98.7083 96.4766 99.5227V100.091H89.7493V98.9318H95.1129C95.1129 98.4394 95.0144 98 94.8175 97.6136C94.6243 97.2273 94.3478 96.9223 93.9879 96.6989C93.6319 96.4754 93.2114 96.3636 92.7266 96.3636C92.1925 96.3636 91.7304 96.4962 91.3402 96.7614C90.9538 97.0227 90.6565 97.3636 90.4482 97.7841C90.2398 98.2045 90.1357 98.6553 90.1357 99.1364V99.9091C90.1357 100.568 90.2493 101.127 90.4766 101.585C90.7076 102.04 91.0277 102.386 91.4368 102.625C91.8459 102.86 92.3213 102.977 92.8629 102.977C93.2152 102.977 93.5334 102.928 93.8175 102.83C94.1054 102.727 94.3535 102.576 94.5618 102.375C94.7701 102.17 94.9311 101.917 95.0447 101.614L96.3402 101.977C96.2038 102.417 95.9747 102.803 95.6527 103.136C95.3307 103.466 94.933 103.723 94.4595 103.909C93.986 104.091 93.4538 104.182 92.8629 104.182ZM104.698 97.2273L103.494 97.5682C103.418 97.3674 103.306 97.1723 103.158 96.983C103.014 96.7898 102.817 96.6307 102.567 96.5057C102.317 96.3807 101.997 96.3182 101.607 96.3182C101.073 96.3182 100.628 96.4413 100.272 96.6875C99.9197 96.9299 99.7436 97.2386 99.7436 97.6136C99.7436 97.947 99.8648 98.2102 100.107 98.4034C100.35 98.5966 100.728 98.7576 101.244 98.8864L102.539 99.2045C103.319 99.3939 103.901 99.6837 104.283 100.074C104.666 100.46 104.857 100.958 104.857 101.568C104.857 102.068 104.713 102.515 104.425 102.909C104.141 103.303 103.744 103.614 103.232 103.841C102.721 104.068 102.126 104.182 101.448 104.182C100.558 104.182 99.8213 103.989 99.2379 103.602C98.6546 103.216 98.2853 102.652 98.13 101.909L99.4027 101.591C99.5239 102.061 99.7531 102.413 100.09 102.648C100.431 102.883 100.876 103 101.425 103C102.05 103 102.547 102.867 102.914 102.602C103.285 102.333 103.471 102.011 103.471 101.636C103.471 101.333 103.365 101.08 103.153 100.875C102.941 100.667 102.615 100.511 102.175 100.409L100.721 100.068C99.9216 99.8788 99.3345 99.5852 98.9595 99.1875C98.5883 98.786 98.4027 98.2841 98.4027 97.6818C98.4027 97.1894 98.541 96.7538 98.8175 96.375C99.0978 95.9962 99.4785 95.6989 99.9595 95.483C100.444 95.267 100.994 95.1591 101.607 95.1591C102.471 95.1591 103.149 95.3485 103.641 95.7273C104.138 96.1061 104.49 96.6061 104.698 97.2273ZM117.558 97.2273L116.353 97.5682C116.277 97.3674 116.165 97.1723 116.018 96.983C115.874 96.7898 115.677 96.6307 115.427 96.5057C115.177 96.3807 114.857 96.3182 114.467 96.3182C113.933 96.3182 113.487 96.4413 113.131 96.6875C112.779 96.9299 112.603 97.2386 112.603 97.6136C112.603 97.947 112.724 98.2102 112.967 98.4034C113.209 98.5966 113.588 98.7576 114.103 98.8864L115.398 99.2045C116.179 99.3939 116.76 99.6837 117.143 100.074C117.525 100.46 117.717 100.958 117.717 101.568C117.717 102.068 117.573 102.515 117.285 102.909C117.001 103.303 116.603 103.614 116.092 103.841C115.58 104.068 114.986 104.182 114.308 104.182C113.417 104.182 112.681 103.989 112.097 103.602C111.514 103.216 111.145 102.652 110.989 101.909L112.262 101.591C112.383 102.061 112.612 102.413 112.95 102.648C113.29 102.883 113.736 103 114.285 103C114.91 103 115.406 102.867 115.773 102.602C116.145 102.333 116.33 102.011 116.33 101.636C116.33 101.333 116.224 101.08 116.012 100.875C115.8 100.667 115.474 100.511 115.035 100.409L113.58 100.068C112.781 99.8788 112.194 99.5852 111.819 99.1875C111.448 98.786 111.262 98.2841 111.262 97.6818C111.262 97.1894 111.4 96.7538 111.677 96.375C111.957 95.9962 112.338 95.6989 112.819 95.483C113.304 95.267 113.853 95.1591 114.467 95.1591C115.33 95.1591 116.008 95.3485 116.501 95.7273C116.997 96.1061 117.349 96.6061 117.558 97.2273ZM125.235 100.432V95.2727H126.576V104H125.235V102.523H125.144C124.94 102.966 124.621 103.343 124.19 103.653C123.758 103.96 123.212 104.114 122.553 104.114C122.008 104.114 121.523 103.994 121.099 103.756C120.674 103.513 120.341 103.15 120.099 102.665C119.856 102.176 119.735 101.561 119.735 100.818V95.2727H121.076V100.727C121.076 101.364 121.254 101.871 121.61 102.25C121.97 102.629 122.428 102.818 122.985 102.818C123.318 102.818 123.657 102.733 124.002 102.562C124.351 102.392 124.642 102.131 124.877 101.778C125.116 101.426 125.235 100.977 125.235 100.432ZM129.032 104V95.2727H130.327V96.5909H130.418C130.577 96.1591 130.865 95.8087 131.282 95.5398C131.699 95.2708 132.168 95.1364 132.691 95.1364C132.79 95.1364 132.913 95.1383 133.06 95.142C133.208 95.1458 133.32 95.1515 133.396 95.1591V96.5227C133.35 96.5114 133.246 96.4943 133.083 96.4716C132.924 96.4451 132.755 96.4318 132.577 96.4318C132.153 96.4318 131.774 96.5208 131.441 96.6989C131.112 96.8731 130.85 97.1155 130.657 97.4261C130.468 97.733 130.373 98.0833 130.373 98.4773V104H129.032ZM61.8416 111.364V123H60.5007V111.364H61.8416ZM67.9567 123.182C67.1158 123.182 66.3904 122.996 65.7805 122.625C65.1745 122.25 64.7067 121.727 64.3771 121.057C64.0514 120.383 63.8885 119.598 63.8885 118.705C63.8885 117.811 64.0514 117.023 64.3771 116.341C64.7067 115.655 65.165 115.121 65.7521 114.739C66.343 114.352 67.0324 114.159 67.8203 114.159C68.2749 114.159 68.7237 114.235 69.1669 114.386C69.6101 114.538 70.0135 114.784 70.3771 115.125C70.7408 115.462 71.0305 115.909 71.2464 116.466C71.4624 117.023 71.5703 117.708 71.5703 118.523V119.091H64.843V117.932H70.2067C70.2067 117.439 70.1082 117 69.9112 116.614C69.718 116.227 69.4415 115.922 69.0817 115.699C68.7256 115.475 68.3052 115.364 67.8203 115.364C67.2862 115.364 66.8241 115.496 66.4339 115.761C66.0476 116.023 65.7502 116.364 65.5419 116.784C65.3336 117.205 65.2294 117.655 65.2294 118.136V118.909C65.2294 119.568 65.343 120.127 65.5703 120.585C65.8014 121.04 66.1214 121.386 66.5305 121.625C66.9396 121.86 67.415 121.977 67.9567 121.977C68.3089 121.977 68.6271 121.928 68.9112 121.83C69.1991 121.727 69.4472 121.576 69.6555 121.375C69.8639 121.17 70.0249 120.917 70.1385 120.614L71.4339 120.977C71.2976 121.417 71.0684 121.803 70.7464 122.136C70.4245 122.466 70.0268 122.723 69.5533 122.909C69.0798 123.091 68.5476 123.182 67.9567 123.182ZM78.2919 123V111.364H79.6328V115.659H79.7464C79.8449 115.508 79.9813 115.314 80.1555 115.08C80.3336 114.841 80.5874 114.629 80.9169 114.443C81.2502 114.254 81.701 114.159 82.2692 114.159C83.004 114.159 83.6518 114.343 84.2124 114.71C84.773 115.078 85.2105 115.598 85.5249 116.273C85.8393 116.947 85.9964 117.742 85.9964 118.659C85.9964 119.583 85.8393 120.384 85.5249 121.062C85.2105 121.737 84.7749 122.259 84.218 122.631C83.6612 122.998 83.0192 123.182 82.2919 123.182C81.7313 123.182 81.2824 123.089 80.9453 122.903C80.6082 122.714 80.3487 122.5 80.1669 122.261C79.9851 122.019 79.8449 121.818 79.7464 121.659H79.5874V123H78.2919ZM79.6101 118.636C79.6101 119.295 79.7067 119.877 79.8999 120.381C80.093 120.881 80.3752 121.273 80.7464 121.557C81.1177 121.837 81.5722 121.977 82.1101 121.977C82.6707 121.977 83.1385 121.83 83.5135 121.534C83.8923 121.235 84.1764 120.833 84.3658 120.33C84.5589 119.822 84.6555 119.258 84.6555 118.636C84.6555 118.023 84.5608 117.47 84.3714 116.977C84.1858 116.481 83.9036 116.089 83.5249 115.801C83.1499 115.509 82.6783 115.364 82.1101 115.364C81.5646 115.364 81.1063 115.502 80.7351 115.778C80.3639 116.051 80.0836 116.434 79.8942 116.926C79.7048 117.415 79.6101 117.985 79.6101 118.636ZM91.593 123.182C90.8052 123.182 90.1139 122.994 89.5192 122.619C88.9283 122.244 88.4661 121.72 88.1328 121.045C87.8033 120.371 87.6385 119.583 87.6385 118.682C87.6385 117.773 87.8033 116.979 88.1328 116.301C88.4661 115.623 88.9283 115.097 89.5192 114.722C90.1139 114.347 90.8052 114.159 91.593 114.159C92.3809 114.159 93.0703 114.347 93.6612 114.722C94.2559 115.097 94.718 115.623 95.0476 116.301C95.3809 116.979 95.5476 117.773 95.5476 118.682C95.5476 119.583 95.3809 120.371 95.0476 121.045C94.718 121.72 94.2559 122.244 93.6612 122.619C93.0703 122.994 92.3809 123.182 91.593 123.182ZM91.593 121.977C92.1915 121.977 92.6839 121.824 93.0703 121.517C93.4567 121.21 93.7427 120.807 93.9283 120.307C94.1139 119.807 94.2067 119.265 94.2067 118.682C94.2067 118.098 94.1139 117.555 93.9283 117.051C93.7427 116.547 93.4567 116.14 93.0703 115.83C92.6839 115.519 92.1915 115.364 91.593 115.364C90.9946 115.364 90.5021 115.519 90.1158 115.83C89.7294 116.14 89.4434 116.547 89.2578 117.051C89.0722 117.555 88.9794 118.098 88.9794 118.682C88.9794 119.265 89.0722 119.807 89.2578 120.307C89.4434 120.807 89.7294 121.21 90.1158 121.517C90.5021 121.824 90.9946 121.977 91.593 121.977ZM98.9354 117.75V123H97.5945V114.273H98.8899V115.636H99.0036C99.2081 115.193 99.5187 114.837 99.9354 114.568C100.352 114.295 100.89 114.159 101.549 114.159C102.14 114.159 102.657 114.28 103.1 114.523C103.543 114.761 103.888 115.125 104.134 115.614C104.38 116.098 104.504 116.712 104.504 117.455V123H103.163V117.545C103.163 116.86 102.985 116.326 102.629 115.943C102.272 115.557 101.784 115.364 101.163 115.364C100.735 115.364 100.352 115.456 100.015 115.642C99.6816 115.828 99.4183 116.098 99.2251 116.455C99.032 116.811 98.9354 117.242 98.9354 117.75ZM57.6634 142.182C56.8452 142.182 56.1406 141.989 55.5497 141.602C54.9588 141.216 54.5043 140.684 54.1861 140.006C53.8679 139.328 53.7088 138.553 53.7088 137.682C53.7088 136.795 53.8717 136.013 54.1974 135.335C54.527 134.653 54.9853 134.121 55.5724 133.739C56.1634 133.352 56.8527 133.159 57.6406 133.159C58.2543 133.159 58.8073 133.273 59.2997 133.5C59.7921 133.727 60.1955 134.045 60.5099 134.455C60.8243 134.864 61.0194 135.341 61.0952 135.886H59.7543C59.652 135.489 59.4247 135.136 59.0724 134.83C58.724 134.519 58.2543 134.364 57.6634 134.364C57.1406 134.364 56.6823 134.5 56.2884 134.773C55.8982 135.042 55.5933 135.422 55.3736 135.915C55.1577 136.403 55.0497 136.977 55.0497 137.636C55.0497 138.311 55.1558 138.898 55.3679 139.398C55.5838 139.898 55.8868 140.286 56.277 140.562C56.6709 140.839 57.133 140.977 57.6634 140.977C58.0118 140.977 58.3281 140.917 58.6122 140.795C58.8963 140.674 59.1368 140.5 59.3338 140.273C59.5308 140.045 59.6709 139.773 59.7543 139.455H61.0952C61.0194 139.97 60.8319 140.434 60.5327 140.847C60.2372 141.256 59.8452 141.581 59.3565 141.824C58.8717 142.062 58.3073 142.182 57.6634 142.182ZM64.3963 136.75V142H63.0554V130.364H64.3963V134.636H64.5099C64.7145 134.186 65.0213 133.828 65.4304 133.562C65.8433 133.294 66.3925 133.159 67.0781 133.159C67.6728 133.159 68.1937 133.278 68.6406 133.517C69.0876 133.752 69.4342 134.114 69.6804 134.602C69.9304 135.087 70.0554 135.705 70.0554 136.455V142H68.7145V136.545C68.7145 135.852 68.5346 135.316 68.1747 134.938C67.8187 134.555 67.3243 134.364 66.6918 134.364C66.2524 134.364 65.8584 134.456 65.5099 134.642C65.1652 134.828 64.8925 135.098 64.6918 135.455C64.4948 135.811 64.3963 136.242 64.3963 136.75ZM76.1676 142.182C75.3267 142.182 74.6013 141.996 73.9915 141.625C73.3854 141.25 72.9176 140.727 72.5881 140.057C72.2623 139.383 72.0994 138.598 72.0994 137.705C72.0994 136.811 72.2623 136.023 72.5881 135.341C72.9176 134.655 73.3759 134.121 73.9631 133.739C74.554 133.352 75.2434 133.159 76.0312 133.159C76.4858 133.159 76.9347 133.235 77.3778 133.386C77.821 133.538 78.2244 133.784 78.5881 134.125C78.9517 134.462 79.2415 134.909 79.4574 135.466C79.6733 136.023 79.7812 136.708 79.7812 137.523V138.091H73.054V136.932H78.4176C78.4176 136.439 78.3191 136 78.1222 135.614C77.929 135.227 77.6525 134.922 77.2926 134.699C76.9366 134.475 76.5161 134.364 76.0312 134.364C75.4972 134.364 75.035 134.496 74.6449 134.761C74.2585 135.023 73.9612 135.364 73.7528 135.784C73.5445 136.205 73.4403 136.655 73.4403 137.136V137.909C73.4403 138.568 73.554 139.127 73.7812 139.585C74.0123 140.04 74.3324 140.386 74.7415 140.625C75.1506 140.86 75.6259 140.977 76.1676 140.977C76.5199 140.977 76.8381 140.928 77.1222 140.83C77.41 140.727 77.6581 140.576 77.8665 140.375C78.0748 140.17 78.2358 139.917 78.3494 139.614L79.6449 139.977C79.5085 140.417 79.2794 140.803 78.9574 141.136C78.6354 141.466 78.2377 141.723 77.7642 141.909C77.2907 142.091 76.7585 142.182 76.1676 142.182ZM81.821 142V133.273H83.1165V134.636H83.2301C83.4119 134.17 83.7055 133.809 84.1108 133.551C84.5161 133.29 85.0028 133.159 85.571 133.159C86.1468 133.159 86.6259 133.29 87.0085 133.551C87.3949 133.809 87.696 134.17 87.9119 134.636H88.0028C88.2263 134.186 88.5616 133.828 89.0085 133.562C89.4555 133.294 89.9915 133.159 90.6165 133.159C91.3968 133.159 92.035 133.403 92.5312 133.892C93.0275 134.377 93.2756 135.133 93.2756 136.159V142H91.9347V136.159C91.9347 135.515 91.7585 135.055 91.4062 134.778C91.054 134.502 90.6392 134.364 90.1619 134.364C89.5483 134.364 89.0729 134.549 88.7358 134.92C88.3987 135.288 88.2301 135.754 88.2301 136.318V142H86.8665V136.023C86.8665 135.527 86.7055 135.127 86.3835 134.824C86.0616 134.517 85.6468 134.364 85.1392 134.364C84.7907 134.364 84.465 134.456 84.1619 134.642C83.8627 134.828 83.6203 135.085 83.4347 135.415C83.2528 135.741 83.1619 136.117 83.1619 136.545V142H81.821ZM95.7273 142V133.273H97.0682V142H95.7273ZM96.4091 131.818C96.1477 131.818 95.9223 131.729 95.733 131.551C95.5473 131.373 95.4545 131.159 95.4545 130.909C95.4545 130.659 95.5473 130.445 95.733 130.267C95.9223 130.089 96.1477 130 96.4091 130C96.6705 130 96.8939 130.089 97.0795 130.267C97.2689 130.445 97.3636 130.659 97.3636 130.909C97.3636 131.159 97.2689 131.373 97.0795 131.551C96.8939 131.729 96.6705 131.818 96.4091 131.818ZM100.865 136.75V142H99.5241V133.273H100.82V134.636H100.933C101.138 134.193 101.448 133.837 101.865 133.568C102.282 133.295 102.82 133.159 103.479 133.159C104.07 133.159 104.587 133.28 105.03 133.523C105.473 133.761 105.818 134.125 106.064 134.614C106.31 135.098 106.433 135.712 106.433 136.455V142H105.092V136.545C105.092 135.86 104.914 135.326 104.558 134.943C104.202 134.557 103.714 134.364 103.092 134.364C102.664 134.364 102.282 134.456 101.945 134.642C101.611 134.828 101.348 135.098 101.155 135.455C100.962 135.811 100.865 136.242 100.865 136.75ZM115.156 130.364L115.043 138.727H113.724L113.611 130.364H115.156ZM114.384 142.091C114.103 142.091 113.863 141.991 113.662 141.79C113.461 141.589 113.361 141.348 113.361 141.068C113.361 140.788 113.461 140.547 113.662 140.347C113.863 140.146 114.103 140.045 114.384 140.045C114.664 140.045 114.904 140.146 115.105 140.347C115.306 140.547 115.406 140.788 115.406 141.068C115.406 141.254 115.359 141.424 115.264 141.58C115.173 141.735 115.05 141.86 114.895 141.955C114.743 142.045 114.573 142.091 114.384 142.091Z" fill="black"/>
<path d="M82.8382 60L75 51.3303L79.5583 48.2806L83.2697 52.3855L95.8074 41L100 44.4171L82.8382 60Z" fill="white"/>
</g>
<g clip-path="url(#clip0_735_28)">
<g filter="url(#filter1_d_735_28)">
<path d="M52.0493 85.8852L53.7565 86.3605L56.4102 80.0288L53.8905 79.3273L52.0493 85.8852Z" fill="#FFB8B8"/>
</g>
<g filter="url(#filter2_d_735_28)">
<path d="M56.606 88.856L51.2403 87.3621L51.8199 85.2975L55.32 86.272C55.8148 86.4098 56.2344 86.7377 56.4864 87.1835C56.7385 87.6293 56.8024 88.1566 56.664 88.6494L56.606 88.856Z" fill="#2F2E41"/>
</g>
<g filter="url(#filter3_d_735_28)">
<path d="M72.4147 87.2166L74.1875 87.2165L75.0305 80.4071L72.4141 80.4072L72.4147 87.2166Z" fill="#FFB8B8"/>
</g>
<g filter="url(#filter4_d_735_28)">
<path d="M77.6065 88.8555L72.035 88.856L72.0348 86.7123L75.6691 86.712C75.9235 86.712 76.1754 86.7618 76.4105 86.8588C76.6455 86.9557 76.8591 87.0978 77.039 87.2769C77.2189 87.456 77.3616 87.6686 77.459 87.9027C77.5563 88.1367 77.6065 88.3876 77.6065 88.6409L77.6065 88.8555Z" fill="#2F2E41"/>
</g>
<g filter="url(#filter5_d_735_28)">
<path d="M59.2412 58.9465L55.1608 68.9009L71.8223 72.6284L72.0349 67.0592L64.4692 59.0342L59.2412 58.9465Z" fill="#B3B3B3"/>
</g>
<g filter="url(#filter6_d_735_28)">
<path d="M68.2811 43.4396C70.1267 42.4349 70.8051 40.1304 69.7961 38.2924C68.7872 36.4544 66.4731 35.7789 64.6274 36.7837C62.7817 37.7884 62.1034 40.0929 63.1124 41.9309C64.1213 43.7689 66.4354 44.4444 68.2811 43.4396Z" fill="#FFB8B8"/>
</g>
<g filter="url(#filter7_d_735_28)">
<path d="M69.1756 58.3957L61.634 55.3214L60.9625 50.9123C60.7648 49.6235 61.0735 48.3084 61.8246 47.2406C62.5757 46.1728 63.7112 45.4344 64.9951 45.1791L65.9926 44.9796C66.8121 44.8162 67.6592 44.8545 68.4604 45.0911C69.2617 45.3278 69.9928 45.7557 70.5903 46.3376C71.1755 46.8945 71.6132 47.587 71.8642 48.3534C72.1152 49.1198 72.1716 49.9361 72.0286 50.7296C71.9159 51.4094 71.639 52.0518 71.2218 52.6015C68.8526 55.6868 69.1567 58.2516 69.1601 58.2771L69.1756 58.3957Z" fill="#F9A826"/>
</g>
<g filter="url(#filter8_d_735_28)">
<path d="M72.2465 69.8941L68.4669 63.9082L69.6573 53.0195L68.0129 44.8758L68.1003 44.878C69.0568 44.9015 69.9675 45.2905 70.6439 45.9644C71.3203 46.6382 71.7105 47.5454 71.7337 48.4979L73.3334 56.4779L72.2465 69.8941Z" fill="#2F2E41"/>
</g>
<g filter="url(#filter9_d_735_28)">
<path d="M72.3327 85.9294C72.1734 85.9292 72.0191 85.8742 71.8959 85.7736C71.7727 85.6731 71.6882 85.5331 71.6568 85.3776L70.0009 77.1779C69.6985 75.6756 69.1289 74.2392 68.3192 72.9364L63.6469 65.4097C63.6236 65.3723 63.5905 65.3419 63.551 65.3221C63.5116 65.3022 63.4674 65.2935 63.4233 65.297C63.3792 65.3005 63.337 65.3161 63.3012 65.3419C63.2655 65.3678 63.2375 65.403 63.2206 65.4436L55.5389 83.8203C55.4771 83.9672 55.3662 84.0882 55.2249 84.1628C55.0836 84.2374 54.9207 84.261 54.764 84.2295L52.7119 83.8128C52.5361 83.7779 52.381 83.6759 52.2796 83.5286C52.1783 83.3814 52.1388 83.2005 52.1695 83.0246L53.8435 73.2C54.185 71.1974 54.7668 69.243 55.5765 67.3787L61.2459 54.3306L69.6125 57.067L70.1646 62.9011L74.0303 72.2228C74.2975 72.8666 74.4572 73.5495 74.503 74.2446L75.2172 85.018C75.2284 85.1978 75.1684 85.3748 75.0503 85.5112C74.9322 85.6477 74.7652 85.7327 74.585 85.7482L72.3896 85.9271C72.3705 85.9286 72.3515 85.9294 72.3327 85.9294Z" fill="#2F2E41"/>
</g>
<g filter="url(#filter10_d_735_28)">
<path d="M57.0701 72.5636L54.4177 70.0564L59.4304 50.807C59.7484 49.5968 60.3447 48.4767 61.1721 47.5354C61.9996 46.594 63.0355 45.8572 64.198 45.383L64.2964 45.3431L64.0286 57.0587L57.0701 72.5636Z" fill="#2F2E41"/>
</g>
<g filter="url(#filter11_d_735_28)">
<path d="M65.5667 43.8908C64.6258 43.0798 64.3396 41.5668 64.9162 40.4514C65.4927 39.336 66.8713 38.7355 68.0501 39.0864C69.1603 39.4168 70.4224 38.3146 70.2871 37.1326C70.1519 35.9507 68.6755 35.1808 67.6703 35.768C66.909 35.4637 66.0757 35.385 65.2706 35.5411C64.4654 35.6973 63.7227 36.0818 63.1317 36.6483C61.9507 37.8004 61.5027 39.6839 62.0329 41.2677C62.563 42.8515 64.043 44.0506 65.5667 43.8908Z" fill="#2F2E41"/>
</g>
<g filter="url(#filter12_d_735_28)">
<path d="M62.235 74.7161C62.1885 74.7339 62.1401 74.7463 62.0908 74.7531L56.0352 75.5949C55.8887 75.6158 55.7394 75.5864 55.6119 75.5116C55.4844 75.4367 55.3863 75.3209 55.3337 75.1832L50.1212 61.6762C50.0875 61.5888 50.073 61.4951 50.0789 61.4016C50.0848 61.3081 50.1109 61.217 50.1553 61.1344C50.1998 61.0519 50.2616 60.9798 50.3365 60.9232C50.4114 60.8666 50.4978 60.8267 50.5896 60.8063L50.5896 60.8063L56.2843 59.5407C56.3283 59.5309 56.3708 59.5154 56.4107 59.4947L61.9496 56.6108C61.9924 56.5885 62.0376 56.571 62.0843 56.5586L68.1799 54.9403C68.336 54.8986 68.5021 54.916 68.6461 54.9891C68.79 55.0622 68.9017 55.1859 68.9594 55.3363L73.5044 67.1135C73.5443 67.2161 73.5574 67.3271 73.5423 67.4361C73.5273 67.5451 73.4846 67.6485 73.4184 67.7366L71.8466 69.8386C71.7726 69.9376 71.672 70.0135 71.5564 70.0577L68.1213 71.3724C68.0967 71.3818 68.0728 71.3931 68.0499 71.4061L62.3258 74.6731C62.2967 74.6897 62.2663 74.7041 62.235 74.7161Z" fill="white"/>
</g>
<g filter="url(#filter13_d_735_28)">
<path d="M65.0524 56.7409L64.2783 56.9465L62.227 57.4913L62.2234 57.4921L59.415 58.9545L58.3728 59.4972L58.3723 59.4974L56.807 60.3123L56.7641 60.322L55.138 60.6831L54.3522 60.8581L51.1469 61.5703L56.1788 74.6095L59.4818 74.1504L60.2917 74.0377L62.0179 73.7974L62.038 73.7949L67.5849 70.6289L70.9598 69.3373L72.5006 67.2768L68.1204 55.9265L65.0524 56.7409Z" fill="#E6E6E6"/>
</g>
<g filter="url(#filter14_d_735_28)">
<path d="M68.8421 57.7965L52.155 64.1828L52.4408 64.9233L69.1278 58.537L68.8421 57.7965Z" fill="white"/>
</g>
<g filter="url(#filter15_d_735_28)">
<path d="M69.7946 60.2648L53.1076 66.6511L53.3934 67.3916L70.0804 61.0053L69.7946 60.2648Z" fill="white"/>
</g>
<g filter="url(#filter16_d_735_28)">
<path d="M71.7188 65.2508L55.0317 71.6371L55.3175 72.3776L72.0045 65.9913L71.7188 65.2508Z" fill="white"/>
</g>
<g filter="url(#filter17_d_735_28)">
<path d="M65.0523 56.7409L70.0481 69.6862L69.3046 69.9708L64.2783 56.9465L65.0523 56.7409Z" fill="white"/>
</g>
<g filter="url(#filter18_d_735_28)">
<path d="M59.415 58.9545L58.3892 61.7969L58.0335 62.7829L57.2038 65.0835L57.026 65.5753L56.8481 66.0694L56.6138 66.7183L54.9321 71.379L54.4949 70.246L55.8661 66.4454L56.1763 65.5849L56.2218 65.4592L56.5886 64.4419L57.0515 63.1588L57.4072 62.1727L58.3723 59.4974L58.3727 59.4973L59.415 58.9545Z" fill="white"/>
</g>
<g opacity="0.1" filter="url(#filter19_d_735_28)">
<path d="M67.7058 70.5827L67.5848 70.629L62.0379 73.7949L62.0178 73.7974L56.764 60.3219L56.807 60.3123L58.3723 59.4974L58.3727 59.4973L59.415 58.9545L62.2234 57.4921L62.227 57.4913L67.7058 70.5827Z" fill="black"/>
</g>
<g filter="url(#filter20_d_735_28)">
<path d="M62.26 74.7809C62.2086 74.8006 62.155 74.8144 62.1005 74.8219L56.0448 75.6638C55.8827 75.6868 55.7175 75.6543 55.5764 75.5715C55.4354 75.4887 55.3268 75.3605 55.2686 75.2081L50.0561 61.7012C50.0187 61.6044 50.0028 61.5007 50.0093 61.3973C50.0158 61.2938 50.0446 61.193 50.0938 61.1016C50.143 61.0102 50.2114 60.9305 50.2943 60.8678C50.3773 60.8052 50.4728 60.761 50.5744 60.7384L56.2691 59.4729C56.3071 59.4644 56.3438 59.451 56.3784 59.4331L61.9173 56.5492C61.9646 56.5245 62.0146 56.5051 62.0662 56.4914L68.1619 54.8732C68.3347 54.827 68.5185 54.8462 68.6778 54.9272C68.8371 55.0081 68.9607 55.145 69.0245 55.3114L73.5695 67.0886C73.6137 67.2021 73.6281 67.325 73.6115 67.4456C73.5948 67.5662 73.5476 67.6807 73.4744 67.7781L71.9025 69.8801C71.8207 69.9896 71.7094 70.0737 71.5814 70.1225L68.1463 71.4372C68.125 71.4454 68.1044 71.4551 68.0846 71.4664L62.3605 74.7334C62.3283 74.7518 62.2947 74.7677 62.26 74.7809ZM50.5723 61.0286C50.4622 61.0708 50.3733 61.1549 50.3254 61.2623C50.2774 61.3697 50.2743 61.4917 50.3166 61.6015L55.5291 75.1084C55.5649 75.2021 55.6316 75.2809 55.7183 75.3318C55.805 75.3827 55.9066 75.4027 56.0062 75.3885L62.0619 74.5466C62.1182 74.5388 62.1724 74.5203 62.2218 74.4922L67.9459 71.2253C67.978 71.2069 68.0116 71.191 68.0462 71.1778L71.4813 69.8631C71.5599 69.833 71.6284 69.7814 71.6787 69.7141L73.2505 67.6121C73.2956 67.5522 73.3246 67.4819 73.3348 67.4077C73.345 67.3336 73.3361 67.2581 73.309 67.1883L68.764 55.4111C68.7248 55.3088 68.6488 55.2247 68.5509 55.1749C68.453 55.1251 68.34 55.1133 68.2338 55.1417L62.1382 56.76C62.1065 56.7685 62.0758 56.7804 62.0467 56.7954L56.5077 59.6794C56.4515 59.7085 56.3917 59.7303 56.3299 59.7442L50.6352 61.0097C50.6138 61.0144 50.5928 61.0208 50.5723 61.0286Z" fill="#E6E6E6"/>
</g>
<g filter="url(#filter21_d_735_28)">
<path d="M55.138 60.6831L60.2917 74.0377L59.4819 74.1504L54.3521 60.858L55.138 60.6831Z" fill="white"/>
</g>
<g filter="url(#filter22_d_735_28)">
<path d="M56.6203 66.0736C56.8256 66.0736 56.992 65.9078 56.992 65.7034C56.992 65.4989 56.8256 65.3332 56.6203 65.3332C56.415 65.3332 56.2485 65.4989 56.2485 65.7034C56.2485 65.9078 56.415 66.0736 56.6203 66.0736Z" fill="#3F3D56"/>
</g>
<g filter="url(#filter23_d_735_28)">
<path d="M69.8013 66.4682C70.0066 66.4682 70.173 66.3024 70.173 66.098C70.173 65.8935 70.0066 65.7278 69.8013 65.7278C69.5959 65.7278 69.4295 65.8935 69.4295 66.098C69.4295 66.3024 69.5959 66.4682 69.8013 66.4682Z" fill="#F9A826"/>
</g>
<g filter="url(#filter24_d_735_28)">
<path d="M69.9517 59.4115C70.3737 60.5048 69.8659 64.1279 69.6874 65.2909C69.6817 65.3278 69.6664 65.3625 69.6429 65.3916C69.6194 65.4207 69.5886 65.443 69.5537 65.4564C69.5187 65.4698 69.4808 65.4737 69.4438 65.4678C69.4068 65.4619 69.372 65.4463 69.3431 65.4227C68.4283 64.6781 65.6147 62.3261 65.1928 61.2328C65.0727 60.9216 65.0153 60.5899 65.024 60.2566C65.0326 59.9234 65.1071 59.5951 65.2431 59.2905C65.3792 58.9859 65.5741 58.711 65.8168 58.4814C66.0596 58.2518 66.3453 58.0721 66.6578 57.9525C66.9703 57.8329 67.3034 57.7758 67.638 57.7844C67.9727 57.793 68.3023 57.8672 68.6082 58.0026C68.9141 58.1381 69.1901 58.3323 69.4207 58.574C69.6512 58.8157 69.8317 59.1003 69.9517 59.4115V59.4115Z" fill="#F9A826"/>
</g>
<g filter="url(#filter25_d_735_28)">
<path d="M67.5723 61.6972C68.3349 61.6972 68.9531 61.0815 68.9531 60.3221C68.9531 59.5627 68.3349 58.9471 67.5723 58.9471C66.8097 58.9471 66.1915 59.5627 66.1915 60.3221C66.1915 61.0815 66.8097 61.6972 67.5723 61.6972Z" fill="white"/>
</g>
<g filter="url(#filter26_d_735_28)">
<path d="M65.7986 57.3552C65.8545 57.1509 65.9547 56.9614 66.0921 56.7998C66.2295 56.6383 66.4008 56.5088 66.5939 56.4203C66.787 56.3318 66.9973 56.2866 67.2099 56.2878C67.4224 56.289 67.6321 56.3367 67.8242 56.4273L70.2892 54.2084L72.0086 55.3712L68.4834 58.4561C68.3091 58.7674 68.0262 59.0041 67.6883 59.1216C67.3504 59.239 66.9809 59.2289 66.65 59.0932C66.3191 58.9575 66.0496 58.7056 65.8927 58.3853C65.7358 58.0649 65.7023 57.6984 65.7986 57.3552Z" fill="#FFB8B8"/>
</g>
<g filter="url(#filter27_d_735_28)">
<path d="M69.7703 58.0794L67.8381 55.4681L72.2431 52.6606L69.0859 48.1741C68.8279 47.8076 68.7148 47.3591 68.7683 46.9147C68.8217 46.4702 69.0379 46.061 69.3755 45.7655C69.713 45.4699 70.1482 45.3088 70.5977 45.3129C71.0472 45.317 71.4793 45.4861 71.8113 45.7878L75.7645 49.3796C76.1411 49.7217 76.4332 50.1458 76.6182 50.6188C76.8033 51.0918 76.8761 51.6009 76.8311 52.1066C76.7862 52.6122 76.6246 53.1007 76.359 53.5339C76.0934 53.9672 75.731 54.3335 75.2999 54.6044L69.7703 58.0794Z" fill="#2F2E41"/>
</g>
<g filter="url(#filter28_d_735_28)">
<path d="M54.6322 64.931C54.8068 64.8103 54.9528 64.653 55.0598 64.4701C55.1668 64.2872 55.2323 64.0831 55.2515 63.8723C55.2708 63.6615 55.2434 63.449 55.1712 63.2499C55.0991 63.0508 54.984 62.8698 54.8341 62.7198L56.1113 59.665L54.4365 58.4393L52.6936 62.7784C52.4572 63.046 52.3276 63.3906 52.3292 63.747C52.3309 64.1034 52.4638 64.4468 52.7028 64.7122C52.9417 64.9775 53.2701 65.1463 53.6257 65.1867C53.9813 65.227 54.3394 65.1361 54.6322 64.931V64.931Z" fill="#FFB8B8"/>
</g>
<g filter="url(#filter29_d_735_28)">
<path d="M55.4952 61.8293L52.4745 61.1288L54.7255 54.6647C55.1134 53.5494 55.6857 52.5064 56.4187 51.5789L60.091 46.9285C60.4269 46.5031 60.9184 46.2276 61.4578 46.1623C61.9972 46.0971 62.5406 46.2474 62.9689 46.5804C63.3973 46.9133 63.6756 47.4018 63.743 47.9387C63.8104 48.4757 63.6614 49.0173 63.3286 49.4451L59.2536 54.6825L55.4952 61.8293Z" fill="#2F2E41"/>
</g>
<g filter="url(#filter30_d_735_28)">
<path d="M92.307 89H39.1395C39.1025 89 39.067 88.9854 39.0409 88.9593C39.0147 88.9332 39 88.8979 39 88.861C39 88.8242 39.0147 88.7888 39.0409 88.7628C39.067 88.7367 39.1025 88.7221 39.1395 88.7221H92.307C92.344 88.7221 92.3795 88.7367 92.4057 88.7628C92.4318 88.7888 92.4465 88.8242 92.4465 88.861C92.4465 88.8979 92.4318 88.9332 92.4057 88.9593C92.3795 88.9854 92.344 89 92.307 89Z" fill="#CCCCCC"/>
</g>
<path d="M112.93 88.9305H111.674V15.6254C111.674 15.4595 111.741 15.3004 111.858 15.1832C111.976 15.0659 112.136 15 112.302 15C112.469 15 112.629 15.0659 112.746 15.1832C112.864 15.3004 112.93 15.4595 112.93 15.6254V88.9305Z" fill="#E6E6E6"/>
<g filter="url(#filter31_d_735_28)">
<path d="M122.031 89H102.494C102.457 89 102.421 88.9854 102.395 88.9593C102.369 88.9332 102.354 88.8979 102.354 88.861C102.354 88.8242 102.369 88.7888 102.395 88.7628C102.421 88.7367 102.457 88.7221 102.494 88.7221H122.031C122.068 88.7221 122.103 88.7367 122.129 88.7628C122.155 88.7888 122.17 88.8242 122.17 88.861C122.17 88.8979 122.155 88.9332 122.129 88.9593C122.103 88.9854 122.068 89 122.031 89Z" fill="#CCCCCC"/>
</g>
<g filter="url(#filter32_d_735_28)">
<path d="M121.645 24.5887H103.371C103.205 24.5885 103.045 24.5226 102.927 24.4054C102.81 24.2881 102.744 24.1292 102.743 23.9634V18.6826C102.744 18.5168 102.81 18.3579 102.927 18.2406C103.045 18.1234 103.205 18.0575 103.371 18.0573H121.646C121.753 18.0574 121.859 18.0847 121.952 18.1366L126.678 20.7629C126.775 20.8171 126.857 20.8961 126.913 20.9918C126.97 21.0875 127 21.1965 127 21.3076C127 21.4187 126.971 21.5278 126.915 21.6238C126.858 21.7198 126.778 21.7991 126.68 21.8537L121.953 24.5081C121.859 24.5609 121.753 24.5887 121.645 24.5887Z" fill="#F9A826"/>
</g>
<g filter="url(#filter33_d_735_28)">
<path d="M119.977 35.984H101.704C101.596 35.984 101.489 35.9562 101.395 35.9034L96.6682 33.249C96.5711 33.1944 96.4902 33.1151 96.4341 33.0191C96.3779 32.9231 96.3484 32.814 96.3487 32.7029C96.3489 32.5918 96.3789 32.4828 96.4355 32.3871C96.4921 32.2914 96.5732 32.2124 96.6706 32.1582L101.396 29.5319C101.49 29.48 101.595 29.4527 101.702 29.4526H119.977C120.144 29.4528 120.304 29.5187 120.421 29.636C120.539 29.7532 120.605 29.9121 120.605 30.0779V35.3587C120.605 35.5245 120.539 35.6834 120.421 35.8007C120.304 35.9179 120.144 35.9839 119.977 35.984Z" fill="#E6E6E6"/>
</g>
<g filter="url(#filter34_d_735_28)">
<path d="M120.047 47.1709H101.773C101.665 47.1708 101.559 47.1431 101.465 47.0903L96.738 44.4359C96.6408 44.3813 96.56 44.302 96.5038 44.206C96.4477 44.11 96.4182 44.0009 96.4185 43.8898C96.4187 43.7787 96.4487 43.6697 96.5052 43.5739C96.5618 43.4782 96.643 43.3992 96.7404 43.3451L101.466 40.7188C101.56 40.6668 101.665 40.6395 101.772 40.6394H120.047C120.214 40.6396 120.373 40.7056 120.491 40.8228C120.609 40.94 120.675 41.099 120.675 41.2648V46.5455C120.675 46.7113 120.609 46.8703 120.491 46.9875C120.373 47.1048 120.214 47.1707 120.047 47.1709Z" fill="#E6E6E6"/>
</g>
</g>
<defs>
<filter id="filter0_d_735_28" x="0" y="0" width="165" height="162" filterUnits="userSpaceOnUse" color-interpolation-filters="sRGB">
<feFlood flood-opacity="0" result="BackgroundImageFix"/>
<feColorMatrix in="SourceAlpha" type="matrix" values="0 0 0 0 0 0 0 0 0 0 0 0 0 0 0 0 0 0 127 0" result="hardAlpha"/>
<feOffset dy="4"/>
<feGaussianBlur stdDeviation="2"/>
<feComposite in2="hardAlpha" operator="out"/>
<feColorMatrix type="matrix" values="0 0 0 0 0 0 0 0 0 0 0 0 0 0 0 0 0 0 0.25 0"/>
<feBlend mode="normal" in2="BackgroundImageFix" result="effect1_dropShadow_735_28"/>
<feBlend mode="normal" in="SourceGraphic" in2="effect1_dropShadow_735_28" result="shape"/>
</filter>
<filter id="filter1_d_735_28" x="48.0493" y="79.3273" width="12.3608" height="15.0331" filterUnits="userSpaceOnUse" color-interpolation-filters="sRGB">
<feFlood flood-opacity="0" result="BackgroundImageFix"/>
<feColorMatrix in="SourceAlpha" type="matrix" values="0 0 0 0 0 0 0 0 0 0 0 0 0 0 0 0 0 0 127 0" result="hardAlpha"/>
<feOffset dy="4"/>
<feGaussianBlur stdDeviation="2"/>
<feComposite in2="hardAlpha" operator="out"/>
<feColorMatrix type="matrix" values="0 0 0 0 0 0 0 0 0 0 0 0 0 0 0 0 0 0 0.25 0"/>
<feBlend mode="normal" in2="BackgroundImageFix" result="effect1_dropShadow_735_28"/>
<feBlend mode="normal" in="SourceGraphic" in2="effect1_dropShadow_735_28" result="shape"/>
</filter>
<filter id="filter2_d_735_28" x="47.2402" y="85.2975" width="13.4954" height="11.5584" filterUnits="userSpaceOnUse" color-interpolation-filters="sRGB">
<feFlood flood-opacity="0" result="BackgroundImageFix"/>
<feColorMatrix in="SourceAlpha" type="matrix" values="0 0 0 0 0 0 0 0 0 0 0 0 0 0 0 0 0 0 127 0" result="hardAlpha"/>
<feOffset dy="4"/>
<feGaussianBlur stdDeviation="2"/>
<feComposite in2="hardAlpha" operator="out"/>
<feColorMatrix type="matrix" values="0 0 0 0 0 0 0 0 0 0 0 0 0 0 0 0 0 0 0.25 0"/>
<feBlend mode="normal" in2="BackgroundImageFix" result="effect1_dropShadow_735_28"/>
<feBlend mode="normal" in="SourceGraphic" in2="effect1_dropShadow_735_28" result="shape"/>
</filter>
<filter id="filter3_d_735_28" x="68.4141" y="80.4071" width="10.6164" height="14.8095" filterUnits="userSpaceOnUse" color-interpolation-filters="sRGB">
<feFlood flood-opacity="0" result="BackgroundImageFix"/>
<feColorMatrix in="SourceAlpha" type="matrix" values="0 0 0 0 0 0 0 0 0 0 0 0 0 0 0 0 0 0 127 0" result="hardAlpha"/>
<feOffset dy="4"/>
<feGaussianBlur stdDeviation="2"/>
<feComposite in2="hardAlpha" operator="out"/>
<feColorMatrix type="matrix" values="0 0 0 0 0 0 0 0 0 0 0 0 0 0 0 0 0 0 0.25 0"/>
<feBlend mode="normal" in2="BackgroundImageFix" result="effect1_dropShadow_735_28"/>
<feBlend mode="normal" in="SourceGraphic" in2="effect1_dropShadow_735_28" result="shape"/>
</filter>
<filter id="filter4_d_735_28" x="68.0348" y="86.712" width="13.5717" height="10.144" filterUnits="userSpaceOnUse" color-interpolation-filters="sRGB">
<feFlood flood-opacity="0" result="BackgroundImageFix"/>
<feColorMatrix in="SourceAlpha" type="matrix" values="0 0 0 0 0 0 0 0 0 0 0 0 0 0 0 0 0 0 127 0" result="hardAlpha"/>
<feOffset dy="4"/>
<feGaussianBlur stdDeviation="2"/>
<feComposite in2="hardAlpha" operator="out"/>
<feColorMatrix type="matrix" values="0 0 0 0 0 0 0 0 0 0 0 0 0 0 0 0 0 0 0.25 0"/>
<feBlend mode="normal" in2="BackgroundImageFix" result="effect1_dropShadow_735_28"/>
<feBlend mode="normal" in="SourceGraphic" in2="effect1_dropShadow_735_28" result="shape"/>
</filter>
<filter id="filter5_d_735_28" x="51.1608" y="58.9465" width="24.874" height="21.6819" filterUnits="userSpaceOnUse" color-interpolation-filters="sRGB">
<feFlood flood-opacity="0" result="BackgroundImageFix"/>
<feColorMatrix in="SourceAlpha" type="matrix" values="0 0 0 0 0 0 0 0 0 0 0 0 0 0 0 0 0 0 127 0" result="hardAlpha"/>
<feOffset dy="4"/>
<feGaussianBlur stdDeviation="2"/>
<feComposite in2="hardAlpha" operator="out"/>
<feColorMatrix type="matrix" values="0 0 0 0 0 0 0 0 0 0 0 0 0 0 0 0 0 0 0.25 0"/>
<feBlend mode="normal" in2="BackgroundImageFix" result="effect1_dropShadow_735_28"/>
<feBlend mode="normal" in="SourceGraphic" in2="effect1_dropShadow_735_28" result="shape"/>
</filter>
<filter id="filter6_d_735_28" x="58.6449" y="36.3181" width="15.6187" height="15.587" filterUnits="userSpaceOnUse" color-interpolation-filters="sRGB">
<feFlood flood-opacity="0" result="BackgroundImageFix"/>
<feColorMatrix in="SourceAlpha" type="matrix" values="0 0 0 0 0 0 0 0 0 0 0 0 0 0 0 0 0 0 127 0" result="hardAlpha"/>
<feOffset dy="4"/>
<feGaussianBlur stdDeviation="2"/>
<feComposite in2="hardAlpha" operator="out"/>
<feColorMatrix type="matrix" values="0 0 0 0 0 0 0 0 0 0 0 0 0 0 0 0 0 0 0.25 0"/>
<feBlend mode="normal" in2="BackgroundImageFix" result="effect1_dropShadow_735_28"/>
<feBlend mode="normal" in="SourceGraphic" in2="effect1_dropShadow_735_28" result="shape"/>
</filter>
<filter id="filter7_d_735_28" x="56.9041" y="44.8801" width="19.2016" height="21.5157" filterUnits="userSpaceOnUse" color-interpolation-filters="sRGB">
<feFlood flood-opacity="0" result="BackgroundImageFix"/>
<feColorMatrix in="SourceAlpha" type="matrix" values="0 0 0 0 0 0 0 0 0 0 0 0 0 0 0 0 0 0 127 0" result="hardAlpha"/>
<feOffset dy="4"/>
<feGaussianBlur stdDeviation="2"/>
<feComposite in2="hardAlpha" operator="out"/>
<feColorMatrix type="matrix" values="0 0 0 0 0 0 0 0 0 0 0 0 0 0 0 0 0 0 0.25 0"/>
<feBlend mode="normal" in2="BackgroundImageFix" result="effect1_dropShadow_735_28"/>
<feBlend mode="normal" in="SourceGraphic" in2="effect1_dropShadow_735_28" result="shape"/>
</filter>
<filter id="filter8_d_735_28" x="64.0129" y="44.8758" width="13.3206" height="33.0182" filterUnits="userSpaceOnUse" color-interpolation-filters="sRGB">
<feFlood flood-opacity="0" result="BackgroundImageFix"/>
<feColorMatrix in="SourceAlpha" type="matrix" values="0 0 0 0 0 0 0 0 0 0 0 0 0 0 0 0 0 0 127 0" result="hardAlpha"/>
<feOffset dy="4"/>
<feGaussianBlur stdDeviation="2"/>
<feComposite in2="hardAlpha" operator="out"/>
<feColorMatrix type="matrix" values="0 0 0 0 0 0 0 0 0 0 0 0 0 0 0 0 0 0 0.25 0"/>
<feBlend mode="normal" in2="BackgroundImageFix" result="effect1_dropShadow_735_28"/>
<feBlend mode="normal" in="SourceGraphic" in2="effect1_dropShadow_735_28" result="shape"/>
</filter>
<filter id="filter9_d_735_28" x="48.1593" y="54.3306" width="31.0593" height="39.5987" filterUnits="userSpaceOnUse" color-interpolation-filters="sRGB">
<feFlood flood-opacity="0" result="BackgroundImageFix"/>
<feColorMatrix in="SourceAlpha" type="matrix" values="0 0 0 0 0 0 0 0 0 0 0 0 0 0 0 0 0 0 127 0" result="hardAlpha"/>
<feOffset dy="4"/>
<feGaussianBlur stdDeviation="2"/>
<feComposite in2="hardAlpha" operator="out"/>
<feColorMatrix type="matrix" values="0 0 0 0 0 0 0 0 0 0 0 0 0 0 0 0 0 0 0.25 0"/>
<feBlend mode="normal" in2="BackgroundImageFix" result="effect1_dropShadow_735_28"/>
<feBlend mode="normal" in="SourceGraphic" in2="effect1_dropShadow_735_28" result="shape"/>
</filter>
<filter id="filter10_d_735_28" x="50.4177" y="45.3431" width="17.8787" height="35.2205" filterUnits="userSpaceOnUse" color-interpolation-filters="sRGB">
<feFlood flood-opacity="0" result="BackgroundImageFix"/>
<feColorMatrix in="SourceAlpha" type="matrix" values="0 0 0 0 0 0 0 0 0 0 0 0 0 0 0 0 0 0 127 0" result="hardAlpha"/>
<feOffset dy="4"/>
<feGaussianBlur stdDeviation="2"/>
<feComposite in2="hardAlpha" operator="out"/>
<feColorMatrix type="matrix" values="0 0 0 0 0 0 0 0 0 0 0 0 0 0 0 0 0 0 0.25 0"/>
<feBlend mode="normal" in2="BackgroundImageFix" result="effect1_dropShadow_735_28"/>
<feBlend mode="normal" in="SourceGraphic" in2="effect1_dropShadow_735_28" result="shape"/>
</filter>
<filter id="filter11_d_735_28" x="57.8122" y="35.4629" width="16.4849" height="16.4422" filterUnits="userSpaceOnUse" color-interpolation-filters="sRGB">
<feFlood flood-opacity="0" result="BackgroundImageFix"/>
<feColorMatrix in="SourceAlpha" type="matrix" values="0 0 0 0 0 0 0 0 0 0 0 0 0 0 0 0 0 0 127 0" result="hardAlpha"/>
<feOffset dy="4"/>
<feGaussianBlur stdDeviation="2"/>
<feComposite in2="hardAlpha" operator="out"/>
<feColorMatrix type="matrix" values="0 0 0 0 0 0 0 0 0 0 0 0 0 0 0 0 0 0 0.25 0"/>
<feBlend mode="normal" in2="BackgroundImageFix" result="effect1_dropShadow_735_28"/>
<feBlend mode="normal" in="SourceGraphic" in2="effect1_dropShadow_735_28" result="shape"/>
</filter>
<filter id="filter12_d_735_28" x="46.0776" y="54.9181" width="31.4708" height="28.6834" filterUnits="userSpaceOnUse" color-interpolation-filters="sRGB">
<feFlood flood-opacity="0" result="BackgroundImageFix"/>
<feColorMatrix in="SourceAlpha" type="matrix" values="0 0 0 0 0 0 0 0 0 0 0 0 0 0 0 0 0 0 127 0" result="hardAlpha"/>
<feOffset dy="4"/>
<feGaussianBlur stdDeviation="2"/>
<feComposite in2="hardAlpha" operator="out"/>
<feColorMatrix type="matrix" values="0 0 0 0 0 0 0 0 0 0 0 0 0 0 0 0 0 0 0.25 0"/>
<feBlend mode="normal" in2="BackgroundImageFix" result="effect1_dropShadow_735_28"/>
<feBlend mode="normal" in="SourceGraphic" in2="effect1_dropShadow_735_28" result="shape"/>
</filter>
<filter id="filter13_d_735_28" x="47.1469" y="55.9265" width="29.3538" height="26.683" filterUnits="userSpaceOnUse" color-interpolation-filters="sRGB">
<feFlood flood-opacity="0" result="BackgroundImageFix"/>
<feColorMatrix in="SourceAlpha" type="matrix" values="0 0 0 0 0 0 0 0 0 0 0 0 0 0 0 0 0 0 127 0" result="hardAlpha"/>
<feOffset dy="4"/>
<feGaussianBlur stdDeviation="2"/>
<feComposite in2="hardAlpha" operator="out"/>
<feColorMatrix type="matrix" values="0 0 0 0 0 0 0 0 0 0 0 0 0 0 0 0 0 0 0.25 0"/>
<feBlend mode="normal" in2="BackgroundImageFix" result="effect1_dropShadow_735_28"/>
<feBlend mode="normal" in="SourceGraphic" in2="effect1_dropShadow_735_28" result="shape"/>
</filter>
<filter id="filter14_d_735_28" x="48.155" y="57.7965" width="24.9728" height="15.1268" filterUnits="userSpaceOnUse" color-interpolation-filters="sRGB">
<feFlood flood-opacity="0" result="BackgroundImageFix"/>
<feColorMatrix in="SourceAlpha" type="matrix" values="0 0 0 0 0 0 0 0 0 0 0 0 0 0 0 0 0 0 127 0" result="hardAlpha"/>
<feOffset dy="4"/>
<feGaussianBlur stdDeviation="2"/>
<feComposite in2="hardAlpha" operator="out"/>
<feColorMatrix type="matrix" values="0 0 0 0 0 0 0 0 0 0 0 0 0 0 0 0 0 0 0.25 0"/>
<feBlend mode="normal" in2="BackgroundImageFix" result="effect1_dropShadow_735_28"/>
<feBlend mode="normal" in="SourceGraphic" in2="effect1_dropShadow_735_28" result="shape"/>
</filter>
<filter id="filter15_d_735_28" x="49.1076" y="60.2648" width="24.9728" height="15.1268" filterUnits="userSpaceOnUse" color-interpolation-filters="sRGB">
<feFlood flood-opacity="0" result="BackgroundImageFix"/>
<feColorMatrix in="SourceAlpha" type="matrix" values="0 0 0 0 0 0 0 0 0 0 0 0 0 0 0 0 0 0 127 0" result="hardAlpha"/>
<feOffset dy="4"/>
<feGaussianBlur stdDeviation="2"/>
<feComposite in2="hardAlpha" operator="out"/>
<feColorMatrix type="matrix" values="0 0 0 0 0 0 0 0 0 0 0 0 0 0 0 0 0 0 0.25 0"/>
<feBlend mode="normal" in2="BackgroundImageFix" result="effect1_dropShadow_735_28"/>
<feBlend mode="normal" in="SourceGraphic" in2="effect1_dropShadow_735_28" result="shape"/>
</filter>
<filter id="filter16_d_735_28" x="51.0317" y="65.2508" width="24.9728" height="15.1268" filterUnits="userSpaceOnUse" color-interpolation-filters="sRGB">
<feFlood flood-opacity="0" result="BackgroundImageFix"/>
<feColorMatrix in="SourceAlpha" type="matrix" values="0 0 0 0 0 0 0 0 0 0 0 0 0 0 0 0 0 0 127 0" result="hardAlpha"/>
<feOffset dy="4"/>
<feGaussianBlur stdDeviation="2"/>
<feComposite in2="hardAlpha" operator="out"/>
<feColorMatrix type="matrix" values="0 0 0 0 0 0 0 0 0 0 0 0 0 0 0 0 0 0 0.25 0"/>
<feBlend mode="normal" in2="BackgroundImageFix" result="effect1_dropShadow_735_28"/>
<feBlend mode="normal" in="SourceGraphic" in2="effect1_dropShadow_735_28" result="shape"/>
</filter>
<filter id="filter17_d_735_28" x="60.2783" y="56.7409" width="13.7698" height="21.2299" filterUnits="userSpaceOnUse" color-interpolation-filters="sRGB">
<feFlood flood-opacity="0" result="BackgroundImageFix"/>
<feColorMatrix in="SourceAlpha" type="matrix" values="0 0 0 0 0 0 0 0 0 0 0 0 0 0 0 0 0 0 127 0" result="hardAlpha"/>
<feOffset dy="4"/>
<feGaussianBlur stdDeviation="2"/>
<feComposite in2="hardAlpha" operator="out"/>
<feColorMatrix type="matrix" values="0 0 0 0 0 0 0 0 0 0 0 0 0 0 0 0 0 0 0.25 0"/>
<feBlend mode="normal" in2="BackgroundImageFix" result="effect1_dropShadow_735_28"/>
<feBlend mode="normal" in="SourceGraphic" in2="effect1_dropShadow_735_28" result="shape"/>
</filter>
<filter id="filter18_d_735_28" x="50.4949" y="58.9545" width="12.9202" height="20.4245" filterUnits="userSpaceOnUse" color-interpolation-filters="sRGB">
<feFlood flood-opacity="0" result="BackgroundImageFix"/>
<feColorMatrix in="SourceAlpha" type="matrix" values="0 0 0 0 0 0 0 0 0 0 0 0 0 0 0 0 0 0 127 0" result="hardAlpha"/>
<feOffset dy="4"/>
<feGaussianBlur stdDeviation="2"/>
<feComposite in2="hardAlpha" operator="out"/>
<feColorMatrix type="matrix" values="0 0 0 0 0 0 0 0 0 0 0 0 0 0 0 0 0 0 0.25 0"/>
<feBlend mode="normal" in2="BackgroundImageFix" result="effect1_dropShadow_735_28"/>
<feBlend mode="normal" in="SourceGraphic" in2="effect1_dropShadow_735_28" result="shape"/>
</filter>
<filter id="filter19_d_735_28" x="52.764" y="57.4913" width="18.9418" height="24.3061" filterUnits="userSpaceOnUse" color-interpolation-filters="sRGB">
<feFlood flood-opacity="0" result="BackgroundImageFix"/>
<feColorMatrix in="SourceAlpha" type="matrix" values="0 0 0 0 0 0 0 0 0 0 0 0 0 0 0 0 0 0 127 0" result="hardAlpha"/>
<feOffset dy="4"/>
<feGaussianBlur stdDeviation="2"/>
<feComposite in2="hardAlpha" operator="out"/>
<feColorMatrix type="matrix" values="0 0 0 0 0 0 0 0 0 0 0 0 0 0 0 0 0 0 0.25 0"/>
<feBlend mode="normal" in2="BackgroundImageFix" result="effect1_dropShadow_735_28"/>
<feBlend mode="normal" in="SourceGraphic" in2="effect1_dropShadow_735_28" result="shape"/>
</filter>
<filter id="filter20_d_735_28" x="46.0079" y="54.8486" width="31.6103" height="28.8224" filterUnits="userSpaceOnUse" color-interpolation-filters="sRGB">
<feFlood flood-opacity="0" result="BackgroundImageFix"/>
<feColorMatrix in="SourceAlpha" type="matrix" values="0 0 0 0 0 0 0 0 0 0 0 0 0 0 0 0 0 0 127 0" result="hardAlpha"/>
<feOffset dy="4"/>
<feGaussianBlur stdDeviation="2"/>
<feComposite in2="hardAlpha" operator="out"/>
<feColorMatrix type="matrix" values="0 0 0 0 0 0 0 0 0 0 0 0 0 0 0 0 0 0 0.25 0"/>
<feBlend mode="normal" in2="BackgroundImageFix" result="effect1_dropShadow_735_28"/>
<feBlend mode="normal" in="SourceGraphic" in2="effect1_dropShadow_735_28" result="shape"/>
</filter>
<filter id="filter21_d_735_28" x="50.3521" y="60.6831" width="13.9395" height="21.4673" filterUnits="userSpaceOnUse" color-interpolation-filters="sRGB">
<feFlood flood-opacity="0" result="BackgroundImageFix"/>
<feColorMatrix in="SourceAlpha" type="matrix" values="0 0 0 0 0 0 0 0 0 0 0 0 0 0 0 0 0 0 127 0" result="hardAlpha"/>
<feOffset dy="4"/>
<feGaussianBlur stdDeviation="2"/>
<feComposite in2="hardAlpha" operator="out"/>
<feColorMatrix type="matrix" values="0 0 0 0 0 0 0 0 0 0 0 0 0 0 0 0 0 0 0.25 0"/>
<feBlend mode="normal" in2="BackgroundImageFix" result="effect1_dropShadow_735_28"/>
<feBlend mode="normal" in="SourceGraphic" in2="effect1_dropShadow_735_28" result="shape"/>
</filter>
<filter id="filter22_d_735_28" x="52.2485" y="65.3332" width="8.74347" height="8.74041" filterUnits="userSpaceOnUse" color-interpolation-filters="sRGB">
<feFlood flood-opacity="0" result="BackgroundImageFix"/>
<feColorMatrix in="SourceAlpha" type="matrix" values="0 0 0 0 0 0 0 0 0 0 0 0 0 0 0 0 0 0 127 0" result="hardAlpha"/>
<feOffset dy="4"/>
<feGaussianBlur stdDeviation="2"/>
<feComposite in2="hardAlpha" operator="out"/>
<feColorMatrix type="matrix" values="0 0 0 0 0 0 0 0 0 0 0 0 0 0 0 0 0 0 0.25 0"/>
<feBlend mode="normal" in2="BackgroundImageFix" result="effect1_dropShadow_735_28"/>
<feBlend mode="normal" in="SourceGraphic" in2="effect1_dropShadow_735_28" result="shape"/>
</filter>
<filter id="filter23_d_735_28" x="65.4295" y="65.7278" width="8.74347" height="8.74041" filterUnits="userSpaceOnUse" color-interpolation-filters="sRGB">
<feFlood flood-opacity="0" result="BackgroundImageFix"/>
<feColorMatrix in="SourceAlpha" type="matrix" values="0 0 0 0 0 0 0 0 0 0 0 0 0 0 0 0 0 0 127 0" result="hardAlpha"/>
<feOffset dy="4"/>
<feGaussianBlur stdDeviation="2"/>
<feComposite in2="hardAlpha" operator="out"/>
<feColorMatrix type="matrix" values="0 0 0 0 0 0 0 0 0 0 0 0 0 0 0 0 0 0 0.25 0"/>
<feBlend mode="normal" in2="BackgroundImageFix" result="effect1_dropShadow_735_28"/>
<feBlend mode="normal" in="SourceGraphic" in2="effect1_dropShadow_735_28" result="shape"/>
</filter>
<filter id="filter24_d_735_28" x="61.0231" y="57.7836" width="13.092" height="15.6869" filterUnits="userSpaceOnUse" color-interpolation-filters="sRGB">
<feFlood flood-opacity="0" result="BackgroundImageFix"/>
<feColorMatrix in="SourceAlpha" type="matrix" values="0 0 0 0 0 0 0 0 0 0 0 0 0 0 0 0 0 0 127 0" result="hardAlpha"/>
<feOffset dy="4"/>
<feGaussianBlur stdDeviation="2"/>
<feComposite in2="hardAlpha" operator="out"/>
<feColorMatrix type="matrix" values="0 0 0 0 0 0 0 0 0 0 0 0 0 0 0 0 0 0 0.25 0"/>
<feBlend mode="normal" in2="BackgroundImageFix" result="effect1_dropShadow_735_28"/>
<feBlend mode="normal" in="SourceGraphic" in2="effect1_dropShadow_735_28" result="shape"/>
</filter>
<filter id="filter25_d_735_28" x="62.1915" y="58.9471" width="10.7615" height="10.7501" filterUnits="userSpaceOnUse" color-interpolation-filters="sRGB">
<feFlood flood-opacity="0" result="BackgroundImageFix"/>
<feColorMatrix in="SourceAlpha" type="matrix" values="0 0 0 0 0 0 0 0 0 0 0 0 0 0 0 0 0 0 127 0" result="hardAlpha"/>
<feOffset dy="4"/>
<feGaussianBlur stdDeviation="2"/>
<feComposite in2="hardAlpha" operator="out"/>
<feColorMatrix type="matrix" values="0 0 0 0 0 0 0 0 0 0 0 0 0 0 0 0 0 0 0.25 0"/>
<feBlend mode="normal" in2="BackgroundImageFix" result="effect1_dropShadow_735_28"/>
<feBlend mode="normal" in="SourceGraphic" in2="effect1_dropShadow_735_28" result="shape"/>
</filter>
<filter id="filter26_d_735_28" x="61.7447" y="54.2084" width="14.2639" height="12.9945" filterUnits="userSpaceOnUse" color-interpolation-filters="sRGB">
<feFlood flood-opacity="0" result="BackgroundImageFix"/>
<feColorMatrix in="SourceAlpha" type="matrix" values="0 0 0 0 0 0 0 0 0 0 0 0 0 0 0 0 0 0 127 0" result="hardAlpha"/>
<feOffset dy="4"/>
<feGaussianBlur stdDeviation="2"/>
<feComposite in2="hardAlpha" operator="out"/>
<feColorMatrix type="matrix" values="0 0 0 0 0 0 0 0 0 0 0 0 0 0 0 0 0 0 0.25 0"/>
<feBlend mode="normal" in2="BackgroundImageFix" result="effect1_dropShadow_735_28"/>
<feBlend mode="normal" in="SourceGraphic" in2="effect1_dropShadow_735_28" result="shape"/>
</filter>
<filter id="filter27_d_735_28" x="63.8381" y="45.3128" width="17.0059" height="20.7666" filterUnits="userSpaceOnUse" color-interpolation-filters="sRGB">
<feFlood flood-opacity="0" result="BackgroundImageFix"/>
<feColorMatrix in="SourceAlpha" type="matrix" values="0 0 0 0 0 0 0 0 0 0 0 0 0 0 0 0 0 0 127 0" result="hardAlpha"/>
<feOffset dy="4"/>
<feGaussianBlur stdDeviation="2"/>
<feComposite in2="hardAlpha" operator="out"/>
<feColorMatrix type="matrix" values="0 0 0 0 0 0 0 0 0 0 0 0 0 0 0 0 0 0 0.25 0"/>
<feBlend mode="normal" in2="BackgroundImageFix" result="effect1_dropShadow_735_28"/>
<feBlend mode="normal" in="SourceGraphic" in2="effect1_dropShadow_735_28" result="shape"/>
</filter>
<filter id="filter28_d_735_28" x="48.3292" y="58.4393" width="11.7821" height="14.7567" filterUnits="userSpaceOnUse" color-interpolation-filters="sRGB">
<feFlood flood-opacity="0" result="BackgroundImageFix"/>
<feColorMatrix in="SourceAlpha" type="matrix" values="0 0 0 0 0 0 0 0 0 0 0 0 0 0 0 0 0 0 127 0" result="hardAlpha"/>
<feOffset dy="4"/>
<feGaussianBlur stdDeviation="2"/>
<feComposite in2="hardAlpha" operator="out"/>
<feColorMatrix type="matrix" values="0 0 0 0 0 0 0 0 0 0 0 0 0 0 0 0 0 0 0.25 0"/>
<feBlend mode="normal" in2="BackgroundImageFix" result="effect1_dropShadow_735_28"/>
<feBlend mode="normal" in="SourceGraphic" in2="effect1_dropShadow_735_28" result="shape"/>
</filter>
<filter id="filter29_d_735_28" x="48.4745" y="46.1474" width="19.2844" height="23.6819" filterUnits="userSpaceOnUse" color-interpolation-filters="sRGB">
<feFlood flood-opacity="0" result="BackgroundImageFix"/>
<feColorMatrix in="SourceAlpha" type="matrix" values="0 0 0 0 0 0 0 0 0 0 0 0 0 0 0 0 0 0 127 0" result="hardAlpha"/>
<feOffset dy="4"/>
<feGaussianBlur stdDeviation="2"/>
<feComposite in2="hardAlpha" operator="out"/>
<feColorMatrix type="matrix" values="0 0 0 0 0 0 0 0 0 0 0 0 0 0 0 0 0 0 0.25 0"/>
<feBlend mode="normal" in2="BackgroundImageFix" result="effect1_dropShadow_735_28"/>
<feBlend mode="normal" in="SourceGraphic" in2="effect1_dropShadow_735_28" result="shape"/>
</filter>
<filter id="filter30_d_735_28" x="35" y="88.7221" width="61.4465" height="8.27793" filterUnits="userSpaceOnUse" color-interpolation-filters="sRGB">
<feFlood flood-opacity="0" result="BackgroundImageFix"/>
<feColorMatrix in="SourceAlpha" type="matrix" values="0 0 0 0 0 0 0 0 0 0 0 0 0 0 0 0 0 0 127 0" result="hardAlpha"/>
<feOffset dy="4"/>
<feGaussianBlur stdDeviation="2"/>
<feComposite in2="hardAlpha" operator="out"/>
<feColorMatrix type="matrix" values="0 0 0 0 0 0 0 0 0 0 0 0 0 0 0 0 0 0 0.25 0"/>
<feBlend mode="normal" in2="BackgroundImageFix" result="effect1_dropShadow_735_28"/>
<feBlend mode="normal" in="SourceGraphic" in2="effect1_dropShadow_735_28" result="shape"/>
</filter>
<filter id="filter31_d_735_28" x="98.3544" y="88.7221" width="27.8157" height="8.27793" filterUnits="userSpaceOnUse" color-interpolation-filters="sRGB">
<feFlood flood-opacity="0" result="BackgroundImageFix"/>
<feColorMatrix in="SourceAlpha" type="matrix" values="0 0 0 0 0 0 0 0 0 0 0 0 0 0 0 0 0 0 127 0" result="hardAlpha"/>
<feOffset dy="4"/>
<feGaussianBlur stdDeviation="2"/>
<feComposite in2="hardAlpha" operator="out"/>
<feColorMatrix type="matrix" values="0 0 0 0 0 0 0 0 0 0 0 0 0 0 0 0 0 0 0.25 0"/>
<feBlend mode="normal" in2="BackgroundImageFix" result="effect1_dropShadow_735_28"/>
<feBlend mode="normal" in="SourceGraphic" in2="effect1_dropShadow_735_28" result="shape"/>
</filter>
<filter id="filter32_d_735_28" x="98.7433" y="18.0573" width="32.2567" height="14.5315" filterUnits="userSpaceOnUse" color-interpolation-filters="sRGB">
<feFlood flood-opacity="0" result="BackgroundImageFix"/>
<feColorMatrix in="SourceAlpha" type="matrix" values="0 0 0 0 0 0 0 0 0 0 0 0 0 0 0 0 0 0 127 0" result="hardAlpha"/>
<feOffset dy="4"/>
<feGaussianBlur stdDeviation="2"/>
<feComposite in2="hardAlpha" operator="out"/>
<feColorMatrix type="matrix" values="0 0 0 0 0 0 0 0 0 0 0 0 0 0 0 0 0 0 0.25 0"/>
<feBlend mode="normal" in2="BackgroundImageFix" result="effect1_dropShadow_735_28"/>
<feBlend mode="normal" in="SourceGraphic" in2="effect1_dropShadow_735_28" result="shape"/>
</filter>
<filter id="filter33_d_735_28" x="92.3487" y="29.4526" width="32.2567" height="14.5315" filterUnits="userSpaceOnUse" color-interpolation-filters="sRGB">
<feFlood flood-opacity="0" result="BackgroundImageFix"/>
<feColorMatrix in="SourceAlpha" type="matrix" values="0 0 0 0 0 0 0 0 0 0 0 0 0 0 0 0 0 0 127 0" result="hardAlpha"/>
<feOffset dy="4"/>
<feGaussianBlur stdDeviation="2"/>
<feComposite in2="hardAlpha" operator="out"/>
<feColorMatrix type="matrix" values="0 0 0 0 0 0 0 0 0 0 0 0 0 0 0 0 0 0 0.25 0"/>
<feBlend mode="normal" in2="BackgroundImageFix" result="effect1_dropShadow_735_28"/>
<feBlend mode="normal" in="SourceGraphic" in2="effect1_dropShadow_735_28" result="shape"/>
</filter>
<filter id="filter34_d_735_28" x="92.4185" y="40.6394" width="32.2567" height="14.5315" filterUnits="userSpaceOnUse" color-interpolation-filters="sRGB">
<feFlood flood-opacity="0" result="BackgroundImageFix"/>
<feColorMatrix in="SourceAlpha" type="matrix" values="0 0 0 0 0 0 0 0 0 0 0 0 0 0 0 0 0 0 127 0" result="hardAlpha"/>
<feOffset dy="4"/>
<feGaussianBlur stdDeviation="2"/>
<feComposite in2="hardAlpha" operator="out"/>
<feColorMatrix type="matrix" values="0 0 0 0 0 0 0 0 0 0 0 0 0 0 0 0 0 0 0.25 0"/>
<feBlend mode="normal" in2="BackgroundImageFix" result="effect1_dropShadow_735_28"/>
<feBlend mode="normal" in="SourceGraphic" in2="effect1_dropShadow_735_28" result="shape"/>
</filter>
<clipPath id="clip0_735_28">
<rect width="88" height="74" fill="white" transform="translate(39 15)"/>
</clipPath>
</defs>
</svg>
