<svg width="157" height="154" viewBox="0 0 157 154" fill="none" xmlns="http://www.w3.org/2000/svg">
<path d="M155 77C155 118.385 120.786 152 78.5 152C36.2137 152 2 118.385 2 77C2 35.6148 36.2137 2 78.5 2C120.786 2 155 35.6148 155 77Z" fill="white" stroke="#F9A826" stroke-width="4"/>
<path d="M51.1856 93.9091V107H49.6515L42.518 96.7216H42.3902V107H40.805V93.9091H42.339L49.4981 104.213H49.626V93.9091H51.1856ZM58.1418 107.205C57.2554 107.205 56.4777 106.994 55.8087 106.572C55.1439 106.15 54.624 105.56 54.249 104.801C53.8783 104.043 53.6929 103.156 53.6929 102.142C53.6929 101.119 53.8783 100.227 54.249 99.4638C54.624 98.701 55.1439 98.1087 55.8087 97.6868C56.4777 97.2649 57.2554 97.054 58.1418 97.054C59.0281 97.054 59.8037 97.2649 60.4685 97.6868C61.1375 98.1087 61.6574 98.701 62.0281 99.4638C62.4031 100.227 62.5906 101.119 62.5906 102.142C62.5906 103.156 62.4031 104.043 62.0281 104.801C61.6574 105.56 61.1375 106.15 60.4685 106.572C59.8037 106.994 59.0281 107.205 58.1418 107.205ZM58.1418 105.849C58.8151 105.849 59.3691 105.677 59.8037 105.332C60.2384 104.987 60.5601 104.533 60.7689 103.97C60.9777 103.408 61.0821 102.798 61.0821 102.142C61.0821 101.486 60.9777 100.874 60.7689 100.308C60.5601 99.7408 60.2384 99.2827 59.8037 98.9332C59.3691 98.5838 58.8151 98.4091 58.1418 98.4091C57.4685 98.4091 56.9145 98.5838 56.4798 98.9332C56.0452 99.2827 55.7235 99.7408 55.5146 100.308C55.3058 100.874 55.2014 101.486 55.2014 102.142C55.2014 102.798 55.3058 103.408 55.5146 103.97C55.7235 104.533 56.0452 104.987 56.4798 105.332C56.9145 105.677 57.4685 105.849 58.1418 105.849ZM71.0809 102.986V97.1818H72.5894V107H71.0809V105.338H70.9786C70.7485 105.837 70.3905 106.261 69.9047 106.61C69.4189 106.955 68.8053 107.128 68.0638 107.128C67.4502 107.128 66.9047 106.994 66.4275 106.725C65.9502 106.452 65.5752 106.043 65.3025 105.498C65.0297 104.948 64.8934 104.256 64.8934 103.42V97.1818H66.4019V103.318C66.4019 104.034 66.6022 104.605 67.0028 105.031C67.4076 105.457 67.9232 105.67 68.5496 105.67C68.9246 105.67 69.306 105.575 69.6938 105.383C70.0858 105.191 70.414 104.897 70.6782 104.501C70.9466 104.104 71.0809 103.599 71.0809 102.986ZM83.3808 97.1818L79.7501 107H78.216L74.5853 97.1818H76.2217L78.9319 105.006H79.0342L81.7444 97.1818H83.3808ZM89.1368 107.205C88.1908 107.205 87.3747 106.996 86.6887 106.578C86.0068 106.156 85.4806 105.568 85.1098 104.814C84.7433 104.055 84.5601 103.173 84.5601 102.168C84.5601 101.162 84.7433 100.276 85.1098 99.5085C85.4806 98.7372 85.9962 98.1364 86.6567 97.706C87.3215 97.2713 88.097 97.054 88.9834 97.054C89.4948 97.054 89.9997 97.1392 90.4983 97.3097C90.9969 97.4801 91.4507 97.7571 91.8598 98.1406C92.2689 98.5199 92.5949 99.0227 92.8378 99.6491C93.0807 100.276 93.2021 101.047 93.2021 101.963V102.602H85.634V101.298H91.6681C91.6681 100.744 91.5573 100.25 91.3357 99.8153C91.1183 99.3807 90.8073 99.0376 90.4024 98.7862C90.0019 98.5348 89.5289 98.4091 88.9834 98.4091C88.3825 98.4091 87.8627 98.5582 87.4237 98.8565C86.9891 99.1506 86.6546 99.5341 86.4202 100.007C86.1858 100.48 86.0686 100.987 86.0686 101.528V102.398C86.0686 103.139 86.1965 103.768 86.4521 104.283C86.7121 104.795 87.0722 105.185 87.5324 105.453C87.9926 105.717 88.5274 105.849 89.1368 105.849C89.5331 105.849 89.8911 105.794 90.2107 105.683C90.5345 105.568 90.8137 105.398 91.048 105.172C91.2824 104.942 91.4635 104.656 91.5914 104.315L93.0487 104.724C92.8953 105.219 92.6375 105.653 92.2753 106.028C91.9131 106.399 91.4656 106.689 90.933 106.898C90.4003 107.102 89.8016 107.205 89.1368 107.205ZM98.3861 107.23C97.7639 107.23 97.1993 107.113 96.6922 106.879C96.1851 106.64 95.7824 106.297 95.4841 105.849C95.1858 105.398 95.0367 104.852 95.0367 104.213C95.0367 103.651 95.1475 103.195 95.3691 102.845C95.5906 102.491 95.8868 102.214 96.2575 102.014C96.6283 101.814 97.0374 101.665 97.4848 101.567C97.9365 101.464 98.3904 101.384 98.8463 101.324C99.4429 101.247 99.9266 101.19 100.297 101.151C100.672 101.109 100.945 101.038 101.116 100.94C101.29 100.842 101.378 100.672 101.378 100.429V100.378C101.378 99.7472 101.205 99.2571 100.86 98.9077C100.519 98.5582 100.001 98.3835 99.3066 98.3835C98.5864 98.3835 98.0218 98.5412 97.6127 98.8565C97.2036 99.1719 96.9159 99.5085 96.7497 99.8665L95.3179 99.3551C95.5736 98.7585 95.9145 98.294 96.3406 97.9616C96.771 97.625 97.2398 97.3906 97.7469 97.2585C98.2583 97.1222 98.7611 97.054 99.2554 97.054C99.5708 97.054 99.933 97.0923 100.342 97.169C100.755 97.2415 101.154 97.3928 101.537 97.6229C101.925 97.853 102.247 98.2003 102.503 98.6648C102.758 99.1293 102.886 99.7514 102.886 100.531V107H101.378V105.67H101.301C101.199 105.884 101.028 106.112 100.79 106.354C100.551 106.597 100.233 106.804 99.8371 106.974C99.4408 107.145 98.9571 107.23 98.3861 107.23ZM98.6162 105.875C99.2128 105.875 99.7156 105.758 100.125 105.523C100.538 105.289 100.849 104.987 101.058 104.616C101.271 104.245 101.378 103.855 101.378 103.446V102.065C101.314 102.142 101.173 102.212 100.956 102.276C100.743 102.336 100.495 102.389 100.214 102.436C99.9372 102.479 99.6666 102.517 99.4024 102.551C99.1425 102.581 98.9316 102.607 98.7696 102.628C98.3776 102.679 98.0111 102.762 97.6702 102.877C97.3335 102.988 97.0608 103.156 96.852 103.382C96.6475 103.604 96.5452 103.906 96.5452 104.29C96.5452 104.814 96.7391 105.21 97.1269 105.479C97.5189 105.743 98.0154 105.875 98.6162 105.875ZM111.827 102.986V97.1818H113.335V107H111.827V105.338H111.725C111.495 105.837 111.137 106.261 110.651 106.61C110.165 106.955 109.551 107.128 108.81 107.128C108.196 107.128 107.651 106.994 107.174 106.725C106.696 106.452 106.321 106.043 106.049 105.498C105.776 104.948 105.639 104.256 105.639 103.42V97.1818H107.148V103.318C107.148 104.034 107.348 104.605 107.749 105.031C108.154 105.457 108.669 105.67 109.296 105.67C109.671 105.67 110.052 105.575 110.44 105.383C110.832 105.191 111.16 104.897 111.424 104.501C111.693 104.104 111.827 103.599 111.827 102.986ZM54.2762 132.682V119.182H55.7336V120.741H55.9126C56.0233 120.571 56.1768 120.354 56.3728 120.089C56.5731 119.821 56.8586 119.582 57.2293 119.374C57.6043 119.161 58.1114 119.054 58.7506 119.054C59.5773 119.054 60.306 119.261 60.9367 119.674C61.5674 120.087 62.0596 120.673 62.4133 121.432C62.767 122.19 62.9438 123.085 62.9438 124.116C62.9438 125.156 62.767 126.058 62.4133 126.82C62.0596 127.579 61.5695 128.167 60.9431 128.585C60.3167 128.998 59.5944 129.205 58.7762 129.205C58.1455 129.205 57.6405 129.1 57.2613 128.891C56.882 128.678 56.5901 128.437 56.3856 128.169C56.181 127.896 56.0233 127.67 55.9126 127.491H55.7847V132.682H54.2762ZM55.7591 124.091C55.7591 124.832 55.8678 125.487 56.0851 126.053C56.3025 126.616 56.6199 127.057 57.0376 127.376C57.4552 127.692 57.9665 127.849 58.5716 127.849C59.2023 127.849 59.7286 127.683 60.1505 127.351C60.5766 127.014 60.8962 126.562 61.1093 125.996C61.3266 125.425 61.4353 124.79 61.4353 124.091C61.4353 123.401 61.3287 122.778 61.1157 122.224C60.9069 121.666 60.5894 121.225 60.1633 120.901C59.7414 120.573 59.2108 120.409 58.5716 120.409C57.958 120.409 57.4424 120.565 57.0248 120.876C56.6072 121.183 56.2918 121.613 56.0787 122.167C55.8657 122.717 55.7591 123.358 55.7591 124.091ZM65.2449 129V119.182H66.7023V120.665H66.8046C66.9836 120.179 67.3074 119.785 67.7762 119.482C68.2449 119.18 68.7733 119.028 69.3614 119.028C69.4722 119.028 69.6107 119.031 69.7769 119.035C69.9431 119.039 70.0688 119.045 70.154 119.054V120.588C70.1029 120.575 69.9857 120.556 69.8025 120.531C69.6235 120.501 69.4339 120.486 69.2336 120.486C68.7563 120.486 68.3302 120.586 67.9552 120.786C67.5844 120.982 67.2904 121.255 67.0731 121.604C66.86 121.95 66.7535 122.344 66.7535 122.787V129H65.2449ZM75.632 129.205C74.7457 129.205 73.968 128.994 73.2989 128.572C72.6341 128.15 72.1143 127.56 71.7393 126.801C71.3685 126.043 71.1831 125.156 71.1831 124.142C71.1831 123.119 71.3685 122.227 71.7393 121.464C72.1143 120.701 72.6341 120.109 73.2989 119.687C73.968 119.265 74.7457 119.054 75.632 119.054C76.5184 119.054 77.2939 119.265 77.9587 119.687C78.6278 120.109 79.1476 120.701 79.5184 121.464C79.8934 122.227 80.0809 123.119 80.0809 124.142C80.0809 125.156 79.8934 126.043 79.5184 126.801C79.1476 127.56 78.6278 128.15 77.9587 128.572C77.2939 128.994 76.5184 129.205 75.632 129.205ZM75.632 127.849C76.3053 127.849 76.8593 127.677 77.2939 127.332C77.7286 126.987 78.0503 126.533 78.2591 125.97C78.468 125.408 78.5724 124.798 78.5724 124.142C78.5724 123.486 78.468 122.874 78.2591 122.308C78.0503 121.741 77.7286 121.283 77.2939 120.933C76.8593 120.584 76.3053 120.409 75.632 120.409C74.9587 120.409 74.4047 120.584 73.9701 120.933C73.5354 121.283 73.2137 121.741 73.0049 122.308C72.7961 122.874 72.6917 123.486 72.6917 124.142C72.6917 124.798 72.7961 125.408 73.0049 125.97C73.2137 126.533 73.5354 126.987 73.9701 127.332C74.4047 127.677 74.9587 127.849 75.632 127.849ZM86.7558 119.182V120.46H81.4632V119.182H86.7558ZM83.0484 129V117.827C83.0484 117.264 83.1805 116.795 83.4447 116.42C83.7089 116.045 84.0519 115.764 84.4738 115.577C84.8957 115.389 85.341 115.295 85.8097 115.295C86.1805 115.295 86.483 115.325 86.7174 115.385C86.9518 115.445 87.1265 115.5 87.2416 115.551L86.8069 116.855C86.7302 116.83 86.6237 116.798 86.4873 116.759C86.3552 116.721 86.1805 116.702 85.9632 116.702C85.4646 116.702 85.1045 116.827 84.8829 117.079C84.6656 117.33 84.5569 117.699 84.5569 118.185V129H83.0484ZM88.8699 129V119.182H90.3785V129H88.8699ZM89.637 117.545C89.343 117.545 89.0894 117.445 88.8763 117.245C88.6675 117.045 88.5631 116.804 88.5631 116.523C88.5631 116.241 88.6675 116.001 88.8763 115.8C89.0894 115.6 89.343 115.5 89.637 115.5C89.931 115.5 90.1824 115.6 90.3912 115.8C90.6043 116.001 90.7108 116.241 90.7108 116.523C90.7108 116.804 90.6043 117.045 90.3912 117.245C90.1824 117.445 89.931 117.545 89.637 117.545ZM94.6499 115.909V129H93.1414V115.909H94.6499ZM104.47 115.909L104.342 125.318H102.859L102.731 115.909H104.47ZM103.6 129.102C103.285 129.102 103.014 128.989 102.789 128.763C102.563 128.538 102.45 128.267 102.45 127.952C102.45 127.636 102.563 127.366 102.789 127.14C103.014 126.914 103.285 126.801 103.6 126.801C103.916 126.801 104.186 126.914 104.412 127.14C104.638 127.366 104.751 127.636 104.751 127.952C104.751 128.161 104.698 128.352 104.591 128.527C104.489 128.702 104.35 128.842 104.176 128.949C104.005 129.051 103.813 129.102 103.6 129.102Z" fill="black"/>
<path d="M78.8382 60L71 51.3303L75.5583 48.2806L79.2697 52.3855L91.8074 41L96 44.4171L78.8382 60Z" fill="white"/>
<g clip-path="url(#clip0_735_31)" filter="url(#filter0_d_735_31)">
<path d="M130 59.5465C130 72.6941 121.063 83.8964 108.546 88.1589C106.642 88.8087 104.676 89.2898 102.675 89.5958C97.1706 90.4376 91.5267 89.9597 86.2747 88.2069C73.6782 83.9794 64.6762 72.7393 64.6822 59.5401C64.6822 42.7279 79.3045 29.093 97.3411 29.093C104.158 29.0838 110.805 31.0723 116.344 34.7777C124.612 40.3018 130 49.3372 130 59.5465Z" fill="#E5E5E5"/>
<path d="M108.546 88.1589C106.642 88.8087 104.676 89.2897 102.675 89.5958C97.1706 90.4376 91.5267 89.9597 86.2747 88.2069L87.7829 82.5638L87.8739 82.2251L90.9518 82.2362L106.414 82.2879L106.612 82.8333L108.546 88.1589Z" fill="#2F2E41"/>
<path d="M54.3688 25H26V54.9326H54.3688V25Z" fill="#E6E6E6"/>
<path d="M53.8134 25.6332H26.5058V54.2994H53.8134V25.6332Z" fill="white"/>
<path d="M40.1845 53.2801C41.0299 53.2801 41.7152 52.6411 41.7152 51.8528C41.7152 51.0645 41.0299 50.4254 40.1845 50.4254C39.3391 50.4254 38.6537 51.0645 38.6537 51.8528C38.6537 52.6411 39.3391 53.2801 40.1845 53.2801Z" fill="#E6E6E6"/>
<path d="M39.9258 35.7804H31.134V36.6191H39.9258V35.7804Z" fill="#E6E6E6"/>
<path d="M44.4033 38.2936H31.134V39.1323H44.4033V38.2936Z" fill="#F9A826"/>
<path d="M43.1008 40.8225H31.134V41.6612H43.1008V40.8225Z" fill="#E6E6E6"/>
<path d="M49.6133 43.2846H31.134V44.1233H49.6133V43.2846Z" fill="#F9A826"/>
<path d="M46.3863 45.6295H31.326V46.4681H46.3863V45.6295Z" fill="#E6E6E6"/>
<path d="M66.3396 73.7063C66.4475 73.8096 66.5465 73.9207 66.6356 74.0385L80.5017 73.7222L82.1193 70.9658L86.8994 72.6985L84.544 77.8375C84.3537 78.2527 84.0242 78.5991 83.6048 78.8247C83.1855 79.0504 82.6989 79.1431 82.2183 79.089L66.5519 77.3242C66.1823 77.7605 65.6791 78.0815 65.1092 78.2445C64.5392 78.4076 63.9295 78.405 63.3612 78.237C62.7929 78.0691 62.2928 77.7438 61.9276 77.3044C61.5624 76.865 61.3493 76.3323 61.3167 75.7772C61.284 75.2221 61.4334 74.6709 61.7449 74.1969C62.0564 73.7229 62.5153 73.3486 63.0605 73.1237C63.6057 72.8988 64.2115 72.8341 64.7971 72.938C65.3828 73.042 65.9206 73.3098 66.3391 73.7057L66.3396 73.7063Z" fill="#9F616A"/>
<path d="M85.0027 57.9674L91.4918 55.9843L93.3977 53.547L102.672 54.0588L104.034 56.903L108.98 59.0821L108.22 72.2439L106.919 84.5616C100.233 81.3332 87.7556 83.7945 87.6464 83.8345L85.0027 57.9674Z" fill="#F9A826"/>
<path d="M86.3899 75.7826L79.7894 73.3201L79.8175 73.2106C79.8458 73.0999 82.6551 62.1535 83.0281 60.3944C83.4166 58.5617 84.8363 58.055 84.8966 58.0344L84.9406 58.0193L87.5528 58.7607L88.7 67.1659L86.3899 75.7826Z" fill="#F9A826"/>
<path d="M100.642 84.0201C100.796 84.0167 100.951 84.0246 101.104 84.0439L110.283 74.3475L109.216 71.3681L113.828 69.2777L116.268 74.3821C116.465 74.7945 116.514 75.2554 116.406 75.6955C116.298 76.1357 116.04 76.5314 115.671 76.8233L103.632 86.3352C103.724 86.8845 103.634 87.4468 103.374 87.9474C103.115 88.4479 102.698 88.863 102.18 89.1373C101.661 89.4117 101.066 89.5324 100.472 89.4833C99.8779 89.4342 99.3142 89.2178 98.8555 88.8626C98.3969 88.5075 98.065 88.0306 97.9041 87.4953C97.7432 86.9601 97.7608 86.3918 97.9547 85.8661C98.1486 85.3404 98.5095 84.8822 98.9895 84.5525C99.4694 84.2227 100.046 84.037 100.642 84.0201Z" fill="#9F616A"/>
<path d="M109.551 75.2914L105.722 66.8931L107.215 61.0431L108.824 59.1475C108.942 59.1006 109.069 59.0769 109.197 59.078C109.325 59.0791 109.452 59.105 109.569 59.154C110.163 59.3767 110.667 60.0593 111.071 61.1828L114.659 70.7137L109.551 75.2914Z" fill="#F9A826"/>
<path d="M89.6852 50.435V44.1034C89.6812 42.9893 89.9126 41.8853 90.3662 40.8545C90.8198 39.8237 91.4867 38.8864 92.3288 38.0959C93.1709 37.3055 94.1717 36.6774 95.2741 36.2476C96.3765 35.8178 97.5589 35.5947 98.7537 35.591C99.9486 35.5873 101.133 35.8031 102.238 36.2261C103.343 36.6491 104.349 37.2709 105.196 38.0562C106.044 38.8414 106.718 39.7746 107.178 40.8026C107.639 41.8305 107.879 42.933 107.883 44.0472C107.883 44.066 107.883 44.0847 107.883 44.1034V50.435C107.882 50.7372 107.753 51.0268 107.524 51.2405C107.295 51.4542 106.984 51.5744 106.66 51.5747H90.9074C90.5834 51.5744 90.2727 51.4542 90.0436 51.2405C89.8144 51.0268 89.6855 50.7372 89.6852 50.435Z" fill="#2F2E41"/>
<path d="M96.9142 51.4272C100.598 51.4272 103.585 48.6422 103.585 45.2068C103.585 41.7714 100.598 38.9865 96.9142 38.9865C93.23 38.9865 90.2433 41.7714 90.2433 45.2068C90.2433 48.6422 93.23 51.4272 96.9142 51.4272Z" fill="#9F616A"/>
<path d="M87.5327 44.61C87.5348 42.8306 88.2938 41.1247 89.6431 39.8665C90.9925 38.6082 92.8219 37.9005 94.7302 37.8985H96.0883C97.9965 37.9005 99.826 38.6082 101.175 39.8665C102.525 41.1247 103.284 42.8306 103.286 44.61V44.7366H100.416L99.4368 42.1803L99.2411 44.7366H97.758L97.2641 43.447L97.1651 44.7366H87.5327V44.61Z" fill="#2F2E41"/>
<path d="M96.2577 52.2867C96.123 52.1166 96.0425 51.9144 96.0256 51.7035C96.0086 51.4926 96.0559 51.2816 96.162 51.0946C97.6011 48.5422 99.6159 43.8259 96.9416 40.9173L96.7498 40.7086H104.514V51.5786L97.4608 52.7391C97.3895 52.7509 97.3171 52.7568 97.2446 52.7569C97.052 52.7569 96.8622 52.7143 96.6908 52.6326C96.5193 52.551 96.371 52.4325 96.2582 52.287L96.2577 52.2867Z" fill="#2F2E41"/>
<path d="M40.1598 27.3313C39.516 27.3312 38.8867 27.5092 38.3513 27.8427C37.816 28.1762 37.3988 28.6502 37.1524 29.2049C36.906 29.7595 36.8415 30.3698 36.9671 30.9586C37.0926 31.5473 37.4026 32.0882 37.8578 32.5127C38.313 32.9372 38.893 33.2263 39.5244 33.3435C40.1559 33.4606 40.8103 33.4005 41.4052 33.1708C42 32.9411 42.5084 32.5521 42.8661 32.053C43.2238 31.5539 43.4147 30.967 43.4147 30.3667V30.3665C43.4147 29.968 43.3305 29.5733 43.167 29.205C43.0034 28.8367 42.7636 28.5021 42.4613 28.2203C42.1591 27.9384 41.8002 27.7149 41.4053 27.5623C41.0104 27.4098 40.5871 27.3313 40.1596 27.3313H40.1598ZM40.1598 28.2418C40.3529 28.2418 40.5417 28.2952 40.7023 28.3952C40.8629 28.4953 40.988 28.6375 41.0619 28.8038C41.1358 28.9702 41.1552 29.1533 41.1175 29.3299C41.0798 29.5065 40.9868 29.6688 40.8503 29.7961C40.7137 29.9234 40.5397 30.0101 40.3503 30.0453C40.1609 30.0804 39.9646 30.0624 39.7861 29.9935C39.6077 29.9246 39.4552 29.8079 39.3479 29.6581C39.2406 29.5084 39.1834 29.3324 39.1834 29.1523C39.1834 28.9108 39.2862 28.6792 39.4694 28.5085C39.6525 28.3377 39.9008 28.2418 40.1598 28.2418ZM40.1598 32.6253C39.774 32.6237 39.3945 32.5343 39.0542 32.365C38.7138 32.1956 38.423 31.9514 38.2067 31.6534C38.2224 31.0464 39.5088 30.7122 40.1598 30.7122C40.8108 30.7122 42.0972 31.0464 42.1129 31.6534C41.8964 31.9511 41.6055 32.1952 41.2652 32.3645C40.9249 32.5339 40.5455 32.6234 40.1598 32.6253Z" fill="#F9A826"/>
<path d="M40.1976 52.3999C41.5386 50.1084 44.7511 48.6573 47.3789 49.9653C48.5618 50.554 49.5021 51.5953 49.8006 52.8261C50.1469 54.2558 49.4171 55.6191 48.6636 56.8203C48.2547 57.4723 47.8066 58.111 47.4681 58.7987C47.1177 59.5108 46.8672 60.3339 47.131 61.1086C47.3686 61.8065 47.9641 62.3142 48.6163 62.6873C49.3361 63.0835 50.1018 63.4024 50.8986 63.6378C52.5388 64.1465 54.2688 64.3552 55.9939 64.2525C56.8512 64.1982 57.7013 64.0701 58.5333 63.8697C59.4184 63.6593 60.2869 63.3926 61.1735 63.1868C62.6536 62.844 64.3413 62.6735 65.7448 63.3622C67.1084 64.0314 67.7186 65.4311 67.9073 66.7927C68.2559 69.3071 67.1868 71.9163 65.2564 73.677C64.3303 74.5218 63.1649 75.2197 61.8955 75.5053C60.788 75.7544 59.3659 75.7385 58.4845 74.9664C57.5009 74.1048 57.7323 72.7231 58.5135 71.814C59.5105 70.6541 61.1997 70.3755 62.7071 70.3473C64.4217 70.3152 66.1349 70.5533 67.8486 70.4052C68.685 70.3445 69.5058 70.1599 70.28 69.8584C70.9606 69.5792 71.5814 69.1875 72.1123 68.7021C73.1703 67.7437 73.8838 66.4669 74.2386 65.1393C74.6659 63.5428 74.5727 61.8649 74.2411 60.2613C74.0643 59.4344 73.8367 58.6176 73.5594 57.8151C73.4449 57.4764 72.8714 57.6213 72.9868 57.9623C74.0081 60.9822 74.5776 64.4741 72.6043 67.2779C71.7877 68.467 70.5155 69.3209 69.0471 69.6656C67.3393 70.0614 65.5472 69.8657 63.8109 69.8069C62.16 69.7508 60.3471 69.8113 58.9319 70.7079C57.7709 71.4433 56.9589 72.8422 57.3098 74.1627C57.6482 75.4362 58.9607 76.0822 60.2734 76.1817C61.6507 76.2864 63.006 75.8553 64.1628 75.1813C66.5689 73.7792 68.1688 71.3134 68.5036 68.6991C68.6781 67.3369 68.5005 65.8696 67.8381 64.6332C67.489 63.9639 66.9456 63.3992 66.2697 63.0034C65.5958 62.6181 64.8173 62.4284 64.0355 62.3614C62.2592 62.2088 60.5527 62.7775 58.8677 63.2125C58.0069 63.4453 57.1246 63.6024 56.2324 63.6816C55.3664 63.7485 54.4955 63.7352 53.6323 63.6421C52.7758 63.5478 51.9318 63.3731 51.1129 63.1207C50.3106 62.8894 49.5423 62.5655 48.826 62.1566C48.1941 61.7798 47.6476 61.2401 47.6166 60.5047C47.5828 59.7073 48.014 58.9614 48.4241 58.2891C49.2344 56.961 50.2352 55.6621 50.4465 54.1074C50.6316 52.7474 50.0447 51.407 49.0313 50.437C48.5234 49.9446 47.9119 49.5554 47.2352 49.2936C46.5585 49.0318 45.8312 48.9032 45.0987 48.9157C43.5951 48.9558 42.1554 49.5655 41.0495 50.5019C40.5009 50.9666 40.0394 51.5134 39.6837 52.1197C39.5005 52.4326 40.0131 52.7123 40.1965 52.3991L40.1976 52.3999Z" fill="#3F3D56"/>
</g>
<defs>
<filter id="filter0_d_735_31" x="22" y="25" width="112" height="73" filterUnits="userSpaceOnUse" color-interpolation-filters="sRGB">
<feFlood flood-opacity="0" result="BackgroundImageFix"/>
<feColorMatrix in="SourceAlpha" type="matrix" values="0 0 0 0 0 0 0 0 0 0 0 0 0 0 0 0 0 0 127 0" result="hardAlpha"/>
<feOffset dy="4"/>
<feGaussianBlur stdDeviation="2"/>
<feComposite in2="hardAlpha" operator="out"/>
<feColorMatrix type="matrix" values="0 0 0 0 0 0 0 0 0 0 0 0 0 0 0 0 0 0 0.25 0"/>
<feBlend mode="normal" in2="BackgroundImageFix" result="effect1_dropShadow_735_31"/>
<feBlend mode="normal" in="SourceGraphic" in2="effect1_dropShadow_735_31" result="shape"/>
</filter>
<clipPath id="clip0_735_31">
<rect width="104" height="65" fill="white" transform="translate(26 25)"/>
</clipPath>
</defs>
</svg>
