<svg width="157" height="154" viewBox="0 0 157 154" fill="none" xmlns="http://www.w3.org/2000/svg">
<path d="M155 77C155 118.385 120.786 152 78.5 152C36.2137 152 2 118.385 2 77C2 35.6148 36.2137 2 78.5 2C120.786 2 155 35.6148 155 77Z" fill="white" stroke="#F9A826" stroke-width="4"/>
<path d="M48.3565 93.9091V107H46.8224L39.6889 96.7216H39.5611V107H37.9759V93.9091H39.5099L46.669 104.213H46.7969V93.9091H48.3565ZM55.3127 107.205C54.4263 107.205 53.6486 106.994 52.9796 106.572C52.3148 106.15 51.7949 105.56 51.4199 104.801C51.0492 104.043 50.8638 103.156 50.8638 102.142C50.8638 101.119 51.0492 100.227 51.4199 99.4638C51.7949 98.701 52.3148 98.1087 52.9796 97.6868C53.6486 97.2649 54.4263 97.054 55.3127 97.054C56.199 97.054 56.9746 97.2649 57.6394 97.6868C58.3084 98.1087 58.8283 98.701 59.199 99.4638C59.574 100.227 59.7615 101.119 59.7615 102.142C59.7615 103.156 59.574 104.043 59.199 104.801C58.8283 105.56 58.3084 106.15 57.6394 106.572C56.9746 106.994 56.199 107.205 55.3127 107.205ZM55.3127 105.849C55.986 105.849 56.54 105.677 56.9746 105.332C57.4093 104.987 57.731 104.533 57.9398 103.97C58.1486 103.408 58.253 102.798 58.253 102.142C58.253 101.486 58.1486 100.874 57.9398 100.308C57.731 99.7408 57.4093 99.2827 56.9746 98.9332C56.54 98.5838 55.986 98.4091 55.3127 98.4091C54.6394 98.4091 54.0854 98.5838 53.6507 98.9332C53.2161 99.2827 52.8944 99.7408 52.6855 100.308C52.4767 100.874 52.3723 101.486 52.3723 102.142C52.3723 102.798 52.4767 103.408 52.6855 103.97C52.8944 104.533 53.2161 104.987 53.6507 105.332C54.0854 105.677 54.6394 105.849 55.3127 105.849ZM68.2518 102.986V97.1818H69.7603V107H68.2518V105.338H68.1495C67.9194 105.837 67.5614 106.261 67.0756 106.61C66.5898 106.955 65.9762 107.128 65.2347 107.128C64.6211 107.128 64.0756 106.994 63.5984 106.725C63.1211 106.452 62.7461 106.043 62.4734 105.498C62.2006 104.948 62.0643 104.256 62.0643 103.42V97.1818H63.5728V103.318C63.5728 104.034 63.7731 104.605 64.1737 105.031C64.5785 105.457 65.0941 105.67 65.7205 105.67C66.0955 105.67 66.4769 105.575 66.8647 105.383C67.2567 105.191 67.5849 104.897 67.8491 104.501C68.1175 104.104 68.2518 103.599 68.2518 102.986ZM80.5517 97.1818L76.921 107H75.3869L71.7562 97.1818H73.3926L76.1028 105.006H76.2051L78.9153 97.1818H80.5517ZM86.3077 107.205C85.3617 107.205 84.5456 106.996 83.8596 106.578C83.1777 106.156 82.6515 105.568 82.2807 104.814C81.9142 104.055 81.731 103.173 81.731 102.168C81.731 101.162 81.9142 100.276 82.2807 99.5085C82.6515 98.7372 83.1671 98.1364 83.8276 97.706C84.4924 97.2713 85.2679 97.054 86.1543 97.054C86.6657 97.054 87.1706 97.1392 87.6692 97.3097C88.1678 97.4801 88.6216 97.7571 89.0307 98.1406C89.4398 98.5199 89.7658 99.0227 90.0087 99.6491C90.2516 100.276 90.373 101.047 90.373 101.963V102.602H82.8049V101.298H88.839C88.839 100.744 88.7282 100.25 88.5066 99.8153C88.2892 99.3807 87.9782 99.0376 87.5733 98.7862C87.1728 98.5348 86.6998 98.4091 86.1543 98.4091C85.5534 98.4091 85.0336 98.5582 84.5946 98.8565C84.16 99.1506 83.8255 99.5341 83.5911 100.007C83.3567 100.48 83.2395 100.987 83.2395 101.528V102.398C83.2395 103.139 83.3674 103.768 83.623 104.283C83.883 104.795 84.2431 105.185 84.7033 105.453C85.1635 105.717 85.6983 105.849 86.3077 105.849C86.704 105.849 87.062 105.794 87.3816 105.683C87.7054 105.568 87.9846 105.398 88.2189 105.172C88.4533 104.942 88.6344 104.656 88.7623 104.315L90.2196 104.724C90.0662 105.219 89.8084 105.653 89.4462 106.028C89.084 106.399 88.6365 106.689 88.1039 106.898C87.5712 107.102 86.9725 107.205 86.3077 107.205ZM95.557 107.23C94.9348 107.23 94.3702 107.113 93.8631 106.879C93.356 106.64 92.9533 106.297 92.655 105.849C92.3567 105.398 92.2076 104.852 92.2076 104.213C92.2076 103.651 92.3184 103.195 92.54 102.845C92.7615 102.491 93.0577 102.214 93.4284 102.014C93.7992 101.814 94.2083 101.665 94.6557 101.567C95.1074 101.464 95.5613 101.384 96.0172 101.324C96.6138 101.247 97.0975 101.19 97.4682 101.151C97.8432 101.109 98.1159 101.038 98.2864 100.94C98.4611 100.842 98.5485 100.672 98.5485 100.429V100.378C98.5485 99.7472 98.3759 99.2571 98.0307 98.9077C97.6898 98.5582 97.1721 98.3835 96.4775 98.3835C95.7573 98.3835 95.1926 98.5412 94.7836 98.8565C94.3745 99.1719 94.0868 99.5085 93.9206 99.8665L92.4888 99.3551C92.7445 98.7585 93.0854 98.294 93.5115 97.9616C93.9419 97.625 94.4107 97.3906 94.9178 97.2585C95.4292 97.1222 95.932 97.054 96.4263 97.054C96.7417 97.054 97.1039 97.0923 97.513 97.169C97.9263 97.2415 98.3248 97.3928 98.7083 97.6229C99.0961 97.853 99.4178 98.2003 99.6735 98.6648C99.9292 99.1293 100.057 99.7514 100.057 100.531V107H98.5485V105.67H98.4718C98.3695 105.884 98.199 106.112 97.9604 106.354C97.7218 106.597 97.4043 106.804 97.008 106.974C96.6117 107.145 96.128 107.23 95.557 107.23ZM95.7871 105.875C96.3837 105.875 96.8865 105.758 97.2956 105.523C97.709 105.289 98.0201 104.987 98.2289 104.616C98.4419 104.245 98.5485 103.855 98.5485 103.446V102.065C98.4846 102.142 98.3439 102.212 98.1266 102.276C97.9135 102.336 97.6664 102.389 97.3851 102.436C97.1081 102.479 96.8375 102.517 96.5733 102.551C96.3134 102.581 96.1025 102.607 95.9405 102.628C95.5485 102.679 95.182 102.762 94.8411 102.877C94.5044 102.988 94.2317 103.156 94.0229 103.382C93.8184 103.604 93.7161 103.906 93.7161 104.29C93.7161 104.814 93.91 105.21 94.2978 105.479C94.6898 105.743 95.1863 105.875 95.7871 105.875ZM108.998 102.986V97.1818H110.506V107H108.998V105.338H108.896C108.665 105.837 108.308 106.261 107.822 106.61C107.336 106.955 106.722 107.128 105.981 107.128C105.367 107.128 104.822 106.994 104.344 106.725C103.867 106.452 103.492 106.043 103.219 105.498C102.947 104.948 102.81 104.256 102.81 103.42V97.1818H104.319V103.318C104.319 104.034 104.519 104.605 104.92 105.031C105.325 105.457 105.84 105.67 106.467 105.67C106.842 105.67 107.223 105.575 107.611 105.383C108.003 105.191 108.331 104.897 108.595 104.501C108.864 104.104 108.998 103.599 108.998 102.986ZM114.394 97.1818L116.747 101.196L119.099 97.1818H120.838L117.667 102.091L120.838 107H119.099L116.747 103.19L114.394 107H112.656L115.775 102.091L112.656 97.1818H114.394ZM45.6519 123.094V129H44.1434V115.909H45.6519V120.716H45.7797C46.0099 120.209 46.355 119.806 46.8153 119.508C47.2797 119.205 47.8976 119.054 48.6689 119.054C49.338 119.054 49.9239 119.188 50.4268 119.457C50.9296 119.721 51.3195 120.128 51.5965 120.678C51.8778 121.223 52.0184 121.918 52.0184 122.761V129H50.5099V122.864C50.5099 122.084 50.3074 121.481 49.9026 121.055C49.502 120.624 48.9459 120.409 48.2343 120.409C47.74 120.409 47.2968 120.513 46.9047 120.722C46.517 120.931 46.2101 121.236 45.9843 121.636C45.7627 122.037 45.6519 122.523 45.6519 123.094ZM58.7668 129.205C57.8804 129.205 57.1027 128.994 56.4337 128.572C55.7689 128.15 55.249 127.56 54.874 126.801C54.5033 126.043 54.3179 125.156 54.3179 124.142C54.3179 123.119 54.5033 122.227 54.874 121.464C55.249 120.701 55.7689 120.109 56.4337 119.687C57.1027 119.265 57.8804 119.054 58.7668 119.054C59.6531 119.054 60.4287 119.265 61.0935 119.687C61.7625 120.109 62.2824 120.701 62.6531 121.464C63.0281 122.227 63.2156 123.119 63.2156 124.142C63.2156 125.156 63.0281 126.043 62.6531 126.801C62.2824 127.56 61.7625 128.15 61.0935 128.572C60.4287 128.994 59.6531 129.205 58.7668 129.205ZM58.7668 127.849C59.4401 127.849 59.9941 127.677 60.4287 127.332C60.8634 126.987 61.1851 126.533 61.3939 125.97C61.6027 125.408 61.7071 124.798 61.7071 124.142C61.7071 123.486 61.6027 122.874 61.3939 122.308C61.1851 121.741 60.8634 121.283 60.4287 120.933C59.9941 120.584 59.4401 120.409 58.7668 120.409C58.0935 120.409 57.5395 120.584 57.1048 120.933C56.6702 121.283 56.3485 121.741 56.1396 122.308C55.9308 122.874 55.8264 123.486 55.8264 124.142C55.8264 124.798 55.9308 125.408 56.1396 125.97C56.3485 126.533 56.6702 126.987 57.1048 127.332C57.5395 127.677 58.0935 127.849 58.7668 127.849ZM65.5184 129V119.182H66.9758V120.665H67.078C67.257 120.179 67.5809 119.785 68.0496 119.482C68.5184 119.18 69.0468 119.028 69.6349 119.028C69.7457 119.028 69.8841 119.031 70.0503 119.035C70.2165 119.039 70.3422 119.045 70.4275 119.054V120.588C70.3763 120.575 70.2591 120.556 70.0759 120.531C69.8969 120.501 69.7073 120.486 69.507 120.486C69.0297 120.486 68.6036 120.586 68.2286 120.786C67.8579 120.982 67.5638 121.255 67.3465 121.604C67.1334 121.95 67.0269 122.344 67.0269 122.787V129H65.5184ZM72.2156 129V119.182H73.7242V129H72.2156ZM72.9827 117.545C72.6887 117.545 72.4351 117.445 72.222 117.245C72.0132 117.045 71.9088 116.804 71.9088 116.523C71.9088 116.241 72.0132 116.001 72.222 115.8C72.4351 115.6 72.6887 115.5 72.9827 115.5C73.2767 115.5 73.5281 115.6 73.7369 115.8C73.95 116.001 74.0566 116.241 74.0566 116.523C74.0566 116.804 73.95 117.045 73.7369 117.245C73.5281 117.445 73.2767 117.545 72.9827 117.545ZM76.2059 129V127.849L81.7797 120.69V120.588H76.3849V119.182H83.7229V120.384L78.3025 127.491V127.594H83.9019V129H76.2059ZM89.9328 129.205C89.0464 129.205 88.2687 128.994 87.5997 128.572C86.9349 128.15 86.415 127.56 86.04 126.801C85.6693 126.043 85.4839 125.156 85.4839 124.142C85.4839 123.119 85.6693 122.227 86.04 121.464C86.415 120.701 86.9349 120.109 87.5997 119.687C88.2687 119.265 89.0464 119.054 89.9328 119.054C90.8192 119.054 91.5947 119.265 92.2595 119.687C92.9285 120.109 93.4484 120.701 93.8192 121.464C94.1942 122.227 94.3817 123.119 94.3817 124.142C94.3817 125.156 94.1942 126.043 93.8192 126.801C93.4484 127.56 92.9285 128.15 92.2595 128.572C91.5947 128.994 90.8192 129.205 89.9328 129.205ZM89.9328 127.849C90.6061 127.849 91.1601 127.677 91.5947 127.332C92.0294 126.987 92.3511 126.533 92.5599 125.97C92.7687 125.408 92.8731 124.798 92.8731 124.142C92.8731 123.486 92.7687 122.874 92.5599 122.308C92.3511 121.741 92.0294 121.283 91.5947 120.933C91.1601 120.584 90.6061 120.409 89.9328 120.409C89.2595 120.409 88.7055 120.584 88.2709 120.933C87.8362 121.283 87.5145 121.741 87.3057 122.308C87.0969 122.874 86.9925 123.486 86.9925 124.142C86.9925 124.798 87.0969 125.408 87.3057 125.97C87.5145 126.533 87.8362 126.987 88.2709 127.332C88.7055 127.677 89.2595 127.849 89.9328 127.849ZM98.1929 123.094V129H96.6844V119.182H98.1418V120.716H98.2696C98.4997 120.217 98.8492 119.817 99.3179 119.514C99.7867 119.207 100.392 119.054 101.133 119.054C101.798 119.054 102.38 119.19 102.878 119.463C103.377 119.732 103.765 120.141 104.042 120.69C104.319 121.236 104.457 121.926 104.457 122.761V129H102.949V122.864C102.949 122.092 102.748 121.491 102.348 121.061C101.947 120.626 101.397 120.409 100.699 120.409C100.217 120.409 99.7867 120.513 99.4074 120.722C99.0324 120.931 98.7362 121.236 98.5189 121.636C98.3016 122.037 98.1929 122.523 98.1929 123.094ZM114.168 121.381L112.813 121.764C112.728 121.538 112.602 121.319 112.436 121.106C112.274 120.888 112.052 120.71 111.771 120.569C111.49 120.428 111.13 120.358 110.691 120.358C110.09 120.358 109.589 120.496 109.189 120.773C108.793 121.046 108.594 121.393 108.594 121.815C108.594 122.19 108.731 122.487 109.003 122.704C109.276 122.921 109.702 123.102 110.282 123.247L111.739 123.605C112.617 123.818 113.271 124.144 113.702 124.583C114.132 125.018 114.347 125.578 114.347 126.264C114.347 126.827 114.185 127.33 113.861 127.773C113.542 128.216 113.094 128.565 112.519 128.821C111.944 129.077 111.275 129.205 110.512 129.205C109.511 129.205 108.682 128.987 108.025 128.553C107.369 128.118 106.954 127.483 106.779 126.648L108.211 126.29C108.347 126.818 108.605 127.214 108.984 127.479C109.368 127.743 109.869 127.875 110.486 127.875C111.19 127.875 111.748 127.726 112.161 127.428C112.579 127.125 112.788 126.763 112.788 126.341C112.788 126 112.668 125.714 112.43 125.484C112.191 125.25 111.824 125.075 111.33 124.96L109.694 124.577C108.795 124.364 108.134 124.033 107.712 123.586C107.295 123.134 107.086 122.57 107.086 121.892C107.086 121.338 107.241 120.848 107.552 120.422C107.868 119.996 108.296 119.661 108.837 119.418C109.383 119.175 110.001 119.054 110.691 119.054C111.663 119.054 112.425 119.267 112.979 119.693C113.538 120.119 113.934 120.682 114.168 121.381Z" fill="black"/>
<path d="M78.8382 60L71 51.3303L75.5583 48.2806L79.2697 52.3855L91.8074 41L96 44.4171L78.8382 60Z" fill="white"/>
<g clip-path="url(#clip0_735_32)" filter="url(#filter0_d_735_32)">
<path d="M57.5786 88.3245L59.2929 88.1291L59.3584 81.402L56.8282 81.6902L57.5786 88.3245Z" fill="#FFB8B8"/>
<path d="M62.7797 89.3499L57.3919 89.9634L57.1556 87.8748L60.4618 87.4984C61.0139 87.4355 61.5683 87.5953 62.003 87.9425C62.4377 88.2897 62.7171 88.796 62.7797 89.3499H62.7797Z" fill="#2F2E41"/>
<path d="M39.9479 88.2169H41.6733L42.494 81.5398L39.9476 81.5401L39.9479 88.2169Z" fill="#FFB8B8"/>
<path d="M45.0007 89.8242L39.5783 89.8244L39.5782 87.7224L42.9056 87.7223C43.4612 87.7222 43.9941 87.9437 44.387 88.3378C44.7799 88.732 45.0007 89.2667 45.0007 89.8242Z" fill="#2F2E41"/>
<path d="M52.3267 58.3581L53.3118 61.5731L58.6596 73.1839L60.0669 84.1974L56.8301 84.3386L54.8599 74.1723L48.1048 66.83L42.1942 86.0329L39.5203 85.7505C39.5203 85.7505 41.772 60.8997 44.868 58.3581C44.868 58.3581 49.9343 55.9578 52.3267 58.3581Z" fill="#2F2E41"/>
<path d="M47.9569 44.486C49.8659 44.486 51.4134 42.9333 51.4134 41.018C51.4134 39.1027 49.8659 37.55 47.9569 37.55C46.0479 37.55 44.5004 39.1027 44.5004 41.018C44.5004 42.9333 46.0479 44.486 47.9569 44.486Z" fill="#FFB8B8"/>
<path d="M52.6786 58.9935C52.6786 58.9935 53.1008 44.5913 47.1901 45.5797C41.2794 46.5681 43.7422 60.4761 43.7422 60.4761C43.7422 60.4761 45.0088 63.0177 48.1048 60.1937C51.2009 57.3697 52.6786 58.9935 52.6786 58.9935Z" fill="#CCCCCC"/>
<path opacity="0.2" d="M44.5163 51.6513L45.9071 57.0003L48.0261 59.1265L45.0792 58.1464L44.5163 51.6513Z" fill="black"/>
<path d="M52.7223 65.0845C52.5278 65.0138 52.3511 64.9011 52.2047 64.7545C52.0583 64.6078 51.9457 64.4307 51.8749 64.2356C51.8041 64.0406 51.7768 63.8324 51.7949 63.6256C51.813 63.4188 51.876 63.2185 51.9796 63.0388L48.6923 59.2204L51.2838 58.8819L54.0082 62.5599C54.2975 62.7545 54.5056 63.0488 54.5931 63.3871C54.6806 63.7254 54.6414 64.0841 54.4829 64.3953C54.3243 64.7065 54.0576 64.9485 53.7331 65.0756C53.4086 65.2026 53.0489 65.2058 52.7223 65.0845H52.7223Z" fill="#FFB8B8"/>
<path d="M48.7198 48.5132L49.0899 55.8166L53.4526 61.4645L51.6231 62.8765L45.7124 56.9461C45.7124 56.9461 43.6015 49.7451 45.1495 47.6271C45.73 46.8328 46.3699 46.6144 46.943 46.6517C47.4145 46.6911 47.8554 46.902 48.1827 47.2449C48.5099 47.5878 48.701 48.0389 48.7198 48.5132Z" fill="#CCCCCC"/>
<path d="M47.5458 44.6619C47.5623 44.6471 47.5752 44.6286 47.5833 44.6079C47.5914 44.5872 47.5947 44.5649 47.5927 44.5428C47.5907 44.5206 47.5837 44.4992 47.572 44.4803C47.5604 44.4613 47.5445 44.4454 47.5257 44.4337C47.2187 44.243 46.9687 43.9728 46.8017 43.6516C46.6348 43.3305 46.5571 42.9701 46.5769 42.6084C46.5968 42.2467 46.7133 41.8971 46.9143 41.5962C47.1153 41.2953 47.3934 41.0543 47.7193 40.8984C48.7356 40.4123 50.1126 40.7905 50.8638 39.8563C51.0166 39.6565 51.1246 39.4259 51.1806 39.1804C51.2365 38.9348 51.239 38.6801 51.1879 38.4335C51.0258 37.5512 50.3647 36.8959 49.6243 36.4469C48.7149 35.8952 47.6696 35.6102 46.6069 35.6241C45.5443 35.638 44.5067 35.9502 43.6118 36.5253C42.717 37.1005 42.0005 37.9156 41.5437 38.8784C41.0869 39.8411 40.908 40.913 41.0273 41.9726C41.1228 42.8218 41.384 43.7739 40.8807 44.4634C40.4378 45.0702 39.6017 45.184 38.8673 45.3347C37.2921 45.6581 35.7724 46.4042 34.7035 47.6092C33.6345 48.8142 33.0642 50.5049 33.3865 52.0854C33.7088 53.6658 35.0018 55.0548 36.591 55.2997C37.8846 55.4991 39.2203 54.948 40.1702 54.0447C41.1201 53.1415 41.7205 51.9218 42.0992 50.6649C42.5487 49.1731 42.7261 47.5655 43.5376 46.2366C44.3318 44.9362 46.0432 44.0041 47.3845 44.6813C47.4102 44.6948 47.4393 44.7001 47.4681 44.6967C47.4969 44.6932 47.524 44.6811 47.5458 44.6619V44.6619Z" fill="#2F2E41"/>
<path d="M74.3449 90H31.1407C31.1034 90 31.0676 89.9851 31.0412 89.9586C31.0148 89.9322 31 89.8962 31 89.8588C31 89.8213 31.0148 89.7854 31.0412 89.7589C31.0676 89.7325 31.1034 89.7176 31.1407 89.7176H74.3449C74.3822 89.7176 74.418 89.7325 74.4444 89.7589C74.4708 89.7854 74.4856 89.8213 74.4856 89.8588C74.4856 89.8962 74.4708 89.9322 74.4444 89.9586C74.418 89.9851 74.3822 90 74.3449 90Z" fill="#3F3D56"/>
<path d="M117.989 41.9261C117.982 45.9257 116.483 49.7777 113.788 52.7249C111.093 55.672 107.397 57.501 103.426 57.8524C99.4546 58.2037 95.4963 57.052 92.3288 54.6237C89.1613 52.1953 87.0137 48.666 86.3083 44.7295C85.6029 40.793 86.3906 36.7341 88.5167 33.3508C90.6428 29.9675 93.9533 27.5046 97.7976 26.4461C101.642 25.3877 105.742 25.8104 109.291 27.631C112.84 29.4517 115.583 32.5387 116.979 36.2851C117.013 36.3791 117.047 36.4732 117.08 36.5682V36.5691C117.228 36.9866 117.357 37.4119 117.47 37.8449C117.816 39.1775 117.991 40.5491 117.989 41.9261Z" fill="#3F3D56"/>
<path d="M100.157 31.045C99.4343 30.6531 98.6322 30.4319 97.8117 30.3982C96.9911 30.3645 96.1738 30.5193 95.4219 30.8507C94.7599 31.1397 94.0629 31.6583 93.842 32.5947C94.7352 32.0658 95.8914 32.9014 96.1212 34.2419L96.0676 34.2567C95.9462 35.1852 96.2172 36.1961 96.7418 36.7718C96.7808 36.512 96.877 36.2642 97.0234 36.0464C97.1698 35.8286 97.3627 35.6462 97.5881 35.5126C97.9735 35.2583 98.4 35.0736 98.6942 34.6366C99.043 34.1185 99.1316 33.3614 99.2701 32.6706C99.4087 31.9799 99.6716 31.2375 100.157 31.045Z" fill="#F9A826"/>
<path d="M95.157 38.9461C94.9096 39.3188 94.5792 39.5527 94.2827 39.8439C93.9405 40.1562 93.7159 40.5774 93.6469 41.0364C93.6094 41.3608 93.6674 41.6905 93.6594 42.0184C93.6514 42.3463 93.5424 42.7155 93.3201 42.797C92.9691 42.9242 92.7012 42.2702 92.3404 42.2245C92.0538 42.1886 91.7957 42.6411 91.8787 43.0336C91.9618 43.426 92.352 43.5998 92.5762 43.3436C92.7789 43.6849 92.636 44.3041 92.3315 44.4089C92.2993 44.6239 92.2672 44.8381 92.2359 45.0531C91.4662 44.5128 90.6884 43.9636 90.0338 43.1724C89.3058 42.3 88.8542 41.2292 88.7371 40.0974C88.6523 39.188 88.7782 38.1478 88.3621 37.448C88.029 36.8881 87.4575 36.7644 86.9431 36.7993C86.8493 36.8056 86.7547 36.8164 86.6609 36.828C86.9642 35.9139 87.3495 35.0292 87.812 34.1849C87.9166 34.1398 88.0139 34.0791 88.1004 34.0048C88.5791 33.5971 88.7916 32.7719 89.18 32.2012C89.2051 32.1644 89.231 32.1286 89.2577 32.0937C89.6551 31.5731 90.1874 31.3052 90.7017 31.0561C91.8403 30.5015 93.0119 29.9397 94.2139 30.0168L93.8719 30.0499C93.4727 31.1717 93.0733 32.2935 92.6735 33.4152C92.6128 33.5872 92.5514 33.7596 92.4895 33.9322C92.2627 34.5701 92.0287 35.2493 92.0636 35.9634C92.0841 36.3863 92.2306 36.8379 92.5092 36.983C92.7691 37.1174 93.053 36.9525 93.304 36.7895C93.4102 36.7214 93.5156 36.6533 93.6219 36.5843C94.0032 36.3379 94.4256 36.0852 94.8283 36.2501C95.1971 36.4006 95.4695 36.9033 95.5213 37.4453C95.5688 37.9723 95.4407 38.5001 95.157 38.9461Z" fill="#F9A826"/>
<path d="M97.4248 46.6047C96.3112 45.9167 95.1975 45.2287 94.0838 44.5407L94.1027 44.4919C93.4103 44.7565 93.1228 45.9914 93.2373 47.0013C93.3517 48.0112 93.7397 48.914 93.9357 49.898C94.2 51.2446 94.1003 52.6377 93.6468 53.9325C95.1112 52.2839 96.4072 50.4922 97.5153 48.5841C97.6701 48.3436 97.7881 48.0812 97.8653 47.8056C97.947 47.5119 97.9179 47.1983 97.7835 46.9248C97.6923 46.7898 97.569 46.6798 97.4248 46.6047Z" fill="#F9A826"/>
<path d="M93.0296 34.0883C92.8988 34.37 92.8786 34.6908 92.9731 34.9868C93.083 35.2252 93.2823 35.4105 93.5277 35.5022L94.1431 35.8082C94.3478 35.91 94.5685 36.0128 94.7771 35.9291C95.0288 35.828 95.2034 35.4321 95.1582 35.0645C95.1102 34.6734 94.8644 34.4044 94.6372 34.1753C94.3191 33.8546 94.0011 33.534 93.6831 33.2134L93.5038 33.4336C93.31 33.6234 93.1496 33.8447 93.0296 34.0883Z" fill="#F9A826"/>
<path d="M114.691 38.2696C114.968 38.335 115.244 38.4005 115.521 38.4658C115.473 39.4039 115.009 40.2722 114.388 40.5866C114.129 40.7175 113.841 40.7658 113.626 41.0104C113.432 41.2326 113.334 41.5785 113.244 41.9091C113.086 42.4861 112.928 43.0631 112.77 43.6401C112.6 44.2619 112.382 44.9527 111.941 45.1767C111.562 45.3694 111.129 45.1337 110.838 44.7386C110.547 44.3435 110.369 43.8122 110.197 43.2943C110.208 43.8588 109.946 44.4125 109.576 44.6087C109.204 44.8049 108.752 44.6275 108.504 44.1894C108.325 43.8749 108.251 43.46 108.076 43.1411C107.901 42.8221 107.534 42.6393 107.343 42.9386C107.217 43.1375 107.233 43.4421 107.171 43.6948C107.139 43.8625 107.056 44.0163 106.934 44.1346C106.811 44.253 106.655 44.33 106.487 44.3551C106.332 44.3516 106.179 44.3165 106.039 44.2519C105.898 44.1874 105.772 44.0948 105.668 43.9797C105.121 43.4185 104.765 42.6981 104.651 41.9216C104.573 41.5494 104.583 41.1641 104.679 40.7963C104.789 40.4478 105.054 40.179 105.318 40.2453C105.491 39.8779 105.149 39.3905 104.841 39.4335C104.532 39.4765 104.29 39.8089 104.036 40.0643C103.783 40.3196 103.43 40.5051 103.175 40.2515C103.181 40.3443 103.15 40.4355 103.088 40.5051C103.027 40.5747 102.941 40.6171 102.848 40.6228C102.839 40.6233 102.83 40.6235 102.821 40.6234C102.652 40.5746 102.494 40.491 102.359 40.3779C101.776 40.0132 101.036 40.2551 100.621 40.945C100.88 39.8394 101.26 38.5707 102.055 38.3108C102.381 38.2042 102.735 38.292 103.042 38.1075C103.586 37.7804 103.696 36.5449 103.226 36.0351C103.286 36.5171 103.274 37.0798 103.021 37.4095C102.767 37.7392 102.235 37.5242 102.267 37.0368C102.26 37.1053 102.231 37.1698 102.185 37.221C102.139 37.2722 102.078 37.3075 102.011 37.3219C101.944 37.3362 101.874 37.3288 101.811 37.3008C101.748 37.2727 101.696 37.2255 101.662 37.1658C101.493 36.9078 101.507 36.4858 101.627 36.1775C101.75 35.8984 101.927 35.6463 102.147 35.4357C102.572 34.9796 103.002 34.5182 103.493 34.2315C103.985 33.9448 104.553 33.848 105.046 34.1329C105.306 34.2834 105.535 34.5343 105.8 34.6669C105.862 34.7057 105.932 34.7318 106.004 34.7437C106.076 34.7557 106.15 34.7532 106.222 34.7364C106.293 34.7196 106.361 34.6889 106.42 34.6459C106.48 34.603 106.53 34.5487 106.569 34.4862L106.569 34.4862C106.572 34.4814 106.575 34.4765 106.578 34.4716C106.775 34.1239 106.682 33.6079 106.755 33.1733C106.887 32.4055 107.652 32.0462 108.076 32.5533C107.759 32.4718 107.431 32.8481 107.392 33.3041C107.352 33.7602 107.581 34.2207 107.889 34.3587C108.405 34.5881 108.91 34.011 109.3 33.4771C109.708 32.918 110.116 32.3592 110.524 31.8007C110.589 31.7056 110.662 31.6163 110.743 31.5337C110.871 31.4086 111.041 31.337 111.22 31.3333C111.398 31.3296 111.572 31.3942 111.704 31.514C112.117 31.8518 112.311 32.5444 112.649 33.021C113.14 33.7136 113.875 33.882 114.559 34.0164C115.069 34.1159 115.58 34.2159 116.09 34.3166C116.43 34.9518 116.727 35.6095 116.979 36.2851C116.042 36.7134 115.248 37.4021 114.691 38.2696Z" fill="#F9A826"/>
<path d="M116.339 49.0501C115.957 49.8295 115.512 50.5765 115.009 51.2837C114.687 51.1457 114.341 51.3921 114.041 51.6233C113.726 51.8652 113.348 52.1009 113.026 51.8804C112.697 51.6547 112.59 51.023 112.695 50.5221C112.815 50.0601 113.025 49.6265 113.313 49.2463C113.581 48.8449 113.867 48.4282 114.24 48.2723C114.613 48.1164 115.093 48.3368 115.201 48.8691L115.466 48.8601C115.318 48.6558 115.395 48.2329 115.594 48.1585C115.824 48.0716 116.023 48.3879 116.159 48.6675C116.22 48.7938 116.281 48.921 116.339 49.0501Z" fill="#F9A826"/>
<path d="M106.215 45.2655C105.647 45.3014 105.197 44.5996 104.898 43.9092C104.599 43.2188 104.326 42.4293 103.814 42.0779C103.521 41.8771 103.187 41.8496 102.869 41.7523C102.689 41.7066 102.522 41.6185 102.383 41.4953C102.243 41.3721 102.135 41.2172 102.067 41.0437L101.706 40.8976C101.202 41.1504 100.741 41.4807 100.338 41.8765C99.878 42.3668 99.5915 42.9952 99.5227 43.665C99.4538 44.3888 99.7081 45.1959 100.183 45.4678C100.558 45.6826 100.995 45.5472 101.376 45.7439C101.851 45.9896 102.133 46.7035 102.239 47.4083C102.346 48.1131 102.319 48.8456 102.396 49.5584C102.472 50.2712 102.682 51.0129 103.118 51.3782C103.663 51.8353 104.463 51.4555 104.708 50.6234C104.828 50.2152 104.824 49.7546 104.913 49.3309C105.071 48.5848 105.498 48.0312 105.836 47.4192C106.174 46.8071 106.44 45.9758 106.215 45.2655Z" fill="#F9A826"/>
<path d="M100.601 37.9336C100.654 37.9825 100.704 38.0352 100.749 38.0912C100.796 38.1727 100.82 38.2656 100.819 38.3598C100.817 38.454 100.79 38.546 100.74 38.6258C100.809 38.6219 100.875 38.6038 100.936 38.5727C100.998 38.5415 101.052 38.4979 101.095 38.4448C101.199 38.3263 101.29 38.1974 101.367 38.0601C101.404 38.013 101.43 37.9588 101.443 37.9009C101.457 37.8431 101.459 37.7829 101.448 37.7245C101.421 37.6476 101.357 37.6148 101.313 37.557C101.251 37.444 101.209 37.3213 101.188 37.1942C101.164 37.075 101.106 36.9651 101.023 36.8768C100.939 36.7885 100.833 36.7253 100.716 36.6943L100.744 36.6998C100.696 36.7287 100.657 36.772 100.635 36.8238C100.612 36.8755 100.606 36.9331 100.618 36.9885C100.635 37.1003 100.706 37.1931 100.699 37.3071C100.689 37.4711 100.526 37.548 100.516 37.712C100.514 37.7943 100.545 37.8739 100.601 37.9336Z" fill="#F9A826"/>
<path d="M99.6277 35.1471L99.6303 35.1466C99.648 35.1306 99.6643 35.1133 99.6793 35.0948L99.6277 35.1471Z" fill="#F9A826"/>
<path d="M99.7981 35.9168C99.8664 35.8567 99.9169 35.7789 99.9441 35.692C99.9713 35.6051 99.9742 35.5124 99.9524 35.424C99.9111 35.2375 99.765 35.1121 99.6303 35.1466C99.5912 35.1863 99.5427 35.2155 99.4893 35.2313C99.4359 35.247 99.3794 35.2489 99.325 35.2368C99.2417 35.2152 99.1503 35.1598 99.078 35.2228C99.0367 35.2698 99.0078 35.3265 98.9939 35.3876C98.9672 35.47 98.9404 35.5524 98.9137 35.6347C98.901 35.6642 98.8976 35.6969 98.9042 35.7283C98.9093 35.7409 98.9176 35.752 98.9282 35.7605C98.9388 35.7689 98.9514 35.7745 98.9648 35.7767L99.4462 35.9191C99.5014 35.9446 99.5616 35.9576 99.6224 35.9572C99.6832 35.9568 99.7432 35.943 99.7981 35.9168Z" fill="#F9A826"/>
<path d="M111.911 46.543C111.837 46.4211 111.763 46.2993 111.689 46.1775C111.616 46.0364 111.516 45.9109 111.395 45.8081C111.343 45.7637 111.274 45.7422 111.206 45.7482C111.137 45.7543 111.074 45.7875 111.029 45.8405L111.029 45.8405L111.026 45.8453L111.035 45.9148C111.233 46.1285 111.368 46.3934 111.425 46.6799C111.442 46.8044 111.436 46.9333 111.451 47.0583C111.453 47.1163 111.466 47.1734 111.489 47.2264C111.513 47.2794 111.547 47.3271 111.589 47.367C111.705 47.4453 111.843 47.3299 111.926 47.189C112 47.0733 112.033 46.9359 112.02 46.7989C112.002 46.707 111.965 46.6199 111.911 46.543Z" fill="#F9A826"/>
<path d="M113.075 46.7015C113.089 46.5875 113.079 46.4717 113.047 46.3614C113.042 46.2121 113.082 46.0646 113.161 45.938C113.239 45.8186 113.299 45.6877 113.337 45.5499C113.353 45.4871 113.35 45.4209 113.329 45.3598C113.304 45.3044 113.245 45.2792 113.211 45.323L113.284 45.3702C113.185 45.3525 113.084 45.3575 112.987 45.3846C112.932 45.4057 112.883 45.4398 112.844 45.484C112.805 45.5282 112.777 45.5812 112.763 45.6385C112.751 45.7278 112.731 45.816 112.704 45.9019C112.66 45.9917 112.576 46.0216 112.523 46.1004C112.487 46.1703 112.469 46.2481 112.47 46.3268C112.471 46.4055 112.492 46.4826 112.531 46.5512C112.597 46.6635 112.703 46.7469 112.827 46.7853C112.916 46.8174 113.034 46.8191 113.075 46.7015Z" fill="#F9A826"/>
<path d="M115.147 47.3287C115.179 47.4129 115.222 47.4924 115.275 47.5652C115.374 47.6654 115.509 47.6038 115.629 47.5794C115.739 47.5621 115.85 47.5748 115.953 47.6161C116.056 47.6574 116.145 47.7258 116.212 47.814C116.165 47.5805 116.064 47.3616 115.915 47.1758C115.767 46.9899 115.576 46.8425 115.359 46.746C115.077 46.6481 114.78 46.6014 114.481 46.6083L114.43 46.6214C114.56 47.0007 114.968 46.9922 115.147 47.3287Z" fill="#F9A826"/>
<path d="M106.371 48.1044L106.372 48.1061L106.387 48.0774L106.371 48.1044Z" fill="#F9A826"/>
<path d="M106.057 48.7149C105.988 48.8397 105.929 48.9697 105.88 49.1035C105.816 49.3204 105.773 49.5432 105.752 49.7686C105.736 49.8967 105.732 50.0604 105.812 50.1229C105.835 50.1382 105.862 50.1446 105.89 50.1409C105.917 50.1371 105.942 50.1235 105.96 50.1027C106.005 50.0555 106.041 50.0012 106.068 49.9421C106.225 49.6703 106.347 49.3795 106.431 49.0766C106.519 48.7554 106.498 48.4141 106.372 48.1061C106.267 48.309 106.162 48.5119 106.057 48.7149Z" fill="#F9A826"/>
<path d="M103.024 32.4514C103.074 32.5004 103.137 32.5336 103.206 32.5471C103.274 32.5605 103.345 32.5535 103.41 32.527C103.544 32.4683 103.666 32.3869 103.773 32.2865C103.861 32.2211 103.936 32.1394 103.993 32.0457C104.024 31.9897 104.045 31.928 104.052 31.8642C104.06 31.8004 104.055 31.7356 104.038 31.6737C104.013 31.6144 103.974 31.5623 103.924 31.5225C103.873 31.4826 103.814 31.4563 103.751 31.4459C103.573 31.3929 103.395 31.3399 103.216 31.2869L103.345 31.1704C103.213 31.0991 103.066 31.2315 102.983 31.3955C102.93 31.5026 102.893 31.617 102.873 31.735C102.845 31.8582 102.844 31.9862 102.87 32.1099C102.896 32.2336 102.949 32.3502 103.024 32.4514Z" fill="#F9A826"/>
<path d="M106.169 31.3924C106.219 31.4479 106.288 31.4822 106.363 31.4883C106.437 31.4943 106.511 31.4718 106.569 31.4251C106.62 31.3872 106.662 31.339 106.692 31.2838C106.723 31.2286 106.741 31.1675 106.747 31.1046C106.759 30.9641 106.69 30.8078 106.591 30.7957L106.614 30.6641C106.423 30.6296 106.189 30.6227 106.087 30.8549C106.052 30.9438 106.042 31.0403 106.056 31.1346C106.07 31.2289 106.109 31.3178 106.169 31.3924Z" fill="#F9A826"/>
<path d="M93.2128 40.8589C93.8694 40.8589 94.4016 40.1428 94.4016 39.2595C94.4016 38.3762 93.8694 37.6601 93.2128 37.6601C92.5563 37.6601 92.024 38.3762 92.024 39.2595C92.024 40.1428 92.5563 40.8589 93.2128 40.8589Z" fill="#E6E6E6"/>
<path d="M114.937 60.664C115.505 60.5123 115.88 60.0683 115.774 59.6722C115.669 59.276 115.124 59.0778 114.556 59.2295C113.989 59.3811 113.614 59.8252 113.719 60.2213C113.824 60.6175 114.37 60.8156 114.937 60.664Z" fill="#E6E6E6"/>
<path d="M107.986 60.7929C108.553 60.6413 108.928 60.1972 108.823 59.8011C108.718 59.405 108.173 59.2068 107.605 59.3585C107.038 59.5101 106.663 59.9542 106.768 60.3503C106.873 60.7464 107.418 60.9446 107.986 60.7929Z" fill="#E6E6E6"/>
<path d="M116.172 54.8611C116.74 54.7095 117.115 54.2654 117.009 53.8693C116.904 53.4732 116.359 53.275 115.791 53.4266C115.224 53.5783 114.849 54.0224 114.954 54.4185C115.059 54.8146 115.605 55.0128 116.172 54.8611Z" fill="#E6E6E6"/>
<path d="M118.222 52.3945C118.479 52.3626 118.649 52.0371 118.604 51.6675C118.558 51.2979 118.313 51.0242 118.057 51.0561C117.801 51.0879 117.63 51.4134 117.676 51.783C117.721 52.1526 117.966 52.4263 118.222 52.3945Z" fill="#E6E6E6"/>
<path d="M118.742 48.0166C118.998 47.9847 119.168 47.6592 119.123 47.2896C119.077 46.9201 118.832 46.6463 118.576 46.6782C118.32 46.71 118.149 47.0355 118.195 47.4051C118.24 47.7747 118.485 48.0485 118.742 48.0166Z" fill="#E6E6E6"/>
<path d="M111.734 56.4325C111.99 56.4006 112.161 56.0752 112.116 55.7056C112.07 55.336 111.825 55.0622 111.569 55.0941C111.313 55.126 111.142 55.4514 111.188 55.821C111.233 56.1906 111.478 56.4644 111.734 56.4325Z" fill="#E6E6E6"/>
<path d="M115.249 57.7088C115.505 57.677 115.676 57.3515 115.63 56.9819C115.584 56.6123 115.34 56.3385 115.083 56.3704C114.827 56.4023 114.656 56.7277 114.702 57.0973C114.748 57.4669 114.992 57.7407 115.249 57.7088Z" fill="#E6E6E6"/>
<path d="M110.981 61.3239C111.238 61.292 111.408 60.9665 111.363 60.5969C111.317 60.2273 111.072 59.9536 110.816 59.9854C110.56 60.0173 110.389 60.3428 110.435 60.7124C110.48 61.082 110.725 61.3557 110.981 61.3239Z" fill="#E6E6E6"/>
<path d="M80.3838 54.8069C80.9514 54.6552 81.3262 54.2112 81.2211 53.815C81.1159 53.4189 80.5706 53.2207 80.0031 53.3724C79.4355 53.524 79.0607 53.9681 79.1658 54.3642C79.271 54.7603 79.8163 54.9585 80.3838 54.8069Z" fill="#E6E6E6"/>
<path d="M73.4323 54.9361C73.9998 54.7844 74.3747 54.3404 74.2695 53.9442C74.1644 53.5481 73.619 53.3499 73.0515 53.5016C72.4839 53.6532 72.1091 54.0973 72.2142 54.4934C72.3194 54.8895 72.8647 55.0877 73.4323 54.9361Z" fill="#E6E6E6"/>
<path d="M81.619 49.0038C82.1866 48.8522 82.5614 48.4081 82.4563 48.012C82.3511 47.6159 81.8058 47.4177 81.2383 47.5693C80.6707 47.721 80.2959 48.1651 80.401 48.5612C80.5062 48.9573 81.0515 49.1555 81.619 49.0038Z" fill="#E6E6E6"/>
<path d="M83.6691 46.5374C83.9253 46.5055 84.096 46.18 84.0504 45.8104C84.0047 45.4408 83.7599 45.1671 83.5037 45.1989C83.2474 45.2308 83.0767 45.5563 83.1224 45.9259C83.168 46.2955 83.4128 46.5692 83.6691 46.5374Z" fill="#E6E6E6"/>
<path d="M84.1881 42.1595C84.4444 42.1276 84.6151 41.8021 84.5694 41.4325C84.5237 41.0629 84.279 40.7892 84.0227 40.821C83.7664 40.8529 83.5957 41.1784 83.6414 41.548C83.6871 41.9176 83.9318 42.1913 84.1881 42.1595Z" fill="#E6E6E6"/>
<path d="M77.1808 50.5754C77.4371 50.5435 77.6078 50.2181 77.5621 49.8485C77.5165 49.4789 77.2717 49.2051 77.0155 49.237C76.7592 49.2689 76.5885 49.5943 76.6341 49.9639C76.6798 50.3335 76.9246 50.6073 77.1808 50.5754Z" fill="#E6E6E6"/>
<path d="M80.6953 51.8517C80.9516 51.8198 81.1223 51.4944 81.0766 51.1248C81.031 50.7552 80.7862 50.4814 80.5299 50.5133C80.2737 50.5452 80.103 50.8706 80.1486 51.2402C80.1943 51.6098 80.4391 51.8836 80.6953 51.8517Z" fill="#E6E6E6"/>
<path d="M76.4281 55.4667C76.6843 55.4349 76.8551 55.1094 76.8094 54.7398C76.7637 54.3702 76.519 54.0964 76.2627 54.1283C76.0064 54.1602 75.8357 54.4857 75.8814 54.8552C75.9271 55.2248 76.1718 55.4986 76.4281 55.4667Z" fill="#E6E6E6"/>
<path d="M122.618 27.9884C123.185 27.8367 123.56 27.3926 123.455 26.9965C123.35 26.6004 122.805 26.4022 122.237 26.5539C121.669 26.7055 121.295 27.1496 121.4 27.5457C121.505 27.9418 122.05 28.14 122.618 27.9884Z" fill="#E6E6E6"/>
<path d="M115.666 28.1176C116.234 27.9659 116.609 27.5219 116.503 27.1257C116.398 26.7296 115.853 26.5314 115.285 26.6831C114.718 26.8347 114.343 27.2788 114.448 27.6749C114.553 28.071 115.099 28.2692 115.666 28.1176Z" fill="#E6E6E6"/>
<path d="M123.853 22.1852C124.42 22.0335 124.795 21.5895 124.69 21.1933C124.585 20.7972 124.04 20.599 123.472 20.7507C122.905 20.9023 122.53 21.3464 122.635 21.7425C122.74 22.1386 123.285 22.3368 123.853 22.1852Z" fill="#E6E6E6"/>
<path d="M125.903 19.7188C126.159 19.687 126.33 19.3615 126.284 18.9919C126.239 18.6223 125.994 18.3485 125.738 18.3804C125.481 18.4123 125.311 18.7378 125.356 19.1073C125.402 19.4769 125.647 19.7507 125.903 19.7188Z" fill="#E6E6E6"/>
<path d="M126.422 15.3409C126.678 15.3091 126.849 14.9836 126.803 14.614C126.758 14.2444 126.513 13.9706 126.257 14.0025C126 14.0344 125.83 14.3599 125.875 14.7295C125.921 15.099 126.166 15.3728 126.422 15.3409Z" fill="#E6E6E6"/>
<path d="M119.415 23.7569C119.671 23.725 119.842 23.3995 119.796 23.0299C119.75 22.6604 119.506 22.3866 119.249 22.4185C118.993 22.4503 118.822 22.7758 118.868 23.1454C118.914 23.515 119.158 23.7888 119.415 23.7569Z" fill="#E6E6E6"/>
<path d="M122.929 25.0332C123.186 25.0013 123.356 24.6759 123.311 24.3063C123.265 23.9367 123.02 23.6629 122.764 23.6948C122.508 23.7267 122.337 24.0521 122.383 24.4217C122.428 24.7913 122.673 25.0651 122.929 25.0332Z" fill="#E6E6E6"/>
<path d="M118.662 28.6482C118.918 28.6163 119.089 28.2909 119.043 27.9213C118.998 27.5517 118.753 27.2779 118.497 27.3098C118.24 27.3417 118.07 27.6671 118.115 28.0367C118.161 28.4063 118.406 28.6801 118.662 28.6482Z" fill="#E6E6E6"/>
<path d="M78.2951 55.7991C77.1578 55.7991 76.4184 55.5156 76.0912 54.9519C75.4458 53.8403 76.5267 51.8899 79.3036 49.1549L79.5369 49.3933C76.9574 51.934 75.8358 53.8483 76.3789 54.7837C76.7225 55.3754 77.7451 55.5875 79.3369 55.3967C80.917 55.2075 83.0111 54.6433 85.5609 53.72C90.8103 51.8192 97.3962 48.613 104.105 44.6919C110.814 40.7708 116.843 36.6046 121.08 32.9607C121.894 32.2606 122.633 31.5872 123.276 30.9592C124.12 30.1549 124.899 29.2843 125.604 28.3556C126.555 27.0607 126.876 26.0635 126.532 25.4718C125.958 24.4834 123.547 24.5763 119.744 25.7338L119.647 25.4141C123.728 24.1724 126.141 24.1352 126.82 25.3036C127.241 26.0296 126.923 27.1231 125.872 28.5538C125.156 29.4972 124.365 30.3816 123.508 31.1986C122.86 31.8315 122.116 32.5097 121.297 33.2143C117.045 36.871 110.999 41.0497 104.273 44.9805C97.547 48.9115 90.9417 52.1269 85.674 54.0344C83.1004 54.9662 80.9816 55.5362 79.3763 55.7284C79.0176 55.7733 78.6566 55.7969 78.2951 55.7991Z" fill="#3F3D56"/>
</g>
<defs>
<filter id="filter0_d_735_32" x="27" y="14" width="104" height="84" filterUnits="userSpaceOnUse" color-interpolation-filters="sRGB">
<feFlood flood-opacity="0" result="BackgroundImageFix"/>
<feColorMatrix in="SourceAlpha" type="matrix" values="0 0 0 0 0 0 0 0 0 0 0 0 0 0 0 0 0 0 127 0" result="hardAlpha"/>
<feOffset dy="4"/>
<feGaussianBlur stdDeviation="2"/>
<feComposite in2="hardAlpha" operator="out"/>
<feColorMatrix type="matrix" values="0 0 0 0 0 0 0 0 0 0 0 0 0 0 0 0 0 0 0.25 0"/>
<feBlend mode="normal" in2="BackgroundImageFix" result="effect1_dropShadow_735_32"/>
<feBlend mode="normal" in="SourceGraphic" in2="effect1_dropShadow_735_32" result="shape"/>
</filter>
<clipPath id="clip0_735_32">
<rect width="96" height="76" fill="white" transform="translate(31 14)"/>
</clipPath>
</defs>
</svg>
