<svg width="165" height="162" viewBox="0 0 165 162" fill="none" xmlns="http://www.w3.org/2000/svg">
<g filter="url(#filter0_d_735_12)">
<path d="M159 77C159 118.385 124.786 152 82.5 152C40.2137 152 6 118.385 6 77C6 35.6148 40.2137 2 82.5 2C124.786 2 159 35.6148 159 77Z" fill="white" stroke="#F9A826" stroke-width="4"/>
<path d="M47.7053 107V93.9091H52.1286C53.1556 93.9091 53.9951 94.0945 54.6471 94.4652C55.3034 94.8317 55.7892 95.3281 56.1045 95.9545C56.4198 96.581 56.5775 97.2798 56.5775 98.0511C56.5775 98.8224 56.4198 99.5234 56.1045 100.154C55.7934 100.785 55.3119 101.288 54.6599 101.663C54.0079 102.033 53.1727 102.219 52.1542 102.219H48.9838V100.812H52.1031C52.8062 100.812 53.3708 100.691 53.797 100.448C54.2231 100.205 54.532 99.8771 54.7238 99.4638C54.9198 99.0462 55.0178 98.5753 55.0178 98.0511C55.0178 97.527 54.9198 97.0582 54.7238 96.6449C54.532 96.2315 54.221 95.9077 53.7906 95.6733C53.3602 95.4347 52.7892 95.3153 52.0775 95.3153H49.2906V107H47.7053ZM58.9266 107V97.1818H60.384V98.6648H60.4862C60.6652 98.179 60.9891 97.7848 61.4578 97.4822C61.9266 97.1797 62.455 97.0284 63.0431 97.0284C63.1539 97.0284 63.2923 97.0305 63.4585 97.0348C63.6247 97.0391 63.7504 97.0455 63.8357 97.054V98.5881C63.7845 98.5753 63.6673 98.5561 63.4841 98.5305C63.3051 98.5007 63.1155 98.4858 62.9152 98.4858C62.4379 98.4858 62.0118 98.5859 61.6368 98.7862C61.2661 98.9822 60.972 99.255 60.7547 99.6044C60.5416 99.9496 60.4351 100.344 60.4351 100.787V107H58.9266ZM69.3137 107.205C68.4273 107.205 67.6496 106.994 66.9806 106.572C66.3158 106.15 65.7959 105.56 65.4209 104.801C65.0502 104.043 64.8648 103.156 64.8648 102.142C64.8648 101.119 65.0502 100.227 65.4209 99.4638C65.7959 98.701 66.3158 98.1087 66.9806 97.6868C67.6496 97.2649 68.4273 97.054 69.3137 97.054C70.2 97.054 70.9756 97.2649 71.6404 97.6868C72.3094 98.1087 72.8293 98.701 73.2 99.4638C73.575 100.227 73.7625 101.119 73.7625 102.142C73.7625 103.156 73.575 104.043 73.2 104.801C72.8293 105.56 72.3094 106.15 71.6404 106.572C70.9756 106.994 70.2 107.205 69.3137 107.205ZM69.3137 105.849C69.9869 105.849 70.5409 105.677 70.9756 105.332C71.4102 104.987 71.732 104.533 71.9408 103.97C72.1496 103.408 72.254 102.798 72.254 102.142C72.254 101.486 72.1496 100.874 71.9408 100.308C71.732 99.7408 71.4102 99.2827 70.9756 98.9332C70.5409 98.5838 69.9869 98.4091 69.3137 98.4091C68.6404 98.4091 68.0864 98.5838 67.6517 98.9332C67.2171 99.2827 66.8953 99.7408 66.6865 100.308C66.4777 100.874 66.3733 101.486 66.3733 102.142C66.3733 102.798 66.4777 103.408 66.6865 103.97C66.8953 104.533 67.2171 104.987 67.6517 105.332C68.0864 105.677 68.6404 105.849 69.3137 105.849ZM84.8351 107.205C84.017 107.205 83.2947 106.998 82.6682 106.585C82.0418 106.167 81.5518 105.579 81.1981 104.82C80.8444 104.058 80.6675 103.156 80.6675 102.116C80.6675 101.085 80.8444 100.19 81.1981 99.4318C81.5518 98.6733 82.0439 98.0874 82.6746 97.674C83.3053 97.2607 84.034 97.054 84.8607 97.054C85.4999 97.054 86.0049 97.1605 86.3756 97.3736C86.7506 97.5824 87.0361 97.821 87.2322 98.0895C87.4324 98.3537 87.588 98.571 87.6988 98.7415H87.8266V93.9091H89.3351V107H87.8778V105.491H87.6988C87.588 105.67 87.4303 105.896 87.2258 106.169C87.0212 106.437 86.7293 106.678 86.3501 106.891C85.9708 107.1 85.4658 107.205 84.8351 107.205ZM85.0397 105.849C85.6448 105.849 86.1562 105.692 86.5738 105.376C86.9914 105.057 87.3089 104.616 87.5262 104.053C87.7435 103.487 87.8522 102.832 87.8522 102.091C87.8522 101.358 87.7457 100.717 87.5326 100.167C87.3195 99.6129 87.0042 99.1825 86.5866 98.8757C86.1689 98.5646 85.6533 98.4091 85.0397 98.4091C84.4005 98.4091 83.8678 98.5732 83.4417 98.9013C83.0198 99.2251 82.7023 99.6662 82.4893 100.224C82.2805 100.778 82.176 101.401 82.176 102.091C82.176 102.79 82.2826 103.425 82.4957 103.996C82.713 104.562 83.0326 105.014 83.4545 105.351C83.8806 105.683 84.409 105.849 85.0397 105.849ZM96.4239 107.205C95.4779 107.205 94.6618 106.996 93.9758 106.578C93.2939 106.156 92.7677 105.568 92.3969 104.814C92.0305 104.055 91.8472 103.173 91.8472 102.168C91.8472 101.162 92.0305 100.276 92.3969 99.5085C92.7677 98.7372 93.2833 98.1364 93.9438 97.706C94.6086 97.2713 95.3841 97.054 96.2705 97.054C96.7819 97.054 97.2868 97.1392 97.7854 97.3097C98.284 97.4801 98.7378 97.7571 99.1469 98.1406C99.556 98.5199 99.882 99.0227 100.125 99.6491C100.368 100.276 100.489 101.047 100.489 101.963V102.602H92.9211V101.298H98.9552C98.9552 100.744 98.8444 100.25 98.6228 99.8153C98.4055 99.3807 98.0944 99.0376 97.6895 98.7862C97.289 98.5348 96.816 98.4091 96.2705 98.4091C95.6697 98.4091 95.1498 98.5582 94.7108 98.8565C94.2762 99.1506 93.9417 99.5341 93.7073 100.007C93.4729 100.48 93.3557 100.987 93.3557 101.528V102.398C93.3557 103.139 93.4836 103.768 93.7393 104.283C93.9992 104.795 94.3593 105.185 94.8195 105.453C95.2797 105.717 95.8145 105.849 96.4239 105.849C96.8202 105.849 97.1782 105.794 97.4978 105.683C97.8216 105.568 98.1008 105.398 98.3351 105.172C98.5695 104.942 98.7506 104.656 98.8785 104.315L100.336 104.724C100.182 105.219 99.9246 105.653 99.5624 106.028C99.2002 106.399 98.7528 106.689 98.2201 106.898C97.6874 107.102 97.0887 107.205 96.4239 107.205ZM109.355 93.9091V107H107.847V93.9091H109.355ZM115.007 107.23C114.385 107.23 113.82 107.113 113.313 106.879C112.806 106.64 112.403 106.297 112.105 105.849C111.807 105.398 111.658 104.852 111.658 104.213C111.658 103.651 111.769 103.195 111.99 102.845C112.212 102.491 112.508 102.214 112.879 102.014C113.249 101.814 113.658 101.665 114.106 101.567C114.558 101.464 115.011 101.384 115.467 101.324C116.064 101.247 116.548 101.19 116.918 101.151C117.293 101.109 117.566 101.038 117.737 100.94C117.911 100.842 117.999 100.672 117.999 100.429V100.378C117.999 99.7472 117.826 99.2571 117.481 98.9077C117.14 98.5582 116.622 98.3835 115.928 98.3835C115.207 98.3835 114.643 98.5412 114.234 98.8565C113.825 99.1719 113.537 99.5085 113.371 99.8665L111.939 99.3551C112.195 98.7585 112.536 98.294 112.962 97.9616C113.392 97.625 113.861 97.3906 114.368 97.2585C114.879 97.1222 115.382 97.054 115.877 97.054C116.192 97.054 116.554 97.0923 116.963 97.169C117.377 97.2415 117.775 97.3928 118.158 97.6229C118.546 97.853 118.868 98.2003 119.124 98.6648C119.379 99.1293 119.507 99.7514 119.507 100.531V107H117.999V105.67H117.922C117.82 105.884 117.649 106.112 117.411 106.354C117.172 106.597 116.854 106.804 116.458 106.974C116.062 107.145 115.578 107.23 115.007 107.23ZM115.237 105.875C115.834 105.875 116.337 105.758 116.746 105.523C117.159 105.289 117.47 104.987 117.679 104.616C117.892 104.245 117.999 103.855 117.999 103.446V102.065C117.935 102.142 117.794 102.212 117.577 102.276C117.364 102.336 117.117 102.389 116.835 102.436C116.558 102.479 116.288 102.517 116.024 102.551C115.764 102.581 115.553 102.607 115.391 102.628C114.999 102.679 114.632 102.762 114.291 102.877C113.955 102.988 113.682 103.156 113.473 103.382C113.269 103.604 113.166 103.906 113.166 104.29C113.166 104.814 113.36 105.21 113.748 105.479C114.14 105.743 114.636 105.875 115.237 105.875ZM60.2298 121.381L58.8746 121.764C58.7894 121.538 58.6637 121.319 58.4975 121.106C58.3356 120.888 58.114 120.71 57.8327 120.569C57.5515 120.428 57.1914 120.358 56.7525 120.358C56.1516 120.358 55.6509 120.496 55.2504 120.773C54.854 121.046 54.6559 121.393 54.6559 121.815C54.6559 122.19 54.7923 122.487 55.065 122.704C55.3377 122.921 55.7638 123.102 56.3434 123.247L57.8008 123.605C58.6786 123.818 59.3327 124.144 59.7631 124.583C60.1935 125.018 60.4087 125.578 60.4087 126.264C60.4087 126.827 60.2468 127.33 59.9229 127.773C59.6033 128.216 59.1559 128.565 58.5806 128.821C58.0053 129.077 57.3363 129.205 56.5735 129.205C55.5721 129.205 54.7433 128.987 54.087 128.553C53.4308 128.118 53.0153 127.483 52.8406 126.648L54.2724 126.29C54.4087 126.818 54.6665 127.214 55.0458 127.479C55.4293 127.743 55.93 127.875 56.5479 127.875C57.2511 127.875 57.8093 127.726 58.2227 127.428C58.6403 127.125 58.8491 126.763 58.8491 126.341C58.8491 126 58.7298 125.714 58.4911 125.484C58.2525 125.25 57.886 125.075 57.3917 124.96L55.7553 124.577C54.8562 124.364 54.1957 124.033 53.7738 123.586C53.3562 123.134 53.1474 122.57 53.1474 121.892C53.1474 121.338 53.3029 120.848 53.614 120.422C53.9293 119.996 54.3576 119.661 54.8988 119.418C55.4442 119.175 56.0621 119.054 56.7525 119.054C57.7241 119.054 58.4869 119.267 59.0408 119.693C59.5991 120.119 59.9954 120.682 60.2298 121.381ZM66.796 129.205C65.85 129.205 65.0339 128.996 64.3478 128.578C63.666 128.156 63.1397 127.568 62.769 126.814C62.4025 126.055 62.2193 125.173 62.2193 124.168C62.2193 123.162 62.4025 122.276 62.769 121.509C63.1397 120.737 63.6554 120.136 64.3159 119.706C64.9806 119.271 65.7562 119.054 66.6426 119.054C67.1539 119.054 67.6589 119.139 68.1575 119.31C68.6561 119.48 69.1099 119.757 69.519 120.141C69.9281 120.52 70.2541 121.023 70.497 121.649C70.7399 122.276 70.8613 123.047 70.8613 123.963V124.602H63.2931V123.298H69.3272C69.3272 122.744 69.2164 122.25 68.9949 121.815C68.7775 121.381 68.4664 121.038 68.0616 120.786C67.661 120.535 67.188 120.409 66.6426 120.409C66.0417 120.409 65.5218 120.558 65.0829 120.857C64.6483 121.151 64.3137 121.534 64.0794 122.007C63.845 122.48 63.7278 122.987 63.7278 123.528V124.398C63.7278 125.139 63.8556 125.768 64.1113 126.283C64.3713 126.795 64.7314 127.185 65.1916 127.453C65.6518 127.717 66.1866 127.849 66.796 127.849C67.1923 127.849 67.5502 127.794 67.8699 127.683C68.1937 127.568 68.4728 127.398 68.7072 127.172C68.9416 126.942 69.1227 126.656 69.2505 126.315L70.7079 126.724C70.5545 127.219 70.2967 127.653 69.9345 128.028C69.5723 128.399 69.1248 128.689 68.5922 128.898C68.0595 129.102 67.4608 129.205 66.796 129.205ZM65.8755 117.852L67.4352 114.886H69.1994L67.2051 117.852H65.8755ZM77.1447 129.205C76.2243 129.205 75.4316 128.987 74.7669 128.553C74.1021 128.118 73.5907 127.519 73.2328 126.756C72.8748 125.994 72.6958 125.122 72.6958 124.142C72.6958 123.145 72.8791 122.265 73.2456 121.502C73.6163 120.735 74.1319 120.136 74.7924 119.706C75.4572 119.271 76.2328 119.054 77.1191 119.054C77.8095 119.054 78.4316 119.182 78.9856 119.438C79.5396 119.693 79.9934 120.051 80.3471 120.511C80.7008 120.972 80.9203 121.509 81.0055 122.122H79.497C79.3819 121.675 79.1262 121.278 78.7299 120.933C78.3379 120.584 77.8095 120.409 77.1447 120.409C76.5566 120.409 76.041 120.562 75.5978 120.869C75.1589 121.172 74.8159 121.6 74.5687 122.154C74.3258 122.704 74.2044 123.349 74.2044 124.091C74.2044 124.849 74.3237 125.51 74.5623 126.072C74.8052 126.635 75.1461 127.072 75.585 127.383C76.0282 127.694 76.5481 127.849 77.1447 127.849C77.5368 127.849 77.8926 127.781 78.2122 127.645C78.5318 127.509 78.8024 127.312 79.024 127.057C79.2456 126.801 79.4032 126.494 79.497 126.136H81.0055C80.9203 126.716 80.7093 127.238 80.3727 127.702C80.0403 128.163 79.5993 128.529 79.0495 128.802C78.5041 129.07 77.8691 129.205 77.1447 129.205ZM89.3983 124.986V119.182H90.9068V129H89.3983V127.338H89.296C89.0659 127.837 88.7079 128.261 88.2221 128.61C87.7363 128.955 87.1227 129.128 86.3812 129.128C85.7676 129.128 85.2221 128.994 84.7449 128.725C84.2676 128.452 83.8926 128.043 83.6199 127.498C83.3471 126.948 83.2108 126.256 83.2108 125.42V119.182H84.7193V125.318C84.7193 126.034 84.9196 126.605 85.3201 127.031C85.725 127.457 86.2406 127.67 86.867 127.67C87.242 127.67 87.6234 127.575 88.0112 127.383C88.4032 127.191 88.7314 126.897 88.9956 126.501C89.264 126.104 89.3983 125.599 89.3983 124.986ZM93.6697 129V119.182H95.1271V120.665H95.2294C95.4084 120.179 95.7322 119.785 96.201 119.482C96.6697 119.18 97.1982 119.028 97.7862 119.028C97.897 119.028 98.0355 119.031 98.2017 119.035C98.3679 119.039 98.4936 119.045 98.5788 119.054V120.588C98.5277 120.575 98.4105 120.556 98.2273 120.531C98.0483 120.501 97.8587 120.486 97.6584 120.486C97.1811 120.486 96.755 120.586 96.38 120.786C96.0092 120.982 95.7152 121.255 95.4979 121.604C95.2848 121.95 95.1783 122.344 95.1783 122.787V129H93.6697ZM100.367 129V119.182H101.876V129H100.367ZM101.134 117.545C100.84 117.545 100.586 117.445 100.373 117.245C100.165 117.045 100.06 116.804 100.06 116.523C100.06 116.241 100.165 116.001 100.373 115.8C100.586 115.6 100.84 115.5 101.134 115.5C101.428 115.5 101.68 115.6 101.888 115.8C102.101 116.001 102.208 116.241 102.208 116.523C102.208 116.804 102.101 117.045 101.888 117.245C101.68 117.445 101.428 117.545 101.134 117.545ZM108.908 119.182V120.46H103.82V119.182H108.908ZM105.303 116.83H106.812V126.188C106.812 126.614 106.874 126.933 106.997 127.146C107.125 127.355 107.287 127.496 107.483 127.568C107.683 127.636 107.894 127.67 108.116 127.67C108.282 127.67 108.418 127.662 108.525 127.645C108.631 127.624 108.717 127.607 108.781 127.594L109.087 128.949C108.985 128.987 108.842 129.026 108.659 129.064C108.476 129.107 108.244 129.128 107.962 129.128C107.536 129.128 107.119 129.036 106.71 128.853C106.305 128.67 105.968 128.391 105.7 128.016C105.435 127.641 105.303 127.168 105.303 126.597V116.83ZM115.189 129.205C114.243 129.205 113.426 128.996 112.74 128.578C112.059 128.156 111.532 127.568 111.162 126.814C110.795 126.055 110.612 125.173 110.612 124.168C110.612 123.162 110.795 122.276 111.162 121.509C111.532 120.737 112.048 120.136 112.708 119.706C113.373 119.271 114.149 119.054 115.035 119.054C115.547 119.054 116.051 119.139 116.55 119.31C117.049 119.48 117.502 119.757 117.912 120.141C118.321 120.52 118.647 121.023 118.89 121.649C119.132 122.276 119.254 123.047 119.254 123.963V124.602H111.686V123.298H117.72C117.72 122.744 117.609 122.25 117.387 121.815C117.17 121.381 116.859 121.038 116.454 120.786C116.054 120.535 115.581 120.409 115.035 120.409C114.434 120.409 113.914 120.558 113.475 120.857C113.041 121.151 112.706 121.534 112.472 122.007C112.238 122.48 112.12 122.987 112.12 123.528V124.398C112.12 125.139 112.248 125.768 112.504 126.283C112.764 126.795 113.124 127.185 113.584 127.453C114.044 127.717 114.579 127.849 115.189 127.849C115.585 127.849 115.943 127.794 116.262 127.683C116.586 127.568 116.865 127.398 117.1 127.172C117.334 126.942 117.515 126.656 117.643 126.315L119.1 126.724C118.947 127.219 118.689 127.653 118.327 128.028C117.965 128.399 117.517 128.689 116.985 128.898C116.452 129.102 115.853 129.205 115.189 129.205ZM114.268 117.852L115.828 114.886H117.592L115.598 117.852H114.268Z" fill="black"/>
<path d="M82.7045 81.9992C81.5384 81.9959 80.3773 81.8702 79.2486 81.6249L79.0261 81.5734L78.8197 81.4869C71.3584 78.3554 65.0638 74.2193 60.1105 69.1932C56.0103 65.0082 52.8135 60.2566 50.664 55.1521C48.0936 49.0407 46.8569 42.5922 47.0131 36.1144C47.0163 35.9784 47.019 35.8734 47.019 35.8011C47.019 32.6522 49.1071 29.8893 52.3386 28.7622C54.8119 27.8995 77.268 20.1787 78.8905 19.6209C81.9461 18.3393 85.2059 19.409 85.7276 19.596C86.8977 19.9965 107.657 27.1039 112.143 28.892C116.766 30.7349 118 34.0456 118 35.7112C118 43.2522 116.44 50.2998 113.363 56.6583C110.878 61.8051 107.355 66.5566 102.95 70.7057C94.4492 78.7132 85.9465 81.5518 85.8644 81.5768C84.8482 81.8695 83.7791 82.0124 82.7045 81.9992ZM80.705 77.8531C81.4421 77.9915 83.1393 78.199 84.2455 77.8612C85.6508 77.4322 92.7674 74.3431 99.4177 68.0786C108.606 59.4232 113.268 48.5426 113.275 35.739C113.259 35.4796 113.039 33.6296 110.112 32.4629C105.713 30.7094 84.1351 23.3239 83.9176 23.2495L83.858 23.2283C83.4058 23.0697 81.9667 22.7356 80.9747 23.1708L80.7761 23.2483C80.5356 23.331 56.6982 31.5263 54.1559 32.413C52.3775 33.0333 51.7439 34.5699 51.7439 35.8011C51.7439 35.8911 51.7411 36.022 51.7372 36.1911C51.534 44.9518 53.9559 66.5091 80.705 77.8531Z" fill="#3F3D56"/>
<path d="M79.8515 21.4391C79.8515 21.4391 55.5354 29.7029 52.9301 30.6011C50.3248 31.4994 49.0222 33.6551 49.0222 35.8109C49.0222 37.9667 47.0682 66.0965 79.8515 79.6972C79.8515 79.6972 82.8269 80.3785 85.0843 79.6972C87.3417 79.016 116 67.5186 116 35.7211C116 35.7211 116 32.4874 111.441 30.691C106.881 28.8945 84.8382 21.4391 84.8382 21.4391C84.8382 21.4391 82.1311 20.4511 79.8515 21.4391Z" fill="#F9A826"/>
<path opacity="0.1" d="M82 28V72C82 72 57.7871 62.247 58.0014 36.6066L82 28Z" fill="black"/>
<path d="M82.8382 60L75 51.3303L79.5583 48.2806L83.2697 52.3855L95.8074 41L100 44.4171L82.8382 60Z" fill="white"/>
</g>
<defs>
<filter id="filter0_d_735_12" x="0" y="0" width="165" height="162" filterUnits="userSpaceOnUse" color-interpolation-filters="sRGB">
<feFlood flood-opacity="0" result="BackgroundImageFix"/>
<feColorMatrix in="SourceAlpha" type="matrix" values="0 0 0 0 0 0 0 0 0 0 0 0 0 0 0 0 0 0 127 0" result="hardAlpha"/>
<feOffset dy="4"/>
<feGaussianBlur stdDeviation="2"/>
<feComposite in2="hardAlpha" operator="out"/>
<feColorMatrix type="matrix" values="0 0 0 0 0 0 0 0 0 0 0 0 0 0 0 0 0 0 0.25 0"/>
<feBlend mode="normal" in2="BackgroundImageFix" result="effect1_dropShadow_735_12"/>
<feBlend mode="normal" in="SourceGraphic" in2="effect1_dropShadow_735_12" result="shape"/>
</filter>
</defs>
</svg>
