<svg width="165" height="162" viewBox="0 0 165 162" fill="none" xmlns="http://www.w3.org/2000/svg">
<g filter="url(#filter0_d_735_13)">
<path d="M159 77C159 118.385 124.786 152 82.5 152C40.2137 152 6 118.385 6 77C6 35.6148 40.2137 2 82.5 2C124.786 2 159 35.6148 159 77Z" fill="white" stroke="#F9A826" stroke-width="4"/>
<path d="M40.5862 107V93.9091H45.0095C46.0365 93.9091 46.876 94.0945 47.528 94.4652C48.1842 94.8317 48.67 95.3281 48.9854 95.9545C49.3007 96.581 49.4584 97.2798 49.4584 98.0511C49.4584 98.8224 49.3007 99.5234 48.9854 100.154C48.6743 100.785 48.1927 101.288 47.5407 101.663C46.8888 102.033 46.0535 102.219 45.0351 102.219H41.8646V100.812H44.9839C45.6871 100.812 46.2517 100.691 46.6778 100.448C47.104 100.205 47.4129 99.8771 47.6047 99.4638C47.8007 99.0462 47.8987 98.5753 47.8987 98.0511C47.8987 97.527 47.8007 97.0582 47.6047 96.6449C47.4129 96.2315 47.1018 95.9077 46.6714 95.6733C46.241 95.4347 45.67 95.3153 44.9584 95.3153H42.1714V107H40.5862ZM51.8074 107V97.1818H53.2648V98.6648H53.3671C53.5461 98.179 53.8699 97.7848 54.3387 97.4822C54.8074 97.1797 55.3358 97.0284 55.9239 97.0284C56.0347 97.0284 56.1732 97.0305 56.3394 97.0348C56.5056 97.0391 56.6313 97.0455 56.7165 97.054V98.5881C56.6654 98.5753 56.5482 98.5561 56.365 98.5305C56.186 98.5007 55.9964 98.4858 55.7961 98.4858C55.3188 98.4858 54.8927 98.5859 54.5177 98.7862C54.1469 98.9822 53.8529 99.255 53.6356 99.6044C53.4225 99.9496 53.316 100.344 53.316 100.787V107H51.8074ZM62.3224 107.205C61.3763 107.205 60.5603 106.996 59.8742 106.578C59.1924 106.156 58.6661 105.568 58.2954 104.814C57.9289 104.055 57.7456 103.173 57.7456 102.168C57.7456 101.162 57.9289 100.276 58.2954 99.5085C58.6661 98.7372 59.1817 98.1364 59.8422 97.706C60.507 97.2713 61.2826 97.054 62.1689 97.054C62.6803 97.054 63.1853 97.1392 63.6839 97.3097C64.1824 97.4801 64.6363 97.7571 65.0454 98.1406C65.4545 98.5199 65.7805 99.0227 66.0233 99.6491C66.2662 100.276 66.3877 101.047 66.3877 101.963V102.602H58.8195V101.298H64.8536C64.8536 100.744 64.7428 100.25 64.5212 99.8153C64.3039 99.3807 63.9928 99.0376 63.588 98.7862C63.1874 98.5348 62.7144 98.4091 62.1689 98.4091C61.5681 98.4091 61.0482 98.5582 60.6093 98.8565C60.1746 99.1506 59.8401 99.5341 59.6057 100.007C59.3714 100.48 59.2542 100.987 59.2542 101.528V102.398C59.2542 103.139 59.382 103.768 59.6377 104.283C59.8976 104.795 60.2577 105.185 60.718 105.453C61.1782 105.717 61.713 105.849 62.3224 105.849C62.7187 105.849 63.0766 105.794 63.3962 105.683C63.7201 105.568 63.9992 105.398 64.2336 105.172C64.468 104.942 64.6491 104.656 64.7769 104.315L66.2343 104.724C66.0809 105.219 65.8231 105.653 65.4608 106.028C65.0986 106.399 64.6512 106.689 64.1185 106.898C63.5858 107.102 62.9871 107.205 62.3224 107.205ZM63.4218 96.0057L62.0922 94.2159L60.7627 96.0057H59.3309V95.9034L61.4019 93.2443H62.7826L64.8536 95.9034V96.0057H63.4218ZM72.9523 97.1818V98.4602H67.8643V97.1818H72.9523ZM69.3472 94.8295H70.8557V104.188C70.8557 104.614 70.9175 104.933 71.0411 105.146C71.1689 105.355 71.3309 105.496 71.5269 105.568C71.7272 105.636 71.9381 105.67 72.1597 105.67C72.3259 105.67 72.4623 105.662 72.5688 105.645C72.6753 105.624 72.7606 105.607 72.8245 105.594L73.1313 106.949C73.029 106.987 72.8863 107.026 72.703 107.064C72.5198 107.107 72.2876 107.128 72.0063 107.128C71.5802 107.128 71.1626 107.036 70.7535 106.853C70.3486 106.67 70.012 106.391 69.7435 106.016C69.4793 105.641 69.3472 105.168 69.3472 104.597V94.8295ZM83.1732 107.23C82.551 107.23 81.9864 107.113 81.4793 106.879C80.9722 106.64 80.5695 106.297 80.2712 105.849C79.9729 105.398 79.8238 104.852 79.8238 104.213C79.8238 103.651 79.9346 103.195 80.1562 102.845C80.3778 102.491 80.6739 102.214 81.0447 102.014C81.4154 101.814 81.8245 101.665 82.2719 101.567C82.7236 101.464 83.1775 101.384 83.6334 101.324C84.23 101.247 84.7137 101.19 85.0844 101.151C85.4594 101.109 85.7322 101.038 85.9026 100.94C86.0773 100.842 86.1647 100.672 86.1647 100.429V100.378C86.1647 99.7472 85.9921 99.2571 85.6469 98.9077C85.306 98.5582 84.7883 98.3835 84.0937 98.3835C83.3735 98.3835 82.8089 98.5412 82.3998 98.8565C81.9907 99.1719 81.703 99.5085 81.5368 99.8665L80.105 99.3551C80.3607 98.7585 80.7016 98.294 81.1278 97.9616C81.5581 97.625 82.0269 97.3906 82.534 97.2585C83.0454 97.1222 83.5482 97.054 84.0425 97.054C84.3579 97.054 84.7201 97.0923 85.1292 97.169C85.5425 97.2415 85.941 97.3928 86.3245 97.6229C86.7123 97.853 87.034 98.2003 87.2897 98.6648C87.5454 99.1293 87.6732 99.7514 87.6732 100.531V107H86.1647V105.67H86.088C85.9857 105.884 85.8153 106.112 85.5766 106.354C85.338 106.597 85.0205 106.804 84.6242 106.974C84.2279 107.145 83.7442 107.23 83.1732 107.23ZM83.4033 105.875C83.9999 105.875 84.5028 105.758 84.9118 105.523C85.3252 105.289 85.6363 104.987 85.8451 104.616C86.0581 104.245 86.1647 103.855 86.1647 103.446V102.065C86.1008 102.142 85.9601 102.212 85.7428 102.276C85.5297 102.336 85.2826 102.389 85.0013 102.436C84.7243 102.479 84.4537 102.517 84.1895 102.551C83.9296 102.581 83.7187 102.607 83.5567 102.628C83.1647 102.679 82.7982 102.762 82.4573 102.877C82.1206 102.988 81.8479 103.156 81.6391 103.382C81.4346 103.604 81.3323 103.906 81.3323 104.29C81.3323 104.814 81.5262 105.21 81.914 105.479C82.306 105.743 82.8025 105.875 83.4033 105.875ZM83.5056 95.8523L81.5113 92.8864H83.2755L84.8351 95.8523H83.5056ZM99.6056 107.205C98.6595 107.205 97.8435 106.996 97.1574 106.578C96.4756 106.156 95.9493 105.568 95.5786 104.814C95.2121 104.055 95.0289 103.173 95.0289 102.168C95.0289 101.162 95.2121 100.276 95.5786 99.5085C95.9493 98.7372 96.4649 98.1364 97.1254 97.706C97.7902 97.2713 98.5658 97.054 99.4521 97.054C99.9635 97.054 100.468 97.1392 100.967 97.3097C101.466 97.4801 101.919 97.7571 102.329 98.1406C102.738 98.5199 103.064 99.0227 103.307 99.6491C103.549 100.276 103.671 101.047 103.671 101.963V102.602H96.1027V101.298H102.137C102.137 100.744 102.026 100.25 101.804 99.8153C101.587 99.3807 101.276 99.0376 100.871 98.7862C100.471 98.5348 99.9976 98.4091 99.4521 98.4091C98.8513 98.4091 98.3314 98.5582 97.8925 98.8565C97.4578 99.1506 97.1233 99.5341 96.8889 100.007C96.6546 100.48 96.5374 100.987 96.5374 101.528V102.398C96.5374 103.139 96.6652 103.768 96.9209 104.283C97.1808 104.795 97.5409 105.185 98.0012 105.453C98.4614 105.717 98.9962 105.849 99.6056 105.849C100.002 105.849 100.36 105.794 100.679 105.683C101.003 105.568 101.282 105.398 101.517 105.172C101.751 104.942 101.932 104.656 102.06 104.315L103.517 104.724C103.364 105.219 103.106 105.653 102.744 106.028C102.382 106.399 101.934 106.689 101.402 106.898C100.869 107.102 100.27 107.205 99.6056 107.205ZM100.705 96.0057L99.3754 94.2159L98.0459 96.0057H96.6141V95.9034L98.6851 93.2443H100.066L102.137 95.9034V96.0057H100.705ZM110.236 97.1818V98.4602H105.147V97.1818H110.236ZM106.63 94.8295H108.139V104.188C108.139 104.614 108.201 104.933 108.324 105.146C108.452 105.355 108.614 105.496 108.81 105.568C109.01 105.636 109.221 105.67 109.443 105.67C109.609 105.67 109.745 105.662 109.852 105.645C109.959 105.624 110.044 105.607 110.108 105.594L110.415 106.949C110.312 106.987 110.169 107.026 109.986 107.064C109.803 107.107 109.571 107.128 109.29 107.128C108.863 107.128 108.446 107.036 108.037 106.853C107.632 106.67 107.295 106.391 107.027 106.016C106.763 105.641 106.63 105.168 106.63 104.597V94.8295ZM112.505 107V97.1818H113.962V98.6648H114.064C114.243 98.179 114.567 97.7848 115.036 97.4822C115.505 97.1797 116.033 97.0284 116.621 97.0284C116.732 97.0284 116.87 97.0305 117.037 97.0348C117.203 97.0391 117.329 97.0455 117.414 97.054V98.5881C117.363 98.5753 117.245 98.5561 117.062 98.5305C116.883 98.5007 116.694 98.4858 116.493 98.4858C116.016 98.4858 115.59 98.5859 115.215 98.7862C114.844 98.9822 114.55 99.255 114.333 99.6044C114.12 99.9496 114.013 100.344 114.013 100.787V107H112.505ZM123.02 107.205C122.074 107.205 121.258 106.996 120.571 106.578C119.89 106.156 119.363 105.568 118.993 104.814C118.626 104.055 118.443 103.173 118.443 102.168C118.443 101.162 118.626 100.276 118.993 99.5085C119.363 98.7372 119.879 98.1364 120.54 97.706C121.204 97.2713 121.98 97.054 122.866 97.054C123.378 97.054 123.883 97.1392 124.381 97.3097C124.88 97.4801 125.334 97.7571 125.743 98.1406C126.152 98.5199 126.478 99.0227 126.721 99.6491C126.964 100.276 127.085 101.047 127.085 101.963V102.602H119.517V101.298H125.551C125.551 100.744 125.44 100.25 125.218 99.8153C125.001 99.3807 124.69 99.0376 124.285 98.7862C123.885 98.5348 123.412 98.4091 122.866 98.4091C122.265 98.4091 121.745 98.5582 121.307 98.8565C120.872 99.1506 120.537 99.5341 120.303 100.007C120.069 100.48 119.951 100.987 119.951 101.528V102.398C119.951 103.139 120.079 103.768 120.335 104.283C120.595 104.795 120.955 105.185 121.415 105.453C121.875 105.717 122.41 105.849 123.02 105.849C123.416 105.849 123.774 105.794 124.093 105.683C124.417 105.568 124.696 105.398 124.931 105.172C125.165 104.942 125.346 104.656 125.474 104.315L126.932 104.724C126.778 105.219 126.52 105.653 126.158 106.028C125.796 106.399 125.348 106.689 124.816 106.898C124.283 107.102 123.684 107.205 123.02 107.205ZM69.7347 129.23C69.1126 129.23 68.5479 129.113 68.0408 128.879C67.5337 128.64 67.131 128.297 66.8327 127.849C66.5344 127.398 66.3853 126.852 66.3853 126.213C66.3853 125.651 66.4961 125.195 66.7177 124.845C66.9393 124.491 67.2354 124.214 67.6062 124.014C67.9769 123.814 68.386 123.665 68.8335 123.567C69.2852 123.464 69.739 123.384 70.195 123.324C70.7915 123.247 71.2752 123.19 71.646 123.151C72.021 123.109 72.2937 123.038 72.4641 122.94C72.6388 122.842 72.7262 122.672 72.7262 122.429V122.378C72.7262 121.747 72.5536 121.257 72.2085 120.908C71.8675 120.558 71.3498 120.384 70.6552 120.384C69.935 120.384 69.3704 120.541 68.9613 120.857C68.5522 121.172 68.2646 121.509 68.0984 121.866L66.6665 121.355C66.9222 120.759 67.2631 120.294 67.6893 119.962C68.1197 119.625 68.5884 119.391 69.0955 119.259C69.6069 119.122 70.1097 119.054 70.604 119.054C70.9194 119.054 71.2816 119.092 71.6907 119.169C72.104 119.241 72.5025 119.393 72.886 119.623C73.2738 119.853 73.5955 120.2 73.8512 120.665C74.1069 121.129 74.2347 121.751 74.2347 122.531V129H72.7262V127.67H72.6495C72.5472 127.884 72.3768 128.112 72.1381 128.354C71.8995 128.597 71.582 128.804 71.1857 128.974C70.7894 129.145 70.3058 129.23 69.7347 129.23ZM69.9648 127.875C70.5614 127.875 71.0643 127.758 71.4734 127.523C71.8867 127.289 72.1978 126.987 72.4066 126.616C72.6197 126.245 72.7262 125.855 72.7262 125.446V124.065C72.6623 124.142 72.5217 124.212 72.3043 124.276C72.0913 124.336 71.8441 124.389 71.5629 124.436C71.2859 124.479 71.0153 124.517 70.7511 124.551C70.4911 124.581 70.2802 124.607 70.1183 124.628C69.7262 124.679 69.3597 124.762 69.0188 124.877C68.6822 124.988 68.4094 125.156 68.2006 125.382C67.9961 125.604 67.8938 125.906 67.8938 126.29C67.8938 126.814 68.0877 127.21 68.4755 127.479C68.8675 127.743 69.364 127.875 69.9648 127.875ZM76.9881 129V119.182H78.4966V129H76.9881ZM77.7551 117.545C77.4611 117.545 77.2076 117.445 76.9945 117.245C76.7857 117.045 76.6813 116.804 76.6813 116.523C76.6813 116.241 76.7857 116.001 76.9945 115.8C77.2076 115.6 77.4611 115.5 77.7551 115.5C78.0492 115.5 78.3006 115.6 78.5094 115.8C78.7225 116.001 78.829 116.241 78.829 116.523C78.829 116.804 78.7225 117.045 78.5094 117.245C78.3006 117.445 78.0492 117.545 77.7551 117.545ZM84.967 129.205C84.1488 129.205 83.4265 128.998 82.8001 128.585C82.1737 128.167 81.6836 127.579 81.3299 126.82C80.9762 126.058 80.7994 125.156 80.7994 124.116C80.7994 123.085 80.9762 122.19 81.3299 121.432C81.6836 120.673 82.1758 120.087 82.8065 119.674C83.4371 119.261 84.1658 119.054 84.9925 119.054C85.6317 119.054 86.1367 119.161 86.5075 119.374C86.8825 119.582 87.168 119.821 87.364 120.089C87.5643 120.354 87.7198 120.571 87.8306 120.741H87.9585V115.909H89.467V129H88.0096V127.491H87.8306C87.7198 127.67 87.5621 127.896 87.3576 128.169C87.1531 128.437 86.8612 128.678 86.4819 128.891C86.1026 129.1 85.5977 129.205 84.967 129.205ZM85.1715 127.849C85.7766 127.849 86.288 127.692 86.7056 127.376C87.1232 127.057 87.4407 126.616 87.658 126.053C87.8754 125.487 87.984 124.832 87.984 124.091C87.984 123.358 87.8775 122.717 87.6644 122.167C87.4513 121.613 87.136 121.183 86.7184 120.876C86.3008 120.565 85.7852 120.409 85.1715 120.409C84.5323 120.409 83.9996 120.573 83.5735 120.901C83.1516 121.225 82.8342 121.666 82.6211 122.224C82.4123 122.778 82.3079 123.401 82.3079 124.091C82.3079 124.79 82.4144 125.425 82.6275 125.996C82.8448 126.562 83.1644 127.014 83.5863 127.351C84.0124 127.683 84.5408 127.849 85.1715 127.849ZM96.5558 129.205C95.6097 129.205 94.7937 128.996 94.1076 128.578C93.4258 128.156 92.8995 127.568 92.5288 126.814C92.1623 126.055 91.979 125.173 91.979 124.168C91.979 123.162 92.1623 122.276 92.5288 121.509C92.8995 120.737 93.4151 120.136 94.0756 119.706C94.7404 119.271 95.516 119.054 96.4023 119.054C96.9137 119.054 97.4187 119.139 97.9173 119.31C98.4158 119.48 98.8697 119.757 99.2788 120.141C99.6879 120.52 100.014 121.023 100.257 121.649C100.5 122.276 100.621 123.047 100.621 123.963V124.602H93.0529V123.298H99.087C99.087 122.744 98.9762 122.25 98.7546 121.815C98.5373 121.381 98.2262 121.038 97.8214 120.786C97.4208 120.535 96.9478 120.409 96.4023 120.409C95.8015 120.409 95.2816 120.558 94.8427 120.857C94.408 121.151 94.0735 121.534 93.8391 122.007C93.6048 122.48 93.4876 122.987 93.4876 123.528V124.398C93.4876 125.139 93.6154 125.768 93.8711 126.283C94.131 126.795 94.4911 127.185 94.9513 127.453C95.4116 127.717 95.9464 127.849 96.5558 127.849C96.9521 127.849 97.31 127.794 97.6296 127.683C97.9535 127.568 98.2326 127.398 98.467 127.172C98.7013 126.942 98.8825 126.656 99.0103 126.315L100.468 126.724C100.314 127.219 100.056 127.653 99.6942 128.028C99.332 128.399 98.8846 128.689 98.3519 128.898C97.8192 129.102 97.2205 129.205 96.5558 129.205ZM95.6353 117.852L97.195 114.886H98.9592L96.9648 117.852H95.6353Z" fill="black"/>
</g>
<g clip-path="url(#clip0_735_13)" filter="url(#filter1_d_735_13)">
<path d="M121 84.1622H43V84.327H121V84.1622Z" fill="#3F3D56"/>
<path d="M117.287 82.2899H114.908V84.2151H117.287V82.2899Z" fill="#F9A826"/>
<path d="M54.7629 81.6147L52.9136 82.8257L54.4099 84.3224L56.2592 83.1114L54.7629 81.6147Z" fill="#F9A826"/>
<path d="M82.1018 28.5052H81.8982V55.5358H82.1018V28.5052Z" fill="#3F3D56"/>
<path d="M106.846 31.06H93.4047V31.2248H106.846V31.06Z" fill="#3F3D56"/>
<path d="M70.5953 31.06H57.1541V31.2248H70.5953V31.06Z" fill="#3F3D56"/>
<path d="M57.1958 22.5645L57.1123 22.4141C62.296 20.5269 66.8503 20.5287 70.6486 22.4191L70.5419 22.5595C66.8046 20.6994 62.3143 20.7011 57.1958 22.5645Z" fill="#3F3D56"/>
<path d="M93.0392 22.5645L92.9556 22.4141C98.1394 20.527 102.694 20.5287 106.492 22.4191L106.385 22.5595C102.648 20.6994 98.1578 20.701 93.0392 22.5645Z" fill="#3F3D56"/>
<path d="M63.8747 31.06C65.618 31.06 67.0313 29.9162 67.0313 28.5053C67.0313 27.0943 65.618 25.9505 63.8747 25.9505C62.1313 25.9505 60.718 27.0943 60.718 28.5053C60.718 29.9162 62.1313 31.06 63.8747 31.06Z" fill="#3F3D56"/>
<path d="M100.125 31.06C101.869 31.06 103.282 29.9162 103.282 28.5053C103.282 27.0943 101.869 25.9505 100.125 25.9505C98.3819 25.9505 96.9687 27.0943 96.9687 28.5053C96.9687 29.9162 98.3819 31.06 100.125 31.06Z" fill="#3F3D56"/>
<path d="M49.9243 52.3218C53.1861 52.3218 55.8303 50.1818 55.8303 47.542C55.8303 44.9022 53.1861 42.7622 49.9243 42.7622C46.6625 42.7622 44.0183 44.9022 44.0183 47.542C44.0183 50.1818 46.6625 52.3218 49.9243 52.3218Z" fill="#F9A826"/>
<path d="M114.076 52.3218C117.338 52.3218 119.982 50.1818 119.982 47.542C119.982 44.9022 117.338 42.7622 114.076 42.7622C110.814 42.7622 108.17 44.9022 108.17 47.542C108.17 50.1818 110.814 52.3218 114.076 52.3218Z" fill="#F9A826"/>
<path d="M82.9719 72.0728C82.4914 72.0728 81.9917 72.0589 81.4841 72.0317C80.4381 71.9723 79.3981 71.857 78.3708 71.6865C69.9984 70.3042 63.8652 65.6143 63.8043 65.567L63.9451 65.4479C64.0056 65.4948 70.0983 70.1525 78.4116 71.5251C79.4299 71.6941 80.4609 71.8083 81.4978 71.8672C82.0528 71.8971 82.5984 71.9112 83.1193 71.9075C84.2056 71.9025 85.2899 71.8293 86.3622 71.6885C91.2801 71.0391 95.8861 68.9402 100.052 65.4502L100.199 65.5647C96.0014 69.0809 91.3572 71.1959 86.395 71.8512C85.3123 71.9934 84.2176 72.0673 83.1207 72.0723C83.0714 72.0726 83.0217 72.0728 82.9719 72.0728Z" fill="#3F3D56"/>
<path d="M49.9243 52.4042C48.5548 52.4042 47.2161 52.0756 46.0774 51.4598C44.9387 50.844 44.0512 49.9688 43.5271 48.9448C43.003 47.9209 42.8659 46.7941 43.1331 45.707C43.4002 44.62 44.0597 43.6215 45.0281 42.8378C45.9965 42.054 47.2302 41.5203 48.5734 41.3041C49.9166 41.0879 51.3088 41.1988 52.5741 41.623C53.8393 42.0471 54.9208 42.7654 55.6816 43.687C56.4425 44.6085 56.8486 45.692 56.8486 46.8003C56.8465 48.286 56.1163 49.7104 54.8182 50.761C53.5201 51.8116 51.7601 52.4025 49.9243 52.4042ZM49.9243 41.3612C48.5951 41.3612 47.2957 41.6802 46.1905 42.2779C45.0853 42.8755 44.2239 43.725 43.7152 44.7189C43.2066 45.7127 43.0735 46.8063 43.3328 47.8614C43.5921 48.9165 44.2322 49.8857 45.1721 50.6463C46.112 51.407 47.3095 51.925 48.6132 52.1349C49.9168 52.3448 51.2681 52.237 52.4962 51.8254C53.7242 51.4137 54.7738 50.7166 55.5123 49.8221C56.2508 48.9277 56.6449 47.8761 56.6449 46.8003C56.6429 45.3583 55.9342 43.9758 54.6743 42.9561C53.4143 41.9364 51.7061 41.3629 49.9243 41.3612Z" fill="#3F3D56"/>
<path d="M114.076 52.4042C112.706 52.4042 111.367 52.0756 110.229 51.4598C109.09 50.844 108.203 49.9688 107.679 48.9448C107.154 47.9209 107.017 46.7941 107.284 45.707C107.552 44.62 108.211 43.6215 109.18 42.8378C110.148 42.054 111.382 41.5203 112.725 41.3041C114.068 41.0879 115.46 41.1988 116.726 41.623C117.991 42.0471 119.072 42.7654 119.833 43.687C120.594 44.6085 121 45.692 121 46.8003C120.998 48.286 120.268 49.7104 118.97 50.761C117.672 51.8116 115.912 52.4025 114.076 52.4042ZM114.076 41.3612C112.747 41.3612 111.447 41.6802 110.342 42.2779C109.237 42.8755 108.375 43.725 107.867 44.7189C107.358 45.7127 107.225 46.8063 107.484 47.8614C107.744 48.9165 108.384 49.8857 109.324 50.6463C110.263 51.407 111.461 51.925 112.765 52.1349C114.068 52.3448 115.42 52.237 116.648 51.8254C117.876 51.4137 118.925 50.7166 119.664 49.8221C120.402 48.9277 120.796 47.8761 120.796 46.8003C120.794 45.3583 120.086 43.9758 118.826 42.9561C117.566 41.9364 115.858 41.3629 114.076 41.3612Z" fill="#3F3D56"/>
<path d="M78.7415 56.6072C79.2477 56.6072 79.658 56.2751 79.658 55.8655C79.658 55.4558 79.2477 55.1238 78.7415 55.1238C78.2354 55.1238 77.8251 55.4558 77.8251 55.8655C77.8251 56.2751 78.2354 56.6072 78.7415 56.6072Z" fill="#3F3D56"/>
<path d="M85.2585 56.6072C85.7646 56.6072 86.1749 56.2751 86.1749 55.8655C86.1749 55.4558 85.7646 55.1238 85.2585 55.1238C84.7523 55.1238 84.342 55.4558 84.342 55.8655C84.342 56.2751 84.7523 56.6072 85.2585 56.6072Z" fill="#3F3D56"/>
<path d="M82 77.869C83.406 77.869 84.5457 77.5369 84.5457 77.1273C84.5457 76.7177 83.406 76.3856 82 76.3856C80.5941 76.3856 79.4543 76.7177 79.4543 77.1273C79.4543 77.5369 80.5941 77.869 82 77.869Z" fill="#F2F2F2"/>
<path d="M103.327 69.2427C102.284 67.816 100.22 67.7496 100.22 67.7496C100.22 67.7496 98.2084 67.5414 96.9182 69.7142C95.7157 71.7394 94.056 73.6947 96.651 74.1688L97.1198 72.9881L97.4101 74.2567C97.7795 74.2782 98.1502 74.2834 98.5204 74.2721C101.299 74.1995 103.946 74.2933 103.861 73.4862C103.748 72.4133 104.331 70.6154 103.327 69.2427Z" fill="#2F2E41"/>
<path d="M96.5029 81.7363C96.4722 81.8932 96.4278 82.0481 96.3698 82.1999C96.3045 82.3485 96.2037 82.4859 96.144 82.636C95.9538 83.1144 96.2175 83.6479 96.6388 84.0172C97.0041 84.3362 97.4757 84.5628 97.9966 84.6697C98.3801 84.7361 98.7713 84.7694 99.1635 84.7689C100.248 84.7987 101.36 84.8253 102.388 84.5433C102.713 84.4519 103.026 84.3366 103.325 84.1988C103.419 84.1625 103.502 84.1096 103.568 84.0439C103.637 83.9478 103.667 83.8368 103.656 83.7261C103.653 83.3541 103.56 82.9839 103.582 82.6122C103.595 82.4063 103.642 82.2007 103.619 81.9954C103.586 81.7623 103.466 81.5431 103.273 81.3676C103.081 81.1922 102.826 81.0691 102.544 81.0153C102.249 80.9784 101.949 80.9784 101.654 81.0153C100.883 81.0752 100.109 81.1032 99.3355 81.0992C98.5448 81.0951 97.7589 80.9974 96.9721 80.9872C96.7394 80.9842 96.7441 81.0423 96.67 81.2245C96.6018 81.3923 96.546 81.5632 96.5029 81.7363Z" fill="#2F2E41"/>
<path d="M98.747 72.5487C98.7235 72.712 98.6556 72.8692 98.5483 73.0089C98.4108 73.1612 98.1865 73.2482 98.0385 73.3939C97.8157 73.6132 97.8029 73.9219 97.802 74.2058C97.8012 74.4673 97.8077 74.7463 97.9879 74.9634C98.1162 75.0983 98.2754 75.2118 98.4568 75.2979C99.1327 75.6666 99.863 76.0418 100.678 76.0539C101.015 76.059 101.377 75.9884 101.6 75.7826C101.696 75.6859 101.771 75.577 101.823 75.4603C102.031 75.0447 102.157 74.6051 102.197 74.1576C102.227 73.9473 102.203 73.7342 102.126 73.5319C102.027 73.3085 101.827 73.1247 101.694 72.9129C101.538 72.6611 101.481 72.3765 101.531 72.0975C101.537 72.0779 101.535 72.057 101.525 72.0385C101.514 72.0285 101.5 72.0208 101.485 72.0158C101.47 72.0108 101.453 72.0087 101.437 72.0097L99.8214 71.9156C99.6709 71.9095 99.5211 71.8956 99.3728 71.874C99.2857 71.8597 99.0556 71.7596 98.9726 71.7862C98.8188 71.8355 98.7785 72.4151 98.747 72.5487Z" fill="#FFB8B8"/>
<path opacity="0.1" d="M98.747 72.5487C98.7235 72.712 98.6556 72.8692 98.5483 73.0089C98.4108 73.1612 98.1865 73.2482 98.0385 73.3939C97.8157 73.6132 97.8029 73.9219 97.802 74.2058C97.8012 74.4673 97.8077 74.7463 97.9879 74.9634C98.1162 75.0983 98.2754 75.2118 98.4568 75.2979C99.1327 75.6666 99.863 76.0418 100.678 76.0539C101.015 76.059 101.377 75.9884 101.6 75.7826C101.696 75.6859 101.771 75.577 101.823 75.4603C102.031 75.0447 102.157 74.6051 102.197 74.1576C102.227 73.9473 102.203 73.7342 102.126 73.5319C102.027 73.3085 101.827 73.1247 101.694 72.9129C101.538 72.6611 101.481 72.3765 101.531 72.0975C101.537 72.0779 101.535 72.057 101.525 72.0385C101.514 72.0285 101.5 72.0208 101.485 72.0158C101.47 72.0108 101.453 72.0087 101.437 72.0097L99.8214 71.9156C99.6709 71.9095 99.5211 71.8956 99.3728 71.874C99.2857 71.8597 99.0556 71.7596 98.9726 71.7862C98.8188 71.8355 98.7785 72.4151 98.747 72.5487Z" fill="black"/>
<path d="M100.292 72.724C101.601 72.724 102.663 71.8651 102.663 70.8055C102.663 69.746 101.601 68.8871 100.292 68.8871C98.983 68.8871 97.9217 69.746 97.9217 70.8055C97.9217 71.8651 98.983 72.724 100.292 72.724Z" fill="#FFB8B8"/>
<path d="M99.0795 75.1025C99.1966 75.2122 99.3377 75.3035 99.4958 75.3717C99.6607 75.4268 99.8377 75.4541 100.016 75.4519C100.443 75.4616 100.907 75.3982 101.204 75.1496C101.587 74.8291 101.574 74.3122 101.875 73.9383C101.899 73.9044 101.932 73.8752 101.971 73.8527C102.022 73.8305 102.079 73.8199 102.136 73.822C102.515 73.8192 102.846 74.0183 103.144 74.208C103.284 74.2862 103.405 74.3855 103.499 74.5005C103.558 74.5936 103.598 74.6937 103.618 74.797C103.75 75.3845 103.831 75.9785 103.862 76.575C103.888 76.9039 103.914 77.2332 103.913 77.5628C103.906 78.6488 103.594 79.7166 103.284 80.7732C103.244 80.9094 103.189 81.0616 103.036 81.1268C102.968 81.1516 102.895 81.166 102.82 81.1695C101.934 81.266 101.042 81.3262 100.147 81.3496C99.7984 81.3539 99.4496 81.3471 99.1009 81.3291C99.0408 81.3284 98.9813 81.32 98.9246 81.3042C98.8475 81.2743 98.7813 81.2288 98.7323 81.1721C98.2486 80.6787 98.22 79.9966 98.2231 79.3668C98.2307 77.8269 98.2987 76.2883 98.4271 74.7509C98.4377 74.624 98.44 74.4699 98.327 74.37C98.547 74.6339 98.7991 74.8793 99.0795 75.1025Z" fill="#D0CDE1"/>
<path d="M98.5773 72.8873C98.4973 73.0046 97.907 73.2958 97.7931 73.3931C97.1564 73.9362 95.9943 73.9158 95.412 74.4976C95.219 74.7109 95.0861 74.9558 95.0224 75.2151C94.9117 75.5767 94.8526 75.9711 95.0381 76.312C95.2165 76.6401 95.5922 76.8669 95.8473 77.16C96.1274 77.4818 96.2533 77.8725 96.374 78.2538C96.4631 78.5353 96.5529 78.8238 96.5182 79.113C96.4788 79.4419 96.2821 79.7431 96.166 80.0598C96.0499 80.3766 96.0299 80.7539 96.2983 81.0029C96.4955 81.1858 96.8049 81.2583 97.1006 81.2991C97.4793 81.3451 97.8612 81.372 98.244 81.3796C98.5821 81.3917 98.9546 81.3941 99.2145 81.2187C99.3117 81.1443 99.3891 81.0546 99.4417 80.955C99.4942 80.8555 99.521 80.7482 99.5202 80.6399C99.517 80.4238 99.4906 80.2083 99.4414 79.9959C99.4054 79.7738 99.3916 79.5498 99.38 79.326C99.328 78.322 99.3209 77.3172 99.3587 76.3119C99.3777 76.1029 99.3651 75.8929 99.321 75.6864C99.2485 75.4175 99.0689 75.1771 98.919 74.93C98.6195 74.4646 98.4839 73.9415 98.5269 73.4179C98.5723 72.8799 98.8622 72.4699 98.5773 72.8873Z" fill="#F9A826"/>
<path d="M101.906 72.9281C102.028 73.0296 102.442 73.063 102.598 73.1283C102.743 73.1829 102.896 73.2255 103.052 73.2557C103.618 73.3878 104.156 73.5877 104.649 73.8488C104.751 73.8973 104.842 73.9606 104.916 74.0355C104.994 74.1383 105.044 74.2534 105.064 74.3731C105.155 74.6752 105.2 74.9851 105.199 75.2961C105.181 75.6255 105.058 75.9446 104.936 76.2593L104.482 77.4352C104.143 78.313 103.801 79.1994 103.706 80.1159C103.653 80.6238 103.677 81.135 103.776 81.6383C103.785 81.6628 103.788 81.6886 103.784 81.7141C103.78 81.7395 103.769 81.764 103.753 81.7858C103.723 81.8098 103.684 81.8244 103.642 81.8273C103.422 81.855 103.21 81.7645 103.011 81.6844C102.404 81.4397 101.755 81.2681 101.087 81.1748C101.348 80.8692 101.55 80.5329 101.685 80.1776C101.761 79.952 101.821 79.723 101.865 79.4918L102.077 78.5022C102.163 78.1404 102.223 77.7751 102.258 77.4078C102.274 77.2699 102.264 77.1309 102.228 76.9955C102.18 76.8666 102.115 76.7421 102.035 76.6237C101.687 76.0372 101.523 75.3678 101.661 74.7264C101.721 74.4458 101.837 74.1647 101.789 73.8826C101.742 73.6114 101.79 73.4006 101.704 73.1322C101.351 72.0301 101.677 72.7373 101.906 72.9281Z" fill="#F9A826"/>
<path d="M95.406 75.425C95.2471 75.6918 94.9816 75.919 94.8912 76.206C94.856 76.3401 94.8409 76.4772 94.8463 76.6142C94.8306 76.8207 94.8559 77.0279 94.9211 77.228C94.9716 77.3545 95.0536 77.4712 95.1128 77.5953C95.1952 77.7686 95.2319 77.954 95.2205 78.1395C95.2046 78.3964 95.0967 78.6459 95.0883 78.9031C95.075 79.3076 95.3062 79.6878 95.5318 80.0489C95.5885 79.9351 95.6753 79.8328 95.7861 79.749C95.8969 79.6652 96.0289 79.602 96.173 79.5638C96.3171 79.5256 96.4698 79.5134 96.6203 79.5279C96.7709 79.5425 96.9157 79.5835 97.0446 79.6481C97.0963 79.5967 97.1208 79.531 97.1128 79.4651C97.1295 78.9958 97.1456 78.5265 97.1611 78.0572C97.1855 77.3314 97.2087 76.596 97.0024 75.8894C96.9249 75.5661 96.7521 75.2627 96.4987 75.0051C96.3588 74.8748 95.8839 74.5316 95.6542 74.6776C95.5509 74.7432 95.5751 74.9219 95.5587 75.0124C95.534 75.1554 95.4825 75.2945 95.406 75.425Z" fill="#F9A826"/>
<path d="M105.245 74.6562C105.309 74.8486 105.337 75.0477 105.326 75.2467C105.329 75.6524 105.323 76.058 105.306 76.4635C105.309 76.6715 105.276 76.8788 105.209 77.0796C105.158 77.2102 105.078 77.3326 105.025 77.4627C104.867 77.8526 104.953 78.2756 104.967 78.686C104.977 78.8188 104.963 78.9521 104.925 79.0817C104.842 79.3361 104.616 79.5417 104.459 79.7722C104.31 79.9912 104.22 80.2366 104.042 80.4409C103.863 80.6451 103.555 80.807 103.256 80.7443C103.029 80.6968 102.868 80.5344 102.757 80.3678C102.514 80.0013 102.43 79.5792 102.521 79.1698C102.632 78.6717 102.994 78.2298 103.124 77.7346C103.303 77.0546 103.031 76.353 103.039 75.6578C103.036 75.5488 103.054 75.44 103.094 75.3358C103.178 75.1816 103.297 75.0415 103.444 74.9228C103.614 74.7637 103.772 74.5964 103.916 74.4218C104.013 74.3046 104.145 74.003 104.318 73.9779C104.702 73.9219 105.15 74.4158 105.245 74.6562Z" fill="#F9A826"/>
<path d="M93.4107 81.4339C93.1981 81.3906 92.979 81.3718 92.7599 81.3779C92.5296 81.3882 92.3047 81.438 92.1002 81.5241C91.8956 81.6102 91.716 81.7306 91.5733 81.8772C91.4307 82.0238 91.3282 82.1933 91.2727 82.3744C91.2173 82.5555 91.2101 82.7442 91.2517 82.9277C91.3048 83.1265 91.3916 83.3185 91.5096 83.4981C91.6822 83.7816 91.8892 84.0644 92.2088 84.2461C92.4013 84.346 92.6086 84.4258 92.8258 84.4838L94.5088 84.9969C94.7564 85.0724 95.004 85.1479 95.2541 85.2179C96.5102 85.5693 97.8199 85.78 99.1466 85.8441C99.5503 85.8748 99.9573 85.8581 100.355 85.7946C100.451 85.7844 100.539 85.7459 100.603 85.6864C100.635 85.6411 100.654 85.5906 100.658 85.5385L100.762 84.9518C100.785 84.8701 100.782 84.7849 100.753 84.7044C100.692 84.6099 100.593 84.5347 100.473 84.4911C99.3665 83.9768 98.0746 83.693 97.1433 82.9872C96.9241 82.821 96.7406 82.5576 96.4742 82.4447C96.1722 82.3167 95.8164 82.2436 95.5042 82.1257C94.8216 81.8678 94.1505 81.5715 93.4107 81.4339Z" fill="#2F2E41"/>
<path opacity="0.1" d="M95.0909 82.2249C95.6858 82.3758 98.1973 83.4209 98.6277 83.7858C98.57 83.8026 96.6123 82.9147 96.5535 82.9004C96.015 82.7807 95.4877 82.6303 94.9755 82.4504C94.8735 82.4122 94.3127 82.2327 94.3381 82.1285C94.3668 82.011 94.9853 82.1981 95.0909 82.2249Z" fill="black"/>
<path d="M102.512 86.1484C102.546 86.1504 102.579 86.1425 102.606 86.126C102.618 86.1137 102.627 86.0995 102.632 86.0845C102.637 86.0694 102.638 86.0537 102.636 86.0382L102.633 85.2388C102.342 85.1413 102.034 85.0812 101.72 85.0604L100.265 84.903C100.298 84.9067 100.037 85.4102 100.077 85.4775C100.148 85.5959 100.687 85.701 100.839 85.7569C101.367 85.9514 101.917 86.1652 102.512 86.1484Z" fill="#FFB8B8"/>
<path d="M97.9471 85.236C97.6724 85.2715 97.3658 85.3028 97.1879 85.4758C96.9623 85.6953 97.0583 86.0225 97.1659 86.2944C97.1725 86.3295 97.1877 86.3632 97.2106 86.3934C97.2335 86.4237 97.2637 86.4499 97.2994 86.4705C97.3351 86.4912 97.3755 86.5058 97.4183 86.5136C97.4611 86.5214 97.5053 86.5222 97.5485 86.5158C97.799 86.5287 98.0657 86.5387 98.2846 86.4393C98.3837 86.3863 98.4792 86.3288 98.5705 86.2673C98.7319 86.1804 98.9094 86.1147 99.0962 86.0728C99.4397 85.9853 99.7933 85.9264 100.151 85.8968C100.293 85.8916 100.432 85.8716 100.567 85.8375C100.635 85.8199 100.696 85.79 100.747 85.7501C100.798 85.7102 100.836 85.6614 100.86 85.6074C100.911 85.4622 100.806 85.314 100.706 85.1866C100.591 85.0198 100.441 84.8701 100.264 84.744C99.9927 84.5736 99.8586 84.7044 99.5855 84.8135C99.0686 85.0199 98.5163 85.1624 97.9471 85.236Z" fill="#FFB8B8"/>
<path d="M97.2292 85.4363L95.4849 85.0191C95.2756 84.9601 95.057 84.9258 94.8357 84.9172C94.7249 84.9136 94.6144 84.9291 94.5116 84.9627C94.4088 84.9964 94.3161 85.0474 94.2396 85.1124C94.1043 85.2408 94.0656 85.4164 94.0319 85.583L93.9597 85.9393C93.9116 86.119 93.898 86.3035 93.9194 86.4865C93.931 86.578 93.9682 86.6662 94.0283 86.7443C94.0883 86.8224 94.1696 86.8884 94.2659 86.9373C94.5073 87.0439 94.8031 86.9918 95.0725 86.9472C95.6167 86.8572 96.1702 86.8092 96.7256 86.8038C96.9344 86.8018 97.1534 86.8039 97.3379 86.7247C97.4449 86.6734 97.5349 86.6016 97.5999 86.5157C97.6649 86.4297 97.703 86.3323 97.7109 86.2317C97.7452 85.9273 97.6199 85.5298 97.2292 85.4363Z" fill="#2F2E41"/>
<path d="M103.198 85.0727C103.424 85.0406 103.624 84.9366 103.84 84.8752C104.145 84.7888 104.476 84.7888 104.799 84.7898C104.918 84.781 105.037 84.8003 105.143 84.8455C105.285 84.9222 105.321 85.0756 105.346 85.2126L105.492 86.0392C105.531 86.1934 105.535 86.3521 105.504 86.5074C105.487 86.585 105.444 86.6575 105.381 86.7174C105.318 86.7772 105.236 86.8223 105.144 86.8478C104.916 86.8958 104.692 86.7779 104.477 86.7004C103.939 86.5068 103.313 86.5563 102.752 86.4116C102.698 86.4029 102.647 86.385 102.603 86.3593C102.558 86.3335 102.521 86.3004 102.493 86.2621C102.474 86.2162 102.467 86.1675 102.473 86.1193C102.483 85.8536 102.414 85.4908 102.512 85.2369C102.601 85.0086 102.945 85.0727 103.198 85.0727Z" fill="#2F2E41"/>
<path d="M106.889 81.1012C107.238 81.0305 107.599 81.0105 107.956 81.0422C108.242 81.0676 108.536 81.1319 108.744 81.2917C108.997 81.4862 109.079 81.787 109.086 82.0696C109.097 82.6326 108.866 83.1812 108.433 83.6218C108.327 83.7333 108.201 83.8313 108.06 83.9126C107.907 83.9899 107.744 84.0534 107.574 84.1019L103.805 85.305C102.814 85.6216 101.819 85.939 100.784 86.1477C100.756 86.1587 100.725 86.1651 100.694 86.1663C100.663 86.1676 100.631 86.1638 100.602 86.1552C100.572 86.1465 100.545 86.1332 100.522 86.1159C100.499 86.0987 100.481 86.0778 100.468 86.0547C100.137 85.673 99.8604 85.2628 99.6416 84.8318C99.6312 84.8215 99.6241 84.8094 99.6207 84.7965C99.6174 84.7835 99.6179 84.7701 99.6223 84.7573C99.6268 84.7446 99.6349 84.7329 99.6461 84.7232C99.6573 84.7136 99.6712 84.7062 99.6866 84.7018L102.352 83.4622C102.548 83.3797 102.73 83.2781 102.895 83.1597C103.01 83.0693 103.105 82.963 103.174 82.8458C103.229 82.7524 103.234 82.5319 103.305 82.4629C103.374 82.3953 103.61 82.3899 103.719 82.3633C103.873 82.3252 104.024 82.279 104.171 82.2252C104.767 82.0093 105.298 81.6956 105.87 81.4428C106.19 81.2944 106.533 81.1797 106.889 81.1012Z" fill="#2F2E41"/>
<path opacity="0.1" d="M105.378 82.027C104.92 82.3054 104.327 82.5613 103.873 82.847C103.718 82.9445 101.136 84.1196 101.099 84.2756C101.523 84.3334 104.22 82.806 104.606 82.6536C104.986 82.4904 105.343 82.2958 105.673 82.073C105.76 82.0186 106.126 81.8552 105.878 81.7944C105.738 81.7602 105.481 81.9713 105.378 82.027Z" fill="black"/>
<path d="M102.866 69.1051L100.827 68.2407L98.0106 68.5943L97.428 70.6769L98.8782 70.6317L99.2834 69.8666V70.6191L99.9526 70.5982L100.341 69.3802L100.584 70.6769L102.963 70.6375L102.866 69.1051Z" fill="#2F2E41"/>
<path d="M102.41 73.3771H98.0225V77.663H102.41V73.3771Z" fill="#3F3D56"/>
<path d="M95.9395 80.8315C96.0317 80.9584 96.1628 81.0639 96.3201 81.1379C96.4233 81.176 96.5359 81.1946 96.6493 81.1921C96.7627 81.1897 96.8739 81.1663 96.9744 81.1237C97.1751 81.0366 97.3395 80.9033 97.4466 80.7406C97.6682 80.4239 97.7141 80.0449 97.6864 79.6816C97.6588 79.3183 97.5629 78.9606 97.5205 78.5983C97.4897 78.3349 97.4872 78.0699 97.4847 77.8053C97.477 77.7497 97.4915 77.6935 97.5259 77.645C97.5851 77.5973 97.6618 77.5663 97.7445 77.5566C98.1917 77.4491 98.4886 77.1098 98.7014 76.7738C98.8436 76.5494 98.9671 76.3041 98.9397 76.0529C98.9123 75.8018 98.6893 75.5487 98.3793 75.5231C98.1238 75.502 97.8879 75.6333 97.7035 75.7781C97.2386 76.1456 96.9397 76.6289 96.8551 77.1504C96.8146 77.4058 96.8262 77.6681 96.7404 77.9161C96.5571 78.4454 95.9837 78.77 95.698 79.2463C95.3832 79.7712 95.5569 80.3671 95.9395 80.8315Z" fill="#FFB8B8"/>
<path d="M104.377 78.8091C104.312 78.9319 104.217 79.0428 104.098 79.1354C103.979 79.228 103.838 79.3003 103.684 79.3482C103.492 79.4105 103.281 79.4209 103.081 79.378C102.982 79.3558 102.891 79.3154 102.814 79.26C102.738 79.2046 102.678 79.1356 102.64 79.0585C102.609 78.9808 102.592 78.8999 102.59 78.8184C102.561 78.4614 102.572 78.0936 102.733 77.7602C102.794 77.6316 102.878 77.5096 102.927 77.3774C102.974 77.2247 102.999 77.0678 103 76.9103L103.052 75.9363C103.061 75.8656 103.055 75.7942 103.034 75.7251C102.982 75.5841 102.819 75.4926 102.67 75.4085C102.309 75.2055 101.953 74.9687 101.778 74.6425C101.718 74.5443 101.696 74.4336 101.716 74.3252C101.766 74.1318 102.007 74.0066 102.245 73.9644C102.401 73.9368 102.562 73.935 102.719 73.9592C102.876 73.9834 103.025 74.033 103.158 74.1051C103.29 74.1772 103.403 74.2702 103.49 74.3786C103.577 74.487 103.636 74.6085 103.663 74.7359C103.687 74.8458 103.687 74.9581 103.7 75.0691C103.73 75.3045 103.822 75.5315 103.88 75.7635C104.022 76.3349 103.948 76.9256 104.089 77.497C104.207 77.9747 104.651 78.2864 104.377 78.8091Z" fill="#FFB8B8"/>
<path d="M100.329 75.4791C100.723 75.4791 101.042 75.2208 101.042 74.9023C101.042 74.5837 100.723 74.3254 100.329 74.3254C99.9353 74.3254 99.6162 74.5837 99.6162 74.9023C99.6162 75.2208 99.9353 75.4791 100.329 75.4791Z" fill="#F9A826"/>
<path d="M64.5875 30.2359C65.0374 30.2359 65.4021 29.9407 65.4021 29.5766C65.4021 29.2125 65.0374 28.9173 64.5875 28.9173C64.1376 28.9173 63.7729 29.2125 63.7729 29.5766C63.7729 29.9407 64.1376 30.2359 64.5875 30.2359Z" fill="#F2F2F2"/>
<path d="M101.144 30.2359C101.594 30.2359 101.958 29.9407 101.958 29.5766C101.958 29.2125 101.594 28.9173 101.144 28.9173C100.694 28.9173 100.329 29.2125 100.329 29.5766C100.329 29.9407 100.694 30.2359 101.144 30.2359Z" fill="#F2F2F2"/>
</g>
<defs>
<filter id="filter0_d_735_13" x="0" y="0" width="165" height="162" filterUnits="userSpaceOnUse" color-interpolation-filters="sRGB">
<feFlood flood-opacity="0" result="BackgroundImageFix"/>
<feColorMatrix in="SourceAlpha" type="matrix" values="0 0 0 0 0 0 0 0 0 0 0 0 0 0 0 0 0 0 127 0" result="hardAlpha"/>
<feOffset dy="4"/>
<feGaussianBlur stdDeviation="2"/>
<feComposite in2="hardAlpha" operator="out"/>
<feColorMatrix type="matrix" values="0 0 0 0 0 0 0 0 0 0 0 0 0 0 0 0 0 0 0.25 0"/>
<feBlend mode="normal" in2="BackgroundImageFix" result="effect1_dropShadow_735_13"/>
<feBlend mode="normal" in="SourceGraphic" in2="effect1_dropShadow_735_13" result="shape"/>
</filter>
<filter id="filter1_d_735_13" x="39" y="21" width="86" height="74" filterUnits="userSpaceOnUse" color-interpolation-filters="sRGB">
<feFlood flood-opacity="0" result="BackgroundImageFix"/>
<feColorMatrix in="SourceAlpha" type="matrix" values="0 0 0 0 0 0 0 0 0 0 0 0 0 0 0 0 0 0 127 0" result="hardAlpha"/>
<feOffset dy="4"/>
<feGaussianBlur stdDeviation="2"/>
<feComposite in2="hardAlpha" operator="out"/>
<feColorMatrix type="matrix" values="0 0 0 0 0 0 0 0 0 0 0 0 0 0 0 0 0 0 0.25 0"/>
<feBlend mode="normal" in2="BackgroundImageFix" result="effect1_dropShadow_735_13"/>
<feBlend mode="normal" in="SourceGraphic" in2="effect1_dropShadow_735_13" result="shape"/>
</filter>
<clipPath id="clip0_735_13">
<rect width="78" height="66" fill="white" transform="translate(43 21)"/>
</clipPath>
</defs>
</svg>
