<svg width="165" height="162" viewBox="0 0 165 162" fill="none" xmlns="http://www.w3.org/2000/svg">
<g filter="url(#filter0_d_735_14)">
<path d="M159 77C159 118.385 124.786 152 82.5 152C40.2137 152 6 118.385 6 77C6 35.6148 40.2137 2 82.5 2C124.786 2 159 35.6148 159 77Z" fill="white" stroke="#F9A826" stroke-width="4"/>
<g clip-path="url(#clip0_735_14)">
<path d="M106.728 81.7771C106.176 81.7766 105.632 81.6391 105.148 81.3773L60.2052 57.2044C59.4377 56.7904 58.8684 56.094 58.6224 55.2678C58.3763 54.4416 58.4735 53.5531 58.8927 52.7973L77.8589 18.6907C78.0669 18.3165 78.3479 17.9864 78.6857 17.719C79.0235 17.4517 79.4115 17.2524 79.8276 17.1325C80.2437 17.0126 80.6798 16.9745 81.1109 17.0204C81.542 17.0663 81.9596 17.1952 82.34 17.3998L127.283 41.5727C128.051 41.9867 128.62 42.6831 128.866 43.5094C129.112 44.3356 129.015 45.224 128.596 45.9798L109.629 80.0864C109.422 80.4613 109.142 80.792 108.804 81.0595C108.466 81.3269 108.077 81.5258 107.661 81.6446C107.358 81.7322 107.044 81.7768 106.728 81.7771ZM105.42 80.889C106.056 81.2313 106.805 81.311 107.502 81.1104C108.198 80.9098 108.785 80.4454 109.133 79.8193L128.099 45.7127C128.446 45.0865 128.527 44.3503 128.323 43.6658C128.119 42.9812 127.647 42.4041 127.011 42.0611L82.0685 17.8882C81.4319 17.5458 80.683 17.4661 79.9867 17.6667C79.2904 17.8673 78.7036 18.3317 78.3555 18.9578L59.3893 53.0644C59.042 53.6906 58.9614 54.4268 59.1653 55.1114C59.3692 55.796 59.8409 56.373 60.4768 56.716L105.42 80.889Z" fill="#F2F2F2"/>
<path d="M107.655 69.8485C107.138 69.8482 106.629 69.72 106.175 69.4759L69.8401 49.9328C69.4866 49.743 69.1746 49.4866 68.9219 49.1782C68.6693 48.8697 68.481 48.5153 68.3678 48.1352C68.2546 47.7551 68.2187 47.3568 68.2622 46.963C68.3057 46.5693 68.4277 46.1878 68.6213 45.8405L79.9485 25.4709C80.1417 25.1235 80.4025 24.8169 80.7162 24.5686C81.0298 24.3203 81.3902 24.1353 81.7766 24.0239C82.163 23.9126 82.5679 23.8773 82.9682 23.9199C83.3685 23.9625 83.7563 24.0822 84.1096 24.2723L120.445 43.8154C120.798 44.0053 121.11 44.2619 121.362 44.5704C121.615 44.8788 121.803 45.2332 121.916 45.6132C122.029 45.9932 122.065 46.3914 122.022 46.7851C121.978 47.1788 121.857 47.5602 121.663 47.9076L121.622 47.8854L121.663 47.9076L110.336 68.2772C110.074 68.7521 109.687 69.1488 109.215 69.4254C108.743 69.7019 108.204 69.8481 107.655 69.8485Z" fill="#F2F2F2"/>
<path d="M106.527 81.7681H55.3018C54.4889 81.7672 53.7096 81.4492 53.1349 80.8839C52.5601 80.3186 52.2368 79.5522 52.2358 78.7528V39.8788C52.2368 39.0794 52.5601 38.3129 53.1349 37.7477C53.7096 37.1824 54.4889 36.8644 55.3018 36.8635H106.527C107.34 36.8644 108.119 37.1824 108.694 37.7477C109.269 38.3129 109.592 39.0794 109.593 39.8788V78.7528C109.592 79.5522 109.269 80.3186 108.694 80.8839C108.119 81.4492 107.34 81.7672 106.527 81.7681Z" fill="white"/>
<path d="M106.527 82H55.3018C54.4264 81.999 53.5872 81.6566 52.9682 81.0478C52.3492 80.4391 52.001 79.6137 52 78.7528V39.8788C52.001 39.0179 52.3492 38.1925 52.9682 37.5837C53.5872 36.975 54.4264 36.6325 55.3018 36.6316H106.527C107.402 36.6325 108.241 36.975 108.86 37.5837C109.479 38.1925 109.828 39.0179 109.829 39.8788V78.7528C109.828 79.6137 109.479 80.4391 108.86 81.0478C108.241 81.6566 107.402 81.999 106.527 82ZM55.3018 37.1882C54.5765 37.189 53.8811 37.4728 53.3682 37.9772C52.8553 38.4816 52.5668 39.1655 52.566 39.8788V78.7528C52.5668 79.4661 52.8553 80.15 53.3682 80.6544C53.8811 81.1588 54.5765 81.4425 55.3018 81.4433H106.527C107.252 81.4425 107.948 81.1588 108.46 80.6544C108.973 80.15 109.262 79.4661 109.263 78.7528V39.8788C109.262 39.1655 108.973 38.4816 108.46 37.9772C107.948 37.4728 107.252 37.189 106.527 37.1882H55.3018Z" fill="#E6E6E6"/>
<path d="M88.886 49.6472C88.2909 49.6467 87.7039 49.7821 87.171 50.0427C86.6381 50.3033 86.174 50.6819 85.8152 51.1489C85.4301 50.9859 85.0099 50.9195 84.5922 50.9557C84.1746 50.9918 83.7726 51.1295 83.4224 51.3561C83.0722 51.5828 82.7847 51.8915 82.5857 52.2545C82.3867 52.6174 82.2825 53.0233 82.2824 53.4356H92.7381C92.7381 52.9381 92.6385 52.4455 92.4449 51.9858C92.2513 51.5262 91.9676 51.1086 91.6099 50.7568C91.2522 50.405 90.8275 50.1259 90.3602 49.9355C89.8928 49.7451 89.3919 49.6472 88.886 49.6472Z" fill="#E6E6E6"/>
<path d="M65.9804 64.4761C69.4065 64.4761 72.1838 61.7447 72.1838 58.3753C72.1838 55.0059 69.4065 52.2745 65.9804 52.2745C62.5544 52.2745 59.7771 55.0059 59.7771 58.3753C59.7771 61.7447 62.5544 64.4761 65.9804 64.4761Z" fill="#F9A826"/>
<path d="M102.316 70.9483C102.088 71.001 101.855 71.0275 101.621 71.0271H60.2074C59.6973 71.028 59.1954 70.9013 58.7489 70.6588L58.8593 70.503L63.4799 63.9593L70.3269 54.2649L70.4269 54.123L71.5042 52.5977C71.5766 52.4951 71.6732 52.4112 71.7857 52.3533C71.8983 52.2954 72.0234 52.2651 72.1504 52.2651C72.2774 52.2651 72.4026 52.2954 72.5151 52.3533C72.6276 52.4112 72.7242 52.4951 72.7966 52.5977L76.3758 57.6643V57.6652L78.4814 60.6471L83.5077 67.7632L91.131 57.0613C91.2036 56.9592 91.3002 56.8759 91.4125 56.8183C91.5248 56.7608 91.6496 56.7307 91.7763 56.7307C91.9029 56.7307 92.0277 56.7608 92.1401 56.8183C92.2524 56.8759 92.3489 56.9592 92.4216 57.0613L97.312 63.9259L97.5931 64.3202L102.316 70.9483Z" fill="#3F3D56"/>
<path d="M80.6529 55.9729C79.9187 55.9724 79.1944 56.1394 78.537 56.4609C77.8796 56.7824 77.307 57.2496 76.8643 57.8257C76.3892 57.6246 75.8707 57.5427 75.3554 57.5873C74.8401 57.6319 74.3442 57.8017 73.9121 58.0814C73.48 58.3611 73.1253 58.7419 72.8798 59.1897C72.6343 59.6375 72.5057 60.1383 72.5056 60.647H85.4055C85.4055 60.0332 85.2826 59.4254 85.0438 58.8583C84.8049 58.2912 84.4549 57.776 84.0135 57.3419C83.5722 56.9079 83.0483 56.5636 82.4717 56.3287C81.8951 56.0938 81.2771 55.9729 80.6529 55.9729Z" fill="#CCCCCC"/>
<path d="M101.621 71.1199H60.2073C59.7984 71.1203 59.3934 71.0413 59.0155 70.8876C58.6377 70.7339 58.2943 70.5084 58.0052 70.224C57.716 69.9396 57.4867 69.6019 57.3304 69.2303C57.1741 68.8587 57.0938 68.4604 57.0942 68.0582V44.8415C57.0951 44.0298 57.4234 43.2515 58.007 42.6776C58.5906 42.1036 59.3819 41.7807 60.2073 41.7798H101.621C102.447 41.7807 103.238 42.1036 103.822 42.6776C104.405 43.2515 104.733 44.0298 104.734 44.8415V68.0582C104.735 68.4604 104.655 68.8588 104.498 69.2304C104.342 69.6021 104.113 69.9398 103.824 70.2242C103.534 70.5086 103.191 70.7341 102.813 70.8878C102.435 71.0415 102.03 71.1204 101.621 71.1199ZM60.2073 41.9654C59.432 41.9662 58.6886 42.2695 58.1404 42.8087C57.5921 43.3479 57.2837 44.079 57.2829 44.8415V68.0582C57.2825 68.436 57.3579 68.8102 57.5047 69.1593C57.6516 69.5084 57.867 69.8256 58.1386 70.0928C58.4102 70.3599 58.7328 70.5717 59.0877 70.7162C59.4427 70.8606 59.8232 70.9347 60.2073 70.9344H101.621C102.005 70.9348 102.386 70.8607 102.741 70.7163C103.096 70.5719 103.419 70.3601 103.69 70.093C103.962 69.8258 104.177 69.5086 104.324 69.1594C104.471 68.8103 104.546 68.4361 104.546 68.0582V44.8415C104.545 44.079 104.236 43.3479 103.688 42.8087C103.14 42.2695 102.397 41.9662 101.621 41.9654H60.2073Z" fill="#3F3D56"/>
</g>
<path d="M54.2452 107H52.5833L57.3901 93.9091H59.0265L63.8333 107H62.1713L58.2594 95.9801H58.1571L54.2452 107ZM54.8588 101.886H61.5577V103.293H54.8588V101.886ZM72.6223 99.3807L71.2672 99.7642C71.182 99.5384 71.0563 99.3189 70.8901 99.1058C70.7282 98.8885 70.5066 98.7095 70.2253 98.5689C69.9441 98.4283 69.584 98.358 69.1451 98.358C68.5442 98.358 68.0435 98.4964 67.6429 98.7734C67.2466 99.0462 67.0485 99.3935 67.0485 99.8153C67.0485 100.19 67.1848 100.487 67.4576 100.704C67.7303 100.921 68.1564 101.102 68.736 101.247L70.1934 101.605C71.0712 101.818 71.7253 102.144 72.1557 102.583C72.5861 103.018 72.8013 103.578 72.8013 104.264C72.8013 104.827 72.6394 105.33 72.3155 105.773C71.9959 106.216 71.5485 106.565 70.9732 106.821C70.3979 107.077 69.7289 107.205 68.9661 107.205C67.9647 107.205 67.1358 106.987 66.4796 106.553C65.8233 106.118 65.4078 105.483 65.2331 104.648L66.665 104.29C66.8013 104.818 67.0591 105.214 67.4384 105.479C67.8219 105.743 68.3226 105.875 68.9405 105.875C69.6436 105.875 70.2019 105.726 70.6152 105.428C71.0328 105.125 71.2417 104.763 71.2417 104.341C71.2417 104 71.1223 103.714 70.8837 103.484C70.6451 103.25 70.2786 103.075 69.7843 102.96L68.1479 102.577C67.2488 102.364 66.5882 102.033 66.1664 101.586C65.7488 101.134 65.54 100.57 65.54 99.892C65.54 99.3381 65.6955 98.848 66.0066 98.4219C66.3219 97.9957 66.7502 97.6612 67.2914 97.4183C67.8368 97.1754 68.4547 97.054 69.1451 97.054C70.1167 97.054 70.8794 97.267 71.4334 97.6932C71.9917 98.1193 72.388 98.6818 72.6223 99.3807ZM83.842 107.205C83.0238 107.205 82.3015 106.998 81.6751 106.585C81.0487 106.167 80.5586 105.579 80.2049 104.82C79.8512 104.058 79.6744 103.156 79.6744 102.116C79.6744 101.085 79.8512 100.19 80.2049 99.4318C80.5586 98.6733 81.0508 98.0874 81.6815 97.674C82.3121 97.2607 83.0408 97.054 83.8675 97.054C84.5067 97.054 85.0117 97.1605 85.3825 97.3736C85.7575 97.5824 86.043 97.821 86.239 98.0895C86.4393 98.3537 86.5948 98.571 86.7056 98.7415H86.8335V93.9091H88.342V107H86.8846V105.491H86.7056C86.5948 105.67 86.4371 105.896 86.2326 106.169C86.0281 106.437 85.7362 106.678 85.3569 106.891C84.9776 107.1 84.4727 107.205 83.842 107.205ZM84.0465 105.849C84.6516 105.849 85.163 105.692 85.5806 105.376C85.9982 105.057 86.3157 104.616 86.533 104.053C86.7504 103.487 86.859 102.832 86.859 102.091C86.859 101.358 86.7525 100.717 86.5394 100.167C86.3263 99.6129 86.011 99.1825 85.5934 98.8757C85.1758 98.5646 84.6602 98.4091 84.0465 98.4091C83.4073 98.4091 82.8746 98.5732 82.4485 98.9013C82.0266 99.2251 81.7092 99.6662 81.4961 100.224C81.2873 100.778 81.1829 101.401 81.1829 102.091C81.1829 102.79 81.2894 103.425 81.5025 103.996C81.7198 104.562 82.0394 105.014 82.4613 105.351C82.8874 105.683 83.4158 105.849 84.0465 105.849ZM95.4308 107.205C94.4847 107.205 93.6687 106.996 92.9826 106.578C92.3008 106.156 91.7745 105.568 91.4038 104.814C91.0373 104.055 90.854 103.173 90.854 102.168C90.854 101.162 91.0373 100.276 91.4038 99.5085C91.7745 98.7372 92.2901 98.1364 92.9506 97.706C93.6154 97.2713 94.391 97.054 95.2773 97.054C95.7887 97.054 96.2937 97.1392 96.7923 97.3097C97.2908 97.4801 97.7447 97.7571 98.1538 98.1406C98.5629 98.5199 98.8888 99.0227 99.1317 99.6491C99.3746 100.276 99.4961 101.047 99.4961 101.963V102.602H91.9279V101.298H97.962C97.962 100.744 97.8512 100.25 97.6296 99.8153C97.4123 99.3807 97.1012 99.0376 96.6964 98.7862C96.2958 98.5348 95.8228 98.4091 95.2773 98.4091C94.6765 98.4091 94.1566 98.5582 93.7177 98.8565C93.283 99.1506 92.9485 99.5341 92.7141 100.007C92.4798 100.48 92.3626 100.987 92.3626 101.528V102.398C92.3626 103.139 92.4904 103.768 92.7461 104.283C93.006 104.795 93.3661 105.185 93.8263 105.453C94.2866 105.717 94.8214 105.849 95.4308 105.849C95.8271 105.849 96.185 105.794 96.5046 105.683C96.8285 105.568 97.1076 105.398 97.342 105.172C97.5763 104.942 97.7575 104.656 97.8853 104.315L99.3427 104.724C99.1893 105.219 98.9315 105.653 98.5692 106.028C98.207 106.399 97.7596 106.689 97.2269 106.898C96.6942 107.102 96.0955 107.205 95.4308 107.205ZM108.745 99.3807L107.39 99.7642C107.305 99.5384 107.179 99.3189 107.013 99.1058C106.851 98.8885 106.63 98.7095 106.348 98.5689C106.067 98.4283 105.707 98.358 105.268 98.358C104.667 98.358 104.167 98.4964 103.766 98.7734C103.37 99.0462 103.172 99.3935 103.172 99.8153C103.172 100.19 103.308 100.487 103.581 100.704C103.853 100.921 104.279 101.102 104.859 101.247L106.316 101.605C107.194 101.818 107.848 102.144 108.279 102.583C108.709 103.018 108.924 103.578 108.924 104.264C108.924 104.827 108.762 105.33 108.439 105.773C108.119 106.216 107.672 106.565 107.096 106.821C106.521 107.077 105.852 107.205 105.089 107.205C104.088 107.205 103.259 106.987 102.603 106.553C101.946 106.118 101.531 105.483 101.356 104.648L102.788 104.29C102.924 104.818 103.182 105.214 103.561 105.479C103.945 105.743 104.446 105.875 105.064 105.875C105.767 105.875 106.325 105.726 106.738 105.428C107.156 105.125 107.365 104.763 107.365 104.341C107.365 104 107.245 103.714 107.007 103.484C106.768 103.25 106.402 103.075 105.907 102.96L104.271 102.577C103.372 102.364 102.711 102.033 102.289 101.586C101.872 101.134 101.663 100.57 101.663 99.892C101.663 99.3381 101.819 98.848 102.13 98.4219C102.445 97.9957 102.873 97.6612 103.414 97.4183C103.96 97.1754 104.578 97.054 105.268 97.054C106.24 97.054 107.002 97.267 107.556 97.6932C108.115 98.1193 108.511 98.6818 108.745 99.3807ZM54.3211 129V119.182H55.7785V120.716H55.9063C56.1109 120.192 56.4411 119.785 56.8971 119.495C57.3531 119.201 57.9007 119.054 58.5399 119.054C59.1876 119.054 59.7267 119.201 60.157 119.495C60.5917 119.785 60.9305 120.192 61.1734 120.716H61.2757C61.5271 120.209 61.9042 119.806 62.407 119.508C62.9099 119.205 63.5129 119.054 64.216 119.054C65.0938 119.054 65.8119 119.329 66.3701 119.879C66.9284 120.424 67.2075 121.274 67.2075 122.429V129H65.699V122.429C65.699 121.705 65.5008 121.187 65.1045 120.876C64.7082 120.565 64.2416 120.409 63.7046 120.409C63.0143 120.409 62.4795 120.618 62.1002 121.036C61.721 121.449 61.5313 121.973 61.5313 122.608V129H59.9972V122.276C59.9972 121.717 59.8161 121.268 59.4539 120.927C59.0917 120.582 58.6251 120.409 58.0541 120.409C57.662 120.409 57.2955 120.513 56.9546 120.722C56.618 120.931 56.3453 121.221 56.1365 121.592C55.9319 121.958 55.8296 122.382 55.8296 122.864V129H54.3211ZM74.0821 129.205C73.1361 129.205 72.32 128.996 71.634 128.578C70.9521 128.156 70.4259 127.568 70.0551 126.814C69.6887 126.055 69.5054 125.173 69.5054 124.168C69.5054 123.162 69.6887 122.276 70.0551 121.509C70.4259 120.737 70.9415 120.136 71.602 119.706C72.2668 119.271 73.0423 119.054 73.9287 119.054C74.4401 119.054 74.945 119.139 75.4436 119.31C75.9422 119.48 76.396 119.757 76.8051 120.141C77.2142 120.52 77.5402 121.023 77.7831 121.649C78.026 122.276 78.1475 123.047 78.1475 123.963V124.602H70.5793V123.298H76.6134C76.6134 122.744 76.5026 122.25 76.281 121.815C76.0637 121.381 75.7526 121.038 75.3477 120.786C74.9472 120.535 74.4742 120.409 73.9287 120.409C73.3279 120.409 72.808 120.558 72.3691 120.857C71.9344 121.151 71.5999 121.534 71.3655 122.007C71.1311 122.48 71.0139 122.987 71.0139 123.528V124.398C71.0139 125.139 71.1418 125.768 71.3975 126.283C71.6574 126.795 72.0175 127.185 72.4777 127.453C72.9379 127.717 73.4727 127.849 74.0821 127.849C74.4784 127.849 74.8364 127.794 75.156 127.683C75.4798 127.568 75.759 127.398 75.9933 127.172C76.2277 126.942 76.4088 126.656 76.5367 126.315L77.9941 126.724C77.8406 127.219 77.5828 127.653 77.2206 128.028C76.8584 128.399 76.411 128.689 75.8783 128.898C75.3456 129.102 74.7469 129.205 74.0821 129.205ZM73.1617 117.852L74.7213 114.886H76.4855L74.4912 117.852H73.1617ZM84.1496 129.205C83.3314 129.205 82.6091 128.998 81.9827 128.585C81.3563 128.167 80.8662 127.579 80.5125 126.82C80.1588 126.058 79.982 125.156 79.982 124.116C79.982 123.085 80.1588 122.19 80.5125 121.432C80.8662 120.673 81.3584 120.087 81.9891 119.674C82.6198 119.261 83.3485 119.054 84.1752 119.054C84.8144 119.054 85.3193 119.161 85.6901 119.374C86.0651 119.582 86.3506 119.821 86.5466 120.089C86.7469 120.354 86.9024 120.571 87.0132 120.741H87.1411V115.909H88.6496V129H87.1922V127.491H87.0132C86.9024 127.67 86.7448 127.896 86.5402 128.169C86.3357 128.437 86.0438 128.678 85.6645 128.891C85.2852 129.1 84.7803 129.205 84.1496 129.205ZM84.3541 127.849C84.9593 127.849 85.4706 127.692 85.8882 127.376C86.3058 127.057 86.6233 126.616 86.8406 126.053C87.058 125.487 87.1666 124.832 87.1666 124.091C87.1666 123.358 87.0601 122.717 86.847 122.167C86.634 121.613 86.3186 121.183 85.901 120.876C85.4834 120.565 84.9678 120.409 84.3541 120.409C83.7149 120.409 83.1823 120.573 82.7561 120.901C82.3343 121.225 82.0168 121.666 81.8037 122.224C81.5949 122.778 81.4905 123.401 81.4905 124.091C81.4905 124.79 81.597 125.425 81.8101 125.996C82.0274 126.562 82.347 127.014 82.7689 127.351C83.195 127.683 83.7235 127.849 84.3541 127.849ZM91.6219 129V119.182H93.1304V129H91.6219ZM92.3889 117.545C92.0949 117.545 91.8414 117.445 91.6283 117.245C91.4195 117.045 91.3151 116.804 91.3151 116.523C91.3151 116.241 91.4195 116.001 91.6283 115.8C91.8414 115.6 92.0949 115.5 92.3889 115.5C92.683 115.5 92.9344 115.6 93.1432 115.8C93.3563 116.001 93.4628 116.241 93.4628 116.523C93.4628 116.804 93.3563 117.045 93.1432 117.245C92.9344 117.445 92.683 117.545 92.3889 117.545ZM98.7826 129.23C98.1604 129.23 97.5958 129.113 97.0887 128.879C96.5816 128.64 96.1789 128.297 95.8806 127.849C95.5823 127.398 95.4331 126.852 95.4331 126.213C95.4331 125.651 95.5439 125.195 95.7655 124.845C95.9871 124.491 96.2833 124.214 96.654 124.014C97.0248 123.814 97.4339 123.665 97.8813 123.567C98.333 123.464 98.7868 123.384 99.2428 123.324C99.8394 123.247 100.323 123.19 100.694 123.151C101.069 123.109 101.342 123.038 101.512 122.94C101.687 122.842 101.774 122.672 101.774 122.429V122.378C101.774 121.747 101.601 121.257 101.256 120.908C100.915 120.558 100.398 120.384 99.703 120.384C98.9829 120.384 98.4182 120.541 98.0091 120.857C97.6001 121.172 97.3124 121.509 97.1462 121.866L95.7144 121.355C95.9701 120.759 96.311 120.294 96.7371 119.962C97.1675 119.625 97.6363 119.391 98.1434 119.259C98.6547 119.122 99.1576 119.054 99.6519 119.054C99.9672 119.054 100.329 119.092 100.739 119.169C101.152 119.241 101.55 119.393 101.934 119.623C102.322 119.853 102.643 120.2 102.899 120.665C103.155 121.129 103.283 121.751 103.283 122.531V129H101.774V127.67H101.697C101.595 127.884 101.425 128.112 101.186 128.354C100.947 128.597 100.63 128.804 100.234 128.974C99.8373 129.145 99.3536 129.23 98.7826 129.23ZM99.0127 127.875C99.6093 127.875 100.112 127.758 100.521 127.523C100.935 127.289 101.246 126.987 101.454 126.616C101.668 126.245 101.774 125.855 101.774 125.446V124.065C101.71 124.142 101.57 124.212 101.352 124.276C101.139 124.336 100.892 124.389 100.611 124.436C100.334 124.479 100.063 124.517 99.7989 124.551C99.539 124.581 99.328 124.607 99.1661 124.628C98.7741 124.679 98.4076 124.762 98.0667 124.877C97.73 124.988 97.4573 125.156 97.2485 125.382C97.0439 125.604 96.9417 125.906 96.9417 126.29C96.9417 126.814 97.1356 127.21 97.5233 127.479C97.9154 127.743 98.4118 127.875 99.0127 127.875ZM112.991 121.381L111.635 121.764C111.55 121.538 111.424 121.319 111.258 121.106C111.096 120.888 110.875 120.71 110.593 120.569C110.312 120.428 109.952 120.358 109.513 120.358C108.912 120.358 108.412 120.496 108.011 120.773C107.615 121.046 107.417 121.393 107.417 121.815C107.417 122.19 107.553 122.487 107.826 122.704C108.098 122.921 108.525 123.102 109.104 123.247L110.562 123.605C111.439 123.818 112.093 124.144 112.524 124.583C112.954 125.018 113.169 125.578 113.169 126.264C113.169 126.827 113.008 127.33 112.684 127.773C112.364 128.216 111.917 128.565 111.341 128.821C110.766 129.077 110.097 129.205 109.334 129.205C108.333 129.205 107.504 128.987 106.848 128.553C106.191 128.118 105.776 127.483 105.601 126.648L107.033 126.29C107.169 126.818 107.427 127.214 107.807 127.479C108.19 127.743 108.691 127.875 109.309 127.875C110.012 127.875 110.57 127.726 110.983 127.428C111.401 127.125 111.61 126.763 111.61 126.341C111.61 126 111.491 125.714 111.252 125.484C111.013 125.25 110.647 125.075 110.152 124.96L108.516 124.577C107.617 124.364 106.956 124.033 106.535 123.586C106.117 123.134 105.908 122.57 105.908 121.892C105.908 121.338 106.064 120.848 106.375 120.422C106.69 119.996 107.118 119.661 107.66 119.418C108.205 119.175 108.823 119.054 109.513 119.054C110.485 119.054 111.248 119.267 111.802 119.693C112.36 120.119 112.756 120.682 112.991 121.381Z" fill="black"/>
<path d="M82.8382 60L75 51.3303L79.5583 48.2806L83.2697 52.3855L95.8074 41L100 44.4171L82.8382 60Z" fill="white"/>
</g>
<defs>
<filter id="filter0_d_735_14" x="0" y="0" width="165" height="162" filterUnits="userSpaceOnUse" color-interpolation-filters="sRGB">
<feFlood flood-opacity="0" result="BackgroundImageFix"/>
<feColorMatrix in="SourceAlpha" type="matrix" values="0 0 0 0 0 0 0 0 0 0 0 0 0 0 0 0 0 0 127 0" result="hardAlpha"/>
<feOffset dy="4"/>
<feGaussianBlur stdDeviation="2"/>
<feComposite in2="hardAlpha" operator="out"/>
<feColorMatrix type="matrix" values="0 0 0 0 0 0 0 0 0 0 0 0 0 0 0 0 0 0 0.25 0"/>
<feBlend mode="normal" in2="BackgroundImageFix" result="effect1_dropShadow_735_14"/>
<feBlend mode="normal" in="SourceGraphic" in2="effect1_dropShadow_735_14" result="shape"/>
</filter>
<clipPath id="clip0_735_14">
<rect width="77" height="65" fill="white" transform="translate(52 17)"/>
</clipPath>
</defs>
</svg>
