<svg width="165" height="162" viewBox="0 0 165 162" fill="none" xmlns="http://www.w3.org/2000/svg">
<g filter="url(#filter0_d_735_16)">
<path d="M159 77C159 118.385 124.786 152 82.5 152C40.2137 152 6 118.385 6 77C6 35.6148 40.2137 2 82.5 2C124.786 2 159 35.6148 159 77Z" fill="white" stroke="#F9A826" stroke-width="4"/>
<path d="M33.679 93.9091H35.571L40.0199 104.776H40.1733L44.6222 93.9091H46.5142V107H45.0312V97.054H44.9034L40.8125 107H39.3807L35.2898 97.054H35.1619V107H33.679V93.9091ZM53.6046 107.205C52.6586 107.205 51.8425 106.996 51.1564 106.578C50.4746 106.156 49.9483 105.568 49.5776 104.814C49.2111 104.055 49.0279 103.173 49.0279 102.168C49.0279 101.162 49.2111 100.276 49.5776 99.5085C49.9483 98.7372 50.464 98.1364 51.1245 97.706C51.7892 97.2713 52.5648 97.054 53.4512 97.054C53.9625 97.054 54.4675 97.1392 54.9661 97.3097C55.4647 97.4801 55.9185 97.7571 56.3276 98.1406C56.7367 98.5199 57.0627 99.0227 57.3056 99.6491C57.5485 100.276 57.6699 101.047 57.6699 101.963V102.602H50.1017V101.298H56.1358C56.1358 100.744 56.025 100.25 55.8034 99.8153C55.5861 99.3807 55.275 99.0376 54.8702 98.7862C54.4696 98.5348 53.9966 98.4091 53.4512 98.4091C52.8503 98.4091 52.3304 98.5582 51.8915 98.8565C51.4569 99.1506 51.1223 99.5341 50.888 100.007C50.6536 100.48 50.5364 100.987 50.5364 101.528V102.398C50.5364 103.139 50.6642 103.768 50.9199 104.283C51.1799 104.795 51.54 105.185 52.0002 105.453C52.4604 105.717 52.9952 105.849 53.6046 105.849C54.0009 105.849 54.3588 105.794 54.6784 105.683C55.0023 105.568 55.2814 105.398 55.5158 105.172C55.7502 104.942 55.9313 104.656 56.0591 104.315L57.5165 104.724C57.3631 105.219 57.1053 105.653 56.7431 106.028C56.3809 106.399 55.9334 106.689 55.4007 106.898C54.8681 107.102 54.2694 107.205 53.6046 107.205ZM66.9192 99.3807L65.5641 99.7642C65.4789 99.5384 65.3532 99.3189 65.187 99.1058C65.025 98.8885 64.8034 98.7095 64.5222 98.5689C64.2409 98.4283 63.8809 98.358 63.4419 98.358C62.8411 98.358 62.3404 98.4964 61.9398 98.7734C61.5435 99.0462 61.3453 99.3935 61.3453 99.8153C61.3453 100.19 61.4817 100.487 61.7544 100.704C62.0272 100.921 62.4533 101.102 63.0328 101.247L64.4902 101.605C65.3681 101.818 66.0222 102.144 66.4526 102.583C66.883 103.018 67.0982 103.578 67.0982 104.264C67.0982 104.827 66.9363 105.33 66.6124 105.773C66.2928 106.216 65.8453 106.565 65.2701 106.821C64.6948 107.077 64.0257 107.205 63.263 107.205C62.2615 107.205 61.4327 106.987 60.7765 106.553C60.1202 106.118 59.7047 105.483 59.53 104.648L60.9618 104.29C61.0982 104.818 61.356 105.214 61.7353 105.479C62.1188 105.743 62.6195 105.875 63.2374 105.875C63.9405 105.875 64.4988 105.726 64.9121 105.428C65.3297 105.125 65.5385 104.763 65.5385 104.341C65.5385 104 65.4192 103.714 65.1806 103.484C64.9419 103.25 64.5755 103.075 64.0811 102.96L62.4448 102.577C61.5456 102.364 60.8851 102.033 60.4632 101.586C60.0456 101.134 59.8368 100.57 59.8368 99.892C59.8368 99.3381 59.9924 98.848 60.3034 98.4219C60.6188 97.9957 61.0471 97.6612 61.5882 97.4183C62.1337 97.1754 62.7516 97.054 63.4419 97.054C64.4135 97.054 65.1763 97.267 65.7303 97.6932C66.2885 98.1193 66.6848 98.6818 66.9192 99.3807ZM76.3235 99.3807L74.9684 99.7642C74.8832 99.5384 74.7575 99.3189 74.5913 99.1058C74.4293 98.8885 74.2077 98.7095 73.9265 98.5689C73.6452 98.4283 73.2852 98.358 72.8462 98.358C72.2454 98.358 71.7447 98.4964 71.3441 98.7734C70.9478 99.0462 70.7496 99.3935 70.7496 99.8153C70.7496 100.19 70.886 100.487 71.1587 100.704C71.4315 100.921 71.8576 101.102 72.4371 101.247L73.8945 101.605C74.7724 101.818 75.4265 102.144 75.8569 102.583C76.2873 103.018 76.5025 103.578 76.5025 104.264C76.5025 104.827 76.3406 105.33 76.0167 105.773C75.6971 106.216 75.2496 106.565 74.6744 106.821C74.0991 107.077 73.43 107.205 72.6673 107.205C71.6658 107.205 70.837 106.987 70.1808 106.553C69.5245 106.118 69.109 105.483 68.9343 104.648L70.3661 104.29C70.5025 104.818 70.7603 105.214 71.1396 105.479C71.5231 105.743 72.0238 105.875 72.6417 105.875C73.3448 105.875 73.9031 105.726 74.3164 105.428C74.734 105.125 74.9428 104.763 74.9428 104.341C74.9428 104 74.8235 103.714 74.5849 103.484C74.3462 103.25 73.9798 103.075 73.4854 102.96L71.8491 102.577C70.9499 102.364 70.2894 102.033 69.8675 101.586C69.4499 101.134 69.2411 100.57 69.2411 99.892C69.2411 99.3381 69.3967 98.848 69.7077 98.4219C70.0231 97.9957 70.4513 97.6612 70.9925 97.4183C71.538 97.1754 72.1559 97.054 72.8462 97.054C73.8178 97.054 74.5806 97.267 75.1346 97.6932C75.6928 98.1193 76.0891 98.6818 76.3235 99.3807ZM81.6625 107.23C81.0403 107.23 80.4757 107.113 79.9686 106.879C79.4615 106.64 79.0588 106.297 78.7605 105.849C78.4622 105.398 78.313 104.852 78.313 104.213C78.313 103.651 78.4238 103.195 78.6454 102.845C78.867 102.491 79.1632 102.214 79.5339 102.014C79.9047 101.814 80.3137 101.665 80.7612 101.567C81.2129 101.464 81.6667 101.384 82.1227 101.324C82.7193 101.247 83.2029 101.19 83.5737 101.151C83.9487 101.109 84.2214 101.038 84.3919 100.94C84.5666 100.842 84.6539 100.672 84.6539 100.429V100.378C84.6539 99.7472 84.4814 99.2571 84.1362 98.9077C83.7953 98.5582 83.2775 98.3835 82.5829 98.3835C81.8627 98.3835 81.2981 98.5412 80.889 98.8565C80.4799 99.1719 80.1923 99.5085 80.0261 99.8665L78.5943 99.3551C78.85 98.7585 79.1909 98.294 79.617 97.9616C80.0474 97.625 80.5162 97.3906 81.0233 97.2585C81.5346 97.1222 82.0375 97.054 82.5318 97.054C82.8471 97.054 83.2093 97.0923 83.6184 97.169C84.0318 97.2415 84.4302 97.3928 84.8137 97.6229C85.2015 97.853 85.5233 98.2003 85.7789 98.6648C86.0346 99.1293 86.1625 99.7514 86.1625 100.531V107H84.6539V105.67H84.5772C84.475 105.884 84.3045 106.112 84.0659 106.354C83.8272 106.597 83.5098 106.804 83.1135 106.974C82.7172 107.145 82.2335 107.23 81.6625 107.23ZM81.8926 105.875C82.4892 105.875 82.992 105.758 83.4011 105.523C83.8145 105.289 84.1255 104.987 84.3343 104.616C84.5474 104.245 84.6539 103.855 84.6539 103.446V102.065C84.59 102.142 84.4494 102.212 84.2321 102.276C84.019 102.336 83.7718 102.389 83.4906 102.436C83.2136 102.479 82.943 102.517 82.6788 102.551C82.4189 102.581 82.2079 102.607 82.046 102.628C81.6539 102.679 81.2875 102.762 80.9466 102.877C80.6099 102.988 80.3372 103.156 80.1284 103.382C79.9238 103.604 79.8216 103.906 79.8216 104.29C79.8216 104.814 80.0154 105.21 80.4032 105.479C80.7953 105.743 81.2917 105.875 81.8926 105.875ZM92.8789 110.886C92.1502 110.886 91.5238 110.793 90.9996 110.605C90.4755 110.422 90.0387 110.179 89.6893 109.876C89.3441 109.578 89.0692 109.259 88.8647 108.918L90.0664 108.074C90.2028 108.253 90.3754 108.457 90.5842 108.688C90.793 108.922 91.0785 109.124 91.4407 109.295C91.8072 109.469 92.2866 109.557 92.8789 109.557C93.6715 109.557 94.3256 109.365 94.8413 108.982C95.3569 108.598 95.6147 107.997 95.6147 107.179V105.185H95.4869C95.3761 105.364 95.2184 105.585 95.0138 105.849C94.8136 106.109 94.5238 106.342 94.1445 106.546C93.7695 106.746 93.2624 106.847 92.6232 106.847C91.8306 106.847 91.119 106.659 90.4883 106.284C89.8619 105.909 89.3654 105.364 88.9989 104.648C88.6367 103.932 88.4556 103.062 88.4556 102.04C88.4556 101.034 88.6325 100.158 88.9862 99.4126C89.3398 98.6626 89.832 98.0831 90.4627 97.674C91.0934 97.2607 91.8221 97.054 92.6488 97.054C93.288 97.054 93.7951 97.1605 94.1701 97.3736C94.5494 97.5824 94.8391 97.821 95.0394 98.0895C95.244 98.3537 95.4016 98.571 95.5124 98.7415H95.6658V97.1818H97.1232V107.281C97.1232 108.125 96.9315 108.811 96.5479 109.339C96.1687 109.872 95.6573 110.262 95.0138 110.509C94.3746 110.761 93.663 110.886 92.8789 110.886ZM92.8278 105.491C93.4329 105.491 93.9442 105.353 94.3619 105.076C94.7795 104.799 95.0969 104.401 95.3143 103.881C95.5316 103.361 95.6403 102.739 95.6403 102.014C95.6403 101.307 95.5337 100.683 95.3207 100.141C95.1076 99.6001 94.7923 99.1761 94.3746 98.8693C93.957 98.5625 93.4414 98.4091 92.8278 98.4091C92.1886 98.4091 91.6559 98.571 91.2298 98.8949C90.8079 99.2187 90.4904 99.6534 90.2773 100.199C90.0685 100.744 89.9641 101.349 89.9641 102.014C89.9641 102.696 90.0707 103.299 90.2837 103.823C90.5011 104.343 90.8207 104.752 91.2425 105.05C91.6687 105.344 92.1971 105.491 92.8278 105.491ZM104.001 107.205C103.055 107.205 102.239 106.996 101.553 106.578C100.871 106.156 100.345 105.568 99.9741 104.814C99.6076 104.055 99.4244 103.173 99.4244 102.168C99.4244 101.162 99.6076 100.276 99.9741 99.5085C100.345 98.7372 100.86 98.1364 101.521 97.706C102.186 97.2713 102.961 97.054 103.848 97.054C104.359 97.054 104.864 97.1392 105.363 97.3097C105.861 97.4801 106.315 97.7571 106.724 98.1406C107.133 98.5199 107.459 99.0227 107.702 99.6491C107.945 100.276 108.066 101.047 108.066 101.963V102.602H100.498V101.298H106.532C106.532 100.744 106.422 100.25 106.2 99.8153C105.983 99.3807 105.672 99.0376 105.267 98.7862C104.866 98.5348 104.393 98.4091 103.848 98.4091C103.247 98.4091 102.727 98.5582 102.288 98.8565C101.853 99.1506 101.519 99.5341 101.284 100.007C101.05 100.48 100.933 100.987 100.933 101.528V102.398C100.933 103.139 101.061 103.768 101.316 104.283C101.576 104.795 101.936 105.185 102.397 105.453C102.857 105.717 103.392 105.849 104.001 105.849C104.397 105.849 104.755 105.794 105.075 105.683C105.399 105.568 105.678 105.398 105.912 105.172C106.147 104.942 106.328 104.656 106.456 104.315L107.913 104.724C107.76 105.219 107.502 105.653 107.14 106.028C106.777 106.399 106.33 106.689 105.797 106.898C105.265 107.102 104.666 107.205 104.001 107.205ZM115.424 107V97.1818H116.932V107H115.424ZM116.191 95.5455C115.897 95.5455 115.643 95.4453 115.43 95.245C115.221 95.0447 115.117 94.804 115.117 94.5227C115.117 94.2415 115.221 94.0007 115.43 93.8004C115.643 93.6001 115.897 93.5 116.191 93.5C116.485 93.5 116.736 93.6001 116.945 93.8004C117.158 94.0007 117.265 94.2415 117.265 94.5227C117.265 94.804 117.158 95.0447 116.945 95.245C116.736 95.4453 116.485 95.5455 116.191 95.5455ZM121.204 101.094V107H119.695V97.1818H121.153V98.7159H121.28C121.51 98.2173 121.86 97.8168 122.329 97.5142C122.797 97.2074 123.403 97.054 124.144 97.054C124.809 97.054 125.39 97.1903 125.889 97.4631C126.388 97.7315 126.775 98.1406 127.052 98.6903C127.329 99.2358 127.468 99.9261 127.468 100.761V107H125.959V100.864C125.959 100.092 125.759 99.4915 125.358 99.0611C124.958 98.6264 124.408 98.4091 123.709 98.4091C123.228 98.4091 122.797 98.5135 122.418 98.7223C122.043 98.9311 121.747 99.2358 121.53 99.6364C121.312 100.037 121.204 100.523 121.204 101.094ZM47.2101 119.182V120.46H42.1221V119.182H47.2101ZM43.605 116.83H45.1135V126.188C45.1135 126.614 45.1753 126.933 45.2989 127.146C45.4268 127.355 45.5887 127.496 45.7847 127.568C45.985 127.636 46.1959 127.67 46.4175 127.67C46.5837 127.67 46.7201 127.662 46.8266 127.645C46.9332 127.624 47.0184 127.607 47.0823 127.594L47.3891 128.949C47.2868 128.987 47.1441 129.026 46.9608 129.064C46.7776 129.107 46.5454 129.128 46.2641 129.128C45.838 129.128 45.4204 129.036 45.0113 128.853C44.6064 128.67 44.2698 128.391 44.0013 128.016C43.7371 127.641 43.605 127.168 43.605 126.597V116.83ZM51.1988 123.094V129H49.6903V115.909H51.1988V120.716H51.3266C51.5567 120.209 51.9019 119.806 52.3621 119.508C52.8266 119.205 53.4445 119.054 54.2158 119.054C54.8849 119.054 55.4708 119.188 55.9736 119.457C56.4765 119.721 56.8664 120.128 57.1434 120.678C57.4246 121.223 57.5653 121.918 57.5653 122.761V129H56.0567V122.864C56.0567 122.084 55.8543 121.481 55.4495 121.055C55.0489 120.624 54.4928 120.409 53.7812 120.409C53.2868 120.409 52.8437 120.513 52.4516 120.722C52.0638 120.931 51.757 121.236 51.5312 121.636C51.3096 122.037 51.1988 122.523 51.1988 123.094ZM64.4415 129.205C63.4955 129.205 62.6794 128.996 61.9933 128.578C61.3115 128.156 60.7852 127.568 60.4145 126.814C60.048 126.055 59.8648 125.173 59.8648 124.168C59.8648 123.162 60.048 122.276 60.4145 121.509C60.7852 120.737 61.3009 120.136 61.9614 119.706C62.6262 119.271 63.4017 119.054 64.2881 119.054C64.7994 119.054 65.3044 119.139 65.803 119.31C66.3016 119.48 66.7554 119.757 67.1645 120.141C67.5736 120.52 67.8996 121.023 68.1425 121.649C68.3854 122.276 68.5068 123.047 68.5068 123.963V124.602H60.9387V123.298H66.9727C66.9727 122.744 66.8619 122.25 66.6404 121.815C66.423 121.381 66.1119 121.038 65.7071 120.786C65.3066 120.535 64.8335 120.409 64.2881 120.409C63.6872 120.409 63.1673 120.558 62.7284 120.857C62.2938 121.151 61.9593 121.534 61.7249 122.007C61.4905 122.48 61.3733 122.987 61.3733 123.528V124.398C61.3733 125.139 61.5012 125.768 61.7568 126.283C62.0168 126.795 62.3769 127.185 62.8371 127.453C63.2973 127.717 63.8321 127.849 64.4415 127.849C64.8378 127.849 65.1958 127.794 65.5154 127.683C65.8392 127.568 66.1183 127.398 66.3527 127.172C66.5871 126.942 66.7682 126.656 66.896 126.315L68.3534 126.724C68.2 127.219 67.9422 127.653 67.58 128.028C67.2178 128.399 66.7703 128.689 66.2377 128.898C65.705 129.102 65.1063 129.205 64.4415 129.205ZM76.0686 129V115.909H77.5771V120.741H77.705C77.8158 120.571 77.9692 120.354 78.1652 120.089C78.3655 119.821 78.651 119.582 79.0218 119.374C79.3968 119.161 79.9039 119.054 80.5431 119.054C81.3698 119.054 82.0985 119.261 82.7291 119.674C83.3598 120.087 83.852 120.673 84.2057 121.432C84.5594 122.19 84.7362 123.085 84.7362 124.116C84.7362 125.156 84.5594 126.058 84.2057 126.82C83.852 127.579 83.3619 128.167 82.7355 128.585C82.1091 128.998 81.3868 129.205 80.5686 129.205C79.9379 129.205 79.433 129.1 79.0537 128.891C78.6744 128.678 78.3825 128.437 78.178 128.169C77.9735 127.896 77.8158 127.67 77.705 127.491H77.526V129H76.0686ZM77.5516 124.091C77.5516 124.832 77.6602 125.487 77.8776 126.053C78.0949 126.616 78.4124 127.057 78.83 127.376C79.2476 127.692 79.759 127.849 80.3641 127.849C80.9948 127.849 81.521 127.683 81.9429 127.351C82.3691 127.014 82.6887 126.562 82.9017 125.996C83.1191 125.425 83.2277 124.79 83.2277 124.091C83.2277 123.401 83.1212 122.778 82.9081 122.224C82.6993 121.666 82.3818 121.225 81.9557 120.901C81.5338 120.573 81.0033 120.409 80.3641 120.409C79.7504 120.409 79.2348 120.565 78.8172 120.876C78.3996 121.183 78.0843 121.613 77.8712 122.167C77.6581 122.717 77.5516 123.358 77.5516 124.091ZM91.0324 129.205C90.146 129.205 89.3683 128.994 88.6993 128.572C88.0345 128.15 87.5146 127.56 87.1396 126.801C86.7689 126.043 86.5835 125.156 86.5835 124.142C86.5835 123.119 86.7689 122.227 87.1396 121.464C87.5146 120.701 88.0345 120.109 88.6993 119.687C89.3683 119.265 90.146 119.054 91.0324 119.054C91.9188 119.054 92.6943 119.265 93.3591 119.687C94.0281 120.109 94.548 120.701 94.9188 121.464C95.2938 122.227 95.4813 123.119 95.4813 124.142C95.4813 125.156 95.2938 126.043 94.9188 126.801C94.548 127.56 94.0281 128.15 93.3591 128.572C92.6943 128.994 91.9188 129.205 91.0324 129.205ZM91.0324 127.849C91.7057 127.849 92.2597 127.677 92.6943 127.332C93.129 126.987 93.4507 126.533 93.6595 125.97C93.8683 125.408 93.9727 124.798 93.9727 124.142C93.9727 123.486 93.8683 122.874 93.6595 122.308C93.4507 121.741 93.129 121.283 92.6943 120.933C92.2597 120.584 91.7057 120.409 91.0324 120.409C90.3591 120.409 89.8051 120.584 89.3705 120.933C88.9358 121.283 88.6141 121.741 88.4053 122.308C88.1965 122.874 88.0921 123.486 88.0921 124.142C88.0921 124.798 88.1965 125.408 88.4053 125.97C88.6141 126.533 88.9358 126.987 89.3705 127.332C89.8051 127.677 90.3591 127.849 91.0324 127.849ZM102.054 119.182V120.46H96.9658V119.182H102.054ZM98.4488 116.83H99.9573V126.188C99.9573 126.614 100.019 126.933 100.143 127.146C100.271 127.355 100.432 127.496 100.628 127.568C100.829 127.636 101.04 127.67 101.261 127.67C101.427 127.67 101.564 127.662 101.67 127.645C101.777 127.624 101.862 127.607 101.926 127.594L102.233 128.949C102.131 128.987 101.988 129.026 101.805 129.064C101.621 129.107 101.389 129.128 101.108 129.128C100.682 129.128 100.264 129.036 99.855 128.853C99.4502 128.67 99.1135 128.391 98.8451 128.016C98.5809 127.641 98.4488 127.168 98.4488 126.597V116.83ZM108.593 119.182V120.46H103.505V119.182H108.593ZM104.988 116.83H106.496V126.188C106.496 126.614 106.558 126.933 106.682 127.146C106.81 127.355 106.972 127.496 107.168 127.568C107.368 127.636 107.579 127.67 107.8 127.67C107.967 127.67 108.103 127.662 108.209 127.645C108.316 127.624 108.401 127.607 108.465 127.594L108.772 128.949C108.67 128.987 108.527 129.026 108.344 129.064C108.16 129.107 107.928 129.128 107.647 129.128C107.221 129.128 106.803 129.036 106.394 128.853C105.989 128.67 105.653 128.391 105.384 128.016C105.12 127.641 104.988 127.168 104.988 126.597V116.83ZM112.582 115.909V129H111.073V115.909H112.582ZM119.461 129.205C118.515 129.205 117.699 128.996 117.013 128.578C116.331 128.156 115.805 127.568 115.434 126.814C115.068 126.055 114.884 125.173 114.884 124.168C114.884 123.162 115.068 122.276 115.434 121.509C115.805 120.737 116.32 120.136 116.981 119.706C117.646 119.271 118.421 119.054 119.308 119.054C119.819 119.054 120.324 119.139 120.823 119.31C121.321 119.48 121.775 119.757 122.184 120.141C122.593 120.52 122.919 121.023 123.162 121.649C123.405 122.276 123.526 123.047 123.526 123.963V124.602H115.958V123.298H121.992C121.992 122.744 121.881 122.25 121.66 121.815C121.443 121.381 121.131 121.038 120.727 120.786C120.326 120.535 119.853 120.409 119.308 120.409C118.707 120.409 118.187 120.558 117.748 120.857C117.313 121.151 116.979 121.534 116.744 122.007C116.51 122.48 116.393 122.987 116.393 123.528V124.398C116.393 125.139 116.521 125.768 116.776 126.283C117.036 126.795 117.396 127.185 117.857 127.453C118.317 127.717 118.852 127.849 119.461 127.849C119.857 127.849 120.215 127.794 120.535 127.683C120.859 127.568 121.138 127.398 121.372 127.172C121.607 126.942 121.788 126.656 121.916 126.315L123.373 126.724C123.22 127.219 122.962 127.653 122.6 128.028C122.237 128.399 121.79 128.689 121.257 128.898C120.725 129.102 120.126 129.205 119.461 129.205Z" fill="black"/>
<path d="M82.8382 60L75 51.3303L79.5583 48.2806L83.2697 52.3855L95.8074 41L100 44.4171L82.8382 60Z" fill="white"/>
</g>
<g clip-path="url(#clip0_735_16)" filter="url(#filter1_d_735_16)">
<path d="M99.3596 77.6881C99.971 77.9057 100.627 77.9602 101.266 77.8464C101.904 77.7326 102.502 77.4543 103.003 77.0383C104.279 75.9538 104.68 74.1671 105.005 72.5127L105.968 67.6194L103.952 69.0249C102.502 70.0356 101.02 71.0787 100.016 72.5427C99.012 74.0067 98.5738 76.0053 99.3804 77.5894" fill="#E6E6E6"/>
<path d="M99.532 83.6126C99.3279 82.1077 99.1181 80.5835 99.2612 79.0625C99.3883 77.7118 99.7954 76.3924 100.624 75.3106C101.064 74.7375 101.599 74.2465 102.206 73.8596C102.364 73.7585 102.509 74.0123 102.352 74.1129C101.302 74.7844 100.491 75.776 100.034 76.9448C99.5291 78.2444 99.448 79.6612 99.535 81.0418C99.5876 81.8767 99.6991 82.7062 99.8114 83.5346C99.8203 83.572 99.8147 83.6115 99.7959 83.645C99.7772 83.6785 99.7465 83.7035 99.7102 83.715C99.6732 83.7251 99.6337 83.72 99.6003 83.7009C99.5669 83.6817 99.5424 83.65 99.532 83.6126Z" fill="#F2F2F2"/>
<path d="M101.497 80.9497C101.76 81.3531 102.12 81.6814 102.544 81.9029C102.968 82.1244 103.441 82.2317 103.918 82.2143C105.143 82.1554 106.164 81.2897 107.083 80.4679L109.803 78.0369L108.003 77.9497C106.709 77.887 105.381 77.8285 104.148 78.2326C102.915 78.6367 101.778 79.6093 101.553 80.9012" fill="#E6E6E6"/>
<path d="M98.9553 84.4776C99.9374 82.7181 101.077 80.7627 103.112 80.1377C103.678 79.9645 104.272 79.9024 104.861 79.9549C105.046 79.9711 105 80.2608 104.815 80.2446C103.827 80.1616 102.842 80.4256 102.024 80.992C101.238 81.5342 100.625 82.288 100.107 83.0874C99.789 83.577 99.5045 84.0874 99.22 84.5971C99.1291 84.76 98.8633 84.6424 98.9553 84.4776V84.4776Z" fill="#F2F2F2"/>
<path d="M74.7485 72.1169C73.5437 72.5457 72.25 72.6531 70.9923 72.4287C69.7345 72.2044 68.555 71.6559 67.5674 70.8361C65.0522 68.6987 64.2636 65.1774 63.6219 61.9168C62.9893 58.7021 62.3567 55.4874 61.7241 52.2727L65.6975 55.0428C68.5549 57.0348 71.4767 59.0906 73.4552 61.976C75.4337 64.8614 76.2973 68.8002 74.7077 71.9223" fill="#E6E6E6"/>
<path d="M74.4089 83.793C74.8111 80.8272 75.2246 77.8232 74.9425 74.8256C74.692 72.1634 73.8897 69.5631 72.2565 67.4311C71.3896 66.3016 70.3348 65.3338 69.1394 64.5712C68.8277 64.372 68.5408 64.8722 68.8511 65.0705C70.9195 66.394 72.5193 68.3483 73.4199 70.6517C74.4146 73.2132 74.5743 76.0054 74.4029 78.7265C74.2992 80.372 74.0795 82.0067 73.8582 83.6393C73.8407 83.7132 73.8516 83.7909 73.8886 83.857C73.9256 83.923 73.9861 83.9723 74.0576 83.995C74.1306 84.0149 74.2085 84.0049 74.2742 83.9671C74.34 83.9293 74.3884 83.8667 74.4089 83.793Z" fill="#F2F2F2"/>
<path d="M70.5353 78.5449C70.0186 79.34 69.3083 79.9871 68.4729 80.4236C67.6374 80.8602 66.7051 81.0715 65.7656 81.0373C63.351 80.9213 61.3381 79.2151 59.526 77.5953L54.1664 72.8042L57.7136 72.6323C60.2645 72.5087 62.8813 72.3934 65.3109 73.1899C67.7406 73.9864 69.9814 75.9031 70.4257 78.4494" fill="#E6E6E6"/>
<path d="M75.5454 85.498C73.6098 82.0303 71.3645 78.1763 67.3527 76.9445C66.2373 76.6032 65.0676 76.4809 63.9068 76.5843C63.5409 76.6162 63.6323 77.1872 63.9975 77.1553C65.9433 76.9918 67.8853 77.512 69.4967 78.6284C71.0473 79.6969 72.2546 81.1825 73.2764 82.758C73.9023 83.7229 74.463 84.7289 75.0237 85.7335C75.2029 86.0545 75.7267 85.8228 75.5454 85.498Z" fill="#F2F2F2"/>
<path d="M60.6054 38.5508L43.9392 35.0156L43.7226 34.9697C43.6123 34.9462 43.4977 34.9546 43.3919 34.9941C43.2862 35.0335 43.1935 35.1024 43.1247 35.1928C43.0559 35.2832 43.0136 35.3914 43.0029 35.505C42.9921 35.6186 43.0132 35.733 43.0638 35.835L49.7522 49.3831C49.7954 49.4702 49.8587 49.5454 49.9367 49.6025C50.0147 49.6596 50.1051 49.6969 50.2003 49.7112C50.2958 49.7257 50.3934 49.7164 50.4845 49.6841C50.5757 49.6519 50.6577 49.5976 50.7235 49.5261L55.285 44.5982C55.3175 44.5623 55.3569 44.5335 55.4009 44.5138C55.4448 44.494 55.4923 44.4837 55.5404 44.4834C55.6058 44.4821 55.6702 44.4988 55.7269 44.5317C55.7836 44.5647 55.8304 44.6126 55.8623 44.6704L56.8129 46.4254C56.8736 46.5425 56.9712 46.6356 57.0902 46.6899C57.2092 46.7443 57.3428 46.7568 57.4696 46.7254L57.4743 46.7243C57.6027 46.696 57.718 46.6247 57.8016 46.5221C57.8851 46.4194 57.9322 46.2912 57.9352 46.1582L58.0997 42.0927C58.1016 42.042 58.1138 41.9922 58.1356 41.9465C58.1589 41.9012 58.1907 41.8609 58.2293 41.8279L60.8645 39.6111C60.9511 39.5383 61.0157 39.4422 61.0509 39.3338C61.086 39.2255 61.0903 39.1094 61.0633 38.9987C61.0362 38.888 60.9789 38.7873 60.8979 38.7081C60.817 38.6288 60.7156 38.5743 60.6054 38.5508V38.5508ZM60.7122 39.4249L58.0769 41.6417C58.0426 41.6701 58.0115 41.7022 57.9843 41.7376L43.9113 35.3775C43.8988 35.3718 43.8859 35.3672 43.8726 35.364C43.8184 35.3502 43.7611 35.3561 43.7107 35.3805C43.6603 35.4049 43.6199 35.4464 43.5965 35.4978C43.573 35.5492 43.5681 35.6073 43.5825 35.662C43.5969 35.7167 43.6297 35.7646 43.6753 35.7973L55.2658 44.3105C55.2074 44.3417 55.1547 44.3828 55.1102 44.4321L50.5487 49.36C50.5092 49.4027 50.46 49.435 50.4054 49.4543C50.3508 49.4737 50.2924 49.4793 50.2352 49.4709C50.178 49.4625 50.1236 49.4402 50.0767 49.406C50.0299 49.3717 49.9918 49.3265 49.9659 49.2742L43.2775 35.7261C43.2476 35.6649 43.2353 35.5964 43.2419 35.5285C43.2486 35.4605 43.274 35.3958 43.3152 35.3417C43.3564 35.2877 43.4118 35.2464 43.4751 35.2227C43.5383 35.1989 43.6069 35.1936 43.6729 35.2074L43.8947 35.2545L60.5556 38.7885C60.6218 38.8026 60.6827 38.8352 60.7313 38.8827C60.78 38.9302 60.8145 38.9906 60.8308 39.057C60.8472 39.1235 60.8447 39.1932 60.8237 39.2582C60.8027 39.3233 60.7641 39.3811 60.7122 39.4249L60.7122 39.4249Z" fill="#CCCCCC"/>
<path d="M60.6054 38.5508L43.9392 35.0156L43.7226 34.9697C43.6123 34.9462 43.4977 34.9546 43.3919 34.9941C43.2862 35.0335 43.1935 35.1024 43.1247 35.1928C43.0559 35.2832 43.0136 35.3914 43.0029 35.505C42.9921 35.6186 43.0132 35.733 43.0638 35.835L49.7522 49.3831C49.7954 49.4702 49.8587 49.5454 49.9367 49.6025C50.0147 49.6596 50.1051 49.6969 50.2003 49.7112C50.2958 49.7257 50.3934 49.7164 50.4845 49.6841C50.5757 49.6519 50.6577 49.5976 50.7235 49.5261L55.285 44.5982C55.3175 44.5623 55.3569 44.5335 55.4009 44.5138C55.4448 44.494 55.4923 44.4837 55.5404 44.4834C55.6058 44.4821 55.6702 44.4988 55.7269 44.5317C55.7836 44.5647 55.8304 44.6126 55.8623 44.6704L56.8129 46.4254C56.8736 46.5425 56.9712 46.6356 57.0902 46.6899C57.2092 46.7443 57.3428 46.7568 57.4696 46.7254L57.4743 46.7243C57.6027 46.696 57.718 46.6247 57.8016 46.5221C57.8851 46.4194 57.9322 46.2912 57.9352 46.1582L58.0997 42.0927C58.1016 42.042 58.1138 41.9922 58.1356 41.9465C58.1589 41.9012 58.1907 41.8609 58.2293 41.8279L60.8645 39.6111C60.9511 39.5383 61.0157 39.4422 61.0509 39.3338C61.086 39.2255 61.0903 39.1094 61.0633 38.9987C61.0362 38.888 60.9789 38.7873 60.8979 38.7081C60.817 38.6288 60.7156 38.5743 60.6054 38.5508V38.5508ZM60.7122 39.4249L58.0769 41.6417C58.0426 41.6701 58.0115 41.7022 57.9843 41.7376C57.9597 41.7691 57.9386 41.8032 57.9211 41.8392C57.9029 41.8761 57.8886 41.9148 57.8784 41.9547L57.8787 41.9559C57.8679 41.9975 57.8619 42.0402 57.8606 42.0831L57.6961 46.1486C57.695 46.2286 57.667 46.3057 57.6169 46.3674C57.5667 46.4292 57.4973 46.4717 57.42 46.4882L57.4177 46.4887C57.3416 46.5084 57.2611 46.5014 57.1894 46.4689C57.1177 46.4365 57.059 46.3805 57.0226 46.31L56.0718 44.5537C56.0229 44.4634 55.9519 44.3872 55.8657 44.3325C55.7794 44.2777 55.6808 44.2461 55.5792 44.2408L55.578 44.2411C55.5644 44.2405 55.5507 44.2399 55.5374 44.2405C55.4426 44.2411 55.3493 44.2651 55.2658 44.3105C55.2074 44.3417 55.1548 44.3828 55.1102 44.4321L50.5487 49.36C50.5092 49.4027 50.46 49.435 50.4054 49.4543C50.3508 49.4737 50.2924 49.4793 50.2352 49.4709C50.178 49.4625 50.1236 49.4402 50.0767 49.406C50.0299 49.3717 49.9918 49.3265 49.9659 49.2742L43.2775 35.7261C43.2476 35.6649 43.2353 35.5964 43.2419 35.5285C43.2486 35.4605 43.274 35.3958 43.3152 35.3417C43.3564 35.2877 43.4118 35.2464 43.4751 35.2227C43.5383 35.1989 43.6069 35.1936 43.6729 35.2074L43.8947 35.2545L60.5556 38.7885C60.6218 38.8026 60.6827 38.8352 60.7313 38.8827C60.78 38.9302 60.8145 38.9906 60.8308 39.057C60.8472 39.1235 60.8447 39.1932 60.8237 39.2582C60.8027 39.3233 60.7641 39.3811 60.7122 39.4249L60.7122 39.4249Z" fill="#3F3D56"/>
<path d="M58.0376 41.7614L57.94 41.9828L57.8787 41.9559L57.8784 41.9547L43.8166 35.6007L55.5781 44.2411L55.5792 44.2408L55.6104 44.2647L55.4703 44.4611L55.2658 44.3105L43.6754 35.7973C43.6298 35.7646 43.597 35.7167 43.5826 35.662C43.5682 35.6073 43.5731 35.5492 43.5965 35.4978C43.6199 35.4464 43.6603 35.4049 43.7107 35.3805C43.7612 35.3561 43.8184 35.3502 43.8727 35.364C43.886 35.3672 43.8989 35.3718 43.9113 35.3775L57.9843 41.7376L58.0376 41.7614Z" fill="#3F3D56"/>
<path d="M94.2214 58.6994L94.8296 64.72L94.8416 64.8436L95.0223 66.6291L96.5069 81.3297V81.3321L96.7954 84.1843C96.6827 84.3375 96.583 84.5001 96.4973 84.6703C96.2358 85.1929 96.1079 85.7735 96.1255 86.3591C96.1431 86.9446 96.3055 87.5163 96.5979 88.0218C97.3221 87.8376 98.0365 87.6275 98.7408 87.3915C100.198 86.9063 101.619 86.3165 102.993 85.6267C102.85 84.8304 102.44 84.1087 101.831 83.5843L100.34 65.4521L100.21 63.8618L99.7848 58.6994H94.2214Z" fill="#FFB8B8"/>
<path d="M98.4842 42.3015C101.558 39.1892 101.558 34.1433 98.4842 31.031C95.4103 27.9188 90.4264 27.9188 87.3524 31.0311C84.2785 34.1433 84.2785 39.1892 87.3524 42.3015C90.4264 45.4137 95.4103 45.4137 98.4842 42.3015Z" fill="#FFB8B8"/>
<path d="M78.247 69.5588C78.2482 69.5746 78.2494 69.5903 78.2506 69.6049C78.2768 69.9158 78.4004 70.21 78.6036 70.4447C78.8067 70.6793 79.0786 70.8421 79.3796 70.9091L91.1266 73.5067C91.2284 73.5292 91.3324 73.5406 91.4367 73.5406C91.7518 73.5405 92.0581 73.4357 92.3087 73.2424C92.5594 73.0491 92.7405 72.7779 92.8242 72.4703C92.8494 72.3758 92.8769 72.2788 92.9068 72.1782V72.177C93.3031 70.8146 94.0107 68.96 95.0223 66.6291C95.251 66.1018 95.4956 65.5495 95.7562 64.9721C95.8041 64.8655 95.8531 64.7576 95.9011 64.6497C96.4386 63.4679 97.0384 62.1887 97.7005 60.8121C98.0244 60.1393 98.2691 59.4301 98.4295 58.6994C98.856 56.7703 98.6876 54.7552 97.9471 52.9261C97.7963 52.5537 97.6223 52.1914 97.4263 51.8412C96.6531 50.4612 95.5576 49.2942 94.2356 48.4424C92.9135 47.5905 91.4054 47.0799 89.8432 46.9552C89.5953 46.9346 89.3488 46.9249 89.1009 46.9249C86.6221 46.9359 84.2429 47.9135 82.4576 49.6546C81.4041 50.6887 80.6042 51.9581 80.1218 53.3612C80.0907 53.4497 80.062 53.5394 80.0333 53.6291C79.591 55.0487 79.2359 56.4947 78.9701 57.9588C78.8109 58.8279 78.6816 59.6849 78.5774 60.52C78.2123 63.5178 78.1018 66.5418 78.247 69.5588Z" fill="#F9A826"/>
<path d="M73.0739 84.7879C80.2106 88.8948 88.6379 90.0534 96.5978 88.0218C97.3221 87.8376 98.0365 87.6275 98.7408 87.3915C98.1159 85.3285 97.3699 83.3051 96.5069 81.3321V81.3297C95.0678 78.063 93.7461 76.0643 93.102 75.1818C92.9961 75.0357 92.9264 74.866 92.8987 74.6869C92.871 74.5078 92.8861 74.3247 92.9427 74.1527L93.1427 73.5455C93.2188 73.3157 93.2371 73.0703 93.1959 72.8316C93.1547 72.5928 93.0554 72.3683 92.9068 72.1782V72.177C92.8937 72.16 92.8793 72.143 92.8649 72.1261C87.6319 66.0897 78.5092 69.383 78.417 69.417L78.3715 69.434L78.3428 69.4739C78.3116 69.5176 78.2806 69.56 78.2506 69.6049C75.7772 73.1139 74.1334 78.5079 73.0739 84.7879Z" fill="#2F2E41"/>
<path d="M62.3175 45.9235C62.3568 46.0986 62.3824 46.2766 62.3942 46.4557L76.1612 54.4968L79.5075 52.5464L83.0748 57.2747L77.4823 61.3104C77.0305 61.6364 76.4864 61.8052 75.9318 61.7916C75.3771 61.7779 74.8418 61.5824 74.4063 61.2345L60.2101 49.8955C59.5694 50.1356 58.8717 50.1726 58.2098 50.0014C57.5479 49.8303 56.9531 49.4592 56.5046 48.9374C56.0561 48.4157 55.7751 47.7681 55.699 47.0807C55.6229 46.3934 55.7553 45.6988 56.0786 45.0895C56.4019 44.4802 56.9008 43.985 57.5088 43.6697C58.1169 43.3544 58.8053 43.2341 59.4826 43.3246C60.1599 43.4151 60.7939 43.7123 61.3003 44.1766C61.8067 44.6408 62.1615 45.2502 62.3175 45.9235Z" fill="#FFB8B8"/>
<path d="M76.3722 54.3733V54.3745C76.4221 54.557 76.5067 54.7279 76.6212 54.8776L78.9701 57.9588L80.0895 59.4291L81.0713 60.7164C81.1978 60.8825 81.3582 61.019 81.5416 61.1167C81.725 61.2144 81.927 61.2709 82.1339 61.2824C82.3408 61.2939 82.5477 61.2601 82.7406 61.1834C82.9334 61.1066 83.1076 60.9887 83.2514 60.8376L86.8166 57.0897L88.288 55.5418C89.124 54.8814 89.6672 53.9122 89.7985 52.8468C89.9298 51.7815 89.6384 50.7069 88.9883 49.8587C88.3382 49.0105 87.3825 48.458 86.3306 48.3222C85.2787 48.1865 84.2165 48.4786 83.3771 49.1345L82.4576 49.6545L77.0594 52.7115C76.7781 52.8712 76.5577 53.1215 76.4332 53.4226C76.3087 53.7238 76.2872 54.0584 76.3722 54.3733H76.3722Z" fill="#F9A826"/>
<path d="M91.9431 56.3055L92.1682 63.5842L92.1694 63.6303C92.1757 63.8401 92.2267 64.0461 92.3189 64.2341C92.411 64.4222 92.5421 64.5879 92.7033 64.7199C92.8644 64.852 93.0518 64.9474 93.2526 64.9995C93.4535 65.0516 93.663 65.0592 93.867 65.0218L94.8416 64.8436L95.0906 64.7976H95.0918L95.9011 64.6497L100.21 63.8618L101.035 63.7115C101.239 63.674 101.432 63.5925 101.602 63.4725C101.772 63.3526 101.914 63.197 102.02 63.0163C102.125 62.8357 102.191 62.6342 102.212 62.4256C102.234 62.2169 102.211 62.0061 102.145 61.8073L99.8208 54.8412C99.6265 53.786 99.0268 52.8519 98.1533 52.2436C97.2797 51.6353 96.2036 51.4026 95.1608 51.5964C94.1181 51.7902 93.1938 52.3948 92.5906 53.2775C91.9874 54.1603 91.7546 55.2492 91.9431 56.3055Z" fill="#F9A826"/>
<path d="M91.6725 34.8332C89.6494 36.2351 86.993 37.6762 84.9267 36.1833C83.5699 35.203 83.1425 33.3878 83.6927 31.7948C84.6821 28.9302 87.4004 27.669 89.9999 26.7023C93.3792 25.4456 97.0587 24.4459 100.547 25.3459C104.036 26.2459 107.119 29.6655 106.489 33.2542C105.983 36.1402 103.294 38.5415 103.676 41.447C104.06 44.3712 107.308 45.9104 110.176 46.4331C113.043 46.9557 116.252 47.1236 118.313 49.209C120.942 51.8693 120.285 56.6243 117.812 59.433C115.338 62.2417 111.605 63.5149 107.988 64.3804C103.195 65.5272 98.0113 66.1298 93.4595 64.2267C88.9077 62.3235 85.3655 57.2004 86.6841 52.3965C87.2411 50.3673 88.5531 48.6524 89.8211 46.9828C91.0892 45.3133 92.3732 43.5674 92.8569 41.5191C93.2599 39.8121 92.9616 37.8302 91.8436 36.5498C91.6402 36.3257 91.5122 36.0421 91.478 35.7397C91.4438 35.4374 91.5051 35.1318 91.6531 34.8669L91.6725 34.8332Z" fill="#2F2E41"/>
</g>
<defs>
<filter id="filter0_d_735_16" x="0" y="0" width="165" height="162" filterUnits="userSpaceOnUse" color-interpolation-filters="sRGB">
<feFlood flood-opacity="0" result="BackgroundImageFix"/>
<feColorMatrix in="SourceAlpha" type="matrix" values="0 0 0 0 0 0 0 0 0 0 0 0 0 0 0 0 0 0 127 0" result="hardAlpha"/>
<feOffset dy="4"/>
<feGaussianBlur stdDeviation="2"/>
<feComposite in2="hardAlpha" operator="out"/>
<feColorMatrix type="matrix" values="0 0 0 0 0 0 0 0 0 0 0 0 0 0 0 0 0 0 0.25 0"/>
<feBlend mode="normal" in2="BackgroundImageFix" result="effect1_dropShadow_735_16"/>
<feBlend mode="normal" in="SourceGraphic" in2="effect1_dropShadow_735_16" result="shape"/>
</filter>
<filter id="filter1_d_735_16" x="39" y="25" width="85" height="72" filterUnits="userSpaceOnUse" color-interpolation-filters="sRGB">
<feFlood flood-opacity="0" result="BackgroundImageFix"/>
<feColorMatrix in="SourceAlpha" type="matrix" values="0 0 0 0 0 0 0 0 0 0 0 0 0 0 0 0 0 0 127 0" result="hardAlpha"/>
<feOffset dy="4"/>
<feGaussianBlur stdDeviation="2"/>
<feComposite in2="hardAlpha" operator="out"/>
<feColorMatrix type="matrix" values="0 0 0 0 0 0 0 0 0 0 0 0 0 0 0 0 0 0 0.25 0"/>
<feBlend mode="normal" in2="BackgroundImageFix" result="effect1_dropShadow_735_16"/>
<feBlend mode="normal" in="SourceGraphic" in2="effect1_dropShadow_735_16" result="shape"/>
</filter>
<clipPath id="clip0_735_16">
<rect width="77" height="64" fill="white" transform="translate(43 25)"/>
</clipPath>
</defs>
</svg>
