<svg width="165" height="162" viewBox="0 0 165 162" fill="none" xmlns="http://www.w3.org/2000/svg">
<g filter="url(#filter0_d_735_15)">
<path d="M159 77C159 118.385 124.786 152 82.5 152C40.2137 152 6 118.385 6 77C6 35.6148 40.2137 2 82.5 2C124.786 2 159 35.6148 159 77Z" fill="white" stroke="#F9A826" stroke-width="4"/>
<path d="M40.9641 118V104.909H45.5408C46.4528 104.909 47.2049 105.067 47.7972 105.382C48.3896 105.693 48.8306 106.113 49.1204 106.641C49.4102 107.165 49.555 107.747 49.555 108.386C49.555 108.949 49.4549 109.413 49.2546 109.78C49.0586 110.146 48.7987 110.436 48.4748 110.649C48.1552 110.862 47.8079 111.02 47.4329 111.122V111.25C47.8335 111.276 48.2362 111.416 48.641 111.672C49.0458 111.928 49.3846 112.294 49.6573 112.771C49.93 113.249 50.0664 113.832 50.0664 114.523C50.0664 115.179 49.9173 115.769 49.619 116.293C49.3207 116.817 48.8498 117.233 48.2063 117.54C47.5629 117.847 46.7255 118 45.6942 118H40.9641ZM42.5494 116.594H45.6942C46.7298 116.594 47.4648 116.393 47.8995 115.993C48.3384 115.588 48.5579 115.098 48.5579 114.523C48.5579 114.08 48.445 113.67 48.2191 113.295C47.9933 112.916 47.6715 112.614 47.2539 112.388C46.8363 112.158 46.342 112.043 45.771 112.043H42.5494V116.594ZM42.5494 110.662H45.4897C45.967 110.662 46.3974 110.568 46.7809 110.381C47.1687 110.193 47.4755 109.929 47.7013 109.588C47.9315 109.247 48.0465 108.847 48.0465 108.386C48.0465 107.811 47.8462 107.323 47.4457 106.923C47.0451 106.518 46.4102 106.315 45.5408 106.315H42.5494V110.662ZM52.4666 118V108.182H53.9751V118H52.4666ZM53.2337 106.545C52.9396 106.545 52.6861 106.445 52.473 106.245C52.2642 106.045 52.1598 105.804 52.1598 105.523C52.1598 105.241 52.2642 105.001 52.473 104.8C52.6861 104.6 52.9396 104.5 53.2337 104.5C53.5277 104.5 53.7791 104.6 53.9879 104.8C54.201 105.001 54.3075 105.241 54.3075 105.523C54.3075 105.804 54.201 106.045 53.9879 106.245C53.7791 106.445 53.5277 106.545 53.2337 106.545ZM60.8546 118.205C59.9086 118.205 59.0925 117.996 58.4064 117.578C57.7246 117.156 57.1983 116.568 56.8276 115.814C56.4611 115.055 56.2779 114.173 56.2779 113.168C56.2779 112.162 56.4611 111.276 56.8276 110.509C57.1983 109.737 57.714 109.136 58.3745 108.706C59.0392 108.271 59.8148 108.054 60.7012 108.054C61.2125 108.054 61.7175 108.139 62.2161 108.31C62.7147 108.48 63.1685 108.757 63.5776 109.141C63.9867 109.52 64.3127 110.023 64.5556 110.649C64.7985 111.276 64.9199 112.047 64.9199 112.963V113.602H57.3517V112.298H63.3858C63.3858 111.744 63.275 111.25 63.0534 110.815C62.8361 110.381 62.525 110.038 62.1202 109.786C61.7196 109.535 61.2466 109.409 60.7012 109.409C60.1003 109.409 59.5804 109.558 59.1415 109.857C58.7069 110.151 58.3723 110.534 58.138 111.007C57.9036 111.48 57.7864 111.987 57.7864 112.528V113.398C57.7864 114.139 57.9142 114.768 58.1699 115.283C58.4299 115.795 58.79 116.185 59.2502 116.453C59.7104 116.717 60.2452 116.849 60.8546 116.849C61.2509 116.849 61.6088 116.794 61.9284 116.683C62.2523 116.568 62.5314 116.398 62.7658 116.172C63.0002 115.942 63.1813 115.656 63.3091 115.315L64.7665 115.724C64.6131 116.219 64.3553 116.653 63.9931 117.028C63.6309 117.399 63.1834 117.689 62.6507 117.898C62.1181 118.102 61.5194 118.205 60.8546 118.205ZM68.7232 112.094V118H67.2147V108.182H68.6721V109.716H68.7999C69.03 109.217 69.3794 108.817 69.8482 108.514C70.3169 108.207 70.9221 108.054 71.6635 108.054C72.3283 108.054 72.91 108.19 73.4086 108.463C73.9071 108.732 74.2949 109.141 74.5719 109.69C74.8489 110.236 74.9874 110.926 74.9874 111.761V118H73.4789V111.864C73.4789 111.092 73.2786 110.491 72.878 110.061C72.4775 109.626 71.9277 109.409 71.2289 109.409C70.7473 109.409 70.3169 109.513 69.9377 109.722C69.5627 109.931 69.2665 110.236 69.0492 110.636C68.8319 111.037 68.7232 111.523 68.7232 112.094ZM85.4208 108.182L81.7901 118H80.256L76.6254 108.182H78.2617L80.9719 116.006H81.0742L83.7844 108.182H85.4208ZM91.1768 118.205C90.2308 118.205 89.4148 117.996 88.7287 117.578C88.0469 117.156 87.5206 116.568 87.1499 115.814C86.7834 115.055 86.6001 114.173 86.6001 113.168C86.6001 112.162 86.7834 111.276 87.1499 110.509C87.5206 109.737 88.0362 109.136 88.6967 108.706C89.3615 108.271 90.1371 108.054 91.0234 108.054C91.5348 108.054 92.0398 108.139 92.5384 108.31C93.0369 108.48 93.4908 108.757 93.8999 109.141C94.3089 109.52 94.6349 110.023 94.8778 110.649C95.1207 111.276 95.2422 112.047 95.2422 112.963V113.602H87.674V112.298H93.7081C93.7081 111.744 93.5973 111.25 93.3757 110.815C93.1584 110.381 92.8473 110.038 92.4425 109.786C92.0419 109.535 91.5689 109.409 91.0234 109.409C90.4226 109.409 89.9027 109.558 89.4638 109.857C89.0291 110.151 88.6946 110.534 88.4602 111.007C88.2259 111.48 88.1087 111.987 88.1087 112.528V113.398C88.1087 114.139 88.2365 114.768 88.4922 115.283C88.7521 115.795 89.1122 116.185 89.5724 116.453C90.0327 116.717 90.5675 116.849 91.1768 116.849C91.5732 116.849 91.9311 116.794 92.2507 116.683C92.5746 116.568 92.8537 116.398 93.0881 116.172C93.3224 115.942 93.5036 115.656 93.6314 115.315L95.0888 115.724C94.9354 116.219 94.6776 116.653 94.3153 117.028C93.9531 117.399 93.5057 117.689 92.973 117.898C92.4403 118.102 91.8416 118.205 91.1768 118.205ZM99.0455 112.094V118H97.5369V108.182H98.9943V109.716H99.1222C99.3523 109.217 99.7017 108.817 100.17 108.514C100.639 108.207 101.244 108.054 101.986 108.054C102.651 108.054 103.232 108.19 103.731 108.463C104.229 108.732 104.617 109.141 104.894 109.69C105.171 110.236 105.31 110.926 105.31 111.761V118H103.801V111.864C103.801 111.092 103.601 110.491 103.2 110.061C102.8 109.626 102.25 109.409 101.551 109.409C101.07 109.409 100.639 109.513 100.26 109.722C99.8849 109.931 99.5888 110.236 99.3714 110.636C99.1541 111.037 99.0455 111.523 99.0455 112.094ZM114.254 113.986V108.182H115.762V118H114.254V116.338H114.151C113.921 116.837 113.563 117.261 113.078 117.61C112.592 117.955 111.978 118.128 111.237 118.128C110.623 118.128 110.078 117.994 109.6 117.725C109.123 117.452 108.748 117.043 108.475 116.498C108.203 115.948 108.066 115.256 108.066 114.42V108.182H109.575V114.318C109.575 115.034 109.775 115.605 110.176 116.031C110.58 116.457 111.096 116.67 111.722 116.67C112.097 116.67 112.479 116.575 112.867 116.383C113.259 116.191 113.587 115.897 113.851 115.501C114.119 115.104 114.254 114.599 114.254 113.986ZM122.642 118.205C121.696 118.205 120.88 117.996 120.194 117.578C119.512 117.156 118.985 116.568 118.615 115.814C118.248 115.055 118.065 114.173 118.065 113.168C118.065 112.162 118.248 111.276 118.615 110.509C118.985 109.737 119.501 109.136 120.162 108.706C120.826 108.271 121.602 108.054 122.488 108.054C123 108.054 123.505 108.139 124.003 108.31C124.502 108.48 124.956 108.757 125.365 109.141C125.774 109.52 126.1 110.023 126.343 110.649C126.586 111.276 126.707 112.047 126.707 112.963V113.602H119.139V112.298H125.173C125.173 111.744 125.062 111.25 124.841 110.815C124.623 110.381 124.312 110.038 123.907 109.786C123.507 109.535 123.034 109.409 122.488 109.409C121.887 109.409 121.368 109.558 120.929 109.857C120.494 110.151 120.159 110.534 119.925 111.007C119.691 111.48 119.574 111.987 119.574 112.528V113.398C119.574 114.139 119.701 114.768 119.957 115.283C120.217 115.795 120.577 116.185 121.037 116.453C121.498 116.717 122.032 116.849 122.642 116.849C123.038 116.849 123.396 116.794 123.716 116.683C124.039 116.568 124.319 116.398 124.553 116.172C124.787 115.942 124.968 115.656 125.096 115.315L126.554 115.724C126.4 116.219 126.142 116.653 125.78 117.028C125.418 117.399 124.971 117.689 124.438 117.898C123.905 118.102 123.306 118.205 122.642 118.205Z" fill="black"/>
<path d="M82.8382 60L75 51.3303L79.5583 48.2806L83.2697 52.3855L95.8074 41L100 44.4171L82.8382 60Z" fill="white"/>
</g>
<g filter="url(#filter1_d_735_15)">
<path d="M66.4675 43.9867C65.9751 44.1786 65.4724 44.3413 64.9617 44.474C64.2872 44.6422 63.9064 44.7202 63.2553 44.4616C63.2325 44.4525 63.2106 44.4436 63.19 44.4347C61.956 43.8978 60.9012 43.0054 60.1538 41.8662C59.4065 40.7269 58.999 39.3899 58.9808 38.0178C58.9775 37.9708 58.9775 37.9213 58.9775 37.873C58.9769 37.6405 58.9878 37.4081 59.0101 37.1767C59.0386 36.8615 59.0879 36.5486 59.1576 36.2401L59.1511 36.2389C58.624 35.6874 58.4212 34.9319 58.4884 34.1728C58.5345 33.6581 58.6941 33.1609 58.9552 32.7186C59.2164 32.2762 59.5722 31.9003 59.996 31.6191C60.6601 31.1918 61.4088 30.9214 62.1879 30.8274C62.3971 30.8027 62.6075 30.7902 62.818 30.79H64.7963C65.2049 30.6921 65.6199 30.6251 66.0381 30.5896H66.0414C70.0229 30.2517 73.1627 32.9527 72.8699 36.2389C72.8677 36.2426 72.8645 36.2462 72.8623 36.2498C72.7777 36.391 72.7029 36.525 72.6367 36.6529C72.5727 36.7724 72.5185 36.887 72.4718 36.9956C72.1085 37.8356 73.8352 50.8678 73.2159 51.0657C72.8634 51.178 71.4426 41.4803 71.6974 43.3244C72.0185 45.638 68.3017 43.2929 66.4675 43.9867Z" fill="#2F2E41"/>
<path d="M72.4653 67.5451L77.9844 79.5767L56.7537 77.3764L61.1855 65.8263L72.4653 67.5451Z" fill="#FFB6B6"/>
<path d="M83.5445 91.6679C79.8526 92.9254 75.962 93.4587 72.0768 93.2397L70.3873 90.436C70.3873 90.436 70.3166 91.4802 70.2111 93.0765C68.3616 92.8571 66.5363 92.4612 64.759 91.8937C61.3885 90.8152 58.229 89.1441 55.0263 87.603C54.3776 83.6461 54.1342 77.5444 57.7206 73.9923L77.0241 77.6119C77.0241 77.6119 80.1212 79.9824 79.2927 80.8314C78.4641 81.6792 78.3358 81.548 78.8802 82.105C79.4246 82.662 80.6008 83.4068 80.6128 83.8939C80.6176 84.0841 81.9378 87.5331 83.5445 91.6679Z" fill="#2F2E41"/>
<path d="M69.0945 44.2958L64.4308 44.6288L61.4165 47.6093L60.3608 47.8021C59.4119 47.9752 58.558 48.4987 57.9612 49.2731C57.3643 50.0476 57.0659 51.0193 57.1226 52.0039C57.3398 55.7685 57.826 61.3935 58.8422 63.2185C60.4179 66.0483 61.7193 65.1604 60.4179 66.0483C59.1164 66.9361 58.2426 66.2385 58.8422 67.6416C59.4417 69.0448 58.0318 70.8446 58.0318 70.8446L57.4705 71.4189L58.0658 71.6686L77.0344 74.1942C77.0344 74.1942 75.3942 66.6482 76.42 64.7945C77.4457 62.9408 79.9327 57.3374 77.7131 55.1449L75.5428 47.3299L71.8097 46.2033L69.0945 44.2958Z" fill="#F9A826"/>
<path d="M97.3259 75.267C97.0138 75.2568 96.7075 75.1775 96.4283 75.0343C96.1492 74.8912 95.9037 74.6877 95.709 74.4379C95.5142 74.1882 95.3748 73.8981 95.3003 73.5878C95.2259 73.2774 95.2182 72.9543 95.2779 72.6406L86.3801 66.4745L87.4418 63.5367L97.9574 70.9394C98.4659 71.0814 98.9058 71.4093 99.1939 71.861C99.4819 72.3127 99.5979 72.8568 99.5201 73.3903C99.4422 73.9237 99.1759 74.4094 98.7715 74.7552C98.367 75.1011 97.8527 75.2832 97.3259 75.267V75.267Z" fill="#FFB6B6"/>
<path d="M72.1941 46.9608L70.9012 47.4847L77.7983 61.2688L92.0765 71.2278L94.1347 67.6683L83.266 58.0618L78.9146 49.5224C78.3023 48.3206 77.2764 47.3937 76.0352 46.9206C74.7941 46.4475 73.4256 46.4618 72.1941 46.9608Z" fill="#F9A826"/>
<path d="M66.52 43.0835C69.1063 43.0835 71.203 40.9381 71.203 38.2916C71.203 35.645 69.1063 33.4996 66.52 33.4996C63.9336 33.4996 61.837 35.645 61.837 38.2916C61.837 40.9381 63.9336 43.0835 66.52 43.0835Z" fill="#FFB6B6"/>
<path d="M70.5923 36.2652C70.5142 36.3073 70.4372 36.3462 70.3591 36.385C70.2777 36.425 70.1964 36.4649 70.114 36.5027C68.5467 37.2296 67.2702 37.3106 66.4958 36.2652C66.4746 35.7151 66.3536 35.174 66.139 34.6692C66.1769 35.2333 66.0316 35.7943 65.7258 36.2652H64.1661C62.5599 37.3561 61.7356 38.3583 62.8506 41.9397C62.9232 42.175 63.421 50.5341 63.5631 51.1767C61.1315 50.2222 59.0339 40.0885 58.9808 37.4183C58.9775 37.375 58.9775 37.3295 58.9775 37.2851C58.9769 37.0712 58.9878 36.8574 59.0101 36.6447C59.0387 36.3544 59.088 36.0665 59.1576 35.7835L59.1511 35.7824C58.9037 35.5404 58.7149 35.2425 58.5999 34.9127C58.4848 34.5828 58.4466 34.23 58.4884 33.8824C58.8963 33.3358 59.4011 32.8728 59.9764 32.5173C60.4996 32.2581 61.0449 32.0485 61.6055 31.8914C61.6196 31.888 61.6315 31.8847 61.6456 31.8814C61.817 31.8336 61.9927 31.7904 62.1684 31.7526C62.5304 31.6749 62.8965 31.6182 63.2649 31.5828C63.292 31.5817 63.318 31.5795 63.3419 31.5795C63.4892 31.5796 63.6338 31.6202 63.7605 31.6971C63.7616 31.6971 63.7616 31.6983 63.7638 31.6983C63.8855 31.7727 63.9865 31.878 64.057 32.0039C64.1274 32.1299 64.165 32.2723 64.1661 32.4174H65.9036C65.9676 32.4174 66.0316 32.4196 66.0956 32.423C68.5153 32.5217 70.4599 33.5805 70.5847 36.0143C70.5901 36.0987 70.5923 36.1808 70.5923 36.2652Z" fill="#2F2E41"/>
<path d="M60.3199 36.4578C62.0238 36.4578 63.4051 35.0444 63.4051 33.3008C63.4051 31.5573 62.0238 30.1438 60.3199 30.1438C58.616 30.1438 57.2347 31.5573 57.2347 33.3008C57.2347 35.0444 58.616 36.4578 60.3199 36.4578Z" fill="#2F2E41"/>
<path d="M64.5555 31.8406C64.205 33.5469 62.4758 34.5674 60.8214 34.1499C60.027 33.9495 59.3429 33.4343 58.9197 32.7177C58.4964 32.0011 58.3687 31.1418 58.5646 30.3289C58.9726 28.6361 60.9803 29.1241 62.2987 28.0196C64.1638 26.4571 65.0282 29.5396 64.5555 31.8406Z" fill="#2F2E41"/>
<path d="M57.7007 79.3365C60.3301 68.3642 65.5401 58.9332 74.1686 51.5442C74.5025 50.982 75.0407 50.5784 75.6651 50.4218C76.2895 50.2652 76.9491 50.3685 77.4992 50.7089L98.0112 63.4352C98.5605 63.777 98.955 64.3277 99.108 64.9666C99.261 65.6055 99.1601 66.2805 98.8274 66.8434C95.5341 78.1022 90.6014 87.872 82.3596 94.6358C82.0257 95.1979 81.4875 95.6015 80.8631 95.7581C80.2387 95.9147 79.5791 95.8115 79.029 95.471L58.517 82.7447C57.9677 82.403 57.5732 81.8523 57.4202 81.2133C57.2671 80.5744 57.368 79.8994 57.7007 79.3365Z" fill="#F2F2F2"/>
<path opacity="0.2" d="M61.3465 83.0344C60.7972 82.6927 60.4027 82.1419 60.2497 81.503C60.0967 80.8641 60.1976 80.1891 60.5303 79.6262C63.1597 68.6538 68.3697 59.2229 76.9981 51.8338C77.2191 51.4659 77.5313 51.1642 77.9028 50.9593L77.4992 50.7089C76.9491 50.3684 76.2895 50.2652 75.6651 50.4218C75.0407 50.5784 74.5025 50.982 74.1686 51.5441C65.5402 58.9331 60.3302 68.3641 57.7007 79.3365C57.3681 79.8994 57.2672 80.5743 57.4202 81.2133C57.5732 81.8522 57.9677 82.4029 58.517 82.7446L79.029 95.471C79.394 95.6958 79.8107 95.8178 80.2367 95.8247C80.6628 95.8316 81.083 95.7232 81.4548 95.5103L61.3465 83.0344Z" fill="black"/>
<path d="M85.4018 76.9041L71.6332 68.4149C71.4145 68.2796 71.2572 68.0611 71.1958 67.8072C71.1344 67.5533 71.174 67.2849 71.3059 67.0608C71.4378 66.8368 71.6512 66.6756 71.8993 66.6124C72.1473 66.5493 72.4097 66.5895 72.6288 66.7242L86.3973 75.2134C86.6156 75.3489 86.7724 75.5674 86.8334 75.821C86.8945 76.0747 86.8548 76.3427 86.723 76.5664C86.5913 76.7902 86.3783 76.9513 86.1306 77.0146C85.8829 77.0779 85.6209 77.0381 85.4018 76.9041L85.4018 76.9041Z" fill="white"/>
<path d="M77.3921 65.6466L74.363 63.779C74.1435 63.6446 73.9852 63.4265 73.9228 63.1726C73.8604 62.9188 73.8992 62.65 74.0305 62.4253C74.1618 62.2007 74.375 62.0387 74.6231 61.9748C74.8711 61.911 75.1338 61.9507 75.3534 62.0851L75.3586 62.0883L78.3877 63.9559C78.6059 64.0914 78.7628 64.3099 78.8239 64.5636C78.885 64.8172 78.8453 65.0853 78.7135 65.3091C78.5818 65.5328 78.3687 65.694 78.121 65.7573C77.8733 65.8206 77.6112 65.7807 77.3921 65.6466Z" fill="white"/>
<path d="M83.2135 80.6204L69.4449 72.1312C69.226 71.9963 69.0683 71.7779 69.0066 71.524C68.9448 71.2702 68.9841 71.0017 69.1158 70.7774C69.2475 70.5532 69.4608 70.3917 69.7088 70.3283C69.9568 70.2649 70.2193 70.3048 70.4385 70.4393L70.4405 70.4405L84.209 78.9297C84.4273 79.0652 84.5841 79.2838 84.6451 79.5374C84.7062 79.791 84.6665 80.059 84.5347 80.2828C84.403 80.5065 84.19 80.6677 83.9423 80.731C83.6946 80.7942 83.4326 80.7545 83.2135 80.6204L83.2135 80.6204Z" fill="white"/>
<path d="M87.1503 60.8975C89.3714 60.8975 91.1719 59.0551 91.1719 56.7824C91.1719 54.5096 89.3714 52.6672 87.1503 52.6672C84.9293 52.6672 83.1288 54.5096 83.1288 56.7824C83.1288 59.0551 84.9293 60.8975 87.1503 60.8975Z" fill="#3F3D56"/>
<path d="M80.2183 100.877C84.9654 100.877 88.8137 96.9394 88.8137 92.0818C88.8137 87.2242 84.9654 83.2863 80.2183 83.2863C75.4712 83.2863 71.6229 87.2242 71.6229 92.0818C71.6229 96.9394 75.4712 100.877 80.2183 100.877Z" fill="white"/>
<path d="M80.2183 101C78.4946 101 76.8095 100.477 75.3763 99.497C73.9431 98.5171 72.826 97.1243 72.1664 95.4947C71.5067 93.8651 71.3341 92.072 71.6704 90.342C72.0067 88.6121 72.8367 87.023 74.0556 85.7758C75.2744 84.5285 76.8274 83.6792 78.518 83.335C80.2086 82.9909 81.9609 83.1675 83.5534 83.8425C85.146 84.5175 86.5071 85.6605 87.4648 87.1271C88.4224 88.5937 88.9336 90.3179 88.9336 92.0818C88.931 94.4462 88.0119 96.713 86.3781 98.3849C84.7442 100.057 82.5289 100.997 80.2183 101ZM80.2183 83.4091C78.542 83.4091 76.9033 83.9177 75.5095 84.8707C74.1157 85.8237 73.0294 87.1782 72.3879 88.7629C71.7464 90.3477 71.5786 92.0915 71.9056 93.7738C72.2327 95.4562 73.0399 97.0015 74.2252 98.2144C75.4105 99.4273 76.9207 100.253 78.5648 100.588C80.2089 100.923 81.913 100.751 83.4617 100.094C85.0104 99.438 86.3341 98.3264 87.2654 96.9001C88.1967 95.4739 88.6938 93.7971 88.6938 92.0818C88.6912 89.7824 87.7975 87.578 86.2085 85.9521C84.6196 84.3262 82.4653 83.4116 80.2183 83.4091Z" fill="#3F3D56"/>
<path d="M79.0457 96.6595C78.8972 96.6595 78.7509 96.6241 78.6181 96.5561C78.4853 96.4882 78.3699 96.3896 78.2809 96.268L75.9359 93.0686C75.8604 92.9658 75.8055 92.8488 75.7743 92.7243C75.743 92.5998 75.736 92.4702 75.7538 92.3429C75.7715 92.2157 75.8135 92.0932 75.8775 91.9826C75.9415 91.872 76.0262 91.7753 76.1267 91.6982C76.2272 91.6211 76.3415 91.565 76.4632 91.5331C76.5849 91.5012 76.7116 91.4942 76.836 91.5125C76.9603 91.5307 77.0799 91.5738 77.188 91.6394C77.296 91.705 77.3904 91.7917 77.4657 91.8946L78.9998 93.9876L82.9401 87.9397C83.0098 87.8328 83.0993 87.741 83.2036 87.6695C83.308 87.598 83.425 87.5482 83.5482 87.523C83.6713 87.4978 83.798 87.4977 83.9212 87.5226C84.0444 87.5476 84.1616 87.5971 84.266 87.6684C84.3705 87.7396 84.4602 87.8313 84.5301 87.938C84.6 88.0448 84.6486 88.1646 84.6732 88.2905C84.6979 88.4165 84.698 88.5462 84.6736 88.6723C84.6493 88.7983 84.6009 88.9182 84.5312 89.0251L79.8413 96.2237C79.7565 96.3539 79.6424 96.4614 79.5086 96.5372C79.3748 96.6129 79.2251 96.6547 79.0723 96.6591C79.0634 96.6593 79.0546 96.6595 79.0457 96.6595Z" fill="#F9A826"/>
<path d="M107.977 47.5104C108.319 47.4805 108.579 47.2592 108.559 47.016C108.539 46.7729 108.245 46.6 107.904 46.6299C107.562 46.6598 107.302 46.8811 107.322 47.1243C107.342 47.3674 107.636 47.5403 107.977 47.5104Z" fill="white"/>
<path d="M111.82 46.1764C112.162 46.1465 112.422 45.9252 112.402 45.6821C112.382 45.4389 112.088 45.266 111.747 45.2959C111.405 45.3258 111.145 45.5471 111.165 45.7903C111.185 46.0334 111.479 46.2063 111.82 46.1764Z" fill="#3F3D56"/>
<path d="M106.156 44.5102C106.497 44.4803 106.758 44.259 106.737 44.0158C106.717 43.7727 106.424 43.5998 106.082 43.6297C105.74 43.6596 105.48 43.8809 105.5 44.124C105.521 44.3672 105.814 44.5401 106.156 44.5102Z" fill="#FF6584"/>
<path d="M104.544 43.5434C104.691 43.5094 104.771 43.3066 104.723 43.0903C104.676 42.8741 104.518 42.7263 104.371 42.7603C104.224 42.7943 104.143 42.9972 104.191 43.2134C104.239 43.4297 104.397 43.5774 104.544 43.5434Z" fill="#E6E6E6"/>
<path d="M103.396 41.1965C103.543 41.1625 103.623 40.9596 103.576 40.7434C103.528 40.5271 103.37 40.3794 103.223 40.4134C103.076 40.4474 102.995 40.6502 103.043 40.8665C103.091 41.0827 103.249 41.2304 103.396 41.1965Z" fill="#3F3D56"/>
<path d="M108.902 44.4924C109.049 44.4584 109.13 44.2556 109.082 44.0393C109.034 43.8231 108.877 43.6753 108.729 43.7093C108.582 43.7433 108.502 43.9462 108.55 44.1624C108.598 44.3787 108.755 44.5264 108.902 44.4924Z" fill="#E6E6E6"/>
<path d="M107.224 45.9183C107.371 45.8843 107.451 45.6814 107.404 45.4652C107.356 45.249 107.198 45.1012 107.051 45.1352C106.904 45.1692 106.823 45.372 106.871 45.5883C106.919 45.8045 107.077 45.9523 107.224 45.9183Z" fill="#FF6584"/>
<path d="M110.28 47.0797C110.427 47.0457 110.507 46.8428 110.459 46.6266C110.412 46.4103 110.254 46.2626 110.107 46.2966C109.96 46.3306 109.879 46.5334 109.927 46.7497C109.975 46.9659 110.133 47.1137 110.28 47.0797Z" fill="#3F3D56"/>
<path d="M92.1107 29.3301C92.1693 29.0936 91.9474 28.832 91.6151 28.7458C91.2828 28.6596 90.966 28.7815 90.9074 29.0181C90.8488 29.2546 91.0707 29.5162 91.403 29.6024C91.7353 29.6886 92.0522 29.5667 92.1107 29.3301Z" fill="white"/>
<path d="M88.0527 29.3034C88.1113 29.0668 87.8894 28.8052 87.5571 28.719C87.2248 28.6329 86.9079 28.7548 86.8494 28.9913C86.7908 29.2279 87.0127 29.4895 87.345 29.5756C87.6773 29.6618 87.9941 29.5399 88.0527 29.3034Z" fill="#3F3D56"/>
<path d="M92.8722 32.7753C92.9308 32.5387 92.7089 32.2771 92.3766 32.1909C92.0443 32.1048 91.7275 32.2267 91.6689 32.4632C91.6103 32.6998 91.8322 32.9614 92.1645 33.0475C92.4968 33.1337 92.8137 33.0118 92.8722 32.7753Z" fill="#FF6584"/>
<path d="M93.8182 34.0743C93.8423 33.854 93.7404 33.6615 93.5906 33.6444C93.4408 33.6272 93.2999 33.792 93.2758 34.0123C93.2517 34.2326 93.3537 34.4251 93.5034 34.4422C93.6532 34.4594 93.7942 34.2946 93.8182 34.0743Z" fill="#E6E6E6"/>
<path d="M94.1519 36.6764C94.1759 36.4561 94.074 36.2636 93.9242 36.2465C93.7745 36.2294 93.6335 36.3941 93.6095 36.6144C93.5854 36.8347 93.6873 37.0272 93.8371 37.0443C93.9869 37.0615 94.1278 36.8967 94.1519 36.6764Z" fill="#3F3D56"/>
<path d="M90.0031 31.7176C90.0272 31.4972 89.9253 31.3047 89.7755 31.2876C89.6257 31.2705 89.4848 31.4352 89.4607 31.6555C89.4367 31.8759 89.5386 32.0684 89.6884 32.0855C89.8382 32.1026 89.9791 31.9379 90.0031 31.7176Z" fill="#E6E6E6"/>
<path d="M92.0454 30.9325C92.0694 30.7122 91.9675 30.5197 91.8177 30.5026C91.6679 30.4854 91.527 30.6502 91.5029 30.8705C91.4789 31.0908 91.5808 31.2833 91.7306 31.3004C91.8804 31.3175 92.0213 31.1528 92.0454 30.9325Z" fill="#FF6584"/>
<path d="M89.5295 28.8115C89.5535 28.5912 89.4516 28.3987 89.3018 28.3816C89.152 28.3645 89.0111 28.5292 88.987 28.7495C88.963 28.9698 89.0649 29.1623 89.2147 29.1794C89.3645 29.1966 89.5054 29.0318 89.5295 28.8115Z" fill="#3F3D56"/>
<path d="M58.9797 79.4527C58.6732 79.3242 58.3977 79.1291 58.1721 78.881C57.9466 78.6328 57.7764 78.3374 57.6734 78.0153C57.5703 77.6932 57.5369 77.352 57.5754 77.0154C57.6139 76.6787 57.7234 76.3547 57.8963 76.0656L51.2889 66.5615L53.4086 64.045L61.1757 75.3919C61.6295 75.726 61.9479 76.2188 62.0704 76.777C62.1929 77.3351 62.111 77.9199 61.8404 78.4204C61.5697 78.921 61.129 79.3025 60.6017 79.4928C60.0745 79.6831 59.4974 79.6688 58.9797 79.4527H58.9797Z" fill="#FFB6B6"/>
<path d="M59.1315 49.3344C58.7973 49.1331 58.4038 49.0603 58.0219 49.1292C57.6399 49.198 57.2944 49.4038 57.0474 49.7098L48.1199 62.486L56.3934 74.5102L59.6308 70.952L54.5948 62.8541L61.2877 56.3334C61.8377 55.1004 61.9217 53.7027 61.5235 52.41C61.1253 51.1174 60.2731 50.0217 59.1315 49.3344Z" fill="#F9A826"/>
</g>
<defs>
<filter id="filter0_d_735_15" x="0" y="0" width="165" height="162" filterUnits="userSpaceOnUse" color-interpolation-filters="sRGB">
<feFlood flood-opacity="0" result="BackgroundImageFix"/>
<feColorMatrix in="SourceAlpha" type="matrix" values="0 0 0 0 0 0 0 0 0 0 0 0 0 0 0 0 0 0 127 0" result="hardAlpha"/>
<feOffset dy="4"/>
<feGaussianBlur stdDeviation="2"/>
<feComposite in2="hardAlpha" operator="out"/>
<feColorMatrix type="matrix" values="0 0 0 0 0 0 0 0 0 0 0 0 0 0 0 0 0 0 0.25 0"/>
<feBlend mode="normal" in2="BackgroundImageFix" result="effect1_dropShadow_735_15"/>
<feBlend mode="normal" in="SourceGraphic" in2="effect1_dropShadow_735_15" result="shape"/>
</filter>
<filter id="filter1_d_735_15" x="44" y="19" width="77" height="90" filterUnits="userSpaceOnUse" color-interpolation-filters="sRGB">
<feFlood flood-opacity="0" result="BackgroundImageFix"/>
<feColorMatrix in="SourceAlpha" type="matrix" values="0 0 0 0 0 0 0 0 0 0 0 0 0 0 0 0 0 0 127 0" result="hardAlpha"/>
<feOffset dy="4"/>
<feGaussianBlur stdDeviation="2"/>
<feComposite in2="hardAlpha" operator="out"/>
<feColorMatrix type="matrix" values="0 0 0 0 0 0 0 0 0 0 0 0 0 0 0 0 0 0 0.25 0"/>
<feBlend mode="normal" in2="BackgroundImageFix" result="effect1_dropShadow_735_15"/>
<feBlend mode="normal" in="SourceGraphic" in2="effect1_dropShadow_735_15" result="shape"/>
</filter>
</defs>
</svg>
