<svg width="165" height="162" viewBox="0 0 165 162" fill="none" xmlns="http://www.w3.org/2000/svg">
<g filter="url(#filter0_d_735_25)">
<path d="M159 77C159 118.385 124.786 152 82.5 152C40.2137 152 6 118.385 6 77C6 35.6148 40.2137 2 82.5 2C124.786 2 159 35.6148 159 77Z" fill="white" stroke="#F9A826" stroke-width="4"/>
<path d="M49.7102 107V93.9091H54.1335C55.1605 93.9091 56 94.0945 56.652 94.4652C57.3082 94.8317 57.794 95.3281 58.1094 95.9545C58.4247 96.581 58.5824 97.2798 58.5824 98.0511C58.5824 98.8224 58.4247 99.5234 58.1094 100.154C57.7983 100.785 57.3168 101.288 56.6648 101.663C56.0128 102.033 55.1776 102.219 54.1591 102.219H50.9886V100.812H54.108C54.8111 100.812 55.3757 100.691 55.8018 100.448C56.228 100.205 56.5369 99.8771 56.7287 99.4638C56.9247 99.0462 57.0227 98.5753 57.0227 98.0511C57.0227 97.527 56.9247 97.0582 56.7287 96.6449C56.5369 96.2315 56.2259 95.9077 55.7955 95.6733C55.3651 95.4347 54.794 95.3153 54.0824 95.3153H51.2955V107H49.7102ZM60.9315 107V97.1818H62.3888V98.6648H62.4911C62.6701 98.179 62.994 97.7848 63.4627 97.4822C63.9315 97.1797 64.4599 97.0284 65.0479 97.0284C65.1587 97.0284 65.2972 97.0305 65.4634 97.0348C65.6296 97.0391 65.7553 97.0455 65.8406 97.054V98.5881C65.7894 98.5753 65.6722 98.5561 65.489 98.5305C65.31 98.5007 65.1204 98.4858 64.9201 98.4858C64.4428 98.4858 64.0167 98.5859 63.6417 98.7862C63.271 98.9822 62.9769 99.255 62.7596 99.6044C62.5465 99.9496 62.44 100.344 62.44 100.787V107H60.9315ZM71.3185 107.205C70.4322 107.205 69.6545 106.994 68.9854 106.572C68.3207 106.15 67.8008 105.56 67.4258 104.801C67.055 104.043 66.8697 103.156 66.8697 102.142C66.8697 101.119 67.055 100.227 67.4258 99.4638C67.8008 98.701 68.3207 98.1087 68.9854 97.6868C69.6545 97.2649 70.4322 97.054 71.3185 97.054C72.2049 97.054 72.9805 97.2649 73.6452 97.6868C74.3143 98.1087 74.8342 98.701 75.2049 99.4638C75.5799 100.227 75.7674 101.119 75.7674 102.142C75.7674 103.156 75.5799 104.043 75.2049 104.801C74.8342 105.56 74.3143 106.15 73.6452 106.572C72.9805 106.994 72.2049 107.205 71.3185 107.205ZM71.3185 105.849C71.9918 105.849 72.5458 105.677 72.9805 105.332C73.4151 104.987 73.7369 104.533 73.9457 103.97C74.1545 103.408 74.2589 102.798 74.2589 102.142C74.2589 101.486 74.1545 100.874 73.9457 100.308C73.7369 99.7408 73.4151 99.2827 72.9805 98.9332C72.5458 98.5838 71.9918 98.4091 71.3185 98.4091C70.6452 98.4091 70.0913 98.5838 69.6566 98.9332C69.2219 99.2827 68.9002 99.7408 68.6914 100.308C68.4826 100.874 68.3782 101.486 68.3782 102.142C68.3782 102.798 68.4826 103.408 68.6914 103.97C68.9002 104.533 69.2219 104.987 69.6566 105.332C70.0913 105.677 70.6452 105.849 71.3185 105.849ZM86.84 107.205C86.0218 107.205 85.2995 106.998 84.6731 106.585C84.0467 106.167 83.5566 105.579 83.2029 104.82C82.8493 104.058 82.6724 103.156 82.6724 102.116C82.6724 101.085 82.8493 100.19 83.2029 99.4318C83.5566 98.6733 84.0488 98.0874 84.6795 97.674C85.3102 97.2607 86.0389 97.054 86.8656 97.054C87.5048 97.054 88.0098 97.1605 88.3805 97.3736C88.7555 97.5824 89.041 97.821 89.237 98.0895C89.4373 98.3537 89.5929 98.571 89.7037 98.7415H89.8315V93.9091H91.34V107H89.8826V105.491H89.7037C89.5929 105.67 89.4352 105.896 89.2306 106.169C89.0261 106.437 88.7342 106.678 88.3549 106.891C87.9757 107.1 87.4707 107.205 86.84 107.205ZM87.0446 105.849C87.6497 105.849 88.161 105.692 88.5787 105.376C88.9963 105.057 89.3137 104.616 89.5311 104.053C89.7484 103.487 89.8571 102.832 89.8571 102.091C89.8571 101.358 89.7505 100.717 89.5375 100.167C89.3244 99.6129 89.0091 99.1825 88.5914 98.8757C88.1738 98.5646 87.6582 98.4091 87.0446 98.4091C86.4054 98.4091 85.8727 98.5732 85.4466 98.9013C85.0247 99.2251 84.7072 99.6662 84.4941 100.224C84.2853 100.778 84.1809 101.401 84.1809 102.091C84.1809 102.79 84.2875 103.425 84.5005 103.996C84.7179 104.562 85.0375 105.014 85.4593 105.351C85.8855 105.683 86.4139 105.849 87.0446 105.849ZM98.4288 107.205C97.4828 107.205 96.6667 106.996 95.9806 106.578C95.2988 106.156 94.7725 105.568 94.4018 104.814C94.0353 104.055 93.8521 103.173 93.8521 102.168C93.8521 101.162 94.0353 100.276 94.4018 99.5085C94.7725 98.7372 95.2882 98.1364 95.9487 97.706C96.6135 97.2713 97.389 97.054 98.2754 97.054C98.7868 97.054 99.2917 97.1392 99.7903 97.3097C100.289 97.4801 100.743 97.7571 101.152 98.1406C101.561 98.5199 101.887 99.0227 102.13 99.6491C102.373 100.276 102.494 101.047 102.494 101.963V102.602H94.926V101.298H100.96C100.96 100.744 100.849 100.25 100.628 99.8153C100.41 99.3807 100.099 99.0376 99.6944 98.7862C99.2939 98.5348 98.8208 98.4091 98.2754 98.4091C97.6745 98.4091 97.1547 98.5582 96.7157 98.8565C96.2811 99.1506 95.9466 99.5341 95.7122 100.007C95.4778 100.48 95.3606 100.987 95.3606 101.528V102.398C95.3606 103.139 95.4885 103.768 95.7441 104.283C96.0041 104.795 96.3642 105.185 96.8244 105.453C97.2846 105.717 97.8194 105.849 98.4288 105.849C98.8251 105.849 99.1831 105.794 99.5027 105.683C99.8265 105.568 100.106 105.398 100.34 105.172C100.574 104.942 100.756 104.656 100.883 104.315L102.341 104.724C102.187 105.219 101.93 105.653 101.567 106.028C101.205 106.399 100.758 106.689 100.225 106.898C99.6923 107.102 99.0936 107.205 98.4288 107.205ZM111.743 99.3807L110.388 99.7642C110.303 99.5384 110.177 99.3189 110.011 99.1058C109.849 98.8885 109.628 98.7095 109.346 98.5689C109.065 98.4283 108.705 98.358 108.266 98.358C107.665 98.358 107.165 98.4964 106.764 98.7734C106.368 99.0462 106.17 99.3935 106.17 99.8153C106.17 100.19 106.306 100.487 106.579 100.704C106.851 100.921 107.278 101.102 107.857 101.247L109.314 101.605C110.192 101.818 110.846 102.144 111.277 102.583C111.707 103.018 111.922 103.578 111.922 104.264C111.922 104.827 111.76 105.33 111.437 105.773C111.117 106.216 110.67 106.565 110.094 106.821C109.519 107.077 108.85 107.205 108.087 107.205C107.086 107.205 106.257 106.987 105.601 106.553C104.944 106.118 104.529 105.483 104.354 104.648L105.786 104.29C105.922 104.818 106.18 105.214 106.559 105.479C106.943 105.743 107.444 105.875 108.062 105.875C108.765 105.875 109.323 105.726 109.736 105.428C110.154 105.125 110.363 104.763 110.363 104.341C110.363 104 110.243 103.714 110.005 103.484C109.766 103.25 109.4 103.075 108.905 102.96L107.269 102.577C106.37 102.364 105.709 102.033 105.287 101.586C104.87 101.134 104.661 100.57 104.661 99.892C104.661 99.3381 104.817 98.848 105.128 98.4219C105.443 97.9957 105.871 97.6612 106.412 97.4183C106.958 97.1754 107.576 97.054 108.266 97.054C109.238 97.054 110.001 97.267 110.555 97.6932C111.113 98.1193 111.509 98.6818 111.743 99.3807ZM69.9035 119.182V120.46H64.8154V119.182H69.9035ZM66.2984 116.83H67.8069V126.188C67.8069 126.614 67.8687 126.933 67.9923 127.146C68.1201 127.355 68.282 127.496 68.4781 127.568C68.6784 127.636 68.8893 127.67 69.1109 127.67C69.2771 127.67 69.4134 127.662 69.52 127.645C69.6265 127.624 69.7117 127.607 69.7757 127.594L70.0825 128.949C69.9802 128.987 69.8374 129.026 69.6542 129.064C69.471 129.107 69.2387 129.128 68.9575 129.128C68.5313 129.128 68.1137 129.036 67.7046 128.853C67.2998 128.67 66.9632 128.391 66.6947 128.016C66.4305 127.641 66.2984 127.168 66.2984 126.597V116.83ZM78.3602 124.986V119.182H79.8687V129H78.3602V127.338H78.2579C78.0278 127.837 77.6698 128.261 77.184 128.61C76.6982 128.955 76.0846 129.128 75.3431 129.128C74.7295 129.128 74.184 128.994 73.7068 128.725C73.2295 128.452 72.8545 128.043 72.5818 127.498C72.309 126.948 72.1727 126.256 72.1727 125.42V119.182H73.6812V125.318C73.6812 126.034 73.8815 126.605 74.282 127.031C74.6869 127.457 75.2025 127.67 75.8289 127.67C76.2039 127.67 76.5853 127.575 76.9731 127.383C77.3651 127.191 77.6933 126.897 77.9575 126.501C78.2259 126.104 78.3602 125.599 78.3602 124.986ZM86.9015 119.182V120.46H81.8135V119.182H86.9015ZM83.2964 116.83H84.805V126.188C84.805 126.614 84.8667 126.933 84.9903 127.146C85.1182 127.355 85.2801 127.496 85.4761 127.568C85.6764 127.636 85.8873 127.67 86.1089 127.67C86.2751 127.67 86.4115 127.662 86.518 127.645C86.6246 127.624 86.7098 127.607 86.7737 127.594L87.0805 128.949C86.9782 128.987 86.8355 129.026 86.6523 129.064C86.469 129.107 86.2368 129.128 85.9555 129.128C85.5294 129.128 85.1118 129.036 84.7027 128.853C84.2979 128.67 83.9612 128.391 83.6927 128.016C83.4285 127.641 83.2964 127.168 83.2964 126.597V116.83ZM93.0539 129.205C92.1675 129.205 91.3898 128.994 90.7208 128.572C90.056 128.15 89.5361 127.56 89.1611 126.801C88.7904 126.043 88.605 125.156 88.605 124.142C88.605 123.119 88.7904 122.227 89.1611 121.464C89.5361 120.701 90.056 120.109 90.7208 119.687C91.3898 119.265 92.1675 119.054 93.0539 119.054C93.9403 119.054 94.7158 119.265 95.3806 119.687C96.0496 120.109 96.5695 120.701 96.9403 121.464C97.3153 122.227 97.5028 123.119 97.5028 124.142C97.5028 125.156 97.3153 126.043 96.9403 126.801C96.5695 127.56 96.0496 128.15 95.3806 128.572C94.7158 128.994 93.9403 129.205 93.0539 129.205ZM93.0539 127.849C93.7272 127.849 94.2812 127.677 94.7158 127.332C95.1505 126.987 95.4722 126.533 95.681 125.97C95.8898 125.408 95.9942 124.798 95.9942 124.142C95.9942 123.486 95.8898 122.874 95.681 122.308C95.4722 121.741 95.1505 121.283 94.7158 120.933C94.2812 120.584 93.7272 120.409 93.0539 120.409C92.3806 120.409 91.8266 120.584 91.392 120.933C90.9573 121.283 90.6356 121.741 90.4268 122.308C90.218 122.874 90.1135 123.486 90.1135 124.142C90.1135 124.798 90.218 125.408 90.4268 125.97C90.6356 126.533 90.9573 126.987 91.392 127.332C91.8266 127.677 92.3806 127.849 93.0539 127.849ZM101.135 115.909V117.06C101.135 117.409 101.071 117.782 100.943 118.178C100.82 118.57 100.636 118.952 100.394 119.322C100.155 119.689 99.8651 120.009 99.5242 120.281L98.7061 119.616C98.9745 119.233 99.2068 118.835 99.4028 118.421C99.6031 118.004 99.7032 117.558 99.7032 117.085V115.909H101.135Z" fill="black"/>
<path d="M82.8382 60L75 51.3303L79.5583 48.2806L83.2697 52.3855L95.8074 41L100 44.4171L82.8382 60Z" fill="white"/>
</g>
<g clip-path="url(#clip0_735_25)">
<g filter="url(#filter1_d_735_25)">
<path d="M47.7267 81.313C46.3824 82.1737 45.0076 83.062 44.0767 84.3086C43.1459 85.5553 42.7396 87.2571 43.4875 88.6061L43.4682 88.6901C44.0351 88.8754 44.6438 88.9218 45.2355 88.8249C45.8273 88.728 46.3823 88.491 46.847 88.1368C48.0303 87.2133 48.4014 85.6919 48.7033 84.2831L49.5962 80.1162L47.7267 81.313Z" fill="#F0F0F0"/>
</g>
<g filter="url(#filter2_d_735_25)">
<path d="M49.0215 85.5151C48.1248 85.6995 47.2059 85.8924 46.4369 86.3594C45.668 86.8265 45.069 87.634 45.1522 88.4845L45.123 88.5245C45.3764 88.7326 45.6833 88.8765 46.0139 88.9423C46.3445 89.0081 46.6878 88.9936 47.0107 88.9003C47.8378 88.6514 48.3774 87.931 48.8552 87.2558L50.2686 85.2586L49.0215 85.5151Z" fill="#F0F0F0"/>
</g>
<g filter="url(#filter3_d_735_25)">
<path d="M123.889 22.7198H47.3172C47.2878 22.7197 47.2597 22.7088 47.2389 22.6894C47.2181 22.67 47.2065 22.6438 47.2065 22.6165C47.2065 22.5891 47.2181 22.5629 47.2389 22.5435C47.2597 22.5241 47.2878 22.5132 47.3172 22.5131H123.889C123.918 22.5132 123.946 22.5241 123.967 22.5435C123.988 22.5629 124 22.5891 124 22.6165C124 22.6438 123.988 22.67 123.967 22.6894C123.946 22.7088 123.918 22.7197 123.889 22.7198Z" fill="#CACACA"/>
</g>
<g filter="url(#filter4_d_735_25)">
<path d="M49.8186 21.2732C50.4938 21.2732 51.0411 20.7643 51.0411 20.1366C51.0411 19.5089 50.4938 19 49.8186 19C49.1435 19 48.5961 19.5089 48.5961 20.1366C48.5961 20.7643 49.1435 21.2732 49.8186 21.2732Z" fill="#3F3D56"/>
</g>
<g filter="url(#filter5_d_735_25)">
<path d="M54.0417 21.2732C54.7168 21.2732 55.2642 20.7643 55.2642 20.1366C55.2642 19.5089 54.7168 19 54.0417 19C53.3665 19 52.8192 19.5089 52.8192 20.1366C52.8192 20.7643 53.3665 21.2732 54.0417 21.2732Z" fill="#3F3D56"/>
</g>
<g filter="url(#filter6_d_735_25)">
<path d="M58.2648 21.2732C58.94 21.2732 59.4873 20.7643 59.4873 20.1366C59.4873 19.5089 58.94 19 58.2648 19C57.5897 19 57.0424 19.5089 57.0424 20.1366C57.0424 20.7643 57.5897 21.2732 58.2648 21.2732Z" fill="#3F3D56"/>
</g>
<path d="M121.359 19.6952H118.358C118.299 19.6952 118.242 19.6735 118.201 19.6347C118.159 19.5959 118.136 19.5434 118.136 19.4886C118.136 19.4338 118.159 19.3812 118.201 19.3424C118.242 19.3037 118.299 19.2819 118.358 19.2819H121.359C121.418 19.2819 121.474 19.3037 121.516 19.3424C121.557 19.3812 121.581 19.4338 121.581 19.4886C121.581 19.5434 121.557 19.5959 121.516 19.6347C121.474 19.6735 121.418 19.6952 121.359 19.6952Z" fill="#3F3D56"/>
<path d="M121.359 20.4702H118.358C118.299 20.4702 118.242 20.4484 118.201 20.4097C118.159 20.3709 118.136 20.3183 118.136 20.2635C118.136 20.2087 118.159 20.1562 118.201 20.1174C118.242 20.0786 118.299 20.0569 118.358 20.0569H121.359C121.418 20.0569 121.474 20.0786 121.516 20.1174C121.557 20.1562 121.581 20.2087 121.581 20.2635C121.581 20.3183 121.557 20.3709 121.516 20.4097C121.474 20.4484 121.418 20.4702 121.359 20.4702Z" fill="#3F3D56"/>
<path d="M121.359 21.2451H118.358C118.299 21.2451 118.242 21.2234 118.201 21.1846C118.159 21.1458 118.136 21.0933 118.136 21.0385C118.136 20.9837 118.159 20.9311 118.201 20.8923C118.242 20.8536 118.299 20.8318 118.358 20.8318H121.359C121.417 20.832 121.474 20.8539 121.515 20.8926C121.557 20.9313 121.58 20.9838 121.58 21.0385C121.58 21.0932 121.557 21.1456 121.515 21.1843C121.474 21.2231 121.417 21.2449 121.359 21.2451Z" fill="#3F3D56"/>
<g filter="url(#filter7_d_735_25)">
<path d="M99.354 27.1506H48.5655V55.4623H99.354V27.1506Z" fill="#F0F0F0"/>
</g>
<g filter="url(#filter8_d_735_25)">
<path d="M121.581 27.1506H105.578V36.0716H121.581V27.1506Z" fill="#F0F0F0"/>
</g>
<g filter="url(#filter9_d_735_25)">
<path d="M118.388 40.1699H108.866C108.747 40.1699 108.633 40.1259 108.549 40.0477C108.465 39.9695 108.418 39.8635 108.418 39.7529C108.418 39.6423 108.465 39.5362 108.549 39.458C108.633 39.3798 108.747 39.3359 108.866 39.3359H118.388C118.507 39.3359 118.621 39.3798 118.705 39.458C118.789 39.5362 118.837 39.6423 118.837 39.7529C118.837 39.8635 118.789 39.9695 118.705 40.0477C118.621 40.1259 118.507 40.1699 118.388 40.1699H118.388Z" fill="#E4E4E4"/>
</g>
<g filter="url(#filter10_d_735_25)">
<path d="M116.853 38.7425H110.401C110.282 38.7425 110.168 38.6985 110.084 38.6203C110 38.5421 109.953 38.4361 109.953 38.3255C109.953 38.2149 110 38.1088 110.084 38.0306C110.168 37.9524 110.282 37.9085 110.401 37.9085H116.853C116.972 37.9085 117.086 37.9524 117.17 38.0306C117.254 38.1088 117.301 38.2149 117.301 38.3255C117.301 38.4361 117.254 38.5421 117.17 38.6203C117.086 38.6985 116.972 38.7425 116.853 38.7425Z" fill="#E4E4E4"/>
</g>
<g filter="url(#filter11_d_735_25)">
<path d="M121.581 43.373H105.578V52.294H121.581V43.373Z" fill="#F0F0F0"/>
</g>
<g filter="url(#filter12_d_735_25)">
<path d="M118.388 56.3923H108.866C108.747 56.3923 108.633 56.3483 108.549 56.2701C108.465 56.1919 108.418 56.0859 108.418 55.9753C108.418 55.8647 108.465 55.7586 108.549 55.6804C108.633 55.6022 108.747 55.5583 108.866 55.5583H118.388C118.507 55.5583 118.621 55.6022 118.705 55.6804C118.789 55.7586 118.837 55.8647 118.837 55.9753C118.837 56.0859 118.789 56.1919 118.705 56.2701C118.621 56.3483 118.507 56.3923 118.388 56.3923H118.388Z" fill="#E4E4E4"/>
</g>
<g filter="url(#filter13_d_735_25)">
<path d="M116.853 54.9649H110.401C110.282 54.9649 110.168 54.9209 110.084 54.8427C110 54.7645 109.953 54.6585 109.953 54.5479C109.953 54.4373 110 54.3312 110.084 54.253C110.168 54.1748 110.282 54.1309 110.401 54.1309H116.853C116.972 54.1311 117.086 54.1751 117.17 54.2533C117.253 54.3314 117.301 54.4374 117.301 54.5479C117.301 54.6583 117.253 54.7643 117.17 54.8425C117.086 54.9207 116.972 54.9647 116.853 54.9649Z" fill="#E4E4E4"/>
</g>
<g filter="url(#filter14_d_735_25)">
<path d="M74.8423 42.3812C76.9354 42.3812 78.6323 40.8036 78.6323 38.8575C78.6323 36.9114 76.9354 35.3337 74.8423 35.3337C72.7491 35.3337 71.0523 36.9114 71.0523 38.8575C71.0523 40.8036 72.7491 42.3812 74.8423 42.3812Z" fill="#9E616A"/>
</g>
<g filter="url(#filter15_d_735_25)">
<path d="M81.228 55.4623H71.7249L72.2582 44.2896L72.3238 44.2255L73.2674 43.2996H76.2681L77.3816 44.3019L77.4694 44.3815L79.8388 46.4924L81.228 55.4623Z" fill="#F9A826"/>
</g>
<g filter="url(#filter16_d_735_25)">
<path d="M74.3554 55.4623H67.1327C67.0849 51.1866 67.0471 47.9607 67.0471 47.9607L67.4161 47.752L67.4183 47.751L71.4692 45.4644L72.3194 44.18L72.3238 44.2255L72.5739 46.9326C72.5739 46.9326 73.933 51.0151 74.3554 55.4623Z" fill="#2F2E41"/>
</g>
<g filter="url(#filter17_d_735_25)">
<path d="M84.183 55.4623H77.7561C77.4126 54.0136 77.2337 52.6342 77.3115 51.4842C77.6271 46.7859 76.8992 44.18 77.2148 44.18L77.3815 44.3019L79.3642 45.7578L81.9747 46.6475L83.7862 47.2654L84.1018 47.3728V47.5144C84.103 48.2253 84.1107 51.5266 84.183 55.4623Z" fill="#2F2E41"/>
</g>
<g filter="url(#filter18_d_735_25)">
<path d="M71.2568 39.9599C71.2568 39.9599 71.5788 39.4342 71.5039 37.6777C71.4291 35.9213 74.3058 36.9147 76.7096 36.7472C79.1134 36.5796 78.6045 39.6796 78.6045 39.6796C78.6045 39.6796 78.7779 39.4953 79.1492 37.9992C79.5205 36.503 78.6775 35.0121 78.6775 35.0121C78.4292 33.4399 77.0911 33.9438 77.0911 33.9438C77.7355 34.177 77.6118 34.6757 77.6118 34.6757C77.0663 33.7866 75.7282 34.2905 75.7282 34.2905C73.9436 33.2492 72.135 34.6204 72.135 34.6204C69.9791 35.0753 71.2434 36.6694 71.2434 36.6694C69.0753 37.688 71.2568 39.9599 71.2568 39.9599Z" fill="#2F2E41"/>
</g>
<g filter="url(#filter19_d_735_25)">
<path d="M65.0401 55.4623C65.2245 52.0329 65.3657 49.3422 65.3101 49.1345C65.1545 48.5569 67.3494 47.7748 67.4161 47.752L67.4172 47.751H67.4184L67.8373 47.9607L68.144 55.4623H65.0401Z" fill="#2F2E41"/>
</g>
<g filter="url(#filter20_d_735_25)">
<path d="M85.6944 55.4623H82.4327L81.4991 46.8892L81.8836 46.6278C81.8836 46.6278 81.917 46.6351 81.9748 46.6475C82.2737 46.7167 83.2384 46.9512 83.7862 47.2654C83.9075 47.329 84.0146 47.4135 84.1018 47.5144C84.1553 47.5737 84.182 47.65 84.1764 47.7272C84.1486 47.97 84.8598 51.4026 85.6944 55.4623Z" fill="#2F2E41"/>
</g>
<g filter="url(#filter21_d_735_25)">
<path d="M91.1856 58.9238H56.7339C56.6014 58.924 56.4744 58.973 56.3808 59.0602C56.2872 59.1474 56.2346 59.2656 56.2346 59.3887C56.2346 59.5119 56.2872 59.6301 56.3808 59.7173C56.4744 59.8044 56.6014 59.8535 56.7339 59.8537H91.1856C91.2513 59.8538 91.3165 59.8419 91.3772 59.8185C91.438 59.7952 91.4932 59.761 91.5398 59.7178C91.5863 59.6746 91.6232 59.6233 91.6484 59.5669C91.6736 59.5104 91.6865 59.4499 91.6865 59.3887C91.6865 59.3276 91.6736 59.2671 91.6484 59.2106C91.6232 59.1542 91.5863 59.1029 91.5398 59.0597C91.4932 59.0165 91.438 58.9823 91.3772 58.9589C91.3165 58.9356 91.2513 58.9237 91.1856 58.9238Z" fill="#CACACA"/>
</g>
<g filter="url(#filter22_d_735_25)">
<path d="M81.8503 58.9238V59.8537H56.7339C56.6014 59.8535 56.4744 59.8044 56.3808 59.7173C56.2872 59.6301 56.2346 59.5119 56.2346 59.3887C56.2346 59.2656 56.2872 59.1474 56.3808 59.0602C56.4744 58.973 56.6014 58.924 56.7339 58.9238H81.8503Z" fill="#3F3D56"/>
</g>
<g filter="url(#filter23_d_735_25)">
<path d="M81.8503 60.3187C82.4027 60.3187 82.8505 59.9023 82.8505 59.3887C82.8505 58.8751 82.4027 58.4588 81.8503 58.4588C81.2979 58.4588 80.8501 58.8751 80.8501 59.3887C80.8501 59.9023 81.2979 60.3187 81.8503 60.3187Z" fill="#3F3D56"/>
</g>
<g filter="url(#filter24_d_735_25)">
<path d="M73.9597 67.1383C73.5514 67.1383 73.1522 67.0257 72.8126 66.8148C72.4731 66.6038 72.2085 66.304 72.0522 65.9532C71.8959 65.6025 71.855 65.2165 71.9347 64.8441C72.0144 64.4718 72.211 64.1297 72.4998 63.8612C72.7885 63.5928 73.1564 63.4099 73.5569 63.3359C73.9574 63.2618 74.3726 63.2998 74.7498 63.4451C75.1271 63.5904 75.4496 63.8365 75.6764 64.1521C75.9033 64.4678 76.0244 64.839 76.0244 65.2186C76.0238 65.7276 75.8061 66.2155 75.419 66.5754C75.0319 66.9353 74.5071 67.1377 73.9597 67.1383ZM73.9597 63.4467C73.5828 63.4467 73.2143 63.5506 72.9009 63.7453C72.5874 63.94 72.3432 64.2167 72.1989 64.5405C72.0547 64.8643 72.0169 65.2206 72.0905 65.5643C72.164 65.9081 72.3455 66.2238 72.6121 66.4716C72.8786 66.7194 73.2182 66.8882 73.5879 66.9566C73.9576 67.0249 74.3408 66.9898 74.6891 66.8557C75.0373 66.7216 75.335 66.4945 75.5444 66.2031C75.7538 65.9117 75.8656 65.5691 75.8656 65.2186C75.865 64.7488 75.664 64.2984 75.3067 63.9663C74.9494 63.6341 74.465 63.4472 73.9597 63.4467V63.4467Z" fill="#F9A826"/>
</g>
<g filter="url(#filter25_d_735_25)">
<path d="M73.687 66.2523C73.666 66.2523 73.6458 66.2445 73.6309 66.2307C73.616 66.2168 73.6076 66.198 73.6076 66.1785V64.2588C73.6075 64.2491 73.6095 64.2394 73.6134 64.2303C73.6174 64.2213 73.6232 64.2131 73.6306 64.2061C73.638 64.1992 73.6468 64.1937 73.6564 64.1899C73.6661 64.1862 73.6765 64.1842 73.687 64.1842C73.6975 64.1842 73.7079 64.1862 73.7176 64.1899C73.7273 64.1937 73.7361 64.1992 73.7435 64.2061C73.7508 64.2131 73.7567 64.2213 73.7606 64.2303C73.7646 64.2394 73.7665 64.2491 73.7664 64.2588V66.1785C73.7664 66.198 73.7581 66.2168 73.7432 66.2307C73.7283 66.2445 73.7081 66.2523 73.687 66.2523Z" fill="#F9A826"/>
</g>
<g filter="url(#filter26_d_735_25)">
<path d="M74.2324 66.2523C74.2114 66.2523 74.1912 66.2445 74.1763 66.2307C74.1614 66.2168 74.153 66.198 74.153 66.1785V64.2588C74.1529 64.2491 74.1549 64.2394 74.1589 64.2304C74.1628 64.2213 74.1686 64.2131 74.176 64.2062C74.1834 64.1992 74.1922 64.1937 74.2019 64.19C74.2116 64.1862 74.2219 64.1843 74.2324 64.1843C74.2429 64.1843 74.2533 64.1862 74.263 64.19C74.2727 64.1937 74.2815 64.1992 74.2888 64.2062C74.2962 64.2131 74.3021 64.2213 74.306 64.2304C74.31 64.2394 74.3119 64.2491 74.3118 64.2588V66.1785C74.3118 66.198 74.3035 66.2168 74.2886 66.2307C74.2737 66.2445 74.2535 66.2523 74.2324 66.2523Z" fill="#F9A826"/>
</g>
<g filter="url(#filter27_d_735_25)">
<path d="M64.503 65.2186C64.503 64.839 64.6241 64.4678 64.851 64.1521C65.0778 63.8365 65.4003 63.5904 65.7776 63.4451C66.1548 63.2998 66.57 63.2618 66.9705 63.3359C67.371 63.4099 67.7389 63.5928 68.0276 63.8612C68.3164 64.1297 68.513 64.4718 68.5927 64.8441C68.6724 65.2165 68.6315 65.6025 68.4752 65.9532C68.3189 66.304 68.0543 66.6038 67.7148 66.8148C67.3752 67.0257 66.976 67.1383 66.5677 67.1383C66.0203 67.1377 65.4955 66.9353 65.1084 66.5754C64.7213 66.2155 64.5036 65.7276 64.503 65.2186ZM64.6618 65.2186C64.6618 65.5691 64.7736 65.9117 64.983 66.2031C65.1924 66.4945 65.4901 66.7216 65.8383 66.8557C66.1866 66.9899 66.5698 67.0249 66.9395 66.9566C67.3092 66.8882 67.6488 66.7194 67.9153 66.4716C68.1819 66.2238 68.3634 65.9081 68.4369 65.5643C68.5105 65.2206 68.4727 64.8643 68.3285 64.5405C68.1842 64.2167 67.9399 63.94 67.6265 63.7453C67.3131 63.5506 66.9446 63.4467 66.5677 63.4467C66.0624 63.4472 65.578 63.6341 65.2207 63.9663C64.8634 64.2984 64.6624 64.7488 64.6618 65.2186H64.6618Z" fill="#3F3D56"/>
</g>
<g filter="url(#filter28_d_735_25)">
<path d="M67.4594 65.8649C67.474 65.865 67.4881 65.8605 67.4997 65.8523C67.5112 65.8441 67.5195 65.8325 67.5233 65.8195C67.5271 65.8064 67.5261 65.7925 67.5205 65.7801C67.515 65.7676 67.5051 65.7571 67.4925 65.7504L66.5019 65.2186L67.4925 64.6869C67.5077 64.6788 67.5188 64.6654 67.5233 64.6496C67.5278 64.6339 67.5255 64.6171 67.5167 64.603C67.508 64.5889 67.4935 64.5786 67.4766 64.5744C67.4597 64.5702 67.4417 64.5724 67.4265 64.5805L66.3369 65.1655C66.3268 65.1708 66.3185 65.1786 66.3127 65.1879C66.3069 65.1973 66.3038 65.2079 66.3038 65.2186C66.3038 65.2294 66.3069 65.24 66.3127 65.2493C66.3185 65.2587 66.3268 65.2664 66.3369 65.2718L67.4265 65.8567C67.4365 65.8621 67.4479 65.865 67.4594 65.8649Z" fill="#3F3D56"/>
</g>
<g filter="url(#filter29_d_735_25)">
<path d="M65.9984 66.0782C66.0159 66.0782 66.0327 66.0718 66.0451 66.0602C66.0575 66.0487 66.0644 66.0331 66.0645 66.0168V64.4204C66.0645 64.4042 66.0575 64.3885 66.0451 64.377C66.0327 64.3655 66.0159 64.359 65.9984 64.359C65.9809 64.359 65.9641 64.3655 65.9517 64.377C65.9393 64.3885 65.9324 64.4042 65.9324 64.4204V66.0168C65.9324 66.0331 65.9393 66.0487 65.9517 66.0602C65.9641 66.0718 65.9809 66.0782 65.9984 66.0782Z" fill="#3F3D56"/>
</g>
<g filter="url(#filter30_d_735_25)">
<path d="M81.3518 67.1383C80.9434 67.1383 80.5443 67.0257 80.2047 66.8148C79.8652 66.6038 79.6005 66.304 79.4443 65.9532C79.288 65.6025 79.2471 65.2165 79.3268 64.8441C79.4065 64.4718 79.6031 64.1297 79.8918 63.8612C80.1806 63.5928 80.5485 63.4099 80.949 63.3359C81.3495 63.2618 81.7646 63.2998 82.1419 63.4451C82.5192 63.5904 82.8417 63.8365 83.0685 64.1521C83.2954 64.4678 83.4165 64.839 83.4165 65.2186C83.4159 65.7276 83.1981 66.2155 82.8111 66.5754C82.424 66.9353 81.8992 67.1377 81.3518 67.1383ZM81.3518 63.4467C80.9749 63.4467 80.6064 63.5506 80.293 63.7453C79.9795 63.94 79.7353 64.2167 79.591 64.5405C79.4468 64.8643 79.409 65.2206 79.4826 65.5643C79.5561 65.9081 79.7376 66.2238 80.0041 66.4716C80.2707 66.7194 80.6103 66.8882 80.98 66.9566C81.3497 67.0249 81.7329 66.9898 82.0811 66.8557C82.4294 66.7216 82.727 66.4945 82.9365 66.2031C83.1459 65.9117 83.2577 65.5691 83.2577 65.2186C83.2571 64.7488 83.0561 64.2984 82.6988 63.9663C82.3415 63.6341 81.8571 63.4472 81.3518 63.4467V63.4467Z" fill="#3F3D56"/>
</g>
<g filter="url(#filter31_d_735_25)">
<path d="M80.46 65.8649C80.4455 65.865 80.4313 65.8605 80.4198 65.8523C80.4083 65.8441 80.3999 65.8325 80.3962 65.8195C80.3924 65.8064 80.3934 65.7925 80.3989 65.7801C80.4045 65.7676 80.4143 65.7571 80.4269 65.7504L81.4175 65.2186L80.4269 64.6869C80.4118 64.6787 80.4008 64.6653 80.3963 64.6496C80.3918 64.6339 80.3942 64.6172 80.403 64.6031C80.4117 64.5891 80.4261 64.5788 80.4429 64.5745C80.4598 64.5703 80.4778 64.5725 80.493 64.5805L81.5826 65.1655C81.5927 65.1708 81.601 65.1786 81.6068 65.1879C81.6126 65.1973 81.6156 65.2079 81.6156 65.2186C81.6156 65.2294 81.6126 65.24 81.6068 65.2493C81.601 65.2587 81.5927 65.2664 81.5826 65.2718L80.493 65.8567C80.483 65.8621 80.4716 65.865 80.46 65.8649Z" fill="#3F3D56"/>
</g>
<g filter="url(#filter32_d_735_25)">
<path d="M81.921 66.0782C81.9035 66.0782 81.8867 66.0718 81.8743 66.0602C81.8619 66.0487 81.855 66.0331 81.855 66.0168V64.4204C81.855 64.4042 81.8619 64.3885 81.8743 64.377C81.8867 64.3655 81.9035 64.359 81.921 64.359C81.9385 64.359 81.9553 64.3655 81.9677 64.377C81.9801 64.3885 81.9871 64.4042 81.9871 64.4204V66.0168C81.9871 66.0331 81.9801 66.0487 81.9677 66.0602C81.9553 66.0718 81.9385 66.0782 81.921 66.0782Z" fill="#3F3D56"/>
</g>
<g filter="url(#filter33_d_735_25)">
<path d="M54.0969 66.6654C53.9878 66.5638 53.904 66.4411 53.8513 66.3061C53.7987 66.1711 53.7786 66.027 53.7923 65.8839C53.8061 65.7408 53.8534 65.6023 53.931 65.4781C54.0085 65.3539 54.1145 65.247 54.2413 65.165L53.2254 61.804L55.0843 62.3558L55.7639 65.4629C55.8981 65.67 55.9458 65.9158 55.898 66.1535C55.8503 66.3912 55.7104 66.6043 55.505 66.7526C55.2995 66.9008 55.0426 66.9738 54.7831 66.9578C54.5236 66.9417 54.2795 66.8377 54.0969 66.6654Z" fill="#FFB6B6"/>
</g>
<g filter="url(#filter34_d_735_25)">
<path d="M53.6001 49.9201L53.215 49.5475C53.215 49.5475 52.0246 50.3078 52.2764 52.6645C52.4625 54.4053 51.8746 55.1435 51.9403 60.2031L53.6001 64.8367L55.5199 63.901L54.1309 58.1837L53.6001 49.9201Z" fill="#F9A826"/>
</g>
<g filter="url(#filter35_d_735_25)">
<path d="M55.0403 87.5269H56.4169L57.0718 82.5902L55.04 82.5903L55.0403 87.5269Z" fill="#FFB6B6"/>
</g>
<g filter="url(#filter36_d_735_25)">
<path d="M54.6892 87.109L57.4002 87.1089H57.4003C57.8585 87.1089 58.2979 87.2782 58.6219 87.5794C58.9458 87.8806 59.1279 88.2892 59.1279 88.7151V88.7673L54.6893 88.7675L54.6892 87.109Z" fill="#2F2E41"/>
</g>
<g filter="url(#filter37_d_735_25)">
<path d="M59.0548 87.0736L60.4212 87.2293L61.7175 82.4036L59.701 82.1737L59.0548 87.0736Z" fill="#FFB6B6"/>
</g>
<g filter="url(#filter38_d_735_25)">
<path d="M58.761 86.6191L61.4518 86.9258L61.4519 86.9259C61.9066 86.9777 62.3206 87.1954 62.6028 87.5311C62.8849 87.8668 63.0121 88.2929 62.9563 88.7157L62.9495 88.7675L58.5439 88.2652L58.761 86.6191Z" fill="#2F2E41"/>
</g>
<g filter="url(#filter39_d_735_25)">
<path d="M54.3268 62.2161C54.3268 62.2161 51.6751 63.901 53.0009 68.4618L54.7939 86.1649L56.924 86.1509L57.8262 77.4156L58.4394 71.2659L60.4882 77.6252L58.8031 85.4284L61.2902 85.6718L64.2701 76.5973L62.8331 63.6774L54.3268 62.2161Z" fill="#2F2E41"/>
</g>
<g filter="url(#filter40_d_735_25)">
<path d="M60.7251 49.0693L59.3768 48.061L55.8011 47.9241L53.2151 49.5475C53.2151 49.5475 52.9482 55.3281 54.6981 60.4774L53.7806 62.6284L62.9537 63.6984L60.7251 49.0693Z" fill="#F9A826"/>
</g>
<g filter="url(#filter41_d_735_25)">
<path d="M57.8341 46.687C59.528 46.687 60.9012 45.4102 60.9012 43.8353C60.9012 42.2604 59.528 40.9837 57.8341 40.9837C56.1402 40.9837 54.767 42.2604 54.767 43.8353C54.767 45.4102 56.1402 46.687 57.8341 46.687Z" fill="#FFB6B6"/>
</g>
<g filter="url(#filter42_d_735_25)">
<path d="M58.6386 40.3103H57.957C57.4821 40.1787 56.9807 40.152 56.4927 40.2324C56.0047 40.3129 55.5437 40.4981 55.1463 40.7735C54.749 41.0488 54.4263 41.4067 54.204 41.8185C53.9817 42.2302 53.8658 42.6846 53.8658 43.1454L52.8043 46.4023C52.7736 46.4962 52.7671 46.5955 52.7852 46.6922C52.8033 46.7889 52.8454 46.8803 52.9083 46.9591C52.9712 47.0379 53.0531 47.1019 53.1474 47.1461C53.2417 47.1902 53.3457 47.2131 53.4513 47.2131H53.9694C54.1864 46.9258 54.281 46.5739 54.235 46.2254C54.3314 46.4436 54.3989 46.6718 54.4361 46.9051C54.4481 47.0076 54.4458 47.1112 54.4293 47.2131H58.9371C58.9662 46.8021 58.8198 46.3969 58.5295 46.0857C58.8927 46.423 59.2083 46.8019 59.4689 47.2131H59.5535C59.7328 47.2131 59.9048 47.1469 60.0316 47.029C60.1583 46.9112 60.2296 46.7513 60.2296 46.5846V43.3919H61.9531C61.9531 42.9872 61.8674 42.5865 61.7008 42.2126C61.5342 41.8388 61.2901 41.499 60.9823 41.2129C60.6745 40.9267 60.3092 40.6997 59.907 40.5449C59.5049 40.39 59.0739 40.3103 58.6386 40.3103Z" fill="#2F2E41"/>
</g>
<g filter="url(#filter43_d_735_25)">
<path d="M62.0517 66.4189C61.9425 66.3173 61.8587 66.1946 61.8061 66.0596C61.7534 65.9245 61.7333 65.7804 61.747 65.6374C61.7608 65.4943 61.8081 65.3558 61.8857 65.2316C61.9633 65.1074 62.0692 65.0005 62.196 64.9185L61.1801 61.5574L63.039 62.1092L63.7187 65.2163C63.8528 65.4235 63.9005 65.6692 63.8527 65.9069C63.805 66.1446 63.6652 66.3578 63.4597 66.506C63.2542 66.6543 62.9974 66.7273 62.7379 66.7112C62.4783 66.6952 62.2342 66.5912 62.0517 66.4189Z" fill="#FFB6B6"/>
</g>
<g filter="url(#filter44_d_735_25)">
<path d="M59.5624 49.7071L60.7251 49.0693C60.7251 49.0693 62.5539 48.7695 62.7491 51.0349C62.9443 53.3002 63.2255 59.1807 63.2255 59.1807L63.7959 64.1379L61.6791 64.5575L59.2462 57.7785L59.5624 49.7071Z" fill="#F9A826"/>
</g>
<g filter="url(#filter45_d_735_25)">
<path d="M70.2393 89H42.1326C42.0974 89 42.0637 88.987 42.0388 88.9639C42.014 88.9408 42 88.9094 42 88.8767C42 88.844 42.014 88.8127 42.0388 88.7896C42.0637 88.7665 42.0974 88.7535 42.1326 88.7535H70.2393C70.2745 88.7535 70.3082 88.7665 70.333 88.7896C70.3579 88.8127 70.3719 88.844 70.3719 88.8767C70.3719 88.9094 70.3579 88.9408 70.333 88.9639C70.3082 88.987 70.2745 89 70.2393 89Z" fill="#CACACA"/>
</g>
</g>
<defs>
<filter id="filter0_d_735_25" x="0" y="0" width="165" height="162" filterUnits="userSpaceOnUse" color-interpolation-filters="sRGB">
<feFlood flood-opacity="0" result="BackgroundImageFix"/>
<feColorMatrix in="SourceAlpha" type="matrix" values="0 0 0 0 0 0 0 0 0 0 0 0 0 0 0 0 0 0 127 0" result="hardAlpha"/>
<feOffset dy="4"/>
<feGaussianBlur stdDeviation="2"/>
<feComposite in2="hardAlpha" operator="out"/>
<feColorMatrix type="matrix" values="0 0 0 0 0 0 0 0 0 0 0 0 0 0 0 0 0 0 0.25 0"/>
<feBlend mode="normal" in2="BackgroundImageFix" result="effect1_dropShadow_735_25"/>
<feBlend mode="normal" in="SourceGraphic" in2="effect1_dropShadow_735_25" result="shape"/>
</filter>
<filter id="filter1_d_735_25" x="39.0991" y="80.1162" width="14.4971" height="16.758" filterUnits="userSpaceOnUse" color-interpolation-filters="sRGB">
<feFlood flood-opacity="0" result="BackgroundImageFix"/>
<feColorMatrix in="SourceAlpha" type="matrix" values="0 0 0 0 0 0 0 0 0 0 0 0 0 0 0 0 0 0 127 0" result="hardAlpha"/>
<feOffset dy="4"/>
<feGaussianBlur stdDeviation="2"/>
<feComposite in2="hardAlpha" operator="out"/>
<feColorMatrix type="matrix" values="0 0 0 0 0 0 0 0 0 0 0 0 0 0 0 0 0 0 0.25 0"/>
<feBlend mode="normal" in2="BackgroundImageFix" result="effect1_dropShadow_735_25"/>
<feBlend mode="normal" in="SourceGraphic" in2="effect1_dropShadow_735_25" result="shape"/>
</filter>
<filter id="filter2_d_735_25" x="41.123" y="85.2586" width="13.1456" height="11.7243" filterUnits="userSpaceOnUse" color-interpolation-filters="sRGB">
<feFlood flood-opacity="0" result="BackgroundImageFix"/>
<feColorMatrix in="SourceAlpha" type="matrix" values="0 0 0 0 0 0 0 0 0 0 0 0 0 0 0 0 0 0 127 0" result="hardAlpha"/>
<feOffset dy="4"/>
<feGaussianBlur stdDeviation="2"/>
<feComposite in2="hardAlpha" operator="out"/>
<feColorMatrix type="matrix" values="0 0 0 0 0 0 0 0 0 0 0 0 0 0 0 0 0 0 0.25 0"/>
<feBlend mode="normal" in2="BackgroundImageFix" result="effect1_dropShadow_735_25"/>
<feBlend mode="normal" in="SourceGraphic" in2="effect1_dropShadow_735_25" result="shape"/>
</filter>
<filter id="filter3_d_735_25" x="43.2065" y="22.5131" width="84.7932" height="8.20666" filterUnits="userSpaceOnUse" color-interpolation-filters="sRGB">
<feFlood flood-opacity="0" result="BackgroundImageFix"/>
<feColorMatrix in="SourceAlpha" type="matrix" values="0 0 0 0 0 0 0 0 0 0 0 0 0 0 0 0 0 0 127 0" result="hardAlpha"/>
<feOffset dy="4"/>
<feGaussianBlur stdDeviation="2"/>
<feComposite in2="hardAlpha" operator="out"/>
<feColorMatrix type="matrix" values="0 0 0 0 0 0 0 0 0 0 0 0 0 0 0 0 0 0 0.25 0"/>
<feBlend mode="normal" in2="BackgroundImageFix" result="effect1_dropShadow_735_25"/>
<feBlend mode="normal" in="SourceGraphic" in2="effect1_dropShadow_735_25" result="shape"/>
</filter>
<filter id="filter4_d_735_25" x="44.5961" y="19" width="10.4449" height="10.2732" filterUnits="userSpaceOnUse" color-interpolation-filters="sRGB">
<feFlood flood-opacity="0" result="BackgroundImageFix"/>
<feColorMatrix in="SourceAlpha" type="matrix" values="0 0 0 0 0 0 0 0 0 0 0 0 0 0 0 0 0 0 127 0" result="hardAlpha"/>
<feOffset dy="4"/>
<feGaussianBlur stdDeviation="2"/>
<feComposite in2="hardAlpha" operator="out"/>
<feColorMatrix type="matrix" values="0 0 0 0 0 0 0 0 0 0 0 0 0 0 0 0 0 0 0.25 0"/>
<feBlend mode="normal" in2="BackgroundImageFix" result="effect1_dropShadow_735_25"/>
<feBlend mode="normal" in="SourceGraphic" in2="effect1_dropShadow_735_25" result="shape"/>
</filter>
<filter id="filter5_d_735_25" x="48.8192" y="19" width="10.4449" height="10.2732" filterUnits="userSpaceOnUse" color-interpolation-filters="sRGB">
<feFlood flood-opacity="0" result="BackgroundImageFix"/>
<feColorMatrix in="SourceAlpha" type="matrix" values="0 0 0 0 0 0 0 0 0 0 0 0 0 0 0 0 0 0 127 0" result="hardAlpha"/>
<feOffset dy="4"/>
<feGaussianBlur stdDeviation="2"/>
<feComposite in2="hardAlpha" operator="out"/>
<feColorMatrix type="matrix" values="0 0 0 0 0 0 0 0 0 0 0 0 0 0 0 0 0 0 0.25 0"/>
<feBlend mode="normal" in2="BackgroundImageFix" result="effect1_dropShadow_735_25"/>
<feBlend mode="normal" in="SourceGraphic" in2="effect1_dropShadow_735_25" result="shape"/>
</filter>
<filter id="filter6_d_735_25" x="53.0424" y="19" width="10.4449" height="10.2732" filterUnits="userSpaceOnUse" color-interpolation-filters="sRGB">
<feFlood flood-opacity="0" result="BackgroundImageFix"/>
<feColorMatrix in="SourceAlpha" type="matrix" values="0 0 0 0 0 0 0 0 0 0 0 0 0 0 0 0 0 0 127 0" result="hardAlpha"/>
<feOffset dy="4"/>
<feGaussianBlur stdDeviation="2"/>
<feComposite in2="hardAlpha" operator="out"/>
<feColorMatrix type="matrix" values="0 0 0 0 0 0 0 0 0 0 0 0 0 0 0 0 0 0 0.25 0"/>
<feBlend mode="normal" in2="BackgroundImageFix" result="effect1_dropShadow_735_25"/>
<feBlend mode="normal" in="SourceGraphic" in2="effect1_dropShadow_735_25" result="shape"/>
</filter>
<filter id="filter7_d_735_25" x="44.5655" y="27.1506" width="58.7885" height="36.3117" filterUnits="userSpaceOnUse" color-interpolation-filters="sRGB">
<feFlood flood-opacity="0" result="BackgroundImageFix"/>
<feColorMatrix in="SourceAlpha" type="matrix" values="0 0 0 0 0 0 0 0 0 0 0 0 0 0 0 0 0 0 127 0" result="hardAlpha"/>
<feOffset dy="4"/>
<feGaussianBlur stdDeviation="2"/>
<feComposite in2="hardAlpha" operator="out"/>
<feColorMatrix type="matrix" values="0 0 0 0 0 0 0 0 0 0 0 0 0 0 0 0 0 0 0.25 0"/>
<feBlend mode="normal" in2="BackgroundImageFix" result="effect1_dropShadow_735_25"/>
<feBlend mode="normal" in="SourceGraphic" in2="effect1_dropShadow_735_25" result="shape"/>
</filter>
<filter id="filter8_d_735_25" x="101.578" y="27.1506" width="24.0034" height="16.921" filterUnits="userSpaceOnUse" color-interpolation-filters="sRGB">
<feFlood flood-opacity="0" result="BackgroundImageFix"/>
<feColorMatrix in="SourceAlpha" type="matrix" values="0 0 0 0 0 0 0 0 0 0 0 0 0 0 0 0 0 0 127 0" result="hardAlpha"/>
<feOffset dy="4"/>
<feGaussianBlur stdDeviation="2"/>
<feComposite in2="hardAlpha" operator="out"/>
<feColorMatrix type="matrix" values="0 0 0 0 0 0 0 0 0 0 0 0 0 0 0 0 0 0 0.25 0"/>
<feBlend mode="normal" in2="BackgroundImageFix" result="effect1_dropShadow_735_25"/>
<feBlend mode="normal" in="SourceGraphic" in2="effect1_dropShadow_735_25" result="shape"/>
</filter>
<filter id="filter9_d_735_25" x="104.418" y="39.3359" width="18.4189" height="8.83398" filterUnits="userSpaceOnUse" color-interpolation-filters="sRGB">
<feFlood flood-opacity="0" result="BackgroundImageFix"/>
<feColorMatrix in="SourceAlpha" type="matrix" values="0 0 0 0 0 0 0 0 0 0 0 0 0 0 0 0 0 0 127 0" result="hardAlpha"/>
<feOffset dy="4"/>
<feGaussianBlur stdDeviation="2"/>
<feComposite in2="hardAlpha" operator="out"/>
<feColorMatrix type="matrix" values="0 0 0 0 0 0 0 0 0 0 0 0 0 0 0 0 0 0 0.25 0"/>
<feBlend mode="normal" in2="BackgroundImageFix" result="effect1_dropShadow_735_25"/>
<feBlend mode="normal" in="SourceGraphic" in2="effect1_dropShadow_735_25" result="shape"/>
</filter>
<filter id="filter10_d_735_25" x="105.953" y="37.9085" width="15.3484" height="8.83398" filterUnits="userSpaceOnUse" color-interpolation-filters="sRGB">
<feFlood flood-opacity="0" result="BackgroundImageFix"/>
<feColorMatrix in="SourceAlpha" type="matrix" values="0 0 0 0 0 0 0 0 0 0 0 0 0 0 0 0 0 0 127 0" result="hardAlpha"/>
<feOffset dy="4"/>
<feGaussianBlur stdDeviation="2"/>
<feComposite in2="hardAlpha" operator="out"/>
<feColorMatrix type="matrix" values="0 0 0 0 0 0 0 0 0 0 0 0 0 0 0 0 0 0 0.25 0"/>
<feBlend mode="normal" in2="BackgroundImageFix" result="effect1_dropShadow_735_25"/>
<feBlend mode="normal" in="SourceGraphic" in2="effect1_dropShadow_735_25" result="shape"/>
</filter>
<filter id="filter11_d_735_25" x="101.578" y="43.373" width="24.0034" height="16.921" filterUnits="userSpaceOnUse" color-interpolation-filters="sRGB">
<feFlood flood-opacity="0" result="BackgroundImageFix"/>
<feColorMatrix in="SourceAlpha" type="matrix" values="0 0 0 0 0 0 0 0 0 0 0 0 0 0 0 0 0 0 127 0" result="hardAlpha"/>
<feOffset dy="4"/>
<feGaussianBlur stdDeviation="2"/>
<feComposite in2="hardAlpha" operator="out"/>
<feColorMatrix type="matrix" values="0 0 0 0 0 0 0 0 0 0 0 0 0 0 0 0 0 0 0.25 0"/>
<feBlend mode="normal" in2="BackgroundImageFix" result="effect1_dropShadow_735_25"/>
<feBlend mode="normal" in="SourceGraphic" in2="effect1_dropShadow_735_25" result="shape"/>
</filter>
<filter id="filter12_d_735_25" x="104.418" y="55.5583" width="18.4189" height="8.83398" filterUnits="userSpaceOnUse" color-interpolation-filters="sRGB">
<feFlood flood-opacity="0" result="BackgroundImageFix"/>
<feColorMatrix in="SourceAlpha" type="matrix" values="0 0 0 0 0 0 0 0 0 0 0 0 0 0 0 0 0 0 127 0" result="hardAlpha"/>
<feOffset dy="4"/>
<feGaussianBlur stdDeviation="2"/>
<feComposite in2="hardAlpha" operator="out"/>
<feColorMatrix type="matrix" values="0 0 0 0 0 0 0 0 0 0 0 0 0 0 0 0 0 0 0.25 0"/>
<feBlend mode="normal" in2="BackgroundImageFix" result="effect1_dropShadow_735_25"/>
<feBlend mode="normal" in="SourceGraphic" in2="effect1_dropShadow_735_25" result="shape"/>
</filter>
<filter id="filter13_d_735_25" x="105.953" y="54.1309" width="15.3477" height="8.83398" filterUnits="userSpaceOnUse" color-interpolation-filters="sRGB">
<feFlood flood-opacity="0" result="BackgroundImageFix"/>
<feColorMatrix in="SourceAlpha" type="matrix" values="0 0 0 0 0 0 0 0 0 0 0 0 0 0 0 0 0 0 127 0" result="hardAlpha"/>
<feOffset dy="4"/>
<feGaussianBlur stdDeviation="2"/>
<feComposite in2="hardAlpha" operator="out"/>
<feColorMatrix type="matrix" values="0 0 0 0 0 0 0 0 0 0 0 0 0 0 0 0 0 0 0.25 0"/>
<feBlend mode="normal" in2="BackgroundImageFix" result="effect1_dropShadow_735_25"/>
<feBlend mode="normal" in="SourceGraphic" in2="effect1_dropShadow_735_25" result="shape"/>
</filter>
<filter id="filter14_d_735_25" x="67.0523" y="35.3337" width="15.58" height="15.0475" filterUnits="userSpaceOnUse" color-interpolation-filters="sRGB">
<feFlood flood-opacity="0" result="BackgroundImageFix"/>
<feColorMatrix in="SourceAlpha" type="matrix" values="0 0 0 0 0 0 0 0 0 0 0 0 0 0 0 0 0 0 127 0" result="hardAlpha"/>
<feOffset dy="4"/>
<feGaussianBlur stdDeviation="2"/>
<feComposite in2="hardAlpha" operator="out"/>
<feColorMatrix type="matrix" values="0 0 0 0 0 0 0 0 0 0 0 0 0 0 0 0 0 0 0.25 0"/>
<feBlend mode="normal" in2="BackgroundImageFix" result="effect1_dropShadow_735_25"/>
<feBlend mode="normal" in="SourceGraphic" in2="effect1_dropShadow_735_25" result="shape"/>
</filter>
<filter id="filter15_d_735_25" x="67.7249" y="43.2996" width="17.5031" height="20.1627" filterUnits="userSpaceOnUse" color-interpolation-filters="sRGB">
<feFlood flood-opacity="0" result="BackgroundImageFix"/>
<feColorMatrix in="SourceAlpha" type="matrix" values="0 0 0 0 0 0 0 0 0 0 0 0 0 0 0 0 0 0 127 0" result="hardAlpha"/>
<feOffset dy="4"/>
<feGaussianBlur stdDeviation="2"/>
<feComposite in2="hardAlpha" operator="out"/>
<feColorMatrix type="matrix" values="0 0 0 0 0 0 0 0 0 0 0 0 0 0 0 0 0 0 0.25 0"/>
<feBlend mode="normal" in2="BackgroundImageFix" result="effect1_dropShadow_735_25"/>
<feBlend mode="normal" in="SourceGraphic" in2="effect1_dropShadow_735_25" result="shape"/>
</filter>
<filter id="filter16_d_735_25" x="63.0471" y="44.18" width="15.3082" height="19.2823" filterUnits="userSpaceOnUse" color-interpolation-filters="sRGB">
<feFlood flood-opacity="0" result="BackgroundImageFix"/>
<feColorMatrix in="SourceAlpha" type="matrix" values="0 0 0 0 0 0 0 0 0 0 0 0 0 0 0 0 0 0 127 0" result="hardAlpha"/>
<feOffset dy="4"/>
<feGaussianBlur stdDeviation="2"/>
<feComposite in2="hardAlpha" operator="out"/>
<feColorMatrix type="matrix" values="0 0 0 0 0 0 0 0 0 0 0 0 0 0 0 0 0 0 0.25 0"/>
<feBlend mode="normal" in2="BackgroundImageFix" result="effect1_dropShadow_735_25"/>
<feBlend mode="normal" in="SourceGraphic" in2="effect1_dropShadow_735_25" result="shape"/>
</filter>
<filter id="filter17_d_735_25" x="73.1336" y="44.18" width="15.0494" height="19.2823" filterUnits="userSpaceOnUse" color-interpolation-filters="sRGB">
<feFlood flood-opacity="0" result="BackgroundImageFix"/>
<feColorMatrix in="SourceAlpha" type="matrix" values="0 0 0 0 0 0 0 0 0 0 0 0 0 0 0 0 0 0 127 0" result="hardAlpha"/>
<feOffset dy="4"/>
<feGaussianBlur stdDeviation="2"/>
<feComposite in2="hardAlpha" operator="out"/>
<feColorMatrix type="matrix" values="0 0 0 0 0 0 0 0 0 0 0 0 0 0 0 0 0 0 0.25 0"/>
<feBlend mode="normal" in2="BackgroundImageFix" result="effect1_dropShadow_735_25"/>
<feBlend mode="normal" in="SourceGraphic" in2="effect1_dropShadow_735_25" result="shape"/>
</filter>
<filter id="filter18_d_735_25" x="66.2833" y="33.8669" width="16.9604" height="14.093" filterUnits="userSpaceOnUse" color-interpolation-filters="sRGB">
<feFlood flood-opacity="0" result="BackgroundImageFix"/>
<feColorMatrix in="SourceAlpha" type="matrix" values="0 0 0 0 0 0 0 0 0 0 0 0 0 0 0 0 0 0 127 0" result="hardAlpha"/>
<feOffset dy="4"/>
<feGaussianBlur stdDeviation="2"/>
<feComposite in2="hardAlpha" operator="out"/>
<feColorMatrix type="matrix" values="0 0 0 0 0 0 0 0 0 0 0 0 0 0 0 0 0 0 0.25 0"/>
<feBlend mode="normal" in2="BackgroundImageFix" result="effect1_dropShadow_735_25"/>
<feBlend mode="normal" in="SourceGraphic" in2="effect1_dropShadow_735_25" result="shape"/>
</filter>
<filter id="filter19_d_735_25" x="61.0401" y="47.751" width="11.1039" height="15.7113" filterUnits="userSpaceOnUse" color-interpolation-filters="sRGB">
<feFlood flood-opacity="0" result="BackgroundImageFix"/>
<feColorMatrix in="SourceAlpha" type="matrix" values="0 0 0 0 0 0 0 0 0 0 0 0 0 0 0 0 0 0 127 0" result="hardAlpha"/>
<feOffset dy="4"/>
<feGaussianBlur stdDeviation="2"/>
<feComposite in2="hardAlpha" operator="out"/>
<feColorMatrix type="matrix" values="0 0 0 0 0 0 0 0 0 0 0 0 0 0 0 0 0 0 0.25 0"/>
<feBlend mode="normal" in2="BackgroundImageFix" result="effect1_dropShadow_735_25"/>
<feBlend mode="normal" in="SourceGraphic" in2="effect1_dropShadow_735_25" result="shape"/>
</filter>
<filter id="filter20_d_735_25" x="77.4991" y="46.6278" width="12.1953" height="16.8345" filterUnits="userSpaceOnUse" color-interpolation-filters="sRGB">
<feFlood flood-opacity="0" result="BackgroundImageFix"/>
<feColorMatrix in="SourceAlpha" type="matrix" values="0 0 0 0 0 0 0 0 0 0 0 0 0 0 0 0 0 0 127 0" result="hardAlpha"/>
<feOffset dy="4"/>
<feGaussianBlur stdDeviation="2"/>
<feComposite in2="hardAlpha" operator="out"/>
<feColorMatrix type="matrix" values="0 0 0 0 0 0 0 0 0 0 0 0 0 0 0 0 0 0 0.25 0"/>
<feBlend mode="normal" in2="BackgroundImageFix" result="effect1_dropShadow_735_25"/>
<feBlend mode="normal" in="SourceGraphic" in2="effect1_dropShadow_735_25" result="shape"/>
</filter>
<filter id="filter21_d_735_25" x="52.2346" y="58.9238" width="43.4519" height="8.92995" filterUnits="userSpaceOnUse" color-interpolation-filters="sRGB">
<feFlood flood-opacity="0" result="BackgroundImageFix"/>
<feColorMatrix in="SourceAlpha" type="matrix" values="0 0 0 0 0 0 0 0 0 0 0 0 0 0 0 0 0 0 127 0" result="hardAlpha"/>
<feOffset dy="4"/>
<feGaussianBlur stdDeviation="2"/>
<feComposite in2="hardAlpha" operator="out"/>
<feColorMatrix type="matrix" values="0 0 0 0 0 0 0 0 0 0 0 0 0 0 0 0 0 0 0.25 0"/>
<feBlend mode="normal" in2="BackgroundImageFix" result="effect1_dropShadow_735_25"/>
<feBlend mode="normal" in="SourceGraphic" in2="effect1_dropShadow_735_25" result="shape"/>
</filter>
<filter id="filter22_d_735_25" x="52.2346" y="58.9238" width="33.6157" height="8.92995" filterUnits="userSpaceOnUse" color-interpolation-filters="sRGB">
<feFlood flood-opacity="0" result="BackgroundImageFix"/>
<feColorMatrix in="SourceAlpha" type="matrix" values="0 0 0 0 0 0 0 0 0 0 0 0 0 0 0 0 0 0 127 0" result="hardAlpha"/>
<feOffset dy="4"/>
<feGaussianBlur stdDeviation="2"/>
<feComposite in2="hardAlpha" operator="out"/>
<feColorMatrix type="matrix" values="0 0 0 0 0 0 0 0 0 0 0 0 0 0 0 0 0 0 0.25 0"/>
<feBlend mode="normal" in2="BackgroundImageFix" result="effect1_dropShadow_735_25"/>
<feBlend mode="normal" in="SourceGraphic" in2="effect1_dropShadow_735_25" result="shape"/>
</filter>
<filter id="filter23_d_735_25" x="76.8501" y="58.4588" width="10.0004" height="9.85989" filterUnits="userSpaceOnUse" color-interpolation-filters="sRGB">
<feFlood flood-opacity="0" result="BackgroundImageFix"/>
<feColorMatrix in="SourceAlpha" type="matrix" values="0 0 0 0 0 0 0 0 0 0 0 0 0 0 0 0 0 0 127 0" result="hardAlpha"/>
<feOffset dy="4"/>
<feGaussianBlur stdDeviation="2"/>
<feComposite in2="hardAlpha" operator="out"/>
<feColorMatrix type="matrix" values="0 0 0 0 0 0 0 0 0 0 0 0 0 0 0 0 0 0 0.25 0"/>
<feBlend mode="normal" in2="BackgroundImageFix" result="effect1_dropShadow_735_25"/>
<feBlend mode="normal" in="SourceGraphic" in2="effect1_dropShadow_735_25" result="shape"/>
</filter>
<filter id="filter24_d_735_25" x="67.895" y="63.299" width="12.1294" height="11.8393" filterUnits="userSpaceOnUse" color-interpolation-filters="sRGB">
<feFlood flood-opacity="0" result="BackgroundImageFix"/>
<feColorMatrix in="SourceAlpha" type="matrix" values="0 0 0 0 0 0 0 0 0 0 0 0 0 0 0 0 0 0 127 0" result="hardAlpha"/>
<feOffset dy="4"/>
<feGaussianBlur stdDeviation="2"/>
<feComposite in2="hardAlpha" operator="out"/>
<feColorMatrix type="matrix" values="0 0 0 0 0 0 0 0 0 0 0 0 0 0 0 0 0 0 0.25 0"/>
<feBlend mode="normal" in2="BackgroundImageFix" result="effect1_dropShadow_735_25"/>
<feBlend mode="normal" in="SourceGraphic" in2="effect1_dropShadow_735_25" result="shape"/>
</filter>
<filter id="filter25_d_735_25" x="69.6076" y="64.1842" width="8.15881" height="10.068" filterUnits="userSpaceOnUse" color-interpolation-filters="sRGB">
<feFlood flood-opacity="0" result="BackgroundImageFix"/>
<feColorMatrix in="SourceAlpha" type="matrix" values="0 0 0 0 0 0 0 0 0 0 0 0 0 0 0 0 0 0 127 0" result="hardAlpha"/>
<feOffset dy="4"/>
<feGaussianBlur stdDeviation="2"/>
<feComposite in2="hardAlpha" operator="out"/>
<feColorMatrix type="matrix" values="0 0 0 0 0 0 0 0 0 0 0 0 0 0 0 0 0 0 0.25 0"/>
<feBlend mode="normal" in2="BackgroundImageFix" result="effect1_dropShadow_735_25"/>
<feBlend mode="normal" in="SourceGraphic" in2="effect1_dropShadow_735_25" result="shape"/>
</filter>
<filter id="filter26_d_735_25" x="70.153" y="64.1843" width="8.15881" height="10.068" filterUnits="userSpaceOnUse" color-interpolation-filters="sRGB">
<feFlood flood-opacity="0" result="BackgroundImageFix"/>
<feColorMatrix in="SourceAlpha" type="matrix" values="0 0 0 0 0 0 0 0 0 0 0 0 0 0 0 0 0 0 127 0" result="hardAlpha"/>
<feOffset dy="4"/>
<feGaussianBlur stdDeviation="2"/>
<feComposite in2="hardAlpha" operator="out"/>
<feColorMatrix type="matrix" values="0 0 0 0 0 0 0 0 0 0 0 0 0 0 0 0 0 0 0.25 0"/>
<feBlend mode="normal" in2="BackgroundImageFix" result="effect1_dropShadow_735_25"/>
<feBlend mode="normal" in="SourceGraphic" in2="effect1_dropShadow_735_25" result="shape"/>
</filter>
<filter id="filter27_d_735_25" x="60.503" y="63.299" width="12.1294" height="11.8393" filterUnits="userSpaceOnUse" color-interpolation-filters="sRGB">
<feFlood flood-opacity="0" result="BackgroundImageFix"/>
<feColorMatrix in="SourceAlpha" type="matrix" values="0 0 0 0 0 0 0 0 0 0 0 0 0 0 0 0 0 0 127 0" result="hardAlpha"/>
<feOffset dy="4"/>
<feGaussianBlur stdDeviation="2"/>
<feComposite in2="hardAlpha" operator="out"/>
<feColorMatrix type="matrix" values="0 0 0 0 0 0 0 0 0 0 0 0 0 0 0 0 0 0 0.25 0"/>
<feBlend mode="normal" in2="BackgroundImageFix" result="effect1_dropShadow_735_25"/>
<feBlend mode="normal" in="SourceGraphic" in2="effect1_dropShadow_735_25" result="shape"/>
</filter>
<filter id="filter28_d_735_25" x="62.3038" y="64.5723" width="9.22174" height="9.29264" filterUnits="userSpaceOnUse" color-interpolation-filters="sRGB">
<feFlood flood-opacity="0" result="BackgroundImageFix"/>
<feColorMatrix in="SourceAlpha" type="matrix" values="0 0 0 0 0 0 0 0 0 0 0 0 0 0 0 0 0 0 127 0" result="hardAlpha"/>
<feOffset dy="4"/>
<feGaussianBlur stdDeviation="2"/>
<feComposite in2="hardAlpha" operator="out"/>
<feColorMatrix type="matrix" values="0 0 0 0 0 0 0 0 0 0 0 0 0 0 0 0 0 0 0.25 0"/>
<feBlend mode="normal" in2="BackgroundImageFix" result="effect1_dropShadow_735_25"/>
<feBlend mode="normal" in="SourceGraphic" in2="effect1_dropShadow_735_25" result="shape"/>
</filter>
<filter id="filter29_d_735_25" x="61.9324" y="64.359" width="8.13208" height="9.71918" filterUnits="userSpaceOnUse" color-interpolation-filters="sRGB">
<feFlood flood-opacity="0" result="BackgroundImageFix"/>
<feColorMatrix in="SourceAlpha" type="matrix" values="0 0 0 0 0 0 0 0 0 0 0 0 0 0 0 0 0 0 127 0" result="hardAlpha"/>
<feOffset dy="4"/>
<feGaussianBlur stdDeviation="2"/>
<feComposite in2="hardAlpha" operator="out"/>
<feColorMatrix type="matrix" values="0 0 0 0 0 0 0 0 0 0 0 0 0 0 0 0 0 0 0.25 0"/>
<feBlend mode="normal" in2="BackgroundImageFix" result="effect1_dropShadow_735_25"/>
<feBlend mode="normal" in="SourceGraphic" in2="effect1_dropShadow_735_25" result="shape"/>
</filter>
<filter id="filter30_d_735_25" x="75.2871" y="63.299" width="12.1294" height="11.8393" filterUnits="userSpaceOnUse" color-interpolation-filters="sRGB">
<feFlood flood-opacity="0" result="BackgroundImageFix"/>
<feColorMatrix in="SourceAlpha" type="matrix" values="0 0 0 0 0 0 0 0 0 0 0 0 0 0 0 0 0 0 127 0" result="hardAlpha"/>
<feOffset dy="4"/>
<feGaussianBlur stdDeviation="2"/>
<feComposite in2="hardAlpha" operator="out"/>
<feColorMatrix type="matrix" values="0 0 0 0 0 0 0 0 0 0 0 0 0 0 0 0 0 0 0.25 0"/>
<feBlend mode="normal" in2="BackgroundImageFix" result="effect1_dropShadow_735_25"/>
<feBlend mode="normal" in="SourceGraphic" in2="effect1_dropShadow_735_25" result="shape"/>
</filter>
<filter id="filter31_d_735_25" x="76.3939" y="64.5724" width="9.22174" height="9.29253" filterUnits="userSpaceOnUse" color-interpolation-filters="sRGB">
<feFlood flood-opacity="0" result="BackgroundImageFix"/>
<feColorMatrix in="SourceAlpha" type="matrix" values="0 0 0 0 0 0 0 0 0 0 0 0 0 0 0 0 0 0 127 0" result="hardAlpha"/>
<feOffset dy="4"/>
<feGaussianBlur stdDeviation="2"/>
<feComposite in2="hardAlpha" operator="out"/>
<feColorMatrix type="matrix" values="0 0 0 0 0 0 0 0 0 0 0 0 0 0 0 0 0 0 0.25 0"/>
<feBlend mode="normal" in2="BackgroundImageFix" result="effect1_dropShadow_735_25"/>
<feBlend mode="normal" in="SourceGraphic" in2="effect1_dropShadow_735_25" result="shape"/>
</filter>
<filter id="filter32_d_735_25" x="77.855" y="64.359" width="8.13208" height="9.71918" filterUnits="userSpaceOnUse" color-interpolation-filters="sRGB">
<feFlood flood-opacity="0" result="BackgroundImageFix"/>
<feColorMatrix in="SourceAlpha" type="matrix" values="0 0 0 0 0 0 0 0 0 0 0 0 0 0 0 0 0 0 127 0" result="hardAlpha"/>
<feOffset dy="4"/>
<feGaussianBlur stdDeviation="2"/>
<feComposite in2="hardAlpha" operator="out"/>
<feColorMatrix type="matrix" values="0 0 0 0 0 0 0 0 0 0 0 0 0 0 0 0 0 0 0.25 0"/>
<feBlend mode="normal" in2="BackgroundImageFix" result="effect1_dropShadow_735_25"/>
<feBlend mode="normal" in="SourceGraphic" in2="effect1_dropShadow_735_25" result="shape"/>
</filter>
<filter id="filter33_d_735_25" x="49.2254" y="61.804" width="10.6907" height="13.156" filterUnits="userSpaceOnUse" color-interpolation-filters="sRGB">
<feFlood flood-opacity="0" result="BackgroundImageFix"/>
<feColorMatrix in="SourceAlpha" type="matrix" values="0 0 0 0 0 0 0 0 0 0 0 0 0 0 0 0 0 0 127 0" result="hardAlpha"/>
<feOffset dy="4"/>
<feGaussianBlur stdDeviation="2"/>
<feComposite in2="hardAlpha" operator="out"/>
<feColorMatrix type="matrix" values="0 0 0 0 0 0 0 0 0 0 0 0 0 0 0 0 0 0 0.25 0"/>
<feBlend mode="normal" in2="BackgroundImageFix" result="effect1_dropShadow_735_25"/>
<feBlend mode="normal" in="SourceGraphic" in2="effect1_dropShadow_735_25" result="shape"/>
</filter>
<filter id="filter34_d_735_25" x="47.9351" y="49.5475" width="11.5848" height="23.2891" filterUnits="userSpaceOnUse" color-interpolation-filters="sRGB">
<feFlood flood-opacity="0" result="BackgroundImageFix"/>
<feColorMatrix in="SourceAlpha" type="matrix" values="0 0 0 0 0 0 0 0 0 0 0 0 0 0 0 0 0 0 127 0" result="hardAlpha"/>
<feOffset dy="4"/>
<feGaussianBlur stdDeviation="2"/>
<feComposite in2="hardAlpha" operator="out"/>
<feColorMatrix type="matrix" values="0 0 0 0 0 0 0 0 0 0 0 0 0 0 0 0 0 0 0.25 0"/>
<feBlend mode="normal" in2="BackgroundImageFix" result="effect1_dropShadow_735_25"/>
<feBlend mode="normal" in="SourceGraphic" in2="effect1_dropShadow_735_25" result="shape"/>
</filter>
<filter id="filter35_d_735_25" x="51.04" y="82.5902" width="10.0318" height="12.9366" filterUnits="userSpaceOnUse" color-interpolation-filters="sRGB">
<feFlood flood-opacity="0" result="BackgroundImageFix"/>
<feColorMatrix in="SourceAlpha" type="matrix" values="0 0 0 0 0 0 0 0 0 0 0 0 0 0 0 0 0 0 127 0" result="hardAlpha"/>
<feOffset dy="4"/>
<feGaussianBlur stdDeviation="2"/>
<feComposite in2="hardAlpha" operator="out"/>
<feColorMatrix type="matrix" values="0 0 0 0 0 0 0 0 0 0 0 0 0 0 0 0 0 0 0.25 0"/>
<feBlend mode="normal" in2="BackgroundImageFix" result="effect1_dropShadow_735_25"/>
<feBlend mode="normal" in="SourceGraphic" in2="effect1_dropShadow_735_25" result="shape"/>
</filter>
<filter id="filter36_d_735_25" x="50.6892" y="87.1089" width="12.4387" height="9.65858" filterUnits="userSpaceOnUse" color-interpolation-filters="sRGB">
<feFlood flood-opacity="0" result="BackgroundImageFix"/>
<feColorMatrix in="SourceAlpha" type="matrix" values="0 0 0 0 0 0 0 0 0 0 0 0 0 0 0 0 0 0 127 0" result="hardAlpha"/>
<feOffset dy="4"/>
<feGaussianBlur stdDeviation="2"/>
<feComposite in2="hardAlpha" operator="out"/>
<feColorMatrix type="matrix" values="0 0 0 0 0 0 0 0 0 0 0 0 0 0 0 0 0 0 0.25 0"/>
<feBlend mode="normal" in2="BackgroundImageFix" result="effect1_dropShadow_735_25"/>
<feBlend mode="normal" in="SourceGraphic" in2="effect1_dropShadow_735_25" result="shape"/>
</filter>
<filter id="filter37_d_735_25" x="55.0548" y="82.1737" width="10.6627" height="13.0556" filterUnits="userSpaceOnUse" color-interpolation-filters="sRGB">
<feFlood flood-opacity="0" result="BackgroundImageFix"/>
<feColorMatrix in="SourceAlpha" type="matrix" values="0 0 0 0 0 0 0 0 0 0 0 0 0 0 0 0 0 0 127 0" result="hardAlpha"/>
<feOffset dy="4"/>
<feGaussianBlur stdDeviation="2"/>
<feComposite in2="hardAlpha" operator="out"/>
<feColorMatrix type="matrix" values="0 0 0 0 0 0 0 0 0 0 0 0 0 0 0 0 0 0 0.25 0"/>
<feBlend mode="normal" in2="BackgroundImageFix" result="effect1_dropShadow_735_25"/>
<feBlend mode="normal" in="SourceGraphic" in2="effect1_dropShadow_735_25" result="shape"/>
</filter>
<filter id="filter38_d_735_25" x="54.5439" y="86.6191" width="12.4253" height="10.1484" filterUnits="userSpaceOnUse" color-interpolation-filters="sRGB">
<feFlood flood-opacity="0" result="BackgroundImageFix"/>
<feColorMatrix in="SourceAlpha" type="matrix" values="0 0 0 0 0 0 0 0 0 0 0 0 0 0 0 0 0 0 127 0" result="hardAlpha"/>
<feOffset dy="4"/>
<feGaussianBlur stdDeviation="2"/>
<feComposite in2="hardAlpha" operator="out"/>
<feColorMatrix type="matrix" values="0 0 0 0 0 0 0 0 0 0 0 0 0 0 0 0 0 0 0.25 0"/>
<feBlend mode="normal" in2="BackgroundImageFix" result="effect1_dropShadow_735_25"/>
<feBlend mode="normal" in="SourceGraphic" in2="effect1_dropShadow_735_25" result="shape"/>
</filter>
<filter id="filter39_d_735_25" x="48.6297" y="62.2161" width="19.6404" height="31.9488" filterUnits="userSpaceOnUse" color-interpolation-filters="sRGB">
<feFlood flood-opacity="0" result="BackgroundImageFix"/>
<feColorMatrix in="SourceAlpha" type="matrix" values="0 0 0 0 0 0 0 0 0 0 0 0 0 0 0 0 0 0 127 0" result="hardAlpha"/>
<feOffset dy="4"/>
<feGaussianBlur stdDeviation="2"/>
<feComposite in2="hardAlpha" operator="out"/>
<feColorMatrix type="matrix" values="0 0 0 0 0 0 0 0 0 0 0 0 0 0 0 0 0 0 0.25 0"/>
<feBlend mode="normal" in2="BackgroundImageFix" result="effect1_dropShadow_735_25"/>
<feBlend mode="normal" in="SourceGraphic" in2="effect1_dropShadow_735_25" result="shape"/>
</filter>
<filter id="filter40_d_735_25" x="49.2005" y="47.9241" width="17.7532" height="23.7742" filterUnits="userSpaceOnUse" color-interpolation-filters="sRGB">
<feFlood flood-opacity="0" result="BackgroundImageFix"/>
<feColorMatrix in="SourceAlpha" type="matrix" values="0 0 0 0 0 0 0 0 0 0 0 0 0 0 0 0 0 0 127 0" result="hardAlpha"/>
<feOffset dy="4"/>
<feGaussianBlur stdDeviation="2"/>
<feComposite in2="hardAlpha" operator="out"/>
<feColorMatrix type="matrix" values="0 0 0 0 0 0 0 0 0 0 0 0 0 0 0 0 0 0 0.25 0"/>
<feBlend mode="normal" in2="BackgroundImageFix" result="effect1_dropShadow_735_25"/>
<feBlend mode="normal" in="SourceGraphic" in2="effect1_dropShadow_735_25" result="shape"/>
</filter>
<filter id="filter41_d_735_25" x="50.767" y="40.9837" width="14.1342" height="13.7032" filterUnits="userSpaceOnUse" color-interpolation-filters="sRGB">
<feFlood flood-opacity="0" result="BackgroundImageFix"/>
<feColorMatrix in="SourceAlpha" type="matrix" values="0 0 0 0 0 0 0 0 0 0 0 0 0 0 0 0 0 0 127 0" result="hardAlpha"/>
<feOffset dy="4"/>
<feGaussianBlur stdDeviation="2"/>
<feComposite in2="hardAlpha" operator="out"/>
<feColorMatrix type="matrix" values="0 0 0 0 0 0 0 0 0 0 0 0 0 0 0 0 0 0 0.25 0"/>
<feBlend mode="normal" in2="BackgroundImageFix" result="effect1_dropShadow_735_25"/>
<feBlend mode="normal" in="SourceGraphic" in2="effect1_dropShadow_735_25" result="shape"/>
</filter>
<filter id="filter42_d_735_25" x="48.7752" y="40.187" width="17.1779" height="15.0261" filterUnits="userSpaceOnUse" color-interpolation-filters="sRGB">
<feFlood flood-opacity="0" result="BackgroundImageFix"/>
<feColorMatrix in="SourceAlpha" type="matrix" values="0 0 0 0 0 0 0 0 0 0 0 0 0 0 0 0 0 0 127 0" result="hardAlpha"/>
<feOffset dy="4"/>
<feGaussianBlur stdDeviation="2"/>
<feComposite in2="hardAlpha" operator="out"/>
<feColorMatrix type="matrix" values="0 0 0 0 0 0 0 0 0 0 0 0 0 0 0 0 0 0 0.25 0"/>
<feBlend mode="normal" in2="BackgroundImageFix" result="effect1_dropShadow_735_25"/>
<feBlend mode="normal" in="SourceGraphic" in2="effect1_dropShadow_735_25" result="shape"/>
</filter>
<filter id="filter43_d_735_25" x="57.1801" y="61.5574" width="10.6907" height="13.156" filterUnits="userSpaceOnUse" color-interpolation-filters="sRGB">
<feFlood flood-opacity="0" result="BackgroundImageFix"/>
<feColorMatrix in="SourceAlpha" type="matrix" values="0 0 0 0 0 0 0 0 0 0 0 0 0 0 0 0 0 0 127 0" result="hardAlpha"/>
<feOffset dy="4"/>
<feGaussianBlur stdDeviation="2"/>
<feComposite in2="hardAlpha" operator="out"/>
<feColorMatrix type="matrix" values="0 0 0 0 0 0 0 0 0 0 0 0 0 0 0 0 0 0 0.25 0"/>
<feBlend mode="normal" in2="BackgroundImageFix" result="effect1_dropShadow_735_25"/>
<feBlend mode="normal" in="SourceGraphic" in2="effect1_dropShadow_735_25" result="shape"/>
</filter>
<filter id="filter44_d_735_25" x="55.2462" y="49.0561" width="12.5497" height="23.5014" filterUnits="userSpaceOnUse" color-interpolation-filters="sRGB">
<feFlood flood-opacity="0" result="BackgroundImageFix"/>
<feColorMatrix in="SourceAlpha" type="matrix" values="0 0 0 0 0 0 0 0 0 0 0 0 0 0 0 0 0 0 127 0" result="hardAlpha"/>
<feOffset dy="4"/>
<feGaussianBlur stdDeviation="2"/>
<feComposite in2="hardAlpha" operator="out"/>
<feColorMatrix type="matrix" values="0 0 0 0 0 0 0 0 0 0 0 0 0 0 0 0 0 0 0.25 0"/>
<feBlend mode="normal" in2="BackgroundImageFix" result="effect1_dropShadow_735_25"/>
<feBlend mode="normal" in="SourceGraphic" in2="effect1_dropShadow_735_25" result="shape"/>
</filter>
<filter id="filter45_d_735_25" x="38" y="88.7535" width="36.3719" height="8.24653" filterUnits="userSpaceOnUse" color-interpolation-filters="sRGB">
<feFlood flood-opacity="0" result="BackgroundImageFix"/>
<feColorMatrix in="SourceAlpha" type="matrix" values="0 0 0 0 0 0 0 0 0 0 0 0 0 0 0 0 0 0 127 0" result="hardAlpha"/>
<feOffset dy="4"/>
<feGaussianBlur stdDeviation="2"/>
<feComposite in2="hardAlpha" operator="out"/>
<feColorMatrix type="matrix" values="0 0 0 0 0 0 0 0 0 0 0 0 0 0 0 0 0 0 0.25 0"/>
<feBlend mode="normal" in2="BackgroundImageFix" result="effect1_dropShadow_735_25"/>
<feBlend mode="normal" in="SourceGraphic" in2="effect1_dropShadow_735_25" result="shape"/>
</filter>
<clipPath id="clip0_735_25">
<rect width="82" height="70" fill="white" transform="translate(42 19)"/>
</clipPath>
</defs>
</svg>
