<svg width="165" height="162" viewBox="0 0 165 162" fill="none" xmlns="http://www.w3.org/2000/svg">
<g filter="url(#filter0_d_735_26)">
<path d="M159 77C159 118.385 124.786 152 82.5 152C40.2137 152 6 118.385 6 77C6 35.6148 40.2137 2 82.5 2C124.786 2 159 35.6148 159 77Z" fill="white" stroke="#F9A826" stroke-width="4"/>
<path d="M34.8118 107V93.9091H42.7124V95.3153H36.397V99.7386H42.3033V101.145H36.397V105.594H42.8146V107H34.8118ZM46.8736 101.094V107H45.3651V97.1818H46.8224V98.7159H46.9503C47.1804 98.2173 47.5298 97.8168 47.9986 97.5142C48.4673 97.2074 49.0724 97.054 49.8139 97.054C50.4787 97.054 51.0604 97.1903 51.5589 97.4631C52.0575 97.7315 52.4453 98.1406 52.7223 98.6903C52.9993 99.2358 53.1378 99.9261 53.1378 100.761V107H51.6293V100.864C51.6293 100.092 51.429 99.4915 51.0284 99.0611C50.6278 98.6264 50.0781 98.4091 49.3793 98.4091C48.8977 98.4091 48.4673 98.5135 48.0881 98.7223C47.7131 98.9311 47.4169 99.2358 47.1996 99.6364C46.9822 100.037 46.8736 100.523 46.8736 101.094ZM59.883 107.205C58.9625 107.205 58.1699 106.987 57.5051 106.553C56.8404 106.118 56.329 105.519 55.9711 104.756C55.6131 103.994 55.4341 103.122 55.4341 102.142C55.4341 101.145 55.6174 100.265 55.9838 99.5021C56.3546 98.7351 56.8702 98.1364 57.5307 97.706C58.1955 97.2713 58.9711 97.054 59.8574 97.054C60.5478 97.054 61.1699 97.1818 61.7239 97.4375C62.2779 97.6932 62.7317 98.0511 63.0854 98.5114C63.4391 98.9716 63.6586 99.5085 63.7438 100.122H62.2353C62.1202 99.6747 61.8645 99.2784 61.4682 98.9332C61.0762 98.5838 60.5478 98.4091 59.883 98.4091C59.2949 98.4091 58.7793 98.5625 58.3361 98.8693C57.8972 99.1719 57.5542 99.6001 57.307 100.154C57.0641 100.704 56.9426 101.349 56.9426 102.091C56.9426 102.849 57.062 103.51 57.3006 104.072C57.5435 104.635 57.8844 105.072 58.3233 105.383C58.7665 105.694 59.2864 105.849 59.883 105.849C60.275 105.849 60.6309 105.781 60.9505 105.645C61.2701 105.509 61.5407 105.312 61.7623 105.057C61.9838 104.801 62.1415 104.494 62.2353 104.136H63.7438C63.6586 104.716 63.4476 105.238 63.111 105.702C62.7786 106.163 62.3375 106.529 61.7878 106.802C61.2424 107.07 60.6074 107.205 59.883 107.205ZM69.9377 107.205C69.0513 107.205 68.2736 106.994 67.6046 106.572C66.9398 106.15 66.4199 105.56 66.0449 104.801C65.6742 104.043 65.4888 103.156 65.4888 102.142C65.4888 101.119 65.6742 100.227 66.0449 99.4638C66.4199 98.701 66.9398 98.1087 67.6046 97.6868C68.2736 97.2649 69.0513 97.054 69.9377 97.054C70.824 97.054 71.5996 97.2649 72.2644 97.6868C72.9334 98.1087 73.4533 98.701 73.824 99.4638C74.199 100.227 74.3865 101.119 74.3865 102.142C74.3865 103.156 74.199 104.043 73.824 104.801C73.4533 105.56 72.9334 106.15 72.2644 106.572C71.5996 106.994 70.824 107.205 69.9377 107.205ZM69.9377 105.849C70.611 105.849 71.165 105.677 71.5996 105.332C72.0343 104.987 72.356 104.533 72.5648 103.97C72.7736 103.408 72.878 102.798 72.878 102.142C72.878 101.486 72.7736 100.874 72.5648 100.308C72.356 99.7408 72.0343 99.2827 71.5996 98.9332C71.165 98.5838 70.611 98.4091 69.9377 98.4091C69.2644 98.4091 68.7104 98.5838 68.2757 98.9332C67.8411 99.2827 67.5194 99.7408 67.3105 100.308C67.1017 100.874 66.9973 101.486 66.9973 102.142C66.9973 102.798 67.1017 103.408 67.3105 103.97C67.5194 104.533 67.8411 104.987 68.2757 105.332C68.7104 105.677 69.2644 105.849 69.9377 105.849ZM76.6893 107V97.1818H78.1467V98.6648H78.2489C78.4279 98.179 78.7518 97.7848 79.2205 97.4822C79.6893 97.1797 80.2177 97.0284 80.8058 97.0284C80.9165 97.0284 81.055 97.0305 81.2212 97.0348C81.3874 97.0391 81.5131 97.0455 81.5984 97.054V98.5881C81.5472 98.5753 81.43 98.5561 81.2468 98.5305C81.0678 98.5007 80.8782 98.4858 80.6779 98.4858C80.2006 98.4858 79.7745 98.5859 79.3995 98.7862C79.0288 98.9822 78.7347 99.255 78.5174 99.6044C78.3043 99.9496 78.1978 100.344 78.1978 100.787V107H76.6893ZM87.2042 107.205C86.2582 107.205 85.4421 106.996 84.756 106.578C84.0742 106.156 83.5479 105.568 83.1772 104.814C82.8107 104.055 82.6275 103.173 82.6275 102.168C82.6275 101.162 82.8107 100.276 83.1772 99.5085C83.5479 98.7372 84.0636 98.1364 84.7241 97.706C85.3888 97.2713 86.1644 97.054 87.0508 97.054C87.5621 97.054 88.0671 97.1392 88.5657 97.3097C89.0643 97.4801 89.5181 97.7571 89.9272 98.1406C90.3363 98.5199 90.6623 99.0227 90.9052 99.6491C91.1481 100.276 91.2695 101.047 91.2695 101.963V102.602H83.7013V101.298H89.7354C89.7354 100.744 89.6246 100.25 89.4031 99.8153C89.1857 99.3807 88.8746 99.0376 88.4698 98.7862C88.0692 98.5348 87.5962 98.4091 87.0508 98.4091C86.4499 98.4091 85.93 98.5582 85.4911 98.8565C85.0565 99.1506 84.7219 99.5341 84.4876 100.007C84.2532 100.48 84.136 100.987 84.136 101.528V102.398C84.136 103.139 84.2638 103.768 84.5195 104.283C84.7795 104.795 85.1396 105.185 85.5998 105.453C86.06 105.717 86.5948 105.849 87.2042 105.849C87.6005 105.849 87.9585 105.794 88.2781 105.683C88.6019 105.568 88.881 105.398 89.1154 105.172C89.3498 104.942 89.5309 104.656 89.6587 104.315L91.1161 104.724C90.9627 105.219 90.7049 105.653 90.3427 106.028C89.9805 106.399 89.533 106.689 89.0004 106.898C88.4677 107.102 87.869 107.205 87.2042 107.205ZM104.814 102.986V97.1818H106.323V107H104.814V105.338H104.712C104.482 105.837 104.124 106.261 103.638 106.61C103.152 106.955 102.539 107.128 101.797 107.128C101.184 107.128 100.638 106.994 100.161 106.725C99.6836 106.452 99.3086 106.043 99.0359 105.498C98.7631 104.948 98.6268 104.256 98.6268 103.42V97.1818H100.135V103.318C100.135 104.034 100.336 104.605 100.736 105.031C101.141 105.457 101.657 105.67 102.283 105.67C102.658 105.67 103.039 105.575 103.427 105.383C103.819 105.191 104.147 104.897 104.412 104.501C104.68 104.104 104.814 103.599 104.814 102.986ZM110.594 101.094V107H109.086V97.1818H110.543V98.7159H110.671C110.901 98.2173 111.251 97.8168 111.719 97.5142C112.188 97.2074 112.793 97.054 113.535 97.054C114.199 97.054 114.781 97.1903 115.28 97.4631C115.778 97.7315 116.166 98.1406 116.443 98.6903C116.72 99.2358 116.858 99.9261 116.858 100.761V107H115.35V100.864C115.35 100.092 115.15 99.4915 114.749 99.0611C114.349 98.6264 113.799 98.4091 113.1 98.4091C112.618 98.4091 112.188 98.5135 111.809 98.7223C111.434 98.9311 111.138 99.2358 110.92 99.6364C110.703 100.037 110.594 100.523 110.594 101.094ZM123.732 107.205C122.786 107.205 121.969 106.996 121.283 106.578C120.602 106.156 120.075 105.568 119.705 104.814C119.338 104.055 119.155 103.173 119.155 102.168C119.155 101.162 119.338 100.276 119.705 99.5085C120.075 98.7372 120.591 98.1364 121.251 97.706C121.916 97.2713 122.692 97.054 123.578 97.054C124.089 97.054 124.594 97.1392 125.093 97.3097C125.592 97.4801 126.045 97.7571 126.455 98.1406C126.864 98.5199 127.19 99.0227 127.433 99.6491C127.675 100.276 127.797 101.047 127.797 101.963V102.602H120.229V101.298H126.263C126.263 100.744 126.152 100.25 125.93 99.8153C125.713 99.3807 125.402 99.0376 124.997 98.7862C124.597 98.5348 124.124 98.4091 123.578 98.4091C122.977 98.4091 122.457 98.5582 122.018 98.8565C121.584 99.1506 121.249 99.5341 121.015 100.007C120.781 100.48 120.663 100.987 120.663 101.528V102.398C120.663 103.139 120.791 103.768 121.047 104.283C121.307 104.795 121.667 105.185 122.127 105.453C122.587 105.717 123.122 105.849 123.732 105.849C124.128 105.849 124.486 105.794 124.805 105.683C125.129 105.568 125.408 105.398 125.643 105.172C125.877 104.942 126.058 104.656 126.186 104.315L127.643 104.724C127.49 105.219 127.232 105.653 126.87 106.028C126.508 106.399 126.06 106.689 125.528 106.898C124.995 107.102 124.396 107.205 123.732 107.205ZM52.9324 132.682V119.182H54.3898V120.741H54.5688C54.6796 120.571 54.833 120.354 55.029 120.089C55.2293 119.821 55.5148 119.582 55.8856 119.374C56.2606 119.161 56.7677 119.054 57.4069 119.054C58.2336 119.054 58.9623 119.261 59.593 119.674C60.2236 120.087 60.7158 120.673 61.0695 121.432C61.4232 122.19 61.6001 123.085 61.6001 124.116C61.6001 125.156 61.4232 126.058 61.0695 126.82C60.7158 127.579 60.2258 128.167 59.5993 128.585C58.9729 128.998 58.2506 129.205 57.4324 129.205C56.8018 129.205 56.2968 129.1 55.9175 128.891C55.5383 128.678 55.2464 128.437 55.0418 128.169C54.8373 127.896 54.6796 127.67 54.5688 127.491H54.441V132.682H52.9324ZM54.4154 124.091C54.4154 124.832 54.5241 125.487 54.7414 126.053C54.9587 126.616 55.2762 127.057 55.6938 127.376C56.1114 127.692 56.6228 127.849 57.2279 127.849C57.8586 127.849 58.3849 127.683 58.8067 127.351C59.2329 127.014 59.5525 126.562 59.7655 125.996C59.9829 125.425 60.0915 124.79 60.0915 124.091C60.0915 123.401 59.985 122.778 59.7719 122.224C59.5631 121.666 59.2457 121.225 58.8195 120.901C58.3976 120.573 57.8671 120.409 57.2279 120.409C56.6143 120.409 56.0986 120.565 55.681 120.876C55.2634 121.183 54.9481 121.613 54.735 122.167C54.5219 122.717 54.4154 123.358 54.4154 124.091ZM66.7904 129.23C66.1682 129.23 65.6036 129.113 65.0965 128.879C64.5894 128.64 64.1867 128.297 63.8884 127.849C63.5901 127.398 63.441 126.852 63.441 126.213C63.441 125.651 63.5518 125.195 63.7733 124.845C63.9949 124.491 64.2911 124.214 64.6618 124.014C65.0326 123.814 65.4417 123.665 65.8891 123.567C66.3408 123.464 66.7947 123.384 67.2506 123.324C67.8472 123.247 68.3309 123.19 68.7016 123.151C69.0766 123.109 69.3493 123.038 69.5198 122.94C69.6945 122.842 69.7819 122.672 69.7819 122.429V122.378C69.7819 121.747 69.6093 121.257 69.2641 120.908C68.9232 120.558 68.4055 120.384 67.7108 120.384C66.9907 120.384 66.426 120.541 66.017 120.857C65.6079 121.172 65.3202 121.509 65.154 121.866L63.7222 121.355C63.9779 120.759 64.3188 120.294 64.7449 119.962C65.1753 119.625 65.6441 119.391 66.1512 119.259C66.6626 119.122 67.1654 119.054 67.6597 119.054C67.9751 119.054 68.3373 119.092 68.7464 119.169C69.1597 119.241 69.5582 119.393 69.9417 119.623C70.3295 119.853 70.6512 120.2 70.9069 120.665C71.1626 121.129 71.2904 121.751 71.2904 122.531V129H69.7819V127.67H69.7052C69.6029 127.884 69.4324 128.112 69.1938 128.354C68.9552 128.597 68.6377 128.804 68.2414 128.974C67.8451 129.145 67.3614 129.23 66.7904 129.23ZM67.0205 127.875C67.6171 127.875 68.1199 127.758 68.529 127.523C68.9424 127.289 69.2535 126.987 69.4623 126.616C69.6753 126.245 69.7819 125.855 69.7819 125.446V124.065C69.718 124.142 69.5773 124.212 69.36 124.276C69.1469 124.336 68.8998 124.389 68.6185 124.436C68.3415 124.479 68.0709 124.517 67.8067 124.551C67.5468 124.581 67.3358 124.607 67.1739 124.628C66.7819 124.679 66.4154 124.762 66.0745 124.877C65.7378 124.988 65.4651 125.156 65.2563 125.382C65.0518 125.604 64.9495 125.906 64.9495 126.29C64.9495 126.814 65.1434 127.21 65.5312 127.479C65.9232 127.743 66.4197 127.875 67.0205 127.875ZM74.0438 129V119.182H75.5012V120.665H75.6034C75.7824 120.179 76.1063 119.785 76.575 119.482C77.0438 119.18 77.5722 119.028 78.1602 119.028C78.271 119.028 78.4095 119.031 78.5757 119.035C78.7419 119.039 78.8676 119.045 78.9529 119.054V120.588C78.9017 120.575 78.7845 120.556 78.6013 120.531C78.4223 120.501 78.2327 120.486 78.0324 120.486C77.5551 120.486 77.129 120.586 76.754 120.786C76.3833 120.982 76.0892 121.255 75.8719 121.604C75.6588 121.95 75.5523 122.344 75.5523 122.787V129H74.0438ZM85.6262 119.182V120.46H80.5381V119.182H85.6262ZM82.021 116.83H83.5296V126.188C83.5296 126.614 83.5914 126.933 83.7149 127.146C83.8428 127.355 84.0047 127.496 84.2007 127.568C84.401 127.636 84.6119 127.67 84.8335 127.67C84.9997 127.67 85.1361 127.662 85.2426 127.645C85.3492 127.624 85.4344 127.607 85.4983 127.594L85.8051 128.949C85.7029 128.987 85.5601 129.026 85.3769 129.064C85.1936 129.107 84.9614 129.128 84.6801 129.128C84.254 129.128 83.8364 129.036 83.4273 128.853C83.0225 128.67 82.6858 128.391 82.4173 128.016C82.1531 127.641 82.021 127.168 82.021 126.597V116.83ZM87.8953 129V119.182H89.4039V129H87.8953ZM88.6624 117.545C88.3683 117.545 88.1148 117.445 87.9017 117.245C87.6929 117.045 87.5885 116.804 87.5885 116.523C87.5885 116.241 87.6929 116.001 87.9017 115.8C88.1148 115.6 88.3683 115.5 88.6624 115.5C88.9564 115.5 89.2078 115.6 89.4166 115.8C89.6297 116.001 89.7362 116.241 89.7362 116.523C89.7362 116.804 89.6297 117.045 89.4166 117.245C89.2078 117.445 88.9564 117.545 88.6624 117.545ZM96.2833 129.205C95.3373 129.205 94.5212 128.996 93.8351 128.578C93.1533 128.156 92.627 127.568 92.2563 126.814C91.8898 126.055 91.7066 125.173 91.7066 124.168C91.7066 123.162 91.8898 122.276 92.2563 121.509C92.627 120.737 93.1427 120.136 93.8032 119.706C94.468 119.271 95.2435 119.054 96.1299 119.054C96.6412 119.054 97.1462 119.139 97.6448 119.31C98.1434 119.48 98.5972 119.757 99.0063 120.141C99.4154 120.52 99.7414 121.023 99.9843 121.649C100.227 122.276 100.349 123.047 100.349 123.963V124.602H92.7805V123.298H98.8145C98.8145 122.744 98.7037 122.25 98.4822 121.815C98.2648 121.381 97.9537 121.038 97.5489 120.786C97.1483 120.535 96.6753 120.409 96.1299 120.409C95.529 120.409 95.0091 120.558 94.5702 120.857C94.1356 121.151 93.801 121.534 93.5667 122.007C93.3323 122.48 93.2151 122.987 93.2151 123.528V124.398C93.2151 125.139 93.343 125.768 93.5986 126.283C93.8586 126.795 94.2187 127.185 94.6789 127.453C95.1391 127.717 95.6739 127.849 96.2833 127.849C96.6796 127.849 97.0376 127.794 97.3572 127.683C97.681 127.568 97.9601 127.398 98.1945 127.172C98.4289 126.942 98.61 126.656 98.7378 126.315L100.195 126.724C100.042 127.219 99.784 127.653 99.4218 128.028C99.0596 128.399 98.6121 128.689 98.0795 128.898C97.5468 129.102 96.9481 129.205 96.2833 129.205ZM109.675 125.318V125.241C109.683 124.428 109.768 123.78 109.93 123.298C110.092 122.817 110.322 122.427 110.621 122.129C110.919 121.83 111.277 121.555 111.695 121.304C111.946 121.151 112.172 120.969 112.372 120.761C112.572 120.548 112.73 120.303 112.845 120.026C112.964 119.749 113.024 119.442 113.024 119.105C113.024 118.687 112.926 118.325 112.73 118.018C112.534 117.712 112.272 117.475 111.944 117.309C111.616 117.143 111.251 117.06 110.851 117.06C110.501 117.06 110.165 117.132 109.841 117.277C109.517 117.422 109.246 117.65 109.029 117.961C108.812 118.272 108.686 118.679 108.652 119.182H107.041C107.075 118.457 107.263 117.837 107.604 117.322C107.949 116.806 108.403 116.412 108.965 116.139C109.532 115.866 110.16 115.73 110.851 115.73C111.601 115.73 112.253 115.879 112.807 116.178C113.365 116.476 113.795 116.885 114.098 117.405C114.405 117.925 114.558 118.517 114.558 119.182C114.558 119.651 114.486 120.075 114.341 120.454C114.2 120.833 113.996 121.172 113.727 121.47C113.463 121.768 113.143 122.033 112.768 122.263C112.393 122.497 112.093 122.744 111.867 123.004C111.641 123.26 111.477 123.565 111.375 123.918C111.273 124.272 111.217 124.713 111.209 125.241V125.318H109.675ZM110.493 129.102C110.177 129.102 109.907 128.989 109.681 128.763C109.455 128.538 109.342 128.267 109.342 127.952C109.342 127.636 109.455 127.366 109.681 127.14C109.907 126.914 110.177 126.801 110.493 126.801C110.808 126.801 111.079 126.914 111.305 127.14C111.53 127.366 111.643 127.636 111.643 127.952C111.643 128.161 111.59 128.352 111.484 128.527C111.381 128.702 111.243 128.842 111.068 128.949C110.898 129.051 110.706 129.102 110.493 129.102Z" fill="black"/>
<path d="M82.8382 60L75 51.3303L79.5583 48.2806L83.2697 52.3855L95.8074 41L100 44.4171L82.8382 60Z" fill="white"/>
</g>
<g clip-path="url(#clip0_735_26)" filter="url(#filter1_d_735_26)">
<path d="M124.753 83.7852L123.884 84.1948L122.042 80.6812L123.324 80.0765L124.753 83.7852Z" fill="#FFB6B6"/>
<path d="M117.571 84.695L116.626 84.6949L116.177 80.6636H117.571L117.571 84.695Z" fill="#FFB6B6"/>
<path d="M117.604 85.7853L114.699 85.7852V85.7446C114.699 85.4128 114.818 85.0946 115.03 84.86C115.243 84.6254 115.53 84.4936 115.83 84.4936H115.83L116.361 84.0482L117.351 84.4937L117.604 84.4937L117.604 85.7853Z" fill="#2F2E41"/>
<path d="M125.281 84.4831L122.609 85.7431L122.594 85.7057C122.477 85.4005 122.474 85.0561 122.586 84.7483C122.697 84.4405 122.915 84.1945 123.191 84.0644L123.191 84.0644L123.522 83.4245L124.59 83.4048L124.823 83.2948L125.281 84.4831Z" fill="#2F2E41"/>
<path d="M116.644 60.8358L115.209 70.5079L115.599 71.9493L115.087 72.97L115.84 81.9348L115.534 82.6793L116.388 83.262H118.126L118.218 75.1461L118.647 73.9545V73.2978L119.521 68.3489L119.682 74.0098L119.936 75.2032L119.722 76.053L120.001 76.6483L122.392 82.3278H124.34L124.19 81.0434C124.539 80.8479 123.666 80.2764 123.582 79.8535L123.869 79.1393L123.582 77.7903L123.319 75.1542L123.596 69.5899L123.465 62.0969C122.811 61.1265 122.086 60.3782 121.186 60.1686L116.644 60.8358Z" fill="#2F2E41"/>
<path d="M120.141 48.0982C121.228 48.0982 122.11 47.1228 122.11 45.9196C122.11 44.7165 121.228 43.7411 120.141 43.7411C119.053 43.7411 118.172 44.7165 118.172 45.9196C118.172 47.1228 119.053 48.0982 120.141 48.0982Z" fill="#FFB6B6"/>
<path d="M112.022 63.121C111.998 62.9987 111.998 62.8718 112.022 62.7495C112.047 62.6271 112.095 62.5122 112.164 62.4129C112.234 62.3135 112.321 62.2321 112.422 62.1744C112.522 62.1167 112.633 62.084 112.746 62.0788L113.54 59.1614L114.457 60.3767L113.563 62.9608C113.558 63.1717 113.484 63.3734 113.354 63.5277C113.224 63.682 113.047 63.7781 112.857 63.7979C112.667 63.8176 112.477 63.7596 112.323 63.6349C112.17 63.5101 112.062 63.3273 112.022 63.121Z" fill="#FFB6B6"/>
<path d="M117.168 51.1297L116.812 50.4111L116.354 50.5803C116.354 50.5803 115.849 50.9413 115.14 52.3042C114.813 52.9346 114.105 56.9767 114.105 56.9767L112.45 61.8243L114.137 62.1399L115.545 58.1449L117.177 54.3217L117.168 51.1297Z" fill="#F9A826"/>
<path d="M120.068 60.8053C121.454 60.8053 122.853 61.1073 123.426 62.1869C123.411 61.9521 123.373 61.5451 123.334 61.1716L123.191 60.1682L123.336 59.2481L123.528 59.0357L123.184 58.6553L123.419 56.7348L124.193 52.2104C124.254 51.8545 124.206 51.4863 124.058 51.1632C123.91 50.8401 123.67 50.5802 123.375 50.4238L122.631 50.0281L121.425 48.7908L119.244 48.7728L118.533 49.7962L116.66 50.5001L116.974 57.6963L116.768 58.2283C116.814 58.2752 116.912 58.3755 116.964 58.4401C117.039 58.5315 116.944 59.002 116.881 59.2743L116.794 59.9997L117.068 60.2163L116.711 60.6819L116.64 61.2729C116.994 61.1803 118.523 60.8053 120.068 60.8053Z" fill="#F9A826"/>
<path d="M120.644 47.9915C120.653 47.971 120.661 47.9504 120.67 47.9298C120.666 47.9299 120.663 47.9304 120.66 47.9305L120.644 47.9915Z" fill="#2F2E41"/>
<path d="M122.165 43.8402C122.071 43.7426 121.95 43.6845 121.821 43.676C121.694 43.6805 121.565 43.8077 121.591 43.9456C121.357 43.4875 120.985 43.1351 120.54 42.9504C120.094 42.7657 119.605 42.7603 119.156 42.9354C118.84 43.0589 118.529 43.3061 118.457 43.6685C118.449 43.7637 118.424 43.856 118.381 43.9391C118.345 43.9836 118.297 44.0152 118.244 44.03C118.191 44.0448 118.136 44.0421 118.084 44.0224L118.081 44.0214C118.063 44.0148 118.044 44.0141 118.026 44.0195C118.009 44.025 117.992 44.0363 117.98 44.0519C117.968 44.0676 117.961 44.0869 117.959 44.1073C117.956 44.1278 117.96 44.1485 117.969 44.1667L118.058 44.3515C117.945 44.3793 117.828 44.3766 117.716 44.3434C117.698 44.3381 117.678 44.3392 117.66 44.3466C117.642 44.354 117.627 44.3674 117.616 44.385C117.605 44.4025 117.6 44.4233 117.6 44.4445C117.6 44.4657 117.606 44.4863 117.618 44.5035C117.766 44.7287 117.961 44.9124 118.185 45.04C118.409 45.1675 118.657 45.2354 118.91 45.2382C119.267 45.2358 119.629 45.0994 119.977 45.1904C120.112 45.2256 120.238 45.2937 120.345 45.3898C120.453 45.4858 120.54 45.6074 120.6 45.7455C120.66 45.8836 120.691 46.0347 120.691 46.1879C120.691 46.341 120.66 46.4922 120.601 46.6304C120.708 46.501 120.914 46.5316 121.024 46.6585C121.074 46.7265 121.111 46.8051 121.133 46.8896C121.155 46.9742 121.161 47.0627 121.15 47.1498C121.121 47.4167 121.05 47.6758 120.939 47.915C121.362 47.9006 121.771 47.7429 122.11 47.4632C122.45 47.1835 122.703 46.7952 122.837 46.3509C122.971 45.9065 122.978 45.4275 122.858 44.9785C122.737 44.5295 122.495 44.1322 122.165 43.8402H122.165Z" fill="#2F2E41"/>
<path d="M58.5276 35.7066C61.2313 35.7066 63.423 33.2817 63.423 30.2905C63.423 27.2992 61.2313 24.8743 58.5276 24.8743C55.824 24.8743 53.6322 27.2992 53.6322 30.2905C53.6322 33.2817 55.824 35.7066 58.5276 35.7066Z" fill="#F9A826"/>
<path d="M44.7686 46.402C42.3122 40.3907 42.4028 32.7711 46.215 27.6986C47.4904 34.7325 50.9734 41.0406 56.0479 45.5068C58.0106 47.2214 60.3549 48.9023 60.8911 51.6048C61.2247 53.2863 60.7518 55.0648 59.9343 56.5296C59.1167 57.9944 57.9771 59.1993 56.8504 60.3867L56.724 60.7931C51.8216 57.0378 47.2249 52.4132 44.7686 46.402Z" fill="#F2F2F2"/>
<path d="M46.3211 27.7719C45.4437 33.087 46.0955 38.7467 48.2279 43.6163C48.689 44.6691 49.2395 45.6927 49.9765 46.5394C50.7138 47.3866 51.5955 47.9198 52.6097 48.2475C53.5368 48.547 54.5166 48.7345 55.3618 49.2782C56.2527 49.8512 56.8056 50.8127 57.021 51.9154C57.2845 53.2645 57.0942 54.6379 56.8659 55.9738C56.6124 57.4571 56.3279 58.9933 56.6952 60.4844C56.7397 60.665 56.4837 60.7309 56.4393 60.5505C55.8002 57.9563 57.0428 55.3976 56.8691 52.7894C56.788 51.5723 56.375 50.3749 55.4318 49.6698C54.607 49.0532 53.5968 48.8588 52.6557 48.5645C51.6674 48.2555 50.7799 47.7835 50.0247 47.0006C49.2522 46.1997 48.6644 45.1978 48.1811 44.1626C47.091 41.8281 46.3725 39.256 45.9923 36.6664C45.5551 33.69 45.5814 30.6527 46.0699 27.6861C46.1002 27.5025 46.3512 27.5895 46.3211 27.7719H46.3211Z" fill="white"/>
<path d="M47.4593 42.0739C46.6635 42.3561 45.803 42.3161 45.0314 41.9611C44.2598 41.6061 43.6274 40.9592 43.2471 40.136C43.1706 39.9691 43.4014 39.8298 43.4779 39.9969C43.8308 40.7643 44.42 41.3668 45.1391 41.6957C45.8582 42.0247 46.6599 42.0584 47.3995 41.7908C47.5603 41.7328 47.6192 42.0163 47.4593 42.0739H47.4593Z" fill="white"/>
<path d="M52.1215 48.1641C52.9167 46.4914 53.1128 44.5485 52.6708 42.7229C52.6269 42.5421 52.8828 42.4762 52.9267 42.6568C53.3835 44.5575 53.1757 46.5789 52.3447 48.3175C52.2654 48.4832 52.0426 48.3289 52.1215 48.1641H52.1215Z" fill="white"/>
<path d="M45.893 33.7844C46.2214 33.7462 46.5362 33.6184 46.8089 33.4123C47.0817 33.2063 47.304 32.9285 47.4557 32.604C47.5331 32.4373 47.7558 32.5918 47.6789 32.7574C47.5098 33.1151 47.264 33.4216 46.9631 33.65C46.6621 33.8783 46.3153 34.0217 45.9527 34.0676C45.9189 34.075 45.8837 34.068 45.8544 34.0478C45.8251 34.0277 45.8038 33.9959 45.7949 33.959C45.7871 33.9215 45.7931 33.8821 45.8115 33.8494C45.8298 33.8167 45.8591 33.7934 45.893 33.7844Z" fill="white"/>
<path d="M66.4035 27.7575C66.3579 27.8631 66.3123 27.9687 66.2677 28.0764C65.6608 29.4997 65.1595 30.9752 64.7685 32.4883C64.7366 32.6047 64.7059 32.7233 64.6771 32.8405C63.7704 36.497 63.4853 40.308 63.8361 44.0797C63.9769 45.5804 64.2207 47.0671 64.5654 48.5268C65.0416 50.5428 65.7028 52.6868 65.5536 54.6998C65.5402 54.91 65.515 55.1191 65.4782 55.3258L57.1819 60.9322C57.1573 60.9345 57.1337 60.9389 57.109 60.9412L56.787 61.1818C56.7644 61.1079 56.7425 61.0307 56.72 60.9568C56.7067 60.914 56.6954 60.8699 56.6821 60.8271C56.6739 60.7982 56.6657 60.7692 56.6568 60.7436C56.654 60.734 56.6514 60.7243 56.6497 60.7167C56.6408 60.6911 56.635 60.6663 56.6272 60.6428C56.5035 60.2117 56.3824 59.7789 56.2638 59.3443C56.2626 59.3422 56.2626 59.3422 56.2633 59.3389C55.3671 56.0252 54.713 52.5997 54.5497 49.1733C54.5448 49.0702 54.5387 48.9651 54.5376 48.8594C54.4717 47.3145 54.5201 45.7662 54.6822 44.23C54.7734 43.3891 54.9031 42.5539 55.0706 41.7275C55.5073 39.5932 56.2446 37.5482 57.2556 35.6675C59.2716 31.9185 62.3489 28.9246 66.115 27.8374C66.2114 27.8097 66.306 27.7831 66.4035 27.7575Z" fill="#F2F2F2"/>
<path d="M66.4492 27.8866C62.8563 31.546 60.2968 36.499 59.3495 41.8076C59.1447 42.9553 59.0272 44.1393 59.1549 45.3063C59.2826 46.4739 59.6964 47.4869 60.3279 48.4241C60.9052 49.2808 61.5854 50.0832 61.9644 51.0803C62.3639 52.1313 62.2821 53.2673 61.8541 54.2911C61.3303 55.5439 60.431 56.5137 59.5217 57.4282C58.5121 58.4437 57.449 59.4807 56.9308 60.916C56.8681 61.0899 56.6278 60.972 56.6905 60.7983C57.592 58.3012 59.9765 57.086 61.2571 54.8878C61.8547 53.8621 62.1765 52.6309 61.8072 51.4396C61.4842 50.3978 60.7834 49.5697 60.1921 48.7079C59.5712 47.8029 59.1194 46.8348 58.9425 45.7066C58.7615 44.5526 58.8374 43.361 59.0148 42.2126C59.4148 39.6225 60.2408 37.0902 61.3464 34.7693C62.6171 32.1016 64.2909 29.694 66.2953 27.6508C66.4194 27.5243 66.5724 27.761 66.4492 27.8866L66.4492 27.8866Z" fill="white"/>
<path d="M59.5752 40.0641C58.7862 39.7593 58.1209 39.1542 57.698 38.3568C57.2751 37.5593 57.1222 36.6216 57.2665 35.7109C57.2963 35.5268 57.5564 35.5693 57.5265 35.7537C57.3907 36.6014 57.5332 37.475 57.9284 38.2166C58.3236 38.9583 58.9454 39.5192 59.6815 39.7982C59.8415 39.8591 59.7342 40.1246 59.5752 40.0641H59.5752Z" fill="white"/>
<path d="M59.9834 48.0323C61.5286 47.2264 62.7425 45.8058 63.383 44.0537C63.4463 43.8801 63.6865 43.998 63.6233 44.1714C62.9537 45.9933 61.6878 47.4688 60.0781 48.3035C59.9247 48.383 59.8308 48.1113 59.9834 48.0323L59.9834 48.0323Z" fill="white"/>
<path d="M62.8355 32.402C63.1185 32.5903 63.4394 32.6979 63.7693 32.7151C64.0993 32.7323 64.4279 32.6586 64.7256 32.5005C64.8781 32.419 64.9719 32.6907 64.8204 32.7717C64.4906 32.9446 64.1276 33.0256 63.7631 33.0075C63.3985 32.9894 63.0435 32.8728 62.7291 32.6679C62.698 32.6514 62.6738 32.6223 62.6614 32.5867C62.6489 32.5511 62.6492 32.5115 62.6621 32.4761C62.6764 32.441 62.7026 32.4135 62.735 32.3997C62.7675 32.3858 62.8036 32.3866 62.8355 32.402Z" fill="white"/>
<path d="M86.0437 39.8176C83.5873 33.8063 83.6779 26.1868 87.4901 21.1142C88.7654 28.1481 92.2485 34.4562 97.323 38.9224C99.2857 40.637 101.63 42.318 102.166 45.0204C102.5 46.7019 102.027 48.4805 101.209 49.9452C100.392 51.41 99.2521 52.6149 98.1255 53.8024L97.9991 54.2088C93.0967 50.4535 88.5 45.8288 86.0437 39.8176Z" fill="#F2F2F2"/>
<path d="M87.5962 21.1875C86.7189 26.5027 87.3706 32.1623 89.5031 37.0319C89.9641 38.0847 90.5146 39.1083 91.2516 39.9551C91.989 40.8022 92.8706 41.3355 93.8848 41.6631C94.812 41.9626 95.7917 42.1501 96.637 42.6938C97.5279 43.2668 98.0808 44.2283 98.2962 45.331C98.5597 46.6801 98.3694 48.0535 98.141 49.3894C97.8875 50.8727 97.603 52.4089 97.9703 53.9C98.0149 54.0807 97.7589 54.1465 97.7144 53.9661C97.0753 51.3719 98.3179 48.8132 98.1442 46.205C98.0632 44.988 97.6501 43.7906 96.7069 43.0854C95.8821 42.4688 94.872 42.2744 93.9308 41.9801C92.9426 41.6711 92.0551 41.1991 91.2999 40.4162C90.5274 39.6153 89.9395 38.6134 89.4562 37.5782C88.3662 35.2437 87.6476 32.6716 87.2674 30.082C86.8303 27.1056 86.8565 24.0684 87.3451 21.1017C87.3754 20.9181 87.6263 21.0051 87.5962 21.1875H87.5962Z" fill="white"/>
<path d="M88.7344 35.4895C87.9387 35.7717 87.0781 35.7317 86.3065 35.3767C85.5349 35.0217 84.9025 34.3748 84.5222 33.5516C84.4458 33.3847 84.6766 33.2455 84.7531 33.4125C85.106 34.1799 85.6951 34.7824 86.4142 35.1113C87.1334 35.4403 87.9351 35.474 88.6747 35.2064C88.8355 35.1484 88.8943 35.4319 88.7344 35.4895Z" fill="white"/>
<path d="M93.3966 41.5797C94.1918 39.907 94.3879 37.9642 93.9459 36.1386C93.9019 35.9577 94.1579 35.8918 94.2018 36.0724C94.6586 37.9731 94.4508 39.9945 93.6198 41.7332C93.5405 41.8988 93.3177 41.7445 93.3966 41.5797H93.3966Z" fill="white"/>
<path d="M87.1681 27.2C87.4966 27.1619 87.8113 27.034 88.0841 26.828C88.3569 26.6219 88.5791 26.3442 88.7309 26.0196C88.8082 25.8529 89.031 26.0075 88.9541 26.1731C88.7849 26.5308 88.5391 26.8372 88.2382 27.0656C87.9373 27.294 87.5904 27.4373 87.2279 27.4832C87.194 27.4907 87.1589 27.4836 87.1295 27.4635C87.1002 27.4433 87.0789 27.4116 87.07 27.3747C87.0623 27.3371 87.0682 27.2977 87.0866 27.265C87.105 27.2323 87.1343 27.209 87.1681 27.2V27.2Z" fill="white"/>
<path d="M107.679 21.1731C107.633 21.2787 107.587 21.3843 107.543 21.492C106.936 22.9153 106.435 24.3908 106.044 25.9039C106.012 26.0204 105.981 26.1389 105.952 26.2561C105.046 29.9126 104.76 33.7236 105.111 37.4953C105.252 38.996 105.496 40.4827 105.841 41.9425C106.317 43.9585 106.978 46.1024 106.829 48.1154C106.815 48.3256 106.79 48.5347 106.753 48.7415L98.457 54.3478C98.4323 54.3501 98.4088 54.3545 98.384 54.3569L98.0621 54.5975C98.0395 54.5236 98.0176 54.4464 97.9951 54.3725C97.9818 54.3296 97.9704 54.2856 97.9572 54.2428C97.949 54.2138 97.9408 54.1848 97.9319 54.1592C97.9291 54.1496 97.9264 54.1399 97.9248 54.1324C97.9159 54.1068 97.9101 54.082 97.9023 54.0584C97.7786 53.6273 97.6575 53.1945 97.5389 52.7599C97.5377 52.7578 97.5377 52.7578 97.5384 52.7545C96.6422 49.4409 95.9881 46.0154 95.8248 42.5889C95.8199 42.4858 95.8138 42.3807 95.8127 42.2751C95.7468 40.7301 95.7952 39.1818 95.9573 37.6456C96.0485 36.8047 96.1781 35.9695 96.3457 35.1432C96.7823 33.0089 97.5197 30.9639 98.5307 29.0831C100.547 25.3341 103.624 22.3402 107.39 21.253C107.486 21.2253 107.581 21.1987 107.679 21.1731Z" fill="#F0F0F0"/>
<path d="M107.724 21.3022C104.131 24.9616 101.572 29.9146 100.625 35.2232C100.42 36.3709 100.302 37.5549 100.43 38.7219C100.558 39.8895 100.972 40.9025 101.603 41.8397C102.18 42.6964 102.861 43.4988 103.24 44.4959C103.639 45.5469 103.557 46.6829 103.129 47.7068C102.605 48.9595 101.706 49.9293 100.797 50.8439C99.7873 51.8593 98.7241 52.8964 98.206 54.3316C98.1432 54.5055 97.903 54.3876 97.9657 54.2139C98.8671 51.7169 101.252 50.5017 102.532 48.3034C103.13 47.2777 103.452 46.0465 103.082 44.8552C102.759 43.8135 102.059 42.9854 101.467 42.1235C100.846 41.2185 100.395 40.2505 100.218 39.1223C100.037 37.9682 100.113 36.7767 100.29 35.6282C100.69 33.0381 101.516 30.5058 102.622 28.1849C103.892 25.5172 105.566 23.1096 107.57 21.0664C107.695 20.94 107.848 21.1766 107.724 21.3022L107.724 21.3022Z" fill="white"/>
<path d="M100.85 33.4797C100.061 33.1749 99.396 32.5698 98.9731 31.7724C98.5502 30.975 98.3973 30.0372 98.5416 29.1265C98.5714 28.9424 98.8314 28.9849 98.8016 29.1693C98.6658 30.017 98.8083 30.8906 99.2035 31.6322C99.5987 32.3739 100.22 32.9348 100.957 33.2138C101.117 33.2747 101.009 33.5402 100.85 33.4797H100.85Z" fill="white"/>
<path d="M101.259 41.4479C102.804 40.6421 104.018 39.2214 104.658 37.4694C104.721 37.2957 104.962 37.4136 104.898 37.587C104.229 39.4089 102.963 40.8844 101.353 41.7191C101.2 41.7986 101.106 41.5269 101.259 41.4479L101.259 41.4479Z" fill="white"/>
<path d="M104.111 25.8177C104.394 26.006 104.715 26.1135 105.044 26.1307C105.374 26.1479 105.703 26.0742 106.001 25.9161C106.153 25.8346 106.247 26.1063 106.096 26.1873C105.766 26.3603 105.403 26.4412 105.038 26.4231C104.674 26.405 104.319 26.2884 104.004 26.0835C103.973 26.067 103.949 26.0379 103.936 26.0023C103.924 25.9667 103.924 25.9272 103.937 25.8918C103.952 25.8566 103.978 25.8292 104.01 25.8153C104.043 25.8014 104.079 25.8023 104.111 25.8177Z" fill="white"/>
<path d="M54.7361 84.3992L55.6429 85.1761L59.1684 85.8529L63.0871 75.0757C63.0871 75.0757 65.4868 66.77 72.206 68.4692L93.8035 68.0444C93.8035 68.0444 100.435 67.2925 101.531 70.7525C101.738 71.4079 107.338 85.886 107.338 85.886L111.264 85.2729L110.793 72.9296L101.469 48.9816L85.2605 47.8619L68.5585 49.1409L54.7361 84.3992Z" fill="#3F3D56"/>
<path d="M72.6859 69.2126C76.1318 69.2126 78.9252 66.122 78.9252 62.3096C78.9252 58.4972 76.1318 55.4067 72.6859 55.4067C69.2401 55.4067 66.4467 58.4972 66.4467 62.3096C66.4467 66.122 69.2401 69.2126 72.6859 69.2126Z" fill="#2F2E41"/>
<path d="M93.6115 69.2126C97.0573 69.2126 99.8507 66.122 99.8507 62.3096C99.8507 58.4972 97.0573 55.4067 93.6115 55.4067C90.1656 55.4067 87.3722 58.4972 87.3722 62.3096C87.3722 66.122 90.1656 69.2126 93.6115 69.2126Z" fill="#2F2E41"/>
<path d="M65.3908 39.6891L67.9598 39.1318C67.9598 39.1318 87.3019 36.0783 99.5276 39.6891L98.6029 42.5565L66.2547 42.3441L65.3908 39.6891Z" fill="#E6E6E6"/>
<path d="M91.4698 54.504H75.0549C73.0619 54.504 71.3393 52.9771 70.9591 50.8734L69.1627 40.9327C69.123 40.7157 69.1246 40.492 69.1674 40.2758C69.2102 40.0596 69.2933 39.8556 69.4113 39.6769C69.5349 39.4895 69.6919 39.3321 69.8727 39.2146C70.0535 39.0971 70.2542 39.0219 70.4623 38.9938C79.1197 37.8049 87.6924 37.8029 95.9425 38.9877C96.1477 39.0155 96.3456 39.0897 96.5238 39.2058C96.702 39.3218 96.8566 39.4772 96.9782 39.6622C97.0955 39.8383 97.1789 40.0392 97.223 40.2525C97.2671 40.4658 97.2711 40.6868 97.2346 40.9018L95.5764 50.812C95.2184 52.9513 93.4914 54.504 91.4698 54.504Z" fill="#F9A826"/>
<path d="M58.0889 41.3075L58.1604 39.885C58.1715 39.6634 58.2311 39.448 58.3338 39.2574C58.4366 39.0668 58.5796 38.9066 58.7506 38.7905C59.7871 38.087 62.5828 36.5382 66.1506 37.3501C66.4012 37.4075 66.6296 37.5488 66.805 37.7549C66.9804 37.961 67.0942 38.2218 67.1309 38.5019L67.2264 39.2421L58.0889 41.3075Z" fill="#3F3D56"/>
<path d="M108.4 41.3075L99.263 39.2421L99.4165 38.053C99.4342 37.9126 99.4895 37.7812 99.5752 37.6758C99.6609 37.5704 99.7731 37.4958 99.8975 37.4615C104.012 36.3191 107.161 38.3479 108.029 38.9969C108.111 39.0587 108.179 39.1407 108.229 39.2364C108.278 39.3321 108.306 39.439 108.312 39.5489L108.4 41.3075Z" fill="#3F3D56"/>
<path d="M55.1876 85.3268C54.9674 85.3295 54.7512 85.2621 54.5645 85.1329C52.1179 83.5522 50.5926 80.6556 50.0344 76.5259C49.5733 73.1146 49.7659 68.8329 50.6066 63.7996C52.0972 54.876 55.2213 45.9564 56.4953 42.5357C56.6641 42.0842 56.9264 41.6829 57.261 41.3641C57.5957 41.0452 57.9933 40.8178 58.4219 40.7001C61.0483 39.9854 65.6332 38.7864 66.8306 38.7864C68.4715 38.7864 69.3594 40.4954 69.3682 40.5127L69.3731 40.5268L70.8141 47.4404V47.5402C71.6091 50.5162 71.0184 52.666 70.3825 53.9454C69.6922 55.3342 68.7991 56.0276 68.7902 56.0344C67.3877 57.2157 65.1028 61.0211 62.8288 65.9644C60.4656 71.1015 58.7139 76.1703 58.1428 79.5238C57.4438 83.6284 56.4192 84.8849 55.6828 85.2162C55.5258 85.2884 55.3576 85.326 55.1876 85.3268Z" fill="#E6E6E6"/>
<path d="M90.9288 53.6544H75.4189C74.5035 53.653 73.6169 53.3 72.9106 52.6557C72.2043 52.0115 71.7221 51.1159 71.5463 50.1219L69.8489 40.4539C69.8112 40.2399 69.8136 40.0196 69.8558 39.8067C69.8981 39.5937 69.9794 39.3926 70.0946 39.2158C70.2099 39.0389 70.3567 38.8901 70.526 38.7785C70.6953 38.6669 70.8835 38.5949 71.0789 38.5669C79.2595 37.4106 87.3599 37.4086 95.1553 38.5609C95.348 38.5899 95.5334 38.6618 95.7003 38.7722C95.8672 38.8827 96.0122 39.0294 96.1264 39.2035C96.2407 39.3775 96.322 39.5754 96.3652 39.7852C96.4085 39.995 96.413 40.2122 96.3783 40.424L94.8115 50.0623C94.6483 51.07 94.1699 51.9821 93.46 52.6389C92.7502 53.2956 91.8541 53.6551 90.9288 53.6544Z" fill="#E6E6E6"/>
<path d="M111.302 85.327C111.132 85.3261 110.964 85.2884 110.807 85.2162C110.07 84.8849 109.046 83.6284 108.347 79.5238C107.776 76.1703 106.024 71.1015 103.661 65.9644C101.387 61.0211 99.1017 57.2157 97.6975 56.033C97.6903 56.0276 96.7972 55.3342 96.1069 53.9454C95.4709 52.666 94.8802 50.5162 95.6752 47.5402L95.6765 47.4285L97.1178 40.5193L97.1212 40.5127C97.13 40.4954 98.0179 38.7864 99.6588 38.7864C100.856 38.7864 105.441 39.9854 108.067 40.7001C108.496 40.8178 108.894 41.0453 109.228 41.3641C109.563 41.6829 109.825 42.0842 109.994 42.5357C111.268 45.9564 114.392 54.876 115.883 63.7996C116.724 68.8329 116.916 73.1146 116.455 76.5259C115.897 80.6556 114.372 83.5522 111.922 85.1353C111.736 85.2632 111.521 85.3297 111.302 85.327Z" fill="#E6E6E6"/>
<path d="M72.6859 65.2832C74.7535 65.2832 76.4295 63.4289 76.4295 61.1414C76.4295 58.854 74.7535 56.9996 72.6859 56.9996C70.6184 56.9996 68.9424 58.854 68.9424 61.1414C68.9424 63.4289 70.6184 65.2832 72.6859 65.2832Z" fill="#3F3D56"/>
<path d="M72.686 63.9026C74.0643 63.9026 75.1817 62.6664 75.1817 61.1414C75.1817 59.6165 74.0643 58.3802 72.686 58.3802C71.3076 58.3802 70.1902 59.6165 70.1902 61.1414C70.1902 62.6664 71.3076 63.9026 72.686 63.9026Z" fill="#2F2E41"/>
<path d="M93.6115 65.2832C95.679 65.2832 97.355 63.4289 97.355 61.1414C97.355 58.854 95.679 56.9996 93.6115 56.9996C91.544 56.9996 89.8679 58.854 89.8679 61.1414C89.8679 63.4289 91.544 65.2832 93.6115 65.2832Z" fill="#3F3D56"/>
<path d="M93.6115 63.9026C94.9898 63.9026 96.1072 62.6664 96.1072 61.1414C96.1072 59.6165 94.9898 58.3802 93.6115 58.3802C92.2331 58.3802 91.1158 59.6165 91.1158 61.1414C91.1158 62.6664 92.2331 63.9026 93.6115 63.9026Z" fill="#2F2E41"/>
<path d="M80.845 56.1501C81.004 56.1501 81.1329 56.0074 81.1329 55.8315C81.1329 55.6555 81.004 55.5129 80.845 55.5129C80.6859 55.5129 80.557 55.6555 80.557 55.8315C80.557 56.0074 80.6859 56.1501 80.845 56.1501Z" fill="#2F2E41"/>
<path d="M82.0928 56.1501C82.2519 56.1501 82.3808 56.0074 82.3808 55.8315C82.3808 55.6555 82.2519 55.5129 82.0928 55.5129C81.9338 55.5129 81.8049 55.6555 81.8049 55.8315C81.8049 56.0074 81.9338 56.1501 82.0928 56.1501Z" fill="#2F2E41"/>
<path d="M81.5169 57.3183C81.6759 57.3183 81.8049 57.1756 81.8049 56.9997C81.8049 56.8237 81.6759 56.6811 81.5169 56.6811C81.3579 56.6811 81.2289 56.8237 81.2289 56.9997C81.2289 57.1756 81.3579 57.3183 81.5169 57.3183Z" fill="#2F2E41"/>
<path d="M82.6688 57.3183C82.8278 57.3183 82.9567 57.1756 82.9567 56.9997C82.9567 56.8237 82.8278 56.6811 82.6688 56.6811C82.5097 56.6811 82.3808 56.8237 82.3808 56.9997C82.3808 57.1756 82.5097 57.3183 82.6688 57.3183Z" fill="#2F2E41"/>
<path d="M83.8206 57.3183C83.9797 57.3183 84.1086 57.1756 84.1086 56.9997C84.1086 56.8237 83.9797 56.6811 83.8206 56.6811C83.6616 56.6811 83.5327 56.8237 83.5327 56.9997C83.5327 57.1756 83.6616 57.3183 83.8206 57.3183Z" fill="#2F2E41"/>
<path d="M84.9725 57.3183C85.1315 57.3183 85.2604 57.1756 85.2604 56.9997C85.2604 56.8237 85.1315 56.6811 84.9725 56.6811C84.8134 56.6811 84.6845 56.8237 84.6845 56.9997C84.6845 57.1756 84.8134 57.3183 84.9725 57.3183Z" fill="#2F2E41"/>
<path d="M83.3407 56.1501C83.4997 56.1501 83.6287 56.0074 83.6287 55.8315C83.6287 55.6555 83.4997 55.5129 83.3407 55.5129C83.1817 55.5129 83.0527 55.6555 83.0527 55.8315C83.0527 56.0074 83.1817 56.1501 83.3407 56.1501Z" fill="#2F2E41"/>
<path d="M84.5886 56.1501C84.7476 56.1501 84.8765 56.0074 84.8765 55.8315C84.8765 55.6555 84.7476 55.5129 84.5886 55.5129C84.4295 55.5129 84.3006 55.6555 84.3006 55.8315C84.3006 56.0074 84.4295 56.1501 84.5886 56.1501Z" fill="#2F2E41"/>
<path d="M85.8364 56.1501C85.9954 56.1501 86.1243 56.0074 86.1243 55.8315C86.1243 55.6555 85.9954 55.5129 85.8364 55.5129C85.6773 55.5129 85.5484 55.6555 85.5484 55.8315C85.5484 56.0074 85.6773 56.1501 85.8364 56.1501Z" fill="#2F2E41"/>
<path d="M84.4925 65.6549H81.9968C81.8823 65.6549 81.7724 65.6046 81.6914 65.5149C81.6104 65.4253 81.5649 65.3038 81.5649 65.177C81.5649 65.0503 81.6104 64.9287 81.6914 64.8391C81.7724 64.7495 81.8823 64.6991 81.9968 64.6991H84.4925C84.6071 64.6991 84.717 64.7495 84.798 64.8391C84.879 64.9287 84.9245 65.0503 84.9245 65.177C84.9245 65.3038 84.879 65.4253 84.798 65.5149C84.717 65.6046 84.6071 65.6549 84.4925 65.6549Z" fill="#2F2E41"/>
<path d="M67.9675 44.8808C67.8065 44.8803 67.6502 44.8198 67.5241 44.709C67.3979 44.5982 67.3092 44.4437 67.2722 44.2702L66.8894 42.4725C66.8461 42.2681 66.8779 42.0531 66.9778 41.8747C67.0777 41.6962 67.2376 41.569 67.4222 41.5208C67.6069 41.4727 67.8012 41.5077 67.9626 41.618C68.124 41.7284 68.2392 41.9051 68.2829 42.1093L68.6656 43.9071C68.6902 44.0235 68.6908 44.1445 68.6672 44.2611C68.6435 44.3778 68.5964 44.487 68.5293 44.5806C68.4622 44.6743 68.3768 44.7499 68.2795 44.8019C68.1822 44.8539 68.0756 44.8809 67.9675 44.8808Z" fill="#3F3D56"/>
<path d="M98.6179 44.7746C98.5098 44.7746 98.4032 44.7477 98.3059 44.6957C98.2087 44.6437 98.1233 44.5681 98.0561 44.4744C97.989 44.3808 97.9419 44.2715 97.9183 44.1549C97.8947 44.0383 97.8952 43.9173 97.9198 43.8009L98.3025 42.0031C98.3462 41.7989 98.4614 41.6222 98.6228 41.5118C98.7842 41.4015 98.9785 41.3665 99.1632 41.4146C99.3479 41.4628 99.5077 41.59 99.6076 41.7685C99.7075 41.9469 99.7393 42.1619 99.696 42.3663L99.3132 44.164C99.2762 44.3375 99.1875 44.492 99.0613 44.6028C98.9352 44.7136 98.7789 44.7741 98.6179 44.7746Z" fill="#3F3D56"/>
<path d="M62.6867 50.1873C62.4511 50.1874 62.2213 50.1072 62.0284 49.9576L61.225 49.3353C61.0738 49.2182 60.9504 49.0625 60.8652 48.8813C60.78 48.7002 60.7354 48.4991 60.7354 48.2949V46.3893C60.7357 46.0066 60.8733 45.6398 61.1179 45.3692C61.3624 45.0986 61.694 44.9464 62.0399 44.946H63.2704C63.6162 44.9464 63.9478 45.0986 64.1924 45.3692C64.4369 45.6398 64.5745 46.0066 64.5749 46.3893V48.3136C64.5746 48.5125 64.5321 48.7086 64.4511 48.8861C64.37 49.0636 64.2524 49.2177 64.1079 49.336L63.3676 49.9395C63.1704 50.1005 62.9317 50.1874 62.6867 50.1873Z" fill="#3F3D56"/>
<path d="M63.2704 57.1589H62.0399C61.694 57.1585 61.3624 57.0063 61.1179 56.7357C60.8733 56.4652 60.7357 56.0983 60.7354 55.7157V53.8101C60.7354 53.6059 60.78 53.4047 60.8652 53.2236C60.9504 53.0425 61.0738 52.8868 61.225 52.7696L62.0284 52.1474C62.2252 51.9948 62.4603 51.9145 62.7006 51.9177C62.9409 51.921 63.1742 52.0076 63.3676 52.1654L64.1079 52.769C64.2524 52.8873 64.37 53.0413 64.451 53.2189C64.5321 53.3964 64.5746 53.5925 64.5749 53.7914V55.7157C64.5745 56.0983 64.4369 56.4652 64.1924 56.7357C63.9478 57.0063 63.6162 57.1585 63.2704 57.1589Z" fill="#3F3D56"/>
<path d="M67.1099 53.1765H65.3876C65.203 53.1764 65.0212 53.1271 64.8575 53.0328C64.6938 52.9385 64.553 52.802 64.4471 52.6347L63.8848 51.7459C63.7468 51.5282 63.6742 51.268 63.6771 51.0021C63.6801 50.7363 63.7584 50.4782 63.9011 50.2642L64.4466 49.4452C64.5535 49.2852 64.6927 49.1552 64.8532 49.0655C65.0137 48.9758 65.1909 48.9289 65.3707 48.9285H67.1099C67.4558 48.9289 67.7874 49.0811 68.0319 49.3517C68.2765 49.6223 68.4141 49.9891 68.4145 50.3718V51.7332C68.4141 52.1158 68.2765 52.4827 68.0319 52.7533C67.7874 53.0238 67.4558 53.176 67.1099 53.1765Z" fill="#3F3D56"/>
<path d="M59.8267 53.1765H58.1043C57.7585 53.176 57.4269 53.0238 57.1823 52.7533C56.9378 52.4827 56.8002 52.1158 56.7998 51.7332V50.3718C56.8002 49.9891 56.9378 49.6223 57.1823 49.3517C57.4269 49.0811 57.7585 48.9289 58.1043 48.9285H59.8436C60.0234 48.9289 60.2006 48.9758 60.3611 49.0655C60.5215 49.1552 60.6608 49.2852 60.7677 49.4452L61.3132 50.2642C61.4559 50.4782 61.5342 50.7363 61.5371 51.0021C61.54 51.268 61.4674 51.5282 61.3295 51.7459L60.7671 52.6347C60.6612 52.802 60.5205 52.9385 60.3568 53.0328C60.1931 53.1271 60.0112 53.1764 59.8267 53.1765Z" fill="#3F3D56"/>
<path d="M103.882 48.0789C105.102 48.0789 106.09 46.9853 106.09 45.6363C106.09 44.2873 105.102 43.1937 103.882 43.1937C102.663 43.1937 101.674 44.2873 101.674 45.6363C101.674 46.9853 102.663 48.0789 103.882 48.0789Z" fill="#3F3D56"/>
<path d="M108.778 53.7075C109.997 53.7075 110.985 52.6139 110.985 51.2649C110.985 49.9159 109.997 48.8223 108.778 48.8223C107.558 48.8223 106.57 49.9159 106.57 51.2649C106.57 52.6139 107.558 53.7075 108.778 53.7075Z" fill="#3F3D56"/>
<path d="M103.882 59.0174C105.102 59.0174 106.09 57.9239 106.09 56.5749C106.09 55.2258 105.102 54.1323 103.882 54.1323C102.663 54.1323 101.674 55.2258 101.674 56.5749C101.674 57.9239 102.663 59.0174 103.882 59.0174Z" fill="#3F3D56"/>
<path d="M98.9869 53.6013C100.206 53.6013 101.195 52.5077 101.195 51.1587C101.195 49.8097 100.206 48.7161 98.9869 48.7161C97.7676 48.7161 96.7791 49.8097 96.7791 51.1587C96.7791 52.5077 97.7676 53.6013 98.9869 53.6013Z" fill="#3F3D56"/>
<path d="M108.778 52.8579C108.493 52.8579 108.215 52.7644 107.978 52.5894C107.741 52.4144 107.556 52.1656 107.447 51.8745C107.338 51.5834 107.31 51.2631 107.365 50.9541C107.421 50.6451 107.558 50.3612 107.76 50.1385C107.961 49.9157 108.217 49.764 108.497 49.7025C108.776 49.641 109.066 49.6726 109.329 49.7931C109.592 49.9137 109.817 50.1179 109.975 50.3798C110.133 50.6418 110.217 50.9498 110.217 51.2649C110.217 51.6872 110.065 52.0921 109.795 52.3908C109.525 52.6894 109.159 52.8574 108.778 52.8579ZM108.778 49.8843C108.531 49.8843 108.29 49.9652 108.084 50.1169C107.879 50.2686 107.719 50.4843 107.625 50.7365C107.53 50.9888 107.506 51.2664 107.554 51.5342C107.602 51.802 107.721 52.048 107.895 52.2411C108.07 52.4342 108.292 52.5657 108.534 52.6189C108.776 52.6722 109.027 52.6449 109.255 52.5404C109.483 52.4359 109.678 52.2589 109.815 52.0319C109.952 51.8048 110.026 51.5379 110.026 51.2649C110.025 50.8988 109.894 50.5479 109.66 50.2891C109.426 50.0303 109.108 49.8847 108.778 49.8843Z" fill="#E6E6E6"/>
<path d="M105.425 46.8215L102.531 46.7762L104.014 44.0264L105.425 46.8215ZM102.867 46.569L105.095 46.6039L104.008 44.4512L102.867 46.569Z" fill="#E6E6E6"/>
<path d="M100.139 52.4331H97.835V49.8843H100.139V52.4331ZM98.0269 52.2207H99.9467V50.0967H98.0269V52.2207Z" fill="#E6E6E6"/>
<path d="M105.074 57.6715L104.018 56.506L104.949 55.4782L104.813 55.3279L103.882 56.3559L102.951 55.3279L102.816 55.4782L103.746 56.506L102.691 57.6715L102.827 57.8218L103.882 56.6561L104.938 57.8218L105.074 57.6715Z" fill="#E6E6E6"/>
<path d="M62.6835 28.8417C62.3987 28.8417 62.1203 28.7483 61.8836 28.5733C61.6468 28.3982 61.4622 28.1494 61.3533 27.8584C61.2443 27.5673 61.2158 27.247 61.2713 26.938C61.3269 26.629 61.464 26.3451 61.6654 26.1223C61.8667 25.8995 62.1233 25.7478 62.4026 25.6864C62.6819 25.6249 62.9714 25.6564 63.2345 25.777C63.4976 25.8976 63.7224 26.1018 63.8807 26.3637C64.0389 26.6257 64.1233 26.9337 64.1233 27.2487C64.1229 27.6711 63.971 28.076 63.7011 28.3746C63.4312 28.6733 63.0652 28.8413 62.6835 28.8417ZM62.6835 25.8682C62.4367 25.8682 62.1954 25.9491 61.9902 26.1008C61.785 26.2525 61.6251 26.4681 61.5306 26.7204C61.4362 26.9727 61.4115 27.2503 61.4596 27.5181C61.5078 27.7859 61.6266 28.0319 61.8011 28.225C61.9756 28.4181 62.198 28.5495 62.44 28.6028C62.6821 28.6561 62.933 28.6287 63.161 28.5243C63.389 28.4198 63.5839 28.2428 63.721 28.0158C63.8581 27.7887 63.9313 27.5218 63.9313 27.2487C63.931 26.8827 63.7994 26.5318 63.5654 26.273C63.3315 26.0141 63.0143 25.8686 62.6835 25.8682Z" fill="#E6E6E6"/>
<path d="M59.4268 26.2037L56.5333 26.1584L58.0155 23.4086L59.4268 26.2037ZM56.8685 25.9512L59.097 25.9861L58.0101 23.8334L56.8685 25.9512Z" fill="#E6E6E6"/>
<path d="M55.168 30.0781H52.8643V27.5293H55.168V30.0781ZM53.0562 29.8657H54.976V27.7417H53.0562V29.8657Z" fill="#E6E6E6"/>
<path d="M57.2516 34.8235L56.1962 33.658L57.1269 32.6303L56.9913 32.48L56.0603 33.508L55.1293 32.48L54.9936 32.6303L55.9244 33.658L54.869 34.8235L55.0046 34.9738L56.0603 33.8081L57.116 34.9738L57.2516 34.8235Z" fill="#E6E6E6"/>
<path opacity="0.2" d="M122.264 57.5837L118.538 60.6862L122.744 58.6457L122.264 57.5837Z" fill="black"/>
<path d="M53.3443 61.4069L48.6408 61.6193L48.0649 58.1147L52.0964 56.7341L53.3443 61.4069Z" fill="#A0616A"/>
<path d="M51.615 52.8179L50.5659 51.6361L51.8522 49.4601L54.0538 45.4055C53.9819 45.2308 53.9596 45.0361 53.9898 44.8471C54.0201 44.6581 54.1015 44.4837 54.2233 44.347C54.3451 44.2103 54.5015 44.1178 54.6719 44.0816C54.8423 44.0454 55.0186 44.0673 55.1775 44.1443C55.3364 44.2214 55.4704 44.35 55.5618 44.5132C55.6531 44.6764 55.6976 44.8664 55.6893 45.0581C55.6809 45.2498 55.6201 45.4342 55.515 45.5869C55.4099 45.7396 55.2653 45.8534 55.1005 45.9132L53.2832 50.2418L51.615 52.8179Z" fill="#A0616A"/>
<path d="M50.4529 55.5159C50.3297 55.727 50.1542 55.8943 49.9473 55.9979C49.7405 56.1015 49.511 56.1371 49.2864 56.1003C49.0726 56.0723 48.8708 55.976 48.7059 55.823C48.5409 55.67 48.4199 55.467 48.3577 55.2389C48.3119 55.0771 48.2986 54.9062 48.3186 54.738C48.3387 54.5699 48.3916 54.4086 48.4738 54.2655C49.1756 52.9565 50.47 51.2279 50.483 51.2107L50.5036 51.1832L52.6867 51.7065L50.4529 55.5159Z" fill="#F9A826"/>
<path d="M52.2232 84.4831L53.5276 84.483L54.148 78.9166L52.2229 78.9167L52.2232 84.4831Z" fill="#A0616A"/>
<path d="M51.8904 84.012L54.4593 84.0119H54.4594C54.8935 84.0119 55.3099 84.2027 55.6169 84.5424C55.9239 84.882 56.0964 85.3427 56.0964 85.823V85.8819L51.8905 85.8821L51.8904 84.012Z" fill="#2F2E41"/>
<path d="M42.0667 83.8585L43.3564 84.0741L44.7221 78.6729L43.0313 78.3545L42.0667 83.8585Z" fill="#A0616A"/>
<path d="M41.8013 83.3375L44.3413 83.7623L44.3414 83.7623C44.7707 83.8341 45.1566 84.0917 45.4143 84.4783C45.6719 84.8649 45.7802 85.3489 45.7154 85.8239L45.7074 85.8821L41.5487 85.1866L41.8013 83.3375Z" fill="#2F2E41"/>
<path d="M48.4488 60.5573L52.9603 59.7077L54.3562 62.8912L54.4094 83.6678L51.9334 83.6506L50.8983 66.8346L44.3018 82.3729L41.6418 82.0198L47.4404 65.3632C47.4404 65.3632 47.1213 62.4203 48.132 60.9489L48.4488 60.5573Z" fill="#2F2E41"/>
<path d="M46.7739 54.2853C46.705 54.0561 46.6977 53.8098 46.7529 53.5761C46.8081 53.3424 46.9234 53.1315 47.0849 52.969L47.726 52.3242L49.5336 51.9872L50.6638 51.76L52.4803 57.5837L48.0684 59.8264C47.6812 59.7339 47.5265 59.4996 47.7518 59.0336L46.7739 54.2853Z" fill="#F9A826"/>
<path d="M50.8231 56.2504L52.0851 55.3593L53.7433 57.2018L56.8734 60.4236C57.0427 60.3818 57.2196 60.398 57.3804 60.4698C57.5413 60.5417 57.6787 60.6659 57.7744 60.826C57.87 60.9861 57.9195 61.1746 57.9163 61.3665C57.9131 61.5584 57.8573 61.7447 57.7562 61.9008C57.6552 62.0568 57.5137 62.1753 57.3506 62.2404C57.1874 62.3056 57.0101 62.3144 56.8423 62.2657C56.6745 62.217 56.524 62.1131 56.4107 61.9677C56.2975 61.8223 56.2268 61.6423 56.208 61.4515L52.756 58.5891L50.8231 56.2504Z" fill="#A0616A"/>
<path d="M48.6776 54.4343C48.5164 54.2573 48.4048 54.0327 48.3559 53.7874C48.3071 53.5421 48.3231 53.2864 48.4022 53.0509C48.4711 52.8253 48.5981 52.6269 48.7675 52.4799C48.9369 52.333 49.1414 52.244 49.3559 52.2238C49.5085 52.2077 49.6624 52.2286 49.807 52.2851C49.9515 52.3416 50.0831 52.4323 50.1927 52.5508C51.205 53.5812 52.4659 55.3399 52.4785 55.3575L52.4985 55.3855L51.5842 57.6403L48.6776 54.4343Z" fill="#F9A826"/>
<path d="M48.7403 51.2787C49.8362 51.2787 50.7245 50.2959 50.7245 49.0835C50.7245 47.8711 49.8362 46.8882 48.7403 46.8882C47.6445 46.8882 46.7562 47.8711 46.7562 49.0835C46.7562 50.2959 47.6445 51.2787 48.7403 51.2787Z" fill="#A0616A"/>
<path d="M47.1339 52.2108C46.8262 52.2108 46.5188 52.19 46.2134 52.1488L46.1715 52.1431L45.8519 50.2234C45.7163 49.4096 45.8675 48.5693 46.2743 47.8749C46.6811 47.1805 47.3127 46.6848 48.0394 46.4894C48.0879 46.4758 48.1389 46.4772 48.1867 46.4936C48.2344 46.51 48.2772 46.5406 48.3103 46.5821L48.3865 46.5527C48.6784 46.4401 48.9874 46.3923 49.2959 46.4118C49.6045 46.4313 49.9066 46.5179 50.1849 46.6666C50.4632 46.8153 50.7123 47.0232 50.918 47.2784C51.1237 47.5337 51.282 47.8312 51.3837 48.1541L51.4026 48.2141L50.8939 48.4103C50.7354 48.4714 50.5913 48.5709 50.4719 48.7015C50.3525 48.832 50.2609 48.9904 50.2038 49.165C50.1467 49.3396 50.1255 49.5261 50.1417 49.711C50.158 49.8958 50.2112 50.0743 50.2977 50.2335L50.8177 51.1915L50.7624 51.2222C49.6399 51.8625 48.3968 52.2012 47.1339 52.2108Z" fill="#2F2E41"/>
<path d="M115.301 61.3972C115.324 61.2745 115.371 61.1588 115.439 61.0583C115.507 60.9579 115.593 60.8751 115.693 60.8158C115.793 60.7565 115.903 60.7221 116.016 60.715C116.129 60.708 116.243 60.7285 116.348 60.7751L118.152 58.474L118.538 59.9984L116.765 61.9498C116.683 62.1401 116.54 62.2904 116.365 62.3721C116.189 62.4538 115.992 62.4613 115.811 62.3932C115.631 62.325 115.479 62.186 115.385 62.0025C115.291 61.8189 115.261 61.6035 115.301 61.3972H115.301Z" fill="#FFB6B6"/>
<path d="M123.354 51.2807L124.093 51.2365L124.204 51.7564C124.204 51.7564 124.193 52.4221 123.519 53.8059C122.845 55.1898 117.622 61.3509 117.622 61.3509L116.491 59.9307L119.287 56.7446L120.98 53.4053L123.354 51.2807Z" fill="#F9A826"/>
<path d="M39.1197 86H126.88C126.912 86 126.942 85.986 126.965 85.9612C126.987 85.9364 127 85.9027 127 85.8676C127 85.8324 126.987 85.7988 126.965 85.7739C126.942 85.7491 126.912 85.7351 126.88 85.7351H39.1197C39.088 85.7351 39.0575 85.7491 39.0351 85.7739C39.0126 85.7988 39 85.8324 39 85.8676C39 85.9027 39.0126 85.9364 39.0351 85.9612C39.0575 85.986 39.088 86 39.1197 86Z" fill="#CCCCCC"/>
</g>
<defs>
<filter id="filter0_d_735_26" x="0" y="0" width="165" height="162" filterUnits="userSpaceOnUse" color-interpolation-filters="sRGB">
<feFlood flood-opacity="0" result="BackgroundImageFix"/>
<feColorMatrix in="SourceAlpha" type="matrix" values="0 0 0 0 0 0 0 0 0 0 0 0 0 0 0 0 0 0 127 0" result="hardAlpha"/>
<feOffset dy="4"/>
<feGaussianBlur stdDeviation="2"/>
<feComposite in2="hardAlpha" operator="out"/>
<feColorMatrix type="matrix" values="0 0 0 0 0 0 0 0 0 0 0 0 0 0 0 0 0 0 0.25 0"/>
<feBlend mode="normal" in2="BackgroundImageFix" result="effect1_dropShadow_735_26"/>
<feBlend mode="normal" in="SourceGraphic" in2="effect1_dropShadow_735_26" result="shape"/>
</filter>
<filter id="filter1_d_735_26" x="35" y="21" width="96" height="73" filterUnits="userSpaceOnUse" color-interpolation-filters="sRGB">
<feFlood flood-opacity="0" result="BackgroundImageFix"/>
<feColorMatrix in="SourceAlpha" type="matrix" values="0 0 0 0 0 0 0 0 0 0 0 0 0 0 0 0 0 0 127 0" result="hardAlpha"/>
<feOffset dy="4"/>
<feGaussianBlur stdDeviation="2"/>
<feComposite in2="hardAlpha" operator="out"/>
<feColorMatrix type="matrix" values="0 0 0 0 0 0 0 0 0 0 0 0 0 0 0 0 0 0 0.25 0"/>
<feBlend mode="normal" in2="BackgroundImageFix" result="effect1_dropShadow_735_26"/>
<feBlend mode="normal" in="SourceGraphic" in2="effect1_dropShadow_735_26" result="shape"/>
</filter>
<clipPath id="clip0_735_26">
<rect width="88" height="65" fill="white" transform="translate(39 21)"/>
</clipPath>
</defs>
</svg>
