<svg width="165" height="162" viewBox="0 0 165 162" fill="none" xmlns="http://www.w3.org/2000/svg">
<g filter="url(#filter0_d_735_27)">
<path d="M159 77C159 118.385 124.786 152 82.5 152C40.2137 152 6 118.385 6 77C6 35.6148 40.2137 2 82.5 2C124.786 2 159 35.6148 159 77Z" fill="white" stroke="#F9A826" stroke-width="4"/>
<path d="M41.5628 107V93.9091H43.148V105.594H49.2332V107H41.5628ZM52.0921 93.9091V95.0597C52.0921 95.4091 52.0281 95.782 51.9003 96.1783C51.7767 96.5703 51.5935 96.9517 51.3506 97.3224C51.1119 97.6889 50.8222 98.0085 50.4813 98.2812L49.6631 97.6165C49.9316 97.233 50.1638 96.8345 50.3598 96.4212C50.5601 96.0036 50.6602 95.5582 50.6602 95.0852V93.9091H52.0921ZM55.9545 107.23C55.3323 107.23 54.7677 107.113 54.2606 106.879C53.7535 106.64 53.3508 106.297 53.0525 105.849C52.7542 105.398 52.605 104.852 52.605 104.213C52.605 103.651 52.7158 103.195 52.9374 102.845C53.159 102.491 53.4552 102.214 53.8259 102.014C54.1966 101.814 54.6057 101.665 55.0532 101.567C55.5049 101.464 55.9587 101.384 56.4147 101.324C57.0113 101.247 57.4949 101.19 57.8657 101.151C58.2407 101.109 58.5134 101.038 58.6839 100.94C58.8586 100.842 58.9459 100.672 58.9459 100.429V100.378C58.9459 99.7472 58.7733 99.2571 58.4282 98.9077C58.0873 98.5582 57.5695 98.3835 56.8749 98.3835C56.1547 98.3835 55.5901 98.5412 55.181 98.8565C54.7719 99.1719 54.4843 99.5085 54.3181 99.8665L52.8863 99.3551C53.142 98.7585 53.4829 98.294 53.909 97.9616C54.3394 97.625 54.8081 97.3906 55.3153 97.2585C55.8266 97.1222 56.3295 97.054 56.8238 97.054C57.1391 97.054 57.5013 97.0923 57.9104 97.169C58.3238 97.2415 58.7222 97.3928 59.1057 97.6229C59.4935 97.853 59.8153 98.2003 60.0709 98.6648C60.3266 99.1293 60.4545 99.7514 60.4545 100.531V107H58.9459V105.67H58.8692C58.767 105.884 58.5965 106.112 58.3579 106.354C58.1192 106.597 57.8018 106.804 57.4055 106.974C57.0091 107.145 56.5255 107.23 55.9545 107.23ZM56.1846 105.875C56.7812 105.875 57.284 105.758 57.6931 105.523C58.1064 105.289 58.4175 104.987 58.6263 104.616C58.8394 104.245 58.9459 103.855 58.9459 103.446V102.065C58.882 102.142 58.7414 102.212 58.5241 102.276C58.311 102.336 58.0638 102.389 57.7826 102.436C57.5056 102.479 57.235 102.517 56.9708 102.551C56.7108 102.581 56.4999 102.607 56.338 102.628C55.9459 102.679 55.5795 102.762 55.2385 102.877C54.9019 102.988 54.6292 103.156 54.4204 103.382C54.2158 103.604 54.1135 103.906 54.1135 104.29C54.1135 104.814 54.3074 105.21 54.6952 105.479C55.0873 105.743 55.5837 105.875 56.1846 105.875ZM70.8847 97.1818L67.254 107H65.7199L62.0892 97.1818H63.7256L66.4358 105.006H66.5381L69.2483 97.1818H70.8847ZM76.6407 107.205C75.6947 107.205 74.8786 106.996 74.1926 106.578C73.5107 106.156 72.9845 105.568 72.6137 104.814C72.2472 104.055 72.064 103.173 72.064 102.168C72.064 101.162 72.2472 100.276 72.6137 99.5085C72.9845 98.7372 73.5001 98.1364 74.1606 97.706C74.8254 97.2713 75.6009 97.054 76.4873 97.054C76.9987 97.054 77.5036 97.1392 78.0022 97.3097C78.5008 97.4801 78.9546 97.7571 79.3637 98.1406C79.7728 98.5199 80.0988 99.0227 80.3417 99.6491C80.5846 100.276 80.7061 101.047 80.7061 101.963V102.602H73.1379V101.298H79.172C79.172 100.744 79.0612 100.25 78.8396 99.8153C78.6222 99.3807 78.3112 99.0376 77.9063 98.7862C77.5058 98.5348 77.0328 98.4091 76.4873 98.4091C75.8865 98.4091 75.3666 98.5582 74.9276 98.8565C74.493 99.1506 74.1585 99.5341 73.9241 100.007C73.6897 100.48 73.5725 100.987 73.5725 101.528V102.398C73.5725 103.139 73.7004 103.768 73.9561 104.283C74.216 104.795 74.5761 105.185 75.0363 105.453C75.4965 105.717 76.0313 105.849 76.6407 105.849C77.037 105.849 77.395 105.794 77.7146 105.683C78.0384 105.568 78.3176 105.398 78.5519 105.172C78.7863 104.942 78.9674 104.656 79.0953 104.315L80.5526 104.724C80.3992 105.219 80.1414 105.653 79.7792 106.028C79.417 106.399 78.9695 106.689 78.4369 106.898C77.9042 107.102 77.3055 107.205 76.6407 107.205ZM84.5093 101.094V107H83.0008V97.1818H84.4582V98.7159H84.586C84.8161 98.2173 85.1656 97.8168 85.6343 97.5142C86.1031 97.2074 86.7082 97.054 87.4497 97.054C88.1144 97.054 88.6961 97.1903 89.1947 97.4631C89.6933 97.7315 90.0811 98.1406 90.358 98.6903C90.635 99.2358 90.7735 99.9261 90.7735 100.761V107H89.265V100.864C89.265 100.092 89.0647 99.4915 88.6642 99.0611C88.2636 98.6264 87.7139 98.4091 87.015 98.4091C86.5335 98.4091 86.1031 98.5135 85.7238 98.7223C85.3488 98.9311 85.0526 99.2358 84.8353 99.6364C84.618 100.037 84.5093 100.523 84.5093 101.094ZM97.8 97.1818V98.4602H92.7119V97.1818H97.8ZM94.1949 94.8295H95.7034V104.188C95.7034 104.614 95.7652 104.933 95.8888 105.146C96.0166 105.355 96.1785 105.496 96.3746 105.568C96.5748 105.636 96.7858 105.67 97.0074 105.67C97.1736 105.67 97.3099 105.662 97.4165 105.645C97.523 105.624 97.6082 105.607 97.6721 105.594L97.979 106.949C97.8767 106.987 97.7339 107.026 97.5507 107.064C97.3675 107.107 97.1352 107.128 96.854 107.128C96.4278 107.128 96.0102 107.036 95.6011 106.853C95.1963 106.67 94.8596 106.391 94.5912 106.016C94.327 105.641 94.1949 105.168 94.1949 104.597V94.8295ZM106.257 102.986V97.1818H107.765V107H106.257V105.338H106.154C105.924 105.837 105.566 106.261 105.081 106.61C104.595 106.955 103.981 107.128 103.24 107.128C102.626 107.128 102.081 106.994 101.603 106.725C101.126 106.452 100.751 106.043 100.478 105.498C100.206 104.948 100.069 104.256 100.069 103.42V97.1818H101.578V103.318C101.578 104.034 101.778 104.605 102.179 105.031C102.583 105.457 103.099 105.67 103.725 105.67C104.1 105.67 104.482 105.575 104.87 105.383C105.262 105.191 105.59 104.897 105.854 104.501C106.122 104.104 106.257 103.599 106.257 102.986ZM110.528 107V97.1818H111.986V98.6648H112.088C112.267 98.179 112.591 97.7848 113.059 97.4822C113.528 97.1797 114.057 97.0284 114.645 97.0284C114.755 97.0284 114.894 97.0305 115.06 97.0348C115.226 97.0391 115.352 97.0455 115.437 97.054V98.5881C115.386 98.5753 115.269 98.5561 115.086 98.5305C114.907 98.5007 114.717 98.4858 114.517 98.4858C114.04 98.4858 113.613 98.5859 113.238 98.7862C112.868 98.9822 112.574 99.255 112.356 99.6044C112.143 99.9496 112.037 100.344 112.037 100.787V107H110.528ZM121.043 107.205C120.097 107.205 119.281 106.996 118.595 106.578C117.913 106.156 117.387 105.568 117.016 104.814C116.65 104.055 116.466 103.173 116.466 102.168C116.466 101.162 116.65 100.276 117.016 99.5085C117.387 98.7372 117.902 98.1364 118.563 97.706C119.228 97.2713 120.003 97.054 120.89 97.054C121.401 97.054 121.906 97.1392 122.405 97.3097C122.903 97.4801 123.357 97.7571 123.766 98.1406C124.175 98.5199 124.501 99.0227 124.744 99.6491C124.987 100.276 125.108 101.047 125.108 101.963V102.602H117.54V101.298H123.574C123.574 100.744 123.464 100.25 123.242 99.8153C123.025 99.3807 122.714 99.0376 122.309 98.7862C121.908 98.5348 121.435 98.4091 120.89 98.4091C120.289 98.4091 119.769 98.5582 119.33 98.8565C118.895 99.1506 118.561 99.5341 118.326 100.007C118.092 100.48 117.975 100.987 117.975 101.528V102.398C117.975 103.139 118.103 103.768 118.358 104.283C118.618 104.795 118.978 105.185 119.439 105.453C119.899 105.717 120.434 105.849 121.043 105.849C121.439 105.849 121.797 105.794 122.117 105.683C122.441 105.568 122.72 105.398 122.954 105.172C123.189 104.942 123.37 104.656 123.498 104.315L124.955 104.724C124.802 105.219 124.544 105.653 124.182 106.028C123.819 106.399 123.372 106.689 122.839 106.898C122.307 107.102 121.708 107.205 121.043 107.205ZM41.5588 129.205C40.6383 129.205 39.8457 128.987 39.1809 128.553C38.5162 128.118 38.0048 127.519 37.6468 126.756C37.2889 125.994 37.1099 125.122 37.1099 124.142C37.1099 123.145 37.2931 122.265 37.6596 121.502C38.0304 120.735 38.546 120.136 39.2065 119.706C39.8713 119.271 40.6468 119.054 41.5332 119.054C42.2235 119.054 42.8457 119.182 43.3997 119.438C43.9537 119.693 44.4075 120.051 44.7612 120.511C45.1149 120.972 45.3343 121.509 45.4196 122.122H43.911C43.796 121.675 43.5403 121.278 43.144 120.933C42.752 120.584 42.2235 120.409 41.5588 120.409C40.9707 120.409 40.4551 120.562 40.0119 120.869C39.573 121.172 39.2299 121.6 38.9828 122.154C38.7399 122.704 38.6184 123.349 38.6184 124.091C38.6184 124.849 38.7377 125.51 38.9764 126.072C39.2193 126.635 39.5602 127.072 39.9991 127.383C40.4423 127.694 40.9622 127.849 41.5588 127.849C41.9508 127.849 42.3066 127.781 42.6262 127.645C42.9458 127.509 43.2164 127.312 43.438 127.057C43.6596 126.801 43.8173 126.494 43.911 126.136H45.4196C45.3343 126.716 45.1234 127.238 44.7868 127.702C44.4544 128.163 44.0133 128.529 43.4636 128.802C42.9181 129.07 42.2832 129.205 41.5588 129.205ZM51.6135 129.205C50.7271 129.205 49.9494 128.994 49.2804 128.572C48.6156 128.15 48.0957 127.56 47.7207 126.801C47.35 126.043 47.1646 125.156 47.1646 124.142C47.1646 123.119 47.35 122.227 47.7207 121.464C48.0957 120.701 48.6156 120.109 49.2804 119.687C49.9494 119.265 50.7271 119.054 51.6135 119.054C52.4998 119.054 53.2754 119.265 53.9402 119.687C54.6092 120.109 55.1291 120.701 55.4998 121.464C55.8748 122.227 56.0623 123.119 56.0623 124.142C56.0623 125.156 55.8748 126.043 55.4998 126.801C55.1291 127.56 54.6092 128.15 53.9402 128.572C53.2754 128.994 52.4998 129.205 51.6135 129.205ZM51.6135 127.849C52.2868 127.849 52.8407 127.677 53.2754 127.332C53.71 126.987 54.0318 126.533 54.2406 125.97C54.4494 125.408 54.5538 124.798 54.5538 124.142C54.5538 123.486 54.4494 122.874 54.2406 122.308C54.0318 121.741 53.71 121.283 53.2754 120.933C52.8407 120.584 52.2868 120.409 51.6135 120.409C50.9402 120.409 50.3862 120.584 49.9515 120.933C49.5169 121.283 49.1951 121.741 48.9863 122.308C48.7775 122.874 48.6731 123.486 48.6731 124.142C48.6731 124.798 48.7775 125.408 48.9863 125.97C49.1951 126.533 49.5169 126.987 49.9515 127.332C50.3862 127.677 50.9402 127.849 51.6135 127.849ZM58.3651 129V119.182H59.8224V120.716H59.9503C60.1548 120.192 60.4851 119.785 60.9411 119.495C61.397 119.201 61.9446 119.054 62.5838 119.054C63.2315 119.054 63.7706 119.201 64.201 119.495C64.6357 119.785 64.9744 120.192 65.2173 120.716H65.3196C65.571 120.209 65.9482 119.806 66.451 119.508C66.9538 119.205 67.5568 119.054 68.2599 119.054C69.1378 119.054 69.8558 119.329 70.4141 119.879C70.9723 120.424 71.2514 121.274 71.2514 122.429V129H69.7429V122.429C69.7429 121.705 69.5447 121.187 69.1484 120.876C68.7521 120.565 68.2855 120.409 67.7486 120.409C67.0582 120.409 66.5234 120.618 66.1442 121.036C65.7649 121.449 65.5753 121.973 65.5753 122.608V129H64.0412V122.276C64.0412 121.717 63.8601 121.268 63.4979 120.927C63.1357 120.582 62.669 120.409 62.098 120.409C61.706 120.409 61.3395 120.513 60.9986 120.722C60.6619 120.931 60.3892 121.221 60.1804 121.592C59.9759 121.958 59.8736 122.382 59.8736 122.864V129H58.3651ZM74.0096 129V119.182H75.467V120.716H75.5948C75.7994 120.192 76.1296 119.785 76.5856 119.495C77.0415 119.201 77.5891 119.054 78.2283 119.054C78.8761 119.054 79.4151 119.201 79.8455 119.495C80.2802 119.785 80.619 120.192 80.8619 120.716H80.9641C81.2156 120.209 81.5927 119.806 82.0955 119.508C82.5984 119.205 83.2014 119.054 83.9045 119.054C84.7823 119.054 85.5004 119.329 86.0586 119.879C86.6168 120.424 86.896 121.274 86.896 122.429V129H85.3874V122.429C85.3874 121.705 85.1893 121.187 84.793 120.876C84.3967 120.565 83.93 120.409 83.3931 120.409C82.7028 120.409 82.168 120.618 81.7887 121.036C81.4094 121.449 81.2198 121.973 81.2198 122.608V129H79.6857V122.276C79.6857 121.717 79.5046 121.268 79.1424 120.927C78.7802 120.582 78.3136 120.409 77.7425 120.409C77.3505 120.409 76.984 120.513 76.6431 120.722C76.3065 120.931 76.0337 121.221 75.8249 121.592C75.6204 121.958 75.5181 122.382 75.5181 122.864V129H74.0096ZM93.7706 129.205C92.8246 129.205 92.0085 128.996 91.3224 128.578C90.6406 128.156 90.1143 127.568 89.7436 126.814C89.3771 126.055 89.1939 125.173 89.1939 124.168C89.1939 123.162 89.3771 122.276 89.7436 121.509C90.1143 120.737 90.63 120.136 91.2905 119.706C91.9553 119.271 92.7308 119.054 93.6172 119.054C94.1286 119.054 94.6335 119.139 95.1321 119.31C95.6307 119.48 96.0845 119.757 96.4936 120.141C96.9027 120.52 97.2287 121.023 97.4716 121.649C97.7145 122.276 97.8359 123.047 97.8359 123.963V124.602H90.2678V123.298H96.3018C96.3018 122.744 96.1911 122.25 95.9695 121.815C95.7521 121.381 95.4411 121.038 95.0362 120.786C94.6357 120.535 94.1626 120.409 93.6172 120.409C93.0163 120.409 92.4964 120.558 92.0575 120.857C91.6229 121.151 91.2884 121.534 91.054 122.007C90.8196 122.48 90.7024 122.987 90.7024 123.528V124.398C90.7024 125.139 90.8303 125.768 91.0859 126.283C91.3459 126.795 91.706 127.185 92.1662 127.453C92.6264 127.717 93.1612 127.849 93.7706 127.849C94.1669 127.849 94.5249 127.794 94.8445 127.683C95.1683 127.568 95.4474 127.398 95.6818 127.172C95.9162 126.942 96.0973 126.656 96.2251 126.315L97.6825 126.724C97.5291 127.219 97.2713 127.653 96.9091 128.028C96.5469 128.399 96.0994 128.689 95.5668 128.898C95.0341 129.102 94.4354 129.205 93.7706 129.205ZM101.639 123.094V129H100.131V119.182H101.588V120.716H101.716C101.946 120.217 102.295 119.817 102.764 119.514C103.233 119.207 103.838 119.054 104.58 119.054C105.244 119.054 105.826 119.19 106.325 119.463C106.823 119.732 107.211 120.141 107.488 120.69C107.765 121.236 107.903 121.926 107.903 122.761V129H106.395V122.864C106.395 122.092 106.195 121.491 105.794 121.061C105.393 120.626 104.844 120.409 104.145 120.409C103.663 120.409 103.233 120.513 102.854 120.722C102.479 120.931 102.183 121.236 101.965 121.636C101.748 122.037 101.639 122.523 101.639 123.094ZM114.649 129.205C113.728 129.205 112.936 128.987 112.271 128.553C111.606 128.118 111.095 127.519 110.737 126.756C110.379 125.994 110.2 125.122 110.2 124.142C110.2 123.145 110.383 122.265 110.749 121.502C111.12 120.735 111.636 120.136 112.296 119.706C112.961 119.271 113.737 119.054 114.623 119.054C115.313 119.054 115.936 119.182 116.49 119.438C117.044 119.693 117.497 120.051 117.851 120.511C118.205 120.972 118.424 121.509 118.509 122.122H117.001C116.886 121.675 116.63 121.278 116.234 120.933C115.842 120.584 115.313 120.409 114.649 120.409C114.061 120.409 113.545 120.562 113.102 120.869C112.663 121.172 112.32 121.6 112.073 122.154C111.83 122.704 111.708 123.349 111.708 124.091C111.708 124.849 111.828 125.51 112.066 126.072C112.309 126.635 112.65 127.072 113.089 127.383C113.532 127.694 114.052 127.849 114.649 127.849C115.041 127.849 115.396 127.781 115.716 127.645C116.036 127.509 116.306 127.312 116.528 127.057C116.749 126.801 116.907 126.494 117.001 126.136H118.509C118.424 126.716 118.213 127.238 117.877 127.702C117.544 128.163 117.103 128.529 116.553 128.802C116.008 129.07 115.373 129.205 114.649 129.205ZM124.831 129.205C123.885 129.205 123.069 128.996 122.383 128.578C121.701 128.156 121.175 127.568 120.804 126.814C120.438 126.055 120.254 125.173 120.254 124.168C120.254 123.162 120.438 122.276 120.804 121.509C121.175 120.737 121.691 120.136 122.351 119.706C123.016 119.271 123.791 119.054 124.678 119.054C125.189 119.054 125.694 119.139 126.193 119.31C126.691 119.48 127.145 119.757 127.554 120.141C127.963 120.52 128.289 121.023 128.532 121.649C128.775 122.276 128.896 123.047 128.896 123.963V124.602H121.328V123.298H127.362C127.362 122.744 127.252 122.25 127.03 121.815C126.813 121.381 126.502 121.038 126.097 120.786C125.696 120.535 125.223 120.409 124.678 120.409C124.077 120.409 123.557 120.558 123.118 120.857C122.683 121.151 122.349 121.534 122.115 122.007C121.88 122.48 121.763 122.987 121.763 123.528V124.398C121.763 125.139 121.891 125.768 122.146 126.283C122.406 126.795 122.767 127.185 123.227 127.453C123.687 127.717 124.222 127.849 124.831 127.849C125.227 127.849 125.585 127.794 125.905 127.683C126.229 127.568 126.508 127.398 126.742 127.172C126.977 126.942 127.158 126.656 127.286 126.315L128.743 126.724C128.59 127.219 128.332 127.653 127.97 128.028C127.607 128.399 127.16 128.689 126.627 128.898C126.095 129.102 125.496 129.205 124.831 129.205Z" fill="black"/>
<path d="M82.8382 60L75 51.3303L79.5583 48.2806L83.2697 52.3855L95.8074 41L100 44.4171L82.8382 60Z" fill="white"/>
</g>
<g clip-path="url(#clip0_735_27)" filter="url(#filter1_d_735_27)">
<path d="M95.3665 90.8092C95.3665 90.8092 93.8797 87.1648 98.3399 84.4314L95.3665 90.8092Z" fill="#E6E6E6"/>
<path d="M93.538 90.7429C93.538 90.7429 93.0845 88.1453 89.5742 88.1676L93.538 90.7429Z" fill="#E6E6E6"/>
<path d="M127.072 90.8092C127.072 90.8092 125.107 85.9944 131 82.3833L127.072 90.8092Z" fill="#E6E6E6"/>
<path d="M124.656 90.7216C124.656 90.7216 124.057 87.2899 119.419 87.3193L124.656 90.7216Z" fill="#E6E6E6"/>
<path d="M90.3344 36.8478L88.3946 35.8217L88.5398 35.7449L90.4796 36.7711L90.3344 36.8478Z" fill="#CBCBCB"/>
<path d="M88.6424 36.8478L88.4973 36.7711L90.437 35.7449L90.5822 35.8217L88.6424 36.8478Z" fill="#CBCBCB"/>
<path d="M74.2048 28.8942L74.1112 29.0761L74.6592 29.3558L74.7528 29.1738L74.2048 28.8942Z" fill="#CBCBCB"/>
<path d="M85.5662 34.9216L84.4755 34.3651L84.5691 34.1831L85.6597 34.7397L85.5662 34.9216ZM83.3848 33.8085L82.294 33.2518L82.3876 33.0699L83.4784 33.6265L83.3848 33.8085ZM81.2033 32.6953L80.1127 32.1387L80.2063 31.9567L81.2969 32.5133L81.2033 32.6953ZM79.022 31.5821L77.9312 31.0255L78.0248 30.8436L79.1156 31.4002L79.022 31.5821ZM76.8405 30.4689L75.7498 29.9123L75.8435 29.7304L76.9341 30.287L76.8405 30.4689Z" fill="#CBCBCB"/>
<path d="M86.7504 35.2963L86.6568 35.4782L87.2048 35.7579L87.2984 35.5759L86.7504 35.2963Z" fill="#CBCBCB"/>
<path d="M45.3751 42.5775C45.3751 42.6413 45.373 42.7046 45.3689 42.7674C45.3456 43.1294 45.2537 43.4839 45.0982 43.8119C45.0969 43.8147 45.0955 43.8173 45.0943 43.8199C45.0871 43.8351 45.0797 43.8503 45.072 43.8654C45.0258 43.9581 44.9744 44.0483 44.9183 44.1355C44.6618 44.5359 44.3102 44.8671 43.8946 45.1C43.4791 45.3329 43.0123 45.4603 42.5355 45.4709L42.5643 47.1168L42.9391 46.9203L43.006 47.047L42.5671 47.2771L42.6207 50.3341L42.6213 50.3749L42.3315 50.4392L42.3321 50.3981L42.4234 45.4711C42.0397 45.4656 41.6608 45.3843 41.3089 45.2318C40.957 45.0793 40.6391 44.8587 40.3735 44.5829C40.3552 44.5641 40.3371 44.5446 40.3194 44.5254L40.3174 44.5232C40.0961 44.2829 39.9171 44.0071 39.788 43.7074C39.7908 43.7106 39.7938 43.7136 39.7967 43.7168C39.5049 43.0374 39.4851 42.2725 39.7414 41.579C39.9976 40.8854 40.5105 40.3157 41.1749 39.9866C41.185 39.9816 41.1952 39.9768 41.2053 39.9718C41.8625 39.6566 42.6147 39.5987 43.3128 39.8097C44.0108 40.0208 44.6038 40.4853 44.9741 41.1112C44.9918 41.1408 45.0089 41.1711 45.0254 41.2015C45.2554 41.6239 45.3757 42.0969 45.3751 42.5775Z" fill="#E5E5E5"/>
<path d="M44.9839 43.8215C47.0877 43.8215 48.7931 42.1231 48.7931 40.028C48.7931 37.933 47.0877 36.2346 44.9839 36.2346C42.8801 36.2346 41.1747 37.933 41.1747 40.028C41.1747 42.1231 42.8801 43.8215 44.9839 43.8215Z" fill="#E5E5E5"/>
<path opacity="0.2" d="M42.1713 37.4943C41.8159 38.322 41.7677 39.2486 42.0353 40.1084C42.3028 40.9683 42.8686 41.7054 43.6316 42.188C44.3947 42.6706 45.3051 42.8673 46.2004 42.743C47.0956 42.6186 47.9173 42.1813 48.5186 41.5092C48.3015 42.0149 47.9767 42.4675 47.5665 42.8358C47.1564 43.204 46.6707 43.4791 46.1432 43.6419C45.6157 43.8046 45.059 43.8513 44.5116 43.7785C43.9642 43.7057 43.4393 43.5153 42.9731 43.2205C42.507 42.9256 42.1107 42.5334 41.8119 42.0709C41.5131 41.6084 41.3188 41.0867 41.2426 40.5421C41.1663 39.9974 41.2098 39.4427 41.3702 38.9164C41.5306 38.3902 41.8039 37.9049 42.1713 37.4943Z" fill="black"/>
<path d="M45.1899 50.5959L44.8009 50.4872L44.8017 50.4456L44.9183 44.1356L44.9241 43.8209L44.9242 43.8118L44.9446 42.7093L44.9741 41.1114V41.1112L44.9942 40.0281H45.0049L45.0254 41.2015L45.0521 42.7288L45.0713 43.8125V43.8205L45.0721 43.8652V43.8654L45.109 45.9778L45.1129 46.1877L45.1892 50.5539L45.1899 50.5959Z" fill="#3F3D56"/>
<path d="M45.6002 45.7203L44.9705 46.0504L45.0583 46.2164L45.688 45.8863L45.6002 45.7203Z" fill="#3F3D56"/>
<path d="M94.3629 27.7511C89.555 27.4681 84.7326 27.5419 79.9357 27.972C77.6236 28.1801 75.2748 28.4049 73.0055 28.9071C71.1777 29.3117 69.0563 29.9954 67.9174 31.5879C67.6789 31.9088 67.5181 32.2802 67.4477 32.6733C67.3773 33.0663 67.3992 33.4702 67.5117 33.8534C67.7832 34.7612 68.4587 35.5169 69.1781 36.1088C70.8339 37.471 72.8883 38.2636 74.7234 39.3459C78.074 41.3218 81.1405 43.9852 83.1087 47.3684C83.9749 48.8572 84.7987 50.8368 83.8343 52.4772C82.8895 54.0844 80.7803 54.638 79.0603 54.8992C76.9044 55.2264 74.6837 55.1377 72.5188 54.9544C70.1453 54.734 67.7851 54.3897 65.4479 53.923C60.8691 53.0475 56.3321 51.9337 51.6897 51.4273C49.3619 51.1546 47.0146 51.087 44.6749 51.2253C42.562 51.3672 40.4309 51.7 38.4459 52.4588C36.9163 53.0434 35.2858 53.928 34.4596 55.4033C33.6631 56.8253 33.9738 58.4653 34.841 59.7773C35.8845 61.356 37.5116 62.4378 39.2033 63.2284C41.1294 64.1287 43.1896 64.7122 45.2524 65.2085C46.2986 65.4602 47.3505 65.6877 48.4024 65.9141C48.6219 65.9613 48.7156 65.6256 48.4954 65.5782C46.374 65.1217 44.2465 64.6638 42.1779 64.003C40.2635 63.3914 38.3044 62.6081 36.7368 61.324C35.4685 60.2852 34.2627 58.7679 34.3375 57.0428C34.413 55.3037 35.8782 54.0894 37.3143 53.342C39.1091 52.408 41.1481 51.953 43.1462 51.7152C45.434 51.4613 47.7412 51.4301 50.0351 51.6219C54.6666 51.9729 59.1945 53.0235 63.7355 53.9399C68.1469 54.8302 72.6961 55.6545 77.217 55.4262C79.0089 55.3357 80.9289 55.08 82.511 54.1793C83.2354 53.7669 83.8886 53.1853 84.2568 52.4284C84.5885 51.7084 84.6934 50.9051 84.5576 50.1245C84.3011 48.4097 83.2783 46.8197 82.2579 45.4538C81.1392 43.9724 79.8416 42.6338 78.3944 41.4683C76.806 40.1954 75.0934 39.0843 73.2823 38.1519C72.3218 37.6484 71.3478 37.1641 70.4325 36.5809C69.5549 36.0216 68.6892 35.3488 68.1533 34.4409C67.6897 33.6557 67.6047 32.7595 68.0875 31.9631C68.5758 31.1577 69.4171 30.5959 70.2468 30.1854C72.2457 29.1963 74.5697 28.9315 76.7567 28.6602C81.4526 28.0797 86.1851 27.8448 90.9157 27.9572C92.0655 27.9841 93.2146 28.0315 94.3629 28.0994C94.5877 28.1126 94.587 27.7642 94.3629 27.7511V27.7511Z" fill="black"/>
<path d="M91.3128 16.5865L92.0391 16.0081C91.4749 15.9461 91.2431 16.2525 91.1482 16.4951C90.7075 16.3128 90.2276 16.5517 90.2276 16.5517L91.6807 17.077C91.6074 16.882 91.4798 16.7119 91.3128 16.5865Z" fill="#3F3D56"/>
<path d="M87.7883 18.4178L88.5146 17.8394C87.9504 17.7774 87.7186 18.0838 87.6237 18.3263C87.1829 18.1441 86.7031 18.3829 86.7031 18.3829L88.1562 18.9083C88.0829 18.7133 87.9553 18.5431 87.7883 18.4178Z" fill="#3F3D56"/>
<path d="M91.3128 21.3173L92.0391 20.7389C91.4749 20.6769 91.2431 20.9833 91.1482 21.2258C90.7075 21.0436 90.2276 21.2824 90.2276 21.2824L91.6807 21.8078C91.6074 21.6128 91.4798 21.4426 91.3128 21.3173Z" fill="#3F3D56"/>
<path d="M80.4253 22.1743C81.6338 22.1743 82.6134 21.1987 82.6134 19.9953C82.6134 18.7919 81.6338 17.8163 80.4253 17.8163C79.2169 17.8163 78.2372 18.7919 78.2372 19.9953C78.2372 21.1987 79.2169 22.1743 80.4253 22.1743Z" fill="#FF6583"/>
<path d="M87.2868 26.7098H76.5526C76.5392 26.71 76.5258 26.7089 76.5125 26.7067L81.5894 17.95C81.6203 17.8954 81.6653 17.8501 81.7196 17.8185C81.774 17.7869 81.8358 17.7703 81.8987 17.7703C81.9616 17.7703 82.0234 17.7869 82.0778 17.8185C82.1321 17.8501 82.1771 17.8954 82.2081 17.95L85.6151 23.8262L85.7782 24.1073L87.2868 26.7098Z" fill="#F9A826"/>
<path d="M93.263 26.7099H83.9791L85.778 24.1076L85.9074 23.9201L88.2517 20.5289C88.2932 20.477 88.3451 20.4344 88.4042 20.4038C88.4633 20.3732 88.5282 20.3554 88.5946 20.3514C88.6611 20.3475 88.7276 20.3575 88.7899 20.3809C88.8523 20.4042 88.9089 20.4404 88.9563 20.487C88.9684 20.5002 88.9797 20.5142 88.9901 20.5289L93.263 26.7099Z" fill="#F9A826"/>
<path d="M77.9487 46.7935C78.9661 47.2999 79.5855 47.9688 79.5855 48.7024C79.5855 50.2827 76.7139 51.5639 73.1717 51.5639C71.6317 51.5639 70.2188 51.3215 69.1132 50.9179C70.2875 51.5024 71.9921 51.8704 73.8901 51.8704C77.4323 51.8704 80.3039 50.5893 80.3039 49.009C80.3039 48.1157 79.386 47.3183 77.9487 46.7935Z" fill="#F1F1F1"/>
<path d="M80.2118 47.8791C81.3599 48.4505 82.0588 49.2052 82.0588 50.033C82.0588 51.8162 78.8186 53.2618 74.8216 53.2618C73.0839 53.2618 71.4896 52.9883 70.242 52.5329C71.5671 53.1925 73.4906 53.6078 75.6322 53.6078C79.6292 53.6078 82.8694 52.1622 82.8694 50.3789C82.8694 49.371 81.8337 48.4712 80.2118 47.8791Z" fill="#F1F1F1"/>
<path d="M77.0826 47.2717C77.7994 47.6285 78.2358 48.0997 78.2358 48.6165C78.2358 49.7299 76.2127 50.6325 73.7171 50.6325C72.7448 50.645 71.7776 50.4911 70.8577 50.1774C71.6851 50.5892 72.886 50.8485 74.2232 50.8485C76.7188 50.8485 78.7419 49.9459 78.7419 48.8325C78.7419 48.2032 78.0952 47.6414 77.0826 47.2717Z" fill="#F1F1F1"/>
<path d="M67.0109 47.0673C67.0109 47.0673 67.1684 49.3601 71.6837 49.3601C76.199 49.3601 77.5471 47.0673 77.5471 47.0673H67.0109Z" fill="#3F3D56"/>
<path d="M73.4199 41.0516C72.7681 40.5584 71.9499 40.3355 71.1368 40.4296C71.8634 40.6041 72.5052 41.0278 72.9494 41.6265C73.3936 42.2252 73.6119 42.9606 73.5659 43.7036C73.52 44.4466 73.2127 45.1497 72.6981 45.6896C72.1834 46.2294 71.4943 46.5716 70.7516 46.6559C71.462 46.8267 72.2098 46.7487 72.8692 46.435C73.5287 46.1213 74.0596 45.5911 74.3727 44.9335C74.6858 44.2759 74.762 43.531 74.5884 42.8241C74.4149 42.1171 74.0023 41.4912 73.4199 41.0516Z" fill="#3F3D56"/>
<path d="M71.9403 40.0158H71.6324V47.3136H71.9403V40.0158Z" fill="#3F3D56"/>
<path d="M92.1728 34.5936L92.1711 34.5908L92.167 34.4125L93.1314 33.018L92.1681 34.2791L92.1647 34.3168L92.1317 32.8914L92.9647 31.4456L92.1293 32.641L92.1381 29.6881L92.138 29.6782L92.1378 29.6879L92.0824 32.0152L91.3232 31.0699L92.08 32.2157L92.0634 33.4907L91.3647 32.2464L92.0608 33.6781L92.0516 34.387L92.0261 36.3511L92.0242 36.4979C92.0886 36.4984 92.1522 36.4973 92.2153 36.4947L92.1716 34.6081L92.1728 34.5936Z" fill="#CBCBCB"/>
<path d="M87.5549 35.2067L87.5532 35.2039L87.5491 35.0257L88.5135 33.6312L87.5502 34.8922L87.5468 34.9299L87.5138 33.5046L88.3468 32.0588L87.5114 33.2542L87.5201 30.3012L87.5201 30.2914L87.5198 30.301L87.4645 32.6284L86.7053 31.683L87.4621 32.8289L87.4455 34.1038L86.7468 32.8595L87.4429 34.2913L87.4337 35.0002L87.4082 36.9643L87.4063 37.111C87.4706 37.1115 87.5343 37.1105 87.5974 37.1078L87.5537 35.2213L87.5549 35.2067Z" fill="#CBCBCB"/>
<path d="M89.8125 33.265L89.8109 33.2622L89.8067 33.084L90.7712 31.6895L89.8079 32.9505L89.8044 32.9882L89.7714 31.5629L90.6045 30.1171L89.7691 31.3125L89.7778 28.3595L89.7778 28.3497L89.7775 28.3594L89.7222 30.6867L88.963 29.7413L89.7197 30.8872L89.7031 32.1621L89.0045 30.9178L89.7006 32.3496L89.6913 33.0585L89.6658 35.0226L89.664 35.1693C89.7283 35.1698 89.792 35.1688 89.855 35.1661L89.8113 33.2796L89.8125 33.265Z" fill="#CBCBCB"/>
<path d="M51.6727 67.1997C52.3528 67.1997 52.9042 66.6506 52.9042 65.9733C52.9042 65.2961 52.3528 64.747 51.6727 64.747C50.9926 64.747 50.4413 65.2961 50.4413 65.9733C50.4413 66.6506 50.9926 67.1997 51.6727 67.1997Z" fill="#F9A826"/>
<path d="M117.403 88.6106L116.263 89.0324L114.087 84.854L115.769 84.2314L117.403 88.6106Z" fill="#FFB7B7"/>
<path d="M118.104 89.6034L114.428 90.9636L114.411 90.9173C114.27 90.5394 114.286 90.1212 114.454 89.7547C114.623 89.3882 114.931 89.1034 115.31 88.963L115.31 88.9629L117.556 88.1322L118.104 89.6034Z" fill="#2F2E41"/>
<path d="M106.183 89.7895L104.967 89.7894L104.389 85.1178L106.184 85.118L106.183 89.7895Z" fill="#FFB7B7"/>
<path d="M106.395 90.9636L102.473 90.9634V90.914C102.473 90.5109 102.634 90.1243 102.92 89.8392C103.206 89.5542 103.595 89.394 103.999 89.394H103.999L106.395 89.3941L106.395 90.9636Z" fill="#2F2E41"/>
<path d="M111.752 57.3899L111.355 56.5995L107.982 58.279L108.081 58.9705L107.436 59.8102C107.436 59.8102 106.345 60.403 106.544 62.3788L106.742 64.2559L106.99 66.6762L105.254 72.6531L104.361 80.5564L103.716 86.9284L106.841 86.7802L109.718 76.4072L114.777 87.5706L118.249 86.6814L113.488 75.6168L112.893 70.9736C112.893 70.9736 113.289 68.5039 111.405 66.8244L111.702 65.9353V64.8396L112.694 59.6127L111.752 57.3899Z" fill="#2F2E41"/>
<path opacity="0.2" d="M111.844 68.6857L109.662 76.3914L109.774 76.4229L111.957 68.7172L111.844 68.6857Z" fill="black"/>
<path d="M111.652 66.6762H106.792V67.1702H111.652V66.6762Z" fill="#3F3D56"/>
<path d="M106.792 67.4666C106.901 67.4666 106.99 67.2454 106.99 66.9726C106.99 66.6998 106.901 66.4786 106.792 66.4786C106.682 66.4786 106.593 66.6998 106.593 66.9726C106.593 67.2454 106.682 67.4666 106.792 67.4666Z" fill="#3F3D56"/>
<path d="M110.252 56.1122C111.533 55.4146 112.004 53.8146 111.304 52.5385C110.603 51.2624 108.997 50.7934 107.715 51.491C106.434 52.1885 105.963 53.7885 106.663 55.0647C107.364 56.3408 108.971 56.8098 110.252 56.1122Z" fill="#FFB7B7"/>
<path d="M113.03 52.8615C114.322 52.8615 115.369 51.8185 115.369 50.5319C115.369 49.2453 114.322 48.2023 113.03 48.2023C111.738 48.2023 110.691 49.2453 110.691 50.5319C110.691 51.8185 111.738 52.8615 113.03 52.8615Z" fill="#2F2E41"/>
<path d="M115.999 50.2824C116.091 50.591 116.118 50.9154 116.078 51.235C116.038 51.5546 115.932 51.8624 115.766 52.1391C115.601 52.4158 115.38 52.6554 115.117 52.8426C114.853 53.0298 114.554 53.1607 114.238 53.227C113.921 53.2932 113.594 53.2934 113.278 53.2275C112.961 53.1617 112.662 53.0311 112.399 52.8442C112.135 52.6573 111.914 52.418 111.748 52.1415C111.582 51.865 111.476 51.5573 111.435 51.2377C111.603 51.7982 111.976 52.2753 112.481 52.5745C112.985 52.8737 113.584 52.973 114.159 52.8527C114.733 52.7324 115.242 52.4013 115.582 51.9251C115.923 51.449 116.072 50.8626 115.999 50.2824Z" fill="#2F2E41"/>
<path d="M106.757 53.0705C106.688 53.6726 106.821 54.2806 107.135 54.8C107.448 55.3195 107.925 55.7214 108.491 55.9437C109.057 56.1659 109.681 56.196 110.266 56.0292C110.851 55.8625 111.365 55.5082 111.727 55.0213C112.09 54.5344 112.281 53.9421 112.271 53.3362C112.261 52.7302 112.05 52.1444 111.672 51.6696C111.294 51.1948 110.769 50.8574 110.179 50.7098C109.589 50.5621 108.966 50.6125 108.407 50.853C107.945 50.482 107.373 50.597 106.907 50.9886C106.381 51.4313 106.224 51.7354 105.816 52.4635C106.217 52.5197 106.355 53.0143 106.757 53.0705Z" fill="#2F2E41"/>
<path d="M116.477 60.9897C116.447 61.7701 116.389 63.3062 116.389 63.3846C116.389 63.4672 115.219 65.8785 114.714 66.9162V66.9167C114.678 66.9899 114.646 67.0562 114.617 67.1146C114.578 67.1951 114.517 67.2628 114.44 67.3096C114.364 67.3564 114.275 67.3804 114.186 67.3788L111.978 67.3393C111.857 67.3372 111.741 67.2886 111.655 67.2034C111.568 67.1183 111.519 67.0033 111.516 66.8825L111.269 57.2097C111.268 57.1778 111.274 57.1461 111.286 57.1164C111.297 57.0867 111.315 57.0596 111.337 57.0368C111.36 57.0139 111.386 56.9958 111.416 56.9833C111.445 56.9709 111.477 56.9645 111.509 56.9645H114.356C114.477 56.9646 114.594 56.9984 114.696 57.062C114.798 57.1257 114.88 57.2166 114.932 57.3245L116.299 60.1398C116.427 60.4044 116.488 60.6962 116.477 60.9897V60.9897Z" fill="#F9A826"/>
<path d="M111.477 66.2187C110.911 65.8768 110.402 65.4484 109.969 64.9491C108.963 63.8224 108.351 62.4011 108.225 60.8987C108.113 59.6131 108.369 58.6576 108.986 58.0586C109.771 57.2971 110.839 57.4077 110.884 57.4128L110.932 57.4182L111.656 58.028L111.451 58.2691L110.804 57.7234C110.605 57.7135 109.796 57.7114 109.205 58.2872C108.661 58.8172 108.438 59.6866 108.541 60.8713C108.661 62.3018 109.242 63.6555 110.197 64.7301C110.61 65.205 111.093 65.6138 111.63 65.9422L111.477 66.2187Z" fill="#F9A826"/>
<path d="M115.585 62.5439L111.728 63.3329L111.749 63.436L115.607 62.647L115.585 62.5439Z" fill="#3F3D56"/>
<path d="M113.043 56.9624L112.937 56.9667L113.188 63.0794L113.293 63.0751L113.043 56.9624Z" fill="#3F3D56"/>
<path d="M116.477 60.9897C116.447 61.7701 116.389 63.3062 116.389 63.3846C116.389 63.4672 115.219 65.8785 114.714 66.9162L115.656 61.4712C115.692 61.2617 115.784 61.0656 115.921 60.903C116.059 60.7403 116.237 60.617 116.438 60.5456C116.47 60.6914 116.483 60.8406 116.477 60.9897Z" fill="#3F3D56"/>
<path d="M110.691 72.4009C110.775 72.2939 110.834 72.17 110.864 72.0379C110.894 71.9059 110.894 71.7688 110.866 71.6365C110.837 71.5041 110.779 71.3797 110.697 71.2719C110.614 71.1642 110.509 71.0757 110.389 71.0127L110.58 68.9044L109.322 68.4761L109.094 71.4572C109.001 71.6657 108.988 71.9008 109.058 72.118C109.128 72.3352 109.275 72.5194 109.472 72.6357C109.669 72.752 109.902 72.7924 110.126 72.7491C110.351 72.7058 110.552 72.5819 110.691 72.4009Z" fill="#FFB7B7"/>
<path d="M110.856 70.3608L108.626 70.2803L108.721 59.5734C108.719 59.2704 108.813 58.9746 108.99 58.7277C109.166 58.4809 109.416 58.2955 109.704 58.1978C109.973 58.1088 110.264 58.1085 110.533 58.1971C110.839 58.3 111.101 58.5013 111.279 58.7692C111.456 59.0371 111.54 59.3563 111.515 59.6764L110.856 70.3608Z" fill="#CBCBCB"/>
<path d="M130.414 91H85.9959C85.965 91 85.9353 90.9878 85.9135 90.966C85.8916 90.9442 85.8793 90.9147 85.8793 90.8839C85.8793 90.8531 85.8916 90.8236 85.9135 90.8018C85.9353 90.78 85.965 90.7678 85.9959 90.7678H130.414C130.445 90.7678 130.474 90.78 130.496 90.8018C130.518 90.8236 130.53 90.8531 130.53 90.8839C130.53 90.9147 130.518 90.9442 130.496 90.966C130.474 90.9878 130.445 91 130.414 91Z" fill="#CBCBCB"/>
</g>
<defs>
<filter id="filter0_d_735_27" x="0" y="0" width="165" height="162" filterUnits="userSpaceOnUse" color-interpolation-filters="sRGB">
<feFlood flood-opacity="0" result="BackgroundImageFix"/>
<feColorMatrix in="SourceAlpha" type="matrix" values="0 0 0 0 0 0 0 0 0 0 0 0 0 0 0 0 0 0 127 0" result="hardAlpha"/>
<feOffset dy="4"/>
<feGaussianBlur stdDeviation="2"/>
<feComposite in2="hardAlpha" operator="out"/>
<feColorMatrix type="matrix" values="0 0 0 0 0 0 0 0 0 0 0 0 0 0 0 0 0 0 0.25 0"/>
<feBlend mode="normal" in2="BackgroundImageFix" result="effect1_dropShadow_735_27"/>
<feBlend mode="normal" in="SourceGraphic" in2="effect1_dropShadow_735_27" result="shape"/>
</filter>
<filter id="filter1_d_735_27" x="30" y="16" width="105" height="83" filterUnits="userSpaceOnUse" color-interpolation-filters="sRGB">
<feFlood flood-opacity="0" result="BackgroundImageFix"/>
<feColorMatrix in="SourceAlpha" type="matrix" values="0 0 0 0 0 0 0 0 0 0 0 0 0 0 0 0 0 0 127 0" result="hardAlpha"/>
<feOffset dy="4"/>
<feGaussianBlur stdDeviation="2"/>
<feComposite in2="hardAlpha" operator="out"/>
<feColorMatrix type="matrix" values="0 0 0 0 0 0 0 0 0 0 0 0 0 0 0 0 0 0 0.25 0"/>
<feBlend mode="normal" in2="BackgroundImageFix" result="effect1_dropShadow_735_27"/>
<feBlend mode="normal" in="SourceGraphic" in2="effect1_dropShadow_735_27" result="shape"/>
</filter>
<clipPath id="clip0_735_27">
<rect width="97" height="75" fill="white" transform="translate(34 16)"/>
</clipPath>
</defs>
</svg>
